<svg width="640" height="484" viewBox="0 0 640 484" fill="none" xmlns="http://www.w3.org/2000/svg">
    <g opacity="0.5">
    <mask id="mask0_13207_44547" style="mask-type:alpha" maskUnits="userSpaceOnUse" x="0" y="0" width="715" height="484">
    <rect x="0.451395" y="-0.544281" width="677" height="421" transform="matrix(0.995677 -0.0928861 -0.0928861 -0.995677 39.1496 482.108)" fill="url(#paint0_linear_13207_44547)" stroke="#667986"/>
    </mask>
    <g mask="url(#mask0_13207_44547)">
    <g opacity="0.5">
    <path opacity="0.5" d="M115.043 366.214L431.556 323.009" stroke="#0D6EFD" stroke-opacity="0.6" stroke-width="0.748967"/>
    <path opacity="0.5" d="M115.043 366.214L332.774 27.3882" stroke="#0D6EFD" stroke-opacity="0.6" stroke-width="0.748967"/>
    <path opacity="0.5" d="M562.315 107.992L333.147 26.7879" stroke="#0D6EFD" stroke-opacity="0.6" stroke-width="0.748967"/>
    <circle cx="117.359" cy="371.392" r="50.9298" transform="rotate(166.769 117.359 371.392)" fill="#0D6EFD" fill-opacity="0.3"/>
    <circle cx="117.359" cy="371.392" r="50.5553" transform="rotate(166.769 117.359 371.392)" stroke="#0D6EFD" stroke-opacity="0.6" stroke-width="0.748967"/>
    <circle cx="570.789" cy="109.081" r="55.5" transform="rotate(166.769 570.789 109.081)" fill="#0D6EFD" fill-opacity="0.3"/>
    <circle cx="570.789" cy="109.081" r="55.1255" transform="rotate(166.769 570.789 109.081)" stroke="#0D6EFD" stroke-opacity="0.6" stroke-width="0.748967"/>
    <circle cx="431.957" cy="327" r="74.5222" transform="rotate(166.769 431.957 327)" fill="#0D6EFD" fill-opacity="0.3"/>
    <circle cx="431.957" cy="327" r="74.1477" transform="rotate(166.769 431.957 327)" stroke="#0D6EFD" stroke-opacity="0.6" stroke-width="0.748967"/>
    </g>
    </g>
    </g>
    <defs>
    <linearGradient id="paint0_linear_13207_44547" x1="339" y1="4.25253e-06" x2="384.42" y2="337.928" gradientUnits="userSpaceOnUse">
    <stop stop-color="#D9D9D9"/>
    <stop offset="1" stop-color="#D9D9D9" stop-opacity="0"/>
    </linearGradient>
    </defs>
    </svg>
    
