<svg width="179" height="22" viewBox="0 0 179 22" fill="none" xmlns="http://www.w3.org/2000/svg">
<g id="Logo">
<path id="Vector" d="M0 4.37099C0 4.44322 0.0242579 4.46732 0.0994576 4.46732H16.8811C17.472 4.46732 17.7438 4.56539 17.8668 4.73637C17.9881 4.85892 18.1118 5.10387 18.1118 5.69076V12.9057C18.1118 13.8599 17.8409 14.1053 16.8811 14.1053H0.0994576C0.0242579 14.1053 0 14.1296 0 14.204V16.8939C0 17.4564 0.394521 17.8488 0.9615 17.8488H17.4479C20.6016 17.8488 22.1784 16.2835 22.1784 13.1271V5.44582C22.1784 2.29146 20.6016 0.726074 17.4479 0.726074H0.9615C0.76324 0.726074 0.591013 0.774436 0.419001 0.89705L0.222952 1.06757C0.147973 1.1398 0.0994577 1.23832 0.0749792 1.31297C0.0485158 1.337 0.0485158 1.3611 0.0485158 1.4093C0.0242579 1.58201 0 1.65424 0 1.67828V4.37099Z" fill="#99A6AF"/>
<path id="Vector_2" d="M30.2697 16.9181C30.2697 17.1132 30.3446 17.3822 30.541 17.5794C30.5653 17.6517 30.6156 17.6517 30.6398 17.6758C30.8121 17.7985 31.0086 17.8489 31.2308 17.8489H49.1953C49.3936 17.8489 49.6385 17.8248 49.8366 17.6517L49.9094 17.5794C50.108 17.3581 50.1567 17.0891 50.1567 16.894V15.0598C50.1567 14.9129 50.1567 14.8144 50.1326 14.7904C50.0573 14.3264 49.6141 14.1054 49.1953 14.1054H31.2067C30.8849 14.1054 30.7127 14.2042 30.4926 14.4226C30.3689 14.5958 30.2939 14.7904 30.2939 15.0095C30.2697 15.0358 30.2697 15.1321 30.2697 15.3048V16.9181ZM30.2939 1.60614C30.2939 1.70466 30.2697 1.80122 30.2697 1.89974V3.53886C30.2697 3.73389 30.3181 4.00292 30.541 4.22204C30.6156 4.24832 30.5896 4.27236 30.6641 4.29645C30.8364 4.46743 31.0593 4.46743 31.2308 4.46743H49.0958C49.2941 4.46743 49.5655 4.41924 49.7863 4.22204C50.0088 4.00292 50.0573 3.73389 50.0573 3.51259V1.67838C50.0573 1.65433 50.0331 1.5821 50.0088 1.40939C49.9336 1.09176 49.8124 0.993022 49.5413 0.82272C49.4178 0.750486 49.2698 0.726164 49.0958 0.726164H31.3546C31.1563 0.69988 30.8607 0.750483 30.6398 0.944823L30.5168 1.04334C30.3446 1.21432 30.3181 1.43517 30.2939 1.60614ZM30.2697 10.3622C30.2939 10.5835 30.3931 10.7539 30.541 10.8767C30.5653 10.9489 30.6156 10.9489 30.6398 10.9752C30.8364 11.1461 31.0593 11.1461 31.2308 11.1461H48.8508C49.442 11.1461 49.8124 10.7779 49.8124 10.1912V8.38119C49.8124 8.23431 49.8124 8.13579 49.7863 8.11169C49.762 7.94117 49.6141 7.67174 49.442 7.59944C49.2698 7.42673 49.0473 7.42673 48.8751 7.42673H31.4032C31.1824 7.40269 30.8849 7.42673 30.6641 7.62354L30.541 7.71987C30.3931 7.89303 30.3181 8.08805 30.3181 8.25834L30.2697 8.5521V10.3622Z" fill="#99A6AF"/>
<path id="Vector_3" d="M58.2468 13.2253C58.2468 16.3792 60.0195 17.9444 63.1002 17.9444H71.9235L72.614 19.7067C72.7376 20.0239 72.859 20.3176 72.9578 20.6108C72.982 20.637 73.0329 20.6611 73.0572 20.6611H77.2472C77.3686 20.6611 77.3951 20.6108 77.3443 20.5383L74.215 12.6123C74.1908 12.6123 74.1665 12.5882 74.1422 12.5882H69.9522C69.8527 12.5882 69.8285 12.6386 69.8527 12.7345C70.025 13.1267 70.2237 13.6171 70.4439 14.2038H63.7178C63.1002 14.2038 62.7807 14.0569 62.6085 13.8837C62.4369 13.7633 62.3376 13.4439 62.3376 12.9799V5.59173C62.3376 5.12768 62.4369 4.8105 62.6085 4.68789C62.7807 4.51692 63.1002 4.39481 63.7178 4.39481H74.6096C75.5711 4.39481 75.964 4.61325 75.964 5.59173V12.9799C75.964 13.249 75.9155 13.4943 75.8426 13.7134C75.8161 13.7375 75.8161 13.7633 75.8426 13.7874L77.3443 17.5043C77.3686 17.5549 77.3951 17.579 77.4679 17.579C77.962 17.4081 78.2572 17.1872 78.824 16.6993C79.7103 15.8407 80.0547 14.6919 80.0547 13.2253V5.3733C80.0547 2.21653 78.3057 0.651367 75.225 0.651367H63.1002C59.923 0.651367 58.2468 2.21653 58.2468 5.3733V13.2253Z" fill="#99A6AF"/>
<path id="Vector_4" d="M89.1061 0.726074C88.5394 0.726074 88.1448 1.11571 88.1448 1.67828V13.1271C88.1448 16.185 89.6974 17.8488 92.8771 17.8488H105.222C108.378 17.8488 109.955 16.2835 109.955 13.1271V1.67828C109.955 1.48327 109.906 1.21422 109.708 0.992928C109.487 0.774436 109.216 0.726074 108.993 0.726074H106.825C106.259 0.726074 105.863 1.11571 105.863 1.67828V12.9057C105.863 13.8599 105.593 14.1053 104.631 14.1053H93.4924C92.5312 14.1053 92.2351 13.8599 92.2351 12.9057V1.67828C92.2351 1.48327 92.1871 1.21422 91.9639 0.992928C91.7683 0.774436 91.4962 0.726074 91.2766 0.726074H89.1061Z" fill="#99A6AF"/>
<path id="Vector_5" d="M119.008 0.726074C118.441 0.726074 118.046 1.11571 118.046 1.67828V16.8939C118.046 17.4564 118.441 17.8488 119.008 17.8488H121.175C121.398 17.8488 121.67 17.7984 121.865 17.5792C122.086 17.3579 122.137 17.0889 122.137 16.8939V1.67828C122.137 1.48327 122.086 1.21422 121.865 0.992928C121.67 0.774436 121.398 0.726074 121.175 0.726074H119.008Z" fill="#99A6AF"/>
<path id="Vector_6" d="M129.958 0.726074C129.392 0.726074 128.997 1.11571 128.997 1.67828V3.51248C128.997 3.73377 129.046 4.00282 129.269 4.22193C129.492 4.41913 129.761 4.46732 129.958 4.46732H137.673V16.8939C137.673 17.0889 137.722 17.3579 137.942 17.5792C138.141 17.7984 138.412 17.8488 138.632 17.8488H140.751C140.974 17.8488 141.245 17.7984 141.442 17.5792C141.664 17.3579 141.713 17.0889 141.713 16.8939V4.46732H149.403C149.97 4.46732 150.389 4.10134 150.389 3.51248V1.67828C150.389 1.45917 150.289 1.21422 150.117 0.992928C149.894 0.798533 149.623 0.726074 149.403 0.726074H129.958Z" fill="#99A6AF"/>
<path id="Vector_7" d="M156.114 1.23832C156.039 1.4093 156.039 1.5555 156.089 1.67828C156.114 1.89963 156.238 2.04584 156.361 2.16862C156.385 2.16862 158.453 4.46732 160.624 6.74148L164.91 11.3403V16.8939C164.91 17.4564 165.305 17.8488 165.872 17.8488H167.991C168.214 17.8488 168.483 17.7984 168.681 17.5792C168.902 17.3579 168.953 17.0889 168.953 16.8939V11.3403L177.553 2.14457C177.65 2.04584 177.774 1.89963 177.799 1.67828C177.848 1.5555 177.848 1.4093 177.774 1.23832C177.701 1.06757 177.577 0.968832 177.479 0.89705C177.306 0.774436 177.135 0.726074 176.911 0.726074H174.373C173.806 0.726074 173.511 1.04325 173.315 1.23832L172.329 2.31549L170.134 4.66412L166.957 8.06387L160.573 1.26236C160.353 1.04325 160.057 0.726074 159.49 0.726074H156.952C156.581 0.726074 156.238 0.920695 156.114 1.23832Z" fill="#99A6AF"/>
</g>
</svg>
