<svg width="201" height="25" viewBox="0 0 201 25" fill="none" xmlns="http://www.w3.org/2000/svg">
<path d="M0 5.45234C0 5.53418 0.0272819 5.56148 0.111856 5.56148H18.9855C19.6501 5.56148 19.9557 5.67259 20.0941 5.86631C20.2305 6.00516 20.3696 6.28269 20.3696 6.94764V15.1222C20.3696 16.2033 20.0649 16.4813 18.9855 16.4813H0.111856C0.0272819 16.4813 0 16.5089 0 16.5932V19.6408C0 20.2782 0.443702 20.7227 1.08136 20.7227H19.6229C23.1698 20.7227 24.9431 18.9493 24.9431 15.373V6.67012C24.9431 3.09622 23.1698 1.32263 19.6229 1.32263H1.08136C0.858385 1.32263 0.664689 1.37743 0.471233 1.51635L0.250745 1.70955C0.166419 1.79139 0.111856 1.90301 0.0843261 1.98759C0.0545638 2.01482 0.0545638 2.04212 0.0545638 2.09673C0.0272819 2.29241 0 2.37425 0 2.40149V5.45234Z" fill="#FCFDFD"/>
<path d="M34.043 19.6681C34.043 19.8891 34.1273 20.1939 34.3482 20.4173C34.3755 20.4992 34.4321 20.4992 34.4593 20.5265C34.6531 20.6656 34.8741 20.7227 35.124 20.7227H55.3279C55.5509 20.7227 55.8264 20.6954 56.0492 20.4992L56.131 20.4173C56.3544 20.1666 56.4092 19.8618 56.4092 19.6408V17.5626C56.4092 17.3962 56.4092 17.2846 56.382 17.2574C56.2974 16.7316 55.7989 16.4813 55.3279 16.4813H35.0968C34.7349 16.4813 34.5413 16.5932 34.2937 16.8407C34.1546 17.0369 34.0703 17.2574 34.0703 17.5056C34.043 17.5354 34.043 17.6445 34.043 17.8402V19.6681ZM34.0703 2.31956C34.0703 2.43118 34.043 2.54058 34.043 2.6522V4.50934C34.043 4.7303 34.0975 5.03512 34.3482 5.28338C34.4321 5.31315 34.4028 5.34039 34.4866 5.36769C34.6804 5.56141 34.9311 5.56141 35.124 5.56141H55.216C55.439 5.56141 55.7443 5.50681 55.9926 5.28338C56.2428 5.03512 56.2974 4.7303 56.2974 4.47957V2.4014C56.2974 2.37416 56.2701 2.29232 56.2428 2.09664C56.1582 1.73676 56.0219 1.62489 55.717 1.43194C55.5782 1.3501 55.4117 1.32254 55.216 1.32254H35.2632C35.0402 1.29276 34.7077 1.35009 34.4593 1.57028L34.321 1.6819C34.1273 1.87562 34.0975 2.12584 34.0703 2.31956ZM34.043 12.2402C34.0703 12.4909 34.1818 12.684 34.3482 12.8231C34.3755 12.9049 34.4321 12.9049 34.4593 12.9347C34.6804 13.1284 34.9311 13.1284 35.124 13.1284H54.9405C55.6054 13.1284 56.0219 12.7112 56.0219 12.0465V9.99571C56.0219 9.8293 56.0219 9.71768 55.9926 9.69037C55.9653 9.49717 55.7989 9.1919 55.6054 9.10999C55.4117 8.91431 55.1615 8.91431 54.9678 8.91431H35.3178C35.0695 8.88707 34.7349 8.91431 34.4866 9.13729L34.3482 9.24644C34.1818 9.44263 34.0975 9.66358 34.0975 9.85653L34.043 10.1894V12.2402Z" fill="#FCFDFD"/>
<path d="M65.5078 15.4844C65.5078 19.0578 67.5015 20.8311 70.9662 20.8311H80.8894L81.666 22.8278C81.805 23.1872 81.9415 23.52 82.0526 23.8522C82.0799 23.8819 82.1371 23.9092 82.1644 23.9092H86.8768C87.0133 23.9092 87.0431 23.8522 86.986 23.7701L83.4666 14.7899C83.4393 14.7899 83.412 14.7626 83.3847 14.7626H78.6723C78.5605 14.7626 78.5332 14.8197 78.5605 14.9283C78.7542 15.3727 78.9777 15.9283 79.2253 16.593H71.6608C70.9662 16.593 70.6069 16.4266 70.4132 16.2304C70.2202 16.0939 70.1085 15.7321 70.1085 15.2063V6.83555C70.1085 6.30977 70.2202 5.95041 70.4132 5.81149C70.6069 5.61778 70.9662 5.47943 71.6608 5.47943H83.9104C84.9917 5.47943 85.4336 5.72692 85.4336 6.83555V15.2063C85.4336 15.5112 85.379 15.7892 85.2971 16.0374C85.2672 16.0647 85.2672 16.0939 85.2971 16.1212L86.986 20.3325C87.0133 20.3899 87.0431 20.4171 87.125 20.4171C87.6806 20.2235 88.0126 19.9732 88.6501 19.4204C89.6469 18.4477 90.0342 17.1461 90.0342 15.4844V6.58806C90.0342 3.01143 88.0672 1.2381 84.6025 1.2381H70.9662C67.3929 1.2381 65.5078 3.01143 65.5078 6.58806V15.4844Z" fill="#FCFDFD"/>
<path d="M100.214 1.32263C99.5766 1.32263 99.1328 1.76409 99.1328 2.40149V15.373C99.1328 18.8377 100.879 20.7227 104.455 20.7227H118.339C121.888 20.7227 123.662 18.9493 123.662 15.373V2.40149C123.662 2.18054 123.607 1.87571 123.384 1.62498C123.135 1.37743 122.831 1.32263 122.58 1.32263H120.142C119.505 1.32263 119.06 1.76409 119.06 2.40149V15.1222C119.06 16.2033 118.756 16.4813 117.674 16.4813H105.147C104.066 16.4813 103.733 16.2033 103.733 15.1222V2.40149C103.733 2.18054 103.679 1.87571 103.428 1.62498C103.208 1.37743 102.902 1.32263 102.655 1.32263H100.214Z" fill="#FCFDFD"/>
<path d="M133.843 1.32263C133.206 1.32263 132.762 1.76409 132.762 2.40149V19.6408C132.762 20.2782 133.206 20.7227 133.843 20.7227H136.281C136.531 20.7227 136.837 20.6656 137.057 20.4173C137.305 20.1666 137.362 19.8618 137.362 19.6408V2.40149C137.362 2.18054 137.305 1.87571 137.057 1.62498C136.837 1.37743 136.531 1.32263 136.281 1.32263H133.843Z" fill="#FCFDFD"/>
<path d="M146.159 1.32263C145.522 1.32263 145.078 1.76409 145.078 2.40149V4.47964C145.078 4.73037 145.133 5.0352 145.384 5.28345C145.634 5.50688 145.937 5.56148 146.159 5.56148H154.835V19.6408C154.835 19.8618 154.89 20.1666 155.138 20.4173C155.361 20.6656 155.666 20.7227 155.914 20.7227H158.297C158.548 20.7227 158.853 20.6656 159.074 20.4173C159.324 20.1666 159.379 19.8618 159.379 19.6408V5.56148H168.027C168.665 5.56148 169.136 5.14682 169.136 4.47964V2.40149C169.136 2.15323 169.024 1.87571 168.831 1.62498C168.58 1.40473 168.275 1.32263 168.027 1.32263H146.159Z" fill="#FCFDFD"/>
<path d="M175.575 1.90301C175.491 2.09673 175.491 2.26238 175.547 2.40149C175.575 2.65228 175.714 2.81793 175.853 2.95704C175.88 2.95704 178.206 5.56148 180.647 8.13811L185.468 13.3486V19.6408C185.468 20.2782 185.912 20.7227 186.549 20.7227H188.933C189.183 20.7227 189.486 20.6656 189.709 20.4173C189.957 20.1666 190.015 19.8618 190.015 19.6408V13.3486L199.687 2.9298C199.796 2.81793 199.935 2.65228 199.963 2.40149C200.019 2.26238 200.019 2.09673 199.935 1.90301C199.853 1.70955 199.714 1.59768 199.603 1.51635C199.409 1.37743 199.216 1.32263 198.965 1.32263H196.11C195.473 1.32263 195.141 1.682 194.92 1.90301L193.811 3.12345L191.343 5.78446L187.77 9.63639L180.59 1.93025C180.342 1.682 180.01 1.32263 179.372 1.32263H176.517C176.1 1.32263 175.714 1.54314 175.575 1.90301Z" fill="#FCFDFD"/>
</svg>
