<svg width="201" height="25" viewBox="0 0 201 25" fill="none" xmlns="http://www.w3.org/2000/svg">
<path d="M0 5.45197C0 5.53381 0.0272819 5.56111 0.111856 5.56111H18.9855C19.6501 5.56111 19.9557 5.67222 20.0941 5.86594C20.2305 6.00479 20.3696 6.28232 20.3696 6.94727V15.1218C20.3696 16.2029 20.0649 16.4809 18.9855 16.4809H0.111856C0.0272819 16.4809 0 16.5085 0 16.5928V19.6404C0 20.2778 0.443702 20.7223 1.08136 20.7223H19.6229C23.1698 20.7223 24.9431 18.9489 24.9431 15.3726V6.66975C24.9431 3.09585 23.1698 1.32227 19.6229 1.32227H1.08136C0.858385 1.32227 0.664689 1.37706 0.471233 1.51598L0.250745 1.70918C0.166419 1.79102 0.111856 1.90264 0.0843261 1.98722C0.0545638 2.01445 0.0545638 2.04175 0.0545638 2.09636C0.0272819 2.29204 0 2.37388 0 2.40112V5.45197Z" fill="#1269E8"/>
<path d="M34.043 19.6673C34.043 19.8883 34.1273 20.1931 34.3482 20.4165C34.3755 20.4984 34.4321 20.4984 34.4593 20.5257C34.6531 20.6648 34.8741 20.7219 35.124 20.7219H55.3279C55.5509 20.7219 55.8264 20.6946 56.0492 20.4984L56.131 20.4165C56.3544 20.1658 56.4092 19.861 56.4092 19.64V17.5618C56.4092 17.3954 56.4092 17.2838 56.382 17.2566C56.2974 16.7308 55.7989 16.4805 55.3279 16.4805H35.0968C34.7349 16.4805 34.5413 16.5924 34.2937 16.8399C34.1546 17.0361 34.0703 17.2566 34.0703 17.5048C34.043 17.5346 34.043 17.6437 34.043 17.8394V19.6673ZM34.0703 2.31877C34.0703 2.43039 34.043 2.53979 34.043 2.65141V4.50855C34.043 4.72951 34.0975 5.03433 34.3482 5.28259C34.4321 5.31236 34.4028 5.3396 34.4866 5.3669C34.6804 5.56062 34.9311 5.56062 35.124 5.56062H55.216C55.439 5.56062 55.7443 5.50602 55.9926 5.28259C56.2428 5.03433 56.2974 4.72951 56.2974 4.47878V2.40061C56.2974 2.37337 56.2701 2.29153 56.2428 2.09585C56.1582 1.73597 56.0219 1.6241 55.717 1.43115C55.5782 1.3493 55.4117 1.32175 55.216 1.32175H35.2632C35.0402 1.29197 34.7077 1.3493 34.4593 1.56949L34.321 1.68111C34.1273 1.87483 34.0975 2.12505 34.0703 2.31877ZM34.043 12.2394C34.0703 12.4901 34.1818 12.6832 34.3482 12.8223C34.3755 12.9041 34.4321 12.9041 34.4593 12.9339C34.6804 13.1276 34.9311 13.1276 35.124 13.1276H54.9405C55.6054 13.1276 56.0219 12.7104 56.0219 12.0457V9.99492C56.0219 9.82851 56.0219 9.71689 55.9926 9.68958C55.9653 9.49638 55.7989 9.19111 55.6054 9.1092C55.4117 8.91352 55.1615 8.91352 54.9678 8.91352H35.3178C35.0695 8.88628 34.7349 8.91352 34.4866 9.1365L34.3482 9.24565C34.1818 9.44184 34.0975 9.66279 34.0975 9.85574L34.043 10.1886V12.2394Z" fill="#1269E8"/>
<path d="M65.5078 15.4846C65.5078 19.058 67.5015 20.8313 70.9662 20.8313H80.8894L81.666 22.828C81.805 23.1874 81.9415 23.5202 82.0526 23.8524C82.0799 23.8821 82.1371 23.9094 82.1644 23.9094H86.8768C87.0133 23.9094 87.0431 23.8524 86.986 23.7703L83.4666 14.7901C83.4393 14.7901 83.412 14.7628 83.3847 14.7628H78.6723C78.5605 14.7628 78.5332 14.8199 78.5605 14.9285C78.7542 15.3729 78.9777 15.9285 79.2253 16.5932H71.6608C70.9662 16.5932 70.6069 16.4268 70.4132 16.2306C70.2202 16.0941 70.1085 15.7323 70.1085 15.2065V6.83574C70.1085 6.30996 70.2202 5.9506 70.4132 5.81168C70.6069 5.61797 70.9662 5.47962 71.6608 5.47962H83.9104C84.9917 5.47962 85.4336 5.72711 85.4336 6.83574V15.2065C85.4336 15.5114 85.379 15.7894 85.2971 16.0376C85.2672 16.0649 85.2672 16.0941 85.2971 16.1214L86.986 20.3327C87.0133 20.3901 87.0431 20.4173 87.125 20.4173C87.6806 20.2237 88.0126 19.9734 88.6501 19.4206C89.6469 18.4479 90.0342 17.1463 90.0342 15.4846V6.58825C90.0342 3.01162 88.0672 1.23828 84.6025 1.23828H70.9662C67.3929 1.23828 65.5078 3.01162 65.5078 6.58825V15.4846Z" fill="#1269E8"/>
<path d="M100.214 1.32227C99.5766 1.32227 99.1328 1.76372 99.1328 2.40112V15.3726C99.1328 18.8373 100.879 20.7223 104.455 20.7223H118.339C121.888 20.7223 123.662 18.9489 123.662 15.3726V2.40112C123.662 2.18017 123.607 1.87534 123.384 1.62461C123.135 1.37706 122.831 1.32227 122.58 1.32227H120.142C119.505 1.32227 119.06 1.76372 119.06 2.40112V15.1218C119.06 16.2029 118.756 16.4809 117.674 16.4809H105.147C104.066 16.4809 103.733 16.2029 103.733 15.1218V2.40112C103.733 2.18017 103.679 1.87534 103.428 1.62461C103.208 1.37706 102.902 1.32227 102.655 1.32227H100.214Z" fill="#1269E8"/>
<path d="M133.843 1.32227C133.206 1.32227 132.762 1.76372 132.762 2.40112V19.6404C132.762 20.2778 133.206 20.7223 133.843 20.7223H136.281C136.531 20.7223 136.837 20.6652 137.057 20.4169C137.305 20.1662 137.362 19.8614 137.362 19.6404V2.40112C137.362 2.18017 137.305 1.87534 137.057 1.62461C136.837 1.37706 136.531 1.32227 136.281 1.32227H133.843Z" fill="#1269E8"/>
<path d="M146.159 1.32227C145.522 1.32227 145.078 1.76372 145.078 2.40112V4.47927C145.078 4.73 145.133 5.03483 145.384 5.28308C145.634 5.50651 145.937 5.56111 146.159 5.56111H154.835V19.6404C154.835 19.8614 154.89 20.1662 155.138 20.4169C155.361 20.6652 155.666 20.7223 155.914 20.7223H158.297C158.548 20.7223 158.853 20.6652 159.074 20.4169C159.324 20.1662 159.379 19.8614 159.379 19.6404V5.56111H168.027C168.665 5.56111 169.136 5.14645 169.136 4.47927V2.40112C169.136 2.15286 169.024 1.87534 168.831 1.62461C168.58 1.40436 168.275 1.32227 168.027 1.32227H146.159Z" fill="#1269E8"/>
<path d="M175.575 1.90264C175.491 2.09636 175.491 2.26201 175.547 2.40112C175.575 2.65191 175.714 2.81756 175.853 2.95667C175.88 2.95667 178.206 5.56111 180.647 8.13774L185.468 13.3482V19.6404C185.468 20.2778 185.912 20.7223 186.549 20.7223H188.933C189.183 20.7223 189.486 20.6652 189.709 20.4169C189.957 20.1662 190.015 19.8614 190.015 19.6404V13.3482L199.687 2.92943C199.796 2.81756 199.935 2.65191 199.963 2.40112C200.019 2.26201 200.019 2.09636 199.935 1.90264C199.853 1.70918 199.714 1.59731 199.603 1.51598C199.409 1.37706 199.216 1.32227 198.965 1.32227H196.11C195.473 1.32227 195.141 1.68163 194.92 1.90264L193.811 3.12308L191.343 5.78409L187.77 9.63602L180.59 1.92988C180.342 1.68163 180.01 1.32227 179.372 1.32227H176.517C176.1 1.32227 175.714 1.54277 175.575 1.90264Z" fill="#1269E8"/>
</svg>
