<svg width="721" height="435" viewBox="0 0 721 435" fill="none" xmlns="http://www.w3.org/2000/svg">
    <path d="M103.689 363.624L138.687 341.713L173.695 311.862L174.015 312.236L138.997 342.097L138.966 342.117L103.948 364.038L103.689 363.621V363.624ZM101.882 372.529L102.136 372.948L137.424 351.523L137.455 351.502L172.745 322.228L172.43 321.85L137.15 351.116L101.882 372.529ZM100.063 381.503L100.312 381.927L135.869 361.05L135.9 361.03L171.457 332.399L171.149 332.015L135.602 360.636L100.063 381.5V381.503ZM98.2312 390.54L98.4726 390.967L134.299 370.7L134.329 370.68L170.156 342.752L169.854 342.366L134.042 370.283L98.2312 390.54ZM96.3892 399.633L96.623 400.065L132.714 380.474L132.744 380.454L168.835 353.294L168.54 352.9L132.465 380.05L96.3892 399.633ZM94.5371 408.772L94.7632 409.209L131.116 390.362L131.149 390.342L167.501 364.025L167.211 363.627L130.872 389.933L94.5371 408.77V408.772ZM92.6773 417.949L129.271 399.938L165.867 374.554L166.147 374.958L129.535 400.352L129.505 400.37L92.8932 418.391L92.6747 417.949H92.6773ZM90.8149 427.147L127.66 410.048L164.508 385.675L164.78 386.086L127.917 410.467L127.884 410.485L91.0207 427.591L90.8149 427.144V427.147ZM93.0457 434.576L126.039 420.266L163.136 397.004L163.398 397.42L126.288 420.691L126.255 420.708L94.2779 434.576H93.0457ZM114.446 434.576L124.421 430.577L161.754 408.536L162.005 408.96L124.657 431.011L124.624 431.029L115.77 434.578H114.449L114.446 434.576ZM134.411 434.576H135.432L160.6 420.708L160.364 420.277L134.413 434.576H134.411ZM154.343 434.576H155.43L159.183 432.668L158.959 432.228L154.343 434.576Z" fill="url(#paint0_linear_9082_7204)"/>
    <path d="M255.246 90.0488L268.313 107.531L294.444 132.832L314.053 148.856L313.744 149.237L294.127 133.205L294.112 133.19L267.955 107.867L267.93 107.839L254.853 90.3436L255.246 90.0488ZM234.753 400.642L250.544 406.877L250.363 407.334L234.573 401.099L234.753 400.642ZM235.731 385.827L253.28 393.345L273.738 397.885L273.633 398.365L253.15 393.82L253.107 393.807L235.541 386.282L235.734 385.83L235.731 385.827ZM236.679 371.497L236.473 371.942L253.821 379.95L253.864 379.966L288.563 388.612L288.586 388.617L296.055 389.704L296.124 389.216L288.664 388.131L254.007 379.496L236.676 371.497H236.679ZM237.596 357.62L254.713 366.086L288.954 375.542L314.653 379.933L314.569 380.418L288.862 376.025L288.84 376.02L254.563 366.551L254.52 366.535L237.383 358.06L237.601 357.618L237.596 357.62ZM238.485 344.17L238.257 344.604L255.191 353.532L255.234 353.55L289.101 363.814L289.124 363.822L314.526 368.799L314.62 368.314L289.223 363.339L255.399 353.088L238.483 344.17H238.485ZM239.347 331.121L256.062 340.478L289.508 351.507L314.592 357.046L314.485 357.526L289.381 351.982L289.358 351.977L255.884 340.94L255.841 340.92L239.105 331.553L239.347 331.123V331.121ZM240.183 318.448L256.707 328.232L289.762 340.008L314.564 346.101L314.447 346.578L289.632 340.483L289.609 340.475L256.522 328.687L256.479 328.666L239.936 318.869L240.185 318.445L240.183 318.448ZM240.996 306.13L240.736 306.55L257.094 316.761L257.134 316.781L289.848 329.299L289.874 329.307L314.409 335.938L314.536 335.463L290.013 328.837L257.332 316.331L240.996 306.133V306.13ZM241.786 294.151L241.517 294.563L257.693 305.178L257.736 305.198L290.087 318.427L290.11 318.435L314.374 325.587L314.513 325.114L290.257 317.965L257.947 304.753L241.788 294.148L241.786 294.151ZM242.556 282.492L258.534 293.485L290.499 307.391L314.483 315.046L314.336 315.513L290.339 307.853L290.316 307.845L258.318 293.925L258.277 293.902L242.279 282.896L242.558 282.489L242.556 282.492ZM243.305 271.135L259.111 282.509L290.727 297.085L314.46 305.236L314.3 305.701L290.562 297.548L290.539 297.538L258.887 282.944L258.847 282.921L243.021 271.531L243.308 271.132L243.305 271.135ZM244.037 260.062L259.672 271.811L290.961 287.045L314.435 295.675L314.264 296.138L290.778 287.502L290.755 287.492L259.439 272.242L259.4 272.217L243.742 260.454L244.037 260.06V260.062ZM244.751 249.264L244.448 249.651L259.942 261.78L259.98 261.805L290.969 277.692L290.992 277.702L314.231 286.806L314.409 286.348L291.174 277.248L260.224 261.378L244.746 249.262L244.751 249.264ZM245.447 238.726L245.137 239.107L260.47 251.589L260.508 251.615L291.177 268.127L291.2 268.137L314.201 277.7L314.389 277.245L291.398 267.687L260.76 251.193L245.444 238.726H245.447ZM246.125 228.433L245.808 228.809L260.986 241.64L261.024 241.665L291.38 258.787L291.401 258.8L314.168 268.81L314.366 268.36L291.604 258.352L261.288 241.251L246.125 228.433ZM246.788 218.377L246.463 218.748L261.489 231.916L261.525 231.944L291.576 249.663L291.596 249.673L314.135 260.121L314.341 259.674L291.815 249.231L261.791 231.53L246.783 218.377H246.788ZM247.439 208.55L262.297 222.033L292.023 240.319L314.325 251.188L314.109 251.63L291.794 240.756L291.774 240.745L262.022 222.445L261.987 222.417L247.111 208.918L247.444 208.555L247.439 208.55ZM248.071 198.936L262.785 212.744L292.221 231.599L314.302 242.885L314.079 243.322L291.982 232.028L291.962 232.016L262.5 213.146L262.465 213.118L247.734 199.294L248.071 198.936ZM248.691 189.53L263.26 203.654L292.414 223.067L314.28 234.762L314.048 235.197L292.165 223.494L292.145 223.484L262.97 204.055L262.935 204.027L248.346 189.886L248.689 189.532L248.691 189.53ZM249.299 180.32L263.73 194.756L292.6 214.711L314.259 226.807L314.02 227.236L292.348 215.133L292.328 215.12L263.433 195.145L263.397 195.117L248.951 180.665L249.299 180.32ZM249.891 171.3L264.185 186.039L292.788 206.532L314.239 219.02L313.993 219.447L292.526 206.952L292.506 206.939L263.885 186.43L263.852 186.402L249.54 171.646L249.893 171.303L249.891 171.3ZM250.475 162.461L250.117 162.799L264.294 177.853L264.327 177.881L292.681 198.913L292.701 198.925L313.967 211.807L314.221 211.388L292.968 198.514L264.639 177.5L250.478 162.461H250.475ZM251.044 153.798L250.683 154.13L264.728 169.476L264.759 169.507L292.849 191.052L292.867 191.065L313.934 204.322L314.196 203.905L293.136 190.653L265.069 169.126L251.039 153.798H251.044ZM251.606 145.301L251.237 145.629L265.153 161.262L265.186 161.29L293.019 183.338L293.037 183.351L313.911 196.977L314.178 196.565L293.311 182.942L265.511 160.919L251.606 145.299V145.301ZM252.154 136.968L251.783 137.288L265.574 153.2L265.605 153.231L293.184 175.775L293.202 175.787L313.886 189.776L314.16 189.367L293.487 175.386L265.928 152.86L252.154 136.965V136.968ZM252.693 128.789L252.317 129.107L265.983 145.296L266.014 145.324L293.347 168.353L293.365 168.366L313.863 182.711L314.145 182.309L293.654 167.97L266.349 144.966L252.696 128.789H252.693ZM253.221 120.761L252.843 121.073L266.387 137.535L266.415 137.565L293.504 161.069L293.52 161.082L313.835 175.775L314.125 175.376L293.812 160.685L266.751 137.204L253.219 120.761H253.221ZM253.74 112.877L253.356 113.184L266.781 129.91L266.809 129.94L293.659 153.909L293.677 153.925L313.815 168.963L314.109 168.569L293.977 153.533L267.157 129.59L253.745 112.88L253.74 112.877ZM254.25 105.133L253.862 105.435L267.167 122.422L267.195 122.453L293.809 146.882L293.824 146.894L313.784 162.268L314.084 161.88L294.134 146.513L267.538 122.1L254.245 105.13L254.25 105.133ZM254.751 97.5236L254.36 97.8208L267.551 115.065L267.579 115.095L293.962 139.976L293.977 139.989L313.764 155.693L314.071 155.307L294.292 139.608L267.932 114.75L254.754 97.521L254.751 97.5236Z" fill="url(#paint1_linear_9082_7204)"/>
    <path d="M107.207 346.01L245.109 238.691L245.264 238.572L245.434 238.668L368.109 307.216L367.822 307.732L245.317 239.278L107.571 346.475L107.207 346.008V346.01ZM108.968 337.336L109.334 337.799L245.991 228.991L367.241 299.935L367.538 299.427L246.113 228.381L245.937 228.279L245.78 228.404L108.966 337.339L108.968 337.336ZM110.711 328.744L111.082 329.201L246.649 218.935L366.674 292.313L366.981 291.81L246.776 218.325L246.598 218.216L246.435 218.348L110.706 328.746L110.711 328.744ZM112.436 320.235L112.812 320.69L247.294 209.107L366.123 284.861L366.44 284.363L247.429 208.492L247.246 208.376L247.081 208.513L112.434 320.232L112.436 320.235ZM114.146 311.81L114.527 312.26L247.924 199.493L365.584 277.574L365.909 277.081L248.064 198.878L247.881 198.756L247.711 198.901L114.144 311.81H114.146ZM115.838 303.471L116.222 303.921L248.542 190.09L365.056 270.445L365.391 269.96L248.689 189.475L248.501 189.346L248.328 189.493L115.838 303.471ZM117.513 295.219L117.901 295.664L249.144 180.88L364.537 263.466L364.88 262.985L249.296 180.265L249.108 180.131L248.933 180.283L117.513 295.222V295.219ZM119.169 287.053L119.563 287.495L249.736 171.863L364.032 256.628L364.382 256.153L249.893 171.246L249.7 171.103L249.52 171.264L119.167 287.056L119.169 287.053ZM120.808 278.974L121.204 279.414L250.315 163.027L363.536 249.929L363.894 249.459L250.48 162.407L250.285 162.257L250.102 162.419L120.808 278.971V278.974ZM122.431 270.981L122.828 271.415L250.879 154.363L363.046 243.361L363.414 242.899L251.049 153.745L250.854 153.59L250.668 153.761L122.431 270.983V270.981ZM124.037 263.072L124.436 263.504L251.435 145.867L362.568 236.92L362.942 236.463L251.611 145.247L251.413 145.084L251.225 145.259L124.037 263.072ZM125.622 255.246L126.026 255.676L251.982 137.533L362.101 230.602L362.482 230.152L252.162 136.913L251.961 136.743L251.768 136.923L125.622 255.246ZM127.193 247.507L127.599 247.934L252.515 129.357L361.638 224.402L362.027 223.958L252.701 128.737L252.5 128.562L252.304 128.747L127.193 247.51V247.507ZM128.748 239.85L129.157 240.274L253.044 121.329L361.191 218.315L361.582 217.875L253.229 120.706L253.026 120.523L252.828 120.714L128.745 239.85H128.748ZM130.285 232.276L253.346 112.83L253.547 112.634L253.753 112.825L361.148 211.907L360.749 212.342L253.559 113.447L130.696 232.698L130.285 232.273V232.276ZM131.804 224.783L253.854 105.083L254.057 104.885L254.263 105.081L360.719 206.043L360.312 206.47L254.063 105.706L132.218 225.205L131.804 224.783ZM133.308 217.37L254.352 97.4714L254.558 97.2656L254.764 97.4689L360.294 200.276L359.883 200.7L254.56 98.0939L133.725 217.786L133.308 217.367V217.37ZM105.434 354.766L105.79 355.236L244.626 249.817L368.414 315.72L368.691 315.199L244.738 249.207L244.57 249.118L244.421 249.233L105.434 354.766Z" fill="url(#paint2_linear_9082_7204)"/>
    <path d="M153.207 434.577L234.552 400.6L234.725 400.585L255.561 404.869L255.445 405.446L234.7 401.18L154.744 434.575H153.212L153.207 434.577ZM129.035 434.577H130.45L235.665 386.367L278.733 396.439L278.867 395.862L235.703 385.768L235.515 385.788L129.037 434.575L129.035 434.577ZM109.103 434.577H110.432L236.608 372.038L299.345 388.464L299.493 387.892L236.649 371.438L236.443 371.459L109.1 434.575L109.103 434.577ZM92.1894 434.577H93.4496L237.52 358.163L317.671 381.375L317.834 380.808L237.568 357.564L237.35 357.586L92.1894 434.577ZM77.5093 434.577H78.7135L238.402 344.715L334.031 375.046L334.209 374.482L238.455 344.113L238.333 344.075L238.221 344.138L77.5042 434.58L77.5093 434.577ZM64.5339 434.577H65.6925L239.258 331.666L348.693 369.373L348.884 368.814L239.321 331.061L239.192 331.018L239.075 331.089L64.5339 434.58V434.577ZM52.9026 434.577H54.023L240.094 318.993L361.877 364.271L362.083 363.72L240.165 318.391L240.028 318.34L239.906 318.416L52.9051 434.577H52.9026ZM42.3485 434.577H43.4334L240.899 306.678L371.616 358.816L371.834 358.267L240.975 306.071L240.833 306.015L240.703 306.099L42.346 434.575L42.3485 434.577ZM32.6761 434.577L55.4915 419.231L55.8193 419.722L33.733 434.577H32.6761ZM90.4287 395.73L241.489 294.122L241.621 294.033L241.768 294.097L371.171 349.2L370.94 349.743L241.684 294.704L90.7565 396.225L90.4287 395.735V395.73ZM23.7379 434.577L57.4225 411.127L57.7604 411.612L24.7719 434.577H23.7379ZM92.2834 386.858L242.248 282.46L242.385 282.364L242.538 282.432L370.526 340.363L370.282 340.902L242.446 283.04L92.6213 387.341L92.2834 386.855V386.858ZM15.4247 434.577L59.3585 403.017L59.704 403.494L16.4359 434.577H15.4272H15.4247ZM94.1305 378.036L242.988 271.104L243.13 271.002L243.287 271.078L369.896 331.765L369.641 332.296L243.188 271.685L94.4735 378.517L94.1305 378.039V378.036ZM7.63999 434.577L61.292 394.907L61.6426 395.382L8.63087 434.577H7.63745H7.63999ZM95.9649 369.271L243.709 260.031L243.857 259.922L244.019 260.006L369.283 323.378L369.016 323.907L243.915 260.615L96.3155 369.746L95.9649 369.274V369.271Z" fill="url(#paint3_linear_9082_7204)"/>
    <path d="M371.354 360.213L359.197 195.039L255.051 90.8933L135.458 210.487L106.095 355.096L105.909 355.39L98.2668 361.193L97.6748 360.411L105.167 354.722L134.525 210.146L134.657 209.892L254.7 89.8491L255.051 89.501L255.399 89.8491L360.022 194.47L360.165 194.785L372.337 360.144L371.354 360.213Z" fill="url(#paint4_linear_9082_7204)"/>
    <path d="M111.278 311.629L101.651 358.202L101.265 358.123L110.892 311.55L111.278 311.629Z" fill="url(#paint5_linear_9082_7204)"/>
    <path d="M66.2132 373.64L100.543 346.693L101.328 347.181L89.6131 403.036L89.5699 403.234L89.3971 403.346L54.4117 426.192L53.6672 425.666L66.0379 373.909L66.2107 373.635L66.2132 373.64ZM100.088 348.302L66.9551 374.308L54.9122 424.695L88.6933 402.634L100.088 348.302Z" fill="url(#paint6_linear_9082_7204)"/>
    <path d="M63.703 387.436L1.62351 434.576H0L63.111 386.653L63.703 387.436Z" fill="url(#paint7_linear_9082_7204)"/>
    <path d="M702.681 310.093L720.997 351.867V353.409L702.114 310.339L702.683 310.093H702.681ZM656.831 386.913L673.91 434.574H673.254L656.25 387.122L656.831 386.913ZM662.883 385.788L662.301 385.999L680.023 434.572H680.683L662.883 385.785V385.788ZM657.733 354.466L657.154 354.682L686.824 434.574H687.485L657.733 354.469V354.466ZM663.526 353.107L662.947 353.325L693.654 434.574H694.317L663.526 353.107ZM658.089 322.514L657.512 322.735L700.521 434.574H701.184L658.092 322.517L658.089 322.514ZM663.638 320.967L663.061 321.193L707.412 434.574H708.077L663.638 320.97V320.967ZM669.194 319.42L668.618 319.648L714.338 434.572H715.003L669.192 319.42H669.194ZM674.759 317.867L674.184 318.101L720.994 433.82V432.166L674.759 317.87V317.867ZM680.328 316.315L679.756 316.551L720.994 416.83V415.204L680.328 316.317V316.315ZM685.905 314.763L685.333 315.001L720.994 400.316V398.707L685.905 314.763ZM691.489 313.205L690.92 313.449L720.994 384.251V382.665L691.489 313.205ZM697.081 311.648L696.512 311.892L720.994 368.62V367.055L697.081 311.648Z" fill="url(#paint8_linear_9082_7204)" fill-opacity="0.5"/>
    <path d="M720.219 434.577L720.997 431.469V434.107L720.88 434.574H720.219V434.577ZM706.926 434.577H707.574L711.273 409.155L720.999 405.793V405.117L710.882 408.613L710.697 408.677L710.669 408.87L706.929 434.574L706.926 434.577ZM678.036 434.577H678.676L678.908 428.967L698.174 421.33L698.367 421.253L698.374 421.048L699.551 392.203L720.999 385.076V384.406L699.142 391.667L698.933 391.735L698.923 391.957L697.747 420.814L678.481 428.454L678.288 428.53L678.28 428.738L678.039 434.582L678.036 434.577ZM673.003 434.577H673.643L672.195 410.76L689.462 404.386L689.685 404.302L689.67 404.066L687.83 375.249L720.997 364.672V364.004L687.399 374.718L687.16 374.794L687.175 375.043L689.017 403.87L671.75 410.244L671.527 410.328L671.542 410.565L673.003 434.582V434.577ZM663.12 423.952L669.621 421.998L664.809 392.386L664.766 392.119L665.023 392.033L680.287 386.918L675.434 358.125L675.389 357.848L675.658 357.766L720.997 343.92V344.588L676.113 358.297L680.965 387.086L681.009 387.355L680.75 387.442L665.485 392.556L670.297 422.178L670.343 422.455L670.074 422.536L663.303 424.571L663.12 423.959V423.952ZM658.323 375.122L658.081 374.207L658.003 373.905L658.302 373.818L671.555 369.962L663.696 341.201L663.612 340.899L663.915 340.81L714.185 326.137L714.348 326.089L714.477 326.198L720.997 331.615V332.446L714.2 326.798L664.395 341.336L672.253 370.096L672.337 370.399L672.035 370.488L658.778 374.344L658.94 374.957L658.323 375.119V375.122ZM656.854 406.098L657.009 406.718L666.367 404.368L666.682 404.289L666.598 403.977L661.857 386.006L661.239 386.169L665.899 403.824L656.857 406.096L656.854 406.098Z" fill="url(#paint9_linear_9082_7204)" fill-opacity="0.5"/>
    <path d="M666.321 434.577L650.04 388.303L649.85 387.764L650.416 387.658L661.931 385.518L651.194 356.087L651.003 355.566L651.547 355.442L662.586 352.881L651.799 324.343L651.611 323.84L652.129 323.698L702.267 309.745L702.524 309.671L702.724 309.851L720.997 326.239V327.557L702.27 310.763L652.911 324.498L663.704 353.058L663.902 353.584L663.354 353.711L652.309 356.275L663.056 385.729L663.252 386.273L662.68 386.38L651.158 388.522L667.363 434.577H666.321Z" fill="url(#paint10_linear_9082_7204)" fill-opacity="0.5"/>
    <path d="M657.047 406.558L655.5 408.029L664.784 434.577H664.367L655.086 408.037L655.045 407.917L655.137 407.831L656.775 406.274L657.047 406.558ZM659.214 423.822L658.844 423.952L662.54 434.577H662.957L659.214 423.822ZM657.195 423.266L656.824 423.393L660.696 434.577H661.112L657.197 423.266H657.195ZM670.175 422.176L674.629 434.577H674.212L669.807 422.31L670.178 422.178L670.175 422.176ZM666.486 404.017L666.115 404.152L677.129 434.577H677.546L666.483 404.017H666.486ZM680.828 387.109L698.989 434.574H698.567L680.462 387.249L680.831 387.109H680.828ZM689.553 404.01L689.187 404.15L700.897 434.574H701.319L689.556 404.007L689.553 404.01ZM698.265 420.974L697.899 421.116L703.108 434.577H703.529L698.265 420.974ZM672.134 370.145L671.766 370.285L696.217 434.577H696.639L672.134 370.145ZM664.207 341.094L663.839 341.234L699.647 434.577H700.069L664.207 341.094ZM675.935 358.023L705.719 434.577H705.298L675.569 358.165L675.935 358.023ZM687.673 374.967L687.304 375.109L710.753 434.579H711.177L687.67 374.967H687.673ZM699.419 391.914L716.456 434.579H716.035L699.055 392.058L699.421 391.914H699.419ZM711.159 408.852L720.997 433.19V434.239L710.796 409L711.162 408.852H711.159ZM714.472 326.384L720.997 341.097V342.068L714.111 326.544L714.472 326.386V326.384Z" fill="url(#paint11_linear_9082_7204)" fill-opacity="0.5"/>
    <path d="M315.184 47.9274L326.848 39.7946L362.576 0.530644L362.822 0.258789L362.979 0.591621L402.391 84.4043L402.414 84.4729L439.109 334.234L438.621 334.305L401.931 84.577L362.692 1.13279L327.194 40.1452L327.156 40.1808L315.466 48.3288L315.184 47.9274Z" fill="#2E83FF" fill-opacity="0.45"/>
    <path d="M315.351 55.1195L327.519 47.1112L363.386 8.44685L363.632 8.18262L363.787 8.50783L403.422 91.4363L402.98 91.6471L363.5 9.04646L327.859 47.4669L327.814 47.505L315.618 55.5286L315.349 55.1195H315.351ZM315.519 62.4596L315.778 62.8763L328.492 54.9772L328.54 54.9366L364.326 17.1183L404.032 98.8145L404.474 98.601L364.611 16.5873L364.456 16.2671L364.212 16.5263L328.207 54.5758L315.519 62.4596ZM315.692 69.9547L315.941 70.379L329.183 62.6095L329.236 62.5688L365.172 25.3654L405.109 106.116L405.551 105.898L365.459 24.8344L365.304 24.5219L365.06 24.7734L328.906 62.203L315.694 69.9547H315.692ZM315.867 77.6072L316.106 78.0366L329.887 70.3993L329.943 70.3561L366.031 33.7802L406.199 113.548L406.639 113.327L366.315 33.2542L366.16 32.9494L365.919 33.1933L329.615 69.9877L315.865 77.6072H315.867ZM316.048 85.425L316.274 85.8594L330.606 78.3568L330.664 78.3136L366.907 42.3804L407.31 121.122L407.747 120.898L367.192 41.8571L367.039 41.5573L366.801 41.7935L330.344 77.9375L316.045 85.4224L316.048 85.425ZM316.23 93.418L316.449 93.8601L331.345 86.4946L331.409 86.4514L367.812 51.1738L408.45 128.848L408.885 128.619L368.094 50.6555L367.941 50.3633L367.705 50.592L331.094 86.0703L316.23 93.418ZM316.419 101.594L316.627 102.039L332.1 94.8129L332.163 94.7671L368.732 60.1603L409.606 136.719L410.038 136.488L369.011 59.6445L368.859 59.3599L368.625 59.581L331.856 94.3809L316.419 101.589V101.594ZM316.609 109.958L316.807 110.408L332.87 103.327L332.938 103.284L369.672 69.3627L410.788 144.76L411.22 144.527L369.954 68.8494L369.801 68.5725L369.57 68.7859L332.636 102.892L316.612 109.955L316.609 109.958ZM316.805 118.52L316.993 118.975L333.66 112.041L333.731 111.998L370.637 78.781L411.995 152.969L412.424 152.731L370.914 78.2729L370.764 78.0036L370.535 78.2094L333.434 111.604L316.807 118.52H316.805ZM317.005 127.291L317.186 127.748L334.47 120.967L334.544 120.924L371.625 88.4281L413.229 161.354L413.656 161.112L371.902 87.925L371.752 87.6633L371.526 87.8615L334.252 120.527L317.008 127.293L317.005 127.291ZM317.211 136.28L335.09 129.669L372.54 97.7499L372.764 97.5594L372.911 97.8134L414.911 169.677L414.487 169.926L372.634 98.3165L335.375 130.073L335.298 130.116L317.379 136.745L317.209 136.282L317.211 136.28ZM317.422 145.5L335.946 139.046L373.579 107.89L373.8 107.707L373.948 107.953L416.197 178.435L415.775 178.686L373.673 108.451L336.228 139.453L336.152 139.494L317.585 145.962L317.422 145.5ZM317.638 154.961L336.83 148.668L374.646 118.297L374.865 118.124L375.01 118.36L417.513 187.401L417.096 187.658L374.74 118.856L337.105 149.08L337.029 149.123L317.793 155.429L317.641 154.961H317.638ZM317.859 164.677L337.735 158.551L375.744 128.985L375.957 128.82L376.102 129.049L418.862 196.583L418.445 196.845L375.83 129.539L338.002 158.966L337.923 159.006L318.001 165.145L317.857 164.674L317.859 164.677ZM318.085 174.662L338.667 168.709L376.869 139.974L377.08 139.816L377.225 140.037L420.247 206.001L419.835 206.268L376.958 140.523L338.929 169.128L338.85 169.169L318.225 175.135L318.088 174.662H318.085ZM318.319 184.931L339.625 179.154L378.03 151.27L378.236 151.12L378.381 151.331L421.665 215.654L421.255 215.925L378.114 151.816L339.879 179.578L339.801 179.616L318.451 185.407L318.321 184.931H318.319ZM318.56 195.503L318.68 195.981L340.774 190.374L340.855 190.336L379.303 163.442L422.714 225.847L423.118 225.565L379.565 162.957L379.425 162.756L379.222 162.899L340.611 189.906L318.56 195.503ZM318.807 206.393L318.921 206.873L341.782 201.454L341.861 201.418L380.528 175.419L424.213 236.038L424.612 235.751L380.787 174.936L380.647 174.743L380.449 174.875L341.625 200.979L318.804 206.39L318.807 206.393ZM319.061 217.623L319.168 218.103L342.819 212.877L342.9 212.844L381.793 187.769L425.755 246.521L426.149 246.226L382.05 187.292L381.913 187.109L381.72 187.233L342.672 212.409L319.061 217.628V217.623ZM319.325 229.213L319.424 229.696L343.894 224.668L343.972 224.638L383.097 200.516L427.34 257.308L427.727 257.006L383.346 200.038L383.211 199.863L383.023 199.977L343.746 224.193L319.32 229.211L319.325 229.213ZM319.594 241.188L319.686 241.67L345.001 236.848L345.08 236.818L384.448 213.682L428.982 268.421L429.363 268.111L384.697 213.207L384.565 213.044L384.382 213.151L344.872 236.373L319.597 241.185L319.594 241.188ZM319.874 253.574L346.023 248.972L385.777 226.779L385.952 226.68L386.085 226.833L431.04 279.575L430.666 279.895L385.841 227.308L346.223 249.425L346.147 249.453L319.96 254.061L319.874 253.576V253.574ZM320.163 266.399L347.214 262.019L387.225 240.885L387.393 240.796L387.523 240.939L432.775 291.407L432.407 291.735L387.284 241.409L347.407 262.471L347.331 262.497L320.24 266.884L320.163 266.399ZM320.463 279.697L348.454 275.543L388.727 255.515L388.889 255.433L389.014 255.565L434.569 303.646L434.213 303.984L388.783 256.038L348.64 276.005L348.566 276.028L320.537 280.187L320.466 279.7L320.463 279.697ZM320.773 293.506L320.839 293.994L349.841 290.073L349.913 290.053L390.335 271.224L436.078 316.667L436.423 316.319L390.559 270.756L390.437 270.634L390.282 270.706L349.737 289.591L320.773 293.506ZM321.096 307.863L321.154 308.354L351.17 304.68L351.239 304.659L391.954 287.012L438.016 329.815L438.352 329.457L392.169 286.542L392.053 286.432L391.905 286.496L351.081 304.192L321.098 307.861L321.096 307.863ZM321.434 322.818L321.485 323.308L352.555 319.891L352.621 319.876L393.638 303.46L432.394 336.893L432.717 336.522L393.846 302.993L393.732 302.894L393.595 302.95L352.471 319.406L321.436 322.818H321.434ZM321.784 338.418L353.922 335.272L395.356 320.107L395.485 320.059L395.592 320.145L421.624 340.798L421.316 341.185L395.391 320.618L354.059 335.745L353.998 335.758L321.828 338.906L321.782 338.415L321.784 338.418ZM322.153 354.721L322.194 355.214L355.512 352.346L355.568 352.333L397.233 338.55L408.026 346.335L408.313 345.936L397.419 338.077L397.317 338.004L397.198 338.044L355.444 351.858L322.155 354.721H322.153ZM322.536 371.797L345.581 370.08L345.616 370.57L322.572 372.288L322.536 371.797Z" fill="#2E83FF" fill-opacity="0.45"/>
    <path d="M511.232 306.256L471.899 136.026L472.379 135.917L511.712 306.146L511.232 306.256Z" fill="#2E83FF" fill-opacity="0.45"/>
    <path d="M471.66 136.082L463.914 102.55L362.756 1.39484L315.821 48.3292L318.154 152.8L317.171 152.821L314.836 48.1386L314.831 47.9278L314.978 47.7804L362.408 0.348076L362.756 0L363.106 0.348076L464.709 101.951L464.841 102.189L472.621 135.861L471.66 136.082Z" fill="#2E83FF" fill-opacity="0.45"/>
    <path d="M315.316 55.1509L363.396 8.44015L363.569 8.27246L363.739 8.44015L466.007 108.498L465.662 108.849L363.566 8.95845L315.659 55.5015L315.316 55.1484V55.1509ZM315.481 62.4935L315.819 62.8518L364.392 17.0379L467.166 115.358L467.504 115.002L364.56 16.5196L364.392 16.3595L364.224 16.5196L315.481 62.4935ZM315.651 69.9886L315.984 70.3494L365.235 25.2799L468.705 121.999L469.038 121.639L365.406 24.7641L365.24 24.6092L365.073 24.7616L315.654 69.9861L315.651 69.9886ZM315.826 77.6412L316.152 78.0096L366.094 33.6998L470.27 128.78L470.601 128.417L366.262 33.1866L366.099 33.0367L365.934 33.184L315.824 77.6412H315.826ZM316.004 85.4615L316.324 85.835L366.976 42.3026L471.876 135.711L472.204 135.343L367.143 41.7919L366.983 41.6496L366.821 41.7894L316.007 85.4615H316.004ZM316.185 93.4545L316.497 93.8331L367.873 51.096L473.512 142.795L473.835 142.424L368.038 50.5878L367.88 50.4506L367.72 50.5853L316.185 93.4571V93.4545ZM316.37 101.628L316.677 102.012L368.792 60.0875L475.187 150.038L475.504 149.662L368.955 59.5819L368.8 59.4498L368.642 59.5768L316.37 101.628ZM316.561 109.992L316.863 110.381L369.735 69.2874L476.902 157.447L477.214 157.066L369.895 68.7818L369.743 68.6573L369.588 68.7767L316.561 109.992ZM316.756 118.554L317.051 118.948L370.698 78.7058L478.66 165.034L478.965 164.65L370.855 78.2027L370.705 78.0833L370.553 78.1976L316.751 118.554H316.756ZM316.957 127.325L317.247 127.723L371.689 88.3553L480.459 172.808L480.758 172.419L371.841 87.8548L371.696 87.743L371.546 87.8497L316.954 127.327L316.957 127.325ZM317.16 136.314L317.442 136.718L372.697 98.2437L482.301 180.771L482.595 180.377L372.85 97.7432L372.708 97.6365L372.563 97.7381L317.16 136.314ZM317.371 145.534L317.645 145.943L373.737 108.386L484.191 188.942L484.481 188.545L373.886 107.891L373.747 107.789L373.604 107.883L317.371 145.536V145.534ZM317.587 154.993L374.674 118.287L374.814 118.198L374.948 118.292L486.414 196.917L486.13 197.318L374.799 118.79L317.851 155.404L317.587 154.99V154.993ZM317.808 164.708L375.772 128.979L375.906 128.895L376.038 128.984L488.398 205.522L488.121 205.929L375.894 129.479L318.067 165.125L317.808 164.708ZM318.034 174.693L376.897 139.965L377.029 139.888L377.156 139.972L490.439 214.366L490.169 214.776L377.017 140.465L318.283 175.118L318.034 174.693ZM318.268 184.96L378.058 151.261L378.185 151.189L378.31 151.268L492.537 223.46L492.275 223.876L378.173 151.764L318.509 185.392L318.268 184.963V184.96ZM318.507 195.53L379.25 162.889L379.372 162.823L379.491 162.897L494.692 232.82L494.438 233.239L379.357 163.39L318.738 195.964L318.504 195.53H318.507ZM318.756 206.419L380.482 174.869L380.601 174.808L380.718 174.874L496.922 242.459L496.676 242.886L380.586 175.369L318.982 206.859L318.758 206.422L318.756 206.419ZM319.012 217.646L381.75 187.222L381.864 187.166L381.976 187.229L499.214 252.403L498.975 252.833L381.849 187.72L319.226 218.089L319.012 217.646ZM319.277 229.237L319.48 229.682L383.152 200.469L501.351 263.1L501.579 262.665L383.274 199.978L383.168 199.923L383.058 199.973L319.274 229.237H319.277ZM319.548 241.209L319.744 241.659L384.501 213.64L503.808 273.704L504.029 273.265L384.621 213.147L384.517 213.096L384.413 213.142L319.548 241.206V241.209ZM319.831 253.592L320.016 254.05L385.896 227.268L506.348 284.68L506.562 284.236L386.013 226.778L385.914 226.73L385.815 226.77L319.836 253.592H319.831ZM320.123 266.418L320.298 266.878L387.339 241.374L508.978 296.04L509.179 295.59L387.449 240.884L387.355 240.841L387.261 240.876L320.125 266.415L320.123 266.418ZM320.425 279.716L388.762 255.511L388.94 255.516L510.022 306.576L509.832 307.028L388.836 256.003L320.59 280.178L320.428 279.713L320.425 279.716ZM320.74 293.522L390.322 270.699L390.487 270.704L495.7 312.107L495.522 312.565L390.391 271.192L320.892 293.987L320.74 293.519V293.522ZM321.065 307.877L391.941 286.492L392.096 286.497L479.47 318.375L479.303 318.838L392.002 286.987L321.202 308.349L321.063 307.877H321.065ZM321.403 322.829L321.533 323.302L393.686 303.436L460.85 325.977L461.004 325.512L393.77 302.948L393.628 302.943L321.403 322.829ZM321.756 338.426L395.388 320.103L395.518 320.108L439.884 333.673L439.741 334.143L395.442 320.598L321.876 338.904L321.759 338.426H321.756ZM322.125 354.73L322.231 355.21L397.274 338.533L415.452 343.536L415.582 343.063L397.347 338.043H397.23L322.13 354.73H322.125ZM322.511 371.803L360.129 364.451L360.223 364.933L322.605 372.286L322.511 371.803Z" fill="#2E83FF" fill-opacity="0.45"/>
    <path d="M535.021 86.1152L598.066 272.753L597.133 273.062L534.088 86.4277L535.021 86.1152Z" fill="url(#paint12_linear_9082_7204)"/>
    <path d="M561.65 191.378L566.446 206.048L566.073 206.17L561.276 191.5L561.65 191.378ZM554.675 170.049L559.31 184.221L558.936 184.343L554.302 170.171L554.675 170.049ZM547.912 149.368L552.401 163.098L552.028 163.22L547.539 149.49L547.912 149.368ZM541.349 129.301L545.702 142.607L545.328 142.729L540.976 129.423L541.349 129.301ZM534.975 109.807L539.202 122.739L538.829 122.861L534.601 109.929L534.975 109.807ZM552.526 238.63L569.612 217.006L568.499 213.607L568.873 213.485L570.016 216.984L570.049 217.083L569.983 217.166L552.831 238.874L552.523 238.63H552.526ZM566.271 285.006L561.571 269.248L561.947 269.136L566.647 284.891L566.271 285.003V285.006ZM559.261 261.507L554.716 246.268L555.092 246.156L559.637 261.395L559.261 261.507Z" fill="url(#paint13_linear_9082_7204)"/>
    <path d="M450.611 165.982L538.6 98.5544L538.804 98.3994L538.984 98.5773L666.027 222.251L665.615 222.675L538.755 99.1794L450.967 166.455L450.608 165.985L450.611 165.982ZM451.734 171.752L452.09 172.222L540.923 105.587L667.617 227.21L668.026 226.786L541.149 104.99L540.968 104.817L540.768 104.967L451.731 171.755L451.734 171.752ZM454.008 183.414L454.353 183.894L545.321 118.595L671.682 236.42L672.084 235.988L545.547 117.998L545.371 117.833L545.173 117.973L454.01 183.411L454.008 183.414ZM455.156 189.311L455.497 189.793L547.551 125.196L673.74 241.093L674.139 240.658L547.775 124.602L547.6 124.442L547.404 124.579L455.156 189.313V189.311ZM457.481 201.239L457.809 201.73L552.076 138.601L677.925 250.585L678.316 250.143L552.3 138.006L552.13 137.856L551.939 137.984L457.481 201.239ZM458.657 207.271L458.98 207.764L554.378 145.402L680.049 255.399L680.438 254.955L554.597 144.81L554.429 144.663L554.241 144.785L458.657 207.268V207.271ZM461.035 219.479L461.348 219.98L559.048 159.224L684.366 265.184L684.747 264.734L559.267 158.634L559.104 158.495L558.921 158.609L461.038 219.479H461.035ZM462.24 225.655L462.545 226.159L561.421 166.241L686.556 270.153L686.934 269.701L561.637 165.654L561.474 165.52L561.297 165.629L462.242 225.653L462.24 225.655ZM464.676 238.161L464.968 238.671L566.241 180.51L691.009 280.255L691.378 279.795L566.452 179.925L566.294 179.801L566.121 179.9L464.676 238.161ZM465.911 244.492L466.198 245.008L568.69 187.761L693.276 285.387L693.639 284.922L568.901 187.174L568.746 187.052L568.576 187.146L465.911 244.487V244.492ZM468.411 257.318L468.685 257.839L573.675 202.505L697.88 295.827L698.233 295.354L573.878 201.92L573.728 201.808L573.563 201.897L468.411 257.318ZM469.676 263.814L469.943 264.34L576.205 210.002L700.217 301.135L700.565 300.659L576.406 209.42L576.261 209.314L576.099 209.398L469.676 263.817V263.814ZM472.242 276.98L581.261 224.647L581.416 224.571L581.556 224.67L705.319 311.447L704.981 311.93L581.358 225.251L472.497 277.509L472.242 276.978V276.98ZM473.543 283.652L583.886 232.409L584.038 232.338L584.178 232.432L699.008 310.967L698.675 311.455L583.982 233.013L473.792 284.186L473.546 283.649L473.543 283.652ZM476.181 297.184L589.232 248.207L589.376 248.143L589.508 248.23L690.057 313.452L689.734 313.947L589.318 248.811L476.412 297.725L476.178 297.184H476.181ZM477.519 304.044L591.953 256.248L592.092 256.19L592.222 256.271L685.085 314.834L684.772 315.332L592.039 256.853L477.746 304.587L477.519 304.044Z" fill="url(#paint14_linear_9082_7204)"/>
    <path d="M479.857 318.35L448.09 154.891L448.032 154.599L448.266 154.414L534.205 85.7613L534.548 85.4844L534.858 85.7969L662.231 213.167L662.332 213.317L706.327 313.139L705.425 313.535L661.469 213.8L534.474 86.8055L449.112 154.995L480.822 318.164L479.857 318.35Z" fill="url(#paint15_linear_9082_7204)"/>
    <path d="M569.208 292.857L574.081 309.194L573.469 309.377L568.596 293.037L569.208 292.854V292.857ZM576.564 317.515L581.622 334.469L581.01 334.652L575.951 317.697L576.564 317.515ZM584.198 343.107L589.455 360.724L588.843 360.907L583.586 343.29L584.198 343.107ZM592.135 369.711L597.608 388.052L596.996 388.235L591.523 369.894L592.135 369.711ZM600.4 397.414L606.107 416.543L605.494 416.726L599.788 397.597L600.4 397.414ZM609.024 426.317L611.488 434.575H610.822L608.411 426.498L609.024 426.315V426.317ZM539.258 303.98L543.362 319.654L542.744 319.814L538.641 304.143L539.258 303.983V303.98ZM545.448 327.624L549.696 343.854L549.078 344.014L544.83 327.784L545.448 327.624ZM551.858 352.114L556.263 368.946L555.646 369.106L551.24 352.274L551.858 352.114ZM558.509 377.521L563.088 395.006L562.47 395.166L557.892 377.681L558.509 377.521ZM565.42 403.921L570.184 422.118L569.566 422.278L564.803 404.081L565.42 403.921ZM572.613 431.404L573.444 434.572H572.783L571.995 431.564L572.613 431.404ZM510.688 314.59L514.108 329.608L513.486 329.748L510.066 314.73L510.691 314.59H510.688ZM515.846 337.243L517.101 342.754L516.479 342.894L515.223 337.383L515.848 337.243H515.846ZM526.7 384.909L530.496 401.571L529.873 401.711L526.077 385.049L526.7 384.909ZM532.427 410.057L536.367 427.364L535.745 427.504L531.804 410.197L532.429 410.057H532.427ZM483.345 324.743L486.163 339.121L485.535 339.245L482.72 324.867L483.348 324.745L483.345 324.743ZM487.593 346.423L488.627 351.702L488 351.827L486.966 346.547L487.593 346.423ZM496.506 391.924L499.613 407.791L498.986 407.913L495.879 392.046L496.506 391.924ZM501.196 415.868L504.418 432.321L503.79 432.443L500.566 415.99L501.194 415.868H501.196ZM457.107 334.491L459.389 348.239L458.759 348.341L456.477 334.593L457.11 334.489L457.107 334.491ZM460.548 355.213L461.386 360.269L460.753 360.371L459.915 355.318L460.548 355.213ZM467.748 398.606L470.256 413.708L469.625 413.812L467.118 398.71L467.748 398.609V398.606ZM471.528 421.389L473.716 434.57H473.068L470.898 421.49L471.528 421.389ZM431.861 343.869L433.67 356.994L433.037 357.078L431.228 343.953L431.861 343.869ZM434.584 363.651L436.444 377.155L435.811 377.239L433.951 363.735L434.584 363.649V363.651ZM437.389 384.007L439.305 397.923L438.672 398.006L436.756 384.091L437.389 384.007ZM440.278 404.988L442.254 419.348L441.622 419.435L439.643 405.072L440.275 404.988H440.278ZM443.261 426.648L444.351 434.57H443.705L442.628 426.734L443.261 426.65V426.648ZM407.513 352.912L408.903 365.425L408.268 365.496L406.878 352.98L407.513 352.912ZM409.606 371.769L411.034 384.627L410.399 384.698L408.971 371.84L409.606 371.771V371.769ZM411.759 391.149L413.227 404.384L412.592 404.452L411.121 391.218L411.759 391.147V391.149ZM413.971 411.101L415.488 424.745L414.851 424.816L413.336 411.172L413.971 411.104V411.101ZM416.256 431.676L416.578 434.572H415.933L415.618 431.744L416.256 431.676ZM383.984 361.654L385.005 373.565L384.367 373.618L383.346 361.707L383.984 361.654ZM385.521 379.597L386.567 391.822L385.93 391.876L384.88 379.65L385.518 379.597H385.521ZM387.101 398.022L388.178 410.593L387.541 410.644L386.463 398.073L387.101 398.022ZM388.724 416.968L389.835 429.915L389.197 429.968L388.087 417.024L388.724 416.97V416.968ZM361.209 370.112L361.905 381.428L361.267 381.466L360.571 370.15L361.209 370.115V370.112ZM362.258 387.155L362.974 398.761L362.337 398.799L361.623 387.193L362.261 387.155H362.258ZM363.335 404.64L364.072 416.561L363.434 416.599L362.7 404.678L363.338 404.64H363.335ZM364.443 422.608L365.18 434.572H364.54L363.803 422.646L364.44 422.608H364.443ZM339.125 378.313L339.539 389.04L338.901 389.063L338.485 378.336L339.122 378.313H339.125ZM339.75 394.47L340.177 405.463L339.539 405.486L339.112 394.493L339.75 394.47ZM340.39 411.033L340.827 422.321L340.19 422.344L339.752 411.055L340.39 411.033ZM341.048 428.043L341.3 434.572H340.662L340.411 428.065L341.048 428.043ZM317.681 386.276L317.742 389.983L317.105 389.993L317.044 386.286L317.681 386.276ZM296.832 394.02L296.792 403.593H296.154L296.195 394.02H296.832ZM296.771 408.436L296.731 418.241H296.093L296.134 408.433H296.771V408.436ZM296.711 423.205L296.667 433.264H296.03L296.073 423.203H296.711V423.205ZM276.535 401.561L276.454 404.937L275.816 404.922L275.897 401.546L276.535 401.561ZM256.75 408.909L256.382 417.351L255.744 417.323L256.113 408.881L256.75 408.909ZM256.196 421.622L255.818 430.271L255.18 430.243L255.559 421.594L256.196 421.622ZM237.449 416.078L236.958 423.965L236.321 423.927L236.811 416.04L237.449 416.078ZM236.709 427.954L236.298 434.575H235.657L236.072 427.918L236.709 427.954ZM218.594 423.081L218.007 430.416L217.37 430.365L217.956 423.03L218.594 423.081ZM217.71 434.13L217.674 434.575H217.032L217.072 434.079L217.71 434.13ZM200.164 429.925L199.712 434.575H199.069L199.529 429.864L200.164 429.923V429.925Z" fill="url(#paint16_linear_9082_7204)"/>
    <path d="M223.838 434.578L269.04 419.819L269.192 420.286L225.424 434.578H223.838ZM294.683 411.447L308.037 407.087L308.189 407.555L294.835 411.915L294.683 411.447ZM337.4 397.501L595.802 313.137L595.954 313.605L337.552 397.969L337.4 397.501ZM604.354 310.345L609.656 308.615L609.753 308.582L609.844 308.63L655.567 332.355L655.341 332.792L609.71 309.115L604.504 310.815L604.351 310.347L604.354 310.345ZM338.65 431.12L338.762 431.6L613.261 367.587L613.15 367.107L338.65 431.12ZM622.466 364.934L628.257 363.583L628.401 363.595L658.9 375.539L658.722 375.997L628.295 364.081L622.578 365.412L622.466 364.932V364.934ZM568.593 434.578L631.981 425.685L632.05 426.173L572.135 434.578H568.593ZM642.149 424.26L648.498 423.368L648.59 423.373L664.408 427.316L664.291 427.794L648.519 423.861L642.218 424.745L642.149 424.257V424.26ZM194.14 434.578H195.545L600.982 283.281L665.623 320.647L665.869 320.223L601.13 282.799L601.028 282.74L600.919 282.781L194.14 434.578ZM264.761 434.578H266.585L268.765 433.968L268.633 433.493L264.761 434.578ZM294.612 426.224L308.167 422.43L308.296 422.906L294.744 426.699L294.614 426.224H294.612ZM338.022 414.074L338.154 414.549L457.857 381.048L457.727 380.575L338.025 414.077L338.022 414.074ZM528.288 360.824L528.42 361.296L604.43 340.023L604.298 339.55L528.288 360.824ZM613.221 337.053L618.765 335.5L618.932 335.513L659.299 353.964L659.096 354.408L618.81 335.996L613.35 337.523L613.218 337.05L613.221 337.053ZM414.513 434.58H417.191L622.459 396.251L622.372 395.766L414.515 434.58H414.513ZM632.098 393.952L638.153 392.821L638.272 392.829L654.065 397.923L653.915 398.39L638.181 393.317L632.187 394.437L632.098 393.954V393.952Z" fill="url(#paint17_linear_9082_7204)"/>
    <path d="M214.912 434.577L269.103 416.986L269.301 417.595L216.983 434.58H214.912V434.577ZM294.678 408.683L307.996 404.358L308.194 404.966L294.876 409.29L294.678 408.68V408.683ZM337.283 394.851L595.159 311.135L595.357 311.742L337.481 395.458L337.283 394.851ZM603.698 308.361L609 306.64L609.128 306.6L609.247 306.661L654.781 330.165L654.489 330.734L609.072 307.291L603.899 308.97L603.701 308.361H603.698ZM239.679 434.577H241.946L269.014 426.628L268.834 426.015L239.679 434.58V434.577ZM294.63 418.436L308.08 414.486L308.26 415.098L294.81 419.049L294.63 418.436ZM337.692 405.786L337.872 406.398L456.36 371.593L456.18 370.981L337.692 405.786ZM525.848 350.518L526.029 351.131L600.929 329.128L600.748 328.516L525.846 350.518H525.848ZM609.534 325.937L609.714 326.549L615.052 324.982L660.488 346.583L660.762 346.003L615.218 324.352L614.991 324.334L609.537 325.937H609.534ZM338.535 428.243L338.678 428.866L612.532 365.328L612.39 364.706L338.535 428.243ZM621.686 362.546L627.466 361.207L627.652 361.22L658.15 373.098L657.919 373.695L627.512 361.852L621.828 363.171L621.686 362.546ZM364.882 434.575H368.119L618.581 384.188L618.457 383.563L364.885 434.575H364.882ZM628.023 381.637L633.973 380.44L634.141 380.45L653.862 387.234L653.653 387.841L634.014 381.083L628.15 382.262L628.025 381.637H628.023ZM547.859 434.575L631.125 422.961L631.214 423.594L552.488 434.575H547.859ZM641.267 421.546L647.581 420.665L647.7 420.67L663.519 424.592L663.366 425.212L647.606 421.305L641.354 422.176L641.265 421.544L641.267 421.546ZM186.322 434.575H188.164L600.395 281.602L667.485 320.165L667.802 319.611L600.581 280.972L600.449 280.896L600.311 280.949L186.322 434.572V434.575ZM204.402 434.575H206.388L269.446 413.129L269.24 412.522L204.402 434.575ZM294.706 403.863L294.912 404.47L308.166 399.963L307.961 399.356L294.706 403.863ZM337.085 389.449L337.29 390.054L592.626 303.213L592.42 302.606L337.085 389.447V389.449ZM600.842 299.745L601.048 300.35L606.145 298.617L653.582 324.044L653.882 323.48L606.323 297.987L606.201 297.921L606.071 297.964L600.845 299.742L600.842 299.745ZM254.354 434.577H256.738L268.869 431.201L268.699 430.586L254.352 434.577H254.354ZM294.607 423.375L308.123 419.613L308.293 420.23L294.777 423.993L294.607 423.378V423.375ZM337.903 411.327L338.073 411.945L457.491 378.71L457.318 378.095L337.903 411.327ZM527.734 358.499L527.904 359.113L603.772 338L603.602 337.383L527.734 358.499ZM612.509 334.906L618.043 333.366L618.259 333.381L662.002 353.262L661.738 353.847L618.099 334.014L612.677 335.523L612.507 334.908L612.509 334.906ZM294.556 433.386L308.207 430.007L308.359 430.627L294.708 434.006L294.556 433.386ZM338.319 422.555L338.472 423.175L459.778 393.159L459.625 392.539L338.319 422.555ZM531.562 374.739L531.715 375.361L609.57 356.098L609.417 355.478L531.562 374.741V374.739ZM618.581 353.206L618.734 353.826L624.329 352.442L654.72 364.947L654.964 364.358L624.476 351.812L624.278 351.796L618.581 353.204V353.206ZM398.786 434.58H402.282L621.661 393.827L621.547 393.2L398.783 434.58H398.786ZM631.255 391.396L637.294 390.275L637.449 390.285L653.242 395.352L653.046 395.959L637.329 390.918L631.369 392.026L631.255 391.398V391.396ZM487.901 434.58L627.88 412.895L627.979 413.525L492.072 434.58H487.901ZM637.876 411.345L644.098 410.382L644.23 410.39L660.038 414.701L659.87 415.316L644.126 411.023L637.972 411.975L637.876 411.343V411.345Z" fill="url(#paint18_linear_9082_7204)"/>
    <path d="M673.534 318.676L597.545 273.558L181.037 434.577H177.768L597.387 272.356L597.654 272.252L597.9 272.397L674.134 317.657L673.534 318.676Z" fill="url(#paint19_linear_9082_7204)"/>
    <path d="M598.157 272.719L652.833 434.577H651.588L597.042 273.095L598.157 272.719Z" fill="url(#paint20_linear_9082_7204)"/>
    <path d="M454.689 361.814L523.41 340.234L523.915 340.076L524.037 340.592L533.23 379.637L533.341 380.115L532.864 380.229L460.469 397.427L459.953 397.549L459.87 397.026L454.354 362.363L454.288 361.944L454.694 361.817L454.689 361.814ZM523.196 341.331L455.388 362.625L460.754 396.345L532.155 379.383L523.199 341.331H523.196Z" fill="url(#paint21_linear_9082_7204)"/>
    <path d="M307.887 393.057L336.808 382.595L337.283 382.422L337.301 382.927L339.194 434.577H338.454L336.584 383.458L308.382 393.662L308.68 434.577H307.945L307.643 393.405L307.641 393.144L307.887 393.057Z" fill="url(#paint22_linear_9082_7204)"/>
    <path d="M269.383 406.985L294.713 397.823L295.209 397.643L295.206 398.169L294.993 434.577H294.256L294.467 398.694L269.868 407.595L269.037 434.577H268.3L269.139 407.323L269.149 407.071L269.383 406.985Z" fill="url(#paint23_linear_9082_7204)"/>
    <path d="M589.831 294.569L598.152 291.647L598.505 291.522L598.622 291.881L645.91 434.577H645.13L598.04 292.468L590.413 295.146L635.178 434.577H634.403L589.603 295.029L589.491 294.688L589.831 294.569Z" fill="url(#paint24_linear_9082_7204)"/>
    <path d="M592.069 284.406L591.695 284.528L594.555 293.275L594.93 293.152L592.069 284.406Z" fill="url(#paint25_linear_9082_7204)"/>
    <path d="M523.945 76.0693L528.767 90.813L528.391 90.935L523.572 76.1913L523.945 76.0693Z" fill="url(#paint26_linear_9082_7204)"/>
    <path d="M529.921 78.7884L522.476 84.8389L522.724 85.1445L530.17 79.094L529.921 78.7884Z" fill="url(#paint27_linear_9082_7204)"/>
    <defs>
    <linearGradient id="paint0_linear_9082_7204" x1="132.415" y1="311.862" x2="68.4502" y2="407.017" gradientUnits="userSpaceOnUse">
    <stop stop-color="#4691FF" stop-opacity="0.92"/>
    <stop offset="1" stop-color="#4F96FF" stop-opacity="0"/>
    </linearGradient>
    <linearGradient id="paint1_linear_9082_7204" x1="274.613" y1="90.0488" x2="123.227" y2="173.884" gradientUnits="userSpaceOnUse">
    <stop stop-color="#4691FF" stop-opacity="0.92"/>
    <stop offset="1" stop-color="#4F96FF" stop-opacity="0"/>
    </linearGradient>
    <linearGradient id="paint2_linear_9082_7204" x1="237.063" y1="97.2656" x2="128.927" y2="339.394" gradientUnits="userSpaceOnUse">
    <stop stop-color="#4691FF" stop-opacity="0.92"/>
    <stop offset="1" stop-color="#4F96FF" stop-opacity="0"/>
    </linearGradient>
    <linearGradient id="paint3_linear_9082_7204" x1="189.736" y1="259.922" x2="148.718" y2="447.587" gradientUnits="userSpaceOnUse">
    <stop stop-color="#4691FF" stop-opacity="0.92"/>
    <stop offset="1" stop-color="#4F96FF" stop-opacity="0"/>
    </linearGradient>
    <linearGradient id="paint4_linear_9082_7204" x1="235.006" y1="89.501" x2="120.403" y2="343.706" gradientUnits="userSpaceOnUse">
    <stop stop-color="#4691FF" stop-opacity="0.92"/>
    <stop offset="1" stop-color="#4F96FF" stop-opacity="0"/>
    </linearGradient>
    <linearGradient id="paint5_linear_9082_7204" x1="106.271" y1="311.55" x2="86.0273" y2="321.083" gradientUnits="userSpaceOnUse">
    <stop stop-color="#4691FF" stop-opacity="0.92"/>
    <stop offset="1" stop-color="#4F96FF" stop-opacity="0"/>
    </linearGradient>
    <linearGradient id="paint6_linear_9082_7204" x1="77.4977" y1="346.693" x2="34.3788" y2="403.414" gradientUnits="userSpaceOnUse">
    <stop stop-color="#4691FF" stop-opacity="0.92"/>
    <stop offset="1" stop-color="#4F96FF" stop-opacity="0"/>
    </linearGradient>
    <linearGradient id="paint7_linear_9082_7204" x1="31.8515" y1="386.653" x2="15.2995" y2="434.93" gradientUnits="userSpaceOnUse">
    <stop stop-color="#4691FF" stop-opacity="0.92"/>
    <stop offset="1" stop-color="#4F96FF" stop-opacity="0"/>
    </linearGradient>
    <linearGradient id="paint8_linear_9082_7204" x1="646.204" y1="315.427" x2="723.67" y2="373.762" gradientUnits="userSpaceOnUse">
    <stop stop-color="#0D6EFD"/>
    <stop offset="0.942708" stop-color="#0D6EFD" stop-opacity="0"/>
    <stop offset="1" stop-color="#0D6EFD" stop-opacity="0"/>
    </linearGradient>
    <linearGradient id="paint9_linear_9082_7204" x1="646.902" y1="330.738" x2="716.311" y2="390.151" gradientUnits="userSpaceOnUse">
    <stop stop-color="#0D6EFD"/>
    <stop offset="0.942708" stop-color="#0D6EFD" stop-opacity="0"/>
    <stop offset="1" stop-color="#0D6EFD" stop-opacity="0"/>
    </linearGradient>
    <linearGradient id="paint10_linear_9082_7204" x1="638.811" y1="315.023" x2="718.209" y2="380.5" gradientUnits="userSpaceOnUse">
    <stop stop-color="#0D6EFD"/>
    <stop offset="0.942708" stop-color="#0D6EFD" stop-opacity="0"/>
    <stop offset="1" stop-color="#0D6EFD" stop-opacity="0"/>
    </linearGradient>
    <linearGradient id="paint11_linear_9082_7204" x1="644.813" y1="331.02" x2="714.326" y2="392.367" gradientUnits="userSpaceOnUse">
    <stop stop-color="#0D6EFD"/>
    <stop offset="0.942708" stop-color="#0D6EFD" stop-opacity="0"/>
    <stop offset="1" stop-color="#0D6EFD" stop-opacity="0"/>
    </linearGradient>
    <linearGradient id="paint12_linear_9082_7204" x1="566.077" y1="86.1152" x2="629.685" y2="250.536" gradientUnits="userSpaceOnUse">
    <stop stop-color="#5B9DFF" stop-opacity="0.75"/>
    <stop offset="1" stop-color="#3285FF" stop-opacity="0"/>
    </linearGradient>
    <linearGradient id="paint13_linear_9082_7204" x1="552.325" y1="109.807" x2="633.49" y2="233.847" gradientUnits="userSpaceOnUse">
    <stop stop-color="#5B9DFF" stop-opacity="0.75"/>
    <stop offset="1" stop-color="#3285FF" stop-opacity="0"/>
    </linearGradient>
    <linearGradient id="paint14_linear_9082_7204" x1="577.964" y1="98.3994" x2="602.386" y2="314.993" gradientUnits="userSpaceOnUse">
    <stop stop-color="#5B9DFF" stop-opacity="0.75"/>
    <stop offset="1" stop-color="#3285FF" stop-opacity="0"/>
    </linearGradient>
    <linearGradient id="paint15_linear_9082_7204" x1="577.18" y1="85.4844" x2="604.889" y2="317.635" gradientUnits="userSpaceOnUse">
    <stop stop-color="#5B9DFF" stop-opacity="0.75"/>
    <stop offset="1" stop-color="#3285FF" stop-opacity="0"/>
    </linearGradient>
    <linearGradient id="paint16_linear_9082_7204" x1="405.278" y1="292.854" x2="411.784" y2="435.856" gradientUnits="userSpaceOnUse">
    <stop stop-color="#5B9DFF" stop-opacity="0.75"/>
    <stop offset="1" stop-color="#3285FF" stop-opacity="0"/>
    </linearGradient>
    <linearGradient id="paint17_linear_9082_7204" x1="430.005" y1="282.74" x2="436.535" y2="435.992" gradientUnits="userSpaceOnUse">
    <stop stop-color="#5B9DFF" stop-opacity="0.75"/>
    <stop offset="1" stop-color="#3285FF" stop-opacity="0"/>
    </linearGradient>
    <linearGradient id="paint18_linear_9082_7204" x1="427.062" y1="280.896" x2="433.617" y2="436.014" gradientUnits="userSpaceOnUse">
    <stop stop-color="#5B9DFF" stop-opacity="0.75"/>
    <stop offset="1" stop-color="#3285FF" stop-opacity="0"/>
    </linearGradient>
    <linearGradient id="paint19_linear_9082_7204" x1="425.951" y1="272.252" x2="433.044" y2="436.077" gradientUnits="userSpaceOnUse">
    <stop stop-color="#5B9DFF" stop-opacity="0.75"/>
    <stop offset="1" stop-color="#3285FF" stop-opacity="0"/>
    </linearGradient>
    <linearGradient id="paint20_linear_9082_7204" x1="624.937" y1="272.719" x2="679.716" y2="415.339" gradientUnits="userSpaceOnUse">
    <stop stop-color="#5B9DFF" stop-opacity="0.75"/>
    <stop offset="1" stop-color="#3285FF" stop-opacity="0"/>
    </linearGradient>
    <linearGradient id="paint21_linear_9082_7204" x1="493.815" y1="340.076" x2="499.357" y2="397.656" gradientUnits="userSpaceOnUse">
    <stop stop-color="#5B9DFF" stop-opacity="0.75"/>
    <stop offset="1" stop-color="#3285FF" stop-opacity="0"/>
    </linearGradient>
    <linearGradient id="paint22_linear_9082_7204" x1="323.417" y1="382.422" x2="334.43" y2="432.748" gradientUnits="userSpaceOnUse">
    <stop stop-color="#5B9DFF" stop-opacity="0.75"/>
    <stop offset="1" stop-color="#3285FF" stop-opacity="0"/>
    </linearGradient>
    <linearGradient id="paint23_linear_9082_7204" x1="281.755" y1="397.643" x2="288.324" y2="433.794" gradientUnits="userSpaceOnUse">
    <stop stop-color="#5B9DFF" stop-opacity="0.75"/>
    <stop offset="1" stop-color="#3285FF" stop-opacity="0"/>
    </linearGradient>
    <linearGradient id="paint24_linear_9082_7204" x1="617.7" y1="291.522" x2="661.339" y2="421.52" gradientUnits="userSpaceOnUse">
    <stop stop-color="#5B9DFF" stop-opacity="0.75"/>
    <stop offset="1" stop-color="#3285FF" stop-opacity="0"/>
    </linearGradient>
    <linearGradient id="paint25_linear_9082_7204" x1="591.882" y1="284.467" x2="594.744" y2="284.457" gradientUnits="userSpaceOnUse">
    <stop stop-color="#5B9DFF" stop-opacity="0.75"/>
    <stop offset="1" stop-color="#3285FF" stop-opacity="0"/>
    </linearGradient>
    <linearGradient id="paint26_linear_9082_7204" x1="526.17" y1="76.0693" x2="531.149" y2="89.2144" gradientUnits="userSpaceOnUse">
    <stop stop-color="#5B9DFF" stop-opacity="0.75"/>
    <stop offset="1" stop-color="#3285FF" stop-opacity="0"/>
    </linearGradient>
    <linearGradient id="paint27_linear_9082_7204" x1="526.199" y1="81.8136" x2="526.451" y2="82.1213" gradientUnits="userSpaceOnUse">
    <stop stop-color="#5B9DFF" stop-opacity="0.75"/>
    <stop offset="1" stop-color="#3285FF" stop-opacity="0"/>
    </linearGradient>
    </defs>
    </svg>
    