<svg width="841" height="555" viewBox="0 0 841 555" fill="none" xmlns="http://www.w3.org/2000/svg">
    <g filter="url(#filter0_d_9068_1922)">
    <path d="M163.689 423.624L198.687 401.713L233.695 371.862L234.015 372.236L198.997 402.097L198.966 402.117L163.948 424.038L163.689 423.621V423.624ZM161.882 432.529L162.136 432.948L197.424 411.523L197.455 411.502L232.745 382.228L232.43 381.85L197.15 411.116L161.882 432.529ZM160.063 441.503L160.312 441.927L195.869 421.05L195.9 421.03L231.457 392.399L231.149 392.015L195.602 420.636L160.063 441.5V441.503ZM158.231 450.54L158.473 450.967L194.299 430.7L194.329 430.68L230.156 402.752L229.854 402.366L194.042 430.283L158.231 450.54ZM156.389 459.633L156.623 460.065L192.714 440.474L192.744 440.454L228.835 413.294L228.54 412.9L192.465 440.05L156.389 459.633ZM154.537 468.772L154.763 469.209L191.116 450.362L191.149 450.342L227.501 424.025L227.211 423.627L190.872 449.933L154.537 468.77V468.772ZM152.677 477.949L189.271 459.938L225.867 434.554L226.147 434.958L189.535 460.352L189.505 460.37L152.893 478.391L152.675 477.949H152.677ZM150.815 487.147L187.66 470.048L224.508 445.675L224.78 446.086L187.917 470.467L187.884 470.485L151.021 487.591L150.815 487.144V487.147ZM153.046 494.576L186.039 480.266L223.136 457.004L223.398 457.42L186.288 480.691L186.255 480.708L154.278 494.576H153.046ZM174.446 494.576L184.421 490.577L221.754 468.536L222.005 468.96L184.657 491.011L184.624 491.029L175.77 494.578H174.449L174.446 494.576ZM194.411 494.576H195.432L220.6 480.708L220.364 480.277L194.413 494.576H194.411ZM214.343 494.576H215.43L219.183 492.668L218.959 492.228L214.343 494.576Z" fill="url(#paint0_linear_9068_1922)"/>
    <path d="M315.246 150.049L328.313 167.531L354.444 192.832L374.053 208.856L373.744 209.237L354.127 193.205L354.112 193.19L327.955 167.867L327.93 167.839L314.853 150.344L315.246 150.049ZM294.753 460.642L310.544 466.877L310.363 467.334L294.573 461.099L294.753 460.642ZM295.731 445.827L313.28 453.345L333.738 457.885L333.633 458.365L313.15 453.82L313.107 453.807L295.541 446.282L295.734 445.83L295.731 445.827ZM296.679 431.497L296.473 431.942L313.821 439.95L313.864 439.966L348.563 448.612L348.586 448.617L356.055 449.704L356.124 449.216L348.664 448.131L314.007 439.496L296.676 431.497H296.679ZM297.596 417.62L314.713 426.086L348.954 435.542L374.653 439.933L374.569 440.418L348.862 436.025L348.84 436.02L314.563 426.551L314.52 426.535L297.383 418.06L297.601 417.618L297.596 417.62ZM298.485 404.17L298.257 404.604L315.191 413.532L315.234 413.55L349.101 423.814L349.124 423.822L374.526 428.799L374.62 428.314L349.223 423.339L315.399 413.088L298.483 404.17H298.485ZM299.347 391.121L316.062 400.478L349.508 411.507L374.592 417.046L374.485 417.526L349.381 411.982L349.358 411.977L315.884 400.94L315.841 400.92L299.105 391.553L299.347 391.123V391.121ZM300.183 378.448L316.707 388.232L349.762 400.008L374.564 406.101L374.447 406.578L349.632 400.483L349.609 400.475L316.522 388.687L316.479 388.666L299.936 378.869L300.185 378.445L300.183 378.448ZM300.996 366.13L300.736 366.55L317.094 376.761L317.134 376.781L349.848 389.299L349.874 389.307L374.409 395.938L374.536 395.463L350.013 388.837L317.332 376.331L300.996 366.133V366.13ZM301.786 354.151L301.517 354.563L317.693 365.178L317.736 365.198L350.087 378.427L350.11 378.435L374.374 385.587L374.513 385.114L350.257 377.965L317.947 364.753L301.788 354.148L301.786 354.151ZM302.556 342.492L318.534 353.485L350.499 367.391L374.483 375.046L374.336 375.513L350.339 367.853L350.316 367.845L318.318 353.925L318.277 353.902L302.279 342.896L302.558 342.489L302.556 342.492ZM303.305 331.135L319.111 342.509L350.727 357.085L374.46 365.236L374.3 365.701L350.562 357.548L350.539 357.538L318.887 342.944L318.847 342.921L303.021 331.531L303.308 331.132L303.305 331.135ZM304.037 320.062L319.672 331.811L350.961 347.045L374.435 355.675L374.264 356.138L350.778 347.502L350.755 347.492L319.439 332.242L319.4 332.217L303.742 320.454L304.037 320.06V320.062ZM304.751 309.264L304.448 309.651L319.942 321.78L319.98 321.805L350.969 337.692L350.992 337.702L374.231 346.806L374.409 346.348L351.174 337.248L320.224 321.378L304.746 309.262L304.751 309.264ZM305.447 298.726L305.137 299.107L320.47 311.589L320.508 311.615L351.177 328.127L351.2 328.137L374.201 337.7L374.389 337.245L351.398 327.687L320.76 311.193L305.444 298.726H305.447ZM306.125 288.433L305.808 288.809L320.986 301.64L321.024 301.665L351.38 318.787L351.401 318.8L374.168 328.81L374.366 328.36L351.604 318.352L321.288 301.251L306.125 288.433ZM306.788 278.377L306.463 278.748L321.489 291.916L321.525 291.944L351.576 309.663L351.596 309.673L374.135 320.121L374.341 319.674L351.815 309.231L321.791 291.53L306.783 278.377H306.788ZM307.439 268.55L322.297 282.033L352.023 300.319L374.325 311.188L374.109 311.63L351.794 300.756L351.774 300.745L322.022 282.445L321.987 282.417L307.111 268.918L307.444 268.555L307.439 268.55ZM308.071 258.936L322.785 272.744L352.221 291.599L374.302 302.885L374.079 303.322L351.982 292.028L351.962 292.016L322.5 273.146L322.465 273.118L307.734 259.294L308.071 258.936ZM308.691 249.53L323.26 263.654L352.414 283.067L374.28 294.762L374.048 295.197L352.165 283.494L352.145 283.484L322.97 264.055L322.935 264.027L308.346 249.886L308.689 249.532L308.691 249.53ZM309.299 240.32L323.73 254.756L352.6 274.711L374.259 286.807L374.02 287.236L352.348 275.133L352.328 275.12L323.433 255.145L323.397 255.117L308.951 240.665L309.299 240.32ZM309.891 231.3L324.185 246.039L352.788 266.532L374.239 279.02L373.993 279.447L352.526 266.952L352.506 266.939L323.885 246.43L323.852 246.402L309.54 231.646L309.893 231.303L309.891 231.3ZM310.475 222.461L310.117 222.799L324.294 237.853L324.327 237.881L352.681 258.913L352.701 258.925L373.967 271.807L374.221 271.388L352.968 258.514L324.639 237.5L310.478 222.461H310.475ZM311.044 213.798L310.683 214.13L324.728 229.476L324.759 229.507L352.849 251.052L352.867 251.065L373.934 264.322L374.196 263.905L353.136 250.653L325.069 229.126L311.039 213.798H311.044ZM311.606 205.301L311.237 205.629L325.153 221.262L325.186 221.29L353.019 243.338L353.037 243.351L373.911 256.977L374.178 256.565L353.311 242.942L325.511 220.919L311.606 205.299V205.301ZM312.154 196.968L311.783 197.288L325.574 213.2L325.605 213.231L353.184 235.775L353.202 235.787L373.886 249.776L374.16 249.367L353.487 235.386L325.928 212.86L312.154 196.965V196.968ZM312.693 188.789L312.317 189.107L325.983 205.296L326.014 205.324L353.347 228.353L353.365 228.366L373.863 242.711L374.145 242.309L353.654 227.97L326.349 204.966L312.696 188.789H312.693ZM313.221 180.761L312.843 181.073L326.387 197.535L326.415 197.565L353.504 221.069L353.52 221.082L373.835 235.775L374.125 235.376L353.812 220.685L326.751 197.204L313.219 180.761H313.221ZM313.74 172.877L313.356 173.184L326.781 189.91L326.809 189.94L353.659 213.909L353.677 213.925L373.815 228.963L374.109 228.569L353.977 213.533L327.157 189.59L313.745 172.88L313.74 172.877ZM314.25 165.133L313.862 165.435L327.167 182.422L327.195 182.453L353.809 206.882L353.824 206.894L373.784 222.268L374.084 221.88L354.134 206.513L327.538 182.1L314.245 165.13L314.25 165.133ZM314.751 157.524L314.36 157.821L327.551 175.065L327.579 175.095L353.962 199.976L353.977 199.989L373.764 215.693L374.071 215.307L354.292 199.608L327.932 174.75L314.754 157.521L314.751 157.524Z" fill="url(#paint1_linear_9068_1922)"/>
    <path d="M167.207 406.01L305.109 298.691L305.264 298.572L305.434 298.668L428.109 367.216L427.822 367.732L305.317 299.278L167.571 406.475L167.207 406.008V406.01ZM168.968 397.336L169.334 397.799L305.991 288.991L427.241 359.935L427.538 359.427L306.113 288.381L305.937 288.279L305.78 288.404L168.966 397.339L168.968 397.336ZM170.711 388.744L171.082 389.201L306.649 278.935L426.674 352.313L426.981 351.81L306.776 278.325L306.598 278.216L306.435 278.348L170.706 388.746L170.711 388.744ZM172.436 380.235L172.812 380.69L307.294 269.107L426.123 344.861L426.44 344.363L307.429 268.492L307.246 268.376L307.081 268.513L172.434 380.232L172.436 380.235ZM174.146 371.81L174.527 372.26L307.924 259.493L425.584 337.574L425.909 337.081L308.064 258.878L307.881 258.756L307.711 258.901L174.144 371.81H174.146ZM175.838 363.471L176.222 363.921L308.542 250.09L425.056 330.445L425.391 329.96L308.689 249.475L308.501 249.346L308.328 249.493L175.838 363.471ZM177.513 355.219L177.901 355.664L309.144 240.88L424.537 323.466L424.88 322.985L309.296 240.265L309.108 240.131L308.933 240.283L177.513 355.222V355.219ZM179.169 347.053L179.563 347.495L309.736 231.863L424.032 316.628L424.382 316.153L309.893 231.246L309.7 231.103L309.52 231.264L179.167 347.056L179.169 347.053ZM180.808 338.974L181.204 339.414L310.315 223.027L423.536 309.929L423.894 309.459L310.48 222.407L310.285 222.257L310.102 222.419L180.808 338.971V338.974ZM182.431 330.981L182.828 331.415L310.879 214.363L423.046 303.361L423.414 302.899L311.049 213.745L310.854 213.59L310.668 213.761L182.431 330.983V330.981ZM184.037 323.072L184.436 323.504L311.435 205.867L422.568 296.92L422.942 296.463L311.611 205.247L311.413 205.084L311.225 205.259L184.037 323.072ZM185.622 315.246L186.026 315.676L311.982 197.533L422.101 290.602L422.482 290.152L312.162 196.913L311.961 196.743L311.768 196.923L185.622 315.246ZM187.193 307.507L187.599 307.934L312.515 189.357L421.638 284.402L422.027 283.958L312.701 188.737L312.5 188.562L312.304 188.747L187.193 307.51V307.507ZM188.748 299.85L189.157 300.274L313.044 181.329L421.191 278.315L421.582 277.875L313.229 180.706L313.026 180.523L312.828 180.714L188.745 299.85H188.748ZM190.285 292.276L313.346 172.83L313.547 172.634L313.753 172.825L421.148 271.907L420.749 272.342L313.559 173.447L190.696 292.698L190.285 292.273V292.276ZM191.804 284.783L313.854 165.083L314.057 164.885L314.263 165.081L420.719 266.043L420.312 266.47L314.063 165.706L192.218 285.205L191.804 284.783ZM193.308 277.37L314.352 157.471L314.558 157.266L314.764 157.469L420.294 260.276L419.883 260.7L314.56 158.094L193.725 277.786L193.308 277.367V277.37ZM165.434 414.766L165.79 415.236L304.626 309.817L428.414 375.72L428.691 375.199L304.738 309.207L304.57 309.118L304.421 309.233L165.434 414.766Z" fill="url(#paint2_linear_9068_1922)"/>
    <path d="M213.207 494.577L294.552 460.6L294.725 460.585L315.561 464.869L315.445 465.446L294.7 461.18L214.744 494.575H213.212L213.207 494.577ZM189.035 494.577H190.45L295.665 446.367L338.733 456.439L338.867 455.862L295.703 445.768L295.515 445.788L189.037 494.575L189.035 494.577ZM169.103 494.577H170.432L296.608 432.038L359.345 448.464L359.493 447.892L296.648 431.438L296.443 431.459L169.1 494.575L169.103 494.577ZM152.189 494.577H153.449L297.52 418.163L377.671 441.375L377.834 440.808L297.568 417.564L297.35 417.586L152.189 494.577ZM137.509 494.577H138.713L298.402 404.715L394.031 435.046L394.209 434.482L298.455 404.113L298.333 404.075L298.221 404.138L137.504 494.58L137.509 494.577ZM124.534 494.577H125.692L299.258 391.666L408.693 429.373L408.884 428.814L299.321 391.061L299.192 391.018L299.075 391.089L124.534 494.58V494.577ZM112.902 494.577H114.023L300.094 378.993L421.877 424.271L422.083 423.72L300.165 378.391L300.028 378.34L299.906 378.416L112.905 494.577H112.902ZM102.348 494.577H103.433L300.899 366.678L431.615 418.816L431.834 418.267L300.975 366.071L300.833 366.015L300.703 366.099L102.346 494.575L102.348 494.577ZM92.6759 494.577L115.491 479.231L115.819 479.722L93.7329 494.577H92.6759ZM150.429 455.73L301.488 354.122L301.621 354.033L301.768 354.097L431.171 409.2L430.94 409.743L301.684 354.704L150.756 456.225L150.429 455.735V455.73ZM83.7378 494.577L117.422 471.127L117.76 471.612L84.7718 494.577H83.7378ZM152.283 446.858L302.248 342.46L302.385 342.364L302.538 342.432L430.526 400.363L430.282 400.902L302.446 343.04L152.621 447.341L152.283 446.855V446.858ZM75.4246 494.577L119.358 463.017L119.704 463.494L76.4358 494.577H75.4271H75.4246ZM154.13 438.036L302.987 331.104L303.13 331.002L303.287 331.078L429.895 391.765L429.641 392.296L303.188 331.685L154.473 438.517L154.13 438.039V438.036ZM67.6399 494.577L121.292 454.907L121.642 455.382L68.6307 494.577H67.6373H67.6399ZM155.965 429.271L303.709 320.031L303.856 319.922L304.019 320.006L429.283 383.378L429.016 383.907L303.915 320.615L156.315 429.746L155.965 429.274V429.271Z" fill="url(#paint3_linear_9068_1922)"/>
    <path d="M431.354 420.213L419.197 255.039L315.051 150.893L195.457 270.487L166.095 415.096L165.909 415.39L158.267 421.193L157.675 420.411L165.167 414.722L194.525 270.146L194.657 269.892L314.7 149.849L315.051 149.501L315.399 149.849L420.022 254.47L420.165 254.785L432.337 420.144L431.354 420.213Z" fill="url(#paint4_linear_9068_1922)"/>
    <path d="M171.278 371.629L161.651 418.202L161.265 418.123L170.892 371.55L171.278 371.629Z" fill="url(#paint5_linear_9068_1922)"/>
    <path d="M126.213 433.64L160.543 406.693L161.328 407.181L149.613 463.036L149.57 463.234L149.397 463.346L114.412 486.192L113.667 485.666L126.038 433.909L126.211 433.635L126.213 433.64ZM160.088 408.302L126.955 434.308L114.912 484.695L148.693 462.634L160.088 408.302Z" fill="url(#paint6_linear_9068_1922)"/>
    <path d="M123.703 447.436L61.6235 494.576H60L123.111 446.653L123.703 447.436Z" fill="url(#paint7_linear_9068_1922)"/>
    <path d="M762.681 370.093L780.997 411.867V413.409L762.114 370.339L762.683 370.093H762.681ZM716.831 446.913L733.91 494.574H733.254L716.25 447.122L716.831 446.913ZM722.883 445.788L722.301 445.999L740.023 494.572H740.683L722.883 445.785V445.788ZM717.733 414.466L717.154 414.682L746.824 494.574H747.485L717.733 414.469V414.466ZM723.526 413.107L722.947 413.325L753.654 494.574H754.317L723.526 413.107ZM718.089 382.514L717.512 382.735L760.521 494.574H761.184L718.092 382.517L718.089 382.514ZM723.638 380.967L723.061 381.193L767.412 494.574H768.077L723.638 380.97V380.967ZM729.194 379.42L728.618 379.648L774.338 494.572H775.003L729.192 379.42H729.194ZM734.759 377.867L734.184 378.101L780.994 493.82V492.166L734.759 377.87V377.867ZM740.328 376.315L739.756 376.551L780.994 476.83V475.204L740.328 376.317V376.315ZM745.905 374.763L745.333 375.001L780.994 460.316V458.707L745.905 374.763ZM751.489 373.205L750.92 373.449L780.994 444.251V442.665L751.489 373.205ZM757.081 371.648L756.512 371.892L780.994 428.62V427.055L757.081 371.648Z" fill="url(#paint8_linear_9068_1922)" fill-opacity="0.5"/>
    <path d="M780.219 494.577L780.997 491.469V494.107L780.88 494.574H780.219V494.577ZM766.926 494.577H767.574L771.273 469.155L780.999 465.793V465.117L770.882 468.613L770.697 468.677L770.669 468.87L766.929 494.574L766.926 494.577ZM738.036 494.577H738.676L738.908 488.967L758.174 481.33L758.367 481.253L758.374 481.048L759.551 452.203L780.999 445.076V444.406L759.142 451.667L758.933 451.735L758.923 451.957L757.747 480.814L738.481 488.454L738.288 488.53L738.28 488.738L738.039 494.582L738.036 494.577ZM733.003 494.577H733.643L732.195 470.76L749.462 464.386L749.685 464.302L749.67 464.066L747.83 435.249L780.997 424.672V424.004L747.399 434.718L747.16 434.794L747.175 435.043L749.017 463.87L731.75 470.244L731.527 470.328L731.542 470.565L733.003 494.582V494.577ZM723.12 483.952L729.621 481.998L724.809 452.386L724.766 452.119L725.023 452.033L740.287 446.918L735.434 418.125L735.389 417.848L735.658 417.766L780.997 403.92V404.588L736.113 418.297L740.965 447.086L741.009 447.355L740.75 447.442L725.485 452.556L730.297 482.178L730.343 482.455L730.074 482.536L723.303 484.571L723.12 483.959V483.952ZM718.323 435.122L718.081 434.207L718.003 433.905L718.302 433.818L731.555 429.962L723.696 401.201L723.612 400.899L723.915 400.81L774.185 386.137L774.348 386.089L774.477 386.198L780.997 391.615V392.446L774.2 386.798L724.395 401.336L732.253 430.096L732.337 430.399L732.035 430.488L718.778 434.344L718.94 434.957L718.323 435.119V435.122ZM716.854 466.098L717.009 466.718L726.367 464.368L726.682 464.289L726.598 463.977L721.857 446.006L721.239 446.169L725.899 463.824L716.857 466.096L716.854 466.098Z" fill="url(#paint9_linear_9068_1922)" fill-opacity="0.5"/>
    <path d="M726.321 494.577L710.04 448.303L709.85 447.764L710.416 447.658L721.931 445.518L711.194 416.087L711.003 415.566L711.547 415.442L722.586 412.881L711.799 384.343L711.611 383.84L712.129 383.698L762.267 369.745L762.524 369.671L762.724 369.851L780.997 386.239V387.557L762.27 370.763L712.911 384.498L723.704 413.058L723.902 413.584L723.354 413.711L712.309 416.275L723.056 445.729L723.252 446.273L722.68 446.38L711.158 448.522L727.363 494.577H726.321Z" fill="url(#paint10_linear_9068_1922)" fill-opacity="0.5"/>
    <path d="M717.047 466.558L715.5 468.029L724.784 494.577H724.367L715.086 468.037L715.045 467.917L715.137 467.831L716.775 466.274L717.047 466.558ZM719.214 483.822L718.844 483.952L722.54 494.577H722.957L719.214 483.822ZM717.195 483.266L716.824 483.393L720.696 494.577H721.112L717.197 483.266H717.195ZM730.175 482.176L734.629 494.577H734.212L729.807 482.31L730.178 482.178L730.175 482.176ZM726.486 464.017L726.115 464.152L737.129 494.577H737.546L726.483 464.017H726.486ZM740.828 447.109L758.989 494.574H758.567L740.462 447.249L740.831 447.109H740.828ZM749.553 464.01L749.187 464.15L760.897 494.574H761.319L749.556 464.007L749.553 464.01ZM758.265 480.974L757.899 481.116L763.108 494.577H763.529L758.265 480.974ZM732.134 430.145L731.766 430.285L756.217 494.577H756.639L732.134 430.145ZM724.207 401.094L723.839 401.234L759.647 494.577H760.069L724.207 401.094ZM735.935 418.023L765.719 494.577H765.298L735.569 418.165L735.935 418.023ZM747.673 434.967L747.304 435.109L770.753 494.579H771.177L747.67 434.967H747.673ZM759.419 451.914L776.456 494.579H776.035L759.055 452.058L759.421 451.914H759.419ZM771.159 468.852L780.997 493.19V494.239L770.796 469L771.162 468.852H771.159ZM774.472 386.384L780.997 401.097V402.068L774.111 386.544L774.472 386.386V386.384Z" fill="url(#paint11_linear_9068_1922)" fill-opacity="0.5"/>
    <path d="M375.184 107.927L386.848 99.7946L422.576 60.5306L422.822 60.2588L422.979 60.5916L462.391 144.404L462.414 144.473L499.109 394.234L498.621 394.305L461.931 144.577L422.692 61.1328L387.194 100.145L387.156 100.181L375.466 108.329L375.184 107.927Z" fill="#0D6EFD" fill-opacity="0.5"/>
    <path d="M375.351 115.12L387.519 107.111L423.386 68.4469L423.632 68.1826L423.787 68.5078L463.422 151.436L462.98 151.647L423.5 69.0465L387.859 107.467L387.814 107.505L375.618 115.529L375.349 115.12H375.351ZM375.519 122.46L375.778 122.876L388.492 114.977L388.54 114.937L424.326 77.1183L464.032 158.814L464.474 158.601L424.611 76.5873L424.456 76.2671L424.212 76.5263L388.207 114.576L375.519 122.46ZM375.692 129.955L375.941 130.379L389.183 122.609L389.236 122.569L425.172 85.3654L465.109 166.116L465.551 165.898L425.459 84.8344L425.304 84.5219L425.06 84.7734L388.906 122.203L375.694 129.955H375.692ZM375.867 137.607L376.106 138.037L389.887 130.399L389.943 130.356L426.031 93.7802L466.199 173.548L466.639 173.327L426.315 93.2542L426.16 92.9494L425.919 93.1933L389.615 129.988L375.865 137.607H375.867ZM376.048 145.425L376.274 145.859L390.606 138.357L390.664 138.314L426.907 102.38L467.31 181.122L467.747 180.898L427.192 101.857L427.039 101.557L426.801 101.794L390.344 137.938L376.045 145.422L376.048 145.425ZM376.23 153.418L376.449 153.86L391.345 146.495L391.409 146.451L427.812 111.174L468.45 188.848L468.885 188.619L428.094 110.655L427.941 110.363L427.705 110.592L391.094 146.07L376.23 153.418ZM376.419 161.594L376.627 162.039L392.1 154.813L392.163 154.767L428.732 120.16L469.606 196.719L470.038 196.488L429.011 119.644L428.859 119.36L428.625 119.581L391.856 154.381L376.419 161.589V161.594ZM376.609 169.958L376.807 170.408L392.87 163.327L392.938 163.284L429.672 129.363L470.788 204.76L471.22 204.527L429.954 128.849L429.801 128.573L429.57 128.786L392.636 162.892L376.612 169.955L376.609 169.958ZM376.805 178.52L376.993 178.975L393.66 172.041L393.731 171.998L430.637 138.781L471.995 212.969L472.424 212.731L430.914 138.273L430.764 138.004L430.535 138.209L393.434 171.604L376.807 178.52H376.805ZM377.005 187.291L377.186 187.748L394.47 180.967L394.544 180.924L431.625 148.428L473.229 221.354L473.656 221.112L431.902 147.925L431.752 147.663L431.526 147.862L394.252 180.527L377.008 187.293L377.005 187.291ZM377.211 196.28L395.09 189.669L432.54 157.75L432.764 157.559L432.911 157.813L474.911 229.677L474.487 229.926L432.634 158.316L395.375 190.073L395.298 190.116L377.379 196.745L377.209 196.282L377.211 196.28ZM377.422 205.5L395.946 199.046L433.579 167.89L433.8 167.707L433.948 167.953L476.197 238.435L475.775 238.686L433.673 168.451L396.228 199.453L396.152 199.494L377.585 205.962L377.422 205.5ZM377.638 214.961L396.83 208.668L434.646 178.297L434.865 178.124L435.01 178.36L477.513 247.401L477.096 247.658L434.74 178.856L397.105 209.08L397.029 209.123L377.793 215.429L377.641 214.961H377.638ZM377.859 224.677L397.735 218.551L435.744 188.985L435.957 188.82L436.102 189.049L478.862 256.583L478.445 256.845L435.83 189.539L398.002 218.966L397.923 219.006L378.001 225.145L377.857 224.674L377.859 224.677ZM378.085 234.662L398.667 228.709L436.869 199.974L437.08 199.816L437.225 200.037L480.247 266.001L479.835 266.268L436.958 200.523L398.929 229.128L398.85 229.169L378.225 235.135L378.088 234.662H378.085ZM378.319 244.931L399.625 239.154L438.03 211.27L438.236 211.12L438.381 211.331L481.665 275.654L481.255 275.925L438.114 211.816L399.879 239.578L399.801 239.616L378.451 245.407L378.321 244.931H378.319ZM378.56 255.503L378.68 255.981L400.774 250.374L400.855 250.336L439.303 223.442L482.714 285.847L483.118 285.565L439.565 222.957L439.425 222.756L439.222 222.899L400.611 249.906L378.56 255.503ZM378.807 266.393L378.921 266.873L401.782 261.454L401.861 261.418L440.528 235.419L484.213 296.038L484.612 295.751L440.787 234.936L440.647 234.743L440.449 234.875L401.625 260.979L378.804 266.39L378.807 266.393ZM379.061 277.623L379.168 278.103L402.819 272.877L402.9 272.844L441.793 247.769L485.755 306.521L486.149 306.226L442.05 247.292L441.913 247.109L441.72 247.233L402.672 272.409L379.061 277.628V277.623ZM379.325 289.213L379.424 289.696L403.894 284.668L403.972 284.638L443.097 260.516L487.34 317.308L487.727 317.006L443.346 260.038L443.211 259.863L443.023 259.977L403.746 284.193L379.32 289.211L379.325 289.213ZM379.594 301.188L379.686 301.67L405.001 296.848L405.08 296.818L444.448 273.682L488.982 328.421L489.363 328.111L444.697 273.207L444.565 273.044L444.382 273.151L404.872 296.373L379.597 301.185L379.594 301.188ZM379.874 313.574L406.023 308.972L445.777 286.779L445.952 286.68L446.085 286.833L491.04 339.575L490.666 339.895L445.841 287.308L406.223 309.425L406.147 309.453L379.96 314.061L379.874 313.576V313.574ZM380.163 326.399L407.214 322.019L447.225 300.885L447.393 300.796L447.523 300.939L492.775 351.407L492.407 351.735L447.284 301.409L407.407 322.471L407.331 322.497L380.24 326.884L380.163 326.399ZM380.463 339.697L408.454 335.543L448.727 315.515L448.889 315.433L449.014 315.565L494.569 363.646L494.213 363.984L448.783 316.038L408.64 336.005L408.566 336.028L380.537 340.187L380.466 339.7L380.463 339.697ZM380.773 353.506L380.839 353.994L409.841 350.073L409.913 350.053L450.335 331.224L496.078 376.667L496.423 376.319L450.559 330.756L450.437 330.634L450.282 330.706L409.737 349.591L380.773 353.506ZM381.096 367.863L381.154 368.354L411.17 364.68L411.239 364.659L451.954 347.012L498.016 389.815L498.352 389.457L452.169 346.542L452.053 346.432L451.905 346.496L411.081 364.192L381.098 367.861L381.096 367.863ZM381.434 382.818L381.485 383.308L412.555 379.891L412.621 379.876L453.638 363.46L492.394 396.893L492.717 396.522L453.846 362.993L453.732 362.894L453.595 362.95L412.471 379.406L381.436 382.818H381.434ZM381.784 398.418L413.922 395.272L455.356 380.107L455.485 380.059L455.592 380.145L481.624 400.798L481.316 401.185L455.391 380.618L414.059 395.745L413.998 395.758L381.828 398.906L381.782 398.415L381.784 398.418ZM382.153 414.721L382.194 415.214L415.512 412.346L415.568 412.333L457.233 398.55L468.026 406.335L468.313 405.936L457.419 398.077L457.317 398.004L457.198 398.044L415.444 411.858L382.155 414.721H382.153ZM382.536 431.797L405.581 430.08L405.616 430.57L382.572 432.288L382.536 431.797Z" fill="#0D6EFD" fill-opacity="0.5"/>
    <path d="M571.232 366.256L531.899 196.026L532.379 195.917L571.712 366.146L571.232 366.256Z" fill="#0D6EFD" fill-opacity="0.5"/>
    <path d="M531.66 196.082L523.914 162.55L422.756 61.3948L375.821 108.329L378.154 212.8L377.171 212.821L374.836 108.139L374.831 107.928L374.978 107.78L422.408 60.3481L422.756 60L423.106 60.3481L524.709 161.951L524.841 162.189L532.621 195.861L531.66 196.082Z" fill="#0D6EFD" fill-opacity="0.5"/>
    <path d="M375.316 115.151L423.396 68.4401L423.569 68.2725L423.739 68.4401L526.007 168.498L525.662 168.849L423.566 68.9584L375.659 115.502L375.316 115.148V115.151ZM375.481 122.494L375.819 122.852L424.392 77.0379L527.166 175.358L527.504 175.002L424.56 76.5196L424.392 76.3595L424.224 76.5196L375.481 122.494ZM375.651 129.989L375.984 130.349L425.235 85.2799L528.705 181.999L529.038 181.639L425.406 84.7641L425.24 84.6092L425.073 84.7616L375.654 129.986L375.651 129.989ZM375.826 137.641L376.152 138.01L426.094 93.6998L530.27 188.78L530.601 188.417L426.262 93.1866L426.099 93.0367L425.934 93.184L375.824 137.641H375.826ZM376.004 145.461L376.324 145.835L426.976 102.303L531.876 195.711L532.204 195.343L427.143 101.792L426.983 101.65L426.821 101.789L376.007 145.461H376.004ZM376.185 153.455L376.497 153.833L427.873 111.096L533.512 202.795L533.835 202.424L428.038 110.588L427.88 110.451L427.72 110.585L376.185 153.457V153.455ZM376.37 161.628L376.677 162.012L428.792 120.088L535.187 210.038L535.504 209.662L428.955 119.582L428.8 119.45L428.642 119.577L376.37 161.628ZM376.561 169.992L376.863 170.381L429.735 129.287L536.902 217.447L537.214 217.066L429.895 128.782L429.743 128.657L429.588 128.777L376.561 169.992ZM376.756 178.554L377.051 178.948L430.698 138.706L538.66 225.034L538.965 224.65L430.855 138.203L430.705 138.083L430.553 138.198L376.751 178.554H376.756ZM376.957 187.325L377.247 187.723L431.689 148.355L540.459 232.808L540.758 232.419L431.841 147.855L431.696 147.743L431.546 147.85L376.954 187.327L376.957 187.325ZM377.16 196.314L377.442 196.718L432.697 158.244L542.301 240.771L542.595 240.377L432.85 157.743L432.708 157.637L432.563 157.738L377.16 196.314ZM377.371 205.534L377.645 205.943L433.737 168.386L544.191 248.942L544.481 248.545L433.886 167.891L433.747 167.789L433.604 167.883L377.371 205.536V205.534ZM377.587 214.993L434.674 178.287L434.814 178.198L434.948 178.292L546.414 256.917L546.13 257.318L434.799 178.79L377.851 215.404L377.587 214.99V214.993ZM377.808 224.708L435.772 188.979L435.906 188.895L436.038 188.984L548.398 265.522L548.121 265.929L435.894 189.479L378.067 225.125L377.808 224.708ZM378.034 234.693L436.897 199.965L437.029 199.888L437.156 199.972L550.439 274.366L550.169 274.776L437.017 200.465L378.283 235.118L378.034 234.693ZM378.268 244.96L438.058 211.261L438.185 211.189L438.31 211.268L552.537 283.46L552.275 283.876L438.173 211.764L378.509 245.392L378.268 244.963V244.96ZM378.507 255.53L439.25 222.889L439.372 222.823L439.491 222.897L554.692 292.82L554.438 293.239L439.357 223.39L378.738 255.964L378.504 255.53H378.507ZM378.756 266.419L440.482 234.869L440.601 234.808L440.718 234.874L556.922 302.459L556.676 302.886L440.586 235.369L378.982 266.859L378.758 266.422L378.756 266.419ZM379.012 277.646L441.75 247.222L441.864 247.166L441.976 247.229L559.214 312.403L558.975 312.833L441.849 247.72L379.226 278.089L379.012 277.646ZM379.277 289.237L379.48 289.682L443.152 260.469L561.351 323.1L561.579 322.665L443.274 259.978L443.168 259.923L443.058 259.973L379.274 289.237H379.277ZM379.548 301.209L379.744 301.659L444.501 273.64L563.808 333.704L564.029 333.265L444.621 273.147L444.517 273.096L444.413 273.142L379.548 301.206V301.209ZM379.831 313.592L380.016 314.05L445.896 287.268L566.348 344.68L566.562 344.236L446.013 286.778L445.914 286.73L445.815 286.77L379.836 313.592H379.831ZM380.123 326.418L380.298 326.878L447.339 301.374L568.978 356.04L569.179 355.59L447.449 300.884L447.355 300.841L447.261 300.876L380.125 326.415L380.123 326.418ZM380.425 339.716L448.762 315.511L448.94 315.516L570.022 366.576L569.832 367.028L448.836 316.003L380.59 340.178L380.428 339.713L380.425 339.716ZM380.74 353.522L450.322 330.699L450.487 330.704L555.7 372.107L555.522 372.565L450.391 331.192L380.892 353.987L380.74 353.519V353.522ZM381.065 367.877L451.941 346.492L452.096 346.497L539.47 378.375L539.303 378.838L452.002 346.987L381.202 368.349L381.063 367.877H381.065ZM381.403 382.829L381.533 383.302L453.686 363.436L520.85 385.977L521.004 385.512L453.77 362.948L453.628 362.943L381.403 382.829ZM381.756 398.426L455.388 380.103L455.518 380.108L499.884 393.673L499.741 394.143L455.442 380.598L381.876 398.904L381.759 398.426H381.756ZM382.125 414.73L382.231 415.21L457.274 398.533L475.452 403.536L475.582 403.063L457.347 398.043H457.23L382.13 414.73H382.125ZM382.511 431.803L420.129 424.451L420.223 424.933L382.605 432.286L382.511 431.803Z" fill="#0D6EFD" fill-opacity="0.5"/>
    <path d="M595.021 146.115L658.066 332.753L657.133 333.062L594.088 146.428L595.021 146.115Z" fill="url(#paint12_linear_9068_1922)"/>
    <path d="M621.65 251.378L626.446 266.048L626.073 266.17L621.276 251.5L621.65 251.378ZM614.675 230.049L619.31 244.221L618.936 244.343L614.302 230.171L614.675 230.049ZM607.912 209.368L612.401 223.098L612.028 223.22L607.539 209.49L607.912 209.368ZM601.349 189.301L605.702 202.607L605.328 202.729L600.976 189.423L601.349 189.301ZM594.975 169.807L599.202 182.739L598.829 182.861L594.601 169.929L594.975 169.807ZM612.526 298.63L629.612 277.006L628.499 273.607L628.873 273.485L630.016 276.984L630.049 277.083L629.983 277.166L612.831 298.874L612.523 298.63H612.526ZM626.271 345.006L621.571 329.248L621.947 329.136L626.647 344.891L626.271 345.003V345.006ZM619.261 321.507L614.716 306.268L615.092 306.156L619.637 321.395L619.261 321.507Z" fill="url(#paint13_linear_9068_1922)"/>
    <path d="M510.611 225.982L598.6 158.554L598.804 158.399L598.984 158.577L726.027 282.251L725.615 282.675L598.755 159.179L510.967 226.455L510.608 225.985L510.611 225.982ZM511.734 231.752L512.09 232.222L600.923 165.587L727.617 287.21L728.026 286.786L601.149 164.99L600.968 164.817L600.768 164.967L511.731 231.755L511.734 231.752ZM514.008 243.414L514.353 243.894L605.321 178.595L731.682 296.42L732.084 295.988L605.547 177.998L605.371 177.833L605.173 177.973L514.01 243.411L514.008 243.414ZM515.156 249.311L515.497 249.793L607.551 185.196L733.74 301.093L734.139 300.658L607.775 184.602L607.6 184.442L607.404 184.579L515.156 249.313V249.311ZM517.481 261.239L517.809 261.73L612.076 198.601L737.925 310.585L738.316 310.143L612.3 198.006L612.13 197.856L611.939 197.984L517.481 261.239ZM518.657 267.271L518.98 267.764L614.378 205.402L740.049 315.399L740.438 314.955L614.597 204.81L614.429 204.663L614.241 204.785L518.657 267.268V267.271ZM521.035 279.479L521.348 279.98L619.048 219.224L744.366 325.184L744.747 324.734L619.267 218.634L619.104 218.495L618.921 218.609L521.038 279.479H521.035ZM522.24 285.655L522.545 286.159L621.421 226.241L746.556 330.153L746.934 329.701L621.637 225.654L621.474 225.52L621.297 225.629L522.242 285.653L522.24 285.655ZM524.676 298.161L524.968 298.671L626.241 240.51L751.009 340.255L751.378 339.795L626.452 239.925L626.294 239.801L626.121 239.9L524.676 298.161ZM525.911 304.492L526.198 305.008L628.69 247.761L753.276 345.387L753.639 344.922L628.901 247.174L628.746 247.052L628.576 247.146L525.911 304.487V304.492ZM528.411 317.318L528.685 317.839L633.675 262.505L757.88 355.827L758.233 355.354L633.878 261.92L633.728 261.808L633.563 261.897L528.411 317.318ZM529.676 323.814L529.943 324.34L636.205 270.002L760.217 361.135L760.565 360.659L636.406 269.42L636.261 269.314L636.099 269.398L529.676 323.817V323.814ZM532.242 336.98L641.261 284.647L641.416 284.571L641.556 284.67L765.319 371.447L764.981 371.93L641.358 285.251L532.497 337.509L532.242 336.978V336.98ZM533.543 343.652L643.886 292.409L644.038 292.338L644.178 292.432L759.008 370.967L758.675 371.455L643.982 293.013L533.792 344.186L533.546 343.649L533.543 343.652ZM536.181 357.184L649.232 308.207L649.376 308.143L649.508 308.23L750.057 373.452L749.734 373.947L649.318 308.811L536.412 357.725L536.178 357.184H536.181ZM537.519 364.044L651.953 316.248L652.092 316.19L652.222 316.271L745.085 374.834L744.772 375.332L652.039 316.853L537.746 364.587L537.519 364.044Z" fill="url(#paint14_linear_9068_1922)"/>
    <path d="M539.857 378.35L508.09 214.891L508.032 214.599L508.266 214.414L594.205 145.761L594.548 145.484L594.858 145.797L722.231 273.167L722.332 273.317L766.327 373.139L765.425 373.535L721.469 273.8L594.474 146.806L509.112 214.995L540.822 378.164L539.857 378.35Z" fill="url(#paint15_linear_9068_1922)"/>
    <path d="M629.208 352.857L634.081 369.194L633.469 369.377L628.596 353.037L629.208 352.854V352.857ZM636.564 377.515L641.622 394.469L641.01 394.652L635.951 377.697L636.564 377.515ZM644.198 403.107L649.455 420.724L648.843 420.907L643.586 403.29L644.198 403.107ZM652.135 429.711L657.608 448.052L656.996 448.235L651.523 429.894L652.135 429.711ZM660.4 457.414L666.107 476.543L665.494 476.726L659.788 457.597L660.4 457.414ZM669.024 486.317L671.488 494.575H670.822L668.411 486.498L669.024 486.315V486.317ZM599.258 363.98L603.362 379.654L602.744 379.814L598.641 364.143L599.258 363.983V363.98ZM605.448 387.624L609.696 403.854L609.078 404.014L604.83 387.784L605.448 387.624ZM611.858 412.114L616.263 428.946L615.646 429.106L611.24 412.274L611.858 412.114ZM618.509 437.521L623.088 455.006L622.47 455.166L617.892 437.681L618.509 437.521ZM625.42 463.921L630.184 482.118L629.566 482.278L624.803 464.081L625.42 463.921ZM632.613 491.404L633.444 494.572H632.783L631.995 491.564L632.613 491.404ZM570.688 374.59L574.108 389.608L573.486 389.748L570.066 374.73L570.691 374.59H570.688ZM575.846 397.243L577.101 402.754L576.479 402.894L575.223 397.383L575.848 397.243H575.846ZM586.7 444.909L590.496 461.571L589.873 461.711L586.077 445.049L586.7 444.909ZM592.427 470.057L596.367 487.364L595.745 487.504L591.804 470.197L592.429 470.057H592.427ZM543.345 384.743L546.163 399.121L545.535 399.245L542.72 384.867L543.348 384.745L543.345 384.743ZM547.593 406.423L548.627 411.702L548 411.827L546.966 406.547L547.593 406.423ZM556.506 451.924L559.613 467.791L558.986 467.913L555.879 452.046L556.506 451.924ZM561.196 475.868L564.418 492.321L563.79 492.443L560.566 475.99L561.194 475.868H561.196ZM517.107 394.491L519.389 408.239L518.759 408.341L516.477 394.593L517.11 394.489L517.107 394.491ZM520.548 415.213L521.386 420.269L520.753 420.371L519.915 415.318L520.548 415.213ZM527.748 458.606L530.256 473.708L529.625 473.812L527.118 458.71L527.748 458.609V458.606ZM531.528 481.389L533.716 494.57H533.068L530.898 481.49L531.528 481.389ZM491.861 403.869L493.67 416.994L493.037 417.078L491.228 403.953L491.861 403.869ZM494.584 423.651L496.444 437.155L495.811 437.239L493.951 423.735L494.584 423.649V423.651ZM497.389 444.007L499.305 457.923L498.672 458.006L496.756 444.091L497.389 444.007ZM500.278 464.988L502.254 479.348L501.622 479.435L499.643 465.072L500.275 464.988H500.278ZM503.261 486.648L504.351 494.57H503.705L502.628 486.734L503.261 486.65V486.648ZM467.513 412.912L468.903 425.425L468.268 425.496L466.878 412.98L467.513 412.912ZM469.606 431.769L471.034 444.627L470.399 444.698L468.971 431.84L469.606 431.771V431.769ZM471.759 451.149L473.227 464.384L472.592 464.452L471.121 451.218L471.759 451.147V451.149ZM473.971 471.101L475.488 484.745L474.851 484.816L473.336 471.172L473.971 471.104V471.101ZM476.256 491.676L476.578 494.572H475.933L475.618 491.744L476.256 491.676ZM443.984 421.654L445.005 433.565L444.367 433.618L443.346 421.707L443.984 421.654ZM445.521 439.597L446.567 451.822L445.93 451.876L444.88 439.65L445.518 439.597H445.521ZM447.101 458.022L448.178 470.593L447.541 470.644L446.463 458.073L447.101 458.022ZM448.724 476.968L449.835 489.915L449.197 489.968L448.087 477.024L448.724 476.97V476.968ZM421.209 430.112L421.905 441.428L421.267 441.466L420.571 430.15L421.209 430.115V430.112ZM422.258 447.155L422.974 458.761L422.337 458.799L421.623 447.193L422.261 447.155H422.258ZM423.335 464.64L424.072 476.561L423.434 476.599L422.7 464.678L423.338 464.64H423.335ZM424.443 482.608L425.18 494.572H424.54L423.803 482.646L424.44 482.608H424.443ZM399.125 438.313L399.539 449.04L398.901 449.063L398.485 438.336L399.122 438.313H399.125ZM399.75 454.47L400.177 465.463L399.539 465.486L399.112 454.493L399.75 454.47ZM400.39 471.033L400.827 482.321L400.19 482.344L399.752 471.055L400.39 471.033ZM401.048 488.043L401.3 494.572H400.662L400.411 488.065L401.048 488.043ZM377.681 446.276L377.742 449.983L377.105 449.993L377.044 446.286L377.681 446.276ZM356.832 454.02L356.792 463.593H356.154L356.195 454.02H356.832ZM356.771 468.436L356.731 478.241H356.093L356.134 468.433H356.771V468.436ZM356.711 483.205L356.667 493.264H356.03L356.073 483.203H356.711V483.205ZM336.535 461.561L336.454 464.937L335.816 464.922L335.897 461.546L336.535 461.561ZM316.75 468.909L316.382 477.351L315.744 477.323L316.113 468.881L316.75 468.909ZM316.196 481.622L315.818 490.271L315.18 490.243L315.559 481.594L316.196 481.622ZM297.449 476.078L296.958 483.965L296.321 483.927L296.811 476.04L297.449 476.078ZM296.709 487.954L296.298 494.575H295.657L296.072 487.918L296.709 487.954ZM278.594 483.081L278.007 490.416L277.37 490.365L277.956 483.03L278.594 483.081ZM277.71 494.13L277.674 494.575H277.032L277.072 494.079L277.71 494.13ZM260.164 489.925L259.712 494.575H259.069L259.529 489.864L260.164 489.923V489.925Z" fill="url(#paint16_linear_9068_1922)"/>
    <path d="M283.838 494.578L329.04 479.819L329.192 480.286L285.423 494.578H283.838ZM354.683 471.447L368.037 467.087L368.189 467.555L354.835 471.915L354.683 471.447ZM397.4 457.501L655.802 373.137L655.954 373.605L397.552 457.969L397.4 457.501ZM664.354 370.345L669.656 368.615L669.753 368.582L669.844 368.63L715.566 392.355L715.34 392.792L669.709 369.115L664.504 370.815L664.351 370.347L664.354 370.345ZM398.65 491.12L398.762 491.6L673.261 427.587L673.15 427.107L398.65 491.12ZM682.466 424.934L688.257 423.583L688.401 423.595L718.9 435.539L718.722 435.997L688.295 424.081L682.578 425.412L682.466 424.932V424.934ZM628.593 494.578L691.981 485.685L692.05 486.173L632.135 494.578H628.593ZM702.149 484.26L708.498 483.368L708.59 483.373L724.408 487.316L724.291 487.794L708.519 483.861L702.218 484.745L702.149 484.257V484.26ZM254.14 494.578H255.545L660.982 343.281L725.623 380.647L725.869 380.223L661.129 342.799L661.028 342.74L660.919 342.781L254.14 494.578ZM324.761 494.578H326.585L328.765 493.968L328.633 493.493L324.761 494.578ZM354.612 486.224L368.166 482.43L368.296 482.906L354.744 486.699L354.614 486.224H354.612ZM398.022 474.074L398.154 474.549L517.857 441.048L517.727 440.575L398.025 474.077L398.022 474.074ZM588.288 420.824L588.42 421.296L664.43 400.023L664.298 399.55L588.288 420.824ZM673.221 397.053L678.764 395.5L678.932 395.513L719.299 413.964L719.096 414.408L678.81 395.996L673.35 397.523L673.218 397.05L673.221 397.053ZM474.512 494.58H477.19L682.459 456.251L682.372 455.766L474.515 494.58H474.512ZM692.098 453.952L698.153 452.821L698.272 452.829L714.065 457.923L713.915 458.39L698.18 453.317L692.187 454.437L692.098 453.954V453.952Z" fill="url(#paint17_linear_9068_1922)"/>
    <path d="M274.912 494.577L329.103 476.986L329.301 477.595L276.983 494.58H274.912V494.577ZM354.678 468.683L367.996 464.358L368.194 464.966L354.876 469.29L354.678 468.68V468.683ZM397.283 454.851L655.159 371.135L655.357 371.742L397.481 455.458L397.283 454.851ZM663.698 368.361L669 366.64L669.128 366.6L669.247 366.661L714.781 390.165L714.489 390.734L669.072 367.291L663.899 368.97L663.701 368.361H663.698ZM299.679 494.577H301.946L329.014 486.628L328.834 486.015L299.679 494.58V494.577ZM354.63 478.436L368.08 474.486L368.26 475.098L354.81 479.049L354.63 478.436ZM397.692 465.786L397.872 466.398L516.36 431.593L516.18 430.981L397.692 465.786ZM585.848 410.518L586.029 411.131L660.929 389.128L660.748 388.516L585.846 410.518H585.848ZM669.534 385.937L669.714 386.549L675.052 384.982L720.488 406.583L720.762 406.003L675.218 384.352L674.991 384.334L669.537 385.937H669.534ZM398.535 488.243L398.678 488.866L672.532 425.328L672.39 424.706L398.535 488.243ZM681.686 422.546L687.466 421.207L687.652 421.22L718.15 433.098L717.919 433.695L687.512 421.852L681.828 423.171L681.686 422.546ZM424.882 494.575H428.119L678.581 444.188L678.457 443.563L424.885 494.575H424.882ZM688.023 441.637L693.973 440.44L694.141 440.45L713.862 447.234L713.653 447.841L694.014 441.083L688.15 442.262L688.025 441.637H688.023ZM607.859 494.575L691.125 482.961L691.214 483.594L612.488 494.575H607.859ZM701.267 481.546L707.581 480.665L707.7 480.67L723.519 484.592L723.366 485.212L707.606 481.305L701.354 482.176L701.265 481.544L701.267 481.546ZM246.322 494.575H248.164L660.395 341.602L727.485 380.165L727.802 379.611L660.581 340.972L660.449 340.896L660.311 340.949L246.322 494.572V494.575ZM264.402 494.575H266.388L329.446 473.129L329.24 472.522L264.402 494.575ZM354.706 463.863L354.912 464.47L368.166 459.963L367.961 459.356L354.706 463.863ZM397.085 449.449L397.29 450.054L652.626 363.213L652.42 362.606L397.085 449.447V449.449ZM660.842 359.745L661.048 360.35L666.145 358.617L713.582 384.044L713.882 383.48L666.323 357.987L666.201 357.921L666.071 357.964L660.845 359.742L660.842 359.745ZM314.354 494.577H316.738L328.869 491.201L328.699 490.586L314.352 494.577H314.354ZM354.607 483.375L368.123 479.613L368.293 480.23L354.777 483.993L354.607 483.378V483.375ZM397.903 471.327L398.073 471.945L517.491 438.71L517.318 438.095L397.903 471.327ZM587.734 418.499L587.904 419.113L663.772 398L663.602 397.383L587.734 418.499ZM672.509 394.906L678.043 393.366L678.259 393.381L722.002 413.262L721.738 413.847L678.099 394.014L672.677 395.523L672.507 394.908L672.509 394.906ZM354.556 493.386L368.207 490.007L368.359 490.627L354.708 494.006L354.556 493.386ZM398.319 482.555L398.472 483.175L519.778 453.159L519.625 452.539L398.319 482.555ZM591.562 434.739L591.715 435.361L669.57 416.098L669.417 415.478L591.562 434.741V434.739ZM678.581 413.206L678.734 413.826L684.329 412.442L714.72 424.947L714.964 424.358L684.476 411.812L684.278 411.796L678.581 413.204V413.206ZM458.786 494.58H462.282L681.661 453.827L681.547 453.2L458.783 494.58H458.786ZM691.255 451.396L697.294 450.275L697.449 450.285L713.242 455.352L713.046 455.959L697.329 450.918L691.369 452.026L691.255 451.398V451.396ZM547.901 494.58L687.88 472.895L687.979 473.525L552.072 494.58H547.901ZM697.876 471.345L704.098 470.382L704.23 470.39L720.038 474.701L719.87 475.316L704.126 471.023L697.972 471.975L697.876 471.343V471.345Z" fill="url(#paint18_linear_9068_1922)"/>
    <path d="M733.534 378.676L657.545 333.558L241.037 494.577H237.768L657.387 332.356L657.654 332.252L657.9 332.397L734.134 377.657L733.534 378.676Z" fill="url(#paint19_linear_9068_1922)"/>
    <path d="M658.157 332.719L712.833 494.577H711.588L657.042 333.095L658.157 332.719Z" fill="url(#paint20_linear_9068_1922)"/>
    <path d="M514.689 421.814L583.41 400.234L583.915 400.076L584.037 400.592L593.23 439.637L593.341 440.115L592.864 440.229L520.469 457.427L519.953 457.549L519.87 457.026L514.354 422.363L514.288 421.944L514.694 421.817L514.689 421.814ZM583.196 401.331L515.388 422.625L520.754 456.345L592.155 439.383L583.199 401.331H583.196Z" fill="url(#paint21_linear_9068_1922)"/>
    <path d="M367.887 453.057L396.808 442.595L397.283 442.422L397.301 442.927L399.194 494.577H398.454L396.584 443.458L368.382 453.662L368.68 494.577H367.945L367.643 453.405L367.641 453.144L367.887 453.057Z" fill="url(#paint22_linear_9068_1922)"/>
    <path d="M329.383 466.985L354.713 457.823L355.209 457.643L355.206 458.169L354.993 494.577H354.256L354.467 458.694L329.868 467.595L329.037 494.577H328.3L329.139 467.323L329.149 467.071L329.383 466.985Z" fill="url(#paint23_linear_9068_1922)"/>
    <path d="M649.831 354.569L658.152 351.647L658.505 351.522L658.622 351.881L705.91 494.577H705.13L658.04 352.468L650.413 355.146L695.178 494.577H694.403L649.603 355.029L649.491 354.688L649.831 354.569Z" fill="url(#paint24_linear_9068_1922)"/>
    <path d="M652.069 344.406L651.695 344.528L654.555 353.275L654.93 353.152L652.069 344.406Z" fill="url(#paint25_linear_9068_1922)"/>
    <path d="M583.945 136.069L588.767 150.813L588.391 150.935L583.572 136.191L583.945 136.069Z" fill="url(#paint26_linear_9068_1922)"/>
    <path d="M589.921 138.788L582.476 144.839L582.724 145.144L590.17 139.094L589.921 138.788Z" fill="url(#paint27_linear_9068_1922)"/>
    </g>
    <defs>
    <filter id="filter0_d_9068_1922" x="0" y="0" width="840.999" height="554.582" filterUnits="userSpaceOnUse" color-interpolation-filters="sRGB">
    <feFlood flood-opacity="0" result="BackgroundImageFix"/>
    <feColorMatrix in="SourceAlpha" type="matrix" values="0 0 0 0 0 0 0 0 0 0 0 0 0 0 0 0 0 0 127 0" result="hardAlpha"/>
    <feOffset/>
    <feGaussianBlur stdDeviation="30"/>
    <feComposite in2="hardAlpha" operator="out"/>
    <feColorMatrix type="matrix" values="0 0 0 0 0.0470588 0 0 0 0 0.4 0 0 0 0 0.913725 0 0 0 0.6 0"/>
    <feBlend mode="normal" in2="BackgroundImageFix" result="effect1_dropShadow_9068_1922"/>
    <feBlend mode="normal" in="SourceGraphic" in2="effect1_dropShadow_9068_1922" result="shape"/>
    </filter>
    <linearGradient id="paint0_linear_9068_1922" x1="192.415" y1="371.862" x2="128.45" y2="467.017" gradientUnits="userSpaceOnUse">
    <stop stop-color="#0D6EFD"/>
    <stop offset="1" stop-color="#0D6EFD" stop-opacity="0"/>
    </linearGradient>
    <linearGradient id="paint1_linear_9068_1922" x1="334.613" y1="150.049" x2="183.227" y2="233.884" gradientUnits="userSpaceOnUse">
    <stop stop-color="#0D6EFD"/>
    <stop offset="1" stop-color="#0D6EFD" stop-opacity="0"/>
    </linearGradient>
    <linearGradient id="paint2_linear_9068_1922" x1="297.063" y1="157.266" x2="188.927" y2="399.394" gradientUnits="userSpaceOnUse">
    <stop stop-color="#0D6EFD"/>
    <stop offset="1" stop-color="#0D6EFD" stop-opacity="0"/>
    </linearGradient>
    <linearGradient id="paint3_linear_9068_1922" x1="249.736" y1="319.922" x2="208.718" y2="507.587" gradientUnits="userSpaceOnUse">
    <stop stop-color="#0D6EFD"/>
    <stop offset="1" stop-color="#0D6EFD" stop-opacity="0"/>
    </linearGradient>
    <linearGradient id="paint4_linear_9068_1922" x1="295.006" y1="149.501" x2="180.403" y2="403.706" gradientUnits="userSpaceOnUse">
    <stop stop-color="#0D6EFD"/>
    <stop offset="1" stop-color="#0D6EFD" stop-opacity="0"/>
    </linearGradient>
    <linearGradient id="paint5_linear_9068_1922" x1="166.271" y1="371.55" x2="146.027" y2="381.083" gradientUnits="userSpaceOnUse">
    <stop stop-color="#0D6EFD"/>
    <stop offset="1" stop-color="#0D6EFD" stop-opacity="0"/>
    </linearGradient>
    <linearGradient id="paint6_linear_9068_1922" x1="137.498" y1="406.693" x2="94.3788" y2="463.414" gradientUnits="userSpaceOnUse">
    <stop stop-color="#0D6EFD"/>
    <stop offset="1" stop-color="#0D6EFD" stop-opacity="0"/>
    </linearGradient>
    <linearGradient id="paint7_linear_9068_1922" x1="91.8515" y1="446.653" x2="75.2995" y2="494.93" gradientUnits="userSpaceOnUse">
    <stop stop-color="#0D6EFD"/>
    <stop offset="1" stop-color="#0D6EFD" stop-opacity="0"/>
    </linearGradient>
    <linearGradient id="paint8_linear_9068_1922" x1="706.204" y1="375.427" x2="783.67" y2="433.762" gradientUnits="userSpaceOnUse">
    <stop stop-color="#0D6EFD"/>
    <stop offset="0.942708" stop-color="#0D6EFD" stop-opacity="0"/>
    <stop offset="1" stop-color="#0D6EFD" stop-opacity="0"/>
    </linearGradient>
    <linearGradient id="paint9_linear_9068_1922" x1="706.902" y1="390.738" x2="776.311" y2="450.151" gradientUnits="userSpaceOnUse">
    <stop stop-color="#0D6EFD"/>
    <stop offset="0.942708" stop-color="#0D6EFD" stop-opacity="0"/>
    <stop offset="1" stop-color="#0D6EFD" stop-opacity="0"/>
    </linearGradient>
    <linearGradient id="paint10_linear_9068_1922" x1="698.811" y1="375.023" x2="778.209" y2="440.5" gradientUnits="userSpaceOnUse">
    <stop stop-color="#0D6EFD"/>
    <stop offset="0.942708" stop-color="#0D6EFD" stop-opacity="0"/>
    <stop offset="1" stop-color="#0D6EFD" stop-opacity="0"/>
    </linearGradient>
    <linearGradient id="paint11_linear_9068_1922" x1="704.813" y1="391.02" x2="774.326" y2="452.367" gradientUnits="userSpaceOnUse">
    <stop stop-color="#0D6EFD"/>
    <stop offset="0.942708" stop-color="#0D6EFD" stop-opacity="0"/>
    <stop offset="1" stop-color="#0D6EFD" stop-opacity="0"/>
    </linearGradient>
    <linearGradient id="paint12_linear_9068_1922" x1="626.077" y1="146.115" x2="689.685" y2="310.536" gradientUnits="userSpaceOnUse">
    <stop stop-color="#0D6EFD"/>
    <stop offset="1" stop-color="#0D6EFD" stop-opacity="0"/>
    </linearGradient>
    <linearGradient id="paint13_linear_9068_1922" x1="612.325" y1="169.807" x2="693.49" y2="293.847" gradientUnits="userSpaceOnUse">
    <stop stop-color="#0D6EFD"/>
    <stop offset="1" stop-color="#0D6EFD" stop-opacity="0"/>
    </linearGradient>
    <linearGradient id="paint14_linear_9068_1922" x1="637.964" y1="158.399" x2="662.386" y2="374.993" gradientUnits="userSpaceOnUse">
    <stop stop-color="#0D6EFD"/>
    <stop offset="1" stop-color="#0D6EFD" stop-opacity="0"/>
    </linearGradient>
    <linearGradient id="paint15_linear_9068_1922" x1="637.18" y1="145.484" x2="664.889" y2="377.635" gradientUnits="userSpaceOnUse">
    <stop stop-color="#0D6EFD"/>
    <stop offset="1" stop-color="#0D6EFD" stop-opacity="0"/>
    </linearGradient>
    <linearGradient id="paint16_linear_9068_1922" x1="465.278" y1="352.854" x2="471.784" y2="495.856" gradientUnits="userSpaceOnUse">
    <stop stop-color="#0D6EFD"/>
    <stop offset="1" stop-color="#0D6EFD" stop-opacity="0"/>
    </linearGradient>
    <linearGradient id="paint17_linear_9068_1922" x1="490.004" y1="342.74" x2="496.535" y2="495.992" gradientUnits="userSpaceOnUse">
    <stop stop-color="#0D6EFD"/>
    <stop offset="1" stop-color="#0D6EFD" stop-opacity="0"/>
    </linearGradient>
    <linearGradient id="paint18_linear_9068_1922" x1="487.062" y1="340.896" x2="493.617" y2="496.014" gradientUnits="userSpaceOnUse">
    <stop stop-color="#0D6EFD"/>
    <stop offset="1" stop-color="#0D6EFD" stop-opacity="0"/>
    </linearGradient>
    <linearGradient id="paint19_linear_9068_1922" x1="485.951" y1="332.252" x2="493.044" y2="496.077" gradientUnits="userSpaceOnUse">
    <stop stop-color="#0D6EFD"/>
    <stop offset="1" stop-color="#0D6EFD" stop-opacity="0"/>
    </linearGradient>
    <linearGradient id="paint20_linear_9068_1922" x1="684.937" y1="332.719" x2="739.716" y2="475.339" gradientUnits="userSpaceOnUse">
    <stop stop-color="#0D6EFD"/>
    <stop offset="1" stop-color="#0D6EFD" stop-opacity="0"/>
    </linearGradient>
    <linearGradient id="paint21_linear_9068_1922" x1="553.815" y1="400.076" x2="559.357" y2="457.656" gradientUnits="userSpaceOnUse">
    <stop stop-color="#0D6EFD"/>
    <stop offset="1" stop-color="#0D6EFD" stop-opacity="0"/>
    </linearGradient>
    <linearGradient id="paint22_linear_9068_1922" x1="383.417" y1="442.422" x2="394.43" y2="492.748" gradientUnits="userSpaceOnUse">
    <stop stop-color="#0D6EFD"/>
    <stop offset="1" stop-color="#0D6EFD" stop-opacity="0"/>
    </linearGradient>
    <linearGradient id="paint23_linear_9068_1922" x1="341.755" y1="457.643" x2="348.324" y2="493.794" gradientUnits="userSpaceOnUse">
    <stop stop-color="#0D6EFD"/>
    <stop offset="1" stop-color="#0D6EFD" stop-opacity="0"/>
    </linearGradient>
    <linearGradient id="paint24_linear_9068_1922" x1="677.7" y1="351.522" x2="721.339" y2="481.52" gradientUnits="userSpaceOnUse">
    <stop stop-color="#0D6EFD"/>
    <stop offset="1" stop-color="#0D6EFD" stop-opacity="0"/>
    </linearGradient>
    <linearGradient id="paint25_linear_9068_1922" x1="651.882" y1="344.467" x2="654.744" y2="344.457" gradientUnits="userSpaceOnUse">
    <stop stop-color="#0D6EFD"/>
    <stop offset="1" stop-color="#0D6EFD" stop-opacity="0"/>
    </linearGradient>
    <linearGradient id="paint26_linear_9068_1922" x1="586.17" y1="136.069" x2="591.149" y2="149.214" gradientUnits="userSpaceOnUse">
    <stop stop-color="#0D6EFD"/>
    <stop offset="1" stop-color="#0D6EFD" stop-opacity="0"/>
    </linearGradient>
    <linearGradient id="paint27_linear_9068_1922" x1="586.199" y1="141.814" x2="586.451" y2="142.121" gradientUnits="userSpaceOnUse">
    <stop stop-color="#0D6EFD"/>
    <stop offset="1" stop-color="#0D6EFD" stop-opacity="0"/>
    </linearGradient>
    </defs>
    </svg>
    