<svg width="125" height="124" viewBox="0 0 125 124" fill="none" xmlns="http://www.w3.org/2000/svg">
    <path fill-rule="evenodd" clip-rule="evenodd" d="M113.954 85.7448C113.954 98.3517 103.735 108.572 91.1276 108.572C78.5207 108.572 68.3008 98.3517 68.3008 85.7448C68.3008 73.1379 78.5207 62.918 91.1276 62.918C103.735 62.918 113.954 73.1379 113.954 85.7448ZM85.501 75.8986L91.1234 81.3246L96.7458 75.8986C97.8956 74.789 99.7175 74.789 100.867 75.8986C102.003 76.9946 102.003 78.814 100.867 79.91L95.1416 85.4356L101.003 91.443C102.062 92.5285 102.003 94.2778 100.873 95.2894C99.8328 96.2207 98.25 96.191 97.2453 95.2214L91.1234 89.3134L85.0015 95.2214C83.9968 96.191 82.4141 96.2207 81.3737 95.2894C80.2438 94.2778 80.1847 92.5285 81.2438 91.443L87.1053 85.4356L81.3796 79.91C80.2439 78.814 80.2439 76.9946 81.3796 75.8986C82.5294 74.789 84.3513 74.789 85.501 75.8986Z" fill="#0D6EFD"/>
    <path fill-rule="evenodd" clip-rule="evenodd" d="M113.954 85.7448C113.954 98.3517 103.735 108.572 91.1276 108.572C78.5207 108.572 68.3008 98.3517 68.3008 85.7448C68.3008 73.1379 78.5207 62.918 91.1276 62.918C103.735 62.918 113.954 73.1379 113.954 85.7448ZM85.501 75.8986L91.1234 81.3246L96.7458 75.8986C97.8956 74.789 99.7175 74.789 100.867 75.8986C102.003 76.9946 102.003 78.814 100.867 79.91L95.1416 85.4356L101.003 91.443C102.062 92.5285 102.003 94.2778 100.873 95.2894C99.8328 96.2207 98.25 96.191 97.2453 95.2214L91.1234 89.3134L85.0015 95.2214C83.9968 96.191 82.4141 96.2207 81.3737 95.2894C80.2438 94.2778 80.1847 92.5285 81.2438 91.443L87.1053 85.4356L81.3796 79.91C80.2439 78.814 80.2439 76.9946 81.3796 75.8986C82.5294 74.789 84.3513 74.789 85.501 75.8986Z" fill="url(#paint0_radial_2042_25303)" fill-opacity="0.5"/>
    <path d="M69.8826 100.436C71.2008 102.339 72.7681 104.057 74.5374 105.542C70.2132 106.852 66.5551 107.368 61.7834 107.399C56.2943 107.408 51.9739 106.716 46.6757 104.937C43.866 103.987 41.2845 102.849 38.8494 101.473C36.3427 98.4844 38.8481 94.9739 42.3583 96.4612C50.8437 101.048 60.6388 102.375 69.8826 100.436Z" fill="#0D6EFD"/>
    <path d="M69.8826 100.436C71.2008 102.339 72.7681 104.057 74.5374 105.542C70.2132 106.852 66.5551 107.368 61.7834 107.399C56.2943 107.408 51.9739 106.716 46.6757 104.937C43.866 103.987 41.2845 102.849 38.8494 101.473C36.3427 98.4844 38.8481 94.9739 42.3583 96.4612C50.8437 101.048 60.6388 102.375 69.8826 100.436Z" fill="url(#paint1_radial_2042_25303)" fill-opacity="0.5"/>
    <path d="M29.2676 89.6331C37.5986 88.1366 51.6168 85.6081 65.4355 83.1134C65.8651 78.8751 67.3194 74.9397 69.5467 71.5587C68.8672 71.8829 68.1253 72.1416 67.3396 72.3292L66.2437 72.5903V73.7823C66.2437 75.0878 66.1067 75.417 65.4218 75.837C64.9361 76.1322 63.8153 76.1322 63.3297 75.837C62.6447 75.417 62.5078 75.0878 62.5078 73.7823V72.5903L61.4243 72.3292C57.6635 71.4438 55.0359 68.8441 55.0359 66.0174C55.0359 64.7346 55.6585 64.0876 56.9038 64.0876C58.0246 64.0876 58.6722 64.6779 58.8341 65.8131C58.8839 66.165 59.0209 66.6418 59.1454 66.8575C59.5937 67.6635 61.0009 68.5944 62.1715 68.8441L62.5078 68.9236L62.5078 62.3734L61.4243 62.1123C58.448 61.4198 56.0197 59.5353 55.2849 57.3444C54.8117 55.9708 54.986 54.2112 55.7208 52.883C56.7046 51.1347 59.0707 49.5681 61.5364 49.0686L62.5078 48.8643L62.5078 47.695C62.5078 46.1511 62.707 45.7879 63.7157 45.4473C64.5501 45.1749 65.5713 45.47 65.9947 46.1171C66.2064 46.4122 66.2437 46.696 66.2437 47.695C66.2437 48.7962 66.2686 48.9211 66.4679 48.9211C66.9286 48.9211 68.2113 49.2843 69.0955 49.6703C72.0967 50.9531 73.8277 53.1781 73.6907 55.5621C73.6534 56.2659 73.6036 56.4476 73.342 56.6973C72.0967 57.912 70.1416 57.3217 69.9174 55.6529C69.7306 54.2566 68.7842 53.303 66.966 52.69L66.2437 52.4402L66.2437 55.7891C66.2437 58.9337 66.2562 59.138 66.4679 59.138C66.9286 59.138 68.2113 59.5013 69.0955 59.8873C72.1216 61.1814 73.7156 63.2475 73.7156 65.8471C73.7156 66.1545 73.6954 66.4487 73.6537 66.7322C78.2527 62.5036 84.3896 59.9219 91.1296 59.9219C96.8903 59.9219 102.21 61.8079 106.506 64.9962C106.589 56.0554 106.703 43.5726 106.765 35.8698C106.785 33.3696 104.557 31.4704 102.096 31.9116C84.4053 35.0826 40.0221 43.0881 27.6087 45.3276C25.7011 45.6717 24.3415 47.313 24.3516 49.2514C24.3556 50.0149 24.3603 50.862 24.3656 51.7782L27.089 51.3957C30.1903 50.9601 33.0576 53.1211 33.4932 56.2225C33.7954 58.374 32.8478 60.4129 31.2036 61.6054L36.4796 60.8644C39.581 60.4288 42.4482 62.5899 42.8838 65.6912C43.3194 68.7926 41.1584 71.6599 38.057 72.0955L30.1331 73.2084C32.0442 73.9008 33.5187 75.6007 33.8211 77.7538C34.2567 80.8552 32.0956 83.7225 28.9943 84.1581L24.5875 84.777L24.5943 85.7229C24.6121 88.2018 26.8277 90.0714 29.2676 89.6331Z" fill="#0D6EFD"/>
    <path d="M29.2676 89.6331C37.5986 88.1366 51.6168 85.6081 65.4355 83.1134C65.8651 78.8751 67.3194 74.9397 69.5467 71.5587C68.8672 71.8829 68.1253 72.1416 67.3396 72.3292L66.2437 72.5903V73.7823C66.2437 75.0878 66.1067 75.417 65.4218 75.837C64.9361 76.1322 63.8153 76.1322 63.3297 75.837C62.6447 75.417 62.5078 75.0878 62.5078 73.7823V72.5903L61.4243 72.3292C57.6635 71.4438 55.0359 68.8441 55.0359 66.0174C55.0359 64.7346 55.6585 64.0876 56.9038 64.0876C58.0246 64.0876 58.6722 64.6779 58.8341 65.8131C58.8839 66.165 59.0209 66.6418 59.1454 66.8575C59.5937 67.6635 61.0009 68.5944 62.1715 68.8441L62.5078 68.9236L62.5078 62.3734L61.4243 62.1123C58.448 61.4198 56.0197 59.5353 55.2849 57.3444C54.8117 55.9708 54.986 54.2112 55.7208 52.883C56.7046 51.1347 59.0707 49.5681 61.5364 49.0686L62.5078 48.8643L62.5078 47.695C62.5078 46.1511 62.707 45.7879 63.7157 45.4473C64.5501 45.1749 65.5713 45.47 65.9947 46.1171C66.2064 46.4122 66.2437 46.696 66.2437 47.695C66.2437 48.7962 66.2686 48.9211 66.4679 48.9211C66.9286 48.9211 68.2113 49.2843 69.0955 49.6703C72.0967 50.9531 73.8277 53.1781 73.6907 55.5621C73.6534 56.2659 73.6036 56.4476 73.342 56.6973C72.0967 57.912 70.1416 57.3217 69.9174 55.6529C69.7306 54.2566 68.7842 53.303 66.966 52.69L66.2437 52.4402L66.2437 55.7891C66.2437 58.9337 66.2562 59.138 66.4679 59.138C66.9286 59.138 68.2113 59.5013 69.0955 59.8873C72.1216 61.1814 73.7156 63.2475 73.7156 65.8471C73.7156 66.1545 73.6954 66.4487 73.6537 66.7322C78.2527 62.5036 84.3896 59.9219 91.1296 59.9219C96.8903 59.9219 102.21 61.8079 106.506 64.9962C106.589 56.0554 106.703 43.5726 106.765 35.8698C106.785 33.3696 104.557 31.4704 102.096 31.9116C84.4053 35.0826 40.0221 43.0881 27.6087 45.3276C25.7011 45.6717 24.3415 47.313 24.3516 49.2514C24.3556 50.0149 24.3603 50.862 24.3656 51.7782L27.089 51.3957C30.1903 50.9601 33.0576 53.1211 33.4932 56.2225C33.7954 58.374 32.8478 60.4129 31.2036 61.6054L36.4796 60.8644C39.581 60.4288 42.4482 62.5899 42.8838 65.6912C43.3194 68.7926 41.1584 71.6599 38.057 72.0955L30.1331 73.2084C32.0442 73.9008 33.5187 75.6007 33.8211 77.7538C34.2567 80.8552 32.0956 83.7225 28.9943 84.1581L24.5875 84.777L24.5943 85.7229C24.6121 88.2018 26.8277 90.0714 29.2676 89.6331Z" fill="url(#paint2_radial_2042_25303)" fill-opacity="0.5"/>
    <path d="M27.9156 19.8447C27.7515 20.9451 27.7878 30.5477 27.9674 31.387C28.0365 31.731 28.3672 32.2266 28.8491 32.7086C29.3311 33.1905 29.8266 33.5211 30.1706 33.5902C31.01 33.7698 40.6126 33.8061 41.713 33.642C42.4833 33.5327 42.7858 33.3679 43.4181 32.7356C44.7513 31.4024 44.7499 29.9166 43.428 28.5947C42.6018 27.7685 42.189 27.6306 40.4968 27.5602C39.7264 27.532 39.5612 27.4768 39.8225 27.3257C40.015 27.2159 40.6612 26.845 41.2525 26.5016C45.5699 23.9192 51.525 21.9298 56.6696 21.3567C67.0966 20.1831 77.3758 22.9852 85.7597 29.28C85.876 29.3667 85.9971 29.4599 86.1225 29.5591L93.5718 28.2135C91.6485 26.3531 89.5936 24.5127 88.4923 23.7383C77.9475 16.2997 65.4396 13.4956 52.8951 15.7678C47.4068 16.7671 41.0808 19.2651 36.5436 22.2601C35.595 22.9058 34.6325 23.5377 34.4125 23.6751C34.0276 23.9224 34.0137 23.8261 33.9845 21.9826C33.9546 19.3412 33.8718 19.0384 32.963 18.1296C31.6411 16.8077 30.1553 16.8064 28.8221 18.1396C28.1898 18.7719 28.025 19.0744 27.9156 19.8447Z" fill="#0D6EFD"/>
    <path d="M27.9156 19.8447C27.7515 20.9451 27.7878 30.5477 27.9674 31.387C28.0365 31.731 28.3672 32.2266 28.8491 32.7086C29.3311 33.1905 29.8266 33.5211 30.1706 33.5902C31.01 33.7698 40.6126 33.8061 41.713 33.642C42.4833 33.5327 42.7858 33.3679 43.4181 32.7356C44.7513 31.4024 44.7499 29.9166 43.428 28.5947C42.6018 27.7685 42.189 27.6306 40.4968 27.5602C39.7264 27.532 39.5612 27.4768 39.8225 27.3257C40.015 27.2159 40.6612 26.845 41.2525 26.5016C45.5699 23.9192 51.525 21.9298 56.6696 21.3567C67.0966 20.1831 77.3758 22.9852 85.7597 29.28C85.876 29.3667 85.9971 29.4599 86.1225 29.5591L93.5718 28.2135C91.6485 26.3531 89.5936 24.5127 88.4923 23.7383C77.9475 16.2997 65.4396 13.4956 52.8951 15.7678C47.4068 16.7671 41.0808 19.2651 36.5436 22.2601C35.595 22.9058 34.6325 23.5377 34.4125 23.6751C34.0276 23.9224 34.0137 23.8261 33.9845 21.9826C33.9546 19.3412 33.8718 19.0384 32.963 18.1296C31.6411 16.8077 30.1553 16.8064 28.8221 18.1396C28.1898 18.7719 28.025 19.0744 27.9156 19.8447Z" fill="url(#paint3_radial_2042_25303)" fill-opacity="0.5"/>
    <path d="M68.1242 63.4064C69.6434 64.2692 70.2536 65.6882 69.6185 66.8348C69.1578 67.6635 67.763 68.583 66.5924 68.8441L66.2437 68.9236V62.6572L66.966 62.9069C67.3521 63.0318 67.8751 63.2588 68.1242 63.4064Z" fill="#0D6EFD"/>
    <path d="M68.1242 63.4064C69.6434 64.2692 70.2536 65.6882 69.6185 66.8348C69.1578 67.6635 67.763 68.583 66.5924 68.8441L66.2437 68.9236V62.6572L66.966 62.9069C67.3521 63.0318 67.8751 63.2588 68.1242 63.4064Z" fill="url(#paint4_radial_2042_25303)" fill-opacity="0.5"/>
    <path d="M62.5078 55.5734V58.7066L62.1715 58.6272C60.9885 58.3661 59.5937 57.4465 59.1329 56.6178C58.6224 55.7097 58.9088 54.5858 59.8552 53.7457C60.3907 53.2689 61.5987 52.6673 62.4829 52.4516C62.4953 52.4402 62.5078 53.8479 62.5078 55.5734Z" fill="#0D6EFD"/>
    <path d="M62.5078 55.5734V58.7066L62.1715 58.6272C60.9885 58.3661 59.5937 57.4465 59.1329 56.6178C58.6224 55.7097 58.9088 54.5858 59.8552 53.7457C60.3907 53.2689 61.5987 52.6673 62.4829 52.4516C62.4953 52.4402 62.5078 53.8479 62.5078 55.5734Z" fill="url(#paint5_radial_2042_25303)" fill-opacity="0.5"/>
    <path d="M24.3837 54.8051L27.5062 54.3665C28.9668 54.1614 30.3172 55.1791 30.5223 56.6397C30.5683 56.9667 30.5529 57.2881 30.485 57.5924C30.2502 58.6483 29.383 59.4982 28.2487 59.6575L9.06 62.3526C7.59938 62.5578 6.24901 61.54 6.04387 60.0794C5.83872 58.6188 6.85649 57.2684 8.31711 57.0632L24.3837 54.8067L24.3837 54.8051Z" fill="#0D6EFD"/>
    <path d="M24.3837 54.8051L27.5062 54.3665C28.9668 54.1614 30.3172 55.1791 30.5223 56.6397C30.5683 56.9667 30.5529 57.2881 30.485 57.5924C30.2502 58.6483 29.383 59.4982 28.2487 59.6575L9.06 62.3526C7.59938 62.5578 6.24901 61.54 6.04387 60.0794C5.83872 58.6188 6.85649 57.2684 8.31711 57.0632L24.3837 54.8067L24.3837 54.8051Z" fill="url(#paint6_radial_2042_25303)" fill-opacity="0.5"/>
    <path d="M36.8968 63.8352L24.4537 65.5829L24.4537 65.5845L17.7077 66.532C16.2471 66.7371 15.2293 68.0875 15.4345 69.5481C15.6396 71.0087 16.99 72.0265 18.4506 71.8214L37.6394 69.1263C38.7736 68.967 39.6408 68.117 39.8757 67.0611C39.9435 66.7568 39.9589 66.4354 39.913 66.1085C39.7078 64.6479 38.3575 63.6301 36.8968 63.8352Z" fill="#0D6EFD"/>
    <path d="M36.8968 63.8352L24.4537 65.5829L24.4537 65.5845L17.7077 66.532C16.2471 66.7371 15.2293 68.0875 15.4345 69.5481C15.6396 71.0087 16.99 72.0265 18.4506 71.8214L37.6394 69.1263C38.7736 68.967 39.6408 68.117 39.8757 67.0611C39.9435 66.7568 39.9589 66.4354 39.913 66.1085C39.7078 64.6479 38.3575 63.6301 36.8968 63.8352Z" fill="url(#paint7_radial_2042_25303)" fill-opacity="0.5"/>
    <path d="M24.5279 76.3622L27.8341 75.8979C29.2947 75.6927 30.6451 76.7105 30.8502 78.1711C30.8962 78.498 30.8808 78.8195 30.8129 79.1238C30.5781 80.1797 29.7109 81.0296 28.5766 81.1889L14.3393 83.1886C12.8787 83.3937 11.5283 82.3759 11.3232 80.9153C11.118 79.4547 12.1358 78.1043 13.5964 77.8992L24.528 76.3638L24.5279 76.3622Z" fill="#0D6EFD"/>
    <path d="M24.5279 76.3622L27.8341 75.8979C29.2947 75.6927 30.6451 76.7105 30.8502 78.1711C30.8962 78.498 30.8808 78.8195 30.8129 79.1238C30.5781 80.1797 29.7109 81.0296 28.5766 81.1889L14.3393 83.1886C12.8787 83.3937 11.5283 82.3759 11.3232 80.9153C11.118 79.4547 12.1358 78.1043 13.5964 77.8992L24.528 76.3638L24.5279 76.3622Z" fill="url(#paint8_radial_2042_25303)" fill-opacity="0.5"/>
    <circle cx="91.2676" cy="85.25" r="22.25" fill="#0D6EFD"/>
    <path d="M94.4336 81.6833L87.9011 87.9877L84.3096 84.5217L82.477 82.7531C81.5039 81.814 79.962 81.814 78.989 82.7531C78.0441 83.665 78.0441 85.1788 78.989 86.0907L82.5804 89.5566L87.9011 94.6914L96.1776 86.704L102.71 80.3996C103.663 79.4799 103.663 77.9532 102.71 77.0335C101.745 76.1024 100.217 76.1024 99.2518 77.0335L94.4336 81.6833Z" fill="white"/>
    <defs>
    <radialGradient id="paint0_radial_2042_25303" cx="0" cy="0" r="1" gradientUnits="userSpaceOnUse" gradientTransform="translate(29.5 101) rotate(-42.0454) scale(109.747 126.596)">
    <stop stop-color="#01294C"/>
    <stop offset="1" stop-color="white" stop-opacity="0"/>
    </radialGradient>
    <radialGradient id="paint1_radial_2042_25303" cx="0" cy="0" r="1" gradientUnits="userSpaceOnUse" gradientTransform="translate(29.5 101) rotate(-42.0454) scale(109.747 126.596)">
    <stop stop-color="#01294C"/>
    <stop offset="1" stop-color="white" stop-opacity="0"/>
    </radialGradient>
    <radialGradient id="paint2_radial_2042_25303" cx="0" cy="0" r="1" gradientUnits="userSpaceOnUse" gradientTransform="translate(29.5 101) rotate(-42.0454) scale(109.747 126.596)">
    <stop stop-color="#01294C"/>
    <stop offset="1" stop-color="white" stop-opacity="0"/>
    </radialGradient>
    <radialGradient id="paint3_radial_2042_25303" cx="0" cy="0" r="1" gradientUnits="userSpaceOnUse" gradientTransform="translate(29.5 101) rotate(-42.0454) scale(109.747 126.596)">
    <stop stop-color="#01294C"/>
    <stop offset="1" stop-color="white" stop-opacity="0"/>
    </radialGradient>
    <radialGradient id="paint4_radial_2042_25303" cx="0" cy="0" r="1" gradientUnits="userSpaceOnUse" gradientTransform="translate(29.5 101) rotate(-42.0454) scale(109.747 126.596)">
    <stop stop-color="#01294C"/>
    <stop offset="1" stop-color="white" stop-opacity="0"/>
    </radialGradient>
    <radialGradient id="paint5_radial_2042_25303" cx="0" cy="0" r="1" gradientUnits="userSpaceOnUse" gradientTransform="translate(29.5 101) rotate(-42.0454) scale(109.747 126.596)">
    <stop stop-color="#01294C"/>
    <stop offset="1" stop-color="white" stop-opacity="0"/>
    </radialGradient>
    <radialGradient id="paint6_radial_2042_25303" cx="0" cy="0" r="1" gradientUnits="userSpaceOnUse" gradientTransform="translate(29.5 101) rotate(-42.0454) scale(109.747 126.596)">
    <stop stop-color="#01294C"/>
    <stop offset="1" stop-color="white" stop-opacity="0"/>
    </radialGradient>
    <radialGradient id="paint7_radial_2042_25303" cx="0" cy="0" r="1" gradientUnits="userSpaceOnUse" gradientTransform="translate(29.5 101) rotate(-42.0454) scale(109.747 126.596)">
    <stop stop-color="#01294C"/>
    <stop offset="1" stop-color="white" stop-opacity="0"/>
    </radialGradient>
    <radialGradient id="paint8_radial_2042_25303" cx="0" cy="0" r="1" gradientUnits="userSpaceOnUse" gradientTransform="translate(29.5 101) rotate(-42.0454) scale(109.747 126.596)">
    <stop stop-color="#01294C"/>
    <stop offset="1" stop-color="white" stop-opacity="0"/>
    </radialGradient>
    </defs>
    </svg>
    