<svg width="124" height="124" viewBox="0 0 124 124" fill="none" xmlns="http://www.w3.org/2000/svg">
    <path fill-rule="evenodd" clip-rule="evenodd" d="M115.937 85.7448C115.937 98.3517 105.717 108.572 93.11 108.572C80.5031 108.572 70.2832 98.3517 70.2832 85.7448C70.2832 73.1379 80.5031 62.918 93.11 62.918C105.717 62.918 115.937 73.1379 115.937 85.7448ZM87.4834 75.8986L93.1058 81.3246L98.7283 75.8986C99.878 74.789 101.7 74.789 102.85 75.8986C103.985 76.9946 103.985 78.814 102.85 79.91L97.124 85.4356L102.985 91.443C104.045 92.5285 103.986 94.2778 102.856 95.2894C101.815 96.2207 100.232 96.191 99.2277 95.2214L93.1058 89.3134L86.984 95.2214C85.9792 96.191 84.3965 96.2207 83.3562 95.2894C82.2262 94.2778 82.1671 92.5285 83.2262 91.443L89.0877 85.4356L83.362 79.91C82.2264 78.814 82.2264 76.9946 83.362 75.8986C84.5118 74.789 86.3337 74.789 87.4834 75.8986Z" fill="#CCD2D7"/>
    <path d="M71.865 100.436C73.1832 102.339 74.7505 104.057 76.5198 105.542C72.1957 106.852 68.5375 107.368 63.7658 107.399C58.2767 107.408 53.9563 106.716 48.6581 104.937C45.8484 103.987 43.2669 102.849 40.8318 101.473C38.3251 98.4844 40.8305 94.9739 44.3408 96.4612C52.8261 101.048 62.6212 102.375 71.865 100.436Z" fill="#CCD2D7"/>
    <path d="M31.25 89.6331C39.581 88.1366 53.5992 85.6081 67.418 83.1134C67.8475 78.8751 69.3018 74.9397 71.5292 71.5587C70.8497 71.8829 70.1077 72.1416 69.322 72.3292L68.2261 72.5903V73.7823C68.2261 75.0878 68.0892 75.417 67.4042 75.837C66.9186 76.1322 65.7978 76.1322 65.3121 75.837C64.6272 75.417 64.4902 75.0878 64.4902 73.7823V72.5903L63.4068 72.3292C59.6459 71.4438 57.0183 68.8441 57.0183 66.0174C57.0183 64.7346 57.6409 64.0876 58.8862 64.0876C60.007 64.0876 60.6546 64.6779 60.8165 65.8131C60.8663 66.165 61.0033 66.6418 61.1278 66.8575C61.5761 67.6635 62.9834 68.5944 64.154 68.8441L64.4902 68.9236L64.4902 62.3734L63.4068 62.1123C60.4304 61.4198 58.0021 59.5353 57.2673 57.3444C56.7941 55.9708 56.9685 54.2112 57.7032 52.883C58.687 51.1347 61.0531 49.5681 63.5188 49.0686L64.4902 48.8643L64.4902 47.695C64.4902 46.1511 64.6894 45.7879 65.6981 45.4473C66.5325 45.1749 67.5537 45.47 67.9771 46.1171C68.1888 46.4122 68.2261 46.696 68.2261 47.695C68.2261 48.7962 68.251 48.9211 68.4503 48.9211C68.9111 48.9211 70.1937 49.2843 71.0779 49.6703C74.0791 50.9531 75.8101 53.1781 75.6732 55.5621C75.6358 56.2659 75.586 56.4476 75.3245 56.6973C74.0791 57.912 72.124 57.3217 71.8998 55.6529C71.713 54.2566 70.7666 53.303 68.9484 52.69L68.2261 52.4402L68.2261 55.7891C68.2261 58.9337 68.2386 59.138 68.4503 59.138C68.9111 59.138 70.1937 59.5013 71.0779 59.8873C74.104 61.1814 75.6981 63.2475 75.6981 65.8471C75.6981 66.1545 75.6778 66.4487 75.6362 66.7322C80.2351 62.5036 86.372 59.9219 93.112 59.9219C98.8727 59.9219 104.193 61.8079 108.489 64.9962C108.572 56.0554 108.685 43.5726 108.747 35.8698C108.767 33.3696 106.54 31.4704 104.078 31.9116C86.3877 35.0826 42.0045 43.0881 29.5912 45.3276C27.6836 45.6717 26.3239 47.313 26.334 49.2514C26.338 50.0149 26.3427 50.862 26.348 51.7782L29.0714 51.3957C32.1728 50.9601 35.04 53.1211 35.4756 56.2225C35.7778 58.374 34.8303 60.4129 33.186 61.6054L38.462 60.8644C41.5634 60.4288 44.4306 62.5899 44.8662 65.6912C45.3018 68.7926 43.1408 71.6599 40.0394 72.0955L32.1156 73.2084C34.0267 73.9008 35.5011 75.6007 35.8035 77.7538C36.2391 80.8552 34.0781 83.7225 30.9767 84.1581L26.57 84.777L26.5767 85.7229C26.5945 88.2018 28.8101 90.0714 31.25 89.6331Z" fill="#CCD2D7"/>
    <path d="M29.898 19.8447C29.734 20.9451 29.7703 30.5477 29.9499 31.387C30.019 31.731 30.3496 32.2266 30.8315 32.7086C31.3135 33.1905 31.809 33.5211 32.153 33.5902C32.9924 33.7698 42.595 33.8061 43.6954 33.642C44.4657 33.5327 44.7682 33.3679 45.4005 32.7356C46.7337 31.4024 46.7324 29.9166 45.4105 28.5947C44.5843 27.7685 44.1714 27.6306 42.4792 27.5602C41.7088 27.532 41.5436 27.4768 41.8049 27.3257C41.9974 27.2159 42.6437 26.845 43.2349 26.5016C47.5523 23.9192 53.5074 21.9298 58.6521 21.3567C69.079 20.1831 79.3582 22.9852 87.7421 29.28C87.8584 29.3667 87.9795 29.4599 88.1049 29.5591L95.5543 28.2135C93.6309 26.3531 91.576 24.5127 90.4747 23.7383C79.9299 16.2997 67.422 13.4956 54.8775 15.7678C49.3892 16.7671 43.0632 19.2651 38.5261 22.2601C37.5774 22.9058 36.615 23.5377 36.395 23.6751C36.01 23.9224 35.9961 23.8261 35.9669 21.9826C35.937 19.3412 35.8542 19.0384 34.9454 18.1296C33.6235 16.8077 32.1377 16.8064 30.8045 18.1396C30.1722 18.7719 30.0074 19.0744 29.898 19.8447Z" fill="#CCD2D7"/>
    <path d="M70.1066 63.4064C71.6259 64.2692 72.2361 65.6882 71.601 66.8348C71.1402 67.6635 69.7454 68.583 68.5748 68.8441L68.2261 68.9236V62.6572L68.9484 62.9069C69.3345 63.0318 69.8575 63.2588 70.1066 63.4064Z" fill="#CCD2D7"/>
    <path d="M64.4902 55.5734V58.7066L64.1539 58.6272C62.9709 58.3661 61.5761 57.4465 61.1154 56.6178C60.6048 55.7097 60.8912 54.5858 61.8377 53.7457C62.3731 53.2689 63.5811 52.6673 64.4653 52.4516C64.4777 52.4402 64.4902 53.8479 64.4902 55.5734Z" fill="#CCD2D7"/>
    <path d="M26.3661 54.8051L29.4886 54.3665C30.9493 54.1614 32.2996 55.1791 32.5048 56.6397C32.5507 56.9667 32.5353 57.2881 32.4675 57.5924C32.2326 58.6483 31.3654 59.4982 30.2312 59.6575L11.0424 62.3526C9.5818 62.5578 8.23143 61.54 8.02629 60.0794C7.82115 58.6188 8.83891 57.2684 10.2995 57.0632L26.3661 54.8067L26.3661 54.8051Z" fill="#CCD2D7"/>
    <path d="M38.8793 63.8352L26.4362 65.5829L26.4362 65.5845L19.6902 66.532C18.2295 66.7371 17.2118 68.0875 17.4169 69.5481C17.6221 71.0087 18.9724 72.0265 20.433 71.8214L39.6218 69.1263C40.7561 68.967 41.6233 68.117 41.8581 67.0611C41.926 66.7568 41.9413 66.4354 41.8954 66.1085C41.6903 64.6479 40.3399 63.6301 38.8793 63.8352Z" fill="#CCD2D7"/>
    <path d="M26.5104 76.3622L29.8165 75.8979C31.2772 75.6927 32.6275 76.7105 32.8327 78.1711C32.8786 78.498 32.8632 78.8195 32.7954 79.1238C32.5605 80.1797 31.6933 81.0296 30.5591 81.1889L16.3217 83.1886C14.8611 83.3937 13.5107 82.3759 13.3056 80.9153C13.1004 79.4547 14.1182 78.1043 15.5788 77.8992L26.5104 76.3638L26.5104 76.3622Z" fill="#CCD2D7"/>
    </svg>
    