<svg width="124" height="124" viewBox="0 0 124 124" fill="none" xmlns="http://www.w3.org/2000/svg">
    <path d="M43.3781 104.442C40.5133 101.675 34.119 89.8585 31.4389 82.4108L31.0356 81.2901L33.6651 80.4802C37.7096 79.2195 40.1825 78.8944 43.3655 79.1899L44.8929 79.3218L45.6775 81.1231C47.658 85.707 49.7628 89.662 52.3606 93.6343C53.6781 95.6721 53.958 96.2335 54.384 97.5796C54.779 98.8395 54.8382 99.3829 54.7443 100.312C54.5758 102.009 53.8598 103.591 52.7508 104.73C51.9418 105.566 51.6453 105.77 50.5074 106.18C49.4213 106.57 49.011 106.621 47.8436 106.515C46.1879 106.351 44.5765 105.607 43.3781 104.442Z" fill="#0D6EFD" fill-opacity="0.3"/>
    <path d="M64.8474 44.7815C64.8019 44.3306 64.9034 43.963 65.1075 43.7727C65.624 43.3142 67.246 42.789 68.4548 42.685C70.5829 42.4839 72.4702 43.1289 74.0353 44.6103C74.8062 45.3455 74.951 45.5855 75.5093 47.1371C76.0863 48.7405 76.1263 48.9598 75.9875 50.1976C75.8052 51.8015 75.0976 53.244 73.9651 54.372C73.2913 55.0429 72.8631 55.3138 71.4445 55.8632L71.4053 55.879C70.384 56.2895 69.8245 56.5144 69.3983 56.3634C68.8818 56.1803 68.561 55.4454 67.8515 53.8199L67.8245 53.7582C66.7091 51.1997 64.961 45.909 64.8474 44.7815Z" fill="#0D6EFD" fill-opacity="0.3"/>
    <path d="M57.519 17.9772C56.5004 18.7722 48.7698 26.8896 45.3049 30.8432C43.6345 32.7489 40.5778 36.3219 38.4922 38.8055C34.8065 43.228 34.7279 43.3342 34.4215 44.5933C33.9662 46.4123 33.8364 47.7832 33.9133 50.0533C34.006 53.233 34.8873 57.9008 36.0103 61.0213C36.1964 61.5385 36.3066 62.2778 36.2693 62.6612C36.1395 64.032 34.8637 64.978 33.4949 64.6916C32.3826 64.4687 32.0117 63.9791 31.1742 61.6517C29.9458 58.2381 29.0844 53.6799 29.0145 50.2389L28.9809 48.5763L28.5465 48.83C27.2445 49.649 25.8349 50.3316 22.7875 51.6034C18.7242 53.2993 17.4615 54.0652 15.8498 55.7552C13.0959 58.6545 11.6859 62.7449 12.0591 66.7583C12.2009 68.3429 13.1874 71.0841 14.1016 72.4882C16.5298 76.1516 20.6421 78.4884 25.1512 78.7352C26.7242 78.8312 28.6916 78.4543 31.8038 77.4707C35.6697 76.2547 38.046 75.7696 40.734 75.7175C43.4565 75.6531 44.3281 75.7483 49.4922 76.733C54.5406 77.6906 58.7303 78.4319 62.6245 79.0436C62.7766 72.5777 65.3051 66.6997 69.3703 62.2494C68.8461 61.3191 68.3311 60.3496 67.8297 59.3463C66.3027 56.2934 63.6707 49.4124 62.7147 45.9982C60.1797 36.843 59.6373 28.626 61.3115 24.6742C61.526 24.1881 61.7764 23.7475 61.8798 23.7102C61.9832 23.673 62.5287 23.9441 63.0817 24.2903C65.7901 26.0808 68.8713 29.665 71.6704 34.3048C75.4298 40.5065 78.3674 48.0127 79.9707 55.258C81.9626 54.5665 84.0654 54.112 86.2452 53.9282C82.5868 36.4598 71.627 19.5152 62.4027 17.1545C61.4001 16.9116 59.5292 16.9617 58.7596 17.2582C58.4493 17.3698 57.9065 17.7014 57.519 17.9772Z" fill="#0D6EFD" fill-opacity="0.3"/>
    <path d="M97.7075 53.521C93.3257 53.2722 92.1289 53.3688 91.3036 53.9925C96.1604 54.5274 100.612 56.4091 104.276 59.2558C104.729 58.6606 105.013 57.9154 105.026 57.1381C105.057 55.7638 104.026 54.3045 102.754 53.9637C102.404 53.8561 100.133 53.6606 97.7075 53.521Z" fill="#0D6EFD" fill-opacity="0.3"/>
    <path d="M79.9652 26.7847C80.2108 25.8979 80.3522 25.7497 85.0081 21.4259C87.2709 19.3265 88.0033 18.9266 89.421 19.0785C91.8903 19.3388 93.2436 22.3959 91.7656 24.3492C90.9448 25.4235 85.0034 30.7745 84.3828 30.9979C84.0552 31.1158 83.4304 31.1653 82.9891 31.1294C80.7887 30.9671 79.3602 28.8913 79.9652 26.7847Z" fill="#0D6EFD" fill-opacity="0.3"/>
    <path d="M89.4424 44.8883C86.9069 44.2818 85.9708 40.9772 87.835 39.177C88.4867 38.553 96.9345 35.5131 97.7309 35.6159C98.4694 35.7201 99.7616 36.443 100.098 36.9451C100.645 37.7609 100.894 39.2097 100.612 40.051C100.122 41.61 99.6933 41.881 94.7033 43.5988L90.3229 45.1167L89.4424 44.8883Z" fill="#0D6EFD" fill-opacity="0.3"/>
    <path fill-rule="evenodd" clip-rule="evenodd" d="M111.271 79.6589C111.271 92.2658 101.051 102.486 88.444 102.486C75.8371 102.486 65.6172 92.2658 65.6172 79.6589C65.6172 67.052 75.8371 56.832 88.444 56.832C101.051 56.832 111.271 67.052 111.271 79.6589ZM88.4398 75.2386L82.8174 69.8127C81.6677 68.7031 79.8458 68.7031 78.696 69.8127C77.5604 70.9087 77.5604 72.7281 78.696 73.8241L84.4217 79.3497L78.5602 85.3571C77.5011 86.4426 77.5602 88.1919 78.6901 89.2034C79.7305 90.1347 81.3132 90.1051 82.3179 89.1355L88.4398 83.2274L94.5617 89.1355C95.5664 90.1051 97.1492 90.1347 98.1895 89.2034C99.3195 88.1919 99.3786 86.4426 98.3195 85.3571L92.458 79.3497L98.1836 73.8241C99.3193 72.7281 99.3193 70.9087 98.1836 69.8127C97.0339 68.7031 95.212 68.7031 94.0622 69.8127L88.4398 75.2386Z" fill="#0D6EFD" fill-opacity="0.3"/>
    </svg>
    