<svg width="125" height="124" viewBox="0 0 125 124" fill="none" xmlns="http://www.w3.org/2000/svg">
    <path d="M43.3957 104.442C40.5309 101.675 34.1366 89.8585 31.4565 82.4108L31.0532 81.2901L33.6827 80.4802C37.7272 79.2195 40.2001 78.8944 43.3831 79.1899L44.9105 79.3218L45.695 81.1231C47.6756 85.707 49.7804 89.662 52.3782 93.6343C53.6957 95.6721 53.9756 96.2335 54.4016 97.5796C54.7965 98.8395 54.8558 99.3829 54.7619 100.312C54.5934 102.009 53.8774 103.591 52.7684 104.73C51.9594 105.566 51.6629 105.77 50.525 106.18C49.4389 106.57 49.0286 106.621 47.8611 106.515C46.2055 106.351 44.594 105.607 43.3957 104.442Z" fill="#0D6EFD"/>
    <path d="M43.3957 104.442C40.5309 101.675 34.1366 89.8585 31.4565 82.4108L31.0532 81.2901L33.6827 80.4802C37.7272 79.2195 40.2001 78.8944 43.3831 79.1899L44.9105 79.3218L45.695 81.1231C47.6756 85.707 49.7804 89.662 52.3782 93.6343C53.6957 95.6721 53.9756 96.2335 54.4016 97.5796C54.7965 98.8395 54.8558 99.3829 54.7619 100.312C54.5934 102.009 53.8774 103.591 52.7684 104.73C51.9594 105.566 51.6629 105.77 50.525 106.18C49.4389 106.57 49.0286 106.621 47.8611 106.515C46.2055 106.351 44.594 105.607 43.3957 104.442Z" fill="url(#paint0_radial_2042_24170)" fill-opacity="0.5"/>
    <path d="M64.865 44.7815C64.8195 44.3306 64.9209 43.963 65.1251 43.7727C65.6416 43.3142 67.2636 42.789 68.4724 42.685C70.6005 42.4839 72.4878 43.1289 74.0529 44.6103C74.8238 45.3455 74.9686 45.5855 75.5269 47.1371C76.1039 48.7405 76.1439 48.9598 76.0051 50.1976C75.8228 51.8015 75.1151 53.244 73.9827 54.372C73.3089 55.0429 72.8806 55.3138 71.4621 55.8632L71.4229 55.879C70.4016 56.2895 69.8421 56.5144 69.4159 56.3634C68.8994 56.1803 68.5786 55.4454 67.869 53.8199L67.8421 53.7582C66.7267 51.1997 64.9786 45.909 64.865 44.7815Z" fill="#0D6EFD"/>
    <path d="M64.865 44.7815C64.8195 44.3306 64.9209 43.963 65.1251 43.7727C65.6416 43.3142 67.2636 42.789 68.4724 42.685C70.6005 42.4839 72.4878 43.1289 74.0529 44.6103C74.8238 45.3455 74.9686 45.5855 75.5269 47.1371C76.1039 48.7405 76.1439 48.9598 76.0051 50.1976C75.8228 51.8015 75.1151 53.244 73.9827 54.372C73.3089 55.0429 72.8806 55.3138 71.4621 55.8632L71.4229 55.879C70.4016 56.2895 69.8421 56.5144 69.4159 56.3634C68.8994 56.1803 68.5786 55.4454 67.869 53.8199L67.8421 53.7582C66.7267 51.1997 64.9786 45.909 64.865 44.7815Z" fill="url(#paint1_radial_2042_24170)" fill-opacity="0.5"/>
    <path d="M57.5365 17.9772C56.5179 18.7722 48.7874 26.8896 45.3224 30.8432C43.652 32.7489 40.5954 36.3219 38.5098 38.8055C34.8241 43.228 34.7455 43.3342 34.4391 44.5933C33.9838 46.4123 33.8539 47.7832 33.9309 50.0533C34.0236 53.233 34.9049 57.9008 36.0278 61.0213C36.214 61.5385 36.3242 62.2778 36.2869 62.6612C36.1571 64.032 34.8813 64.978 33.5125 64.6916C32.4002 64.4687 32.0293 63.9791 31.1918 61.6517C29.9634 58.2381 29.102 53.6799 29.0321 50.2389L28.9985 48.5763L28.5641 48.83C27.262 49.649 25.8524 50.3316 22.805 51.6034C18.7418 53.2993 17.4791 54.0652 15.8673 55.7552C13.1135 58.6545 11.7034 62.7449 12.0767 66.7583C12.2185 68.3429 13.205 71.0841 14.1192 72.4882C16.5474 76.1516 20.6597 78.4884 25.1688 78.7352C26.7417 78.8312 28.7092 78.4543 31.8213 77.4707C35.6873 76.2547 38.0636 75.7696 40.7516 75.7175C43.4741 75.6531 44.3457 75.7483 49.5098 76.733C54.5582 77.6906 58.7479 78.4319 62.642 79.0436C62.7942 72.5777 65.3226 66.6997 69.3878 62.2494C68.8636 61.3191 68.3487 60.3496 67.8473 59.3463C66.3202 56.2934 63.6883 49.4124 62.7323 45.9982C60.1972 36.843 59.6549 28.626 61.329 24.6742C61.5436 24.1881 61.7939 23.7475 61.8974 23.7102C62.0008 23.673 62.5462 23.9441 63.0992 24.2903C65.8077 26.0808 68.8889 29.665 71.688 34.3048C75.4474 40.5065 78.385 48.0127 79.9883 55.258C81.9802 54.5665 84.0829 54.112 86.2628 53.9282C82.6044 36.4598 71.6446 19.5152 62.4202 17.1545C61.4176 16.9116 59.5468 16.9617 58.7772 17.2582C58.4669 17.3698 57.9241 17.7014 57.5365 17.9772Z" fill="#0D6EFD"/>
    <path d="M57.5365 17.9772C56.5179 18.7722 48.7874 26.8896 45.3224 30.8432C43.652 32.7489 40.5954 36.3219 38.5098 38.8055C34.8241 43.228 34.7455 43.3342 34.4391 44.5933C33.9838 46.4123 33.8539 47.7832 33.9309 50.0533C34.0236 53.233 34.9049 57.9008 36.0278 61.0213C36.214 61.5385 36.3242 62.2778 36.2869 62.6612C36.1571 64.032 34.8813 64.978 33.5125 64.6916C32.4002 64.4687 32.0293 63.9791 31.1918 61.6517C29.9634 58.2381 29.102 53.6799 29.0321 50.2389L28.9985 48.5763L28.5641 48.83C27.262 49.649 25.8524 50.3316 22.805 51.6034C18.7418 53.2993 17.4791 54.0652 15.8673 55.7552C13.1135 58.6545 11.7034 62.7449 12.0767 66.7583C12.2185 68.3429 13.205 71.0841 14.1192 72.4882C16.5474 76.1516 20.6597 78.4884 25.1688 78.7352C26.7417 78.8312 28.7092 78.4543 31.8213 77.4707C35.6873 76.2547 38.0636 75.7696 40.7516 75.7175C43.4741 75.6531 44.3457 75.7483 49.5098 76.733C54.5582 77.6906 58.7479 78.4319 62.642 79.0436C62.7942 72.5777 65.3226 66.6997 69.3878 62.2494C68.8636 61.3191 68.3487 60.3496 67.8473 59.3463C66.3202 56.2934 63.6883 49.4124 62.7323 45.9982C60.1972 36.843 59.6549 28.626 61.329 24.6742C61.5436 24.1881 61.7939 23.7475 61.8974 23.7102C62.0008 23.673 62.5462 23.9441 63.0992 24.2903C65.8077 26.0808 68.8889 29.665 71.688 34.3048C75.4474 40.5065 78.385 48.0127 79.9883 55.258C81.9802 54.5665 84.0829 54.112 86.2628 53.9282C82.6044 36.4598 71.6446 19.5152 62.4202 17.1545C61.4176 16.9116 59.5468 16.9617 58.7772 17.2582C58.4669 17.3698 57.9241 17.7014 57.5365 17.9772Z" fill="url(#paint2_radial_2042_24170)" fill-opacity="0.5"/>
    <path d="M97.7251 53.521C93.3433 53.2722 92.1465 53.3688 91.3212 53.9925C96.1779 54.5274 100.629 56.4091 104.293 59.2558C104.746 58.6606 105.03 57.9154 105.044 57.1381C105.075 55.7638 104.044 54.3045 102.772 53.9637C102.422 53.8561 100.151 53.6606 97.7251 53.521Z" fill="#0D6EFD"/>
    <path d="M97.7251 53.521C93.3433 53.2722 92.1465 53.3688 91.3212 53.9925C96.1779 54.5274 100.629 56.4091 104.293 59.2558C104.746 58.6606 105.03 57.9154 105.044 57.1381C105.075 55.7638 104.044 54.3045 102.772 53.9637C102.422 53.8561 100.151 53.6606 97.7251 53.521Z" fill="url(#paint3_radial_2042_24170)" fill-opacity="0.5"/>
    <path d="M79.9828 26.7847C80.2284 25.8979 80.3698 25.7497 85.0257 21.4259C87.2884 19.3265 88.0208 18.9266 89.4386 19.0785C91.9079 19.3388 93.2612 22.3959 91.7831 24.3492C90.9624 25.4235 85.021 30.7745 84.4004 30.9979C84.0728 31.1158 83.448 31.1653 83.0067 31.1294C80.8063 30.9671 79.3777 28.8913 79.9828 26.7847Z" fill="#0D6EFD"/>
    <path d="M79.9828 26.7847C80.2284 25.8979 80.3698 25.7497 85.0257 21.4259C87.2884 19.3265 88.0208 18.9266 89.4386 19.0785C91.9079 19.3388 93.2612 22.3959 91.7831 24.3492C90.9624 25.4235 85.021 30.7745 84.4004 30.9979C84.0728 31.1158 83.448 31.1653 83.0067 31.1294C80.8063 30.9671 79.3777 28.8913 79.9828 26.7847Z" fill="url(#paint4_radial_2042_24170)" fill-opacity="0.5"/>
    <path d="M89.4599 44.8883C86.9244 44.2818 85.9884 40.9772 87.8526 39.177C88.5043 38.553 96.952 35.5131 97.7485 35.6159C98.487 35.7201 99.7792 36.443 100.116 36.9451C100.662 37.7609 100.911 39.2097 100.63 40.051C100.139 41.61 99.7109 41.881 94.7209 43.5988L90.3405 45.1167L89.4599 44.8883Z" fill="#0D6EFD"/>
    <path d="M89.4599 44.8883C86.9244 44.2818 85.9884 40.9772 87.8526 39.177C88.5043 38.553 96.952 35.5131 97.7485 35.6159C98.487 35.7201 99.7792 36.443 100.116 36.9451C100.662 37.7609 100.911 39.2097 100.63 40.051C100.139 41.61 99.7109 41.881 94.7209 43.5988L90.3405 45.1167L89.4599 44.8883Z" fill="url(#paint5_radial_2042_24170)" fill-opacity="0.5"/>
    <path fill-rule="evenodd" clip-rule="evenodd" d="M111.288 79.6589C111.288 92.2658 101.069 102.486 88.4616 102.486C75.8547 102.486 65.6348 92.2658 65.6348 79.6589C65.6348 67.052 75.8547 56.832 88.4616 56.832C101.069 56.832 111.288 67.052 111.288 79.6589ZM88.4574 75.2386L82.835 69.8127C81.6852 68.7031 79.8634 68.7031 78.7136 69.8127C77.5779 70.9087 77.5779 72.7281 78.7136 73.8241L84.4393 79.3497L78.5778 85.3571C77.5187 86.4426 77.5778 88.1919 78.7077 89.2034C79.748 90.1347 81.3308 90.1051 82.3355 89.1355L88.4574 83.2274L94.5793 89.1355C95.584 90.1051 97.1668 90.1347 98.2071 89.2034C99.3371 88.1919 99.3962 86.4426 98.337 85.3571L92.4756 79.3497L98.2012 73.8241C99.3369 72.7281 99.3369 70.9087 98.2012 69.8127C97.0515 68.7031 95.2296 68.7031 94.0798 69.8127L88.4574 75.2386Z" fill="#0D6EFD"/>
    <path fill-rule="evenodd" clip-rule="evenodd" d="M111.288 79.6589C111.288 92.2658 101.069 102.486 88.4616 102.486C75.8547 102.486 65.6348 92.2658 65.6348 79.6589C65.6348 67.052 75.8547 56.832 88.4616 56.832C101.069 56.832 111.288 67.052 111.288 79.6589ZM88.4574 75.2386L82.835 69.8127C81.6852 68.7031 79.8634 68.7031 78.7136 69.8127C77.5779 70.9087 77.5779 72.7281 78.7136 73.8241L84.4393 79.3497L78.5778 85.3571C77.5187 86.4426 77.5778 88.1919 78.7077 89.2034C79.748 90.1347 81.3308 90.1051 82.3355 89.1355L88.4574 83.2274L94.5793 89.1355C95.584 90.1051 97.1668 90.1347 98.2071 89.2034C99.3371 88.1919 99.3962 86.4426 98.337 85.3571L92.4756 79.3497L98.2012 73.8241C99.3369 72.7281 99.3369 70.9087 98.2012 69.8127C97.0515 68.7031 95.2296 68.7031 94.0798 69.8127L88.4574 75.2386Z" fill="url(#paint6_radial_2042_24170)" fill-opacity="0.5"/>
    <circle cx="88.2676" cy="79.25" r="22.25" fill="#0D6EFD"/>
    <path d="M91.4336 75.6833L84.9011 81.9877L81.3096 78.5217L79.477 76.7531C78.5039 75.814 76.962 75.814 75.989 76.7531C75.0441 77.665 75.0441 79.1788 75.989 80.0907L79.5804 83.5566L84.9011 88.6914L93.1776 80.704L99.7102 74.3996C100.663 73.4799 100.663 71.9532 99.7102 71.0335C98.7454 70.1024 97.2166 70.1024 96.2518 71.0335L91.4336 75.6833Z" fill="white"/>
    <defs>
    <radialGradient id="paint0_radial_2042_24170" cx="0" cy="0" r="1" gradientUnits="userSpaceOnUse" gradientTransform="translate(25.0176 101) rotate(-37.5457) scale(76.3053 84.5761)">
    <stop stop-color="white"/>
    <stop offset="1" stop-color="white" stop-opacity="0"/>
    </radialGradient>
    <radialGradient id="paint1_radial_2042_24170" cx="0" cy="0" r="1" gradientUnits="userSpaceOnUse" gradientTransform="translate(25.0176 101) rotate(-37.5457) scale(76.3053 84.5761)">
    <stop stop-color="white"/>
    <stop offset="1" stop-color="white" stop-opacity="0"/>
    </radialGradient>
    <radialGradient id="paint2_radial_2042_24170" cx="0" cy="0" r="1" gradientUnits="userSpaceOnUse" gradientTransform="translate(25.0176 101) rotate(-37.5457) scale(76.3053 84.5761)">
    <stop stop-color="white"/>
    <stop offset="1" stop-color="white" stop-opacity="0"/>
    </radialGradient>
    <radialGradient id="paint3_radial_2042_24170" cx="0" cy="0" r="1" gradientUnits="userSpaceOnUse" gradientTransform="translate(25.0176 101) rotate(-37.5457) scale(76.3053 84.5761)">
    <stop stop-color="white"/>
    <stop offset="1" stop-color="white" stop-opacity="0"/>
    </radialGradient>
    <radialGradient id="paint4_radial_2042_24170" cx="0" cy="0" r="1" gradientUnits="userSpaceOnUse" gradientTransform="translate(25.0176 101) rotate(-37.5457) scale(76.3053 84.5761)">
    <stop stop-color="white"/>
    <stop offset="1" stop-color="white" stop-opacity="0"/>
    </radialGradient>
    <radialGradient id="paint5_radial_2042_24170" cx="0" cy="0" r="1" gradientUnits="userSpaceOnUse" gradientTransform="translate(25.0176 101) rotate(-37.5457) scale(76.3053 84.5761)">
    <stop stop-color="white"/>
    <stop offset="1" stop-color="white" stop-opacity="0"/>
    </radialGradient>
    <radialGradient id="paint6_radial_2042_24170" cx="0" cy="0" r="1" gradientUnits="userSpaceOnUse" gradientTransform="translate(25.0176 101) rotate(-37.5457) scale(76.3053 84.5761)">
    <stop stop-color="white"/>
    <stop offset="1" stop-color="white" stop-opacity="0"/>
    </radialGradient>
    </defs>
    </svg>
    