<svg width="124" height="124" viewBox="0 0 124 124" fill="none" xmlns="http://www.w3.org/2000/svg">
    <path d="M46.636 14.0565L46.2616 36.9177C46.245 37.9282 45.8734 38.9008 45.2118 39.6648C44.5311 40.4509 43.5889 40.964 42.5593 41.1092L18.0838 44.5626C17.5388 41.8117 19.7863 38.6375 20.9781 37.3942C21.8932 36.2795 23.9519 32.9262 26.2287 29.2177C28.6375 25.2941 31.2904 20.9728 33.0917 18.4838C34.2995 16.9524 43.0045 13.519 46.636 14.0565Z" fill="#CCD2D7"/>
    <path fill-rule="evenodd" clip-rule="evenodd" d="M42.9777 44.077L21.4644 47.1124L20.6705 105.566C20.629 108.62 23.1973 111.063 26.2457 110.868L82.2564 107.297C82.957 107.252 83.6414 107.067 84.2692 106.753L84.7532 106.511C72.3577 104.776 62.8184 94.1311 62.8184 81.2578C62.8184 78.0582 63.4076 74.9962 64.4836 72.1745L38.004 74.4234C36.2731 74.5704 34.7508 73.2865 34.6038 71.5556C34.4568 69.8247 35.7408 68.3024 37.4716 68.1554L68.235 65.5427C72.7912 59.7281 79.8179 55.9421 87.7351 55.7644L87.8003 23.9019C87.8099 19.2322 83.8483 15.5391 79.1908 15.8758L49.5708 18.0171L49.2605 36.964C49.2324 38.6789 48.6017 40.3292 47.479 41.6258C46.3239 42.9598 44.7249 43.8305 42.9777 44.077ZM69.7103 58.8518C71.4407 58.6991 72.7196 57.1726 72.5669 55.4422C72.4142 53.7118 70.8877 52.4329 69.1573 52.5856L37.1507 55.4102C35.4204 55.5629 34.1414 57.0895 34.2941 58.8198C34.4468 60.5502 35.9734 61.8292 37.7037 61.6765L69.7103 58.8518ZM53.7577 85.8619C55.4886 85.7149 56.7725 84.1926 56.6255 82.4618C56.4785 80.7309 54.9562 79.4469 53.2254 79.5939L37.7372 80.9093C36.0064 81.0563 34.7224 82.5786 34.8694 84.3095C35.0164 86.0404 36.5387 87.3243 38.2696 87.1774L53.7577 85.8619Z" fill="#CCD2D7"/>
    <path fill-rule="evenodd" clip-rule="evenodd" d="M110.82 81.2617C110.82 93.6881 100.747 103.762 88.3203 103.762C75.8939 103.762 65.8203 93.6881 65.8203 81.2617C65.8203 68.8353 75.8939 58.7617 88.3203 58.7617C100.747 58.7617 110.82 68.8353 110.82 81.2617ZM88.3152 76.9026L82.7736 71.5546C81.6403 70.4609 79.8445 70.4609 78.7112 71.5546C77.5918 72.6349 77.5918 74.4283 78.7112 75.5086L84.3546 80.9548L78.5767 86.8765C77.5327 87.9464 77.591 89.6707 78.7048 90.6678C79.7302 91.5857 81.2903 91.5565 82.2806 90.6008L88.3152 84.777L94.3498 90.6008C95.3401 91.5565 96.9002 91.5857 97.9256 90.6678C99.0394 89.6707 99.0976 87.9464 98.0537 86.8765L92.2758 80.9548L97.9192 75.5086C99.0386 74.4283 99.0386 72.6349 97.9192 71.5546C96.7859 70.4609 94.9901 70.4609 93.8568 71.5546L88.3152 76.9026Z" fill="#CCD2D7"/>
    </svg>
    