<svg width="125" height="124" viewBox="0 0 125 124" fill="none" xmlns="http://www.w3.org/2000/svg">
    <path d="M45.1536 14.0565L44.7792 36.9177C44.7626 37.9282 44.391 38.9008 43.7293 39.6648C43.0487 40.4509 42.1064 40.964 41.0768 41.1092L16.6013 44.5626C16.0564 41.8117 18.3038 38.6375 19.4957 37.3942C20.4108 36.2795 22.4695 32.9262 24.7462 29.2177C27.155 25.2941 29.808 20.9728 31.6093 18.4838C32.8171 16.9524 41.522 13.519 45.1536 14.0565Z" fill="#0D6EFD"/>
    <path d="M45.1536 14.0565L44.7792 36.9177C44.7626 37.9282 44.391 38.9008 43.7293 39.6648C43.0487 40.4509 42.1064 40.964 41.0768 41.1092L16.6013 44.5626C16.0564 41.8117 18.3038 38.6375 19.4957 37.3942C20.4108 36.2795 22.4695 32.9262 24.7462 29.2177C27.155 25.2941 29.808 20.9728 31.6093 18.4838C32.8171 16.9524 41.522 13.519 45.1536 14.0565Z" fill="url(#paint0_radial_2042_25200)" fill-opacity="0.45"/>
    <path fill-rule="evenodd" clip-rule="evenodd" d="M41.4953 44.077L19.982 47.1124L19.188 105.566C19.1465 108.62 21.7149 111.063 24.7633 110.868L80.774 107.297C81.4746 107.252 82.159 107.067 82.7868 106.753L83.2707 106.511C70.8753 104.776 61.3359 94.1311 61.3359 81.2578C61.3359 78.0582 61.9252 74.9962 63.0012 72.1745L36.5215 74.4234C34.7907 74.5704 33.2684 73.2865 33.1214 71.5556C32.9744 69.8247 34.2583 68.3024 35.9892 68.1554L66.7525 65.5427C71.3088 59.7281 78.3355 55.9421 86.2526 55.7644L86.3179 23.9019C86.3274 19.2322 82.3659 15.5391 77.7084 15.8758L48.0884 18.0171L47.7781 36.964C47.75 38.6789 47.1193 40.3292 45.9965 41.6258C44.8415 42.9598 43.2425 43.8305 41.4953 44.077ZM68.2279 58.8518C69.9583 58.6991 71.2372 57.1726 71.0845 55.4422C70.9318 53.7118 69.4053 52.4329 67.6749 52.5856L35.6683 55.4102C33.9379 55.5629 32.659 57.0895 32.8117 58.8198C32.9644 60.5502 34.491 61.8292 36.2213 61.6765L68.2279 58.8518ZM52.2753 85.8619C54.0061 85.7149 55.2901 84.1926 55.1431 82.4618C54.9961 80.7309 53.4738 79.4469 51.7429 79.5939L36.2548 80.9093C34.524 81.0563 33.24 82.5786 33.387 84.3095C33.534 86.0404 35.0563 87.3243 36.7872 87.1774L52.2753 85.8619Z" fill="#0D6EFD"/>
    <path fill-rule="evenodd" clip-rule="evenodd" d="M41.4953 44.077L19.982 47.1124L19.188 105.566C19.1465 108.62 21.7149 111.063 24.7633 110.868L80.774 107.297C81.4746 107.252 82.159 107.067 82.7868 106.753L83.2707 106.511C70.8753 104.776 61.3359 94.1311 61.3359 81.2578C61.3359 78.0582 61.9252 74.9962 63.0012 72.1745L36.5215 74.4234C34.7907 74.5704 33.2684 73.2865 33.1214 71.5556C32.9744 69.8247 34.2583 68.3024 35.9892 68.1554L66.7525 65.5427C71.3088 59.7281 78.3355 55.9421 86.2526 55.7644L86.3179 23.9019C86.3274 19.2322 82.3659 15.5391 77.7084 15.8758L48.0884 18.0171L47.7781 36.964C47.75 38.6789 47.1193 40.3292 45.9965 41.6258C44.8415 42.9598 43.2425 43.8305 41.4953 44.077ZM68.2279 58.8518C69.9583 58.6991 71.2372 57.1726 71.0845 55.4422C70.9318 53.7118 69.4053 52.4329 67.6749 52.5856L35.6683 55.4102C33.9379 55.5629 32.659 57.0895 32.8117 58.8198C32.9644 60.5502 34.491 61.8292 36.2213 61.6765L68.2279 58.8518ZM52.2753 85.8619C54.0061 85.7149 55.2901 84.1926 55.1431 82.4618C54.9961 80.7309 53.4738 79.4469 51.7429 79.5939L36.2548 80.9093C34.524 81.0563 33.24 82.5786 33.387 84.3095C33.534 86.0404 35.0563 87.3243 36.7872 87.1774L52.2753 85.8619Z" fill="url(#paint1_radial_2042_25200)" fill-opacity="0.45"/>
    <path fill-rule="evenodd" clip-rule="evenodd" d="M109.338 81.2617C109.338 93.6881 99.2643 103.762 86.8379 103.762C74.4115 103.762 64.3379 93.6881 64.3379 81.2617C64.3379 68.8353 74.4115 58.7617 86.8379 58.7617C99.2643 58.7617 109.338 68.8353 109.338 81.2617ZM86.8328 76.9026L81.2912 71.5546C80.1579 70.4609 78.3621 70.4609 77.2288 71.5546C76.1094 72.6349 76.1094 74.4283 77.2288 75.5086L82.8722 80.9548L77.0943 86.8765C76.0503 87.9464 76.1086 89.6707 77.2224 90.6678C78.2478 91.5857 79.8079 91.5565 80.7982 90.6008L86.8328 84.777L92.8673 90.6008C93.8577 91.5565 95.4178 91.5857 96.4432 90.6678C97.557 89.6707 97.6152 87.9464 96.5713 86.8765L90.7934 80.9548L96.4367 75.5086C97.5562 74.4283 97.5561 72.6349 96.4367 71.5546C95.3034 70.4609 93.5076 70.4609 92.3744 71.5546L86.8328 76.9026Z" fill="#0D6EFD"/>
    <path fill-rule="evenodd" clip-rule="evenodd" d="M109.338 81.2617C109.338 93.6881 99.2643 103.762 86.8379 103.762C74.4115 103.762 64.3379 93.6881 64.3379 81.2617C64.3379 68.8353 74.4115 58.7617 86.8379 58.7617C99.2643 58.7617 109.338 68.8353 109.338 81.2617ZM86.8328 76.9026L81.2912 71.5546C80.1579 70.4609 78.3621 70.4609 77.2288 71.5546C76.1094 72.6349 76.1094 74.4283 77.2288 75.5086L82.8722 80.9548L77.0943 86.8765C76.0503 87.9464 76.1086 89.6707 77.2224 90.6678C78.2478 91.5857 79.8079 91.5565 80.7982 90.6008L86.8328 84.777L92.8673 90.6008C93.8577 91.5565 95.4178 91.5857 96.4432 90.6678C97.557 89.6707 97.6152 87.9464 96.5713 86.8765L90.7934 80.9548L96.4367 75.5086C97.5562 74.4283 97.5561 72.6349 96.4367 71.5546C95.3034 70.4609 93.5076 70.4609 92.3744 71.5546L86.8328 76.9026Z" fill="url(#paint2_radial_2042_25200)" fill-opacity="0.45"/>
    <circle cx="86.7676" cy="81.25" r="22.25" fill="#0D6EFD"/>
    <path d="M89.9336 77.6833L83.4011 83.9877L79.8096 80.5217L77.977 78.7531C77.0039 77.814 75.462 77.814 74.489 78.7531C73.5441 79.665 73.5441 81.1788 74.489 82.0907L78.0804 85.5566L83.4011 90.6914L91.6776 82.704L98.2102 76.3996C99.1632 75.4799 99.1632 73.9532 98.2102 73.0335C97.2454 72.1024 95.7166 72.1024 94.7518 73.0335L89.9336 77.6833Z" fill="white"/>
    <defs>
    <radialGradient id="paint0_radial_2042_25200" cx="0" cy="0" r="1" gradientUnits="userSpaceOnUse" gradientTransform="translate(23.5 111) rotate(-50.304) scale(133.863 128.254)">
    <stop stop-color="#01294C"/>
    <stop offset="1" stop-color="white" stop-opacity="0"/>
    </radialGradient>
    <radialGradient id="paint1_radial_2042_25200" cx="0" cy="0" r="1" gradientUnits="userSpaceOnUse" gradientTransform="translate(23.5 111) rotate(-50.304) scale(133.863 128.254)">
    <stop stop-color="#01294C"/>
    <stop offset="1" stop-color="white" stop-opacity="0"/>
    </radialGradient>
    <radialGradient id="paint2_radial_2042_25200" cx="0" cy="0" r="1" gradientUnits="userSpaceOnUse" gradientTransform="translate(23.5 111) rotate(-50.304) scale(133.863 128.254)">
    <stop stop-color="#01294C"/>
    <stop offset="1" stop-color="white" stop-opacity="0"/>
    </radialGradient>
    </defs>
    </svg>
    