<svg width="125" height="124" viewBox="0 0 125 124" fill="none" xmlns="http://www.w3.org/2000/svg">
    <path d="M47.136 14.0565L46.7616 36.9177C46.745 37.9282 46.3734 38.9008 45.7118 39.6648C45.0311 40.4509 44.0889 40.964 43.0593 41.1092L18.5838 44.5626C18.0388 41.8117 20.2863 38.6375 21.4781 37.3942C22.3932 36.2795 24.4519 32.9262 26.7287 29.2177C29.1375 25.2941 31.7904 20.9728 33.5917 18.4838C34.7995 16.9524 43.5045 13.519 47.136 14.0565Z" fill="#0D6EFD" fill-opacity="0.3"/>
    <path fill-rule="evenodd" clip-rule="evenodd" d="M43.4777 44.077L21.9644 47.1124L21.1705 105.566C21.129 108.62 23.6973 111.063 26.7457 110.868L82.7564 107.297C83.457 107.252 84.1414 107.067 84.7692 106.753L85.2532 106.511C72.8577 104.776 63.3184 94.1311 63.3184 81.2578C63.3184 78.0582 63.9076 74.9962 64.9836 72.1745L38.504 74.4234C36.7731 74.5704 35.2508 73.2865 35.1038 71.5556C34.9568 69.8247 36.2408 68.3024 37.9716 68.1554L68.735 65.5427C73.2912 59.7281 80.3179 55.9421 88.2351 55.7644L88.3003 23.9019C88.3099 19.2322 84.3483 15.5391 79.6908 15.8758L50.0708 18.0171L49.7605 36.964C49.7324 38.6789 49.1017 40.3292 47.979 41.6258C46.8239 42.9598 45.2249 43.8305 43.4777 44.077ZM70.2103 58.8518C71.9407 58.6991 73.2196 57.1726 73.0669 55.4422C72.9142 53.7118 71.3877 52.4329 69.6573 52.5856L37.6507 55.4102C35.9204 55.5629 34.6414 57.0895 34.7941 58.8198C34.9468 60.5502 36.4734 61.8292 38.2037 61.6765L70.2103 58.8518ZM54.2577 85.8619C55.9886 85.7149 57.2725 84.1926 57.1255 82.4618C56.9785 80.7309 55.4562 79.4469 53.7254 79.5939L38.2372 80.9093C36.5064 81.0563 35.2224 82.5786 35.3694 84.3095C35.5164 86.0404 37.0387 87.3243 38.7696 87.1774L54.2577 85.8619Z" fill="#0D6EFD" fill-opacity="0.3"/>
    <path fill-rule="evenodd" clip-rule="evenodd" d="M111.32 81.2617C111.32 93.6881 101.247 103.762 88.8203 103.762C76.3939 103.762 66.3203 93.6881 66.3203 81.2617C66.3203 68.8353 76.3939 58.7617 88.8203 58.7617C101.247 58.7617 111.32 68.8353 111.32 81.2617ZM88.8152 76.9026L83.2736 71.5546C82.1403 70.4609 80.3445 70.4609 79.2112 71.5546C78.0918 72.6349 78.0918 74.4283 79.2112 75.5086L84.8546 80.9548L79.0767 86.8765C78.0327 87.9464 78.091 89.6707 79.2048 90.6678C80.2302 91.5857 81.7903 91.5565 82.7806 90.6008L88.8152 84.777L94.8498 90.6008C95.8401 91.5565 97.4002 91.5857 98.4256 90.6678C99.5394 89.6707 99.5976 87.9464 98.5537 86.8765L92.7758 80.9548L98.4192 75.5086C99.5386 74.4283 99.5386 72.6349 98.4192 71.5546C97.2859 70.4609 95.4901 70.4609 94.3568 71.5546L88.8152 76.9026Z" fill="#0D6EFD" fill-opacity="0.3"/>
    </svg>
    