<svg width="67" height="63" viewBox="0 0 67 63" fill="none" xmlns="http://www.w3.org/2000/svg">
<path d="M47.7796 0.281414C47.5574 0.429523 47.2316 0.75536 47.0835 0.977524C46.7132 1.55514 46.6984 2.88811 47.0835 3.45092C47.587 4.22108 47.9425 4.36919 49.5273 4.44325L50.9935 4.5173L27.8295 16.9436C15.0922 23.7861 3.74713 29.8734 2.62151 30.4806C0.281405 31.7691 0 32.0654 0 33.3391C0 34.7313 0.814593 35.5459 2.192 35.5459C2.96216 35.5459 3.79156 35.1016 28.259 21.9792C42.1663 14.5146 53.8224 8.24962 54.1778 8.04227L54.8147 7.68681L54.1334 9.01978C53.6002 10.101 53.4669 10.5157 53.4669 11.1377C53.4669 12.5151 54.2963 13.3297 55.6737 13.3297C57.1548 13.3297 57.1696 13.3149 59.9096 7.83492C62.146 3.37687 62.3534 2.90292 62.3534 2.19201C62.3534 1.31817 62.0572 0.725739 61.3759 0.281414C60.976 0.0148201 60.5613 1.14441e-05 54.5777 1.14441e-05C48.5942 1.14441e-05 48.1795 0.0148201 47.7796 0.281414Z" fill="#0D6EFD"/>
<path d="M54.4463 18.0545C54.2242 18.2026 53.8983 18.5284 53.7502 18.7506C53.4836 19.1653 53.4688 19.8614 53.4688 40.0633C53.4688 60.2652 53.4836 60.9613 53.7502 61.376C53.8983 61.5982 54.2242 61.924 54.4463 62.0721C54.8462 62.3387 55.2313 62.3535 60.2077 62.3535C65.1841 62.3535 65.5692 62.3387 65.9691 62.0721C66.1913 61.924 66.5171 61.5982 66.6652 61.376C66.9318 60.9613 66.9466 60.2652 66.9466 40.0633C66.9466 19.8614 66.9318 19.1653 66.6652 18.7506C66.5171 18.5284 66.1913 18.2026 65.9691 18.0545C65.5692 17.7879 65.1841 17.7731 60.2077 17.7731C55.2313 17.7731 54.8462 17.7879 54.4463 18.0545Z" fill="#0D6EFD"/>
<path d="M36.6707 26.9409C36.4486 27.089 36.1228 27.4149 35.9746 27.637C35.708 28.0517 35.6932 28.6442 35.6932 44.5065C35.6932 60.3689 35.708 60.9613 35.9746 61.376C36.1228 61.5982 36.4486 61.924 36.6707 62.0721C37.0706 62.3387 37.4557 62.3535 42.3581 62.3535C47.2605 62.3535 47.6455 62.3387 48.0454 62.0721C48.2676 61.924 48.5934 61.5982 48.7415 61.376C49.0081 60.9613 49.0229 60.3689 49.0229 44.5065C49.0229 28.6442 49.0081 28.0517 48.7415 27.637C48.5934 27.4149 48.2676 27.089 48.0454 26.9409C47.6455 26.6743 47.2605 26.6595 42.3581 26.6595C37.4557 26.6595 37.0706 26.6743 36.6707 26.9409Z" fill="#1269E8"/>
<path d="M18.8974 35.8274C18.6753 35.9755 18.3494 36.3013 18.2013 36.5235C17.9347 36.9382 17.9199 37.4418 17.9199 48.9498C17.9199 60.4577 17.9347 60.9613 18.2013 61.376C18.3494 61.5982 18.6753 61.924 18.8974 62.0721C19.2973 62.3387 19.6824 62.3535 24.5848 62.3535C29.4871 62.3535 29.8722 62.3387 30.2721 62.0721C30.4943 61.924 30.8201 61.5982 30.9682 61.376C31.2348 60.9613 31.2496 60.4577 31.2496 48.9498C31.2496 37.4418 31.2348 36.9382 30.9682 36.5235C30.8201 36.3013 30.4943 35.9755 30.2721 35.8274C29.8722 35.5608 29.4871 35.546 24.5848 35.546C19.6824 35.546 19.2973 35.5608 18.8974 35.8274Z" fill="#0D6EFD"/>
<path d="M0.977512 44.7139C0.75535 44.862 0.429513 45.1878 0.281405 45.41C0.0148108 45.8099 0 46.2394 0 53.393C0 60.5466 0.0148108 60.9761 0.281405 61.376C0.429513 61.5982 0.75535 61.924 0.977512 62.0721C1.3774 62.3387 1.76248 62.3535 6.73891 62.3535C11.7153 62.3535 12.1004 62.3387 12.5003 62.0721C12.7225 61.924 13.0483 61.5982 13.1964 61.376C13.463 60.9761 13.4778 60.5466 13.4778 53.393C13.4778 46.2394 13.463 45.8099 13.1964 45.41C13.0483 45.1878 12.7225 44.862 12.5003 44.7139C12.1004 44.4473 11.7153 44.4325 6.73891 44.4325C1.76248 44.4325 1.3774 44.4473 0.977512 44.7139Z" fill="#1269E8"/>
</svg>
