<svg width="71" height="60" viewBox="0 0 71 60" fill="none" xmlns="http://www.w3.org/2000/svg">
<path d="M17.9087 8.35438L8.76527 12.9186C6.87636 13.8615 7.54734 16.708 9.65851 16.708H35.4043H61.1376C63.2495 16.708 63.9199 13.8599 62.0297 12.918L52.8446 8.34055C37.0087 0.457161 36.0129 -0.0130768 35.349 0.000753403C34.699 0.0145836 33.2053 0.733771 17.9087 8.35438Z" fill="#1269E8"/>
<path d="M8.30078 33.3877V42.9043C8.30078 44.5611 9.64393 45.9043 11.3008 45.9043H14.5937H17.8865C19.5434 45.9043 20.8865 44.5612 20.8865 42.9043V33.3877V23.8711C20.8865 22.2142 19.5434 20.8711 17.8865 20.8711H14.5937H11.3008C9.64393 20.8711 8.30078 22.2142 8.30078 23.8711V33.3877Z" fill="#0D6EFD"/>
<path d="M29.1816 33.3877V42.9043C29.1816 44.5611 30.5248 45.9043 32.1816 45.9043H35.4054H38.6291C40.286 45.9043 41.6291 44.5612 41.6291 42.9043V33.3877V23.8711C41.6291 22.2142 40.286 20.8711 38.6291 20.8711H35.4054H32.1816C30.5248 20.8711 29.1816 22.2142 29.1816 23.8711V33.3877Z" fill="#0D6EFD"/>
<path d="M49.9277 33.3877V42.9043C49.9277 44.5611 51.2709 45.9043 52.9277 45.9043H56.2206H59.5135C61.1703 45.9043 62.5135 44.5612 62.5135 42.9043V33.3877V23.8711C62.5135 22.2142 61.1703 20.8711 59.5135 20.8711H56.2206H52.9277C51.2709 20.8711 49.9277 22.2142 49.9277 23.8711V33.3877Z" fill="#0D6EFD"/>
<path d="M3.49912 50.3299C2.87675 50.7033 1.39688 53.7502 0.622373 55.2716C0.110644 56.295 0 56.6546 0 57.277C0 58.1345 0.27661 58.66 0.912814 59.0888C1.30007 59.3377 2.24054 59.3516 35.4061 59.3516C68.5717 59.3516 69.5121 59.3377 69.8994 59.0888C70.5356 58.66 70.8122 58.1345 70.8122 57.277C70.8122 56.6546 70.7016 56.295 70.1898 55.2716C69.443 53.764 67.9355 50.7033 67.3131 50.3299C66.8705 50.0533 66.5247 50.0533 35.4061 50.0533C4.28746 50.0533 3.94169 50.0533 3.49912 50.3299Z" fill="#1269E8"/>
</svg>

