<svg width="64" height="64" viewBox="0 0 64 64" fill="none" xmlns="http://www.w3.org/2000/svg">
<path d="M61.8442 32.0001C61.8442 48.4826 48.4825 61.8443 32 61.8443C15.5175 61.8443 2.15582 48.4826 2.15582 32.0001C2.15582 15.5175 15.5175 2.15582 32 2.15582C48.4825 2.15582 61.8442 15.5175 61.8442 32.0001Z" stroke="#1269E8" stroke-width="4.31164"/>
<path fill-rule="evenodd" clip-rule="evenodd" d="M31.9999 61.9365C48.5328 61.9365 61.9354 48.5339 61.9354 32.001C61.9354 15.468 48.5328 2.06541 31.9999 2.06541C15.467 2.06541 2.06445 15.468 2.06445 32.001C2.06445 48.5339 15.467 61.9365 31.9999 61.9365ZM29.9455 16.1835C29.9455 14.3673 30.1656 13.94 31.2796 13.5393C32.201 13.2188 33.3287 13.566 33.7963 14.3272C34.0301 14.6744 34.0713 15.0083 34.0713 16.1835C34.0713 17.4789 34.0988 17.6258 34.3189 17.6258C34.8277 17.6258 36.2442 18.0531 37.2207 18.5071C40.5351 20.0162 42.4467 22.6336 42.2954 25.438C42.2541 26.266 42.1991 26.4797 41.9103 26.7735C40.5351 28.2024 38.3759 27.508 38.1283 25.5449C37.9221 23.9023 36.8769 22.7805 34.869 22.0594L34.0713 21.7656V25.7051C34.0713 29.4043 34.0851 29.6447 34.3189 29.6447C34.8277 29.6447 36.2442 30.072 37.2207 30.526C40.5626 32.0484 42.3229 34.4789 42.3229 37.5371C42.3229 39.6604 41.5527 41.2496 39.7374 42.8922C38.5547 43.9471 37.0144 44.7217 35.2816 45.1624L34.0713 45.4695V46.8717C34.0713 48.4075 33.9201 48.7948 33.1637 49.2889C32.6273 49.6361 31.3896 49.6361 30.8532 49.2889C30.0968 48.7948 29.9455 48.4075 29.9455 46.8717V45.4695L28.7491 45.1624C24.5958 44.1208 21.694 41.0626 21.694 37.7374C21.694 36.2283 22.3816 35.4671 23.7569 35.4671C24.9946 35.4671 25.7097 36.1616 25.8885 37.497C25.9435 37.911 26.0948 38.4719 26.2323 38.7256C26.7274 39.6738 28.2815 40.7688 29.5742 41.0626L29.9455 41.1561V37.31V33.4506L28.7491 33.1435C25.4622 32.3289 22.7804 30.1121 21.969 27.5347C21.4464 25.9188 21.639 23.8489 22.4504 22.2864C23.5368 20.2298 26.1498 18.387 28.8728 17.7994L29.9455 17.559V16.1835ZM29.9455 29.1372V25.4514C29.9455 23.4215 29.9318 21.7656 29.918 21.7789C28.9416 22.0327 27.6076 22.7405 27.0162 23.3013C25.971 24.2896 25.6547 25.6116 26.2186 26.68C26.7274 27.6549 28.2677 28.7366 29.5742 29.0437L29.9455 29.1372ZM37.7983 38.6989C38.4997 37.3501 37.8258 35.6808 36.148 34.6659C35.8729 34.4923 35.2953 34.2252 34.869 34.0783L34.0713 33.7845V37.4703V41.1561L34.4564 41.0626C35.7491 40.7555 37.2894 39.6738 37.7983 38.6989Z" fill="#0D6EFD"/>
</svg>
