<svg width="83" height="81" viewBox="0 0 83 81" fill="none" xmlns="http://www.w3.org/2000/svg">
<path fill-rule="evenodd" clip-rule="evenodd" d="M51.5861 0L82.2446 16.228V80.4907H51.5861H28L38.5 72.2865V35.5956L28.5 31.3047L28 29.8594V12.5041L51.5861 0ZM77.3667 20.7725L55.7664 9.73748V17.5269L77.3667 27.2637V20.7725ZM77.3667 34.404L55.7664 25.3163V32.4566L77.3667 40.8952V34.404ZM55.7664 40.8952L77.3667 48.6846V55.1758L55.7664 48.0355V40.8952ZM77.3667 62.9652L55.7664 56.474V63.6143L77.3667 69.4564V62.9652ZM47.4062 9.73674V17.5262L33.4705 22.7191V15.5788L47.4062 9.73674ZM47.4062 25.3156V32.4559L38.5 35.3598V34.5004L33.4705 32.8575V29.8594L47.4062 25.3156ZM47.4062 48.0347V40.8944L38.5 43.3835L39.4705 43.6939V50.8342L38.5 50.5238L47.4062 48.0347ZM47.4062 56.4733V63.6136L38.5 66.1027L39.4705 66.413V59.2727L38.5 58.9624L47.4062 56.4733Z" fill="#1269E8"/>
<path fill-rule="evenodd" clip-rule="evenodd" d="M17.5845 20.4814L40.4419 32.5801V80.491H17.5845H0V29.8038L17.5845 20.4814ZM36.8052 35.9685L20.7012 27.7414V33.5488L36.8052 40.808V35.9685ZM36.8052 46.1314L20.7012 39.3562V44.6796L36.8052 50.9709V46.1314ZM20.7012 50.9709L36.8052 56.7783V61.6178L20.7012 56.2943V50.9709ZM36.8052 67.4251L20.7012 62.5856V67.9091L36.8052 72.2646V67.4251ZM14.4678 27.741V33.5484L4.07812 37.42V32.0966L14.4678 27.741ZM14.4678 39.3558V44.6792L4.07812 48.0668V42.7434L14.4678 39.3558ZM14.4678 56.294V50.9705L4.07812 53.8742V59.1976L14.4678 56.294ZM14.4678 62.5853V67.9087L4.07812 70.8124V65.489L14.4678 62.5853Z" fill="#0D6EFD"/>
</svg>
