<svg width="31" height="31" viewBox="0 0 31 31" fill="none" xmlns="http://www.w3.org/2000/svg">
<path d="M14.0334 0.833418C8.57459 1.50844 3.93164 5.12418 1.8831 10.2895C1.45461 11.3578 1.07308 12.9309 0.943949 14.1401C0.867642 14.8738 0.867642 16.6699 0.943949 17.4036C1.53092 22.9447 5.18189 27.7167 10.4294 29.8005C11.4977 30.229 13.0708 30.6105 14.28 30.7396C15.0137 30.816 16.8098 30.816 17.5435 30.7396C23.5072 30.1057 28.5727 25.9089 30.316 20.1507C30.7504 18.7243 30.9382 17.4036 30.9382 15.7719C30.9382 14.5451 30.8795 13.8701 30.6682 12.8076C29.6821 7.80665 26.2014 3.65088 21.3941 1.74323C20.3258 1.31474 18.7527 0.933205 17.5435 0.80407C16.7746 0.721893 14.7906 0.739504 14.0334 0.833418ZM18.1188 3.32218C20.7484 3.82111 22.9789 4.98918 24.8396 6.84988C26.6944 8.70471 27.8625 10.9293 28.3732 13.5942C28.4847 14.187 28.5023 14.4688 28.5023 15.7719C28.5023 17.0749 28.4847 17.3567 28.3732 17.9495C27.8625 20.6144 26.7003 22.8331 24.8337 24.6997C22.9789 26.5545 20.7543 27.7226 18.0894 28.2333C17.4966 28.3448 17.2148 28.3624 15.9117 28.3624C14.6087 28.3624 14.3269 28.3448 13.7341 28.2333C11.0692 27.7226 8.85046 26.5604 6.98389 24.6938C5.12906 22.839 3.96099 20.6144 3.45032 17.9495C3.33879 17.3567 3.32119 17.0749 3.32119 15.7719C3.32119 14.4688 3.33879 14.187 3.45032 13.5942C3.96099 10.9293 5.12319 8.71058 6.98976 6.84401C8.84459 4.98918 11.169 3.77415 13.7047 3.32805C14.6615 3.1637 14.6497 3.1637 16.1172 3.18131C17.1972 3.19305 17.5963 3.22239 18.1188 3.32218Z" fill="#0D6EFD"/>
<path d="M21.4873 10.6655C21.3758 10.6831 21.2173 10.736 21.1352 10.7771C21.053 10.8181 19.3742 12.4617 17.4079 14.428L13.8274 18.0027L12.3306 16.5C11.3738 15.5433 10.7516 14.9563 10.599 14.8859C10.3466 14.7685 9.90051 14.7391 9.66572 14.833C9.43093 14.9211 9.05527 15.2967 8.98483 15.5139C8.88505 15.8074 8.90266 16.2594 9.02005 16.4883C9.15506 16.7583 13.0115 20.6264 13.2932 20.7732C13.575 20.9199 14.0387 20.9258 14.3556 20.7967C14.6843 20.6558 22.673 12.673 22.808 12.3443C23.1896 11.4286 22.4441 10.4894 21.4873 10.6655Z" fill="#0D6EFD"/>
</svg>
