<svg width="12" height="12" viewBox="0 0 12 12" fill="none" xmlns="http://www.w3.org/2000/svg">
<g opacity="0.25">
<path d="M5.21653 0.0355716C4 0.19261 2.83504 0.736385 1.92792 1.57314C0.859068 2.55991 0.17697 3.90294 0.0246118 5.32332C-0.00820393 5.6163 -0.00820393 6.3804 0.0246118 6.67338C0.301201 9.22819 2.24905 11.3705 4.76179 11.8838C5.54234 12.0408 6.51275 12.0408 7.26282 11.8791C8.68561 11.572 9.93964 10.7658 10.8163 9.59617C11.4468 8.75473 11.8359 7.7914 11.9648 6.74838C12.0117 6.36868 12.0117 5.63036 11.9648 5.24831C11.8617 4.40921 11.5711 3.57714 11.1374 2.87164C10.1717 1.29891 8.56373 0.258238 6.74949 0.0332277C6.38617 -0.0113056 5.57281 -0.00896173 5.21653 0.0355716ZM6.84559 0.92155C8.87782 1.2661 10.5139 2.78726 11.0015 4.78189C11.196 5.5788 11.196 6.4179 11.0015 7.21481C10.746 8.25548 10.1412 9.23522 9.32786 9.91962C8.71374 10.4353 7.97773 10.8126 7.21594 11.0001C6.42836 11.1923 5.57984 11.1923 4.78289 11.0001C4.0797 10.8267 3.36009 10.4751 2.79285 10.0204C1.91386 9.3196 1.26458 8.3047 0.997363 7.21481C0.802813 6.4179 0.802813 5.5788 0.997363 4.78189C1.22239 3.86544 1.68415 3.04743 2.36625 2.36537C3.25461 1.47704 4.34457 0.975459 5.64782 0.855922C5.90566 0.832484 6.51743 0.865298 6.84559 0.92155Z" fill="#FCFDFD"/>
<path d="M5.75689 3.17115C5.34669 3.3235 5.21543 3.75477 5.48499 4.06182C5.83893 4.46496 6.57494 4.27745 6.64526 3.76649C6.67573 3.55086 6.5304 3.31178 6.30303 3.19459C6.19287 3.14068 5.87877 3.12662 5.75689 3.17115Z" fill="#FCFDFD"/>
<path d="M5.69695 5.02942C5.6196 5.05286 5.53756 5.09974 5.48131 5.15365L5.38989 5.24037V6.86466V8.48896L5.49068 8.5874C5.62429 8.721 5.79306 8.77256 6.05558 8.7585C6.33217 8.74444 6.54782 8.62959 6.61111 8.46318C6.62283 8.43271 6.6322 7.71783 6.6322 6.87404C6.6322 5.18646 6.63689 5.23568 6.48922 5.12318C6.31811 4.99427 5.95948 4.95208 5.69695 5.02942Z" fill="#FCFDFD"/>
</g>
</svg>
