<svg width="12" height="13" viewBox="0 0 12 13" fill="none" xmlns="http://www.w3.org/2000/svg">
<g opacity="0.25">
<path d="M5.21653 0.0358162C4 0.192854 2.83504 0.736629 1.92792 1.57339C0.859068 2.56015 0.17697 3.90318 0.0246118 5.32356C-0.00820393 5.61654 -0.00820393 6.38064 0.0246118 6.67362C0.301201 9.22843 2.24905 11.3707 4.76179 11.884C5.54234 12.0411 6.51275 12.0411 7.26282 11.8793C8.68561 11.5723 9.93964 10.766 10.8163 9.59642C11.4468 8.75497 11.8359 7.79164 11.9648 6.74863C12.0117 6.36892 12.0117 5.63061 11.9648 5.24856C11.8617 4.40946 11.5711 3.57739 11.1374 2.87189C10.1717 1.29916 8.56373 0.258482 6.74949 0.0334721C6.38617 -0.0110617 5.57281 -0.00871754 5.21653 0.0358162ZM6.84559 0.921794C8.87782 1.26634 10.5139 2.78751 11.0015 4.78213C11.196 5.57904 11.196 6.41814 11.0015 7.21505C10.746 8.25573 10.1412 9.23546 9.32786 9.91987C8.71374 10.4355 7.97773 10.8129 7.21594 11.0004C6.42836 11.1926 5.57984 11.1926 4.78289 11.0004C4.0797 10.8269 3.36009 10.4754 2.79285 10.0207C1.91386 9.31984 1.26458 8.30495 0.997363 7.21505C0.802813 6.41814 0.802813 5.57904 0.997363 4.78213C1.22239 3.86568 1.68415 3.04767 2.36625 2.36561C3.25461 1.47729 4.34456 0.975703 5.64782 0.856166C5.90565 0.832727 6.51743 0.865541 6.84559 0.921794Z" fill="#4D6372"/>
<path d="M5.75664 3.17189C5.34645 3.32424 5.21518 3.75551 5.48474 4.06255C5.83868 4.4657 6.57469 4.27819 6.64501 3.76723C6.67548 3.55159 6.53016 3.31252 6.30279 3.19532C6.19262 3.14142 5.87853 3.12735 5.75664 3.17189Z" fill="#4D6372"/>
<path d="M5.69671 5.02991C5.61936 5.05335 5.53732 5.10023 5.48106 5.15414L5.38965 5.24086V6.86515V8.48945L5.49044 8.58789C5.62405 8.72149 5.79281 8.77305 6.05534 8.75899C6.33193 8.74493 6.54757 8.63008 6.61086 8.46366C6.62258 8.43319 6.63196 7.71832 6.63196 6.87453C6.63196 5.18695 6.63665 5.23617 6.48897 5.12367C6.31786 4.99475 5.95924 4.95256 5.69671 5.02991Z" fill="#4D6372"/>
</g>
</svg>
