<svg width="390" height="500" viewBox="0 0 390 500" fill="none" xmlns="http://www.w3.org/2000/svg">
<path opacity="0.85" d="M78.5646 1.75879L188.301 62.3837M188.301 62.3837V163.801M188.301 62.3837L298.038 1.75879M188.301 163.801H119.494C96.8893 163.801 78.5646 182.126 78.5646 204.73V204.73M188.301 163.801H257.108C279.713 163.801 298.038 182.126 298.038 204.73V204.73M78.5646 204.73L-20.5899 136.671C-21.4228 136.1 -22.4093 135.794 -23.4195 135.794H-142.054M78.5646 204.73V253.994M78.5646 253.994H-142.054M78.5646 253.994V300.72M78.5646 300.72V300.72C78.5646 323.976 97.418 342.83 120.675 342.83H188.301M78.5646 300.72L-20.533 375.325C-21.3998 375.977 -22.4553 376.33 -23.5403 376.33H-142.054M188.301 342.83H255.928C279.184 342.83 298.038 323.976 298.038 300.72V300.72M188.301 342.83V437.363M188.301 437.363L78.5646 497.988M188.301 437.363L298.038 497.988M298.038 300.72L397.135 375.325C398.002 375.977 399.058 376.33 400.143 376.33H522.297M298.038 300.72V253.994M298.038 253.994H522.297M298.038 253.994V204.73M298.038 204.73L397.192 136.671C398.025 136.1 399.012 135.794 400.022 135.794H522.297" stroke="url(#paint0_radial_6435_10792)" stroke-opacity="0.25" stroke-width="4"/>
<g filter="url(#filter0_b_6435_10792)">
<rect x="22" y="146" width="336" height="216.1" rx="32" fill="#0D6EFD" fill-opacity="0.3"/>
<rect x="23" y="147" width="334" height="214.1" rx="31" stroke="#0D6EFD" stroke-opacity="0.7" stroke-width="2"/>
</g>
<g opacity="0.3" filter="url(#filter1_d_6435_10792)">
<circle cx="265.981" cy="306.332" r="30.6722" fill="#0D6EFD"/>
<g style="mix-blend-mode:hard-light" opacity="0.8">
<ellipse cx="306.414" cy="306.332" rx="30.6722" ry="30.6722" fill="#99A6AF"/>
</g>
</g>
<g opacity="0.15" filter="url(#filter2_d_6435_10792)">
<circle cx="265.981" cy="306.332" r="30.6722" fill="#0D6EFD"/>
<ellipse opacity="0.8" cx="306.414" cy="306.332" rx="30.6722" ry="30.6722" fill="#4D6372"/>
<path fill-rule="evenodd" clip-rule="evenodd" d="M286.198 329.4C292.607 323.778 296.653 315.528 296.653 306.333C296.653 297.137 292.607 288.887 286.198 283.266C279.788 288.887 275.742 297.137 275.742 306.333C275.742 315.528 279.788 323.778 286.198 329.4Z" fill="#0D6EFD" fill-opacity="0.7"/>
</g>
<g clip-path="url(#clip0_6435_10792)">
<path d="M52.9946 181.563C52.9946 181.62 53.0151 181.639 53.0784 181.639H67.217C67.7149 181.639 67.9438 181.717 68.0475 181.852C68.1497 181.949 68.2539 182.142 68.2539 182.606V188.304C68.2539 189.058 68.0256 189.252 67.217 189.252H53.0784C53.0151 189.252 52.9946 189.271 52.9946 189.33V191.454C52.9946 191.898 53.327 192.208 53.8047 192.208H67.6945C70.3515 192.208 71.6799 190.972 71.6799 188.479V182.412C71.6799 179.921 70.3515 178.685 67.6945 178.685H53.8047C53.6377 178.685 53.4926 178.723 53.3476 178.82L53.1825 178.954C53.1193 179.011 53.0784 179.089 53.0578 179.148C53.0355 179.167 53.0355 179.186 53.0355 179.224C53.0151 179.361 52.9946 179.418 52.9946 179.437V181.563Z" fill="#FCFDFD"/>
<path d="M78.4961 191.474C78.4961 191.628 78.5592 191.841 78.7247 191.997C78.7452 192.054 78.7876 192.054 78.808 192.073C78.9531 192.17 79.1187 192.21 79.3059 192.21H94.441C94.608 192.21 94.8144 192.19 94.9813 192.054L95.0426 191.997C95.21 191.822 95.251 191.609 95.251 191.455V190.007C95.251 189.891 95.251 189.813 95.2306 189.794C95.1673 189.427 94.7938 189.253 94.441 189.253H79.2855C79.0144 189.253 78.8694 189.331 78.6839 189.503C78.5797 189.64 78.5165 189.794 78.5165 189.967C78.4961 189.988 78.4961 190.064 78.4961 190.2V191.474ZM78.5165 179.381C78.5165 179.459 78.4961 179.535 78.4961 179.613V180.907C78.4961 181.061 78.5369 181.274 78.7247 181.447C78.7876 181.468 78.7656 181.487 78.8284 181.506C78.9736 181.641 79.1614 181.641 79.3059 181.641H94.3572C94.5242 181.641 94.7529 181.603 94.9389 181.447C95.1264 181.274 95.1673 181.061 95.1673 180.886V179.438C95.1673 179.419 95.1468 179.362 95.1264 179.225C95.063 178.975 94.9609 178.897 94.7325 178.762C94.6285 178.705 94.5038 178.686 94.3572 178.686H79.4102C79.2431 178.665 78.994 178.705 78.808 178.858L78.7043 178.936C78.5592 179.071 78.5369 179.246 78.5165 179.381ZM78.4961 186.296C78.5165 186.471 78.6001 186.606 78.7247 186.703C78.7452 186.76 78.7876 186.76 78.808 186.781C78.9736 186.916 79.1614 186.916 79.3059 186.916H94.1508C94.6489 186.916 94.9609 186.625 94.9609 186.161V184.732C94.9609 184.616 94.9609 184.538 94.9389 184.519C94.9185 184.384 94.7938 184.171 94.6489 184.114C94.5038 183.978 94.3163 183.978 94.1712 183.978H79.4511C79.2651 183.959 79.0144 183.978 78.8284 184.133L78.7247 184.209C78.6001 184.346 78.5369 184.5 78.5369 184.635L78.4961 184.867V186.296Z" fill="#FCFDFD"/>
<path d="M102.068 188.557C102.068 191.048 103.562 192.284 106.157 192.284H113.591L114.173 193.676C114.277 193.927 114.379 194.159 114.462 194.39C114.483 194.411 114.526 194.43 114.546 194.43H118.076C118.179 194.43 118.201 194.39 118.158 194.333L115.522 188.073C115.501 188.073 115.481 188.054 115.46 188.054H111.93C111.846 188.054 111.826 188.094 111.846 188.169C111.991 188.479 112.159 188.866 112.344 189.33H106.678C106.157 189.33 105.888 189.214 105.743 189.077C105.599 188.982 105.515 188.73 105.515 188.363V182.528C105.515 182.161 105.599 181.911 105.743 181.814C105.888 181.679 106.157 181.583 106.678 181.583H115.854C116.664 181.583 116.995 181.755 116.995 182.528V188.363C116.995 188.576 116.954 188.769 116.893 188.943C116.87 188.962 116.87 188.982 116.893 189.001L118.158 191.937C118.179 191.977 118.201 191.996 118.262 191.996C118.678 191.861 118.927 191.686 119.405 191.301C120.151 190.623 120.442 189.715 120.442 188.557V182.355C120.442 179.862 118.968 178.626 116.373 178.626H106.157C103.481 178.626 102.068 179.862 102.068 182.355V188.557Z" fill="#FCFDFD"/>
<path d="M128.068 178.685C127.59 178.685 127.258 178.992 127.258 179.437V188.479C127.258 190.894 128.566 192.208 131.245 192.208H141.646C144.304 192.208 145.633 190.972 145.633 188.479V179.437C145.633 179.283 145.592 179.07 145.425 178.895C145.238 178.723 145.011 178.685 144.823 178.685H142.996C142.519 178.685 142.186 178.992 142.186 179.437V188.304C142.186 189.058 141.958 189.252 141.147 189.252H131.763C130.953 189.252 130.704 189.058 130.704 188.304V179.437C130.704 179.283 130.663 179.07 130.475 178.895C130.311 178.723 130.081 178.685 129.896 178.685H128.068Z" fill="#FCFDFD"/>
<path d="M153.257 178.685C152.78 178.685 152.447 178.992 152.447 179.437V191.454C152.447 191.898 152.78 192.208 153.257 192.208H155.083C155.271 192.208 155.5 192.168 155.665 191.995C155.851 191.821 155.893 191.608 155.893 191.454V179.437C155.893 179.283 155.851 179.07 155.665 178.895C155.5 178.723 155.271 178.685 155.083 178.685H153.257Z" fill="#FCFDFD"/>
<path d="M162.484 178.685C162.006 178.685 161.674 178.992 161.674 179.437V180.885C161.674 181.06 161.715 181.273 161.903 181.446C162.09 181.601 162.317 181.639 162.484 181.639H168.983V191.454C168.983 191.608 169.024 191.821 169.21 191.995C169.377 192.168 169.605 192.208 169.791 192.208H171.576C171.764 192.208 171.993 192.168 172.158 191.995C172.346 191.821 172.387 191.608 172.387 191.454V181.639H178.865C179.343 181.639 179.696 181.35 179.696 180.885V179.437C179.696 179.264 179.612 179.07 179.468 178.895C179.28 178.742 179.051 178.685 178.865 178.685H162.484Z" fill="#FCFDFD"/>
<path d="M184.521 179.089C184.458 179.224 184.458 179.34 184.5 179.437C184.521 179.611 184.625 179.727 184.729 179.824C184.749 179.824 186.492 181.639 188.32 183.436L191.932 187.068V191.454C191.932 191.898 192.265 192.208 192.742 192.208H194.528C194.715 192.208 194.942 192.168 195.109 191.995C195.295 191.821 195.338 191.608 195.338 191.454V187.068L202.584 179.805C202.665 179.727 202.769 179.611 202.79 179.437C202.832 179.34 202.832 179.224 202.769 179.089C202.708 178.954 202.604 178.876 202.521 178.82C202.375 178.723 202.231 178.685 202.043 178.685H199.904C199.427 178.685 199.178 178.935 199.013 179.089L198.182 179.94L196.333 181.795L193.656 184.48L188.278 179.108C188.092 178.935 187.843 178.685 187.365 178.685H185.227C184.914 178.685 184.625 178.838 184.521 179.089Z" fill="#FCFDFD"/>
</g>
<path fill-rule="evenodd" clip-rule="evenodd" d="M67.6514 221.937L74.3734 225.628V231.701H67.4504C66.6658 231.701 66.0296 232.337 66.0296 233.122V233.902L61.2316 230.628C60.235 229.948 59.0566 229.585 57.8501 229.585H51.7056V227.937C51.7056 224.623 54.3919 221.937 57.7056 221.937H67.6514ZM71.8065 221.937L75.3734 223.896L78.9402 221.937H71.8065ZM82.5823 219.937H68.1644L67.511 219.578L67.3139 219.937H57.7056C53.2873 219.937 49.7056 223.519 49.7056 227.937V250.724C49.7056 255.142 53.2873 258.724 57.7056 258.724H67.4503L67.511 258.834L67.712 258.724H83.0347L83.2358 258.834L83.2964 258.724H93.121C97.5393 258.724 101.121 255.142 101.121 250.724V227.937C101.121 223.519 97.5393 219.937 93.121 219.937H83.4328L83.2358 219.578L82.5823 219.937ZM83.0953 221.937L76.3734 225.628V231.701H83.2963C84.081 231.701 84.7171 232.337 84.7171 233.122V233.902L89.5151 230.628C90.5117 229.948 91.6902 229.585 92.8966 229.585H99.121V227.937C99.121 224.623 96.4348 221.937 93.121 221.937H83.0953ZM99.121 231.585H92.8966C92.0923 231.585 91.3067 231.827 90.6423 232.28L84.7171 236.323V238.518H99.121V231.585ZM99.121 240.518H84.7171V242.548L90.6206 246.966C91.3124 247.484 92.1531 247.763 93.0171 247.763H99.121V240.518ZM99.121 249.763H93.0171C91.7211 249.763 90.46 249.344 89.4223 248.567L84.7171 245.046V245.811C84.7171 246.595 84.081 247.232 83.2963 247.232H76.3734V252.784L83.5477 256.724H93.121C96.4347 256.724 99.121 254.038 99.121 250.724V249.763ZM79.3926 256.724L75.3734 254.517L71.3541 256.724H79.3926ZM67.199 256.724L74.3734 252.784V247.232H67.4504C66.6658 247.232 66.0296 246.595 66.0296 245.811V245.046L61.3244 248.567C60.2868 249.344 59.0256 249.763 57.7296 249.763H51.7056V250.724C51.7056 254.038 54.3919 256.724 57.7056 256.724H67.199ZM51.7056 247.763H57.7296C58.5936 247.763 59.4344 247.484 60.1261 246.966L66.0296 242.548V240.518H51.7056V247.763ZM51.7056 238.518H66.0296V236.323L60.1044 232.28C59.44 231.827 58.6544 231.585 57.8501 231.585H51.7056V238.518ZM68.0296 235.795V233.701H75.3734H82.7171V235.795V239.518V243.049V245.232H75.3734H68.0296V243.049V239.518V235.795Z" fill="#0D6EFD" fill-opacity="0.3"/>
<defs>
<filter id="filter0_b_6435_10792" x="2" y="126" width="376" height="256.1" filterUnits="userSpaceOnUse" color-interpolation-filters="sRGB">
<feFlood flood-opacity="0" result="BackgroundImageFix"/>
<feGaussianBlur in="BackgroundImageFix" stdDeviation="10"/>
<feComposite in2="SourceAlpha" operator="in" result="effect1_backgroundBlur_6435_10792"/>
<feBlend mode="normal" in="SourceGraphic" in2="effect1_backgroundBlur_6435_10792" result="shape"/>
</filter>
<filter id="filter1_d_6435_10792" x="215.309" y="259.66" width="141.778" height="101.345" filterUnits="userSpaceOnUse" color-interpolation-filters="sRGB">
<feFlood flood-opacity="0" result="BackgroundImageFix"/>
<feColorMatrix in="SourceAlpha" type="matrix" values="0 0 0 0 0 0 0 0 0 0 0 0 0 0 0 0 0 0 127 0" result="hardAlpha"/>
<feOffset dy="4"/>
<feGaussianBlur stdDeviation="10"/>
<feComposite in2="hardAlpha" operator="out"/>
<feColorMatrix type="matrix" values="0 0 0 0 0.14902 0 0 0 0 0.32549 0 0 0 0 0.431373 0 0 0 0.2 0"/>
<feBlend mode="normal" in2="BackgroundImageFix" result="effect1_dropShadow_6435_10792"/>
<feBlend mode="normal" in="SourceGraphic" in2="effect1_dropShadow_6435_10792" result="shape"/>
</filter>
<filter id="filter2_d_6435_10792" x="215.309" y="259.66" width="141.778" height="101.345" filterUnits="userSpaceOnUse" color-interpolation-filters="sRGB">
<feFlood flood-opacity="0" result="BackgroundImageFix"/>
<feColorMatrix in="SourceAlpha" type="matrix" values="0 0 0 0 0 0 0 0 0 0 0 0 0 0 0 0 0 0 127 0" result="hardAlpha"/>
<feOffset dy="4"/>
<feGaussianBlur stdDeviation="10"/>
<feComposite in2="hardAlpha" operator="out"/>
<feColorMatrix type="matrix" values="0 0 0 0 0.14902 0 0 0 0 0.32549 0 0 0 0 0.431373 0 0 0 0.2 0"/>
<feBlend mode="normal" in2="BackgroundImageFix" result="effect1_dropShadow_6435_10792"/>
<feBlend mode="normal" in="SourceGraphic" in2="effect1_dropShadow_6435_10792" result="shape"/>
</filter>
<radialGradient id="paint0_radial_6435_10792" cx="0" cy="0" r="1" gradientUnits="userSpaceOnUse" gradientTransform="translate(131.751 249.874) rotate(81.2142) scale(209.062 279.987)">
<stop stop-color="#0D6EFD"/>
<stop offset="1" stop-color="#0D6EFD" stop-opacity="0"/>
</radialGradient>
<clipPath id="clip0_6435_10792">
<rect width="150.573" height="16.7303" fill="white" transform="translate(52.9956 178.112)"/>
</clipPath>
</defs>
</svg>
