<svg width="935" height="736" viewBox="0 0 935 736" fill="none" xmlns="http://www.w3.org/2000/svg">
<path opacity="0.85" d="M279.717 1.85742L441.592 91.2867M441.592 91.2867V240.889M441.592 91.2867L603.467 1.85742M441.592 240.889H330.717C302.551 240.889 279.717 263.723 279.717 291.889V301.265M441.592 240.889H552.467C580.634 240.889 603.467 263.723 603.467 291.889V301.265M279.717 301.265L132.845 200.453C132.012 199.882 131.025 199.576 130.015 199.576H-45.7227M279.717 301.265V373.935M279.717 373.935H-45.7227M279.717 373.935V442.862M279.717 442.862V453.979C279.717 482.146 302.551 504.979 330.717 504.979H441.592M279.717 442.862L132.902 553.391C132.035 554.044 130.979 554.397 129.894 554.397H-45.7227M441.592 504.979H552.467C580.634 504.979 603.467 482.146 603.467 453.979V442.862M441.592 504.979V644.428M441.592 644.428L279.717 733.857M441.592 644.428L603.467 733.857M603.467 442.862L750.283 553.391C751.15 554.044 752.206 554.397 753.291 554.397H934.277M603.467 442.862V373.935M603.467 373.935H934.277M603.467 373.935V301.265M603.467 301.265L750.34 200.453C751.173 199.882 752.16 199.576 753.17 199.576H934.277" stroke="url(#paint0_radial_6432_9944)" stroke-opacity="0.25" stroke-width="4"/>
<g filter="url(#filter0_b_6432_9944)">
<rect x="196.277" y="214.631" width="495.642" height="318.774" rx="32" fill="#0D6EFD" fill-opacity="0.3"/>
<rect x="197.277" y="215.631" width="493.642" height="316.774" rx="31" stroke="#0D6EFD" stroke-opacity="0.7" stroke-width="2"/>
</g>
<g opacity="0.3" filter="url(#filter1_d_6432_9944)">
<circle cx="556.179" cy="451.141" r="45.2453" fill="#0D6EFD"/>
<g style="mix-blend-mode:hard-light" opacity="0.8">
<circle cx="615.823" cy="451.141" r="45.2453" fill="#99A6AF"/>
</g>
</g>
<g opacity="0.15" filter="url(#filter2_d_6432_9944)">
<circle cx="556.179" cy="451.141" r="45.2453" fill="#0D6EFD"/>
<circle opacity="0.8" cx="615.823" cy="451.141" r="45.2453" fill="#4D6372"/>
<path fill-rule="evenodd" clip-rule="evenodd" d="M586.001 485.168C595.455 476.875 601.424 464.705 601.424 451.141C601.424 437.577 595.455 425.407 586.001 417.114C576.547 425.407 570.578 437.577 570.578 451.141C570.578 464.705 576.547 476.875 586.001 485.168Z" fill="#0D6EFD" fill-opacity="0.7"/>
</g>
<g clip-path="url(#clip0_6432_9944)">
<path d="M241.999 267.091C241.999 267.175 242.029 267.204 242.122 267.204H262.978C263.713 267.204 264.051 267.318 264.203 267.517C264.354 267.66 264.508 267.945 264.508 268.629V277.035C264.508 278.147 264.171 278.432 262.978 278.432H242.122C242.029 278.432 241.999 278.461 241.999 278.547V281.681C241.999 282.337 242.489 282.794 243.194 282.794H263.683C267.602 282.794 269.562 280.97 269.562 277.293V268.344C269.562 264.669 267.602 262.845 263.683 262.845H243.194C242.947 262.845 242.733 262.901 242.519 263.044L242.276 263.243C242.183 263.327 242.122 263.442 242.092 263.529C242.059 263.557 242.059 263.585 242.059 263.641C242.029 263.842 241.999 263.926 241.999 263.954V267.091Z" fill="#FCFDFD"/>
<path d="M279.617 281.71C279.617 281.937 279.71 282.251 279.954 282.481C279.984 282.565 280.047 282.565 280.077 282.593C280.291 282.736 280.535 282.795 280.811 282.795H303.138C303.384 282.795 303.688 282.767 303.935 282.565L304.025 282.481C304.272 282.223 304.332 281.909 304.332 281.682V279.545C304.332 279.374 304.332 279.259 304.302 279.231C304.209 278.691 303.658 278.433 303.138 278.433H280.781C280.381 278.433 280.167 278.548 279.894 278.803C279.74 279.005 279.647 279.231 279.647 279.486C279.617 279.517 279.617 279.629 279.617 279.831V281.71ZM279.647 263.871C279.647 263.985 279.617 264.098 279.617 264.213V266.122C279.617 266.35 279.677 266.663 279.954 266.918C280.047 266.949 280.014 266.977 280.107 267.005C280.321 267.204 280.598 267.204 280.811 267.204H303.014C303.26 267.204 303.598 267.148 303.872 266.918C304.149 266.663 304.209 266.35 304.209 266.092V263.955C304.209 263.927 304.179 263.843 304.149 263.641C304.055 263.271 303.904 263.156 303.567 262.958C303.414 262.874 303.23 262.845 303.014 262.845H280.965C280.719 262.815 280.351 262.874 280.077 263.1L279.924 263.215C279.71 263.414 279.677 263.671 279.647 263.871ZM279.617 274.072C279.647 274.33 279.77 274.528 279.954 274.671C279.984 274.756 280.047 274.756 280.077 274.786C280.321 274.985 280.598 274.985 280.811 274.985H302.709C303.444 274.985 303.904 274.556 303.904 273.873V271.764C303.904 271.593 303.904 271.478 303.872 271.45C303.842 271.251 303.658 270.937 303.444 270.853C303.23 270.652 302.954 270.652 302.74 270.652H281.026C280.751 270.624 280.381 270.652 280.107 270.881L279.954 270.994C279.77 271.195 279.677 271.422 279.677 271.621L279.617 271.963V274.072Z" fill="#FCFDFD"/>
<path d="M314.388 277.408C314.388 281.083 316.591 282.906 320.419 282.906H331.385L332.243 284.96C332.397 285.329 332.548 285.671 332.67 286.013C332.701 286.043 332.764 286.072 332.794 286.072H338.001C338.152 286.072 338.185 286.013 338.122 285.929L334.233 276.694C334.203 276.694 334.173 276.666 334.142 276.666H328.935C328.811 276.666 328.781 276.725 328.811 276.836C329.026 277.293 329.272 277.865 329.546 278.548H321.187C320.419 278.548 320.022 278.377 319.808 278.175C319.595 278.035 319.472 277.663 319.472 277.122V268.515C319.472 267.974 319.595 267.604 319.808 267.462C320.022 267.262 320.419 267.12 321.187 267.12H334.723C335.918 267.12 336.407 267.375 336.407 268.515V277.122C336.407 277.436 336.346 277.722 336.256 277.977C336.223 278.005 336.223 278.035 336.256 278.063L338.122 282.394C338.152 282.453 338.185 282.481 338.276 282.481C338.89 282.282 339.256 282.024 339.961 281.456C341.062 280.455 341.49 279.117 341.49 277.408V268.26C341.49 264.582 339.317 262.759 335.488 262.759H320.419C316.471 262.759 314.388 264.582 314.388 268.26V277.408Z" fill="#FCFDFD"/>
<path d="M352.741 262.845C352.036 262.845 351.546 263.299 351.546 263.954V277.293C351.546 280.856 353.476 282.794 357.427 282.794H372.77C376.691 282.794 378.652 280.97 378.652 277.293V263.954C378.652 263.727 378.591 263.413 378.345 263.156C378.069 262.901 377.734 262.845 377.456 262.845H374.762C374.058 262.845 373.566 263.299 373.566 263.954V277.035C373.566 278.147 373.23 278.432 372.035 278.432H358.192C356.997 278.432 356.629 278.147 356.629 277.035V263.954C356.629 263.727 356.57 263.413 356.292 263.156C356.049 262.901 355.711 262.845 355.438 262.845H352.741Z" fill="#FCFDFD"/>
<path d="M389.899 262.845C389.195 262.845 388.704 263.299 388.704 263.954V281.681C388.704 282.337 389.195 282.794 389.899 282.794H392.593C392.869 282.794 393.207 282.735 393.45 282.48C393.724 282.222 393.787 281.909 393.787 281.681V263.954C393.787 263.727 393.724 263.413 393.45 263.156C393.207 262.901 392.869 262.845 392.593 262.845H389.899Z" fill="#FCFDFD"/>
<path d="M403.508 262.845C402.804 262.845 402.314 263.299 402.314 263.954V266.091C402.314 266.349 402.375 266.662 402.652 266.918C402.928 267.147 403.263 267.204 403.508 267.204H413.096V281.681C413.096 281.909 413.157 282.222 413.431 282.48C413.677 282.735 414.014 282.794 414.288 282.794H416.921C417.199 282.794 417.536 282.735 417.78 282.48C418.056 282.222 418.117 281.909 418.117 281.681V267.204H427.673C428.378 267.204 428.899 266.777 428.899 266.091V263.954C428.899 263.699 428.775 263.413 428.562 263.156C428.285 262.929 427.947 262.845 427.673 262.845H403.508Z" fill="#FCFDFD"/>
<path d="M436.016 263.442C435.923 263.641 435.923 263.811 435.985 263.954C436.016 264.212 436.169 264.382 436.323 264.525C436.353 264.525 438.923 267.204 441.62 269.853L446.948 275.211V281.681C446.948 282.337 447.438 282.794 448.142 282.794H450.777C451.053 282.794 451.388 282.735 451.634 282.48C451.908 282.222 451.972 281.909 451.972 281.681V275.211L462.66 264.497C462.781 264.382 462.934 264.212 462.965 263.954C463.027 263.811 463.027 263.641 462.934 263.442C462.844 263.243 462.69 263.128 462.568 263.044C462.353 262.901 462.14 262.845 461.863 262.845H458.708C458.004 262.845 457.637 263.214 457.393 263.442L456.167 264.697L453.44 267.433L449.492 271.394L441.557 263.47C441.283 263.214 440.916 262.845 440.211 262.845H437.057C436.596 262.845 436.169 263.071 436.016 263.442Z" fill="#FCFDFD"/>
</g>
<path fill-rule="evenodd" clip-rule="evenodd" d="M262.875 325.697L274.01 331.811V341.526H263.122C262.338 341.526 261.702 342.162 261.702 342.947V345.196L253.275 339.447C252.279 338.767 251.1 338.403 249.894 338.403H239.146V331.697C239.146 328.383 241.833 325.697 245.146 325.697H262.875ZM263.388 323.697L263.183 323.584L263.121 323.697H245.146C240.728 323.697 237.146 327.279 237.146 331.697V372.913C237.146 377.331 240.728 380.913 245.146 380.913H304.991C309.409 380.913 312.991 377.331 312.991 372.913V331.697C312.991 327.279 309.409 323.697 304.991 323.697H286.898L286.836 323.584L286.631 323.697H263.388ZM267.031 325.697H282.989L275.01 330.078L267.031 325.697ZM287.144 325.697L276.01 331.811V341.526H286.897C287.682 341.526 288.318 342.162 288.318 342.947V345.196L296.744 339.447C297.741 338.767 298.919 338.403 300.125 338.403H310.991V331.697C310.991 328.383 308.304 325.697 304.991 325.697H287.144ZM310.991 340.403H300.125C299.321 340.403 298.536 340.646 297.871 341.099L288.318 347.617V351.581H310.991V340.403ZM310.991 353.581H288.318V357.289L297.849 364.422C298.541 364.94 299.382 365.22 300.246 365.22H310.991V353.581ZM310.991 367.22H300.246C298.95 367.22 297.689 366.8 296.651 366.023L288.318 359.787V362.064C288.318 362.849 287.682 363.485 286.897 363.485H276.01V372.432L287.799 378.906L287.795 378.913H304.991C308.304 378.913 310.991 376.226 310.991 372.913V367.22ZM283.656 378.913L275.01 374.165L266.363 378.913H283.656ZM262.224 378.913L262.22 378.906L274.01 372.432V363.485H263.122C262.338 363.485 261.702 362.849 261.702 362.064V359.787L253.368 366.023C252.331 366.8 251.069 367.22 249.773 367.22H239.146V372.913C239.146 376.226 241.833 378.913 245.146 378.913H262.224ZM239.146 365.22H249.773C250.637 365.22 251.478 364.94 252.17 364.422L261.702 357.289V353.581H239.146V365.22ZM239.146 351.581H261.702V347.617L252.148 341.099C251.484 340.646 250.698 340.403 249.894 340.403H239.146V351.581ZM263.702 347.089V343.526H275.01H286.318V347.089V352.581V357.79V361.485H275.01H263.702V357.79V352.581V347.089Z" fill="#0D6EFD" fill-opacity="0.3"/>
<defs>
<filter id="filter0_b_6432_9944" x="176.277" y="194.631" width="535.642" height="358.773" filterUnits="userSpaceOnUse" color-interpolation-filters="sRGB">
<feFlood flood-opacity="0" result="BackgroundImageFix"/>
<feGaussianBlur in="BackgroundImageFix" stdDeviation="10"/>
<feComposite in2="SourceAlpha" operator="in" result="effect1_backgroundBlur_6432_9944"/>
<feBlend mode="normal" in="SourceGraphic" in2="effect1_backgroundBlur_6432_9944" result="shape"/>
</filter>
<filter id="filter1_d_6432_9944" x="490.934" y="389.896" width="190.135" height="130.49" filterUnits="userSpaceOnUse" color-interpolation-filters="sRGB">
<feFlood flood-opacity="0" result="BackgroundImageFix"/>
<feColorMatrix in="SourceAlpha" type="matrix" values="0 0 0 0 0 0 0 0 0 0 0 0 0 0 0 0 0 0 127 0" result="hardAlpha"/>
<feOffset dy="4"/>
<feGaussianBlur stdDeviation="10"/>
<feComposite in2="hardAlpha" operator="out"/>
<feColorMatrix type="matrix" values="0 0 0 0 0.14902 0 0 0 0 0.32549 0 0 0 0 0.431373 0 0 0 0.2 0"/>
<feBlend mode="normal" in2="BackgroundImageFix" result="effect1_dropShadow_6432_9944"/>
<feBlend mode="normal" in="SourceGraphic" in2="effect1_dropShadow_6432_9944" result="shape"/>
</filter>
<filter id="filter2_d_6432_9944" x="490.934" y="389.896" width="190.135" height="130.49" filterUnits="userSpaceOnUse" color-interpolation-filters="sRGB">
<feFlood flood-opacity="0" result="BackgroundImageFix"/>
<feColorMatrix in="SourceAlpha" type="matrix" values="0 0 0 0 0 0 0 0 0 0 0 0 0 0 0 0 0 0 127 0" result="hardAlpha"/>
<feOffset dy="4"/>
<feGaussianBlur stdDeviation="10"/>
<feComposite in2="hardAlpha" operator="out"/>
<feColorMatrix type="matrix" values="0 0 0 0 0.14902 0 0 0 0 0.32549 0 0 0 0 0.431373 0 0 0 0.2 0"/>
<feBlend mode="normal" in2="BackgroundImageFix" result="effect1_dropShadow_6432_9944"/>
<feBlend mode="normal" in="SourceGraphic" in2="effect1_dropShadow_6432_9944" result="shape"/>
</filter>
<radialGradient id="paint0_radial_6432_9944" cx="0" cy="0" r="1" gradientUnits="userSpaceOnUse" gradientTransform="translate(358.173 367.857) rotate(81.2142) scale(308.392 413.016)">
<stop stop-color="#0D6EFD"/>
<stop offset="1" stop-color="#0D6EFD" stop-opacity="0"/>
</radialGradient>
<clipPath id="clip0_6432_9944">
<rect width="222.113" height="24.6792" fill="white" transform="translate(242 262)"/>
</clipPath>
</defs>
</svg>
