<svg width="390" height="500" viewBox="0 0 390 500" fill="none" xmlns="http://www.w3.org/2000/svg">
<path opacity="0.85" d="M84.5646 1.86462L194.301 62.4895M194.301 62.4895V163.907M194.301 62.4895L304.038 1.86462M194.301 163.907H119.138C100.044 163.907 84.5646 179.386 84.5646 198.48V204.836M194.301 163.907H269.464C288.559 163.907 304.038 179.386 304.038 198.48V204.836M84.5646 204.836L-15.0018 136.495C-15.5664 136.107 -16.2351 135.9 -16.9199 135.9H-136.054M84.5646 204.836V254.1M84.5646 254.1H-136.054M84.5646 254.1V300.826M84.5646 300.826V308.362C84.5646 327.457 100.044 342.936 119.138 342.936H194.301M84.5646 300.826L-14.9632 375.754C-15.5508 376.197 -16.2664 376.436 -17.0019 376.436H-136.054M194.301 342.936H269.464C288.559 342.936 304.038 327.457 304.038 308.362V300.826M194.301 342.936V437.469M194.301 437.469L84.5646 498.094M194.301 437.469L304.038 498.094M304.038 300.826L403.565 375.754C404.153 376.197 404.869 376.436 405.604 376.436H528.297M304.038 300.826V254.1M304.038 254.1H528.297M304.038 254.1V204.836M304.038 204.836L403.604 136.495C404.169 136.107 404.837 135.9 405.522 135.9H528.297" stroke="url(#paint0_radial_6603_12796)" stroke-opacity="0.25" stroke-width="2.71164"/>
<g filter="url(#filter0_b_6603_12796)">
<rect x="28" y="146.106" width="336" height="216.1" rx="21.6931" fill="#0D6EFD" fill-opacity="0.15"/>
<rect x="28.6779" y="146.784" width="334.644" height="214.744" rx="21.0152" stroke="#0D6EFD" stroke-opacity="0.15" stroke-width="1.35582"/>
</g>
<g opacity="0.3" filter="url(#filter1_d_6603_12796)">
<circle cx="271.981" cy="306.438" r="30.6722" fill="#0D6EFD"/>
<g style="mix-blend-mode:hard-light" opacity="0.8">
<circle cx="312.414" cy="306.438" r="30.6722" fill="#4D6372"/>
</g>
</g>
<g filter="url(#filter2_d_6603_12796)">
<circle cx="271.981" cy="306.438" r="30.3332" stroke="#0D6EFD" stroke-width="0.677909"/>
<circle cx="312.414" cy="306.438" r="30.6722" fill="#FCFDFD"/>
<path fill-rule="evenodd" clip-rule="evenodd" d="M292.198 329.505C298.607 323.884 302.653 315.633 302.653 306.438C302.653 297.243 298.607 288.993 292.198 283.371C285.788 288.993 281.742 297.243 281.742 306.438C281.742 315.633 285.788 323.884 292.198 329.505Z" fill="#0D6EFD" fill-opacity="0.6"/>
</g>
<g clip-path="url(#clip0_6603_12796)">
<path d="M58.9951 181.669C58.9951 181.726 59.0156 181.745 59.0789 181.745H73.2175C73.7154 181.745 73.9443 181.823 74.048 181.958C74.1501 182.055 74.2543 182.248 74.2543 182.712V188.41C74.2543 189.164 74.0261 189.358 73.2175 189.358H59.0789C59.0156 189.358 58.9951 189.377 58.9951 189.436V191.56C58.9951 192.004 59.3275 192.314 59.8052 192.314H73.695C76.352 192.314 77.6804 191.078 77.6804 188.585V182.518C77.6804 180.027 76.352 178.791 73.695 178.791H59.8052C59.6381 178.791 59.493 178.829 59.3481 178.926L59.183 179.06C59.1198 179.117 59.0789 179.195 59.0583 179.254C59.036 179.273 59.036 179.292 59.036 179.33C59.0156 179.467 58.9951 179.524 58.9951 179.543V181.669Z" fill="#0D6EFD"/>
<path d="M84.4971 191.58C84.4971 191.734 84.5602 191.946 84.7257 192.102C84.7462 192.159 84.7886 192.159 84.8089 192.178C84.9541 192.275 85.1197 192.315 85.3069 192.315H100.442C100.609 192.315 100.815 192.296 100.982 192.159L101.044 192.102C101.211 191.927 101.252 191.715 101.252 191.561V190.112C101.252 189.996 101.252 189.918 101.232 189.899C101.168 189.533 100.795 189.358 100.442 189.358H85.2865C85.0154 189.358 84.8704 189.436 84.6849 189.609C84.5807 189.745 84.5175 189.899 84.5175 190.072C84.4971 190.093 84.4971 190.169 84.4971 190.305V191.58ZM84.5175 179.486C84.5175 179.564 84.4971 179.64 84.4971 179.718V181.012C84.4971 181.167 84.5379 181.379 84.7257 181.552C84.7886 181.573 84.7666 181.592 84.8294 181.611C84.9746 181.746 85.1624 181.746 85.3069 181.746H100.358C100.525 181.746 100.754 181.708 100.94 181.552C101.127 181.379 101.168 181.167 101.168 180.992V179.543C101.168 179.524 101.148 179.467 101.127 179.331C101.064 179.08 100.962 179.002 100.733 178.867C100.629 178.81 100.505 178.791 100.358 178.791H85.4111C85.2441 178.77 84.995 178.81 84.8089 178.964L84.7053 179.041C84.5602 179.177 84.5379 179.351 84.5175 179.486ZM84.4971 186.402C84.5175 186.576 84.601 186.711 84.7257 186.808C84.7462 186.865 84.7886 186.865 84.8089 186.886C84.9746 187.021 85.1624 187.021 85.3069 187.021H100.152C100.65 187.021 100.962 186.73 100.962 186.267V184.837C100.962 184.721 100.962 184.643 100.94 184.624C100.919 184.489 100.795 184.277 100.65 184.22C100.505 184.083 100.317 184.083 100.172 184.083H85.452C85.266 184.064 85.0154 184.083 84.8294 184.239L84.7257 184.315C84.601 184.451 84.5379 184.605 84.5379 184.74L84.4971 184.972V186.402Z" fill="#0D6EFD"/>
<path d="M108.068 188.663C108.068 191.154 109.562 192.39 112.157 192.39H119.591L120.173 193.782C120.277 194.032 120.379 194.264 120.462 194.496C120.483 194.517 120.526 194.536 120.546 194.536H124.076C124.179 194.536 124.201 194.496 124.158 194.439L121.522 188.179C121.501 188.179 121.481 188.16 121.46 188.16H117.93C117.846 188.16 117.826 188.2 117.846 188.275C117.991 188.585 118.159 188.972 118.344 189.436H112.678C112.157 189.436 111.888 189.32 111.743 189.183C111.599 189.088 111.515 188.836 111.515 188.469V182.634C111.515 182.267 111.599 182.017 111.743 181.92C111.888 181.785 112.157 181.688 112.678 181.688H121.854C122.664 181.688 122.995 181.861 122.995 182.634V188.469C122.995 188.682 122.954 188.875 122.893 189.048C122.87 189.067 122.87 189.088 122.893 189.107L124.158 192.042C124.179 192.082 124.201 192.101 124.262 192.101C124.678 191.966 124.927 191.792 125.405 191.407C126.151 190.729 126.442 189.821 126.442 188.663V182.461C126.442 179.968 124.968 178.732 122.373 178.732H112.157C109.481 178.732 108.068 179.968 108.068 182.461V188.663Z" fill="#0D6EFD"/>
<path d="M134.068 178.791C133.59 178.791 133.258 179.098 133.258 179.543V188.585C133.258 191 134.566 192.314 137.245 192.314H147.646C150.304 192.314 151.633 191.078 151.633 188.585V179.543C151.633 179.389 151.592 179.176 151.425 179.001C151.238 178.829 151.011 178.791 150.823 178.791H148.996C148.519 178.791 148.186 179.098 148.186 179.543V188.41C148.186 189.164 147.958 189.358 147.147 189.358H137.763C136.953 189.358 136.704 189.164 136.704 188.41V179.543C136.704 179.389 136.663 179.176 136.475 179.001C136.311 178.829 136.081 178.791 135.896 178.791H134.068Z" fill="#0D6EFD"/>
<path d="M159.257 178.791C158.78 178.791 158.447 179.098 158.447 179.543V191.56C158.447 192.004 158.78 192.314 159.257 192.314H161.083C161.271 192.314 161.5 192.274 161.665 192.101C161.851 191.927 161.893 191.714 161.893 191.56V179.543C161.893 179.389 161.851 179.176 161.665 179.001C161.5 178.829 161.271 178.791 161.083 178.791H159.257Z" fill="#0D6EFD"/>
<path d="M168.484 178.791C168.006 178.791 167.674 179.098 167.674 179.543V180.991C167.674 181.166 167.715 181.379 167.903 181.552C168.09 181.707 168.317 181.745 168.484 181.745H174.983V191.56C174.983 191.714 175.024 191.927 175.21 192.101C175.377 192.274 175.605 192.314 175.791 192.314H177.576C177.764 192.314 177.993 192.274 178.158 192.101C178.346 191.927 178.387 191.714 178.387 191.56V181.745H184.865C185.343 181.745 185.696 181.456 185.696 180.991V179.543C185.696 179.37 185.612 179.176 185.468 179.001C185.28 178.848 185.051 178.791 184.865 178.791H168.484Z" fill="#0D6EFD"/>
<path d="M190.52 179.195C190.457 179.33 190.457 179.446 190.499 179.543C190.52 179.717 190.624 179.833 190.728 179.93C190.748 179.93 192.491 181.745 194.319 183.542L197.931 187.174V191.56C197.931 192.004 198.264 192.314 198.741 192.314H200.527C200.714 192.314 200.941 192.274 201.108 192.101C201.294 191.927 201.337 191.714 201.337 191.56V187.174L208.583 179.911C208.664 179.833 208.768 179.717 208.789 179.543C208.831 179.446 208.831 179.33 208.768 179.195C208.707 179.06 208.603 178.982 208.52 178.926C208.374 178.829 208.23 178.791 208.042 178.791H205.903C205.426 178.791 205.177 179.041 205.012 179.195L204.181 180.046L202.332 181.901L199.655 184.586L194.277 179.214C194.091 179.041 193.842 178.791 193.364 178.791H191.226C190.913 178.791 190.624 178.944 190.52 179.195Z" fill="#0D6EFD"/>
</g>
<path fill-rule="evenodd" clip-rule="evenodd" d="M73.1476 221.399L80.6953 225.543V232.129H73.3147C72.7828 232.129 72.3516 232.56 72.3516 233.092V234.617L66.6393 230.72C65.9637 230.259 65.1648 230.012 64.347 230.012H57.0613V225.466C57.0613 223.22 58.8824 221.399 61.1288 221.399H73.1476ZM73.4954 220.043L73.3558 219.966L73.3137 220.043H61.1288C58.1336 220.043 55.7055 222.471 55.7055 225.466V253.407C55.7055 256.402 58.1336 258.83 61.1288 258.83H101.698C104.693 258.83 107.121 256.402 107.121 253.407V225.466C107.121 222.471 104.693 220.043 101.698 220.043H89.4327L89.3906 219.966L89.251 220.043H73.4954ZM75.9644 221.399H86.782L81.3732 224.369L75.9644 221.399ZM89.5988 221.399L82.0511 225.543V232.129H89.4317C89.9636 232.129 90.3948 232.56 90.3948 233.092V234.617L96.1071 230.72C96.7827 230.259 97.5816 230.012 98.3994 230.012H105.765V225.466C105.765 223.22 103.944 221.399 101.698 221.399H89.5988ZM105.765 231.368H98.3994C97.8542 231.368 97.3216 231.533 96.8712 231.84L90.3948 236.258V238.945H105.765V231.368ZM105.765 240.301H90.3948V242.815L96.8565 247.651C97.3254 248.002 97.8954 248.191 98.4811 248.191H105.765V240.301ZM105.765 249.547H98.4811C97.6025 249.547 96.7476 249.263 96.0442 248.736L90.3948 244.509V246.052C90.3948 246.584 89.9636 247.015 89.4317 247.015H82.0511V253.081L90.0432 257.469L90.0407 257.474H101.698C103.944 257.474 105.765 255.653 105.765 253.407V249.547ZM87.235 257.474L81.3732 254.255L75.5114 257.474H87.235ZM72.7057 257.474L72.7032 257.469L80.6953 253.081V247.015H73.3147C72.7828 247.015 72.3516 246.584 72.3516 246.052V244.509L66.7022 248.736C65.9988 249.263 65.1439 249.547 64.2653 249.547H57.0613V253.407C57.0613 255.653 58.8824 257.474 61.1288 257.474H72.7057ZM57.0613 248.191H64.2653C64.851 248.191 65.421 248.002 65.8899 247.651L72.3516 242.815V240.301H57.0613V248.191ZM57.0613 238.945H72.3516V236.258L65.8752 231.84C65.4248 231.533 64.8922 231.368 64.347 231.368H57.0613V238.945ZM73.7074 235.9V233.485H81.3732H89.039V235.9V239.623V243.155V245.659H81.3732H73.7074V243.155V239.623V235.9Z" fill="url(#paint1_radial_6603_12796)"/>
<defs>
<filter id="filter0_b_6603_12796" x="14.4418" y="132.548" width="363.116" height="243.216" filterUnits="userSpaceOnUse" color-interpolation-filters="sRGB">
<feFlood flood-opacity="0" result="BackgroundImageFix"/>
<feGaussianBlur in="BackgroundImageFix" stdDeviation="6.77909"/>
<feComposite in2="SourceAlpha" operator="in" result="effect1_backgroundBlur_6603_12796"/>
<feBlend mode="normal" in="SourceGraphic" in2="effect1_backgroundBlur_6603_12796" result="shape"/>
</filter>
<filter id="filter1_d_6603_12796" x="227.75" y="264.919" width="128.895" height="88.4607" filterUnits="userSpaceOnUse" color-interpolation-filters="sRGB">
<feFlood flood-opacity="0" result="BackgroundImageFix"/>
<feColorMatrix in="SourceAlpha" type="matrix" values="0 0 0 0 0 0 0 0 0 0 0 0 0 0 0 0 0 0 127 0" result="hardAlpha"/>
<feOffset dy="2.71164"/>
<feGaussianBlur stdDeviation="6.77909"/>
<feComposite in2="hardAlpha" operator="out"/>
<feColorMatrix type="matrix" values="0 0 0 0 0.14902 0 0 0 0 0.32549 0 0 0 0 0.431373 0 0 0 0.2 0"/>
<feBlend mode="normal" in2="BackgroundImageFix" result="effect1_dropShadow_6603_12796"/>
<feBlend mode="normal" in="SourceGraphic" in2="effect1_dropShadow_6603_12796" result="shape"/>
</filter>
<filter id="filter2_d_6603_12796" x="227.75" y="264.919" width="128.895" height="88.4607" filterUnits="userSpaceOnUse" color-interpolation-filters="sRGB">
<feFlood flood-opacity="0" result="BackgroundImageFix"/>
<feColorMatrix in="SourceAlpha" type="matrix" values="0 0 0 0 0 0 0 0 0 0 0 0 0 0 0 0 0 0 127 0" result="hardAlpha"/>
<feOffset dy="2.71164"/>
<feGaussianBlur stdDeviation="6.77909"/>
<feComposite in2="hardAlpha" operator="out"/>
<feColorMatrix type="matrix" values="0 0 0 0 0.14902 0 0 0 0 0.32549 0 0 0 0 0.431373 0 0 0 0.2 0"/>
<feBlend mode="normal" in2="BackgroundImageFix" result="effect1_dropShadow_6603_12796"/>
<feBlend mode="normal" in="SourceGraphic" in2="effect1_dropShadow_6603_12796" result="shape"/>
</filter>
<radialGradient id="paint0_radial_6603_12796" cx="0" cy="0" r="1" gradientUnits="userSpaceOnUse" gradientTransform="translate(137.751 249.979) rotate(81.2142) scale(209.062 279.987)">
<stop stop-color="#0D6EFD" stop-opacity="0.6"/>
<stop offset="1" stop-color="#0D6EFD" stop-opacity="0"/>
</radialGradient>
<radialGradient id="paint1_radial_6603_12796" cx="0" cy="0" r="1" gradientUnits="userSpaceOnUse" gradientTransform="translate(49.844 261.94) rotate(-36.5428) scale(83.113 79.6965)">
<stop stop-color="#0D6EFD" stop-opacity="0.24"/>
<stop offset="1" stop-color="#0D6EFD" stop-opacity="0.53"/>
</radialGradient>
<clipPath id="clip0_6603_12796">
<rect width="150.573" height="16.7303" fill="white" transform="translate(58.9961 178.218)"/>
</clipPath>
</defs>
</svg>
