<svg width="390" height="376" viewBox="0 0 390 376" fill="none" xmlns="http://www.w3.org/2000/svg">
<rect opacity="0.15" x="-12" y="47.2324" width="412.668" height="273.455" rx="9.9438" fill="#0D6EFD" fill-opacity="0.15"/>
<path d="M71.2803 12.4298C71.2803 5.565 76.8453 0 83.71 0H305.581C312.446 0 318.011 5.56499 318.011 12.4298V363.57C318.011 370.435 312.446 376 305.581 376H83.71C76.8453 376 71.2803 370.435 71.2803 363.57V12.4298Z" fill="#0D6EFD" fill-opacity="0.15"/>
<path d="M71.7524 12.4298C71.7524 5.82577 77.106 0.472169 83.71 0.472169H305.581C312.185 0.472169 317.539 5.82576 317.539 12.4298V363.57C317.539 370.174 312.185 375.528 305.581 375.528H83.71C77.106 375.528 71.7524 370.174 71.7524 363.57V12.4298Z" stroke="#0D6EFD" stroke-opacity="0.15" stroke-width="0.944338"/>
<path d="M143.933 87.5735C143.933 88.2447 143.713 88.7854 143.273 89.1956C142.833 89.6058 142.173 89.8109 141.293 89.8109H139.715V93.1445H138.932V85.325H141.293C142.165 85.325 142.822 85.5301 143.262 85.9402C143.709 86.3504 143.933 86.8949 143.933 87.5735ZM141.293 89.1397C142.516 89.1397 143.127 88.6176 143.127 87.5735C143.127 87.0515 142.982 86.6562 142.691 86.3877C142.4 86.1192 141.934 85.985 141.293 85.985H139.715V89.1397H141.293ZM150.538 87.0366V93.1445H149.755V92.0706C149.576 92.451 149.3 92.7418 148.927 92.9432C148.554 93.1445 148.137 93.2452 147.674 93.2452C146.943 93.2452 146.347 93.0215 145.884 92.574C145.422 92.1191 145.191 91.4628 145.191 90.6051V87.0366H145.963V90.5156C145.963 91.1794 146.127 91.6865 146.455 92.037C146.79 92.3876 147.245 92.5628 147.82 92.5628C148.409 92.5628 148.879 92.3764 149.229 92.0035C149.58 91.6306 149.755 91.0824 149.755 90.359V87.0366H150.538ZM153.109 88.1217C153.28 87.7413 153.541 87.4467 153.892 87.2379C154.25 87.0291 154.686 86.9247 155.201 86.9247V87.7413H154.988C154.421 87.7413 153.967 87.8942 153.623 88.2C153.28 88.5057 153.109 89.0166 153.109 89.7326V93.1445H152.326V87.0366H153.109V88.1217ZM156.021 90.0905C156.021 89.4566 156.148 88.9047 156.401 88.4349C156.655 87.9576 157.005 87.5922 157.453 87.3386C157.9 87.0776 158.411 86.9471 158.985 86.9471C159.739 86.9471 160.358 87.1335 160.842 87.5064C161.335 87.8793 161.652 88.3864 161.793 89.0278H160.954C160.85 88.5878 160.622 88.2447 160.272 87.9986C159.929 87.745 159.5 87.6183 158.985 87.6183C158.575 87.6183 158.206 87.7115 157.878 87.8979C157.55 88.0844 157.289 88.364 157.095 88.7369C156.908 89.1024 156.815 89.5536 156.815 90.0905C156.815 90.6275 156.908 91.0824 157.095 91.4553C157.289 91.8282 157.55 92.1079 157.878 92.2943C158.206 92.4808 158.575 92.574 158.985 92.574C159.5 92.574 159.929 92.451 160.272 92.2048C160.622 91.9513 160.85 91.6008 160.954 91.1533H161.793C161.652 91.7797 161.335 92.2831 160.842 92.6635C160.35 93.0439 159.731 93.234 158.985 93.234C158.411 93.234 157.9 93.1072 157.453 92.8537C157.005 92.5927 156.655 92.2272 156.401 91.7574C156.148 91.2801 156.021 90.7245 156.021 90.0905ZM166.148 86.9247C166.61 86.9247 167.024 87.0216 167.39 87.2155C167.763 87.4094 168.053 87.7078 168.262 88.1105C168.479 88.5057 168.587 88.9905 168.587 89.5648V93.1445H167.815V89.6543C167.815 88.9905 167.647 88.4834 167.311 88.1329C166.983 87.7823 166.532 87.6071 165.958 87.6071C165.369 87.6071 164.899 87.7935 164.548 88.1664C164.198 88.5393 164.023 89.0875 164.023 89.8109V93.1445H163.239V84.8663H164.023V88.0769C164.216 87.7115 164.5 87.4281 164.873 87.2267C165.253 87.0254 165.678 86.9247 166.148 86.9247ZM169.961 90.0794C169.961 89.4529 170.084 88.9047 170.33 88.4349C170.583 87.9576 170.93 87.5922 171.37 87.3386C171.818 87.0776 172.321 86.9471 172.88 86.9471C173.462 86.9471 173.962 87.0813 174.379 87.3498C174.804 87.6183 175.11 87.9613 175.297 88.379V87.0366H176.08V93.1445H175.297V91.7909C175.103 92.2086 174.793 92.5554 174.368 92.8313C173.951 93.0998 173.451 93.234 172.869 93.234C172.317 93.234 171.818 93.1035 171.37 92.8425C170.93 92.5815 170.583 92.2123 170.33 91.735C170.084 91.2577 169.961 90.7058 169.961 90.0794ZM175.297 90.0905C175.297 89.5983 175.196 89.1658 174.995 88.7929C174.793 88.42 174.517 88.1329 174.167 87.9315C173.824 87.7301 173.443 87.6295 173.026 87.6295C172.593 87.6295 172.205 87.7264 171.862 87.9203C171.519 88.1142 171.247 88.3976 171.046 88.7705C170.852 89.1359 170.755 89.5722 170.755 90.0794C170.755 90.579 170.852 91.019 171.046 91.3994C171.247 91.7723 171.519 92.0594 171.862 92.2608C172.205 92.4547 172.593 92.5516 173.026 92.5516C173.443 92.5516 173.824 92.451 174.167 92.2496C174.517 92.0482 174.793 91.7611 174.995 91.3882C175.196 91.0153 175.297 90.5828 175.297 90.0905ZM179.971 93.234C179.27 93.234 178.695 93.0737 178.248 92.753C177.808 92.4248 177.562 91.9811 177.509 91.4218H178.315C178.352 91.7648 178.513 92.0445 178.796 92.2608C179.087 92.4696 179.475 92.574 179.959 92.574C180.384 92.574 180.716 92.4733 180.955 92.272C181.201 92.0706 181.324 91.8208 181.324 91.5224C181.324 91.3136 181.257 91.1421 181.123 91.0079C180.989 90.8736 180.817 90.7692 180.608 90.6946C180.407 90.6126 180.131 90.5268 179.78 90.4373C179.325 90.318 178.956 90.1987 178.673 90.0794C178.39 89.96 178.147 89.7848 177.946 89.5536C177.752 89.3149 177.655 88.998 177.655 88.6027C177.655 88.3044 177.744 88.0284 177.923 87.7749C178.102 87.5213 178.356 87.3199 178.684 87.1708C179.012 87.0216 179.385 86.9471 179.803 86.9471C180.459 86.9471 180.989 87.1149 181.391 87.4505C181.794 87.7786 182.01 88.2335 182.04 88.8152H181.257C181.235 88.4573 181.093 88.1701 180.832 87.9539C180.578 87.7301 180.228 87.6183 179.78 87.6183C179.385 87.6183 179.064 87.7115 178.818 87.8979C178.572 88.0844 178.449 88.3156 178.449 88.5915C178.449 88.8302 178.52 89.0278 178.662 89.1844C178.811 89.3336 178.994 89.4529 179.21 89.5424C179.426 89.6244 179.717 89.7176 180.082 89.8221C180.522 89.9414 180.873 90.057 181.134 90.1688C181.395 90.2807 181.619 90.4448 181.805 90.6611C181.992 90.8773 182.089 91.1645 182.096 91.5224C182.096 91.8506 182.007 92.1452 181.828 92.4062C181.649 92.6598 181.399 92.8611 181.078 93.0103C180.757 93.1594 180.388 93.234 179.971 93.234ZM189.096 89.7773C189.096 90.0458 189.089 90.2509 189.074 90.3926H184.006C184.029 90.855 184.141 91.2502 184.342 91.5784C184.543 91.9065 184.808 92.1564 185.136 92.3279C185.464 92.492 185.822 92.574 186.21 92.574C186.717 92.574 187.142 92.451 187.485 92.2048C187.836 91.9587 188.067 91.6269 188.179 91.2092H189.007C188.858 91.8058 188.537 92.2943 188.045 92.6747C187.56 93.0476 186.949 93.234 186.21 93.234C185.636 93.234 185.121 93.1072 184.666 92.8537C184.211 92.5927 183.854 92.2272 183.592 91.7574C183.339 91.2801 183.212 90.7245 183.212 90.0905C183.212 89.4566 183.339 88.901 183.592 88.4237C183.846 87.9464 184.2 87.581 184.655 87.3274C185.11 87.0738 185.628 86.9471 186.21 86.9471C186.792 86.9471 187.299 87.0738 187.732 87.3274C188.172 87.581 188.507 87.924 188.738 88.3566C188.977 88.7817 189.096 89.2553 189.096 89.7773ZM188.302 89.7549C188.31 89.3 188.216 88.9122 188.022 88.5915C187.836 88.2708 187.579 88.0284 187.251 87.8644C186.922 87.7003 186.564 87.6183 186.177 87.6183C185.595 87.6183 185.099 87.8047 184.689 88.1776C184.279 88.5505 184.051 89.0763 184.006 89.7549H188.302ZM193.241 90.0905C193.241 89.4566 193.368 88.9047 193.621 88.4349C193.875 87.9576 194.225 87.5922 194.673 87.3386C195.12 87.0776 195.631 86.9471 196.205 86.9471C196.959 86.9471 197.578 87.1335 198.062 87.5064C198.555 87.8793 198.872 88.3864 199.013 89.0278H198.174C198.07 88.5878 197.842 88.2447 197.492 87.9986C197.149 87.745 196.72 87.6183 196.205 87.6183C195.795 87.6183 195.426 87.7115 195.098 87.8979C194.77 88.0844 194.509 88.364 194.315 88.7369C194.128 89.1024 194.035 89.5536 194.035 90.0905C194.035 90.6275 194.128 91.0824 194.315 91.4553C194.509 91.8282 194.77 92.1079 195.098 92.2943C195.426 92.4808 195.795 92.574 196.205 92.574C196.72 92.574 197.149 92.451 197.492 92.2048C197.842 91.9513 198.07 91.6008 198.174 91.1533H199.013C198.872 91.7797 198.555 92.2831 198.062 92.6635C197.57 93.0439 196.951 93.234 196.205 93.234C195.631 93.234 195.12 93.1072 194.673 92.8537C194.225 92.5927 193.875 92.2272 193.621 91.7574C193.368 91.2801 193.241 90.7245 193.241 90.0905ZM203.133 93.234C202.559 93.234 202.041 93.1072 201.578 92.8537C201.123 92.5927 200.762 92.2272 200.493 91.7574C200.232 91.2801 200.102 90.7245 200.102 90.0905C200.102 89.4566 200.236 88.9047 200.504 88.4349C200.773 87.9576 201.138 87.5922 201.601 87.3386C202.063 87.0776 202.581 86.9471 203.156 86.9471C203.73 86.9471 204.248 87.0776 204.71 87.3386C205.18 87.5922 205.546 87.9576 205.807 88.4349C206.075 88.9047 206.21 89.4566 206.21 90.0905C206.21 90.717 206.075 91.2689 205.807 91.7462C205.538 92.2235 205.169 92.5927 204.699 92.8537C204.229 93.1072 203.707 93.234 203.133 93.234ZM203.133 92.5516C203.536 92.5516 203.909 92.4621 204.252 92.2831C204.595 92.0967 204.871 91.8208 205.08 91.4553C205.296 91.0824 205.404 90.6275 205.404 90.0905C205.404 89.5536 205.3 89.1024 205.091 88.7369C204.882 88.364 204.606 88.0881 204.263 87.9091C203.92 87.7227 203.547 87.6295 203.144 87.6295C202.742 87.6295 202.369 87.7227 202.026 87.9091C201.683 88.0881 201.407 88.364 201.198 88.7369C200.996 89.1024 200.896 89.5536 200.896 90.0905C200.896 90.6275 200.996 91.0824 201.198 91.4553C201.407 91.8208 201.679 92.0967 202.014 92.2831C202.358 92.4621 202.73 92.5516 203.133 92.5516ZM214.908 86.9247C215.624 86.9247 216.206 87.1521 216.654 87.6071C217.108 88.0545 217.336 88.7071 217.336 89.5648V93.1445H216.564V89.6543C216.564 88.9905 216.404 88.4834 216.083 88.1329C215.762 87.7823 215.326 87.6071 214.774 87.6071C214.2 87.6071 213.741 87.7973 213.398 88.1776C213.055 88.558 212.884 89.1098 212.884 89.8332V93.1445H212.112V89.6543C212.112 88.9905 211.951 88.4834 211.631 88.1329C211.31 87.7823 210.87 87.6071 210.311 87.6071C209.736 87.6071 209.278 87.7973 208.935 88.1776C208.592 88.558 208.42 89.1098 208.42 89.8332V93.1445H207.637V87.0366H208.42V88.0881C208.614 87.7078 208.89 87.4206 209.248 87.2267C209.606 87.0254 210.005 86.9247 210.445 86.9247C210.974 86.9247 211.437 87.0515 211.832 87.305C212.235 87.5586 212.526 87.9315 212.705 88.4237C212.869 87.939 213.148 87.5698 213.544 87.3162C213.946 87.0552 214.401 86.9247 214.908 86.9247ZM219.847 88.379C220.041 87.9688 220.347 87.6295 220.764 87.361C221.189 87.085 221.693 86.9471 222.274 86.9471C222.826 86.9471 223.322 87.0776 223.762 87.3386C224.21 87.5922 224.557 87.9576 224.803 88.4349C225.056 88.9047 225.183 89.4529 225.183 90.0794C225.183 90.7058 225.056 91.2577 224.803 91.735C224.557 92.2123 224.21 92.5815 223.762 92.8425C223.322 93.1035 222.826 93.234 222.274 93.234C221.7 93.234 221.2 93.0998 220.775 92.8313C220.35 92.5554 220.041 92.2123 219.847 91.8021V96.0307H219.075V87.0366H219.847V88.379ZM224.389 90.0794C224.389 89.5722 224.288 89.1359 224.087 88.7705C223.893 88.3976 223.624 88.1142 223.281 87.9203C222.938 87.7264 222.55 87.6295 222.118 87.6295C221.7 87.6295 221.316 87.7301 220.966 87.9315C220.623 88.1329 220.35 88.42 220.149 88.7929C219.948 89.1658 219.847 89.5983 219.847 90.0905C219.847 90.5828 219.948 91.0153 220.149 91.3882C220.35 91.7611 220.623 92.0482 220.966 92.2496C221.316 92.451 221.7 92.5516 222.118 92.5516C222.55 92.5516 222.938 92.4547 223.281 92.2608C223.624 92.0594 223.893 91.7723 224.087 91.3994C224.288 91.019 224.389 90.579 224.389 90.0794ZM227.407 84.8663V93.1445H226.624V84.8663H227.407ZM234.707 89.7773C234.707 90.0458 234.699 90.2509 234.684 90.3926H229.617C229.639 90.855 229.751 91.2502 229.952 91.5784C230.154 91.9065 230.418 92.1564 230.746 92.3279C231.075 92.492 231.433 92.574 231.82 92.574C232.327 92.574 232.753 92.451 233.096 92.2048C233.446 91.9587 233.677 91.6269 233.789 91.2092H234.617C234.468 91.8058 234.147 92.2943 233.655 92.6747C233.17 93.0476 232.559 93.234 231.82 93.234C231.246 93.234 230.731 93.1072 230.277 92.8537C229.822 92.5927 229.464 92.2272 229.203 91.7574C228.949 91.2801 228.822 90.7245 228.822 90.0905C228.822 89.4566 228.949 88.901 229.203 88.4237C229.456 87.9464 229.81 87.581 230.265 87.3274C230.72 87.0738 231.239 86.9471 231.82 86.9471C232.402 86.9471 232.909 87.0738 233.342 87.3274C233.782 87.581 234.117 87.924 234.349 88.3566C234.587 88.7817 234.707 89.2553 234.707 89.7773ZM233.912 89.7549C233.92 89.3 233.826 88.9122 233.633 88.5915C233.446 88.2708 233.189 88.0284 232.861 87.8644C232.533 87.7003 232.175 87.6183 231.787 87.6183C231.205 87.6183 230.709 87.8047 230.299 88.1776C229.889 88.5505 229.661 89.0763 229.617 89.7549H233.912ZM237.157 87.6966V91.4889C237.157 91.8618 237.228 92.1191 237.37 92.2608C237.511 92.4025 237.761 92.4733 238.119 92.4733H238.835V93.1445H237.996C237.444 93.1445 237.034 93.0177 236.766 92.7642C236.497 92.5032 236.363 92.0781 236.363 91.4889V87.6966H235.513V87.0366H236.363V85.504H237.157V87.0366H238.835V87.6966H237.157ZM245.653 89.7773C245.653 90.0458 245.646 90.2509 245.631 90.3926H240.563C240.585 90.855 240.697 91.2502 240.899 91.5784C241.1 91.9065 241.365 92.1564 241.693 92.3279C242.021 92.492 242.379 92.574 242.767 92.574C243.274 92.574 243.699 92.451 244.042 92.2048C244.393 91.9587 244.624 91.6269 244.736 91.2092H245.563C245.414 91.8058 245.094 92.2943 244.601 92.6747C244.117 93.0476 243.505 93.234 242.767 93.234C242.193 93.234 241.678 93.1072 241.223 92.8537C240.768 92.5927 240.41 92.2272 240.149 91.7574C239.895 91.2801 239.769 90.7245 239.769 90.0905C239.769 89.4566 239.895 88.901 240.149 88.4237C240.403 87.9464 240.757 87.581 241.212 87.3274C241.667 87.0738 242.185 86.9471 242.767 86.9471C243.348 86.9471 243.856 87.0738 244.288 87.3274C244.728 87.581 245.064 87.924 245.295 88.3566C245.534 88.7817 245.653 89.2553 245.653 89.7773ZM244.859 89.7549C244.866 89.3 244.773 88.9122 244.579 88.5915C244.393 88.2708 244.135 88.0284 243.807 87.8644C243.479 87.7003 243.121 87.6183 242.733 87.6183C242.151 87.6183 241.656 87.8047 241.245 88.1776C240.835 88.5505 240.608 89.0763 240.563 89.7549H244.859ZM246.728 90.0794C246.728 89.4529 246.854 88.9047 247.108 88.4349C247.362 87.9576 247.708 87.5922 248.148 87.3386C248.596 87.0776 249.099 86.9471 249.659 86.9471C250.196 86.9471 250.68 87.0776 251.113 87.3386C251.545 87.5996 251.862 87.939 252.064 88.3566V84.8663H252.847V93.1445H252.064V91.7797C251.877 92.2048 251.572 92.5554 251.146 92.8313C250.721 93.0998 250.222 93.234 249.647 93.234C249.088 93.234 248.585 93.1035 248.137 92.8425C247.697 92.5815 247.35 92.2123 247.097 91.735C246.851 91.2577 246.728 90.7058 246.728 90.0794ZM252.064 90.0905C252.064 89.5983 251.963 89.1658 251.762 88.7929C251.56 88.42 251.284 88.1329 250.934 87.9315C250.591 87.7301 250.21 87.6295 249.793 87.6295C249.36 87.6295 248.972 87.7264 248.629 87.9203C248.286 88.1142 248.014 88.3976 247.813 88.7705C247.619 89.1359 247.522 89.5722 247.522 90.0794C247.522 90.579 247.619 91.019 247.813 91.3994C248.014 91.7723 248.286 92.0594 248.629 92.2608C248.972 92.4547 249.36 92.5516 249.793 92.5516C250.21 92.5516 250.591 92.451 250.934 92.2496C251.284 92.0482 251.56 91.7611 251.762 91.3882C251.963 91.0153 252.064 90.5828 252.064 90.0905Z" fill="#CCD2D7"/>
<path d="M170.506 342.516V350.291H169.231V344.966L166.859 350.291H165.976L163.593 344.966V350.291H162.317V342.516H163.693L166.423 348.613L169.141 342.516H170.506ZM177.731 344.127L173.95 353.188H172.63L173.883 350.19L171.455 344.127H172.876L174.61 348.826L176.411 344.127H177.731ZM182.875 345.033C183.091 344.75 183.386 344.511 183.758 344.317C184.131 344.123 184.553 344.026 185.023 344.026C185.559 344.026 186.048 344.161 186.488 344.429C186.935 344.69 187.286 345.059 187.54 345.537C187.793 346.014 187.92 346.562 187.92 347.181C187.92 347.8 187.793 348.356 187.54 348.848C187.286 349.333 186.935 349.713 186.488 349.989C186.048 350.257 185.559 350.392 185.023 350.392C184.553 350.392 184.135 350.298 183.77 350.112C183.404 349.918 183.106 349.679 182.875 349.396V353.222H181.599V344.127H182.875V345.033ZM186.622 347.181C186.622 346.756 186.533 346.391 186.354 346.085C186.182 345.772 185.951 345.537 185.66 345.38C185.377 345.216 185.071 345.134 184.743 345.134C184.422 345.134 184.116 345.216 183.826 345.38C183.542 345.544 183.311 345.783 183.132 346.096C182.96 346.409 182.875 346.778 182.875 347.203C182.875 347.629 182.96 348.001 183.132 348.322C183.311 348.635 183.542 348.874 183.826 349.038C184.116 349.202 184.422 349.284 184.743 349.284C185.071 349.284 185.377 349.202 185.66 349.038C185.951 348.867 186.182 348.62 186.354 348.3C186.533 347.979 186.622 347.606 186.622 347.181ZM191.855 350.392C191.273 350.392 190.747 350.261 190.277 350C189.807 349.732 189.438 349.359 189.17 348.881C188.901 348.397 188.767 347.837 188.767 347.203C188.767 346.577 188.905 346.021 189.181 345.537C189.457 345.052 189.834 344.679 190.311 344.418C190.788 344.157 191.321 344.026 191.911 344.026C192.5 344.026 193.033 344.157 193.51 344.418C193.988 344.679 194.364 345.052 194.64 345.537C194.916 346.021 195.054 346.577 195.054 347.203C195.054 347.83 194.912 348.386 194.629 348.87C194.346 349.355 193.958 349.732 193.466 350C192.981 350.261 192.444 350.392 191.855 350.392ZM191.855 349.284C192.183 349.284 192.489 349.206 192.772 349.049C193.063 348.893 193.298 348.658 193.477 348.345C193.656 348.031 193.745 347.651 193.745 347.203C193.745 346.756 193.659 346.379 193.488 346.074C193.316 345.76 193.089 345.525 192.806 345.369C192.522 345.212 192.216 345.134 191.888 345.134C191.56 345.134 191.254 345.212 190.971 345.369C190.695 345.525 190.475 345.76 190.311 346.074C190.147 346.379 190.065 346.756 190.065 347.203C190.065 347.867 190.233 348.382 190.568 348.747C190.911 349.105 191.34 349.284 191.855 349.284ZM197.59 345.022C197.777 344.709 198.023 344.466 198.328 344.295C198.642 344.116 199.011 344.026 199.436 344.026V345.346H199.111C198.612 345.346 198.231 345.473 197.97 345.727C197.717 345.98 197.59 346.42 197.59 347.047V350.291H196.315V344.127H197.59V345.022ZM202.096 345.167V348.579C202.096 348.811 202.148 348.978 202.253 349.083C202.364 349.18 202.551 349.228 202.812 349.228H203.595V350.291H202.588C202.014 350.291 201.574 350.157 201.268 349.888C200.962 349.62 200.81 349.184 200.81 348.579V345.167H200.082V344.127H200.81V342.595H202.096V344.127H203.595V345.167H202.096ZM207.355 345.167H206.214V350.291H204.927V345.167H204.2V344.127H204.927V343.691C204.927 342.982 205.113 342.468 205.486 342.147C205.867 341.819 206.46 341.655 207.265 341.655V342.718C206.877 342.718 206.605 342.792 206.448 342.941C206.292 343.083 206.214 343.333 206.214 343.691V344.127H207.355V345.167ZM211.158 350.392C210.577 350.392 210.051 350.261 209.581 350C209.111 349.732 208.742 349.359 208.474 348.881C208.205 348.397 208.071 347.837 208.071 347.203C208.071 346.577 208.209 346.021 208.485 345.537C208.761 345.052 209.137 344.679 209.615 344.418C210.092 344.157 210.625 344.026 211.214 344.026C211.804 344.026 212.337 344.157 212.814 344.418C213.291 344.679 213.668 345.052 213.944 345.537C214.22 346.021 214.358 346.577 214.358 347.203C214.358 347.83 214.216 348.386 213.933 348.87C213.649 349.355 213.262 349.732 212.769 350C212.285 350.261 211.748 350.392 211.158 350.392ZM211.158 349.284C211.487 349.284 211.792 349.206 212.076 349.049C212.367 348.893 212.602 348.658 212.78 348.345C212.959 348.031 213.049 347.651 213.049 347.203C213.049 346.756 212.963 346.379 212.792 346.074C212.62 345.76 212.393 345.525 212.109 345.369C211.826 345.212 211.52 345.134 211.192 345.134C210.864 345.134 210.558 345.212 210.275 345.369C209.999 345.525 209.779 345.76 209.615 346.074C209.451 346.379 209.369 346.756 209.369 347.203C209.369 347.867 209.536 348.382 209.872 348.747C210.215 349.105 210.644 349.284 211.158 349.284ZM216.894 342.013V350.291H215.619V342.013H216.894ZM219.217 343.31C218.986 343.31 218.792 343.232 218.635 343.076C218.479 342.919 218.4 342.725 218.4 342.494C218.4 342.263 218.479 342.069 218.635 341.912C218.792 341.756 218.986 341.677 219.217 341.677C219.441 341.677 219.631 341.756 219.788 341.912C219.944 342.069 220.022 342.263 220.022 342.494C220.022 342.725 219.944 342.919 219.788 343.076C219.631 343.232 219.441 343.31 219.217 343.31ZM219.843 344.127V350.291H218.568V344.127H219.843ZM224.191 350.392C223.61 350.392 223.084 350.261 222.614 350C222.144 349.732 221.775 349.359 221.507 348.881C221.238 348.397 221.104 347.837 221.104 347.203C221.104 346.577 221.242 346.021 221.518 345.537C221.794 345.052 222.17 344.679 222.648 344.418C223.125 344.157 223.658 344.026 224.247 344.026C224.837 344.026 225.37 344.157 225.847 344.418C226.324 344.679 226.701 345.052 226.977 345.537C227.253 346.021 227.391 346.577 227.391 347.203C227.391 347.83 227.249 348.386 226.966 348.87C226.682 349.355 226.295 349.732 225.802 350C225.318 350.261 224.781 350.392 224.191 350.392ZM224.191 349.284C224.52 349.284 224.825 349.206 225.109 349.049C225.4 348.893 225.635 348.658 225.814 348.345C225.993 348.031 226.082 347.651 226.082 347.203C226.082 346.756 225.996 346.379 225.825 346.074C225.653 345.76 225.426 345.525 225.142 345.369C224.859 345.212 224.553 345.134 224.225 345.134C223.897 345.134 223.591 345.212 223.308 345.369C223.032 345.525 222.812 345.76 222.648 346.074C222.484 346.379 222.402 346.756 222.402 347.203C222.402 347.867 222.569 348.382 222.905 348.747C223.248 349.105 223.677 349.284 224.191 349.284Z" fill="#FCFDFD"/>
<rect x="81.5344" y="332.807" width="226.221" height="27.9669" rx="8.39008" stroke="#1269E8" stroke-width="0.621488"/>
<path opacity="0.15" fill-rule="evenodd" clip-rule="evenodd" d="M83.7109 183.647C83.7109 183.475 83.9141 183.336 84.1647 183.336H305.128C305.379 183.336 305.582 183.475 305.582 183.647C305.582 183.818 305.379 183.957 305.128 183.957H84.1647C83.9141 183.957 83.7109 183.818 83.7109 183.647Z" fill="#99A6AF"/>
<path opacity="0.15" fill-rule="evenodd" clip-rule="evenodd" d="M83.7109 115.283C83.7109 115.112 83.9141 114.973 84.1647 114.973H305.128C305.379 114.973 305.582 115.112 305.582 115.283C305.582 115.455 305.379 115.594 305.128 115.594H84.1647C83.9141 115.594 83.7109 115.455 83.7109 115.283Z" fill="#99A6AF"/>
<path d="M169.02 158.791V166.477H168.517V159.843L165.563 166.477H165.161L162.196 159.843V166.477H161.693V158.791H162.23L165.362 165.817L168.494 158.791H169.02ZM171.127 159.049C171.007 159.049 170.907 159.011 170.825 158.937C170.743 158.855 170.702 158.746 170.702 158.612C170.702 158.485 170.743 158.381 170.825 158.299C170.907 158.217 171.007 158.176 171.127 158.176C171.246 158.176 171.347 158.217 171.429 158.299C171.511 158.381 171.552 158.485 171.552 158.612C171.552 158.746 171.511 158.855 171.429 158.937C171.347 159.011 171.246 159.049 171.127 159.049ZM171.373 160.402V166.477H170.869V160.402H171.373ZM172.905 163.434C172.905 162.807 173.028 162.259 173.274 161.789C173.528 161.319 173.874 160.958 174.314 160.704C174.762 160.451 175.269 160.324 175.836 160.324C176.477 160.324 177.022 160.48 177.469 160.794C177.917 161.107 178.23 161.506 178.409 161.991V160.402H178.912V166.477H178.409V164.877C178.23 165.369 177.913 165.776 177.458 166.096C177.01 166.409 176.47 166.566 175.836 166.566C175.269 166.566 174.762 166.439 174.314 166.186C173.874 165.925 173.528 165.559 173.274 165.089C173.028 164.612 172.905 164.06 172.905 163.434ZM178.409 163.434C178.409 162.904 178.297 162.438 178.073 162.035C177.857 161.625 177.559 161.312 177.178 161.096C176.798 160.872 176.373 160.76 175.903 160.76C175.411 160.76 174.978 160.868 174.605 161.085C174.232 161.293 173.942 161.599 173.733 162.002C173.524 162.405 173.42 162.882 173.42 163.434C173.42 163.986 173.524 164.463 173.733 164.866C173.942 165.268 174.232 165.578 174.605 165.794C174.986 166.01 175.418 166.119 175.903 166.119C176.373 166.119 176.798 166.01 177.178 165.794C177.566 165.57 177.868 165.257 178.084 164.854C178.301 164.444 178.409 163.971 178.409 163.434ZM187.927 160.279C188.621 160.279 189.187 160.503 189.627 160.95C190.067 161.39 190.288 162.047 190.288 162.919V166.477H189.795V162.953C189.795 162.229 189.62 161.677 189.27 161.297C188.926 160.909 188.453 160.715 187.849 160.715C187.222 160.715 186.719 160.932 186.339 161.364C185.958 161.797 185.768 162.423 185.768 163.244V166.477H185.276V162.953C185.276 162.229 185.101 161.677 184.75 161.297C184.407 160.909 183.933 160.715 183.329 160.715C182.703 160.715 182.199 160.932 181.819 161.364C181.439 161.797 181.249 162.423 181.249 163.244V166.477H180.745V160.402H181.249V161.722C181.42 161.245 181.696 160.887 182.076 160.648C182.464 160.402 182.908 160.279 183.408 160.279C183.96 160.279 184.433 160.425 184.828 160.715C185.231 160.999 185.507 161.42 185.656 161.979C185.798 161.42 186.074 160.999 186.484 160.715C186.894 160.425 187.375 160.279 187.927 160.279ZM192.331 159.049C192.212 159.049 192.111 159.011 192.029 158.937C191.947 158.855 191.906 158.746 191.906 158.612C191.906 158.485 191.947 158.381 192.029 158.299C192.111 158.217 192.212 158.176 192.331 158.176C192.451 158.176 192.551 158.217 192.633 158.299C192.715 158.381 192.756 158.485 192.756 158.612C192.756 158.746 192.715 158.855 192.633 158.937C192.551 159.011 192.451 159.049 192.331 159.049ZM192.577 160.402V166.477H192.074V160.402H192.577ZM194.758 165.302L193.707 168.166H193.326L194.177 165.302H194.758ZM203.225 158.623V159.049H199.678V162.326H202.777V162.751H199.678V166.477H199.175V158.623H203.225ZM205.064 166.051H207.984V166.477H204.561V158.623H205.064V166.051ZM212.083 160.604C212.15 159.925 212.411 159.392 212.866 159.004C213.329 158.616 213.936 158.422 214.69 158.422C215.174 158.422 215.588 158.512 215.931 158.691C216.274 158.862 216.535 159.097 216.714 159.395C216.893 159.694 216.983 160.033 216.983 160.413C216.983 160.891 216.837 161.305 216.547 161.655C216.256 161.998 215.812 162.203 215.215 162.27V162.337C215.79 162.427 216.252 162.647 216.603 162.997C216.953 163.348 217.128 163.818 217.128 164.407C217.128 165.033 216.92 165.548 216.502 165.951C216.092 166.346 215.488 166.544 214.69 166.544C213.936 166.544 213.314 166.342 212.821 165.94C212.337 165.537 212.046 164.966 211.949 164.228H212.441C212.531 164.78 212.769 165.231 213.157 165.582C213.545 165.925 214.056 166.096 214.69 166.096C215.331 166.096 215.816 165.936 216.144 165.615C216.48 165.294 216.647 164.881 216.647 164.373C216.647 163.762 216.412 163.303 215.943 162.997C215.48 162.692 214.816 162.539 213.951 162.539H213.739V162.103H213.962C215.648 162.095 216.491 161.543 216.491 160.447C216.491 159.97 216.33 159.586 216.01 159.295C215.696 159.004 215.253 158.858 214.678 158.858C214.119 158.858 213.646 159.008 213.258 159.306C212.877 159.597 212.65 160.029 212.575 160.604H212.083ZM218.572 160.604C218.639 159.925 218.9 159.392 219.355 159.004C219.818 158.616 220.426 158.422 221.179 158.422C221.664 158.422 222.077 158.512 222.421 158.691C222.764 158.862 223.025 159.097 223.204 159.395C223.383 159.694 223.472 160.033 223.472 160.413C223.472 160.891 223.327 161.305 223.036 161.655C222.745 161.998 222.301 162.203 221.705 162.27V162.337C222.279 162.427 222.741 162.647 223.092 162.997C223.442 163.348 223.618 163.818 223.618 164.407C223.618 165.033 223.409 165.548 222.991 165.951C222.581 166.346 221.977 166.544 221.179 166.544C220.426 166.544 219.803 166.342 219.311 165.94C218.826 165.537 218.535 164.966 218.438 164.228H218.93C219.02 164.78 219.258 165.231 219.646 165.582C220.034 165.925 220.545 166.096 221.179 166.096C221.82 166.096 222.305 165.936 222.633 165.615C222.969 165.294 223.137 164.881 223.137 164.373C223.137 163.762 222.902 163.303 222.432 162.997C221.969 162.692 221.306 162.539 220.44 162.539H220.228V162.103H220.452C222.137 162.095 222.98 161.543 222.98 160.447C222.98 159.97 222.82 159.586 222.499 159.295C222.186 159.004 221.742 158.858 221.168 158.858C220.608 158.858 220.135 159.008 219.747 159.306C219.367 159.597 219.139 160.029 219.065 160.604H218.572ZM224.905 166.107C226.307 165.138 227.411 164.202 228.216 163.3C229.029 162.397 229.436 161.532 229.436 160.704C229.436 160.16 229.29 159.716 228.999 159.373C228.716 159.03 228.25 158.858 227.601 158.858C226.952 158.858 226.456 159.056 226.113 159.451C225.77 159.847 225.576 160.369 225.531 161.017H225.039C225.091 160.197 225.345 159.559 225.8 159.104C226.255 158.65 226.855 158.422 227.601 158.422C228.28 158.422 228.835 158.612 229.268 158.993C229.708 159.373 229.928 159.94 229.928 160.693C229.928 161.625 229.499 162.565 228.641 163.512C227.791 164.459 226.818 165.294 225.722 166.018H230.185V166.443H224.905V166.107ZM236.431 158.97H232.135V162.181C232.336 161.897 232.631 161.666 233.019 161.487C233.407 161.301 233.828 161.208 234.283 161.208C234.887 161.208 235.379 161.331 235.76 161.577C236.147 161.815 236.427 162.129 236.599 162.516C236.77 162.904 236.856 163.326 236.856 163.781C236.856 164.288 236.763 164.75 236.576 165.168C236.39 165.578 236.095 165.91 235.692 166.163C235.297 166.409 234.798 166.532 234.193 166.532C233.463 166.532 232.858 166.335 232.381 165.94C231.911 165.537 231.624 164.996 231.52 164.318H232.012C232.124 164.892 232.374 165.332 232.762 165.638C233.149 165.936 233.627 166.085 234.193 166.085C234.917 166.085 235.461 165.876 235.827 165.459C236.192 165.033 236.375 164.478 236.375 163.792C236.375 163.121 236.188 162.595 235.816 162.214C235.45 161.834 234.924 161.644 234.238 161.644C233.768 161.644 233.347 161.748 232.974 161.957C232.609 162.166 232.325 162.453 232.124 162.818H231.654V158.523H236.431V158.97ZM238.998 164.396C239.072 164.94 239.27 165.362 239.591 165.66C239.919 165.958 240.359 166.107 240.911 166.107C241.664 166.107 242.234 165.828 242.622 165.268C243.018 164.709 243.215 163.803 243.215 162.55L243.204 162.114C243.092 162.606 242.812 162.997 242.365 163.288C241.925 163.579 241.41 163.725 240.821 163.725C240.016 163.725 239.382 163.486 238.919 163.009C238.457 162.531 238.226 161.871 238.226 161.029C238.226 160.283 238.438 159.664 238.864 159.172C239.296 158.672 239.945 158.422 240.81 158.422C241.899 158.422 242.645 158.769 243.047 159.462C243.458 160.156 243.663 161.122 243.663 162.36C243.663 163.725 243.45 164.765 243.025 165.481C242.6 166.189 241.888 166.544 240.888 166.544C240.187 166.544 239.635 166.35 239.233 165.962C238.83 165.567 238.591 165.045 238.517 164.396H238.998ZM240.877 163.3C241.258 163.3 241.619 163.221 241.962 163.065C242.305 162.901 242.581 162.662 242.79 162.349C243.006 162.035 243.115 161.655 243.115 161.208C243.115 160.782 243.032 160.391 242.868 160.033C242.704 159.675 242.447 159.388 242.097 159.172C241.753 158.955 241.325 158.847 240.81 158.847C240.176 158.847 239.665 159.045 239.277 159.44C238.897 159.828 238.707 160.357 238.707 161.029C238.707 161.752 238.897 162.311 239.277 162.707C239.658 163.102 240.191 163.3 240.877 163.3Z" fill="#99A6AF"/>
<path opacity="0.35" d="M152.518 157.253C151.975 157.344 151.528 157.522 151.094 157.819C150.353 158.326 149.838 159.113 149.65 160.024C149.593 160.294 149.571 160.837 149.605 161.121C149.703 161.932 150.12 162.92 150.809 163.971C151.12 164.445 151.612 165.093 152.007 165.554C152.23 165.811 152.694 166.322 152.817 166.444C152.922 166.546 152.94 166.557 153.011 166.557C153.086 166.557 153.091 166.553 153.323 166.312C154.188 165.407 155.007 164.345 155.522 163.461C156.013 162.617 156.303 161.865 156.401 161.181C156.444 160.872 156.428 160.323 156.366 160.024C156.079 158.638 155.05 157.584 153.693 157.289C153.506 157.247 153.428 157.24 153.07 157.236C152.789 157.231 152.616 157.236 152.518 157.253ZM153.399 159.186C153.576 159.232 153.855 159.377 153.996 159.499C154.694 160.101 154.751 161.158 154.122 161.834C153.663 162.327 152.89 162.457 152.299 162.138C151.891 161.917 151.599 161.537 151.494 161.09C151.446 160.879 151.446 160.573 151.494 160.361C151.571 160.037 151.77 159.711 152.025 159.494C152.16 159.379 152.445 159.23 152.616 159.184C152.849 159.122 153.161 159.122 153.399 159.186Z" fill="#99A6AF"/>
<path d="M109.52 134.315V132.07H113.714V144.756H111.208V134.315H109.52ZM116.12 138.248C116.12 136.241 116.48 134.669 117.199 133.532C117.93 132.395 119.137 131.826 120.819 131.826C122.501 131.826 123.702 132.395 124.421 133.532C125.152 134.669 125.517 136.241 125.517 138.248C125.517 140.266 125.152 141.85 124.421 142.998C123.702 144.147 122.501 144.721 120.819 144.721C119.137 144.721 117.93 144.147 117.199 142.998C116.48 141.85 116.12 140.266 116.12 138.248ZM123.116 138.248C123.116 137.389 123.058 136.67 122.942 136.09C122.837 135.498 122.617 135.017 122.281 134.645C121.956 134.274 121.468 134.089 120.819 134.089C120.169 134.089 119.676 134.274 119.34 134.645C119.015 135.017 118.794 135.498 118.678 136.09C118.574 136.67 118.522 137.389 118.522 138.248C118.522 139.129 118.574 139.872 118.678 140.475C118.783 141.067 119.003 141.548 119.34 141.919C119.676 142.279 120.169 142.459 120.819 142.459C121.468 142.459 121.962 142.279 122.298 141.919C122.634 141.548 122.855 141.067 122.959 140.475C123.064 139.872 123.116 139.129 123.116 138.248ZM127.37 138.248C127.37 136.241 127.73 134.669 128.449 133.532C129.18 132.395 130.387 131.826 132.069 131.826C133.751 131.826 134.952 132.395 135.671 133.532C136.402 134.669 136.767 136.241 136.767 138.248C136.767 140.266 136.402 141.85 135.671 142.998C134.952 144.147 133.751 144.721 132.069 144.721C130.387 144.721 129.18 144.147 128.449 142.998C127.73 141.85 127.37 140.266 127.37 138.248ZM134.366 138.248C134.366 137.389 134.308 136.67 134.192 136.09C134.087 135.498 133.867 135.017 133.53 134.645C133.206 134.274 132.718 134.089 132.069 134.089C131.419 134.089 130.926 134.274 130.59 134.645C130.265 135.017 130.044 135.498 129.928 136.09C129.824 136.67 129.772 137.389 129.772 138.248C129.772 139.129 129.824 139.872 129.928 140.475C130.033 141.067 130.253 141.548 130.59 141.919C130.926 142.279 131.419 142.459 132.069 142.459C132.718 142.459 133.211 142.279 133.548 141.919C133.884 141.548 134.105 141.067 134.209 140.475C134.314 139.872 134.366 139.129 134.366 138.248ZM148.683 144.878C147.546 144.878 146.502 144.611 145.551 144.077C144.6 143.544 143.846 142.807 143.289 141.867C142.732 140.916 142.453 139.843 142.453 138.648C142.453 137.465 142.732 136.403 143.289 135.463C143.846 134.512 144.6 133.77 145.551 133.236C146.502 132.702 147.546 132.435 148.683 132.435C149.832 132.435 150.876 132.702 151.816 133.236C152.767 133.77 153.515 134.512 154.06 135.463C154.617 136.403 154.896 137.465 154.896 138.648C154.896 139.843 154.617 140.916 154.06 141.867C153.515 142.807 152.767 143.544 151.816 144.077C150.864 144.611 149.82 144.878 148.683 144.878ZM148.683 142.702C149.414 142.702 150.058 142.54 150.615 142.215C151.172 141.879 151.607 141.403 151.92 140.788C152.233 140.173 152.39 139.46 152.39 138.648C152.39 137.836 152.233 137.128 151.92 136.525C151.607 135.91 151.172 135.44 150.615 135.115C150.058 134.791 149.414 134.628 148.683 134.628C147.952 134.628 147.303 134.791 146.734 135.115C146.177 135.44 145.742 135.91 145.429 136.525C145.116 137.128 144.959 137.836 144.959 138.648C144.959 139.46 145.116 140.173 145.429 140.788C145.742 141.403 146.177 141.879 146.734 142.215C147.303 142.54 147.952 142.702 148.683 142.702ZM156.082 139.936C156.082 138.938 156.285 138.068 156.691 137.325C157.097 136.571 157.659 135.991 158.379 135.585C159.098 135.168 159.922 134.959 160.85 134.959C162.045 134.959 163.031 135.26 163.808 135.864C164.597 136.455 165.125 137.291 165.392 138.369H162.764C162.625 137.952 162.387 137.627 162.05 137.395C161.726 137.151 161.32 137.03 160.832 137.03C160.136 137.03 159.585 137.285 159.179 137.795C158.773 138.294 158.57 139.008 158.57 139.936C158.57 140.852 158.773 141.566 159.179 142.076C159.585 142.575 160.136 142.824 160.832 142.824C161.818 142.824 162.462 142.383 162.764 141.502H165.392C165.125 142.546 164.597 143.375 163.808 143.99C163.019 144.605 162.033 144.912 160.85 144.912C159.922 144.912 159.098 144.709 158.379 144.303C157.659 143.886 157.097 143.306 156.691 142.563C156.285 141.809 156.082 140.933 156.082 139.936ZM176.138 139.727C176.138 140.075 176.115 140.388 176.069 140.666H169.021C169.079 141.363 169.322 141.908 169.752 142.302C170.181 142.697 170.709 142.894 171.335 142.894C172.24 142.894 172.884 142.505 173.267 141.728H175.894C175.616 142.656 175.082 143.422 174.294 144.025C173.505 144.617 172.536 144.912 171.387 144.912C170.459 144.912 169.624 144.709 168.882 144.303C168.151 143.886 167.577 143.3 167.159 142.546C166.753 141.792 166.55 140.922 166.55 139.936C166.55 138.938 166.753 138.062 167.159 137.308C167.565 136.554 168.133 135.974 168.864 135.568C169.595 135.162 170.436 134.959 171.387 134.959C172.304 134.959 173.122 135.156 173.841 135.55C174.572 135.945 175.135 136.507 175.529 137.238C175.935 137.958 176.138 138.787 176.138 139.727ZM173.615 139.031C173.603 138.404 173.377 137.905 172.936 137.534C172.495 137.151 171.956 136.96 171.318 136.96C170.715 136.96 170.204 137.146 169.787 137.517C169.38 137.876 169.131 138.381 169.038 139.031H173.615ZM177.29 139.901C177.29 138.926 177.481 138.062 177.864 137.308C178.259 136.554 178.786 135.974 179.448 135.568C180.121 135.162 180.869 134.959 181.693 134.959C182.412 134.959 183.038 135.104 183.572 135.394C184.117 135.684 184.552 136.049 184.877 136.49V135.115H187.331V144.756H184.877V143.346C184.564 143.799 184.129 144.176 183.572 144.477C183.027 144.767 182.394 144.912 181.675 144.912C180.863 144.912 180.121 144.704 179.448 144.286C178.786 143.868 178.259 143.283 177.864 142.528C177.481 141.763 177.29 140.887 177.29 139.901ZM184.877 139.936C184.877 139.344 184.761 138.839 184.529 138.422C184.297 137.992 183.984 137.668 183.589 137.447C183.195 137.215 182.771 137.099 182.319 137.099C181.867 137.099 181.449 137.209 181.066 137.43C180.683 137.65 180.37 137.975 180.126 138.404C179.894 138.822 179.778 139.321 179.778 139.901C179.778 140.481 179.894 140.991 180.126 141.432C180.37 141.861 180.683 142.192 181.066 142.424C181.46 142.656 181.878 142.772 182.319 142.772C182.771 142.772 183.195 142.662 183.589 142.441C183.984 142.209 184.297 141.885 184.529 141.467C184.761 141.038 184.877 140.527 184.877 139.936ZM195.052 134.976C196.201 134.976 197.129 135.342 197.837 136.072C198.544 136.792 198.898 137.801 198.898 139.1V144.756H196.462V139.431C196.462 138.665 196.27 138.079 195.888 137.673C195.505 137.256 194.983 137.047 194.321 137.047C193.649 137.047 193.115 137.256 192.721 137.673C192.338 138.079 192.146 138.665 192.146 139.431V144.756H189.71V135.115H192.146V136.316C192.471 135.898 192.883 135.574 193.382 135.342C193.892 135.098 194.449 134.976 195.052 134.976ZM209.607 132.61C210.883 132.61 212.003 132.859 212.966 133.358C213.94 133.857 214.689 134.57 215.211 135.498C215.744 136.415 216.011 137.482 216.011 138.7C216.011 139.918 215.744 140.986 215.211 141.902C214.689 142.807 213.94 143.509 212.966 144.008C212.003 144.506 210.883 144.756 209.607 144.756H205.361V132.61H209.607ZM209.52 142.685C210.796 142.685 211.783 142.337 212.479 141.641C213.175 140.945 213.523 139.965 213.523 138.7C213.523 137.436 213.175 136.449 212.479 135.742C211.783 135.023 210.796 134.663 209.52 134.663H207.798V142.685H209.52ZM220.271 136.612C220.584 136.101 220.99 135.701 221.489 135.411C222 135.121 222.58 134.976 223.229 134.976V137.534H222.585C221.82 137.534 221.24 137.714 220.845 138.074C220.462 138.433 220.271 139.06 220.271 139.953V144.756H217.835V135.115H220.271V136.612ZM226.106 133.967C225.677 133.967 225.317 133.833 225.027 133.567C224.748 133.288 224.609 132.946 224.609 132.54C224.609 132.134 224.748 131.797 225.027 131.531C225.317 131.252 225.677 131.113 226.106 131.113C226.535 131.113 226.889 131.252 227.167 131.531C227.457 131.797 227.602 132.134 227.602 132.54C227.602 132.946 227.457 133.288 227.167 133.567C226.889 133.833 226.535 133.967 226.106 133.967ZM227.306 135.115V144.756H224.87V135.115H227.306ZM233.733 142.511L236.169 135.115H238.762L235.195 144.756H232.237L228.687 135.115H231.297L233.733 142.511ZM249.093 139.727C249.093 140.075 249.069 140.388 249.023 140.666H241.975C242.033 141.363 242.277 141.908 242.706 142.302C243.135 142.697 243.663 142.894 244.29 142.894C245.195 142.894 245.838 142.505 246.221 141.728H248.849C248.57 142.656 248.037 143.422 247.248 144.025C246.459 144.617 245.49 144.912 244.342 144.912C243.414 144.912 242.578 144.709 241.836 144.303C241.105 143.886 240.531 143.3 240.113 142.546C239.707 141.792 239.504 140.922 239.504 139.936C239.504 138.938 239.707 138.062 240.113 137.308C240.519 136.554 241.088 135.974 241.819 135.568C242.549 135.162 243.391 134.959 244.342 134.959C245.258 134.959 246.076 135.156 246.795 135.55C247.526 135.945 248.089 136.507 248.483 137.238C248.889 137.958 249.093 138.787 249.093 139.727ZM246.569 139.031C246.558 138.404 246.331 137.905 245.891 137.534C245.45 137.151 244.91 136.96 244.272 136.96C243.669 136.96 243.159 137.146 242.741 137.517C242.335 137.876 242.085 138.381 241.993 139.031H246.569Z" fill="#FCFDFD"/>
<path d="M255.255 145.565C254.569 144.864 254.021 143.977 253.61 142.903C253.2 141.821 252.995 140.632 252.995 139.334C252.995 138.029 253.204 136.828 253.622 135.732C254.039 134.636 254.602 133.737 255.311 133.036H255.848V133.092C255.08 133.867 254.494 134.8 254.091 135.889C253.689 136.97 253.487 138.118 253.487 139.334C253.487 140.542 253.685 141.68 254.08 142.746C254.476 143.813 255.046 144.734 255.792 145.509V145.565H255.255ZM257.793 136.056V139.334H260.926V139.759H257.793V143.059H261.261V143.484H257.29V135.631H261.261V136.056H257.793ZM265.179 139.558L267.539 143.484H266.969L264.854 139.961L262.83 143.484H262.27L264.597 139.524L262.259 135.631H262.83L264.922 139.122L266.98 135.631H267.55L265.179 139.558ZM273.099 143.484L271.085 140.14H271.04H269.362V143.484H268.859V135.631H271.018C271.891 135.631 272.543 135.836 272.976 136.247C273.416 136.657 273.636 137.201 273.636 137.88C273.636 138.484 273.464 138.984 273.121 139.379C272.786 139.767 272.293 140.005 271.644 140.095L273.703 143.484H273.099ZM269.362 139.714H271.04C271.734 139.714 272.252 139.547 272.595 139.211C272.938 138.875 273.11 138.432 273.11 137.88C273.11 136.679 272.413 136.079 271.018 136.079H269.362V139.714ZM274.794 145.565V145.509C275.54 144.734 276.11 143.813 276.506 142.746C276.901 141.68 277.099 140.542 277.099 139.334C277.099 138.118 276.897 136.97 276.494 135.889C276.092 134.8 275.506 133.867 274.738 133.092V133.036H275.275C275.984 133.737 276.547 134.636 276.964 135.732C277.382 136.828 277.591 138.029 277.591 139.334C277.591 140.632 277.386 141.821 276.976 142.903C276.565 143.977 276.017 144.864 275.331 145.565H274.794Z" fill="#99A6AF"/>
<path d="M91.3515 228.986L89.3603 227.286C88.965 227.413 88.5548 227.476 88.1297 227.476C87.4063 227.476 86.7537 227.308 86.172 226.973C85.5903 226.63 85.1354 226.152 84.8072 225.541C84.4791 224.929 84.315 224.24 84.315 223.471C84.315 222.696 84.4791 222.006 84.8072 221.402C85.1354 220.79 85.5903 220.317 86.172 219.981C86.7537 219.638 87.4063 219.466 88.1297 219.466C88.8531 219.466 89.5057 219.638 90.0874 219.981C90.6691 220.317 91.124 220.79 91.4522 221.402C91.7803 222.006 91.9444 222.696 91.9444 223.471C91.9444 224.299 91.7542 225.03 91.3739 225.664C91.001 226.298 90.4939 226.775 89.8525 227.096L92.0675 228.986H91.3515ZM84.8296 223.471C84.8296 224.187 84.975 224.814 85.2659 225.351C85.5568 225.888 85.952 226.302 86.4517 226.592C86.9514 226.883 87.5107 227.029 88.1297 227.029C88.7487 227.029 89.3081 226.883 89.8077 226.592C90.3074 226.302 90.6989 225.888 90.9823 225.351C91.2732 224.814 91.4186 224.187 91.4186 223.471C91.4186 222.748 91.2732 222.118 90.9823 221.581C90.6989 221.044 90.3074 220.63 89.8077 220.339C89.3081 220.048 88.7487 219.903 88.1297 219.903C87.5107 219.903 86.9514 220.048 86.4517 220.339C85.952 220.63 85.5568 221.044 85.2659 221.581C84.975 222.118 84.8296 222.748 84.8296 223.471ZM98.6119 221.312V227.387H98.1085V226.067C97.937 226.529 97.6498 226.883 97.2471 227.129C96.8518 227.368 96.3969 227.487 95.8823 227.487C95.1589 227.487 94.566 227.267 94.1036 226.827C93.6487 226.38 93.4212 225.72 93.4212 224.847V221.312H93.9135V224.814C93.9135 225.537 94.0962 226.093 94.4616 226.481C94.827 226.861 95.323 227.051 95.9494 227.051C96.6057 227.051 97.1278 226.842 97.5156 226.425C97.9109 226.007 98.1085 225.388 98.1085 224.568V221.312H98.6119ZM100.134 224.344C100.134 223.717 100.257 223.169 100.503 222.699C100.757 222.23 101.103 221.868 101.543 221.614C101.991 221.361 102.498 221.234 103.065 221.234C103.706 221.234 104.251 221.391 104.698 221.704C105.146 222.017 105.459 222.416 105.638 222.901V221.312H106.141V227.387H105.638V225.787C105.459 226.279 105.142 226.686 104.687 227.006C104.239 227.32 103.699 227.476 103.065 227.476C102.498 227.476 101.991 227.349 101.543 227.096C101.103 226.835 100.757 226.469 100.503 226C100.257 225.522 100.134 224.97 100.134 224.344ZM105.638 224.344C105.638 223.814 105.526 223.348 105.302 222.946C105.086 222.535 104.788 222.222 104.407 222.006C104.027 221.782 103.602 221.67 103.132 221.67C102.64 221.67 102.207 221.778 101.834 221.995C101.461 222.204 101.17 222.509 100.962 222.912C100.753 223.315 100.648 223.792 100.648 224.344C100.648 224.896 100.753 225.373 100.962 225.776C101.17 226.179 101.461 226.488 101.834 226.704C102.215 226.921 102.647 227.029 103.132 227.029C103.602 227.029 104.027 226.921 104.407 226.704C104.795 226.481 105.097 226.167 105.313 225.765C105.53 225.354 105.638 224.881 105.638 224.344ZM110.715 221.189C111.438 221.189 112.027 221.413 112.482 221.86C112.937 222.3 113.165 222.957 113.165 223.829V227.387H112.673V223.863C112.673 223.139 112.49 222.588 112.124 222.207C111.759 221.819 111.263 221.626 110.637 221.626C109.98 221.626 109.454 221.834 109.059 222.252C108.671 222.67 108.477 223.289 108.477 224.109V227.387H107.974V221.312H108.477V222.599C108.649 222.144 108.932 221.797 109.328 221.558C109.73 221.312 110.193 221.189 110.715 221.189ZM115.693 221.749V225.765C115.693 226.212 115.776 226.522 115.94 226.693C116.104 226.857 116.395 226.939 116.812 226.939H117.495V227.387H116.734C116.204 227.387 115.813 227.264 115.559 227.018C115.313 226.764 115.19 226.346 115.19 225.765V221.749H114.273V221.312H115.19V219.769H115.693V221.312H117.495V221.749H115.693ZM119.08 219.959C118.96 219.959 118.859 219.921 118.777 219.847C118.695 219.765 118.654 219.657 118.654 219.522C118.654 219.396 118.695 219.291 118.777 219.209C118.859 219.127 118.96 219.086 119.08 219.086C119.199 219.086 119.3 219.127 119.382 219.209C119.464 219.291 119.505 219.396 119.505 219.522C119.505 219.657 119.464 219.765 119.382 219.847C119.3 219.921 119.199 219.959 119.08 219.959ZM119.326 221.312V227.387H118.822V221.312H119.326ZM121.921 221.749V225.765C121.921 226.212 122.003 226.522 122.167 226.693C122.331 226.857 122.622 226.939 123.039 226.939H123.722V227.387H122.961C122.431 227.387 122.04 227.264 121.786 227.018C121.54 226.764 121.417 226.346 121.417 225.765V221.749H120.5V221.312H121.417V219.769H121.921V221.312H123.722V221.749H121.921ZM129.792 221.312L126.257 230.239H125.743L126.873 227.387L124.322 221.312H124.87L127.152 226.827L129.278 221.312H129.792Z" fill="#99A6AF"/>
<path d="M270.262 220.037H266.168V222.901C266.354 222.64 266.626 222.427 266.984 222.263C267.342 222.092 267.73 222.006 268.148 222.006C268.759 222.006 269.259 222.133 269.647 222.386C270.035 222.632 270.314 222.957 270.486 223.359C270.657 223.755 270.743 224.18 270.743 224.635C270.743 225.157 270.642 225.63 270.441 226.055C270.247 226.473 269.945 226.805 269.535 227.051C269.132 227.297 268.629 227.42 268.025 227.42C267.257 227.42 266.634 227.223 266.157 226.827C265.679 226.425 265.388 225.884 265.284 225.205H266.056C266.153 225.698 266.377 226.078 266.727 226.346C267.078 226.615 267.51 226.749 268.025 226.749C268.674 226.749 269.162 226.559 269.49 226.179C269.826 225.791 269.994 225.28 269.994 224.646C269.994 224.027 269.826 223.546 269.49 223.203C269.155 222.852 268.674 222.677 268.047 222.677C267.615 222.677 267.234 222.778 266.906 222.979C266.578 223.18 266.336 223.453 266.179 223.796H265.441V219.355H270.262V220.037ZM272.11 223.304C272.11 222.021 272.308 221.025 272.703 220.317C273.098 219.608 273.807 219.254 274.828 219.254C275.85 219.254 276.559 219.608 276.954 220.317C277.349 221.025 277.547 222.021 277.547 223.304C277.547 224.609 277.349 225.619 276.954 226.335C276.559 227.051 275.85 227.409 274.828 227.409C273.799 227.409 273.087 227.051 272.692 226.335C272.304 225.619 272.11 224.609 272.11 223.304ZM276.775 223.304C276.775 222.61 276.726 222.025 276.63 221.547C276.533 221.07 276.342 220.686 276.059 220.395C275.776 220.104 275.365 219.959 274.828 219.959C274.291 219.959 273.881 220.104 273.598 220.395C273.314 220.686 273.124 221.07 273.027 221.547C272.93 222.025 272.882 222.61 272.882 223.304C272.882 224.019 272.93 224.62 273.027 225.105C273.124 225.582 273.314 225.966 273.598 226.257C273.881 226.548 274.291 226.693 274.828 226.693C275.365 226.693 275.776 226.548 276.059 226.257C276.342 225.966 276.533 225.582 276.63 225.105C276.726 224.62 276.775 224.019 276.775 223.304ZM282.991 219.567V224.489C282.991 225.265 283.173 225.839 283.539 226.212C283.912 226.585 284.419 226.771 285.06 226.771C285.702 226.771 286.201 226.589 286.559 226.223C286.925 225.85 287.107 225.272 287.107 224.489V219.567H287.89V224.478C287.89 225.47 287.626 226.216 287.096 226.716C286.574 227.215 285.892 227.465 285.049 227.465C284.206 227.465 283.52 227.215 282.991 226.716C282.469 226.216 282.208 225.47 282.208 224.478V219.567H282.991ZM292.501 221.167C293.232 221.167 293.828 221.394 294.291 221.849C294.753 222.297 294.984 222.949 294.984 223.807V227.387H294.212V223.896C294.212 223.233 294.045 222.726 293.709 222.375C293.381 222.025 292.93 221.849 292.355 221.849C291.766 221.849 291.296 222.036 290.946 222.409C290.595 222.781 290.42 223.33 290.42 224.053V227.387H289.637V221.279H290.42V222.319C290.614 221.946 290.894 221.663 291.259 221.469C291.625 221.268 292.038 221.167 292.501 221.167ZM297.108 220.127C296.951 220.127 296.817 220.071 296.705 219.959C296.593 219.847 296.537 219.709 296.537 219.545C296.537 219.381 296.593 219.246 296.705 219.142C296.817 219.03 296.951 218.974 297.108 218.974C297.264 218.974 297.399 219.03 297.51 219.142C297.622 219.246 297.678 219.381 297.678 219.545C297.678 219.709 297.622 219.847 297.51 219.959C297.399 220.071 297.264 220.127 297.108 220.127ZM297.499 221.279V227.387H296.716V221.279H297.499ZM300.291 221.939V225.731C300.291 226.104 300.361 226.361 300.503 226.503C300.645 226.645 300.895 226.716 301.253 226.716H301.969V227.387H301.13C300.578 227.387 300.167 227.26 299.899 227.006C299.63 226.745 299.496 226.32 299.496 225.731V221.939H298.646V221.279H299.496V219.746H300.291V221.279H301.969V221.939H300.291ZM305.363 227.476C304.662 227.476 304.088 227.316 303.64 226.995C303.2 226.667 302.954 226.223 302.902 225.664H303.707C303.745 226.007 303.905 226.287 304.188 226.503C304.479 226.712 304.867 226.816 305.352 226.816C305.777 226.816 306.109 226.716 306.348 226.514C306.594 226.313 306.717 226.063 306.717 225.765C306.717 225.556 306.65 225.384 306.515 225.25C306.381 225.116 306.21 225.011 306.001 224.937C305.799 224.855 305.523 224.769 305.173 224.68C304.718 224.56 304.349 224.441 304.065 224.322C303.782 224.202 303.54 224.027 303.338 223.796C303.144 223.557 303.047 223.24 303.047 222.845C303.047 222.547 303.137 222.271 303.316 222.017C303.495 221.763 303.748 221.562 304.077 221.413C304.405 221.264 304.778 221.189 305.195 221.189C305.852 221.189 306.381 221.357 306.784 221.693C307.187 222.021 307.403 222.476 307.433 223.057H306.65C306.627 222.699 306.485 222.412 306.224 222.196C305.971 221.972 305.62 221.86 305.173 221.86C304.778 221.86 304.457 221.954 304.211 222.14C303.965 222.327 303.842 222.558 303.842 222.834C303.842 223.072 303.913 223.27 304.054 223.427C304.203 223.576 304.386 223.695 304.602 223.785C304.819 223.867 305.11 223.96 305.475 224.064C305.915 224.184 306.265 224.299 306.527 224.411C306.788 224.523 307.011 224.687 307.198 224.903C307.384 225.12 307.481 225.407 307.489 225.765C307.489 226.093 307.399 226.387 307.22 226.648C307.041 226.902 306.791 227.103 306.471 227.252C306.15 227.402 305.781 227.476 305.363 227.476Z" fill="#FCFDFD"/>
<path d="M89.3826 255.307C89.3826 256.001 89.1664 256.541 88.7338 256.929C88.3012 257.31 87.6599 257.5 86.8097 257.5H85.1317V260.945H84.6283V253.092H86.8097C87.6748 253.092 88.3199 253.294 88.745 253.696C89.1701 254.092 89.3826 254.629 89.3826 255.307ZM86.8097 257.052C88.1894 257.052 88.8792 256.471 88.8792 255.307C88.8792 254.733 88.7152 254.297 88.387 253.998C88.0589 253.693 87.5331 253.54 86.8097 253.54H85.1317V257.052H86.8097ZM95.8698 254.871V260.945H95.3664V259.625C95.1949 260.088 94.9078 260.442 94.505 260.688C94.1098 260.927 93.6548 261.046 93.1403 261.046C92.4168 261.046 91.8239 260.826 91.3616 260.386C90.9066 259.939 90.6792 259.278 90.6792 258.406V254.871H91.1714V258.372C91.1714 259.096 91.3541 259.651 91.7195 260.039C92.085 260.42 92.5809 260.61 93.2074 260.61C93.8637 260.61 94.3857 260.401 94.7735 259.983C95.1688 259.566 95.3664 258.947 95.3664 258.126V254.871H95.8698ZM98.2084 256.124C98.3575 255.676 98.6223 255.337 99.0026 255.106C99.383 254.867 99.8678 254.748 100.457 254.748V255.274H100.289C99.6925 255.274 99.1966 255.445 98.8013 255.788C98.406 256.124 98.2084 256.676 98.2084 257.444V260.945H97.705V254.871H98.2084V256.124ZM101.303 257.903C101.303 257.269 101.426 256.717 101.672 256.247C101.925 255.777 102.272 255.419 102.712 255.173C103.16 254.919 103.671 254.793 104.245 254.793C105.006 254.793 105.628 254.983 106.113 255.363C106.605 255.743 106.911 256.254 107.03 256.896H106.505C106.408 256.374 106.154 255.963 105.744 255.665C105.341 255.367 104.842 255.218 104.245 255.218C103.797 255.218 103.391 255.318 103.026 255.52C102.66 255.714 102.365 256.016 102.142 256.426C101.925 256.829 101.817 257.321 101.817 257.903C101.817 258.492 101.925 258.988 102.142 259.39C102.365 259.793 102.66 260.095 103.026 260.296C103.391 260.498 103.797 260.599 104.245 260.599C104.842 260.599 105.341 260.449 105.744 260.151C106.154 259.853 106.408 259.443 106.505 258.921H107.03C106.911 259.554 106.605 260.065 106.113 260.453C105.621 260.841 104.998 261.035 104.245 261.035C103.671 261.035 103.16 260.908 102.712 260.654C102.272 260.401 101.925 260.039 101.672 259.569C101.426 259.092 101.303 258.536 101.303 257.903ZM111.316 254.748C112.032 254.748 112.617 254.972 113.072 255.419C113.527 255.859 113.755 256.515 113.755 257.388V260.945H113.262V257.421C113.262 256.698 113.08 256.146 112.714 255.766C112.349 255.378 111.853 255.184 111.226 255.184C110.57 255.184 110.044 255.393 109.649 255.811C109.261 256.228 109.067 256.847 109.067 257.668V260.945H108.564V252.667H109.067V256.157C109.239 255.702 109.526 255.356 109.929 255.117C110.332 254.871 110.794 254.748 111.316 254.748ZM115.221 257.903C115.221 257.276 115.344 256.728 115.59 256.258C115.843 255.788 116.19 255.427 116.63 255.173C117.078 254.919 117.585 254.793 118.152 254.793C118.793 254.793 119.337 254.949 119.785 255.262C120.232 255.576 120.546 255.975 120.725 256.459V254.871H121.228V260.945H120.725V259.346C120.546 259.838 120.229 260.244 119.774 260.565C119.326 260.878 118.786 261.035 118.152 261.035C117.585 261.035 117.078 260.908 116.63 260.654C116.19 260.393 115.843 260.028 115.59 259.558C115.344 259.081 115.221 258.529 115.221 257.903ZM120.725 257.903C120.725 257.373 120.613 256.907 120.389 256.504C120.173 256.094 119.874 255.781 119.494 255.564C119.114 255.341 118.689 255.229 118.219 255.229C117.727 255.229 117.294 255.337 116.921 255.553C116.548 255.762 116.257 256.068 116.048 256.471C115.84 256.873 115.735 257.351 115.735 257.903C115.735 258.454 115.84 258.932 116.048 259.334C116.257 259.737 116.548 260.047 116.921 260.263C117.301 260.479 117.734 260.587 118.219 260.587C118.689 260.587 119.114 260.479 119.494 260.263C119.882 260.039 120.184 259.726 120.4 259.323C120.616 258.913 120.725 258.439 120.725 257.903ZM125.086 261.035C124.407 261.035 123.851 260.886 123.419 260.587C122.994 260.289 122.755 259.864 122.703 259.312H123.218C123.255 259.707 123.434 260.021 123.755 260.252C124.083 260.483 124.526 260.599 125.086 260.599C125.548 260.599 125.914 260.483 126.182 260.252C126.458 260.013 126.596 259.722 126.596 259.379C126.596 259.141 126.521 258.947 126.372 258.797C126.231 258.641 126.052 258.522 125.835 258.439C125.619 258.357 125.324 258.268 124.952 258.171C124.504 258.052 124.142 257.936 123.866 257.824C123.59 257.705 123.356 257.53 123.162 257.298C122.968 257.067 122.871 256.758 122.871 256.37C122.871 256.087 122.957 255.825 123.128 255.587C123.3 255.341 123.538 255.147 123.844 255.005C124.15 254.863 124.497 254.793 124.884 254.793C125.518 254.793 126.029 254.953 126.417 255.274C126.812 255.587 127.025 256.023 127.055 256.582H126.551C126.529 256.18 126.372 255.852 126.081 255.598C125.791 255.344 125.388 255.218 124.873 255.218C124.441 255.218 124.083 255.33 123.799 255.553C123.516 255.777 123.374 256.049 123.374 256.37C123.374 256.653 123.452 256.885 123.609 257.064C123.773 257.235 123.971 257.369 124.202 257.466C124.441 257.556 124.754 257.653 125.142 257.757C125.567 257.869 125.906 257.981 126.16 258.093C126.421 258.197 126.641 258.354 126.82 258.563C126.999 258.764 127.088 259.036 127.088 259.379C127.088 259.692 127.002 259.976 126.831 260.229C126.659 260.483 126.421 260.681 126.115 260.822C125.809 260.964 125.466 261.035 125.086 261.035ZM134.092 257.5C134.092 257.768 134.084 257.97 134.07 258.104H128.823C128.838 258.648 128.957 259.107 129.181 259.48C129.405 259.853 129.699 260.132 130.065 260.319C130.43 260.505 130.829 260.599 131.262 260.599C131.858 260.599 132.358 260.453 132.761 260.162C133.163 259.864 133.417 259.461 133.521 258.954H134.047C133.928 259.573 133.622 260.076 133.13 260.464C132.638 260.845 132.015 261.035 131.262 261.035C130.695 261.035 130.188 260.908 129.74 260.654C129.293 260.401 128.942 260.039 128.689 259.569C128.435 259.092 128.308 258.536 128.308 257.903C128.308 257.269 128.431 256.717 128.677 256.247C128.931 255.777 129.282 255.419 129.729 255.173C130.177 254.919 130.687 254.793 131.262 254.793C131.843 254.793 132.347 254.919 132.772 255.173C133.204 255.419 133.533 255.751 133.756 256.169C133.98 256.579 134.092 257.022 134.092 257.5ZM133.588 257.69C133.611 257.153 133.514 256.698 133.298 256.325C133.089 255.952 132.802 255.676 132.436 255.497C132.071 255.311 131.676 255.218 131.25 255.218C130.825 255.218 130.43 255.311 130.065 255.497C129.707 255.676 129.412 255.952 129.181 256.325C128.957 256.698 128.838 257.153 128.823 257.69H133.588ZM139.274 256.471C139.445 255.978 139.755 255.576 140.202 255.262C140.657 254.949 141.205 254.793 141.847 254.793C142.414 254.793 142.917 254.919 143.357 255.173C143.805 255.427 144.151 255.788 144.397 256.258C144.651 256.728 144.778 257.276 144.778 257.903C144.778 258.529 144.651 259.081 144.397 259.558C144.151 260.028 143.805 260.393 143.357 260.654C142.917 260.908 142.414 261.035 141.847 261.035C141.213 261.035 140.669 260.878 140.214 260.565C139.766 260.244 139.453 259.842 139.274 259.357V263.809H138.771V254.871H139.274V256.471ZM144.263 257.903C144.263 257.351 144.159 256.873 143.95 256.471C143.741 256.068 143.447 255.762 143.066 255.553C142.693 255.337 142.261 255.229 141.769 255.229C141.299 255.229 140.874 255.341 140.493 255.564C140.113 255.781 139.815 256.094 139.598 256.504C139.382 256.907 139.274 257.373 139.274 257.903C139.274 258.439 139.382 258.913 139.598 259.323C139.815 259.726 140.113 260.039 140.493 260.263C140.874 260.479 141.299 260.587 141.769 260.587C142.261 260.587 142.693 260.479 143.066 260.263C143.447 260.047 143.741 259.737 143.95 259.334C144.159 258.932 144.263 258.454 144.263 257.903ZM146.801 256.124C146.95 255.676 147.215 255.337 147.595 255.106C147.976 254.867 148.46 254.748 149.049 254.748V255.274H148.882C148.285 255.274 147.789 255.445 147.394 255.788C146.999 256.124 146.801 256.676 146.801 257.444V260.945H146.298V254.871H146.801V256.124ZM150.466 253.517C150.347 253.517 150.246 253.48 150.164 253.405C150.082 253.323 150.041 253.215 150.041 253.081C150.041 252.954 150.082 252.85 150.164 252.768C150.246 252.686 150.347 252.645 150.466 252.645C150.585 252.645 150.686 252.686 150.768 252.768C150.85 252.85 150.891 252.954 150.891 253.081C150.891 253.215 150.85 253.323 150.768 253.405C150.686 253.48 150.585 253.517 150.466 253.517ZM150.712 254.871V260.945H150.209V254.871H150.712ZM152.244 257.903C152.244 257.269 152.367 256.717 152.613 256.247C152.867 255.777 153.214 255.419 153.654 255.173C154.101 254.919 154.612 254.793 155.186 254.793C155.947 254.793 156.57 254.983 157.054 255.363C157.547 255.743 157.852 256.254 157.972 256.896H157.446C157.349 256.374 157.095 255.963 156.685 255.665C156.283 255.367 155.783 255.218 155.186 255.218C154.739 255.218 154.332 255.318 153.967 255.52C153.601 255.714 153.307 256.016 153.083 256.426C152.867 256.829 152.759 257.321 152.759 257.903C152.759 258.492 152.867 258.988 153.083 259.39C153.307 259.793 153.601 260.095 153.967 260.296C154.332 260.498 154.739 260.599 155.186 260.599C155.783 260.599 156.283 260.449 156.685 260.151C157.095 259.853 157.349 259.443 157.446 258.921H157.972C157.852 259.554 157.547 260.065 157.054 260.453C156.562 260.841 155.939 261.035 155.186 261.035C154.612 261.035 154.101 260.908 153.654 260.654C153.214 260.401 152.867 260.039 152.613 259.569C152.367 259.092 152.244 258.536 152.244 257.903ZM164.976 257.5C164.976 257.768 164.968 257.97 164.953 258.104H159.707C159.722 258.648 159.841 259.107 160.065 259.48C160.288 259.853 160.583 260.132 160.948 260.319C161.314 260.505 161.713 260.599 162.145 260.599C162.742 260.599 163.242 260.453 163.644 260.162C164.047 259.864 164.301 259.461 164.405 258.954H164.931C164.812 259.573 164.506 260.076 164.014 260.464C163.521 260.845 162.899 261.035 162.145 261.035C161.579 261.035 161.072 260.908 160.624 260.654C160.177 260.401 159.826 260.039 159.572 259.569C159.319 259.092 159.192 258.536 159.192 257.903C159.192 257.269 159.315 256.717 159.561 256.247C159.815 255.777 160.165 255.419 160.613 255.173C161.06 254.919 161.571 254.793 162.145 254.793C162.727 254.793 163.231 254.919 163.656 255.173C164.088 255.419 164.416 255.751 164.64 256.169C164.864 256.579 164.976 257.022 164.976 257.5ZM164.472 257.69C164.495 257.153 164.398 256.698 164.181 256.325C163.973 255.952 163.685 255.676 163.32 255.497C162.955 255.311 162.559 255.218 162.134 255.218C161.709 255.218 161.314 255.311 160.948 255.497C160.59 255.676 160.296 255.952 160.065 256.325C159.841 256.698 159.722 257.153 159.707 257.69H164.472Z" fill="#99A6AF"/>
<path d="M244.811 259.158C244.811 259.509 244.725 259.845 244.553 260.165C244.382 260.478 244.125 260.739 243.781 260.948C243.438 261.157 243.021 261.273 242.529 261.295V262.19H242.036V261.284C241.373 261.224 240.836 261.008 240.425 260.635C240.015 260.255 239.795 259.785 239.765 259.226H240.604C240.634 259.561 240.768 259.867 241.007 260.143C241.253 260.411 241.596 260.575 242.036 260.635V257.536C241.537 257.402 241.134 257.268 240.828 257.134C240.53 256.999 240.276 256.794 240.067 256.518C239.859 256.235 239.754 255.858 239.754 255.388C239.754 254.799 239.959 254.315 240.369 253.934C240.78 253.546 241.335 253.338 242.036 253.308V252.368H242.529V253.319C243.148 253.379 243.643 253.58 244.016 253.923C244.389 254.266 244.609 254.695 244.676 255.209H243.849C243.804 254.934 243.666 254.676 243.435 254.438C243.211 254.199 242.909 254.05 242.529 253.99V256.977C243.013 257.104 243.409 257.238 243.714 257.38C244.028 257.514 244.289 257.723 244.497 258.006C244.706 258.29 244.811 258.674 244.811 259.158ZM240.548 255.355C240.548 255.773 240.675 256.09 240.929 256.306C241.19 256.515 241.559 256.69 242.036 256.832V253.957C241.589 253.979 241.227 254.109 240.951 254.348C240.683 254.587 240.548 254.922 240.548 255.355ZM242.529 260.657C243.006 260.628 243.375 260.478 243.636 260.21C243.897 259.934 244.028 259.595 244.028 259.192C244.028 258.767 243.897 258.446 243.636 258.23C243.382 258.014 243.013 257.831 242.529 257.682V260.657ZM246.105 253.901V253.196H248.006V261.217H247.212V253.901H246.105ZM249.752 257.134C249.752 255.851 249.949 254.855 250.344 254.147C250.74 253.438 251.448 253.084 252.47 253.084C253.492 253.084 254.2 253.438 254.595 254.147C254.991 254.855 255.188 255.851 255.188 257.134C255.188 258.439 254.991 259.449 254.595 260.165C254.2 260.881 253.492 261.239 252.47 261.239C251.441 261.239 250.729 260.881 250.333 260.165C249.945 259.449 249.752 258.439 249.752 257.134ZM254.416 257.134C254.416 256.44 254.368 255.855 254.271 255.377C254.174 254.9 253.984 254.516 253.7 254.225C253.417 253.934 253.007 253.789 252.47 253.789C251.933 253.789 251.523 253.934 251.239 254.225C250.956 254.516 250.766 254.9 250.669 255.377C250.572 255.855 250.523 256.44 250.523 257.134C250.523 257.85 250.572 258.45 250.669 258.935C250.766 259.412 250.956 259.796 251.239 260.087C251.523 260.378 251.933 260.523 252.47 260.523C253.007 260.523 253.417 260.378 253.7 260.087C253.984 259.796 254.174 259.412 254.271 258.935C254.368 258.45 254.416 257.85 254.416 257.134ZM256.645 257.134C256.645 255.851 256.843 254.855 257.238 254.147C257.633 253.438 258.342 253.084 259.363 253.084C260.385 253.084 261.094 253.438 261.489 254.147C261.884 254.855 262.082 255.851 262.082 257.134C262.082 258.439 261.884 259.449 261.489 260.165C261.094 260.881 260.385 261.239 259.363 261.239C258.334 261.239 257.622 260.881 257.227 260.165C256.839 259.449 256.645 258.439 256.645 257.134ZM261.31 257.134C261.31 256.44 261.261 255.855 261.164 255.377C261.067 254.9 260.877 254.516 260.594 254.225C260.31 253.934 259.9 253.789 259.363 253.789C258.826 253.789 258.416 253.934 258.133 254.225C257.849 254.516 257.659 254.9 257.562 255.377C257.465 255.855 257.417 256.44 257.417 257.134C257.417 257.85 257.465 258.45 257.562 258.935C257.659 259.412 257.849 259.796 258.133 260.087C258.416 260.378 258.826 260.523 259.363 260.523C259.9 260.523 260.31 260.378 260.594 260.087C260.877 259.796 261.067 259.412 261.164 258.935C261.261 258.45 261.31 257.85 261.31 257.134ZM267.548 256.451C267.742 256.041 268.048 255.702 268.465 255.433C268.89 255.157 269.394 255.019 269.975 255.019C270.527 255.019 271.023 255.15 271.463 255.411C271.911 255.664 272.257 256.03 272.504 256.507C272.757 256.977 272.884 257.525 272.884 258.152C272.884 258.778 272.757 259.33 272.504 259.807C272.257 260.285 271.911 260.654 271.463 260.915C271.023 261.176 270.527 261.306 269.975 261.306C269.401 261.306 268.901 261.172 268.476 260.904C268.051 260.628 267.742 260.285 267.548 259.874V264.103H266.776V255.109H267.548V256.451ZM272.09 258.152C272.09 257.644 271.989 257.208 271.788 256.843C271.594 256.47 271.325 256.186 270.982 255.993C270.639 255.799 270.251 255.702 269.819 255.702C269.401 255.702 269.017 255.802 268.667 256.004C268.323 256.205 268.051 256.492 267.85 256.865C267.649 257.238 267.548 257.671 267.548 258.163C267.548 258.655 267.649 259.088 267.85 259.46C268.051 259.833 268.323 260.12 268.667 260.322C269.017 260.523 269.401 260.624 269.819 260.624C270.251 260.624 270.639 260.527 270.982 260.333C271.325 260.132 271.594 259.845 271.788 259.472C271.989 259.091 272.09 258.651 272.09 258.152ZM279.851 257.85C279.851 258.118 279.844 258.323 279.829 258.465H274.761C274.784 258.927 274.895 259.323 275.097 259.651C275.298 259.979 275.563 260.229 275.891 260.4C276.219 260.564 276.577 260.646 276.965 260.646C277.472 260.646 277.897 260.523 278.24 260.277C278.591 260.031 278.822 259.699 278.934 259.281H279.762C279.612 259.878 279.292 260.367 278.8 260.747C278.315 261.12 277.703 261.306 276.965 261.306C276.391 261.306 275.876 261.18 275.421 260.926C274.966 260.665 274.608 260.299 274.347 259.83C274.094 259.352 273.967 258.797 273.967 258.163C273.967 257.529 274.094 256.973 274.347 256.496C274.601 256.019 274.955 255.653 275.41 255.4C275.865 255.146 276.383 255.019 276.965 255.019C277.547 255.019 278.054 255.146 278.486 255.4C278.926 255.653 279.262 255.996 279.493 256.429C279.732 256.854 279.851 257.328 279.851 257.85ZM279.057 257.827C279.064 257.372 278.971 256.984 278.777 256.664C278.591 256.343 278.333 256.101 278.005 255.937C277.677 255.773 277.319 255.691 276.931 255.691C276.35 255.691 275.854 255.877 275.444 256.25C275.033 256.623 274.806 257.149 274.761 257.827H279.057ZM282.067 256.194C282.238 255.814 282.499 255.519 282.85 255.31C283.208 255.101 283.644 254.997 284.159 254.997V255.814H283.946C283.379 255.814 282.925 255.966 282.581 256.272C282.238 256.578 282.067 257.089 282.067 257.805V261.217H281.284V255.109H282.067V256.194ZM293.698 255.109V261.217H292.915V260.143C292.736 260.523 292.46 260.814 292.087 261.015C291.714 261.217 291.297 261.317 290.834 261.317C290.103 261.317 289.507 261.094 289.044 260.646C288.582 260.191 288.351 259.535 288.351 258.677V255.109H289.123V258.588C289.123 259.252 289.287 259.759 289.615 260.109C289.95 260.46 290.405 260.635 290.98 260.635C291.569 260.635 292.039 260.449 292.389 260.076C292.74 259.703 292.915 259.155 292.915 258.431V255.109H293.698ZM298.35 254.997C299.08 254.997 299.677 255.224 300.139 255.679C300.602 256.127 300.833 256.779 300.833 257.637V261.217H300.061V257.727C300.061 257.063 299.893 256.556 299.558 256.205C299.23 255.855 298.778 255.679 298.204 255.679C297.615 255.679 297.145 255.866 296.795 256.239C296.444 256.612 296.269 257.16 296.269 257.883V261.217H295.486V255.109H296.269V256.149C296.463 255.776 296.742 255.493 297.108 255.299C297.473 255.098 297.887 254.997 298.35 254.997ZM302.956 253.957C302.8 253.957 302.666 253.901 302.554 253.789C302.442 253.677 302.386 253.539 302.386 253.375C302.386 253.211 302.442 253.077 302.554 252.972C302.666 252.86 302.8 252.804 302.956 252.804C303.113 252.804 303.247 252.86 303.359 252.972C303.471 253.077 303.527 253.211 303.527 253.375C303.527 253.539 303.471 253.677 303.359 253.789C303.247 253.901 303.113 253.957 302.956 253.957ZM303.348 255.109V261.217H302.565V255.109H303.348ZM306.139 255.769V259.561C306.139 259.934 306.21 260.191 306.352 260.333C306.494 260.475 306.743 260.546 307.101 260.546H307.817V261.217H306.978C306.426 261.217 306.016 261.09 305.748 260.836C305.479 260.575 305.345 260.15 305.345 259.561V255.769H304.495V255.109H305.345V253.576H306.139V255.109H307.817V255.769H306.139Z" fill="#FCFDFD"/>
<path d="M88.9687 290.383V290.808H86.7314V298.236H86.228V290.808H83.9906V290.383H88.9687ZM92.8407 298.326C92.2739 298.326 91.763 298.199 91.3081 297.945C90.8531 297.692 90.4952 297.33 90.2341 296.86C89.9806 296.383 89.8538 295.827 89.8538 295.194C89.8538 294.567 89.9843 294.019 90.2453 293.549C90.5064 293.072 90.8643 292.71 91.3193 292.464C91.7816 292.21 92.2962 292.084 92.863 292.084C93.4298 292.084 93.9407 292.21 94.3956 292.464C94.8505 292.71 95.2048 293.068 95.4584 293.538C95.7194 294.008 95.8499 294.56 95.8499 295.194C95.8499 295.827 95.7194 296.383 95.4584 296.86C95.1973 297.33 94.8356 297.692 94.3732 297.945C93.9183 298.199 93.4075 298.326 92.8407 298.326ZM92.8407 297.878C93.2807 297.878 93.6909 297.781 94.0712 297.587C94.459 297.386 94.7685 297.084 94.9997 296.681C95.2309 296.279 95.3465 295.783 95.3465 295.194C95.3465 294.612 95.2309 294.12 94.9997 293.717C94.7685 293.314 94.4627 293.016 94.0824 292.822C93.702 292.621 93.2919 292.52 92.8518 292.52C92.4118 292.52 92.0016 292.621 91.6213 292.822C91.2484 293.016 90.9464 293.314 90.7152 293.717C90.484 294.12 90.3684 294.612 90.3684 295.194C90.3684 295.783 90.4802 296.279 90.704 296.681C90.9352 297.084 91.2372 297.386 91.6101 297.587C91.9905 297.781 92.4006 297.878 92.8407 297.878ZM98.1268 292.598V296.614C98.1268 297.062 98.2088 297.371 98.3729 297.543C98.5369 297.707 98.8278 297.789 99.2454 297.789H99.9278V298.236H99.1671C98.6376 298.236 98.2461 298.113 97.9925 297.867C97.7464 297.614 97.6234 297.196 97.6234 296.614V292.598H96.706V292.162H97.6234V290.618H98.1268V292.162H99.9278V292.598H98.1268ZM100.942 295.194C100.942 294.567 101.065 294.019 101.311 293.549C101.565 293.079 101.912 292.718 102.352 292.464C102.799 292.21 103.306 292.084 103.873 292.084C104.515 292.084 105.059 292.24 105.506 292.553C105.954 292.867 106.267 293.266 106.446 293.75V292.162H106.95V298.236H106.446V296.637C106.267 297.129 105.95 297.535 105.495 297.856C105.048 298.169 104.507 298.326 103.873 298.326C103.306 298.326 102.799 298.199 102.352 297.945C101.912 297.684 101.565 297.319 101.311 296.849C101.065 296.372 100.942 295.82 100.942 295.194ZM106.446 295.194C106.446 294.664 106.334 294.198 106.111 293.795C105.894 293.385 105.596 293.072 105.216 292.855C104.835 292.632 104.41 292.52 103.94 292.52C103.448 292.52 103.016 292.628 102.643 292.844C102.27 293.053 101.979 293.359 101.77 293.762C101.561 294.164 101.457 294.642 101.457 295.194C101.457 295.745 101.561 296.223 101.77 296.625C101.979 297.028 102.27 297.338 102.643 297.554C103.023 297.77 103.456 297.878 103.94 297.878C104.41 297.878 104.835 297.77 105.216 297.554C105.603 297.33 105.905 297.017 106.122 296.614C106.338 296.204 106.446 295.73 106.446 295.194ZM109.286 289.958V298.236H108.783V289.958H109.286ZM114.792 293.762C114.963 293.269 115.273 292.867 115.72 292.553C116.175 292.24 116.723 292.084 117.365 292.084C117.932 292.084 118.435 292.21 118.875 292.464C119.323 292.718 119.669 293.079 119.915 293.549C120.169 294.019 120.296 294.567 120.296 295.194C120.296 295.82 120.169 296.372 119.915 296.849C119.669 297.319 119.323 297.684 118.875 297.945C118.435 298.199 117.932 298.326 117.365 298.326C116.731 298.326 116.187 298.169 115.732 297.856C115.284 297.535 114.971 297.133 114.792 296.648V301.1H114.289V292.162H114.792V293.762ZM119.781 295.194C119.781 294.642 119.677 294.164 119.468 293.762C119.259 293.359 118.965 293.053 118.584 292.844C118.211 292.628 117.779 292.52 117.287 292.52C116.817 292.52 116.392 292.632 116.011 292.855C115.631 293.072 115.333 293.385 115.116 293.795C114.9 294.198 114.792 294.664 114.792 295.194C114.792 295.73 114.9 296.204 115.116 296.614C115.333 297.017 115.631 297.33 116.011 297.554C116.392 297.77 116.817 297.878 117.287 297.878C117.779 297.878 118.211 297.77 118.584 297.554C118.965 297.338 119.259 297.028 119.468 296.625C119.677 296.223 119.781 295.745 119.781 295.194ZM122.319 293.415C122.468 292.967 122.733 292.628 123.113 292.397C123.494 292.158 123.978 292.039 124.567 292.039V292.565H124.4C123.803 292.565 123.307 292.736 122.912 293.079C122.517 293.415 122.319 293.967 122.319 294.735V298.236H121.816V292.162H122.319V293.415ZM125.984 290.808C125.865 290.808 125.764 290.771 125.682 290.696C125.6 290.614 125.559 290.506 125.559 290.372C125.559 290.245 125.6 290.141 125.682 290.059C125.764 289.977 125.865 289.936 125.984 289.936C126.103 289.936 126.204 289.977 126.286 290.059C126.368 290.141 126.409 290.245 126.409 290.372C126.409 290.506 126.368 290.614 126.286 290.696C126.204 290.771 126.103 290.808 125.984 290.808ZM126.23 292.162V298.236H125.727V292.162H126.23ZM127.762 295.194C127.762 294.56 127.885 294.008 128.131 293.538C128.385 293.068 128.732 292.71 129.172 292.464C129.619 292.21 130.13 292.084 130.704 292.084C131.465 292.084 132.088 292.274 132.572 292.654C133.065 293.034 133.37 293.545 133.49 294.187H132.964C132.867 293.665 132.613 293.254 132.203 292.956C131.801 292.658 131.301 292.509 130.704 292.509C130.257 292.509 129.85 292.609 129.485 292.811C129.119 293.005 128.825 293.307 128.601 293.717C128.385 294.12 128.277 294.612 128.277 295.194C128.277 295.783 128.385 296.279 128.601 296.681C128.825 297.084 129.119 297.386 129.485 297.587C129.85 297.789 130.257 297.89 130.704 297.89C131.301 297.89 131.801 297.74 132.203 297.442C132.613 297.144 132.867 296.734 132.964 296.212H133.49C133.37 296.845 133.065 297.356 132.572 297.744C132.08 298.132 131.457 298.326 130.704 298.326C130.13 298.326 129.619 298.199 129.172 297.945C128.732 297.692 128.385 297.33 128.131 296.86C127.885 296.383 127.762 295.827 127.762 295.194ZM140.494 294.791C140.494 295.059 140.486 295.261 140.471 295.395H135.225C135.24 295.939 135.359 296.398 135.583 296.771C135.806 297.144 136.101 297.423 136.466 297.61C136.832 297.796 137.231 297.89 137.663 297.89C138.26 297.89 138.76 297.744 139.162 297.453C139.565 297.155 139.819 296.752 139.923 296.245H140.449C140.33 296.864 140.024 297.367 139.532 297.755C139.039 298.136 138.417 298.326 137.663 298.326C137.097 298.326 136.59 298.199 136.142 297.945C135.695 297.692 135.344 297.33 135.09 296.86C134.837 296.383 134.71 295.827 134.71 295.194C134.71 294.56 134.833 294.008 135.079 293.538C135.333 293.068 135.683 292.71 136.131 292.464C136.578 292.21 137.089 292.084 137.663 292.084C138.245 292.084 138.749 292.21 139.174 292.464C139.606 292.71 139.934 293.042 140.158 293.46C140.382 293.87 140.494 294.313 140.494 294.791ZM139.99 294.981C140.013 294.444 139.916 293.989 139.699 293.616C139.491 293.243 139.203 292.967 138.838 292.788C138.473 292.602 138.077 292.509 137.652 292.509C137.227 292.509 136.832 292.602 136.466 292.788C136.108 292.967 135.814 293.243 135.583 293.616C135.359 293.989 135.24 294.444 135.225 294.981H139.99Z" fill="#99A6AF"/>
<path d="M260.705 295.67C260.705 296.043 260.612 296.393 260.425 296.721C260.246 297.049 259.978 297.325 259.62 297.549C259.269 297.773 258.851 297.907 258.367 297.952V298.858H257.64V297.952C256.939 297.885 256.372 297.665 255.939 297.292C255.507 296.919 255.29 296.427 255.29 295.815H256.655C256.678 296.106 256.771 296.348 256.935 296.542C257.099 296.729 257.334 296.848 257.64 296.9V294.439C257.14 294.312 256.733 294.186 256.42 294.059C256.107 293.925 255.838 293.716 255.615 293.432C255.398 293.149 255.29 292.761 255.29 292.269C255.29 291.65 255.507 291.139 255.939 290.736C256.372 290.326 256.939 290.088 257.64 290.02V289.114H258.367V290.02C259.023 290.08 259.549 290.289 259.944 290.647C260.347 290.997 260.574 291.482 260.626 292.101H259.262C259.239 291.87 259.15 291.665 258.993 291.486C258.837 291.299 258.628 291.173 258.367 291.106V293.522C258.866 293.641 259.273 293.768 259.586 293.902C259.899 294.029 260.164 294.234 260.38 294.518C260.597 294.793 260.705 295.178 260.705 295.67ZM256.588 292.202C256.588 292.508 256.678 292.746 256.856 292.918C257.043 293.089 257.304 293.227 257.64 293.332V291.072C257.319 291.109 257.062 291.225 256.868 291.419C256.681 291.613 256.588 291.874 256.588 292.202ZM258.367 296.9C258.695 296.848 258.952 296.718 259.139 296.509C259.325 296.293 259.418 296.035 259.418 295.737C259.418 295.439 259.325 295.207 259.139 295.043C258.96 294.872 258.702 294.734 258.367 294.629V296.9ZM267.824 290.826H264.076V293.052C264.233 292.843 264.464 292.668 264.77 292.526C265.083 292.385 265.415 292.314 265.766 292.314C266.392 292.314 266.899 292.448 267.287 292.716C267.682 292.985 267.962 293.324 268.126 293.734C268.297 294.145 268.383 294.577 268.383 295.032C268.383 295.584 268.275 296.076 268.059 296.509C267.85 296.934 267.533 297.269 267.108 297.516C266.69 297.762 266.176 297.885 265.564 297.885C264.751 297.885 264.099 297.683 263.606 297.281C263.114 296.878 262.82 296.345 262.723 295.681H263.964C264.047 296.031 264.229 296.311 264.513 296.52C264.796 296.721 265.15 296.822 265.575 296.822C266.105 296.822 266.5 296.662 266.761 296.341C267.03 296.02 267.164 295.595 267.164 295.066C267.164 294.529 267.03 294.119 266.761 293.835C266.493 293.544 266.097 293.399 265.575 293.399C265.21 293.399 264.9 293.492 264.647 293.679C264.401 293.858 264.222 294.104 264.11 294.417H262.902V289.707H267.824V290.826ZM269.711 293.701C269.711 292.411 269.927 291.404 270.36 290.68C270.8 289.95 271.553 289.584 272.619 289.584C273.686 289.584 274.435 289.95 274.868 290.68C275.308 291.404 275.528 292.411 275.528 293.701C275.528 295.006 275.308 296.028 274.868 296.766C274.435 297.497 273.686 297.862 272.619 297.862C271.553 297.862 270.8 297.497 270.36 296.766C269.927 296.028 269.711 295.006 269.711 293.701ZM274.275 293.701C274.275 293.097 274.234 292.586 274.152 292.168C274.077 291.751 273.921 291.411 273.682 291.15C273.443 290.882 273.089 290.748 272.619 290.748C272.15 290.748 271.795 290.882 271.557 291.15C271.318 291.411 271.158 291.751 271.076 292.168C271.001 292.586 270.964 293.097 270.964 293.701C270.964 294.327 271.001 294.853 271.076 295.278C271.15 295.703 271.307 296.046 271.545 296.307C271.792 296.568 272.15 296.699 272.619 296.699C273.089 296.699 273.443 296.568 273.682 296.307C273.928 296.046 274.089 295.703 274.163 295.278C274.238 294.853 274.275 294.327 274.275 293.701ZM276.877 293.701C276.877 292.411 277.094 291.404 277.526 290.68C277.966 289.95 278.719 289.584 279.786 289.584C280.852 289.584 281.602 289.95 282.034 290.68C282.474 291.404 282.694 292.411 282.694 293.701C282.694 295.006 282.474 296.028 282.034 296.766C281.602 297.497 280.852 297.862 279.786 297.862C278.719 297.862 277.966 297.497 277.526 296.766C277.094 296.028 276.877 295.006 276.877 293.701ZM281.442 293.701C281.442 293.097 281.401 292.586 281.318 292.168C281.244 291.751 281.087 291.411 280.849 291.15C280.61 290.882 280.256 290.748 279.786 290.748C279.316 290.748 278.962 290.882 278.723 291.15C278.484 291.411 278.324 291.751 278.242 292.168C278.168 292.586 278.13 293.097 278.13 293.701C278.13 294.327 278.168 294.853 278.242 295.278C278.317 295.703 278.473 296.046 278.712 296.307C278.958 296.568 279.316 296.699 279.786 296.699C280.256 296.699 280.61 296.568 280.849 296.307C281.095 296.046 281.255 295.703 281.33 295.278C281.404 294.853 281.442 294.327 281.442 293.701ZM284.044 293.701C284.044 292.411 284.26 291.404 284.693 290.68C285.133 289.95 285.886 289.584 286.952 289.584C288.019 289.584 288.768 289.95 289.201 290.68C289.641 291.404 289.861 292.411 289.861 293.701C289.861 295.006 289.641 296.028 289.201 296.766C288.768 297.497 288.019 297.862 286.952 297.862C285.886 297.862 285.133 297.497 284.693 296.766C284.26 296.028 284.044 295.006 284.044 293.701ZM288.608 293.701C288.608 293.097 288.567 292.586 288.485 292.168C288.41 291.751 288.254 291.411 288.015 291.15C287.777 290.882 287.422 290.748 286.952 290.748C286.483 290.748 286.128 290.882 285.89 291.15C285.651 291.411 285.491 291.751 285.409 292.168C285.334 292.586 285.297 293.097 285.297 293.701C285.297 294.327 285.334 294.853 285.409 295.278C285.483 295.703 285.64 296.046 285.878 296.307C286.125 296.568 286.483 296.699 286.952 296.699C287.422 296.699 287.777 296.568 288.015 296.307C288.261 296.046 288.422 295.703 288.496 295.278C288.571 294.853 288.608 294.327 288.608 293.701ZM291.893 297.963C291.662 297.963 291.468 297.885 291.311 297.728C291.154 297.572 291.076 297.378 291.076 297.146C291.076 296.915 291.154 296.721 291.311 296.565C291.468 296.408 291.662 296.33 291.893 296.33C292.117 296.33 292.307 296.408 292.463 296.565C292.62 296.721 292.698 296.915 292.698 297.146C292.698 297.378 292.62 297.572 292.463 297.728C292.307 297.885 292.117 297.963 291.893 297.963ZM293.909 293.701C293.909 292.411 294.125 291.404 294.558 290.68C294.998 289.95 295.751 289.584 296.817 289.584C297.884 289.584 298.633 289.95 299.066 290.68C299.506 291.404 299.726 292.411 299.726 293.701C299.726 295.006 299.506 296.028 299.066 296.766C298.633 297.497 297.884 297.862 296.817 297.862C295.751 297.862 294.998 297.497 294.558 296.766C294.125 296.028 293.909 295.006 293.909 293.701ZM298.473 293.701C298.473 293.097 298.432 292.586 298.35 292.168C298.275 291.751 298.119 291.411 297.88 291.15C297.641 290.882 297.287 290.748 296.817 290.748C296.347 290.748 295.993 290.882 295.755 291.15C295.516 291.411 295.356 291.751 295.274 292.168C295.199 292.586 295.162 293.097 295.162 293.701C295.162 294.327 295.199 294.853 295.274 295.278C295.348 295.703 295.505 296.046 295.743 296.307C295.989 296.568 296.347 296.699 296.817 296.699C297.287 296.699 297.641 296.568 297.88 296.307C298.126 296.046 298.287 295.703 298.361 295.278C298.436 294.853 298.473 294.327 298.473 293.701ZM301.075 293.701C301.075 292.411 301.292 291.404 301.724 290.68C302.164 289.95 302.917 289.584 303.984 289.584C305.05 289.584 305.8 289.95 306.232 290.68C306.672 291.404 306.892 292.411 306.892 293.701C306.892 295.006 306.672 296.028 306.232 296.766C305.8 297.497 305.05 297.862 303.984 297.862C302.917 297.862 302.164 297.497 301.724 296.766C301.292 296.028 301.075 295.006 301.075 293.701ZM305.639 293.701C305.639 293.097 305.598 292.586 305.516 292.168C305.442 291.751 305.285 291.411 305.047 291.15C304.808 290.882 304.454 290.748 303.984 290.748C303.514 290.748 303.16 290.882 302.921 291.15C302.682 291.411 302.522 291.751 302.44 292.168C302.365 292.586 302.328 293.097 302.328 293.701C302.328 294.327 302.365 294.853 302.44 295.278C302.515 295.703 302.671 296.046 302.91 296.307C303.156 296.568 303.514 296.699 303.984 296.699C304.454 296.699 304.808 296.568 305.047 296.307C305.293 296.046 305.453 295.703 305.528 295.278C305.602 294.853 305.639 294.327 305.639 293.701Z" fill="#FCFDFD"/>
<g filter="url(#filter0_d_6467_10823)">
<path d="M183.149 38.8426L191.85 45.9897L201.483 31.3848L210.805 41.0178L201.483 57.1765L188.121 61.2162L176.312 47.2327L183.149 38.8426Z" fill="#0D2B40"/>
<path d="M192.163 24.2622C186.448 24.8754 181.27 27.6093 177.625 31.9529C175.061 35.002 173.469 38.4598 172.762 42.5138C172.6 43.4422 172.583 43.8936 172.583 46.0057C172.583 48.1179 172.6 48.5693 172.762 49.4977C173.562 54.0968 175.487 57.9038 178.664 61.1998C181.926 64.5895 186.04 66.7358 190.843 67.579C191.771 67.7408 192.223 67.7578 194.335 67.7578C197.001 67.7578 197.801 67.6726 199.897 67.1361C207.408 65.1942 213.524 59.0791 215.465 51.5673C216.002 49.4721 216.087 48.6715 216.087 46.0057C216.087 43.34 216.002 42.5394 215.465 40.4442C213.524 32.9409 207.408 26.8173 199.897 24.8754C197.963 24.3814 197.052 24.2707 194.676 24.2452C193.483 24.2281 192.351 24.2366 192.163 24.2622ZM206.02 37.4548C206.591 37.7444 207.161 38.3321 207.434 38.9197C207.63 39.3285 207.664 39.5244 207.664 40.1291C207.655 41.4663 208.175 40.8616 200.007 49.0548C194.241 54.8292 192.674 56.3622 192.325 56.5326C191.49 56.9414 190.502 56.9499 189.659 56.5581C189.37 56.4219 188.288 55.3913 185.409 52.5297C182.062 49.1996 181.517 48.6204 181.287 48.1605C180.648 46.8659 181.023 45.3414 182.199 44.4557C183.025 43.8339 184.098 43.6806 185.094 44.0469C185.571 44.2257 185.784 44.4216 188.246 46.8659C189.702 48.3138 190.928 49.4977 190.971 49.4977C191.013 49.4977 193.739 46.8234 197.018 43.5444C201.677 38.8942 203.065 37.557 203.388 37.4037C204.189 37.029 205.22 37.046 206.02 37.4548Z" fill="#0D6EFD"/>
</g>
<defs>
<filter id="filter0_d_6467_10823" x="150.831" y="2.48426" width="87.008" height="87.0256" filterUnits="userSpaceOnUse" color-interpolation-filters="sRGB">
<feFlood flood-opacity="0" result="BackgroundImageFix"/>
<feColorMatrix in="SourceAlpha" type="matrix" values="0 0 0 0 0 0 0 0 0 0 0 0 0 0 0 0 0 0 127 0" result="hardAlpha"/>
<feOffset/>
<feGaussianBlur stdDeviation="10.876"/>
<feComposite in2="hardAlpha" operator="out"/>
<feColorMatrix type="matrix" values="0 0 0 0 0.0509804 0 0 0 0 0.431373 0 0 0 0 0.992157 0 0 0 0.5 0"/>
<feBlend mode="normal" in2="BackgroundImageFix" result="effect1_dropShadow_6467_10823"/>
<feBlend mode="normal" in="SourceGraphic" in2="effect1_dropShadow_6467_10823" result="shape"/>
</filter>
</defs>
</svg>
