<svg width="390" height="383" viewBox="0 0 390 383" fill="none" xmlns="http://www.w3.org/2000/svg">
<rect opacity="0.1" x="-15" y="48.1123" width="420.35" height="278.545" rx="10.1289" fill="#CCD2D7"/>
<path d="M70.3101 12.6612C70.3101 5.93423 75.7633 0.48096 82.4903 0.48096H308.492C315.219 0.48096 320.672 5.93422 320.672 12.6612V370.339C320.672 377.066 315.219 382.519 308.492 382.519H82.4903C75.7633 382.519 70.3101 377.066 70.3101 370.339V12.6612Z" fill="#FCFDFD" stroke="#F2F4F5" stroke-width="0.961919"/>
<path d="M143.833 89.0543C143.833 89.738 143.609 90.2887 143.161 90.7066C142.713 91.1244 142.041 91.3333 141.144 91.3333H139.537V94.729H138.74V86.7639H141.144C142.033 86.7639 142.701 86.9728 143.15 87.3906C143.605 87.8084 143.833 88.363 143.833 89.0543ZM141.144 90.6496C142.39 90.6496 143.013 90.1178 143.013 89.0543C143.013 88.5225 142.865 88.1199 142.569 87.8464C142.272 87.5729 141.797 87.4362 141.144 87.4362H139.537V90.6496H141.144ZM150.562 88.5073V94.729H149.764V93.6351C149.582 94.0225 149.301 94.3188 148.921 94.5239C148.541 94.729 148.115 94.8316 147.644 94.8316C146.9 94.8316 146.292 94.6037 145.821 94.1479C145.35 93.6845 145.115 93.0159 145.115 92.1423V88.5073H145.901V92.0512C145.901 92.7273 146.068 93.2439 146.402 93.6009C146.744 93.9579 147.208 94.1365 147.793 94.1365C148.393 94.1365 148.871 93.9465 149.228 93.5667C149.585 93.1869 149.764 92.6285 149.764 91.8916V88.5073H150.562ZM153.18 89.6126C153.355 89.2252 153.621 88.9251 153.978 88.7124C154.343 88.4997 154.787 88.3934 155.311 88.3934V89.2252H155.095C154.517 89.2252 154.054 89.3809 153.705 89.6924C153.355 90.0039 153.18 90.5242 153.18 91.2535V94.729H152.383V88.5073H153.18V89.6126ZM156.147 91.6182C156.147 90.9724 156.276 90.4103 156.534 89.9317C156.792 89.4455 157.149 89.0733 157.605 88.815C158.061 88.5491 158.581 88.4162 159.166 88.4162C159.933 88.4162 160.564 88.6061 161.058 88.9859C161.559 89.3657 161.882 89.8823 162.026 90.5356H161.172C161.065 90.0874 160.834 89.738 160.477 89.4873C160.127 89.229 159.69 89.0999 159.166 89.0999C158.748 89.0999 158.372 89.1948 158.038 89.3847C157.704 89.5746 157.438 89.8595 157.24 90.2394C157.051 90.6116 156.956 91.0712 156.956 91.6182C156.956 92.1651 157.051 92.6285 157.24 93.0084C157.438 93.3882 157.704 93.6731 158.038 93.863C158.372 94.0529 158.748 94.1479 159.166 94.1479C159.69 94.1479 160.127 94.0225 160.477 93.7718C160.834 93.5135 161.065 93.1565 161.172 92.7007H162.026C161.882 93.3388 161.559 93.8516 161.058 94.239C160.556 94.6264 159.926 94.8202 159.166 94.8202C158.581 94.8202 158.061 94.691 157.605 94.4327C157.149 94.1668 156.792 93.7946 156.534 93.316C156.276 92.8298 156.147 92.2639 156.147 91.6182ZM166.462 88.3934C166.933 88.3934 167.355 88.4921 167.727 88.6896C168.107 88.8871 168.403 89.191 168.616 89.6012C168.836 90.0039 168.946 90.4976 168.946 91.0826V94.729H168.16V91.1738C168.16 90.4976 167.989 89.9811 167.647 89.624C167.313 89.267 166.853 89.0885 166.269 89.0885C165.668 89.0885 165.19 89.2784 164.833 89.6582C164.476 90.038 164.297 90.5964 164.297 91.3333V94.729H163.5V86.2967H164.297V89.5671C164.495 89.1948 164.783 88.9061 165.163 88.701C165.551 88.4959 165.984 88.3934 166.462 88.3934ZM170.346 91.6068C170.346 90.9686 170.471 90.4103 170.722 89.9317C170.98 89.4455 171.333 89.0733 171.782 88.815C172.237 88.5491 172.75 88.4162 173.32 88.4162C173.912 88.4162 174.421 88.5529 174.847 88.8264C175.28 89.0999 175.591 89.4493 175.781 89.8747V88.5073H176.579V94.729H175.781V93.3502C175.584 93.7756 175.268 94.1289 174.835 94.4099C174.41 94.6834 173.901 94.8202 173.309 94.8202C172.746 94.8202 172.237 94.6872 171.782 94.4213C171.333 94.1555 170.98 93.7794 170.722 93.2932C170.471 92.807 170.346 92.2449 170.346 91.6068ZM175.781 91.6182C175.781 91.1168 175.679 90.6762 175.474 90.2963C175.268 89.9165 174.987 89.624 174.63 89.4189C174.281 89.2138 173.893 89.1112 173.468 89.1112C173.027 89.1112 172.632 89.21 172.283 89.4075C171.934 89.605 171.656 89.8937 171.451 90.2735C171.254 90.6458 171.155 91.0902 171.155 91.6068C171.155 92.1157 171.254 92.5639 171.451 92.9514C171.656 93.3312 171.934 93.6237 172.283 93.8288C172.632 94.0263 173.027 94.1251 173.468 94.1251C173.893 94.1251 174.281 94.0225 174.63 93.8174C174.987 93.6123 175.268 93.3198 175.474 92.94C175.679 92.5601 175.781 92.1195 175.781 91.6182ZM180.542 94.8202C179.828 94.8202 179.243 94.6568 178.787 94.3302C178.339 93.9959 178.088 93.5439 178.035 92.9742H178.856C178.894 93.3236 179.057 93.6085 179.346 93.8288C179.642 94.0415 180.037 94.1479 180.531 94.1479C180.964 94.1479 181.302 94.0453 181.545 93.8402C181.796 93.6351 181.921 93.3806 181.921 93.0767C181.921 92.864 181.853 92.6893 181.716 92.5526C181.579 92.4158 181.404 92.3095 181.192 92.2335C180.987 92.1499 180.705 92.0626 180.348 91.9714C179.885 91.8499 179.509 91.7283 179.22 91.6068C178.932 91.4852 178.685 91.3067 178.48 91.0712C178.282 90.8281 178.183 90.5052 178.183 90.1026C178.183 89.7987 178.275 89.5177 178.457 89.2594C178.639 89.0011 178.897 88.796 179.232 88.6441C179.566 88.4921 179.946 88.4162 180.371 88.4162C181.04 88.4162 181.579 88.5871 181.989 88.9289C182.4 89.2632 182.62 89.7266 182.65 90.3191H181.853C181.83 89.9545 181.685 89.662 181.42 89.4417C181.161 89.2138 180.804 89.0999 180.348 89.0999C179.946 89.0999 179.619 89.1948 179.368 89.3847C179.118 89.5746 178.992 89.8101 178.992 90.0912C178.992 90.3343 179.065 90.5356 179.209 90.6952C179.361 90.8471 179.547 90.9686 179.767 91.0598C179.988 91.1434 180.284 91.2383 180.656 91.3447C181.104 91.4662 181.461 91.584 181.727 91.6979C181.993 91.8119 182.221 91.979 182.411 92.1993C182.601 92.4196 182.7 92.7121 182.707 93.0767C182.707 93.411 182.616 93.711 182.434 93.9769C182.251 94.2352 181.997 94.4403 181.67 94.5923C181.344 94.7442 180.968 94.8202 180.542 94.8202ZM189.838 91.2991C189.838 91.5726 189.83 91.7815 189.815 91.9258H184.653C184.676 92.3968 184.79 92.7994 184.995 93.1337C185.2 93.468 185.47 93.7224 185.804 93.8972C186.138 94.0643 186.503 94.1479 186.898 94.1479C187.414 94.1479 187.848 94.0225 188.197 93.7718C188.554 93.5211 188.789 93.1831 188.903 92.7577H189.747C189.595 93.3654 189.268 93.863 188.767 94.2504C188.273 94.6302 187.65 94.8202 186.898 94.8202C186.313 94.8202 185.789 94.691 185.325 94.4327C184.862 94.1668 184.497 93.7946 184.231 93.316C183.973 92.8298 183.844 92.2639 183.844 91.6182C183.844 90.9724 183.973 90.4065 184.231 89.9203C184.49 89.4341 184.851 89.0619 185.314 88.8036C185.777 88.5453 186.305 88.4162 186.898 88.4162C187.49 88.4162 188.007 88.5453 188.448 88.8036C188.896 89.0619 189.238 89.4113 189.473 89.8519C189.716 90.2849 189.838 90.7673 189.838 91.2991ZM189.029 91.2763C189.036 90.8129 188.941 90.4179 188.744 90.0912C188.554 89.7646 188.292 89.5177 187.958 89.3505C187.623 89.1834 187.259 89.0999 186.864 89.0999C186.271 89.0999 185.766 89.2898 185.348 89.6696C184.93 90.0494 184.699 90.585 184.653 91.2763H189.029ZM194.06 91.6182C194.06 90.9724 194.189 90.4103 194.447 89.9317C194.705 89.4455 195.062 89.0733 195.518 88.815C195.974 88.5491 196.494 88.4162 197.079 88.4162C197.846 88.4162 198.477 88.6061 198.971 88.9859C199.472 89.3657 199.795 89.8823 199.939 90.5356H199.085C198.978 90.0874 198.747 89.738 198.39 89.4873C198.04 89.229 197.603 89.0999 197.079 89.0999C196.661 89.0999 196.285 89.1948 195.951 89.3847C195.617 89.5746 195.351 89.8595 195.153 90.2394C194.964 90.6116 194.869 91.0712 194.869 91.6182C194.869 92.1651 194.964 92.6285 195.153 93.0084C195.351 93.3882 195.617 93.6731 195.951 93.863C196.285 94.0529 196.661 94.1479 197.079 94.1479C197.603 94.1479 198.04 94.0225 198.39 93.7718C198.747 93.5135 198.978 93.1565 199.085 92.7007H199.939C199.795 93.3388 199.472 93.8516 198.971 94.239C198.469 94.6264 197.839 94.8202 197.079 94.8202C196.494 94.8202 195.974 94.691 195.518 94.4327C195.062 94.1668 194.705 93.7946 194.447 93.316C194.189 92.8298 194.06 92.2639 194.06 91.6182ZM204.136 94.8202C203.551 94.8202 203.023 94.691 202.552 94.4327C202.089 94.1668 201.72 93.7946 201.447 93.316C201.181 92.8298 201.048 92.2639 201.048 91.6182C201.048 90.9724 201.185 90.4103 201.458 89.9317C201.732 89.4455 202.104 89.0733 202.575 88.815C203.046 88.5491 203.574 88.4162 204.159 88.4162C204.744 88.4162 205.272 88.5491 205.743 88.815C206.221 89.0733 206.593 89.4455 206.859 89.9317C207.133 90.4103 207.27 90.9724 207.27 91.6182C207.27 92.2563 207.133 92.8184 206.859 93.3046C206.586 93.7908 206.21 94.1668 205.731 94.4327C205.253 94.691 204.721 94.8202 204.136 94.8202ZM204.136 94.1251C204.546 94.1251 204.926 94.0339 205.275 93.8516C205.625 93.6617 205.906 93.3806 206.119 93.0084C206.339 92.6285 206.449 92.1651 206.449 91.6182C206.449 91.0712 206.343 90.6116 206.13 90.2394C205.917 89.8595 205.636 89.5784 205.287 89.3961C204.937 89.2062 204.558 89.1112 204.147 89.1112C203.737 89.1112 203.357 89.2062 203.008 89.3961C202.658 89.5784 202.377 89.8595 202.165 90.2394C201.959 90.6116 201.857 91.0712 201.857 91.6182C201.857 92.1651 201.959 92.6285 202.165 93.0084C202.377 93.3806 202.655 93.6617 202.996 93.8516C203.346 94.0339 203.726 94.1251 204.136 94.1251ZM216.13 88.3934C216.86 88.3934 217.452 88.6251 217.908 89.0885C218.371 89.5443 218.603 90.209 218.603 91.0826V94.729H217.817V91.1738C217.817 90.4976 217.654 89.9811 217.327 89.624C217 89.267 216.556 89.0885 215.994 89.0885C215.409 89.0885 214.941 89.2822 214.592 89.6696C214.243 90.057 214.068 90.6192 214.068 91.3561V94.729H213.282V91.1738C213.282 90.4976 213.118 89.9811 212.792 89.624C212.465 89.267 212.017 89.0885 211.447 89.0885C210.862 89.0885 210.395 89.2822 210.045 89.6696C209.696 90.057 209.521 90.6192 209.521 91.3561V94.729H208.724V88.5073H209.521V89.5784C209.719 89.191 210 88.8985 210.364 88.701C210.729 88.4959 211.136 88.3934 211.584 88.3934C212.123 88.3934 212.594 88.5225 212.997 88.7808C213.407 89.0391 213.703 89.4189 213.886 89.9203C214.053 89.4265 214.338 89.0505 214.74 88.7922C215.15 88.5263 215.614 88.3934 216.13 88.3934ZM221.161 89.8747C221.358 89.4569 221.67 89.1112 222.095 88.8378C222.528 88.5567 223.041 88.4162 223.634 88.4162C224.196 88.4162 224.701 88.5491 225.149 88.815C225.605 89.0733 225.958 89.4455 226.209 89.9317C226.467 90.4103 226.596 90.9686 226.596 91.6068C226.596 92.2449 226.467 92.807 226.209 93.2932C225.958 93.7794 225.605 94.1555 225.149 94.4213C224.701 94.6872 224.196 94.8202 223.634 94.8202C223.049 94.8202 222.54 94.6834 222.107 94.4099C221.674 94.1289 221.358 93.7794 221.161 93.3616V97.6689H220.375V88.5073H221.161V89.8747ZM225.787 91.6068C225.787 91.0902 225.685 90.6458 225.48 90.2735C225.282 89.8937 225.009 89.605 224.659 89.4075C224.31 89.21 223.915 89.1112 223.474 89.1112C223.049 89.1112 222.657 89.2138 222.3 89.4189C221.951 89.624 221.674 89.9165 221.469 90.2963C221.263 90.6762 221.161 91.1168 221.161 91.6182C221.161 92.1195 221.263 92.5601 221.469 92.94C221.674 93.3198 221.951 93.6123 222.3 93.8174C222.657 94.0225 223.049 94.1251 223.474 94.1251C223.915 94.1251 224.31 94.0263 224.659 93.8288C225.009 93.6237 225.282 93.3312 225.48 92.9514C225.685 92.5639 225.787 92.1157 225.787 91.6068ZM228.862 86.2967V94.729H228.064V86.2967H228.862ZM236.297 91.2991C236.297 91.5726 236.29 91.7815 236.274 91.9258H231.112C231.135 92.3968 231.249 92.7994 231.454 93.1337C231.659 93.468 231.929 93.7224 232.263 93.8972C232.598 94.0643 232.962 94.1479 233.357 94.1479C233.874 94.1479 234.307 94.0225 234.656 93.7718C235.013 93.5211 235.249 93.1831 235.363 92.7577H236.206C236.054 93.3654 235.727 93.863 235.226 94.2504C234.732 94.6302 234.109 94.8202 233.357 94.8202C232.772 94.8202 232.248 94.691 231.785 94.4327C231.321 94.1668 230.957 93.7946 230.691 93.316C230.432 92.8298 230.303 92.2639 230.303 91.6182C230.303 90.9724 230.432 90.4065 230.691 89.9203C230.949 89.4341 231.31 89.0619 231.773 88.8036C232.237 88.5453 232.765 88.4162 233.357 88.4162C233.95 88.4162 234.466 88.5453 234.907 88.8036C235.355 89.0619 235.697 89.4113 235.932 89.8519C236.176 90.2849 236.297 90.7673 236.297 91.2991ZM235.488 91.2763C235.496 90.8129 235.401 90.4179 235.203 90.0912C235.013 89.7646 234.751 89.5177 234.417 89.3505C234.083 89.1834 233.718 89.0999 233.323 89.0999C232.73 89.0999 232.225 89.2898 231.807 89.6696C231.39 90.0494 231.158 90.585 231.112 91.2763H235.488ZM238.793 89.1796V93.0425C238.793 93.4224 238.866 93.6845 239.01 93.8288C239.154 93.9731 239.409 94.0453 239.773 94.0453H240.503V94.729H239.648C239.086 94.729 238.668 94.5999 238.395 94.3416C238.121 94.0757 237.984 93.6427 237.984 93.0425V89.1796H237.118V88.5073H237.984V86.9462H238.793V88.5073H240.503V89.1796H238.793ZM247.447 91.2991C247.447 91.5726 247.44 91.7815 247.425 91.9258H242.263C242.285 92.3968 242.399 92.7994 242.604 93.1337C242.81 93.468 243.079 93.7224 243.413 93.8972C243.748 94.0643 244.112 94.1479 244.507 94.1479C245.024 94.1479 245.457 94.0225 245.806 93.7718C246.163 93.5211 246.399 93.1831 246.513 92.7577H247.356C247.204 93.3654 246.878 93.863 246.376 94.2504C245.882 94.6302 245.259 94.8202 244.507 94.8202C243.922 94.8202 243.398 94.691 242.935 94.4327C242.472 94.1668 242.107 93.7946 241.841 93.316C241.583 92.8298 241.454 92.2639 241.454 91.6182C241.454 90.9724 241.583 90.4065 241.841 89.9203C242.099 89.4341 242.46 89.0619 242.924 88.8036C243.387 88.5453 243.915 88.4162 244.507 88.4162C245.1 88.4162 245.617 88.5453 246.057 88.8036C246.505 89.0619 246.847 89.4113 247.083 89.8519C247.326 90.2849 247.447 90.7673 247.447 91.2991ZM246.638 91.2763C246.646 90.8129 246.551 90.4179 246.353 90.0912C246.163 89.7646 245.901 89.5177 245.567 89.3505C245.233 89.1834 244.868 89.0999 244.473 89.0999C243.881 89.0999 243.376 89.2898 242.958 89.6696C242.54 90.0494 242.308 90.585 242.263 91.2763H246.638ZM248.542 91.6068C248.542 90.9686 248.671 90.4103 248.929 89.9317C249.188 89.4455 249.541 89.0733 249.989 88.815C250.445 88.5491 250.958 88.4162 251.528 88.4162C252.075 88.4162 252.568 88.5491 253.009 88.815C253.45 89.0809 253.772 89.4265 253.977 89.8519V86.2967H254.775V94.729H253.977V93.3388C253.788 93.7718 253.476 94.1289 253.043 94.4099C252.61 94.6834 252.101 94.8202 251.516 94.8202C250.946 94.8202 250.434 94.6872 249.978 94.4213C249.53 94.1555 249.176 93.7794 248.918 93.2932C248.667 92.807 248.542 92.2449 248.542 91.6068ZM253.977 91.6182C253.977 91.1168 253.875 90.6762 253.67 90.2963C253.465 89.9165 253.184 89.624 252.827 89.4189C252.477 89.2138 252.09 89.1112 251.664 89.1112C251.224 89.1112 250.829 89.21 250.479 89.4075C250.13 89.605 249.852 89.8937 249.647 90.2735C249.45 90.6458 249.351 91.0902 249.351 91.6068C249.351 92.1157 249.45 92.5639 249.647 92.9514C249.852 93.3312 250.13 93.6237 250.479 93.8288C250.829 94.0263 251.224 94.1251 251.664 94.1251C252.09 94.1251 252.477 94.0225 252.827 93.8174C253.184 93.6123 253.465 93.3198 253.67 92.94C253.875 92.5601 253.977 92.1195 253.977 91.6182Z" fill="#264154"/>
<path d="M170.903 349.327V357.246H169.604V351.822L167.189 357.246H166.288L163.861 351.822V357.246H162.562V349.327H163.964L166.744 355.537L169.513 349.327H170.903ZM178.263 350.968L174.411 360.198H173.067L174.343 357.144L171.87 350.968H173.317L175.084 355.754L176.918 350.968H178.263ZM183.502 351.891C183.723 351.602 184.023 351.359 184.402 351.161C184.782 350.964 185.211 350.865 185.69 350.865C186.237 350.865 186.735 351.002 187.183 351.275C187.639 351.541 187.996 351.917 188.254 352.403C188.512 352.89 188.641 353.448 188.641 354.079C188.641 354.709 188.512 355.275 188.254 355.776C187.996 356.27 187.639 356.658 187.183 356.939C186.735 357.212 186.237 357.349 185.69 357.349C185.211 357.349 184.786 357.254 184.414 357.064C184.042 356.867 183.738 356.623 183.502 356.335V360.232H182.203V350.968H183.502V351.891ZM187.32 354.079C187.32 353.646 187.228 353.273 187.046 352.962C186.871 352.643 186.636 352.403 186.34 352.244C186.051 352.077 185.739 351.993 185.405 351.993C185.079 351.993 184.767 352.077 184.471 352.244C184.182 352.411 183.947 352.654 183.764 352.973C183.59 353.292 183.502 353.668 183.502 354.101C183.502 354.534 183.59 354.914 183.764 355.241C183.947 355.56 184.182 355.803 184.471 355.97C184.767 356.137 185.079 356.221 185.405 356.221C185.739 356.221 186.051 356.137 186.34 355.97C186.636 355.795 186.871 355.545 187.046 355.218C187.228 354.891 187.32 354.512 187.32 354.079ZM192.649 357.349C192.057 357.349 191.521 357.216 191.043 356.95C190.564 356.677 190.188 356.297 189.915 355.811C189.641 355.317 189.504 354.747 189.504 354.101C189.504 353.463 189.645 352.897 189.926 352.403C190.207 351.91 190.591 351.53 191.077 351.264C191.563 350.998 192.106 350.865 192.706 350.865C193.307 350.865 193.85 350.998 194.336 351.264C194.822 351.53 195.206 351.91 195.487 352.403C195.768 352.897 195.908 353.463 195.908 354.101C195.908 354.739 195.764 355.305 195.475 355.799C195.187 356.293 194.792 356.677 194.29 356.95C193.796 357.216 193.25 357.349 192.649 357.349ZM192.649 356.221C192.984 356.221 193.295 356.141 193.584 355.981C193.88 355.822 194.119 355.583 194.302 355.264C194.484 354.945 194.575 354.557 194.575 354.101C194.575 353.646 194.488 353.262 194.313 352.95C194.138 352.631 193.907 352.392 193.618 352.233C193.329 352.073 193.018 351.993 192.684 351.993C192.349 351.993 192.038 352.073 191.749 352.233C191.468 352.392 191.244 352.631 191.077 352.95C190.91 353.262 190.826 353.646 190.826 354.101C190.826 354.777 190.997 355.302 191.339 355.674C191.688 356.038 192.125 356.221 192.649 356.221ZM198.492 351.879C198.681 351.56 198.932 351.313 199.244 351.139C199.563 350.956 199.939 350.865 200.372 350.865V352.21H200.041C199.532 352.21 199.145 352.339 198.879 352.597C198.621 352.855 198.492 353.304 198.492 353.942V357.246H197.193V350.968H198.492V351.879ZM203.081 352.027V355.503C203.081 355.738 203.135 355.909 203.241 356.016C203.355 356.114 203.545 356.164 203.811 356.164H204.608V357.246H203.583C202.998 357.246 202.55 357.11 202.238 356.836C201.927 356.563 201.771 356.118 201.771 355.503V352.027H201.03V350.968H201.771V349.407H203.081V350.968H204.608V352.027H203.081ZM208.438 352.027H207.276V357.246H205.965V352.027H205.224V350.968H205.965V350.523C205.965 349.802 206.155 349.277 206.535 348.951C206.922 348.616 207.526 348.449 208.347 348.449V349.532C207.952 349.532 207.674 349.608 207.515 349.76C207.355 349.904 207.276 350.159 207.276 350.523V350.968H208.438V352.027ZM212.313 357.349C211.72 357.349 211.184 357.216 210.706 356.95C210.227 356.677 209.851 356.297 209.578 355.811C209.304 355.317 209.167 354.747 209.167 354.101C209.167 353.463 209.308 352.897 209.589 352.403C209.87 351.91 210.254 351.53 210.74 351.264C211.226 350.998 211.769 350.865 212.369 350.865C212.97 350.865 213.513 350.998 213.999 351.264C214.485 351.53 214.869 351.91 215.15 352.403C215.431 352.897 215.571 353.463 215.571 354.101C215.571 354.739 215.427 355.305 215.138 355.799C214.85 356.293 214.455 356.677 213.953 356.95C213.46 357.216 212.913 357.349 212.313 357.349ZM212.313 356.221C212.647 356.221 212.958 356.141 213.247 355.981C213.543 355.822 213.782 355.583 213.965 355.264C214.147 354.945 214.238 354.557 214.238 354.101C214.238 353.646 214.151 353.262 213.976 352.95C213.801 352.631 213.57 352.392 213.281 352.233C212.992 352.073 212.681 351.993 212.347 351.993C212.012 351.993 211.701 352.073 211.412 352.233C211.131 352.392 210.907 352.631 210.74 352.95C210.573 353.262 210.489 353.646 210.489 354.101C210.489 354.777 210.66 355.302 211.002 355.674C211.352 356.038 211.788 356.221 212.313 356.221ZM218.155 348.814V357.246H216.856V348.814H218.155ZM220.521 350.136C220.286 350.136 220.088 350.056 219.929 349.897C219.769 349.737 219.689 349.539 219.689 349.304C219.689 349.068 219.769 348.871 219.929 348.711C220.088 348.552 220.286 348.472 220.521 348.472C220.749 348.472 220.943 348.552 221.102 348.711C221.262 348.871 221.342 349.068 221.342 349.304C221.342 349.539 221.262 349.737 221.102 349.897C220.943 350.056 220.749 350.136 220.521 350.136ZM221.159 350.968V357.246H219.86V350.968H221.159ZM225.588 357.349C224.996 357.349 224.46 357.216 223.981 356.95C223.503 356.677 223.127 356.297 222.853 355.811C222.58 355.317 222.443 354.747 222.443 354.101C222.443 353.463 222.584 352.897 222.865 352.403C223.146 351.91 223.529 351.53 224.016 351.264C224.502 350.998 225.045 350.865 225.645 350.865C226.245 350.865 226.788 350.998 227.275 351.264C227.761 351.53 228.144 351.91 228.426 352.403C228.707 352.897 228.847 353.463 228.847 354.101C228.847 354.739 228.703 355.305 228.414 355.799C228.125 356.293 227.73 356.677 227.229 356.95C226.735 357.216 226.188 357.349 225.588 357.349ZM225.588 356.221C225.922 356.221 226.234 356.141 226.523 355.981C226.819 355.822 227.058 355.583 227.24 355.264C227.423 354.945 227.514 354.557 227.514 354.101C227.514 353.646 227.427 353.262 227.252 352.95C227.077 352.631 226.845 352.392 226.557 352.233C226.268 352.073 225.957 351.993 225.622 351.993C225.288 351.993 224.977 352.073 224.688 352.233C224.407 352.392 224.183 352.631 224.016 352.95C223.849 353.262 223.765 353.646 223.765 354.101C223.765 354.777 223.936 355.302 224.278 355.674C224.627 356.038 225.064 356.221 225.588 356.221Z" fill="#002036"/>
<rect x="80.2755" y="339.003" width="230.433" height="28.4876" rx="8.54628" stroke="#0D6EFD" stroke-opacity="0.5" stroke-width="0.633058"/>
<path opacity="0.15" fill-rule="evenodd" clip-rule="evenodd" d="M82.4902 187.068C82.4902 186.894 82.6972 186.752 82.9524 186.752H308.03C308.285 186.752 308.492 186.894 308.492 187.068C308.492 187.243 308.285 187.385 308.03 187.385H82.9524C82.6972 187.385 82.4902 187.243 82.4902 187.068Z" fill="#264154"/>
<path opacity="0.15" fill-rule="evenodd" clip-rule="evenodd" d="M82.4902 117.432C82.4902 117.257 82.6972 117.116 82.9524 117.116H308.03C308.285 117.116 308.492 117.257 308.492 117.432C308.492 117.607 308.285 117.749 308.03 117.749H82.9524C82.6972 117.749 82.4902 117.607 82.4902 117.432Z" fill="#264154"/>
<path d="M169.387 161.601V169.43H168.875V162.672L165.866 169.43H165.456L162.436 162.672V169.43H161.924V161.601H162.471L165.661 168.757L168.852 161.601H169.387ZM171.533 161.863C171.412 161.863 171.309 161.825 171.226 161.749C171.142 161.666 171.1 161.556 171.1 161.419C171.1 161.29 171.142 161.183 171.226 161.1C171.309 161.016 171.412 160.975 171.533 160.975C171.655 160.975 171.757 161.016 171.841 161.1C171.924 161.183 171.966 161.29 171.966 161.419C171.966 161.556 171.924 161.666 171.841 161.749C171.757 161.825 171.655 161.863 171.533 161.863ZM171.784 163.242V169.43H171.271V163.242H171.784ZM173.345 166.33C173.345 165.692 173.47 165.134 173.721 164.655C173.979 164.177 174.332 163.808 174.78 163.55C175.236 163.292 175.753 163.162 176.33 163.162C176.983 163.162 177.538 163.322 177.994 163.641C178.45 163.96 178.769 164.366 178.951 164.86V163.242H179.464V169.43H178.951V167.8C178.769 168.302 178.446 168.716 177.982 169.042C177.527 169.361 176.976 169.521 176.33 169.521C175.753 169.521 175.236 169.392 174.78 169.133C174.332 168.868 173.979 168.495 173.721 168.017C173.47 167.531 173.345 166.968 173.345 166.33ZM178.951 166.33C178.951 165.791 178.837 165.316 178.609 164.906C178.389 164.488 178.085 164.169 177.698 163.949C177.31 163.721 176.877 163.607 176.398 163.607C175.897 163.607 175.456 163.717 175.077 163.937C174.697 164.15 174.401 164.461 174.188 164.872C173.975 165.282 173.869 165.768 173.869 166.33C173.869 166.892 173.975 167.379 174.188 167.789C174.401 168.199 174.697 168.514 175.077 168.735C175.464 168.955 175.905 169.065 176.398 169.065C176.877 169.065 177.31 168.955 177.698 168.735C178.093 168.507 178.4 168.188 178.621 167.777C178.841 167.36 178.951 166.877 178.951 166.33ZM188.646 163.117C189.353 163.117 189.93 163.345 190.378 163.801C190.827 164.249 191.051 164.917 191.051 165.806V169.43H190.549V165.84C190.549 165.103 190.371 164.541 190.014 164.154C189.664 163.759 189.182 163.561 188.567 163.561C187.929 163.561 187.416 163.782 187.028 164.222C186.641 164.663 186.447 165.301 186.447 166.137V169.43H185.946V165.84C185.946 165.103 185.767 164.541 185.41 164.154C185.061 163.759 184.578 163.561 183.963 163.561C183.325 163.561 182.812 163.782 182.425 164.222C182.037 164.663 181.844 165.301 181.844 166.137V169.43H181.331V163.242H181.844V164.587C182.018 164.101 182.299 163.736 182.687 163.493C183.082 163.242 183.534 163.117 184.043 163.117C184.605 163.117 185.087 163.265 185.49 163.561C185.9 163.85 186.181 164.279 186.333 164.849C186.478 164.279 186.759 163.85 187.176 163.561C187.594 163.265 188.084 163.117 188.646 163.117ZM193.133 161.863C193.011 161.863 192.909 161.825 192.825 161.749C192.741 161.666 192.7 161.556 192.7 161.419C192.7 161.29 192.741 161.183 192.825 161.1C192.909 161.016 193.011 160.975 193.133 160.975C193.254 160.975 193.357 161.016 193.44 161.1C193.524 161.183 193.566 161.29 193.566 161.419C193.566 161.556 193.524 161.666 193.44 161.749C193.357 161.825 193.254 161.863 193.133 161.863ZM193.383 163.242V169.43H192.871V163.242H193.383ZM195.605 168.233L194.534 171.15H194.146L195.012 168.233H195.605ZM204.229 161.43V161.863H200.616V165.202H203.773V165.635H200.616V169.43H200.104V161.43H204.229ZM206.103 168.997H209.077V169.43H205.59V161.43H206.103V168.997ZM213.252 163.447C213.321 162.756 213.586 162.213 214.05 161.818C214.521 161.423 215.14 161.225 215.907 161.225C216.401 161.225 216.823 161.316 217.172 161.499C217.522 161.673 217.787 161.913 217.97 162.217C218.152 162.52 218.243 162.866 218.243 163.254C218.243 163.74 218.095 164.161 217.799 164.518C217.503 164.868 217.051 165.077 216.443 165.145V165.214C217.028 165.305 217.499 165.529 217.856 165.886C218.213 166.243 218.391 166.721 218.391 167.322C218.391 167.96 218.179 168.484 217.753 168.894C217.335 169.297 216.72 169.498 215.907 169.498C215.14 169.498 214.506 169.293 214.004 168.883C213.51 168.473 213.214 167.891 213.115 167.139H213.617C213.708 167.701 213.951 168.161 214.346 168.518C214.741 168.868 215.261 169.042 215.907 169.042C216.561 169.042 217.054 168.879 217.389 168.552C217.73 168.226 217.901 167.804 217.901 167.287C217.901 166.664 217.662 166.197 217.183 165.886C216.712 165.574 216.036 165.419 215.155 165.419H214.939V164.974H215.167C216.883 164.967 217.742 164.404 217.742 163.288C217.742 162.802 217.578 162.41 217.252 162.114C216.933 161.818 216.481 161.67 215.896 161.67C215.326 161.67 214.844 161.822 214.449 162.125C214.061 162.422 213.83 162.862 213.754 163.447H213.252ZM219.862 163.447C219.931 162.756 220.196 162.213 220.66 161.818C221.131 161.423 221.75 161.225 222.517 161.225C223.011 161.225 223.433 161.316 223.782 161.499C224.132 161.673 224.397 161.913 224.58 162.217C224.762 162.52 224.853 162.866 224.853 163.254C224.853 163.74 224.705 164.161 224.409 164.518C224.113 164.868 223.661 165.077 223.053 165.145V165.214C223.638 165.305 224.109 165.529 224.466 165.886C224.823 166.243 225.001 166.721 225.001 167.322C225.001 167.96 224.789 168.484 224.363 168.894C223.945 169.297 223.33 169.498 222.517 169.498C221.75 169.498 221.116 169.293 220.614 168.883C220.12 168.473 219.824 167.891 219.725 167.139H220.227C220.318 167.701 220.561 168.161 220.956 168.518C221.351 168.868 221.872 169.042 222.517 169.042C223.171 169.042 223.664 168.879 223.999 168.552C224.34 168.226 224.511 167.804 224.511 167.287C224.511 166.664 224.272 166.197 223.793 165.886C223.322 165.574 222.646 165.419 221.765 165.419H221.549V164.974H221.777C223.493 164.967 224.352 164.404 224.352 163.288C224.352 162.802 224.189 162.41 223.862 162.114C223.543 161.818 223.091 161.67 222.506 161.67C221.936 161.67 221.454 161.822 221.059 162.125C220.671 162.422 220.44 162.862 220.364 163.447H219.862ZM226.313 169.054C227.741 168.066 228.865 167.113 229.686 166.193C230.514 165.274 230.928 164.393 230.928 163.55C230.928 162.995 230.78 162.543 230.483 162.194C230.195 161.844 229.72 161.67 229.059 161.67C228.398 161.67 227.893 161.871 227.543 162.274C227.194 162.676 226.996 163.208 226.951 163.869H226.449C226.503 163.033 226.761 162.384 227.224 161.92C227.688 161.457 228.299 161.225 229.059 161.225C229.75 161.225 230.316 161.419 230.757 161.806C231.205 162.194 231.429 162.771 231.429 163.538C231.429 164.488 230.992 165.445 230.119 166.41C229.253 167.375 228.261 168.226 227.145 168.962H231.691V169.396H226.313V169.054ZM238.053 161.784H233.677V165.054C233.883 164.765 234.183 164.53 234.578 164.347C234.973 164.158 235.402 164.063 235.865 164.063C236.481 164.063 236.982 164.188 237.369 164.439C237.764 164.682 238.049 165.001 238.224 165.396C238.399 165.791 238.486 166.22 238.486 166.683C238.486 167.2 238.391 167.671 238.201 168.096C238.011 168.514 237.711 168.852 237.301 169.111C236.898 169.361 236.389 169.487 235.774 169.487C235.03 169.487 234.414 169.285 233.928 168.883C233.45 168.473 233.157 167.922 233.051 167.23H233.552C233.666 167.815 233.921 168.264 234.316 168.575C234.711 168.879 235.197 169.031 235.774 169.031C236.511 169.031 237.066 168.818 237.438 168.393C237.81 167.96 237.996 167.394 237.996 166.695C237.996 166.011 237.806 165.476 237.426 165.088C237.054 164.701 236.519 164.507 235.82 164.507C235.341 164.507 234.912 164.613 234.532 164.826C234.16 165.039 233.871 165.331 233.666 165.704H233.187V161.328H238.053V161.784ZM240.668 167.31C240.744 167.865 240.945 168.294 241.272 168.598C241.606 168.902 242.054 169.054 242.616 169.054C243.384 169.054 243.965 168.769 244.36 168.199C244.763 167.629 244.964 166.706 244.964 165.43L244.952 164.986C244.839 165.487 244.554 165.886 244.098 166.182C243.65 166.478 243.125 166.627 242.525 166.627C241.705 166.627 241.059 166.383 240.588 165.897C240.117 165.411 239.882 164.739 239.882 163.88C239.882 163.121 240.098 162.49 240.531 161.989C240.972 161.48 241.633 161.225 242.514 161.225C243.623 161.225 244.383 161.579 244.793 162.285C245.211 162.991 245.42 163.975 245.42 165.236C245.42 166.627 245.203 167.686 244.77 168.416C244.337 169.137 243.612 169.498 242.594 169.498C241.88 169.498 241.317 169.301 240.907 168.906C240.497 168.503 240.254 167.971 240.178 167.31H240.668ZM242.582 166.193C242.97 166.193 243.338 166.114 243.688 165.954C244.037 165.787 244.318 165.544 244.531 165.225C244.751 164.906 244.861 164.518 244.861 164.063C244.861 163.63 244.778 163.231 244.611 162.866C244.443 162.502 244.181 162.209 243.824 161.989C243.475 161.768 243.038 161.658 242.514 161.658C241.868 161.658 241.348 161.86 240.953 162.262C240.565 162.657 240.372 163.197 240.372 163.88C240.372 164.617 240.565 165.187 240.953 165.59C241.34 165.992 241.883 166.193 242.582 166.193Z" fill="#264154"/>
<path opacity="0.35" d="M152.578 160.182C152.025 160.275 151.57 160.457 151.127 160.76C150.373 161.276 149.849 162.077 149.657 163.005C149.598 163.28 149.577 163.833 149.611 164.123C149.711 164.949 150.135 165.955 150.837 167.026C151.155 167.508 151.655 168.169 152.058 168.639C152.285 168.9 152.758 169.42 152.883 169.544C152.99 169.648 153.008 169.659 153.081 169.659C153.157 169.659 153.162 169.656 153.398 169.411C154.28 168.488 155.114 167.406 155.638 166.506C156.139 165.647 156.434 164.88 156.534 164.184C156.577 163.868 156.561 163.31 156.498 163.005C156.206 161.593 155.157 160.52 153.775 160.219C153.585 160.177 153.505 160.169 153.141 160.166C152.854 160.16 152.678 160.166 152.578 160.182ZM153.476 162.152C153.656 162.198 153.94 162.347 154.084 162.471C154.795 163.083 154.853 164.16 154.212 164.848C153.745 165.351 152.957 165.483 152.355 165.158C151.94 164.934 151.643 164.546 151.535 164.091C151.487 163.876 151.487 163.564 151.535 163.349C151.613 163.018 151.817 162.686 152.076 162.465C152.214 162.348 152.504 162.196 152.678 162.15C152.916 162.087 153.233 162.087 153.476 162.152Z" fill="#264154"/>
<path d="M108.78 136.573V134.286H113.052V147.208H110.499V136.573H108.78ZM115.503 140.579C115.503 138.535 115.869 136.933 116.602 135.775C117.347 134.617 118.576 134.038 120.289 134.038C122.003 134.038 123.226 134.617 123.958 135.775C124.703 136.933 125.075 138.535 125.075 140.579C125.075 142.635 124.703 144.248 123.958 145.418C123.226 146.588 122.003 147.173 120.289 147.173C118.576 147.173 117.347 146.588 116.602 145.418C115.869 144.248 115.503 142.635 115.503 140.579ZM122.629 140.579C122.629 139.704 122.57 138.972 122.452 138.381C122.345 137.778 122.121 137.288 121.778 136.91C121.447 136.532 120.951 136.342 120.289 136.342C119.627 136.342 119.125 136.532 118.782 136.91C118.451 137.288 118.227 137.778 118.109 138.381C118.002 138.972 117.949 139.704 117.949 140.579C117.949 141.477 118.002 142.233 118.109 142.848C118.215 143.45 118.44 143.941 118.782 144.319C119.125 144.685 119.627 144.868 120.289 144.868C120.951 144.868 121.453 144.685 121.796 144.319C122.138 143.941 122.363 143.45 122.469 142.848C122.576 142.233 122.629 141.477 122.629 140.579ZM126.962 140.579C126.962 138.535 127.329 136.933 128.061 135.775C128.806 134.617 130.035 134.038 131.748 134.038C133.462 134.038 134.685 134.617 135.418 135.775C136.162 136.933 136.534 138.535 136.534 140.579C136.534 142.635 136.162 144.248 135.418 145.418C134.685 146.588 133.462 147.173 131.748 147.173C130.035 147.173 128.806 146.588 128.061 145.418C127.329 144.248 126.962 142.635 126.962 140.579ZM134.088 140.579C134.088 139.704 134.029 138.972 133.911 138.381C133.805 137.778 133.58 137.288 133.237 136.91C132.906 136.532 132.41 136.342 131.748 136.342C131.087 136.342 130.584 136.532 130.242 136.91C129.911 137.288 129.686 137.778 129.568 138.381C129.462 138.972 129.409 139.704 129.409 140.579C129.409 141.477 129.462 142.233 129.568 142.848C129.674 143.45 129.899 143.941 130.242 144.319C130.584 144.685 131.087 144.868 131.748 144.868C132.41 144.868 132.912 144.685 133.255 144.319C133.598 143.941 133.822 143.45 133.929 142.848C134.035 142.233 134.088 141.477 134.088 140.579ZM148.672 147.332C147.514 147.332 146.451 147.061 145.482 146.517C144.513 145.973 143.744 145.223 143.177 144.266C142.61 143.297 142.326 142.204 142.326 140.987C142.326 139.781 142.61 138.7 143.177 137.743C143.744 136.774 144.513 136.017 145.482 135.474C146.451 134.93 147.514 134.659 148.672 134.659C149.842 134.659 150.906 134.93 151.863 135.474C152.832 136.017 153.594 136.774 154.149 137.743C154.717 138.7 155 139.781 155 140.987C155 142.204 154.717 143.297 154.149 144.266C153.594 145.223 152.832 145.973 151.863 146.517C150.894 147.061 149.83 147.332 148.672 147.332ZM148.672 145.117C149.417 145.117 150.073 144.951 150.64 144.62C151.207 144.278 151.65 143.793 151.969 143.167C152.288 142.541 152.448 141.814 152.448 140.987C152.448 140.159 152.288 139.439 151.969 138.824C151.65 138.198 151.207 137.719 150.64 137.388C150.073 137.057 149.417 136.892 148.672 136.892C147.928 136.892 147.266 137.057 146.687 137.388C146.12 137.719 145.677 138.198 145.358 138.824C145.038 139.439 144.879 140.159 144.879 140.987C144.879 141.814 145.038 142.541 145.358 143.167C145.677 143.793 146.12 144.278 146.687 144.62C147.266 144.951 147.928 145.117 148.672 145.117ZM156.208 142.298C156.208 141.282 156.415 140.396 156.829 139.639C157.242 138.871 157.815 138.28 158.548 137.867C159.281 137.441 160.12 137.229 161.065 137.229C162.282 137.229 163.287 137.536 164.079 138.15C164.882 138.753 165.42 139.604 165.692 140.703H163.015C162.873 140.278 162.631 139.947 162.288 139.71C161.957 139.462 161.544 139.338 161.047 139.338C160.338 139.338 159.777 139.598 159.364 140.118C158.95 140.626 158.743 141.353 158.743 142.298C158.743 143.232 158.95 143.959 159.364 144.479C159.777 144.987 160.338 145.241 161.047 145.241C162.052 145.241 162.708 144.792 163.015 143.894H165.692C165.42 144.957 164.882 145.802 164.079 146.428C163.275 147.055 162.271 147.368 161.065 147.368C160.12 147.368 159.281 147.161 158.548 146.747C157.815 146.322 157.242 145.731 156.829 144.975C156.415 144.207 156.208 143.315 156.208 142.298ZM176.638 142.086C176.638 142.44 176.615 142.759 176.567 143.043H169.388C169.448 143.752 169.696 144.307 170.133 144.709C170.57 145.111 171.108 145.312 171.746 145.312C172.668 145.312 173.324 144.916 173.714 144.124H176.39C176.106 145.069 175.563 145.849 174.759 146.464C173.956 147.066 172.969 147.368 171.799 147.368C170.854 147.368 170.003 147.161 169.247 146.747C168.502 146.322 167.917 145.725 167.492 144.957C167.078 144.189 166.871 143.303 166.871 142.298C166.871 141.282 167.078 140.39 167.492 139.622C167.905 138.854 168.484 138.263 169.229 137.849C169.973 137.436 170.83 137.229 171.799 137.229C172.733 137.229 173.566 137.43 174.298 137.831C175.043 138.233 175.616 138.806 176.018 139.551C176.431 140.283 176.638 141.128 176.638 142.086ZM174.068 141.377C174.056 140.738 173.826 140.23 173.377 139.852C172.928 139.462 172.378 139.267 171.728 139.267C171.114 139.267 170.594 139.456 170.168 139.834C169.755 140.201 169.501 140.715 169.406 141.377H174.068ZM177.811 142.263C177.811 141.27 178.006 140.39 178.396 139.622C178.798 138.854 179.336 138.263 180.009 137.849C180.695 137.436 181.457 137.229 182.296 137.229C183.029 137.229 183.667 137.376 184.21 137.672C184.766 137.967 185.209 138.34 185.54 138.789V137.388H188.039V147.208H185.54V145.772C185.221 146.233 184.778 146.617 184.21 146.925C183.655 147.22 183.011 147.368 182.278 147.368C181.451 147.368 180.695 147.155 180.009 146.73C179.336 146.304 178.798 145.707 178.396 144.939C178.006 144.159 177.811 143.267 177.811 142.263ZM185.54 142.298C185.54 141.696 185.422 141.182 185.185 140.756C184.949 140.319 184.63 139.988 184.228 139.763C183.826 139.527 183.395 139.409 182.934 139.409C182.473 139.409 182.048 139.521 181.658 139.746C181.268 139.97 180.949 140.301 180.701 140.738C180.464 141.164 180.346 141.672 180.346 142.263C180.346 142.854 180.464 143.374 180.701 143.823C180.949 144.26 181.268 144.597 181.658 144.833C182.06 145.069 182.485 145.188 182.934 145.188C183.395 145.188 183.826 145.075 184.228 144.851C184.63 144.614 184.949 144.284 185.185 143.858C185.422 143.421 185.54 142.901 185.54 142.298ZM195.905 137.246C197.074 137.246 198.02 137.619 198.741 138.363C199.462 139.096 199.822 140.124 199.822 141.447V147.208H197.34V141.784C197.34 141.004 197.145 140.408 196.755 139.994C196.365 139.569 195.834 139.356 195.16 139.356C194.475 139.356 193.931 139.569 193.529 139.994C193.139 140.408 192.944 141.004 192.944 141.784V147.208H190.463V137.388H192.944V138.611C193.275 138.186 193.695 137.855 194.203 137.619C194.723 137.371 195.29 137.246 195.905 137.246ZM210.731 134.836C212.03 134.836 213.171 135.09 214.152 135.598C215.144 136.106 215.906 136.833 216.438 137.778C216.982 138.712 217.254 139.799 217.254 141.04C217.254 142.281 216.982 143.368 216.438 144.301C215.906 145.223 215.144 145.938 214.152 146.446C213.171 146.954 212.03 147.208 210.731 147.208H206.406V134.836H210.731ZM210.642 145.099C211.942 145.099 212.946 144.744 213.655 144.035C214.364 143.326 214.719 142.328 214.719 141.04C214.719 139.752 214.364 138.747 213.655 138.026C212.946 137.294 211.942 136.927 210.642 136.927H208.887V145.099H210.642ZM221.593 138.913C221.912 138.393 222.325 137.985 222.834 137.69C223.354 137.394 223.944 137.246 224.606 137.246V139.852H223.95C223.17 139.852 222.579 140.035 222.178 140.402C221.788 140.768 221.593 141.406 221.593 142.316V147.208H219.111V137.388H221.593V138.913ZM227.536 136.218C227.099 136.218 226.733 136.082 226.437 135.811C226.154 135.527 226.012 135.178 226.012 134.765C226.012 134.351 226.154 134.009 226.437 133.737C226.733 133.453 227.099 133.311 227.536 133.311C227.973 133.311 228.334 133.453 228.617 133.737C228.913 134.009 229.061 134.351 229.061 134.765C229.061 135.178 228.913 135.527 228.617 135.811C228.334 136.082 227.973 136.218 227.536 136.218ZM228.759 137.388V147.208H226.278V137.388H228.759ZM235.306 144.922L237.787 137.388H240.428L236.795 147.208H233.781L230.165 137.388H232.824L235.306 144.922ZM250.951 142.086C250.951 142.44 250.927 142.759 250.88 143.043H243.701C243.76 143.752 244.008 144.307 244.446 144.709C244.883 145.111 245.42 145.312 246.059 145.312C246.98 145.312 247.636 144.916 248.026 144.124H250.703C250.419 145.069 249.875 145.849 249.072 146.464C248.268 147.066 247.282 147.368 246.112 147.368C245.166 147.368 244.316 147.161 243.559 146.747C242.815 146.322 242.23 145.725 241.804 144.957C241.391 144.189 241.184 143.303 241.184 142.298C241.184 141.282 241.391 140.39 241.804 139.622C242.218 138.854 242.797 138.263 243.542 137.849C244.286 137.436 245.143 137.229 246.112 137.229C247.045 137.229 247.878 137.43 248.611 137.831C249.356 138.233 249.929 138.806 250.33 139.551C250.744 140.283 250.951 141.128 250.951 142.086ZM248.381 141.377C248.369 140.738 248.138 140.23 247.689 139.852C247.24 139.462 246.691 139.267 246.041 139.267C245.426 139.267 244.906 139.456 244.481 139.834C244.067 140.201 243.813 140.715 243.719 141.377H248.381Z" fill="#002036"/>
<path d="M257.228 148.126C256.529 147.412 255.971 146.508 255.553 145.414C255.135 144.313 254.926 143.101 254.926 141.779C254.926 140.45 255.139 139.227 255.564 138.11C255.99 136.993 256.563 136.078 257.285 135.364H257.832V135.421C257.05 136.211 256.453 137.16 256.043 138.269C255.633 139.371 255.428 140.541 255.428 141.779C255.428 143.01 255.629 144.168 256.032 145.255C256.434 146.341 257.015 147.279 257.775 148.069V148.126H257.228ZM259.814 138.44V141.779H263.004V142.212H259.814V145.574H263.346V146.007H259.301V138.007H263.346V138.44H259.814ZM267.337 142.007L269.741 146.007H269.16L267.006 142.417L264.944 146.007H264.374L266.744 141.973L264.363 138.007H264.944L267.075 141.563L269.171 138.007H269.753L267.337 142.007ZM275.404 146.007L273.353 142.599H273.307H271.598V146.007H271.085V138.007H273.285C274.173 138.007 274.838 138.216 275.279 138.634C275.727 139.052 275.951 139.606 275.951 140.298C275.951 140.913 275.776 141.422 275.427 141.825C275.085 142.22 274.584 142.463 273.923 142.554L276.019 146.007H275.404ZM271.598 142.166H273.307C274.014 142.166 274.542 141.996 274.891 141.654C275.241 141.312 275.416 140.86 275.416 140.298C275.416 139.075 274.705 138.463 273.285 138.463H271.598V142.166ZM277.131 148.126V148.069C277.891 147.279 278.472 146.341 278.874 145.255C279.277 144.168 279.478 143.01 279.478 141.779C279.478 140.541 279.273 139.371 278.863 138.269C278.453 137.16 277.856 136.211 277.074 135.421V135.364H277.621C278.343 136.078 278.916 136.993 279.342 138.11C279.767 139.227 279.98 140.45 279.98 141.779C279.98 143.101 279.771 144.313 279.353 145.414C278.935 146.508 278.377 147.412 277.678 148.126H277.131Z" fill="#264154"/>
<path d="M90.273 233.099L88.2447 231.367C87.8421 231.496 87.4243 231.561 86.9913 231.561C86.2544 231.561 85.5897 231.39 84.9971 231.048C84.4046 230.698 83.9412 230.212 83.6069 229.589C83.2727 228.966 83.1056 228.264 83.1056 227.481C83.1056 226.691 83.2727 225.988 83.6069 225.373C83.9412 224.75 84.4046 224.268 84.9971 223.926C85.5897 223.577 86.2544 223.402 86.9913 223.402C87.7282 223.402 88.3929 223.577 88.9854 223.926C89.578 224.268 90.0413 224.75 90.3756 225.373C90.7099 225.988 90.877 226.691 90.877 227.481C90.877 228.324 90.6833 229.069 90.2958 229.715C89.916 230.36 89.3994 230.847 88.7461 231.173L91.0023 233.099H90.273ZM83.6297 227.481C83.6297 228.211 83.7779 228.849 84.0741 229.396C84.3704 229.943 84.773 230.364 85.282 230.66C85.791 230.957 86.3608 231.105 86.9913 231.105C87.6218 231.105 88.1916 230.957 88.7005 230.66C89.2095 230.364 89.6083 229.943 89.897 229.396C90.1933 228.849 90.3414 228.211 90.3414 227.481C90.3414 226.744 90.1933 226.102 89.897 225.555C89.6083 225.008 89.2095 224.587 88.7005 224.291C88.1916 223.994 87.6218 223.846 86.9913 223.846C86.3608 223.846 85.791 223.994 85.282 224.291C84.773 224.587 84.3704 225.008 84.0741 225.555C83.7779 226.102 83.6297 226.744 83.6297 227.481ZM97.6686 225.282V231.469H97.1558V230.125C96.9811 230.596 96.6886 230.957 96.2784 231.207C95.8758 231.45 95.4124 231.572 94.8882 231.572C94.1513 231.572 93.5474 231.348 93.0764 230.9C92.613 230.444 92.3813 229.772 92.3813 228.883V225.282H92.8827V228.849C92.8827 229.586 93.0688 230.151 93.441 230.546C93.8133 230.934 94.3185 231.128 94.9566 231.128C95.6251 231.128 96.1569 230.915 96.5519 230.49C96.9545 230.064 97.1558 229.434 97.1558 228.598V225.282H97.6686ZM99.2189 228.37C99.2189 227.732 99.3442 227.174 99.5949 226.695C99.8532 226.216 100.206 225.848 100.655 225.59C101.11 225.331 101.627 225.202 102.204 225.202C102.858 225.202 103.412 225.362 103.868 225.681C104.324 226 104.643 226.406 104.825 226.9V225.282H105.338V231.469H104.825V229.84C104.643 230.341 104.32 230.755 103.857 231.082C103.401 231.401 102.85 231.561 102.204 231.561C101.627 231.561 101.11 231.431 100.655 231.173C100.206 230.907 99.8532 230.535 99.5949 230.056C99.3442 229.57 99.2189 229.008 99.2189 228.37ZM104.825 228.37C104.825 227.831 104.711 227.356 104.483 226.946C104.263 226.528 103.959 226.209 103.572 225.988C103.184 225.761 102.751 225.647 102.273 225.647C101.771 225.647 101.331 225.757 100.951 225.977C100.571 226.19 100.275 226.501 100.062 226.911C99.8494 227.322 99.743 227.808 99.743 228.37C99.743 228.932 99.8494 229.418 100.062 229.829C100.275 230.239 100.571 230.554 100.951 230.774C101.338 230.995 101.779 231.105 102.273 231.105C102.751 231.105 103.184 230.995 103.572 230.774C103.967 230.546 104.274 230.227 104.495 229.817C104.715 229.399 104.825 228.917 104.825 228.37ZM109.997 225.157C110.734 225.157 111.334 225.385 111.797 225.84C112.261 226.289 112.492 226.957 112.492 227.846V231.469H111.991V227.88C111.991 227.143 111.805 226.581 111.433 226.194C111.06 225.799 110.555 225.601 109.917 225.601C109.249 225.601 108.713 225.814 108.31 226.239C107.915 226.665 107.718 227.295 107.718 228.131V231.469H107.205V225.282H107.718V226.592C107.893 226.129 108.181 225.776 108.584 225.533C108.994 225.282 109.465 225.157 109.997 225.157ZM115.068 225.726V229.817C115.068 230.273 115.152 230.588 115.319 230.763C115.486 230.93 115.782 231.014 116.208 231.014H116.903V231.469H116.128C115.589 231.469 115.19 231.344 114.931 231.093C114.681 230.835 114.555 230.41 114.555 229.817V225.726H113.621V225.282H114.555V223.709H115.068V225.282H116.903V225.726H115.068ZM118.517 223.903C118.396 223.903 118.293 223.865 118.21 223.789C118.126 223.706 118.084 223.596 118.084 223.459C118.084 223.33 118.126 223.223 118.21 223.14C118.293 223.056 118.396 223.014 118.517 223.014C118.639 223.014 118.741 223.056 118.825 223.14C118.908 223.223 118.95 223.33 118.95 223.459C118.95 223.596 118.908 223.706 118.825 223.789C118.741 223.865 118.639 223.903 118.517 223.903ZM118.768 225.282V231.469H118.255V225.282H118.768ZM121.411 225.726V229.817C121.411 230.273 121.495 230.588 121.662 230.763C121.829 230.93 122.125 231.014 122.551 231.014H123.246V231.469H122.471C121.932 231.469 121.533 231.344 121.274 231.093C121.024 230.835 120.898 230.41 120.898 229.817V225.726H119.964V225.282H120.898V223.709H121.411V225.282H123.246V225.726H121.411ZM129.43 225.282L125.829 234.375H125.305L126.456 231.469L123.857 225.282H124.416L126.74 230.9L128.905 225.282H129.43Z" fill="#264154"/>
<path d="M272.514 223.983H268.343V226.9C268.533 226.634 268.81 226.418 269.175 226.251C269.54 226.076 269.935 225.988 270.36 225.988C270.983 225.988 271.492 226.118 271.887 226.376C272.282 226.627 272.567 226.957 272.742 227.367C272.916 227.77 273.004 228.203 273.004 228.666C273.004 229.198 272.901 229.68 272.696 230.113C272.498 230.539 272.191 230.877 271.773 231.128C271.363 231.378 270.85 231.504 270.235 231.504C269.452 231.504 268.818 231.302 268.332 230.9C267.846 230.49 267.549 229.939 267.443 229.247H268.229C268.328 229.749 268.556 230.136 268.913 230.41C269.27 230.683 269.711 230.82 270.235 230.82C270.896 230.82 271.393 230.626 271.727 230.239C272.069 229.844 272.24 229.323 272.24 228.678C272.24 228.047 272.069 227.557 271.727 227.208C271.386 226.851 270.896 226.672 270.257 226.672C269.817 226.672 269.429 226.775 269.095 226.98C268.761 227.185 268.514 227.462 268.355 227.812H267.602V223.288H272.514V223.983ZM274.396 227.31C274.396 226.004 274.597 224.99 275 224.268C275.403 223.546 276.124 223.185 277.165 223.185C278.206 223.185 278.927 223.546 279.33 224.268C279.733 224.99 279.934 226.004 279.934 227.31C279.934 228.64 279.733 229.669 279.33 230.398C278.927 231.128 278.206 231.492 277.165 231.492C276.117 231.492 275.391 231.128 274.989 230.398C274.594 229.669 274.396 228.64 274.396 227.31ZM279.148 227.31C279.148 226.604 279.098 226.007 279 225.521C278.901 225.035 278.707 224.644 278.418 224.348C278.13 224.051 277.712 223.903 277.165 223.903C276.618 223.903 276.2 224.051 275.912 224.348C275.623 224.644 275.429 225.035 275.33 225.521C275.232 226.007 275.182 226.604 275.182 227.31C275.182 228.04 275.232 228.651 275.33 229.145C275.429 229.631 275.623 230.022 275.912 230.319C276.2 230.615 276.618 230.763 277.165 230.763C277.712 230.763 278.13 230.615 278.418 230.319C278.707 230.022 278.901 229.631 279 229.145C279.098 228.651 279.148 228.04 279.148 227.31ZM285.479 223.504V228.518C285.479 229.308 285.665 229.893 286.037 230.273C286.417 230.653 286.934 230.843 287.587 230.843C288.241 230.843 288.749 230.657 289.114 230.284C289.486 229.905 289.672 229.316 289.672 228.518V223.504H290.47V228.507C290.47 229.517 290.2 230.277 289.661 230.786C289.129 231.295 288.434 231.549 287.576 231.549C286.717 231.549 286.018 231.295 285.479 230.786C284.947 230.277 284.681 229.517 284.681 228.507V223.504H285.479ZM295.166 225.134C295.911 225.134 296.519 225.366 296.99 225.829C297.461 226.285 297.696 226.949 297.696 227.823V231.469H296.91V227.914C296.91 227.238 296.739 226.722 296.397 226.365C296.063 226.007 295.603 225.829 295.018 225.829C294.418 225.829 293.94 226.019 293.583 226.399C293.225 226.779 293.047 227.337 293.047 228.074V231.469H292.249V225.248H293.047V226.308C293.244 225.928 293.529 225.639 293.902 225.442C294.274 225.236 294.695 225.134 295.166 225.134ZM299.859 224.074C299.699 224.074 299.563 224.017 299.449 223.903C299.335 223.789 299.278 223.649 299.278 223.482C299.278 223.314 299.335 223.178 299.449 223.071C299.563 222.957 299.699 222.9 299.859 222.9C300.019 222.9 300.155 222.957 300.269 223.071C300.383 223.178 300.44 223.314 300.44 223.482C300.44 223.649 300.383 223.789 300.269 223.903C300.155 224.017 300.019 224.074 299.859 224.074ZM300.258 225.248V231.469H299.46V225.248H300.258ZM303.101 225.92V229.783C303.101 230.163 303.173 230.425 303.318 230.569C303.462 230.714 303.716 230.786 304.081 230.786H304.81V231.469H303.956C303.394 231.469 302.976 231.34 302.702 231.082C302.429 230.816 302.292 230.383 302.292 229.783V225.92H301.426V225.248H302.292V223.687H303.101V225.248H304.81V225.92H303.101ZM308.268 231.561C307.554 231.561 306.969 231.397 306.513 231.071C306.065 230.736 305.814 230.284 305.761 229.715H306.582C306.62 230.064 306.783 230.349 307.072 230.569C307.368 230.782 307.763 230.888 308.257 230.888C308.69 230.888 309.028 230.786 309.271 230.581C309.522 230.376 309.647 230.121 309.647 229.817C309.647 229.604 309.579 229.43 309.442 229.293C309.305 229.156 309.13 229.05 308.918 228.974C308.713 228.89 308.431 228.803 308.074 228.712C307.611 228.59 307.235 228.469 306.946 228.347C306.658 228.226 306.411 228.047 306.206 227.812C306.008 227.569 305.909 227.246 305.909 226.843C305.909 226.539 306.001 226.258 306.183 226C306.365 225.742 306.623 225.536 306.958 225.385C307.292 225.233 307.672 225.157 308.097 225.157C308.766 225.157 309.305 225.328 309.715 225.669C310.126 226.004 310.346 226.467 310.376 227.06H309.579C309.556 226.695 309.411 226.402 309.146 226.182C308.887 225.954 308.53 225.84 308.074 225.84C307.672 225.84 307.345 225.935 307.094 226.125C306.844 226.315 306.718 226.551 306.718 226.832C306.718 227.075 306.791 227.276 306.935 227.436C307.087 227.588 307.273 227.709 307.493 227.8C307.714 227.884 308.01 227.979 308.382 228.085C308.83 228.207 309.187 228.324 309.453 228.438C309.719 228.552 309.947 228.719 310.137 228.94C310.327 229.16 310.426 229.453 310.433 229.817C310.433 230.151 310.342 230.452 310.16 230.717C309.977 230.976 309.723 231.181 309.396 231.333C309.07 231.485 308.694 231.561 308.268 231.561Z" fill="#002036"/>
<path d="M88.2675 259.911C88.2675 260.618 88.0472 261.169 87.6066 261.564C87.166 261.951 86.5127 262.145 85.6467 262.145H83.9374V265.655H83.4246V257.655H85.6467C86.5279 257.655 87.185 257.86 87.618 258.271C88.051 258.673 88.2675 259.22 88.2675 259.911ZM85.6467 261.689C87.052 261.689 87.7547 261.097 87.7547 259.911C87.7547 259.326 87.5876 258.882 87.2534 258.578C86.9191 258.267 86.3835 258.111 85.6467 258.111H83.9374V261.689H85.6467ZM94.8755 259.467V265.655H94.3627V264.31C94.188 264.781 93.8955 265.142 93.4853 265.392C93.0827 265.636 92.6193 265.757 92.0951 265.757C91.3582 265.757 90.7543 265.533 90.2833 265.085C89.8199 264.629 89.5882 263.957 89.5882 263.068V259.467H90.0896V263.034C90.0896 263.771 90.2757 264.337 90.6479 264.732C91.0202 265.119 91.5253 265.313 92.1635 265.313C92.832 265.313 93.3637 265.1 93.7588 264.675C94.1614 264.249 94.3627 263.619 94.3627 262.783V259.467H94.8755ZM97.2576 260.743C97.4095 260.287 97.6792 259.942 98.0666 259.706C98.4541 259.463 98.9479 259.342 99.548 259.342V259.877H99.3771C98.7693 259.877 98.2641 260.052 97.8615 260.401C97.4589 260.743 97.2576 261.305 97.2576 262.088V265.655H96.7448V259.467H97.2576V260.743ZM100.41 262.555C100.41 261.909 100.535 261.347 100.786 260.869C101.044 260.39 101.397 260.025 101.845 259.775C102.301 259.516 102.822 259.387 103.406 259.387C104.181 259.387 104.816 259.581 105.309 259.968C105.811 260.356 106.122 260.876 106.244 261.53H105.708C105.609 260.998 105.351 260.58 104.933 260.276C104.523 259.972 104.014 259.82 103.406 259.82C102.951 259.82 102.537 259.923 102.164 260.128C101.792 260.325 101.492 260.633 101.264 261.051C101.044 261.461 100.934 261.963 100.934 262.555C100.934 263.155 101.044 263.66 101.264 264.071C101.492 264.481 101.792 264.789 102.164 264.994C102.537 265.199 102.951 265.301 103.406 265.301C104.014 265.301 104.523 265.149 104.933 264.845C105.351 264.542 105.609 264.124 105.708 263.592H106.244C106.122 264.238 105.811 264.758 105.309 265.153C104.808 265.548 104.174 265.746 103.406 265.746C102.822 265.746 102.301 265.617 101.845 265.358C101.397 265.1 101.044 264.732 100.786 264.253C100.535 263.767 100.41 263.201 100.41 262.555ZM110.609 259.342C111.338 259.342 111.935 259.57 112.398 260.025C112.862 260.474 113.093 261.142 113.093 262.031V265.655H112.592V262.065C112.592 261.328 112.406 260.766 112.034 260.379C111.661 259.984 111.156 259.786 110.518 259.786C109.85 259.786 109.314 259.999 108.911 260.424C108.516 260.85 108.319 261.48 108.319 262.316V265.655H107.806V257.222H108.319V260.777C108.494 260.314 108.786 259.961 109.196 259.718C109.606 259.467 110.077 259.342 110.609 259.342ZM114.587 262.555C114.587 261.917 114.712 261.359 114.963 260.88C115.221 260.401 115.574 260.033 116.022 259.775C116.478 259.516 116.995 259.387 117.572 259.387C118.225 259.387 118.78 259.547 119.236 259.866C119.692 260.185 120.011 260.591 120.193 261.085V259.467H120.706V265.655H120.193V264.025C120.011 264.526 119.688 264.94 119.224 265.267C118.769 265.586 118.218 265.746 117.572 265.746C116.995 265.746 116.478 265.617 116.022 265.358C115.574 265.092 115.221 264.72 114.963 264.242C114.712 263.755 114.587 263.193 114.587 262.555ZM120.193 262.555C120.193 262.016 120.079 261.541 119.851 261.131C119.631 260.713 119.327 260.394 118.94 260.174C118.552 259.946 118.119 259.832 117.64 259.832C117.139 259.832 116.698 259.942 116.319 260.162C115.939 260.375 115.643 260.686 115.43 261.097C115.217 261.507 115.111 261.993 115.111 262.555C115.111 263.117 115.217 263.603 115.43 264.014C115.643 264.424 115.939 264.739 116.319 264.959C116.706 265.18 117.147 265.29 117.64 265.29C118.119 265.29 118.552 265.18 118.94 264.959C119.335 264.732 119.642 264.412 119.862 264.002C120.083 263.584 120.193 263.102 120.193 262.555ZM124.635 265.746C123.944 265.746 123.378 265.594 122.937 265.29C122.504 264.986 122.261 264.553 122.208 263.991H122.732C122.77 264.393 122.953 264.713 123.279 264.948C123.614 265.184 124.066 265.301 124.635 265.301C125.106 265.301 125.479 265.184 125.752 264.948C126.033 264.705 126.174 264.409 126.174 264.059C126.174 263.816 126.098 263.619 125.946 263.467C125.801 263.307 125.619 263.186 125.399 263.102C125.178 263.018 124.878 262.927 124.499 262.829C124.043 262.707 123.674 262.589 123.393 262.475C123.112 262.354 122.873 262.175 122.675 261.94C122.478 261.704 122.379 261.389 122.379 260.994C122.379 260.705 122.466 260.439 122.641 260.196C122.816 259.946 123.059 259.748 123.37 259.604C123.682 259.459 124.035 259.387 124.43 259.387C125.076 259.387 125.596 259.551 125.991 259.877C126.394 260.196 126.61 260.641 126.641 261.21H126.128C126.105 260.8 125.946 260.466 125.649 260.208C125.353 259.949 124.943 259.82 124.419 259.82C123.978 259.82 123.614 259.934 123.325 260.162C123.036 260.39 122.892 260.667 122.892 260.994C122.892 261.283 122.972 261.518 123.131 261.7C123.298 261.875 123.5 262.012 123.735 262.111C123.978 262.202 124.297 262.301 124.692 262.407C125.125 262.521 125.471 262.635 125.729 262.749C125.995 262.855 126.219 263.015 126.402 263.227C126.584 263.433 126.675 263.71 126.675 264.059C126.675 264.378 126.588 264.667 126.413 264.925C126.238 265.184 125.995 265.385 125.684 265.529C125.372 265.674 125.023 265.746 124.635 265.746ZM133.809 262.145C133.809 262.418 133.802 262.623 133.786 262.76H128.442C128.457 263.315 128.579 263.782 128.807 264.162C129.035 264.542 129.335 264.827 129.707 265.016C130.079 265.206 130.486 265.301 130.926 265.301C131.534 265.301 132.043 265.153 132.453 264.857C132.863 264.553 133.122 264.143 133.228 263.626H133.764C133.642 264.257 133.331 264.77 132.829 265.165C132.328 265.552 131.693 265.746 130.926 265.746C130.349 265.746 129.832 265.617 129.376 265.358C128.921 265.1 128.564 264.732 128.305 264.253C128.047 263.767 127.918 263.201 127.918 262.555C127.918 261.909 128.043 261.347 128.294 260.869C128.552 260.39 128.909 260.025 129.365 259.775C129.821 259.516 130.341 259.387 130.926 259.387C131.519 259.387 132.032 259.516 132.465 259.775C132.905 260.025 133.239 260.363 133.467 260.789C133.695 261.207 133.809 261.659 133.809 262.145ZM133.296 262.339C133.319 261.792 133.22 261.328 133 260.948C132.787 260.569 132.495 260.287 132.123 260.105C131.75 259.915 131.348 259.82 130.915 259.82C130.482 259.82 130.079 259.915 129.707 260.105C129.342 260.287 129.042 260.569 128.807 260.948C128.579 261.328 128.457 261.792 128.442 262.339H133.296ZM139.088 261.097C139.262 260.595 139.578 260.185 140.033 259.866C140.497 259.547 141.055 259.387 141.708 259.387C142.286 259.387 142.799 259.516 143.247 259.775C143.703 260.033 144.056 260.401 144.307 260.88C144.565 261.359 144.694 261.917 144.694 262.555C144.694 263.193 144.565 263.755 144.307 264.242C144.056 264.72 143.703 265.092 143.247 265.358C142.799 265.617 142.286 265.746 141.708 265.746C141.063 265.746 140.508 265.586 140.045 265.267C139.589 264.94 139.27 264.53 139.088 264.036V268.572H138.575V259.467H139.088V261.097ZM144.17 262.555C144.17 261.993 144.063 261.507 143.851 261.097C143.638 260.686 143.338 260.375 142.951 260.162C142.571 259.942 142.13 259.832 141.629 259.832C141.15 259.832 140.717 259.946 140.33 260.174C139.942 260.394 139.638 260.713 139.418 261.131C139.198 261.541 139.088 262.016 139.088 262.555C139.088 263.102 139.198 263.584 139.418 264.002C139.638 264.412 139.942 264.732 140.33 264.959C140.717 265.18 141.15 265.29 141.629 265.29C142.13 265.29 142.571 265.18 142.951 264.959C143.338 264.739 143.638 264.424 143.851 264.014C144.063 263.603 144.17 263.117 144.17 262.555ZM146.755 260.743C146.907 260.287 147.176 259.942 147.564 259.706C147.951 259.463 148.445 259.342 149.045 259.342V259.877H148.874C148.267 259.877 147.761 260.052 147.359 260.401C146.956 260.743 146.755 261.305 146.755 262.088V265.655H146.242V259.467H146.755V260.743ZM150.488 258.088C150.366 258.088 150.264 258.05 150.18 257.974C150.097 257.891 150.055 257.781 150.055 257.644C150.055 257.515 150.097 257.408 150.18 257.325C150.264 257.241 150.366 257.199 150.488 257.199C150.609 257.199 150.712 257.241 150.796 257.325C150.879 257.408 150.921 257.515 150.921 257.644C150.921 257.781 150.879 257.891 150.796 257.974C150.712 258.05 150.609 258.088 150.488 258.088ZM150.739 259.467V265.655H150.226V259.467H150.739ZM152.299 262.555C152.299 261.909 152.425 261.347 152.675 260.869C152.934 260.39 153.287 260.025 153.735 259.775C154.191 259.516 154.711 259.387 155.296 259.387C156.071 259.387 156.705 259.581 157.199 259.968C157.701 260.356 158.012 260.876 158.134 261.53H157.598C157.499 260.998 157.241 260.58 156.823 260.276C156.413 259.972 155.904 259.82 155.296 259.82C154.84 259.82 154.426 259.923 154.054 260.128C153.682 260.325 153.382 260.633 153.154 261.051C152.934 261.461 152.823 261.963 152.823 262.555C152.823 263.155 152.934 263.66 153.154 264.071C153.382 264.481 153.682 264.789 154.054 264.994C154.426 265.199 154.84 265.301 155.296 265.301C155.904 265.301 156.413 265.149 156.823 264.845C157.241 264.542 157.499 264.124 157.598 263.592H158.134C158.012 264.238 157.701 264.758 157.199 265.153C156.698 265.548 156.063 265.746 155.296 265.746C154.711 265.746 154.191 265.617 153.735 265.358C153.287 265.1 152.934 264.732 152.675 264.253C152.425 263.767 152.299 263.201 152.299 262.555ZM165.268 262.145C165.268 262.418 165.26 262.623 165.245 262.76H159.901C159.916 263.315 160.038 263.782 160.265 264.162C160.493 264.542 160.793 264.827 161.166 265.016C161.538 265.206 161.944 265.301 162.385 265.301C162.993 265.301 163.502 265.153 163.912 264.857C164.322 264.553 164.58 264.143 164.687 263.626H165.222C165.101 264.257 164.789 264.77 164.288 265.165C163.787 265.552 163.152 265.746 162.385 265.746C161.808 265.746 161.291 265.617 160.835 265.358C160.379 265.1 160.022 264.732 159.764 264.253C159.506 263.767 159.377 263.201 159.377 262.555C159.377 261.909 159.502 261.347 159.753 260.869C160.011 260.39 160.368 260.025 160.824 259.775C161.28 259.516 161.8 259.387 162.385 259.387C162.978 259.387 163.49 259.516 163.923 259.775C164.364 260.025 164.698 260.363 164.926 260.789C165.154 261.207 165.268 261.659 165.268 262.145ZM164.755 262.339C164.778 261.792 164.679 261.328 164.459 260.948C164.246 260.569 163.954 260.287 163.581 260.105C163.209 259.915 162.807 259.82 162.374 259.82C161.941 259.82 161.538 259.915 161.166 260.105C160.801 260.287 160.501 260.569 160.265 260.948C160.038 261.328 159.916 261.792 159.901 262.339H164.755Z" fill="#264154"/>
<path d="M246.589 263.76C246.589 264.117 246.502 264.458 246.327 264.785C246.152 265.104 245.89 265.37 245.541 265.583C245.191 265.795 244.766 265.913 244.265 265.936V266.848H243.763V265.925C243.087 265.864 242.54 265.643 242.122 265.264C241.704 264.876 241.48 264.398 241.45 263.828H242.305C242.335 264.17 242.472 264.481 242.715 264.762C242.966 265.036 243.315 265.203 243.763 265.264V262.107C243.254 261.97 242.844 261.834 242.533 261.697C242.229 261.56 241.97 261.351 241.758 261.07C241.545 260.782 241.439 260.398 241.439 259.919C241.439 259.319 241.647 258.825 242.065 258.438C242.483 258.043 243.049 257.83 243.763 257.8V256.843H244.265V257.811C244.895 257.872 245.4 258.077 245.78 258.427C246.16 258.776 246.384 259.213 246.452 259.737H245.609C245.564 259.456 245.423 259.194 245.188 258.951C244.96 258.708 244.652 258.556 244.265 258.495V261.537C244.758 261.667 245.161 261.803 245.472 261.948C245.791 262.084 246.057 262.297 246.27 262.586C246.483 262.874 246.589 263.266 246.589 263.76ZM242.248 259.885C242.248 260.311 242.377 260.633 242.635 260.854C242.901 261.066 243.277 261.245 243.763 261.389V258.461C243.307 258.484 242.939 258.617 242.658 258.86C242.384 259.103 242.248 259.445 242.248 259.885ZM244.265 265.286C244.751 265.256 245.127 265.104 245.393 264.831C245.659 264.55 245.791 264.204 245.791 263.794C245.791 263.361 245.659 263.034 245.393 262.814C245.134 262.593 244.758 262.407 244.265 262.255V265.286ZM247.907 258.404V257.686H249.844V265.856H249.035V258.404H247.907ZM251.622 261.697C251.622 260.39 251.823 259.376 252.226 258.655C252.629 257.933 253.35 257.572 254.391 257.572C255.432 257.572 256.153 257.933 256.556 258.655C256.959 259.376 257.16 260.39 257.16 261.697C257.16 263.026 256.959 264.056 256.556 264.785C256.153 265.514 255.432 265.879 254.391 265.879C253.343 265.879 252.617 265.514 252.215 264.785C251.82 264.056 251.622 263.026 251.622 261.697ZM256.374 261.697C256.374 260.991 256.324 260.394 256.226 259.908C256.127 259.422 255.933 259.031 255.644 258.734C255.356 258.438 254.938 258.29 254.391 258.29C253.844 258.29 253.426 258.438 253.138 258.734C252.849 259.031 252.655 259.422 252.556 259.908C252.458 260.394 252.408 260.991 252.408 261.697C252.408 262.426 252.458 263.038 252.556 263.532C252.655 264.018 252.849 264.409 253.138 264.705C253.426 265.002 253.844 265.15 254.391 265.15C254.938 265.15 255.356 265.002 255.644 264.705C255.933 264.409 256.127 264.018 256.226 263.532C256.324 263.038 256.374 262.426 256.374 261.697ZM258.644 261.697C258.644 260.39 258.845 259.376 259.248 258.655C259.65 257.933 260.372 257.572 261.413 257.572C262.454 257.572 263.175 257.933 263.578 258.655C263.98 259.376 264.182 260.39 264.182 261.697C264.182 263.026 263.98 264.056 263.578 264.785C263.175 265.514 262.454 265.879 261.413 265.879C260.364 265.879 259.639 265.514 259.236 264.785C258.841 264.056 258.644 263.026 258.644 261.697ZM263.395 261.697C263.395 260.991 263.346 260.394 263.247 259.908C263.149 259.422 262.955 259.031 262.666 258.734C262.378 258.438 261.96 258.29 261.413 258.29C260.866 258.29 260.448 258.438 260.159 258.734C259.871 259.031 259.677 259.422 259.578 259.908C259.479 260.394 259.43 260.991 259.43 261.697C259.43 262.426 259.479 263.038 259.578 263.532C259.677 264.018 259.871 264.409 260.159 264.705C260.448 265.002 260.866 265.15 261.413 265.15C261.96 265.15 262.378 265.002 262.666 264.705C262.955 264.409 263.149 264.018 263.247 263.532C263.346 263.038 263.395 262.426 263.395 261.697ZM269.75 261.002C269.947 260.584 270.259 260.238 270.684 259.965C271.117 259.684 271.63 259.543 272.222 259.543C272.785 259.543 273.29 259.676 273.738 259.942C274.194 260.2 274.547 260.573 274.798 261.059C275.056 261.537 275.185 262.096 275.185 262.734C275.185 263.372 275.056 263.934 274.798 264.42C274.547 264.907 274.194 265.283 273.738 265.549C273.29 265.814 272.785 265.947 272.222 265.947C271.637 265.947 271.128 265.811 270.695 265.537C270.262 265.256 269.947 264.907 269.75 264.489V268.796H268.963V259.635H269.75V261.002ZM274.376 262.734C274.376 262.217 274.273 261.773 274.068 261.401C273.871 261.021 273.597 260.732 273.248 260.535C272.898 260.337 272.503 260.238 272.063 260.238C271.637 260.238 271.246 260.341 270.889 260.546C270.54 260.751 270.262 261.044 270.057 261.424C269.852 261.803 269.75 262.244 269.75 262.745C269.75 263.247 269.852 263.687 270.057 264.067C270.262 264.447 270.54 264.739 270.889 264.945C271.246 265.15 271.637 265.252 272.063 265.252C272.503 265.252 272.898 265.154 273.248 264.956C273.597 264.751 273.871 264.458 274.068 264.079C274.273 263.691 274.376 263.243 274.376 262.734ZM282.282 262.426C282.282 262.7 282.274 262.909 282.259 263.053H277.097C277.12 263.524 277.234 263.927 277.439 264.261C277.644 264.595 277.914 264.85 278.248 265.024C278.582 265.191 278.947 265.275 279.342 265.275C279.859 265.275 280.292 265.15 280.641 264.899C280.998 264.648 281.234 264.31 281.348 263.885H282.191C282.039 264.493 281.712 264.99 281.211 265.378C280.717 265.757 280.094 265.947 279.342 265.947C278.757 265.947 278.233 265.818 277.77 265.56C277.306 265.294 276.941 264.922 276.676 264.443C276.417 263.957 276.288 263.391 276.288 262.745C276.288 262.1 276.417 261.534 276.676 261.047C276.934 260.561 277.295 260.189 277.758 259.931C278.222 259.672 278.75 259.543 279.342 259.543C279.935 259.543 280.451 259.672 280.892 259.931C281.34 260.189 281.682 260.539 281.917 260.979C282.16 261.412 282.282 261.895 282.282 262.426ZM281.473 262.404C281.481 261.94 281.386 261.545 281.188 261.218C280.998 260.892 280.736 260.645 280.402 260.478C280.068 260.311 279.703 260.227 279.308 260.227C278.715 260.227 278.21 260.417 277.792 260.797C277.375 261.177 277.143 261.712 277.097 262.404H281.473ZM284.539 260.74C284.714 260.352 284.98 260.052 285.337 259.84C285.701 259.627 286.146 259.521 286.67 259.521V260.352H286.453C285.876 260.352 285.413 260.508 285.063 260.82C284.714 261.131 284.539 261.651 284.539 262.381V265.856H283.741V259.635H284.539V260.74ZM296.387 259.635V265.856H295.589V264.762C295.407 265.15 295.126 265.446 294.746 265.651C294.366 265.856 293.94 265.959 293.47 265.959C292.725 265.959 292.117 265.731 291.646 265.275C291.175 264.812 290.94 264.143 290.94 263.27V259.635H291.726V263.178C291.726 263.854 291.893 264.371 292.227 264.728C292.569 265.085 293.033 265.264 293.618 265.264C294.218 265.264 294.696 265.074 295.053 264.694C295.41 264.314 295.589 263.756 295.589 263.019V259.635H296.387ZM301.125 259.521C301.869 259.521 302.477 259.752 302.948 260.216C303.419 260.671 303.655 261.336 303.655 262.21V265.856H302.868V262.301C302.868 261.625 302.697 261.108 302.355 260.751C302.021 260.394 301.562 260.216 300.977 260.216C300.377 260.216 299.898 260.406 299.541 260.785C299.184 261.165 299.005 261.724 299.005 262.46V265.856H298.208V259.635H299.005V260.694C299.203 260.314 299.488 260.026 299.86 259.828C300.232 259.623 300.654 259.521 301.125 259.521ZM305.817 258.461C305.658 258.461 305.521 258.404 305.407 258.29C305.293 258.176 305.236 258.035 305.236 257.868C305.236 257.701 305.293 257.564 305.407 257.458C305.521 257.344 305.658 257.287 305.817 257.287C305.977 257.287 306.114 257.344 306.228 257.458C306.342 257.564 306.399 257.701 306.399 257.868C306.399 258.035 306.342 258.176 306.228 258.29C306.114 258.404 305.977 258.461 305.817 258.461ZM306.216 259.635V265.856H305.419V259.635H306.216ZM309.06 260.307V264.17C309.06 264.55 309.132 264.812 309.276 264.956C309.42 265.1 309.675 265.172 310.039 265.172H310.769V265.856H309.914C309.352 265.856 308.934 265.727 308.661 265.469C308.387 265.203 308.25 264.77 308.25 264.17V260.307H307.384V259.635H308.25V258.073H309.06V259.635H310.769V260.307H309.06Z" fill="#002036"/>
<path d="M87.8459 295.639V296.072H85.5669V303.638H85.0541V296.072H82.7751V295.639H87.8459ZM91.7899 303.729C91.2126 303.729 90.6922 303.6 90.2288 303.342C89.7654 303.083 89.4008 302.715 89.1349 302.236C88.8766 301.75 88.7474 301.184 88.7474 300.538C88.7474 299.9 88.8804 299.342 89.1463 298.863C89.4122 298.377 89.7768 298.009 90.2402 297.758C90.7112 297.5 91.2354 297.371 91.8127 297.371C92.3901 297.371 92.9104 297.5 93.3738 297.758C93.8372 298.009 94.1981 298.373 94.4564 298.852C94.7222 299.331 94.8552 299.893 94.8552 300.538C94.8552 301.184 94.7222 301.75 94.4564 302.236C94.1905 302.715 93.822 303.083 93.351 303.342C92.8876 303.6 92.3673 303.729 91.7899 303.729ZM91.7899 303.273C92.2381 303.273 92.6559 303.175 93.0434 302.977C93.4384 302.772 93.7537 302.464 93.9892 302.054C94.2247 301.644 94.3424 301.139 94.3424 300.538C94.3424 299.946 94.2247 299.445 93.9892 299.034C93.7537 298.624 93.4422 298.32 93.0548 298.123C92.6673 297.918 92.2495 297.815 91.8013 297.815C91.3531 297.815 90.9353 297.918 90.5479 298.123C90.168 298.32 89.8604 298.624 89.6249 299.034C89.3894 299.445 89.2716 299.946 89.2716 300.538C89.2716 301.139 89.3856 301.644 89.6135 302.054C89.849 302.464 90.1566 302.772 90.5365 302.977C90.9239 303.175 91.3417 303.273 91.7899 303.273ZM97.1744 297.895V301.986C97.1744 302.441 97.258 302.757 97.4251 302.931C97.5923 303.099 97.8885 303.182 98.3139 303.182H99.009V303.638H98.2342C97.6948 303.638 97.296 303.513 97.0377 303.262C96.787 303.004 96.6617 302.578 96.6617 301.986V297.895H95.7273V297.45H96.6617V295.878H97.1744V297.45H99.009V297.895H97.1744ZM100.042 300.538C100.042 299.9 100.168 299.342 100.418 298.863C100.677 298.385 101.03 298.016 101.478 297.758C101.934 297.5 102.45 297.371 103.028 297.371C103.681 297.371 104.236 297.53 104.692 297.849C105.147 298.168 105.466 298.575 105.649 299.069V297.45H106.161V303.638H105.649V302.008C105.466 302.51 105.144 302.924 104.68 303.251C104.224 303.57 103.674 303.729 103.028 303.729C102.45 303.729 101.934 303.6 101.478 303.342C101.03 303.076 100.677 302.704 100.418 302.225C100.168 301.739 100.042 301.177 100.042 300.538ZM105.649 300.538C105.649 299.999 105.535 299.524 105.307 299.114C105.087 298.696 104.783 298.377 104.395 298.157C104.008 297.929 103.575 297.815 103.096 297.815C102.595 297.815 102.154 297.925 101.774 298.146C101.395 298.358 101.098 298.67 100.886 299.08C100.673 299.49 100.567 299.976 100.567 300.538C100.567 301.101 100.673 301.587 100.886 301.997C101.098 302.407 101.395 302.723 101.774 302.943C102.162 303.163 102.602 303.273 103.096 303.273C103.575 303.273 104.008 303.163 104.395 302.943C104.79 302.715 105.098 302.396 105.318 301.986C105.539 301.568 105.649 301.085 105.649 300.538ZM108.541 295.206V303.638H108.029V295.206H108.541ZM114.15 299.08C114.325 298.579 114.64 298.168 115.096 297.849C115.559 297.53 116.117 297.371 116.771 297.371C117.348 297.371 117.861 297.5 118.309 297.758C118.765 298.016 119.118 298.385 119.369 298.863C119.627 299.342 119.756 299.9 119.756 300.538C119.756 301.177 119.627 301.739 119.369 302.225C119.118 302.704 118.765 303.076 118.309 303.342C117.861 303.6 117.348 303.729 116.771 303.729C116.125 303.729 115.57 303.57 115.107 303.251C114.651 302.924 114.332 302.514 114.15 302.02V306.555H113.637V297.45H114.15V299.08ZM119.232 300.538C119.232 299.976 119.126 299.49 118.913 299.08C118.7 298.67 118.4 298.358 118.013 298.146C117.633 297.925 117.192 297.815 116.691 297.815C116.212 297.815 115.779 297.929 115.392 298.157C115.004 298.377 114.701 298.696 114.48 299.114C114.26 299.524 114.15 299.999 114.15 300.538C114.15 301.085 114.26 301.568 114.48 301.986C114.701 302.396 115.004 302.715 115.392 302.943C115.779 303.163 116.212 303.273 116.691 303.273C117.192 303.273 117.633 303.163 118.013 302.943C118.4 302.723 118.7 302.407 118.913 301.997C119.126 301.587 119.232 301.101 119.232 300.538ZM121.817 298.727C121.969 298.271 122.239 297.925 122.626 297.69C123.013 297.447 123.507 297.325 124.107 297.325V297.861H123.936C123.329 297.861 122.824 298.035 122.421 298.385C122.018 298.727 121.817 299.289 121.817 300.071V303.638H121.304V297.45H121.817V298.727ZM125.55 296.072C125.429 296.072 125.326 296.034 125.242 295.958C125.159 295.874 125.117 295.764 125.117 295.627C125.117 295.498 125.159 295.392 125.242 295.308C125.326 295.225 125.429 295.183 125.55 295.183C125.672 295.183 125.774 295.225 125.858 295.308C125.941 295.392 125.983 295.498 125.983 295.627C125.983 295.764 125.941 295.874 125.858 295.958C125.774 296.034 125.672 296.072 125.55 296.072ZM125.801 297.45V303.638H125.288V297.45H125.801ZM127.362 300.538C127.362 299.893 127.487 299.331 127.738 298.852C127.996 298.373 128.349 298.009 128.797 297.758C129.253 297.5 129.773 297.371 130.358 297.371C131.133 297.371 131.768 297.564 132.261 297.952C132.763 298.339 133.074 298.86 133.196 299.513H132.66C132.561 298.981 132.303 298.563 131.885 298.259C131.475 297.956 130.966 297.804 130.358 297.804C129.903 297.804 129.489 297.906 129.116 298.111C128.744 298.309 128.444 298.617 128.216 299.034C127.996 299.445 127.886 299.946 127.886 300.538C127.886 301.139 127.996 301.644 128.216 302.054C128.444 302.464 128.744 302.772 129.116 302.977C129.489 303.182 129.903 303.285 130.358 303.285C130.966 303.285 131.475 303.133 131.885 302.829C132.303 302.525 132.561 302.107 132.66 301.575H133.196C133.074 302.221 132.763 302.742 132.261 303.137C131.76 303.532 131.126 303.729 130.358 303.729C129.773 303.729 129.253 303.6 128.797 303.342C128.349 303.083 127.996 302.715 127.738 302.236C127.487 301.75 127.362 301.184 127.362 300.538ZM140.33 300.128C140.33 300.402 140.323 300.607 140.307 300.744H134.963C134.978 301.298 135.1 301.765 135.328 302.145C135.556 302.525 135.856 302.81 136.228 303C136.6 303.19 137.007 303.285 137.447 303.285C138.055 303.285 138.564 303.137 138.974 302.84C139.384 302.536 139.643 302.126 139.749 301.61H140.285C140.163 302.24 139.852 302.753 139.35 303.148C138.849 303.535 138.214 303.729 137.447 303.729C136.87 303.729 136.353 303.6 135.897 303.342C135.442 303.083 135.085 302.715 134.826 302.236C134.568 301.75 134.439 301.184 134.439 300.538C134.439 299.893 134.564 299.331 134.815 298.852C135.073 298.373 135.43 298.009 135.886 297.758C136.342 297.5 136.862 297.371 137.447 297.371C138.04 297.371 138.553 297.5 138.986 297.758C139.426 298.009 139.76 298.347 139.988 298.772C140.216 299.19 140.33 299.642 140.33 300.128ZM139.817 300.322C139.84 299.775 139.741 299.312 139.521 298.932C139.308 298.552 139.016 298.271 138.644 298.089C138.271 297.899 137.869 297.804 137.436 297.804C137.003 297.804 136.6 297.899 136.228 298.089C135.863 298.271 135.563 298.552 135.328 298.932C135.1 299.312 134.978 299.775 134.963 300.322H139.817Z" fill="#264154"/>
<path d="M262.78 300.95C262.78 301.33 262.685 301.687 262.495 302.021C262.313 302.356 262.039 302.637 261.675 302.865C261.318 303.093 260.892 303.229 260.398 303.275V304.198H259.658V303.275C258.944 303.207 258.366 302.982 257.926 302.603C257.485 302.223 257.265 301.721 257.265 301.098H258.655C258.678 301.395 258.773 301.642 258.94 301.839C259.107 302.029 259.346 302.151 259.658 302.204V299.697C259.149 299.568 258.735 299.439 258.416 299.309C258.097 299.173 257.823 298.96 257.595 298.671C257.375 298.383 257.265 297.988 257.265 297.486C257.265 296.856 257.485 296.335 257.926 295.925C258.366 295.507 258.944 295.264 259.658 295.196V294.273H260.398V295.196C261.067 295.257 261.602 295.469 262.005 295.834C262.415 296.191 262.647 296.685 262.7 297.315H261.31C261.287 297.08 261.196 296.871 261.037 296.689C260.877 296.499 260.664 296.37 260.398 296.301V298.762C260.907 298.884 261.321 299.013 261.64 299.15C261.96 299.279 262.229 299.488 262.45 299.777C262.67 300.058 262.78 300.449 262.78 300.95ZM258.587 297.418C258.587 297.729 258.678 297.972 258.86 298.147C259.05 298.322 259.316 298.462 259.658 298.569V296.267C259.331 296.305 259.069 296.423 258.871 296.62C258.682 296.818 258.587 297.084 258.587 297.418ZM260.398 302.204C260.733 302.151 260.995 302.018 261.185 301.805C261.375 301.585 261.47 301.323 261.47 301.019C261.47 300.715 261.375 300.479 261.185 300.312C261.002 300.137 260.74 299.997 260.398 299.891V302.204ZM270.032 296.016H266.214V298.284C266.374 298.071 266.609 297.893 266.921 297.748C267.24 297.604 267.578 297.532 267.935 297.532C268.573 297.532 269.09 297.669 269.485 297.942C269.887 298.216 270.172 298.561 270.339 298.979C270.514 299.397 270.601 299.837 270.601 300.301C270.601 300.863 270.491 301.364 270.271 301.805C270.058 302.238 269.735 302.58 269.302 302.831C268.877 303.081 268.353 303.207 267.73 303.207C266.902 303.207 266.237 303.001 265.736 302.591C265.234 302.181 264.934 301.638 264.836 300.962H266.1C266.184 301.319 266.37 301.604 266.659 301.816C266.947 302.021 267.308 302.124 267.741 302.124C268.281 302.124 268.683 301.961 268.949 301.634C269.223 301.307 269.359 300.874 269.359 300.335C269.359 299.788 269.223 299.37 268.949 299.082C268.676 298.785 268.273 298.637 267.741 298.637C267.369 298.637 267.054 298.732 266.795 298.922C266.545 299.104 266.362 299.355 266.249 299.674H265.018V294.877H270.032V296.016ZM271.954 298.945C271.954 297.631 272.174 296.605 272.615 295.868C273.063 295.124 273.83 294.751 274.916 294.751C276.003 294.751 276.766 295.124 277.207 295.868C277.655 296.605 277.879 297.631 277.879 298.945C277.879 300.274 277.655 301.315 277.207 302.067C276.766 302.812 276.003 303.184 274.916 303.184C273.83 303.184 273.063 302.812 272.615 302.067C272.174 301.315 271.954 300.274 271.954 298.945ZM276.603 298.945C276.603 298.329 276.561 297.809 276.478 297.384C276.402 296.958 276.242 296.613 275.999 296.347C275.756 296.073 275.395 295.937 274.916 295.937C274.438 295.937 274.077 296.073 273.834 296.347C273.591 296.613 273.427 296.958 273.344 297.384C273.268 297.809 273.23 298.329 273.23 298.945C273.23 299.583 273.268 300.118 273.344 300.551C273.42 300.985 273.579 301.334 273.822 301.6C274.073 301.866 274.438 301.999 274.916 301.999C275.395 301.999 275.756 301.866 275.999 301.6C276.25 301.334 276.413 300.985 276.489 300.551C276.565 300.118 276.603 299.583 276.603 298.945ZM279.254 298.945C279.254 297.631 279.474 296.605 279.915 295.868C280.363 295.124 281.13 294.751 282.216 294.751C283.303 294.751 284.066 295.124 284.507 295.868C284.955 296.605 285.179 297.631 285.179 298.945C285.179 300.274 284.955 301.315 284.507 302.067C284.066 302.812 283.303 303.184 282.216 303.184C281.13 303.184 280.363 302.812 279.915 302.067C279.474 301.315 279.254 300.274 279.254 298.945ZM283.903 298.945C283.903 298.329 283.861 297.809 283.777 297.384C283.701 296.958 283.542 296.613 283.299 296.347C283.056 296.073 282.695 295.937 282.216 295.937C281.738 295.937 281.377 296.073 281.134 296.347C280.891 296.613 280.727 296.958 280.644 297.384C280.568 297.809 280.53 298.329 280.53 298.945C280.53 299.583 280.568 300.118 280.644 300.551C280.72 300.985 280.879 301.334 281.122 301.6C281.373 301.866 281.738 301.999 282.216 301.999C282.695 301.999 283.056 301.866 283.299 301.6C283.55 301.334 283.713 300.985 283.789 300.551C283.865 300.118 283.903 299.583 283.903 298.945ZM286.554 298.945C286.554 297.631 286.774 296.605 287.214 295.868C287.663 295.124 288.43 294.751 289.516 294.751C290.603 294.751 291.366 295.124 291.807 295.868C292.255 296.605 292.479 297.631 292.479 298.945C292.479 300.274 292.255 301.315 291.807 302.067C291.366 302.812 290.603 303.184 289.516 303.184C288.43 303.184 287.663 302.812 287.214 302.067C286.774 301.315 286.554 300.274 286.554 298.945ZM291.203 298.945C291.203 298.329 291.161 297.809 291.077 297.384C291.001 296.958 290.842 296.613 290.599 296.347C290.356 296.073 289.995 295.937 289.516 295.937C289.038 295.937 288.677 296.073 288.434 296.347C288.191 296.613 288.027 296.958 287.944 297.384C287.868 297.809 287.83 298.329 287.83 298.945C287.83 299.583 287.868 300.118 287.944 300.551C288.02 300.985 288.179 301.334 288.422 301.6C288.673 301.866 289.038 301.999 289.516 301.999C289.995 301.999 290.356 301.866 290.599 301.6C290.85 301.334 291.013 300.985 291.089 300.551C291.165 300.118 291.203 299.583 291.203 298.945ZM294.549 303.286C294.313 303.286 294.116 303.207 293.956 303.047C293.797 302.887 293.717 302.69 293.717 302.454C293.717 302.219 293.797 302.021 293.956 301.862C294.116 301.702 294.313 301.623 294.549 301.623C294.777 301.623 294.97 301.702 295.13 301.862C295.289 302.021 295.369 302.219 295.369 302.454C295.369 302.69 295.289 302.887 295.13 303.047C294.97 303.207 294.777 303.286 294.549 303.286ZM296.602 298.945C296.602 297.631 296.822 296.605 297.263 295.868C297.711 295.124 298.479 294.751 299.565 294.751C300.651 294.751 301.415 295.124 301.855 295.868C302.303 296.605 302.528 297.631 302.528 298.945C302.528 300.274 302.303 301.315 301.855 302.067C301.415 302.812 300.651 303.184 299.565 303.184C298.479 303.184 297.711 302.812 297.263 302.067C296.822 301.315 296.602 300.274 296.602 298.945ZM301.251 298.945C301.251 298.329 301.21 297.809 301.126 297.384C301.05 296.958 300.89 296.613 300.647 296.347C300.404 296.073 300.043 295.937 299.565 295.937C299.086 295.937 298.725 296.073 298.482 296.347C298.239 296.613 298.076 296.958 297.992 297.384C297.916 297.809 297.878 298.329 297.878 298.945C297.878 299.583 297.916 300.118 297.992 300.551C298.068 300.985 298.228 301.334 298.471 301.6C298.722 301.866 299.086 301.999 299.565 301.999C300.043 301.999 300.404 301.866 300.647 301.6C300.898 301.334 301.061 300.985 301.137 300.551C301.213 300.118 301.251 299.583 301.251 298.945ZM303.902 298.945C303.902 297.631 304.122 296.605 304.563 295.868C305.011 295.124 305.778 294.751 306.865 294.751C307.951 294.751 308.715 295.124 309.155 295.868C309.603 296.605 309.828 297.631 309.828 298.945C309.828 300.274 309.603 301.315 309.155 302.067C308.715 302.812 307.951 303.184 306.865 303.184C305.778 303.184 305.011 302.812 304.563 302.067C304.122 301.315 303.902 300.274 303.902 298.945ZM308.551 298.945C308.551 298.329 308.509 297.809 308.426 297.384C308.35 296.958 308.19 296.613 307.947 296.347C307.704 296.073 307.343 295.937 306.865 295.937C306.386 295.937 306.025 296.073 305.782 296.347C305.539 296.613 305.376 296.958 305.292 297.384C305.216 297.809 305.178 298.329 305.178 298.945C305.178 299.583 305.216 300.118 305.292 300.551C305.368 300.985 305.528 301.334 305.771 301.6C306.022 301.866 306.386 301.999 306.865 301.999C307.343 301.999 307.704 301.866 307.947 301.6C308.198 301.334 308.361 300.985 308.437 300.551C308.513 300.118 308.551 299.583 308.551 298.945Z" fill="#002036"/>
<g filter="url(#filter0_d_6603_12556)">
<path d="M183.779 39.5659L192.642 46.8461L202.454 31.9692L211.95 41.7816L202.454 58.2411L188.844 62.356L176.815 48.1122L183.779 39.5659Z" fill="#FCFDFD"/>
<path d="M192.962 24.7154C187.141 25.34 181.867 28.1248 178.153 32.5493C175.542 35.6551 173.92 39.1773 173.2 43.3068C173.035 44.2524 173.018 44.7122 173.018 46.8637C173.018 49.0152 173.035 49.475 173.2 50.4206C174.015 55.1054 175.976 58.9833 179.212 62.3407C182.535 65.7935 186.725 67.9797 191.618 68.8386C192.563 69.0034 193.023 69.0208 195.175 69.0208C197.89 69.0208 198.705 68.934 200.84 68.3874C208.491 66.4095 214.72 60.1805 216.698 52.5288C217.245 50.3946 217.332 49.5791 217.332 46.8637C217.332 44.1483 217.245 43.3328 216.698 41.1987C214.72 33.5556 208.491 27.318 200.84 25.34C198.87 24.8368 197.942 24.724 195.522 24.698C194.307 24.6807 193.153 24.6893 192.962 24.7154ZM207.077 38.1536C207.659 38.4486 208.24 39.0472 208.517 39.6458C208.717 40.0622 208.752 40.2617 208.752 40.8777C208.743 42.2397 209.272 41.6238 200.952 49.9695C195.079 55.8515 193.483 57.413 193.127 57.5865C192.277 58.003 191.271 58.0116 190.412 57.6126C190.117 57.4738 189.015 56.424 186.083 53.5091C182.673 50.117 182.118 49.5271 181.884 49.0586C181.233 47.7399 181.615 46.187 182.812 45.2848C183.654 44.6515 184.747 44.4953 185.762 44.8684C186.248 45.0506 186.464 45.2501 188.972 47.7399C190.455 49.2148 191.704 50.4206 191.748 50.4206C191.791 50.4206 194.567 47.6966 197.907 44.3565C202.653 39.6197 204.067 38.2577 204.397 38.1015C205.212 37.7198 206.262 37.7372 207.077 38.1536Z" fill="#0D6EFD"/>
</g>
<defs>
<filter id="filter0_d_6603_12556" x="150.861" y="2.53194" width="88.6285" height="88.6458" filterUnits="userSpaceOnUse" color-interpolation-filters="sRGB">
<feFlood flood-opacity="0" result="BackgroundImageFix"/>
<feColorMatrix in="SourceAlpha" type="matrix" values="0 0 0 0 0 0 0 0 0 0 0 0 0 0 0 0 0 0 127 0" result="hardAlpha"/>
<feOffset/>
<feGaussianBlur stdDeviation="11.0785"/>
<feComposite in2="hardAlpha" operator="out"/>
<feColorMatrix type="matrix" values="0 0 0 0 0.0509804 0 0 0 0 0.431373 0 0 0 0 0.992157 0 0 0 0.5 0"/>
<feBlend mode="normal" in2="BackgroundImageFix" result="effect1_dropShadow_6603_12556"/>
<feBlend mode="normal" in="SourceGraphic" in2="effect1_dropShadow_6603_12556" result="shape"/>
</filter>
</defs>
</svg>
