<svg width="664" height="605" viewBox="0 0 664 605" fill="none" xmlns="http://www.w3.org/2000/svg">
<rect opacity="0.15" y="76" width="664" height="440" rx="16" fill="#E5E9EB"/>
<path d="M134.76 20C134.76 9.37391 143.374 0.75974 154 0.75974H511C521.626 0.75974 530.24 9.3739 530.24 20V585C530.24 595.626 521.626 604.24 511 604.24H154C143.374 604.24 134.76 595.626 134.76 585V20Z" fill="#FCFDFD" stroke="#F2F4F5" stroke-width="1.51948"/>
<path d="M250.901 141.036C250.901 142.116 250.547 142.986 249.839 143.646C249.131 144.306 248.069 144.636 246.653 144.636H244.115V150H242.855V137.418H246.653C248.057 137.418 249.113 137.748 249.821 138.408C250.541 139.068 250.901 139.944 250.901 141.036ZM246.653 143.556C248.621 143.556 249.605 142.716 249.605 141.036C249.605 140.196 249.371 139.56 248.903 139.128C248.435 138.696 247.685 138.48 246.653 138.48H244.115V143.556H246.653ZM261.529 140.172V150H260.269V148.272C259.981 148.884 259.537 149.352 258.937 149.676C258.337 150 257.665 150.162 256.921 150.162C255.745 150.162 254.785 149.802 254.041 149.082C253.297 148.35 252.925 147.294 252.925 145.914V140.172H254.167V145.77C254.167 146.838 254.431 147.654 254.959 148.218C255.499 148.782 256.231 149.064 257.155 149.064C258.103 149.064 258.859 148.764 259.423 148.164C259.987 147.564 260.269 146.682 260.269 145.518V140.172H261.529ZM265.666 141.918C265.942 141.306 266.362 140.832 266.926 140.496C267.502 140.16 268.204 139.992 269.032 139.992V141.306H268.69C267.778 141.306 267.046 141.552 266.494 142.044C265.942 142.536 265.666 143.358 265.666 144.51V150H264.406V140.172H265.666V141.918ZM270.351 145.086C270.351 144.066 270.555 143.178 270.963 142.422C271.371 141.654 271.935 141.066 272.655 140.658C273.375 140.238 274.197 140.028 275.121 140.028C276.333 140.028 277.329 140.328 278.109 140.928C278.901 141.528 279.411 142.344 279.639 143.376H278.289C278.121 142.668 277.755 142.116 277.191 141.72C276.639 141.312 275.949 141.108 275.121 141.108C274.461 141.108 273.867 141.258 273.339 141.558C272.811 141.858 272.391 142.308 272.079 142.908C271.779 143.496 271.629 144.222 271.629 145.086C271.629 145.95 271.779 146.682 272.079 147.282C272.391 147.882 272.811 148.332 273.339 148.632C273.867 148.932 274.461 149.082 275.121 149.082C275.949 149.082 276.639 148.884 277.191 148.488C277.755 148.08 278.121 147.516 278.289 146.796H279.639C279.411 147.804 278.901 148.614 278.109 149.226C277.317 149.838 276.321 150.144 275.121 150.144C274.197 150.144 273.375 149.94 272.655 149.532C271.935 149.112 271.371 148.524 270.963 147.768C270.555 147 270.351 146.106 270.351 145.086ZM286.646 139.992C287.39 139.992 288.056 140.148 288.644 140.46C289.244 140.772 289.712 141.252 290.048 141.9C290.396 142.536 290.57 143.316 290.57 144.24V150H289.328V144.384C289.328 143.316 289.058 142.5 288.518 141.936C287.99 141.372 287.264 141.09 286.34 141.09C285.392 141.09 284.636 141.39 284.072 141.99C283.508 142.59 283.226 143.472 283.226 144.636V150H281.966V136.68H283.226V141.846C283.538 141.258 283.994 140.802 284.594 140.478C285.206 140.154 285.89 139.992 286.646 139.992ZM292.781 145.068C292.781 144.06 292.979 143.178 293.375 142.422C293.783 141.654 294.341 141.066 295.049 140.658C295.769 140.238 296.579 140.028 297.479 140.028C298.415 140.028 299.219 140.244 299.891 140.676C300.575 141.108 301.067 141.66 301.367 142.332V140.172H302.627V150H301.367V147.822C301.055 148.494 300.557 149.052 299.873 149.496C299.201 149.928 298.397 150.144 297.461 150.144C296.573 150.144 295.769 149.934 295.049 149.514C294.341 149.094 293.783 148.5 293.375 147.732C292.979 146.964 292.781 146.076 292.781 145.068ZM301.367 145.086C301.367 144.294 301.205 143.598 300.881 142.998C300.557 142.398 300.113 141.936 299.549 141.612C298.997 141.288 298.385 141.126 297.713 141.126C297.017 141.126 296.393 141.282 295.841 141.594C295.289 141.906 294.851 142.362 294.527 142.962C294.215 143.55 294.059 144.252 294.059 145.068C294.059 145.872 294.215 146.58 294.527 147.192C294.851 147.792 295.289 148.254 295.841 148.578C296.393 148.89 297.017 149.046 297.713 149.046C298.385 149.046 298.997 148.884 299.549 148.56C300.113 148.236 300.557 147.774 300.881 147.174C301.205 146.574 301.367 145.878 301.367 145.086ZM308.887 150.144C307.759 150.144 306.835 149.886 306.115 149.37C305.407 148.842 305.011 148.128 304.927 147.228H306.223C306.283 147.78 306.541 148.23 306.997 148.578C307.465 148.914 308.089 149.082 308.869 149.082C309.553 149.082 310.087 148.92 310.471 148.596C310.867 148.272 311.065 147.87 311.065 147.39C311.065 147.054 310.957 146.778 310.741 146.562C310.525 146.346 310.249 146.178 309.913 146.058C309.589 145.926 309.145 145.788 308.581 145.644C307.849 145.452 307.255 145.26 306.799 145.068C306.343 144.876 305.953 144.594 305.629 144.222C305.317 143.838 305.161 143.328 305.161 142.692C305.161 142.212 305.305 141.768 305.593 141.36C305.881 140.952 306.289 140.628 306.817 140.388C307.345 140.148 307.945 140.028 308.617 140.028C309.673 140.028 310.525 140.298 311.173 140.838C311.821 141.366 312.169 142.098 312.217 143.034H310.957C310.921 142.458 310.693 141.996 310.273 141.648C309.865 141.288 309.301 141.108 308.581 141.108C307.945 141.108 307.429 141.258 307.033 141.558C306.637 141.858 306.439 142.23 306.439 142.674C306.439 143.058 306.553 143.376 306.781 143.628C307.021 143.868 307.315 144.06 307.663 144.204C308.011 144.336 308.479 144.486 309.067 144.654C309.775 144.846 310.339 145.032 310.759 145.212C311.179 145.392 311.539 145.656 311.839 146.004C312.139 146.352 312.295 146.814 312.307 147.39C312.307 147.918 312.163 148.392 311.875 148.812C311.587 149.22 311.185 149.544 310.669 149.784C310.153 150.024 309.559 150.144 308.887 150.144ZM323.571 144.582C323.571 145.014 323.559 145.344 323.535 145.572H315.381C315.417 146.316 315.597 146.952 315.921 147.48C316.245 148.008 316.671 148.41 317.199 148.686C317.727 148.95 318.303 149.082 318.927 149.082C319.743 149.082 320.427 148.884 320.979 148.488C321.543 148.092 321.915 147.558 322.095 146.886H323.427C323.187 147.846 322.671 148.632 321.879 149.244C321.099 149.844 320.115 150.144 318.927 150.144C318.003 150.144 317.175 149.94 316.443 149.532C315.711 149.112 315.135 148.524 314.715 147.768C314.307 147 314.103 146.106 314.103 145.086C314.103 144.066 314.307 143.172 314.715 142.404C315.123 141.636 315.693 141.048 316.425 140.64C317.157 140.232 317.991 140.028 318.927 140.028C319.863 140.028 320.679 140.232 321.375 140.64C322.083 141.048 322.623 141.6 322.995 142.296C323.379 142.98 323.571 143.742 323.571 144.582ZM322.293 144.546C322.305 143.814 322.155 143.19 321.843 142.674C321.543 142.158 321.129 141.768 320.601 141.504C320.073 141.24 319.497 141.108 318.873 141.108C317.937 141.108 317.139 141.408 316.479 142.008C315.819 142.608 315.453 143.454 315.381 144.546H322.293ZM330.24 145.086C330.24 144.066 330.444 143.178 330.852 142.422C331.26 141.654 331.824 141.066 332.544 140.658C333.264 140.238 334.086 140.028 335.01 140.028C336.222 140.028 337.218 140.328 337.998 140.928C338.79 141.528 339.3 142.344 339.528 143.376H338.178C338.01 142.668 337.644 142.116 337.08 141.72C336.528 141.312 335.838 141.108 335.01 141.108C334.35 141.108 333.756 141.258 333.228 141.558C332.7 141.858 332.28 142.308 331.968 142.908C331.668 143.496 331.518 144.222 331.518 145.086C331.518 145.95 331.668 146.682 331.968 147.282C332.28 147.882 332.7 148.332 333.228 148.632C333.756 148.932 334.35 149.082 335.01 149.082C335.838 149.082 336.528 148.884 337.08 148.488C337.644 148.08 338.01 147.516 338.178 146.796H339.528C339.3 147.804 338.79 148.614 337.998 149.226C337.206 149.838 336.21 150.144 335.01 150.144C334.086 150.144 333.264 149.94 332.544 149.532C331.824 149.112 331.26 148.524 330.852 147.768C330.444 147 330.24 146.106 330.24 145.086ZM346.157 150.144C345.233 150.144 344.399 149.94 343.655 149.532C342.923 149.112 342.341 148.524 341.909 147.768C341.489 147 341.279 146.106 341.279 145.086C341.279 144.066 341.495 143.178 341.927 142.422C342.359 141.654 342.947 141.066 343.691 140.658C344.435 140.238 345.269 140.028 346.193 140.028C347.117 140.028 347.951 140.238 348.695 140.658C349.451 141.066 350.039 141.654 350.459 142.422C350.891 143.178 351.107 144.066 351.107 145.086C351.107 146.094 350.891 146.982 350.459 147.75C350.027 148.518 349.433 149.112 348.677 149.532C347.921 149.94 347.081 150.144 346.157 150.144ZM346.157 149.046C346.805 149.046 347.405 148.902 347.957 148.614C348.509 148.314 348.953 147.87 349.289 147.282C349.637 146.682 349.811 145.95 349.811 145.086C349.811 144.222 349.643 143.496 349.307 142.908C348.971 142.308 348.527 141.864 347.975 141.576C347.423 141.276 346.823 141.126 346.175 141.126C345.527 141.126 344.927 141.276 344.375 141.576C343.823 141.864 343.379 142.308 343.043 142.908C342.719 143.496 342.557 144.222 342.557 145.086C342.557 145.95 342.719 146.682 343.043 147.282C343.379 147.87 343.817 148.314 344.357 148.614C344.909 148.902 345.509 149.046 346.157 149.046ZM365.104 139.992C366.256 139.992 367.192 140.358 367.912 141.09C368.644 141.81 369.01 142.86 369.01 144.24V150H367.768V144.384C367.768 143.316 367.51 142.5 366.994 141.936C366.478 141.372 365.776 141.09 364.888 141.09C363.964 141.09 363.226 141.396 362.674 142.008C362.122 142.62 361.846 143.508 361.846 144.672V150H360.604V144.384C360.604 143.316 360.346 142.5 359.83 141.936C359.314 141.372 358.606 141.09 357.706 141.09C356.782 141.09 356.044 141.396 355.492 142.008C354.94 142.62 354.664 143.508 354.664 144.672V150H353.404V140.172H354.664V141.864C354.976 141.252 355.42 140.79 355.996 140.478C356.572 140.154 357.214 139.992 357.922 139.992C358.774 139.992 359.518 140.196 360.154 140.604C360.802 141.012 361.27 141.612 361.558 142.404C361.822 141.624 362.272 141.03 362.908 140.622C363.556 140.202 364.288 139.992 365.104 139.992ZM373.05 142.332C373.362 141.672 373.854 141.126 374.526 140.694C375.21 140.25 376.02 140.028 376.956 140.028C377.844 140.028 378.642 140.238 379.35 140.658C380.07 141.066 380.628 141.654 381.024 142.422C381.432 143.178 381.636 144.06 381.636 145.068C381.636 146.076 381.432 146.964 381.024 147.732C380.628 148.5 380.07 149.094 379.35 149.514C378.642 149.934 377.844 150.144 376.956 150.144C376.032 150.144 375.228 149.928 374.544 149.496C373.86 149.052 373.362 148.5 373.05 147.84V154.644H371.808V140.172H373.05V142.332ZM380.358 145.068C380.358 144.252 380.196 143.55 379.872 142.962C379.56 142.362 379.128 141.906 378.576 141.594C378.024 141.282 377.4 141.126 376.704 141.126C376.032 141.126 375.414 141.288 374.85 141.612C374.298 141.936 373.86 142.398 373.536 142.998C373.212 143.598 373.05 144.294 373.05 145.086C373.05 145.878 373.212 146.574 373.536 147.174C373.86 147.774 374.298 148.236 374.85 148.56C375.414 148.884 376.032 149.046 376.704 149.046C377.4 149.046 378.024 148.89 378.576 148.578C379.128 148.254 379.56 147.792 379.872 147.192C380.196 146.58 380.358 145.872 380.358 145.068ZM385.215 136.68V150H383.955V136.68H385.215ZM396.96 144.582C396.96 145.014 396.948 145.344 396.924 145.572H388.77C388.806 146.316 388.986 146.952 389.31 147.48C389.634 148.008 390.06 148.41 390.588 148.686C391.116 148.95 391.692 149.082 392.316 149.082C393.132 149.082 393.816 148.884 394.368 148.488C394.932 148.092 395.304 147.558 395.484 146.886H396.816C396.576 147.846 396.06 148.632 395.268 149.244C394.488 149.844 393.504 150.144 392.316 150.144C391.392 150.144 390.564 149.94 389.832 149.532C389.1 149.112 388.524 148.524 388.104 147.768C387.696 147 387.492 146.106 387.492 145.086C387.492 144.066 387.696 143.172 388.104 142.404C388.512 141.636 389.082 141.048 389.814 140.64C390.546 140.232 391.38 140.028 392.316 140.028C393.252 140.028 394.068 140.232 394.764 140.64C395.472 141.048 396.012 141.6 396.384 142.296C396.768 142.98 396.96 143.742 396.96 144.582ZM395.682 144.546C395.694 143.814 395.544 143.19 395.232 142.674C394.932 142.158 394.518 141.768 393.99 141.504C393.462 141.24 392.886 141.108 392.262 141.108C391.326 141.108 390.528 141.408 389.868 142.008C389.208 142.608 388.842 143.454 388.77 144.546H395.682ZM400.903 141.234V147.336C400.903 147.936 401.017 148.35 401.245 148.578C401.473 148.806 401.875 148.92 402.451 148.92H403.603V150H402.253C401.365 150 400.705 149.796 400.273 149.388C399.841 148.968 399.625 148.284 399.625 147.336V141.234H398.257V140.172H399.625V137.706H400.903V140.172H403.603V141.234H400.903ZM414.573 144.582C414.573 145.014 414.561 145.344 414.537 145.572H406.383C406.419 146.316 406.599 146.952 406.923 147.48C407.247 148.008 407.673 148.41 408.201 148.686C408.729 148.95 409.305 149.082 409.929 149.082C410.745 149.082 411.429 148.884 411.981 148.488C412.545 148.092 412.917 147.558 413.097 146.886H414.429C414.189 147.846 413.673 148.632 412.881 149.244C412.101 149.844 411.117 150.144 409.929 150.144C409.005 150.144 408.177 149.94 407.445 149.532C406.713 149.112 406.137 148.524 405.717 147.768C405.309 147 405.105 146.106 405.105 145.086C405.105 144.066 405.309 143.172 405.717 142.404C406.125 141.636 406.695 141.048 407.427 140.64C408.159 140.232 408.993 140.028 409.929 140.028C410.865 140.028 411.681 140.232 412.377 140.64C413.085 141.048 413.625 141.6 413.997 142.296C414.381 142.98 414.573 143.742 414.573 144.582ZM413.295 144.546C413.307 143.814 413.157 143.19 412.845 142.674C412.545 142.158 412.131 141.768 411.603 141.504C411.075 141.24 410.499 141.108 409.875 141.108C408.939 141.108 408.141 141.408 407.481 142.008C406.821 142.608 406.455 143.454 406.383 144.546H413.295ZM416.302 145.068C416.302 144.06 416.506 143.178 416.914 142.422C417.322 141.654 417.88 141.066 418.588 140.658C419.308 140.238 420.118 140.028 421.018 140.028C421.882 140.028 422.662 140.238 423.358 140.658C424.054 141.078 424.564 141.624 424.888 142.296V136.68H426.148V150H424.888V147.804C424.588 148.488 424.096 149.052 423.412 149.496C422.728 149.928 421.924 150.144 421 150.144C420.1 150.144 419.29 149.934 418.57 149.514C417.862 149.094 417.304 148.5 416.896 147.732C416.5 146.964 416.302 146.076 416.302 145.068ZM424.888 145.086C424.888 144.294 424.726 143.598 424.402 142.998C424.078 142.398 423.634 141.936 423.07 141.612C422.518 141.288 421.906 141.126 421.234 141.126C420.538 141.126 419.914 141.282 419.362 141.594C418.81 141.906 418.372 142.362 418.048 142.962C417.736 143.55 417.58 144.252 417.58 145.068C417.58 145.872 417.736 146.58 418.048 147.192C418.372 147.792 418.81 148.254 419.362 148.578C419.914 148.89 420.538 149.046 421.234 149.046C421.906 149.046 422.518 148.884 423.07 148.56C423.634 148.236 424.078 147.774 424.402 147.174C424.726 146.574 424.888 145.878 424.888 145.086Z" fill="#264154"/>
<path d="M293.659 551.49V564H291.607V555.432L287.791 564H286.369L282.535 555.432V564H280.483V551.49H282.697L287.089 561.3L291.463 551.49H293.659ZM305.284 554.082L299.2 568.662H297.076L299.092 563.838L295.186 554.082H297.472L300.262 561.642L303.16 554.082H305.284ZM313.56 555.54C313.908 555.084 314.382 554.7 314.982 554.388C315.582 554.076 316.26 553.92 317.016 553.92C317.88 553.92 318.666 554.136 319.374 554.568C320.094 554.988 320.658 555.582 321.066 556.35C321.474 557.118 321.678 558 321.678 558.996C321.678 559.992 321.474 560.886 321.066 561.678C320.658 562.458 320.094 563.07 319.374 563.514C318.666 563.946 317.88 564.162 317.016 564.162C316.26 564.162 315.588 564.012 315 563.712C314.412 563.4 313.932 563.016 313.56 562.56V568.716H311.508V554.082H313.56V555.54ZM319.59 558.996C319.59 558.312 319.446 557.724 319.158 557.232C318.882 556.728 318.51 556.35 318.042 556.098C317.586 555.834 317.094 555.702 316.566 555.702C316.05 555.702 315.558 555.834 315.09 556.098C314.634 556.362 314.262 556.746 313.974 557.25C313.698 557.754 313.56 558.348 313.56 559.032C313.56 559.716 313.698 560.316 313.974 560.832C314.262 561.336 314.634 561.72 315.09 561.984C315.558 562.248 316.05 562.38 316.566 562.38C317.094 562.38 317.586 562.248 318.042 561.984C318.51 561.708 318.882 561.312 319.158 560.796C319.446 560.28 319.59 559.68 319.59 558.996ZM328.009 564.162C327.073 564.162 326.227 563.952 325.471 563.532C324.715 563.1 324.121 562.5 323.689 561.732C323.257 560.952 323.041 560.052 323.041 559.032C323.041 558.024 323.263 557.13 323.707 556.35C324.151 555.57 324.757 554.97 325.525 554.55C326.293 554.13 327.151 553.92 328.099 553.92C329.047 553.92 329.905 554.13 330.673 554.55C331.441 554.97 332.047 555.57 332.491 556.35C332.935 557.13 333.157 558.024 333.157 559.032C333.157 560.04 332.929 560.934 332.473 561.714C332.017 562.494 331.393 563.1 330.601 563.532C329.821 563.952 328.957 564.162 328.009 564.162ZM328.009 562.38C328.537 562.38 329.029 562.254 329.485 562.002C329.953 561.75 330.331 561.372 330.619 560.868C330.907 560.364 331.051 559.752 331.051 559.032C331.051 558.312 330.913 557.706 330.637 557.214C330.361 556.71 329.995 556.332 329.539 556.08C329.083 555.828 328.591 555.702 328.063 555.702C327.535 555.702 327.043 555.828 326.587 556.08C326.143 556.332 325.789 556.71 325.525 557.214C325.261 557.706 325.129 558.312 325.129 559.032C325.129 560.1 325.399 560.928 325.939 561.516C326.491 562.092 327.181 562.38 328.009 562.38ZM337.238 555.522C337.538 555.018 337.934 554.628 338.426 554.352C338.93 554.064 339.524 553.92 340.208 553.92V556.044H339.686C338.882 556.044 338.27 556.248 337.85 556.656C337.442 557.064 337.238 557.772 337.238 558.78V564H335.186V554.082H337.238V555.522ZM344.488 555.756V561.246C344.488 561.618 344.572 561.888 344.74 562.056C344.92 562.212 345.22 562.29 345.64 562.29H346.9V564H345.28C344.356 564 343.648 563.784 343.156 563.352C342.664 562.92 342.418 562.218 342.418 561.246V555.756H341.248V554.082H342.418V551.616H344.488V554.082H346.9V555.756H344.488ZM352.949 555.756H351.113V564H349.043V555.756H347.873V554.082H349.043V553.38C349.043 552.24 349.343 551.412 349.943 550.896C350.555 550.368 351.509 550.104 352.805 550.104V551.814C352.181 551.814 351.743 551.934 351.491 552.174C351.239 552.402 351.113 552.804 351.113 553.38V554.082H352.949V555.756ZM359.07 564.162C358.134 564.162 357.288 563.952 356.532 563.532C355.776 563.1 355.182 562.5 354.75 561.732C354.318 560.952 354.102 560.052 354.102 559.032C354.102 558.024 354.324 557.13 354.768 556.35C355.212 555.57 355.818 554.97 356.586 554.55C357.354 554.13 358.212 553.92 359.16 553.92C360.108 553.92 360.966 554.13 361.734 554.55C362.502 554.97 363.108 555.57 363.552 556.35C363.996 557.13 364.218 558.024 364.218 559.032C364.218 560.04 363.99 560.934 363.534 561.714C363.078 562.494 362.454 563.1 361.662 563.532C360.882 563.952 360.018 564.162 359.07 564.162ZM359.07 562.38C359.598 562.38 360.09 562.254 360.546 562.002C361.014 561.75 361.392 561.372 361.68 560.868C361.968 560.364 362.112 559.752 362.112 559.032C362.112 558.312 361.974 557.706 361.698 557.214C361.422 556.71 361.056 556.332 360.6 556.08C360.144 555.828 359.652 555.702 359.124 555.702C358.596 555.702 358.104 555.828 357.648 556.08C357.204 556.332 356.85 556.71 356.586 557.214C356.322 557.706 356.19 558.312 356.19 559.032C356.19 560.1 356.46 560.928 357 561.516C357.552 562.092 358.242 562.38 359.07 562.38ZM368.298 550.68V564H366.246V550.68H368.298ZM372.037 552.768C371.665 552.768 371.353 552.642 371.101 552.39C370.849 552.138 370.723 551.826 370.723 551.454C370.723 551.082 370.849 550.77 371.101 550.518C371.353 550.266 371.665 550.14 372.037 550.14C372.397 550.14 372.703 550.266 372.955 550.518C373.207 550.77 373.333 551.082 373.333 551.454C373.333 551.826 373.207 552.138 372.955 552.39C372.703 552.642 372.397 552.768 372.037 552.768ZM373.045 554.082V564H370.993V554.082H373.045ZM380.041 564.162C379.105 564.162 378.259 563.952 377.503 563.532C376.747 563.1 376.153 562.5 375.721 561.732C375.289 560.952 375.073 560.052 375.073 559.032C375.073 558.024 375.295 557.13 375.739 556.35C376.183 555.57 376.789 554.97 377.557 554.55C378.325 554.13 379.183 553.92 380.131 553.92C381.079 553.92 381.937 554.13 382.705 554.55C383.473 554.97 384.079 555.57 384.523 556.35C384.967 557.13 385.189 558.024 385.189 559.032C385.189 560.04 384.961 560.934 384.505 561.714C384.049 562.494 383.425 563.1 382.633 563.532C381.853 563.952 380.989 564.162 380.041 564.162ZM380.041 562.38C380.569 562.38 381.061 562.254 381.517 562.002C381.985 561.75 382.363 561.372 382.651 560.868C382.939 560.364 383.083 559.752 383.083 559.032C383.083 558.312 382.945 557.706 382.669 557.214C382.393 556.71 382.027 556.332 381.571 556.08C381.115 555.828 380.623 555.702 380.095 555.702C379.567 555.702 379.075 555.828 378.619 556.08C378.175 556.332 377.821 556.71 377.557 557.214C377.293 557.706 377.161 558.312 377.161 559.032C377.161 560.1 377.431 560.928 377.971 561.516C378.523 562.092 379.213 562.38 380.041 562.38Z" fill="#002036"/>
<rect x="150.5" y="535.5" width="364" height="45" rx="13.5" stroke="#0D6EFD" stroke-opacity="0.5"/>
<path opacity="0.15" fill-rule="evenodd" clip-rule="evenodd" d="M154 295.5C154 295.224 154.327 295 154.73 295H510.27C510.673 295 511 295.224 511 295.5C511 295.776 510.673 296 510.27 296H154.73C154.327 296 154 295.776 154 295.5Z" fill="#264154"/>
<path opacity="0.15" fill-rule="evenodd" clip-rule="evenodd" d="M154 185.5C154 185.224 154.327 185 154.73 185H510.27C510.673 185 511 185.224 511 185.5C511 185.776 510.673 186 510.27 186H154.73C154.327 186 154 185.776 154 185.5Z" fill="#264154"/>
<path d="M291.266 255.634V268H290.456V257.326L285.704 268H285.056L280.286 257.326V268H279.476V255.634H280.34L285.38 266.938L290.42 255.634H291.266ZM294.656 256.048C294.464 256.048 294.302 255.988 294.17 255.868C294.038 255.736 293.972 255.562 293.972 255.346C293.972 255.142 294.038 254.974 294.17 254.842C294.302 254.71 294.464 254.644 294.656 254.644C294.848 254.644 295.01 254.71 295.142 254.842C295.274 254.974 295.34 255.142 295.34 255.346C295.34 255.562 295.274 255.736 295.142 255.868C295.01 255.988 294.848 256.048 294.656 256.048ZM295.052 258.226V268H294.242V258.226H295.052ZM297.517 263.104C297.517 262.096 297.715 261.214 298.111 260.458C298.519 259.702 299.077 259.12 299.785 258.712C300.505 258.304 301.321 258.1 302.233 258.1C303.265 258.1 304.141 258.352 304.861 258.856C305.581 259.36 306.085 260.002 306.373 260.782V258.226H307.183V268H306.373V265.426C306.085 266.218 305.575 266.872 304.843 267.388C304.123 267.892 303.253 268.144 302.233 268.144C301.321 268.144 300.505 267.94 299.785 267.532C299.077 267.112 298.519 266.524 298.111 265.768C297.715 265 297.517 264.112 297.517 263.104ZM306.373 263.104C306.373 262.252 306.193 261.502 305.833 260.854C305.485 260.194 305.005 259.69 304.393 259.342C303.781 258.982 303.097 258.802 302.341 258.802C301.549 258.802 300.853 258.976 300.253 259.324C299.653 259.66 299.185 260.152 298.849 260.8C298.513 261.448 298.345 262.216 298.345 263.104C298.345 263.992 298.513 264.76 298.849 265.408C299.185 266.056 299.653 266.554 300.253 266.902C300.865 267.25 301.561 267.424 302.341 267.424C303.097 267.424 303.781 267.25 304.393 266.902C305.017 266.542 305.503 266.038 305.851 265.39C306.199 264.73 306.373 263.968 306.373 263.104ZM321.688 258.028C322.804 258.028 323.716 258.388 324.424 259.108C325.132 259.816 325.486 260.872 325.486 262.276V268H324.694V262.33C324.694 261.166 324.412 260.278 323.848 259.666C323.296 259.042 322.534 258.73 321.562 258.73C320.554 258.73 319.744 259.078 319.132 259.774C318.52 260.47 318.214 261.478 318.214 262.798V268H317.422V262.33C317.422 261.166 317.14 260.278 316.576 259.666C316.024 259.042 315.262 258.73 314.29 258.73C313.282 258.73 312.472 259.078 311.86 259.774C311.248 260.47 310.942 261.478 310.942 262.798V268H310.132V258.226H310.942V260.35C311.218 259.582 311.662 259.006 312.274 258.622C312.898 258.226 313.612 258.028 314.416 258.028C315.304 258.028 316.066 258.262 316.702 258.73C317.35 259.186 317.794 259.864 318.034 260.764C318.262 259.864 318.706 259.186 319.366 258.73C320.026 258.262 320.8 258.028 321.688 258.028ZM328.775 256.048C328.583 256.048 328.421 255.988 328.289 255.868C328.157 255.736 328.091 255.562 328.091 255.346C328.091 255.142 328.157 254.974 328.289 254.842C328.421 254.71 328.583 254.644 328.775 254.644C328.967 254.644 329.129 254.71 329.261 254.842C329.393 254.974 329.459 255.142 329.459 255.346C329.459 255.562 329.393 255.736 329.261 255.868C329.129 255.988 328.967 256.048 328.775 256.048ZM329.171 258.226V268H328.361V258.226H329.171ZM332.68 266.11L330.988 270.718H330.376L331.744 266.11H332.68ZM346.303 255.364V256.048H340.597V261.322H345.583V262.006H340.597V268H339.787V255.364H346.303ZM349.263 267.316H353.961V268H348.453V255.364H349.263V267.316ZM360.556 258.55C360.664 257.458 361.084 256.6 361.816 255.976C362.56 255.352 363.538 255.04 364.75 255.04C365.53 255.04 366.196 255.184 366.748 255.472C367.3 255.748 367.72 256.126 368.008 256.606C368.296 257.086 368.44 257.632 368.44 258.244C368.44 259.012 368.206 259.678 367.738 260.242C367.27 260.794 366.556 261.124 365.596 261.232V261.34C366.52 261.484 367.264 261.838 367.828 262.402C368.392 262.966 368.674 263.722 368.674 264.67C368.674 265.678 368.338 266.506 367.666 267.154C367.006 267.79 366.034 268.108 364.75 268.108C363.538 268.108 362.536 267.784 361.744 267.136C360.964 266.488 360.496 265.57 360.34 264.382H361.132C361.276 265.27 361.66 265.996 362.284 266.56C362.908 267.112 363.73 267.388 364.75 267.388C365.782 267.388 366.562 267.13 367.09 266.614C367.63 266.098 367.9 265.432 367.9 264.616C367.9 263.632 367.522 262.894 366.766 262.402C366.022 261.91 364.954 261.664 363.562 261.664H363.22V260.962H363.58C366.292 260.95 367.648 260.062 367.648 258.298C367.648 257.53 367.39 256.912 366.874 256.444C366.37 255.976 365.656 255.742 364.732 255.742C363.832 255.742 363.07 255.982 362.446 256.462C361.834 256.93 361.468 257.626 361.348 258.55H360.556ZM370.998 258.55C371.106 257.458 371.526 256.6 372.258 255.976C373.002 255.352 373.98 255.04 375.192 255.04C375.972 255.04 376.638 255.184 377.19 255.472C377.742 255.748 378.162 256.126 378.45 256.606C378.738 257.086 378.882 257.632 378.882 258.244C378.882 259.012 378.648 259.678 378.18 260.242C377.712 260.794 376.998 261.124 376.038 261.232V261.34C376.962 261.484 377.706 261.838 378.27 262.402C378.834 262.966 379.116 263.722 379.116 264.67C379.116 265.678 378.78 266.506 378.108 267.154C377.448 267.79 376.476 268.108 375.192 268.108C373.98 268.108 372.978 267.784 372.186 267.136C371.406 266.488 370.938 265.57 370.782 264.382H371.574C371.718 265.27 372.102 265.996 372.726 266.56C373.35 267.112 374.172 267.388 375.192 267.388C376.224 267.388 377.004 267.13 377.532 266.614C378.072 266.098 378.342 265.432 378.342 264.616C378.342 263.632 377.964 262.894 377.208 262.402C376.464 261.91 375.396 261.664 374.004 261.664H373.662V260.962H374.022C376.734 260.95 378.09 260.062 378.09 258.298C378.09 257.53 377.832 256.912 377.316 256.444C376.812 255.976 376.098 255.742 375.174 255.742C374.274 255.742 373.512 255.982 372.888 256.462C372.276 256.93 371.91 257.626 371.79 258.55H370.998ZM381.187 267.406C383.443 265.846 385.219 264.34 386.515 262.888C387.823 261.436 388.477 260.044 388.477 258.712C388.477 257.836 388.243 257.122 387.775 256.57C387.319 256.018 386.569 255.742 385.525 255.742C384.481 255.742 383.683 256.06 383.131 256.696C382.579 257.332 382.267 258.172 382.195 259.216H381.403C381.487 257.896 381.895 256.87 382.627 256.138C383.359 255.406 384.325 255.04 385.525 255.04C386.617 255.04 387.511 255.346 388.207 255.958C388.915 256.57 389.269 257.482 389.269 258.694C389.269 260.194 388.579 261.706 387.199 263.23C385.831 264.754 384.265 266.098 382.501 267.262H389.683V267.946H381.187V267.406ZM399.733 255.922H392.821V261.088C393.145 260.632 393.619 260.26 394.243 259.972C394.867 259.672 395.545 259.522 396.277 259.522C397.249 259.522 398.041 259.72 398.653 260.116C399.277 260.5 399.727 261.004 400.003 261.628C400.279 262.252 400.417 262.93 400.417 263.662C400.417 264.478 400.267 265.222 399.967 265.894C399.667 266.554 399.193 267.088 398.545 267.496C397.909 267.892 397.105 268.09 396.133 268.09C394.957 268.09 393.985 267.772 393.217 267.136C392.461 266.488 391.999 265.618 391.831 264.526H392.623C392.803 265.45 393.205 266.158 393.829 266.65C394.453 267.13 395.221 267.37 396.133 267.37C397.297 267.37 398.173 267.034 398.761 266.362C399.349 265.678 399.643 264.784 399.643 263.68C399.643 262.6 399.343 261.754 398.743 261.142C398.155 260.53 397.309 260.224 396.205 260.224C395.449 260.224 394.771 260.392 394.171 260.728C393.583 261.064 393.127 261.526 392.803 262.114H392.047V255.202H399.733V255.922ZM403.863 264.652C403.983 265.528 404.301 266.206 404.817 266.686C405.345 267.166 406.053 267.406 406.941 267.406C408.153 267.406 409.071 266.956 409.695 266.056C410.331 265.156 410.649 263.698 410.649 261.682L410.631 260.98C410.451 261.772 410.001 262.402 409.281 262.87C408.573 263.338 407.745 263.572 406.797 263.572C405.501 263.572 404.481 263.188 403.737 262.42C402.993 261.652 402.621 260.59 402.621 259.234C402.621 258.034 402.963 257.038 403.647 256.246C404.343 255.442 405.387 255.04 406.779 255.04C408.531 255.04 409.731 255.598 410.379 256.714C411.039 257.83 411.369 259.384 411.369 261.376C411.369 263.572 411.027 265.246 410.343 266.398C409.659 267.538 408.513 268.108 406.905 268.108C405.777 268.108 404.889 267.796 404.241 267.172C403.593 266.536 403.209 265.696 403.089 264.652H403.863ZM406.887 262.888C407.499 262.888 408.081 262.762 408.633 262.51C409.185 262.246 409.629 261.862 409.965 261.358C410.313 260.854 410.487 260.242 410.487 259.522C410.487 258.838 410.355 258.208 410.091 257.632C409.827 257.056 409.413 256.594 408.849 256.246C408.297 255.898 407.607 255.724 406.779 255.724C405.759 255.724 404.937 256.042 404.313 256.678C403.701 257.302 403.395 258.154 403.395 259.234C403.395 260.398 403.701 261.298 404.313 261.934C404.925 262.57 405.783 262.888 406.887 262.888Z" fill="#264154"/>
<path opacity="0.35" d="M264.713 253.03C263.839 253.176 263.12 253.464 262.421 253.942C261.229 254.757 260.401 256.023 260.098 257.489C260.006 257.923 259.972 258.797 260.026 259.254C260.184 260.559 260.854 262.148 261.963 263.84C262.464 264.602 263.255 265.646 263.891 266.387C264.249 266.801 264.997 267.622 265.194 267.818C265.363 267.982 265.392 268 265.507 268C265.627 268 265.636 267.994 266.008 267.607C267.4 266.15 268.718 264.441 269.546 263.019C270.337 261.661 270.804 260.45 270.961 259.351C271.03 258.852 271.004 257.97 270.904 257.489C270.443 255.258 268.787 253.563 266.604 253.088C266.303 253.021 266.177 253.009 265.601 253.003C265.149 252.995 264.871 253.003 264.713 253.03ZM266.131 256.14C266.415 256.214 266.865 256.448 267.091 256.645C268.214 257.612 268.306 259.313 267.294 260.4C266.555 261.195 265.312 261.403 264.361 260.89C263.705 260.535 263.235 259.923 263.066 259.204C262.988 258.864 262.988 258.372 263.066 258.032C263.189 257.51 263.51 256.985 263.919 256.636C264.137 256.451 264.596 256.211 264.871 256.138C265.246 256.038 265.747 256.038 266.131 256.14Z" fill="#264154"/>
<path d="M195.527 216.2V212.588H202.275V233H198.243V216.2H195.527ZM206.148 222.528C206.148 219.299 206.727 216.769 207.884 214.94C209.06 213.111 211.001 212.196 213.708 212.196C216.415 212.196 218.347 213.111 219.504 214.94C220.68 216.769 221.268 219.299 221.268 222.528C221.268 225.776 220.68 228.324 219.504 230.172C218.347 232.02 216.415 232.944 213.708 232.944C211.001 232.944 209.06 232.02 207.884 230.172C206.727 228.324 206.148 225.776 206.148 222.528ZM217.404 222.528C217.404 221.147 217.311 219.989 217.124 219.056C216.956 218.104 216.601 217.329 216.06 216.732C215.537 216.135 214.753 215.836 213.708 215.836C212.663 215.836 211.869 216.135 211.328 216.732C210.805 217.329 210.451 218.104 210.264 219.056C210.096 219.989 210.012 221.147 210.012 222.528C210.012 223.947 210.096 225.141 210.264 226.112C210.432 227.064 210.787 227.839 211.328 228.436C211.869 229.015 212.663 229.304 213.708 229.304C214.753 229.304 215.547 229.015 216.088 228.436C216.629 227.839 216.984 227.064 217.152 226.112C217.32 225.141 217.404 223.947 217.404 222.528ZM224.25 222.528C224.25 219.299 224.828 216.769 225.986 214.94C227.162 213.111 229.103 212.196 231.81 212.196C234.516 212.196 236.448 213.111 237.606 214.94C238.782 216.769 239.37 219.299 239.37 222.528C239.37 225.776 238.782 228.324 237.606 230.172C236.448 232.02 234.516 232.944 231.81 232.944C229.103 232.944 227.162 232.02 225.986 230.172C224.828 228.324 224.25 225.776 224.25 222.528ZM235.506 222.528C235.506 221.147 235.412 219.989 235.226 219.056C235.058 218.104 234.703 217.329 234.162 216.732C233.639 216.135 232.855 215.836 231.81 215.836C230.764 215.836 229.971 216.135 229.43 216.732C228.907 217.329 228.552 218.104 228.366 219.056C228.198 219.989 228.114 221.147 228.114 222.528C228.114 223.947 228.198 225.141 228.366 226.112C228.534 227.064 228.888 227.839 229.43 228.436C229.971 229.015 230.764 229.304 231.81 229.304C232.855 229.304 233.648 229.015 234.19 228.436C234.731 227.839 235.086 227.064 235.254 226.112C235.422 225.141 235.506 223.947 235.506 222.528ZM258.543 233.196C256.714 233.196 255.034 232.767 253.503 231.908C251.972 231.049 250.759 229.864 249.863 228.352C248.967 226.821 248.519 225.095 248.519 223.172C248.519 221.268 248.967 219.56 249.863 218.048C250.759 216.517 251.972 215.323 253.503 214.464C255.034 213.605 256.714 213.176 258.543 213.176C260.391 213.176 262.071 213.605 263.583 214.464C265.114 215.323 266.318 216.517 267.195 218.048C268.091 219.56 268.539 221.268 268.539 223.172C268.539 225.095 268.091 226.821 267.195 228.352C266.318 229.864 265.114 231.049 263.583 231.908C262.052 232.767 260.372 233.196 258.543 233.196ZM258.543 229.696C259.719 229.696 260.755 229.435 261.651 228.912C262.547 228.371 263.247 227.605 263.751 226.616C264.255 225.627 264.507 224.479 264.507 223.172C264.507 221.865 264.255 220.727 263.751 219.756C263.247 218.767 262.547 218.011 261.651 217.488C260.755 216.965 259.719 216.704 258.543 216.704C257.367 216.704 256.322 216.965 255.407 217.488C254.511 218.011 253.811 218.767 253.307 219.756C252.803 220.727 252.551 221.865 252.551 223.172C252.551 224.479 252.803 225.627 253.307 226.616C253.811 227.605 254.511 228.371 255.407 228.912C256.322 229.435 257.367 229.696 258.543 229.696ZM270.447 225.244C270.447 223.639 270.774 222.239 271.427 221.044C272.081 219.831 272.986 218.897 274.143 218.244C275.301 217.572 276.626 217.236 278.119 217.236C280.042 217.236 281.629 217.721 282.879 218.692C284.149 219.644 284.998 220.988 285.427 222.724H281.199C280.975 222.052 280.593 221.529 280.051 221.156C279.529 220.764 278.875 220.568 278.091 220.568C276.971 220.568 276.085 220.979 275.431 221.8C274.778 222.603 274.451 223.751 274.451 225.244C274.451 226.719 274.778 227.867 275.431 228.688C276.085 229.491 276.971 229.892 278.091 229.892C279.678 229.892 280.714 229.183 281.199 227.764H285.427C284.998 229.444 284.149 230.779 282.879 231.768C281.61 232.757 280.023 233.252 278.119 233.252C276.626 233.252 275.301 232.925 274.143 232.272C272.986 231.6 272.081 230.667 271.427 229.472C270.774 228.259 270.447 226.849 270.447 225.244ZM302.719 224.908C302.719 225.468 302.682 225.972 302.607 226.42H291.267C291.36 227.54 291.752 228.417 292.443 229.052C293.134 229.687 293.983 230.004 294.991 230.004C296.447 230.004 297.483 229.379 298.099 228.128H302.327C301.879 229.621 301.02 230.853 299.751 231.824C298.482 232.776 296.923 233.252 295.075 233.252C293.582 233.252 292.238 232.925 291.043 232.272C289.867 231.6 288.943 230.657 288.271 229.444C287.618 228.231 287.291 226.831 287.291 225.244C287.291 223.639 287.618 222.229 288.271 221.016C288.924 219.803 289.839 218.869 291.015 218.216C292.191 217.563 293.544 217.236 295.075 217.236C296.55 217.236 297.866 217.553 299.023 218.188C300.199 218.823 301.104 219.728 301.739 220.904C302.392 222.061 302.719 223.396 302.719 224.908ZM298.659 223.788C298.64 222.78 298.276 221.977 297.567 221.38C296.858 220.764 295.99 220.456 294.963 220.456C293.992 220.456 293.171 220.755 292.499 221.352C291.846 221.931 291.444 222.743 291.295 223.788H298.659ZM304.572 225.188C304.572 223.62 304.88 222.229 305.496 221.016C306.131 219.803 306.98 218.869 308.044 218.216C309.127 217.563 310.331 217.236 311.656 217.236C312.814 217.236 313.822 217.469 314.68 217.936C315.558 218.403 316.258 218.991 316.78 219.7V217.488H320.728V233H316.78V230.732C316.276 231.46 315.576 232.067 314.68 232.552C313.803 233.019 312.786 233.252 311.628 233.252C310.322 233.252 309.127 232.916 308.044 232.244C306.98 231.572 306.131 230.629 305.496 229.416C304.88 228.184 304.572 226.775 304.572 225.188ZM316.78 225.244C316.78 224.292 316.594 223.48 316.22 222.808C315.847 222.117 315.343 221.595 314.708 221.24C314.074 220.867 313.392 220.68 312.664 220.68C311.936 220.68 311.264 220.857 310.648 221.212C310.032 221.567 309.528 222.089 309.136 222.78C308.763 223.452 308.576 224.255 308.576 225.188C308.576 226.121 308.763 226.943 309.136 227.652C309.528 228.343 310.032 228.875 310.648 229.248C311.283 229.621 311.955 229.808 312.664 229.808C313.392 229.808 314.074 229.631 314.708 229.276C315.343 228.903 315.847 228.38 316.22 227.708C316.594 227.017 316.78 226.196 316.78 225.244ZM333.153 217.264C335.001 217.264 336.494 217.852 337.633 219.028C338.772 220.185 339.341 221.809 339.341 223.9V233H335.421V224.432C335.421 223.2 335.113 222.257 334.497 221.604C333.881 220.932 333.041 220.596 331.977 220.596C330.894 220.596 330.036 220.932 329.401 221.604C328.785 222.257 328.477 223.2 328.477 224.432V233H324.557V217.488H328.477V219.42C329 218.748 329.662 218.225 330.465 217.852C331.286 217.46 332.182 217.264 333.153 217.264ZM356.573 213.456C358.626 213.456 360.427 213.857 361.977 214.66C363.545 215.463 364.749 216.611 365.589 218.104C366.447 219.579 366.877 221.296 366.877 223.256C366.877 225.216 366.447 226.933 365.589 228.408C364.749 229.864 363.545 230.993 361.977 231.796C360.427 232.599 358.626 233 356.573 233H349.741V213.456H356.573ZM356.433 229.668C358.486 229.668 360.073 229.108 361.193 227.988C362.313 226.868 362.873 225.291 362.873 223.256C362.873 221.221 362.313 219.635 361.193 218.496C360.073 217.339 358.486 216.76 356.433 216.76H353.661V229.668H356.433ZM373.731 219.896C374.235 219.075 374.888 218.431 375.691 217.964C376.512 217.497 377.445 217.264 378.491 217.264V221.38H377.455C376.223 221.38 375.289 221.669 374.655 222.248C374.039 222.827 373.731 223.835 373.731 225.272V233H369.811V217.488H373.731V219.896ZM383.119 215.64C382.428 215.64 381.85 215.425 381.383 214.996C380.935 214.548 380.711 213.997 380.711 213.344C380.711 212.691 380.935 212.149 381.383 211.72C381.85 211.272 382.428 211.048 383.119 211.048C383.81 211.048 384.379 211.272 384.827 211.72C385.294 212.149 385.527 212.691 385.527 213.344C385.527 213.997 385.294 214.548 384.827 214.996C384.379 215.425 383.81 215.64 383.119 215.64ZM385.051 217.488V233H381.131V217.488H385.051ZM395.392 229.388L399.312 217.488H403.484L397.744 233H392.984L387.272 217.488H391.472L395.392 229.388ZM420.106 224.908C420.106 225.468 420.068 225.972 419.994 226.42H408.654C408.747 227.54 409.139 228.417 409.83 229.052C410.52 229.687 411.37 230.004 412.378 230.004C413.834 230.004 414.87 229.379 415.486 228.128H419.714C419.266 229.621 418.407 230.853 417.138 231.824C415.868 232.776 414.31 233.252 412.462 233.252C410.968 233.252 409.624 232.925 408.43 232.272C407.254 231.6 406.33 230.657 405.658 229.444C405.004 228.231 404.678 226.831 404.678 225.244C404.678 223.639 405.004 222.229 405.658 221.016C406.311 219.803 407.226 218.869 408.402 218.216C409.578 217.563 410.931 217.236 412.462 217.236C413.936 217.236 415.252 217.553 416.41 218.188C417.586 218.823 418.491 219.728 419.126 220.904C419.779 222.061 420.106 223.396 420.106 224.908ZM416.046 223.788C416.027 222.78 415.663 221.977 414.954 221.38C414.244 220.764 413.376 220.456 412.35 220.456C411.379 220.456 410.558 220.755 409.886 221.352C409.232 221.931 408.831 222.743 408.682 223.788H416.046Z" fill="#002036"/>
<path d="M430.022 234.348C428.918 233.22 428.036 231.792 427.376 230.064C426.716 228.324 426.386 226.41 426.386 224.322C426.386 222.222 426.722 220.29 427.394 218.526C428.066 216.762 428.972 215.316 430.112 214.188H430.976V214.278C429.74 215.526 428.798 217.026 428.15 218.778C427.502 220.518 427.178 222.366 427.178 224.322C427.178 226.266 427.496 228.096 428.132 229.812C428.768 231.528 429.686 233.01 430.886 234.258V234.348H430.022ZM434.106 219.048V224.322H439.146V225.006H434.106V230.316H439.686V231H433.296V218.364H439.686V219.048H434.106ZM445.99 224.682L449.788 231H448.87L445.468 225.33L442.21 231H441.31L445.054 224.628L441.292 218.364H442.21L445.576 223.98L448.888 218.364H449.806L445.99 224.682ZM458.734 231L455.494 225.618H455.422H452.722V231H451.912V218.364H455.386C456.79 218.364 457.84 218.694 458.536 219.354C459.244 220.014 459.598 220.89 459.598 221.982C459.598 222.954 459.322 223.758 458.77 224.394C458.23 225.018 457.438 225.402 456.394 225.546L459.706 231H458.734ZM452.722 224.934H455.422C456.538 224.934 457.372 224.664 457.924 224.124C458.476 223.584 458.752 222.87 458.752 221.982C458.752 220.05 457.63 219.084 455.386 219.084H452.722V224.934ZM461.461 234.348V234.258C462.661 233.01 463.579 231.528 464.215 229.812C464.851 228.096 465.169 226.266 465.169 224.322C465.169 222.366 464.845 220.518 464.197 218.778C463.549 217.026 462.607 215.526 461.371 214.278V214.188H462.235C463.375 215.316 464.281 216.762 464.953 218.526C465.625 220.29 465.961 222.222 465.961 224.322C465.961 226.41 465.631 228.324 464.971 230.064C464.311 231.792 463.429 233.22 462.325 234.348H461.461Z" fill="#264154"/>
<path d="M166.294 368.574L163.09 365.838C162.454 366.042 161.794 366.144 161.11 366.144C159.946 366.144 158.896 365.874 157.96 365.334C157.024 364.782 156.292 364.014 155.764 363.03C155.236 362.046 154.972 360.936 154.972 359.7C154.972 358.452 155.236 357.342 155.764 356.37C156.292 355.386 157.024 354.624 157.96 354.084C158.896 353.532 159.946 353.256 161.11 353.256C162.274 353.256 163.324 353.532 164.26 354.084C165.196 354.624 165.928 355.386 166.456 356.37C166.984 357.342 167.248 358.452 167.248 359.7C167.248 361.032 166.942 362.208 166.33 363.228C165.73 364.248 164.914 365.016 163.882 365.532L167.446 368.574H166.294ZM155.8 359.7C155.8 360.852 156.034 361.86 156.502 362.724C156.97 363.588 157.606 364.254 158.41 364.722C159.214 365.19 160.114 365.424 161.11 365.424C162.106 365.424 163.006 365.19 163.81 364.722C164.614 364.254 165.244 363.588 165.7 362.724C166.168 361.86 166.402 360.852 166.402 359.7C166.402 358.536 166.168 357.522 165.7 356.658C165.244 355.794 164.614 355.128 163.81 354.66C163.006 354.192 162.106 353.958 161.11 353.958C160.114 353.958 159.214 354.192 158.41 354.66C157.606 355.128 156.97 355.794 156.502 356.658C156.034 357.522 155.8 358.536 155.8 359.7ZM177.976 356.226V366H177.166V363.876C176.89 364.62 176.428 365.19 175.78 365.586C175.144 365.97 174.412 366.162 173.584 366.162C172.42 366.162 171.466 365.808 170.722 365.1C169.99 364.38 169.624 363.318 169.624 361.914V356.226H170.416V361.86C170.416 363.024 170.71 363.918 171.298 364.542C171.886 365.154 172.684 365.46 173.692 365.46C174.748 365.46 175.588 365.124 176.212 364.452C176.848 363.78 177.166 362.784 177.166 361.464V356.226H177.976ZM180.425 361.104C180.425 360.096 180.623 359.214 181.019 358.458C181.427 357.702 181.985 357.12 182.693 356.712C183.413 356.304 184.229 356.1 185.141 356.1C186.173 356.1 187.049 356.352 187.769 356.856C188.489 357.36 188.993 358.002 189.281 358.782V356.226H190.091V366H189.281V363.426C188.993 364.218 188.483 364.872 187.751 365.388C187.031 365.892 186.161 366.144 185.141 366.144C184.229 366.144 183.413 365.94 182.693 365.532C181.985 365.112 181.427 364.524 181.019 363.768C180.623 363 180.425 362.112 180.425 361.104ZM189.281 361.104C189.281 360.252 189.101 359.502 188.741 358.854C188.393 358.194 187.913 357.69 187.301 357.342C186.689 356.982 186.005 356.802 185.249 356.802C184.457 356.802 183.761 356.976 183.161 357.324C182.561 357.66 182.093 358.152 181.757 358.8C181.421 359.448 181.253 360.216 181.253 361.104C181.253 361.992 181.421 362.76 181.757 363.408C182.093 364.056 182.561 364.554 183.161 364.902C183.773 365.25 184.469 365.424 185.249 365.424C186.005 365.424 186.689 365.25 187.301 364.902C187.925 364.542 188.411 364.038 188.759 363.39C189.107 362.73 189.281 361.968 189.281 361.104ZM197.45 356.028C198.614 356.028 199.562 356.388 200.294 357.108C201.026 357.816 201.392 358.872 201.392 360.276V366H200.6V360.33C200.6 359.166 200.306 358.278 199.718 357.666C199.13 357.042 198.332 356.73 197.324 356.73C196.268 356.73 195.422 357.066 194.786 357.738C194.162 358.41 193.85 359.406 193.85 360.726V366H193.04V356.226H193.85V358.296C194.126 357.564 194.582 357.006 195.218 356.622C195.866 356.226 196.61 356.028 197.45 356.028ZM205.461 356.928V363.39C205.461 364.11 205.593 364.608 205.857 364.884C206.121 365.148 206.589 365.28 207.261 365.28H208.359V366H207.135C206.283 366 205.653 365.802 205.245 365.406C204.849 364.998 204.651 364.326 204.651 363.39V356.928H203.175V356.226H204.651V353.742H205.461V356.226H208.359V356.928H205.461ZM210.91 354.048C210.718 354.048 210.556 353.988 210.424 353.868C210.292 353.736 210.226 353.562 210.226 353.346C210.226 353.142 210.292 352.974 210.424 352.842C210.556 352.71 210.718 352.644 210.91 352.644C211.102 352.644 211.264 352.71 211.396 352.842C211.528 352.974 211.594 353.142 211.594 353.346C211.594 353.562 211.528 353.736 211.396 353.868C211.264 353.988 211.102 354.048 210.91 354.048ZM211.306 356.226V366H210.496V356.226H211.306ZM215.481 356.928V363.39C215.481 364.11 215.613 364.608 215.877 364.884C216.141 365.148 216.609 365.28 217.281 365.28H218.379V366H217.155C216.303 366 215.673 365.802 215.265 365.406C214.869 364.998 214.671 364.326 214.671 363.39V356.928H213.195V356.226H214.671V353.742H215.481V356.226H218.379V356.928H215.481ZM228.147 356.226L222.459 370.59H221.631L223.449 366L219.345 356.226H220.227L223.899 365.1L227.319 356.226H228.147Z" fill="#264154"/>
<path d="M454.169 354.174H447.581V358.782C447.881 358.362 448.319 358.02 448.895 357.756C449.471 357.48 450.095 357.342 450.767 357.342C451.751 357.342 452.555 357.546 453.179 357.954C453.803 358.35 454.253 358.872 454.529 359.52C454.805 360.156 454.943 360.84 454.943 361.572C454.943 362.412 454.781 363.174 454.457 363.858C454.145 364.53 453.659 365.064 452.999 365.46C452.351 365.856 451.541 366.054 450.569 366.054C449.333 366.054 448.331 365.736 447.563 365.1C446.795 364.452 446.327 363.582 446.159 362.49H447.401C447.557 363.282 447.917 363.894 448.481 364.326C449.045 364.758 449.741 364.974 450.569 364.974C451.613 364.974 452.399 364.668 452.927 364.056C453.467 363.432 453.737 362.61 453.737 361.59C453.737 360.594 453.467 359.82 452.927 359.268C452.387 358.704 451.613 358.422 450.605 358.422C449.909 358.422 449.297 358.584 448.769 358.908C448.241 359.232 447.851 359.67 447.599 360.222H446.411V353.076H454.169V354.174ZM457.143 359.43C457.143 357.366 457.461 355.764 458.097 354.624C458.733 353.484 459.873 352.914 461.517 352.914C463.161 352.914 464.301 353.484 464.937 354.624C465.573 355.764 465.891 357.366 465.891 359.43C465.891 361.53 465.573 363.156 464.937 364.308C464.301 365.46 463.161 366.036 461.517 366.036C459.861 366.036 458.715 365.46 458.079 364.308C457.455 363.156 457.143 361.53 457.143 359.43ZM464.649 359.43C464.649 358.314 464.571 357.372 464.415 356.604C464.259 355.836 463.953 355.218 463.497 354.75C463.041 354.282 462.381 354.048 461.517 354.048C460.653 354.048 459.993 354.282 459.537 354.75C459.081 355.218 458.775 355.836 458.619 356.604C458.463 357.372 458.385 358.314 458.385 359.43C458.385 360.582 458.463 361.548 458.619 362.328C458.775 363.096 459.081 363.714 459.537 364.182C459.993 364.65 460.653 364.884 461.517 364.884C462.381 364.884 463.041 364.65 463.497 364.182C463.953 363.714 464.259 363.096 464.415 362.328C464.571 361.548 464.649 360.582 464.649 359.43ZM474.65 353.418V361.338C474.65 362.586 474.944 363.51 475.532 364.11C476.132 364.71 476.948 365.01 477.98 365.01C479.012 365.01 479.816 364.716 480.392 364.128C480.98 363.528 481.274 362.598 481.274 361.338V353.418H482.534V361.32C482.534 362.916 482.108 364.116 481.256 364.92C480.416 365.724 479.318 366.126 477.962 366.126C476.606 366.126 475.502 365.724 474.65 364.92C473.81 364.116 473.39 362.916 473.39 361.32V353.418H474.65ZM489.952 355.992C491.128 355.992 492.088 356.358 492.832 357.09C493.576 357.81 493.948 358.86 493.948 360.24V366H492.706V360.384C492.706 359.316 492.436 358.5 491.896 357.936C491.368 357.372 490.642 357.09 489.718 357.09C488.77 357.09 488.014 357.39 487.45 357.99C486.886 358.59 486.604 359.472 486.604 360.636V366H485.344V356.172H486.604V357.846C486.916 357.246 487.366 356.79 487.954 356.478C488.542 356.154 489.208 355.992 489.952 355.992ZM497.365 354.318C497.113 354.318 496.897 354.228 496.717 354.048C496.537 353.868 496.447 353.646 496.447 353.382C496.447 353.118 496.537 352.902 496.717 352.734C496.897 352.554 497.113 352.464 497.365 352.464C497.617 352.464 497.833 352.554 498.013 352.734C498.193 352.902 498.283 353.118 498.283 353.382C498.283 353.646 498.193 353.868 498.013 354.048C497.833 354.228 497.617 354.318 497.365 354.318ZM497.995 356.172V366H496.735V356.172H497.995ZM502.486 357.234V363.336C502.486 363.936 502.6 364.35 502.828 364.578C503.056 364.806 503.458 364.92 504.034 364.92H505.186V366H503.836C502.948 366 502.288 365.796 501.856 365.388C501.424 364.968 501.208 364.284 501.208 363.336V357.234H499.84V356.172H501.208V353.706H502.486V356.172H505.186V357.234H502.486ZM510.648 366.144C509.52 366.144 508.596 365.886 507.876 365.37C507.168 364.842 506.772 364.128 506.688 363.228H507.984C508.044 363.78 508.302 364.23 508.758 364.578C509.226 364.914 509.85 365.082 510.63 365.082C511.314 365.082 511.848 364.92 512.232 364.596C512.628 364.272 512.826 363.87 512.826 363.39C512.826 363.054 512.718 362.778 512.502 362.562C512.286 362.346 512.01 362.178 511.674 362.058C511.35 361.926 510.906 361.788 510.342 361.644C509.61 361.452 509.016 361.26 508.56 361.068C508.104 360.876 507.714 360.594 507.39 360.222C507.078 359.838 506.922 359.328 506.922 358.692C506.922 358.212 507.066 357.768 507.354 357.36C507.642 356.952 508.05 356.628 508.578 356.388C509.106 356.148 509.706 356.028 510.378 356.028C511.434 356.028 512.286 356.298 512.934 356.838C513.582 357.366 513.93 358.098 513.978 359.034H512.718C512.682 358.458 512.454 357.996 512.034 357.648C511.626 357.288 511.062 357.108 510.342 357.108C509.706 357.108 509.19 357.258 508.794 357.558C508.398 357.858 508.2 358.23 508.2 358.674C508.2 359.058 508.314 359.376 508.542 359.628C508.782 359.868 509.076 360.06 509.424 360.204C509.772 360.336 510.24 360.486 510.828 360.654C511.536 360.846 512.1 361.032 512.52 361.212C512.94 361.392 513.3 361.656 513.6 362.004C513.9 362.352 514.056 362.814 514.068 363.39C514.068 363.918 513.924 364.392 513.636 364.812C513.348 365.22 512.946 365.544 512.43 365.784C511.914 366.024 511.32 366.144 510.648 366.144Z" fill="#002036"/>
<path d="M163.126 410.928C163.126 412.044 162.778 412.914 162.082 413.538C161.386 414.15 160.354 414.456 158.986 414.456H156.286V420H155.476V407.364H158.986C160.378 407.364 161.416 407.688 162.1 408.336C162.784 408.972 163.126 409.836 163.126 410.928ZM158.986 413.736C161.206 413.736 162.316 412.8 162.316 410.928C162.316 410.004 162.052 409.302 161.524 408.822C160.996 408.33 160.15 408.084 158.986 408.084H156.286V413.736H158.986ZM173.564 410.226V420H172.754V417.876C172.478 418.62 172.016 419.19 171.368 419.586C170.732 419.97 170 420.162 169.172 420.162C168.008 420.162 167.054 419.808 166.31 419.1C165.578 418.38 165.212 417.318 165.212 415.914V410.226H166.004V415.86C166.004 417.024 166.298 417.918 166.886 418.542C167.474 419.154 168.272 419.46 169.28 419.46C170.336 419.46 171.176 419.124 171.8 418.452C172.436 417.78 172.754 416.784 172.754 415.464V410.226H173.564ZM177.327 412.242C177.567 411.522 177.993 410.976 178.605 410.604C179.217 410.22 179.997 410.028 180.945 410.028V410.874H180.675C179.715 410.874 178.917 411.15 178.281 411.702C177.645 412.242 177.327 413.13 177.327 414.366V420H176.517V410.226H177.327V412.242ZM182.306 415.104C182.306 414.084 182.504 413.196 182.9 412.44C183.308 411.684 183.866 411.108 184.574 410.712C185.294 410.304 186.116 410.1 187.04 410.1C188.264 410.1 189.266 410.406 190.046 411.018C190.838 411.63 191.33 412.452 191.522 413.484H190.676C190.52 412.644 190.112 411.984 189.452 411.504C188.804 411.024 188 410.784 187.04 410.784C186.32 410.784 185.666 410.946 185.078 411.27C184.49 411.582 184.016 412.068 183.656 412.728C183.308 413.376 183.134 414.168 183.134 415.104C183.134 416.052 183.308 416.85 183.656 417.498C184.016 418.146 184.49 418.632 185.078 418.956C185.666 419.28 186.32 419.442 187.04 419.442C188 419.442 188.804 419.202 189.452 418.722C190.112 418.242 190.52 417.582 190.676 416.742H191.522C191.33 417.762 190.838 418.584 190.046 419.208C189.254 419.832 188.252 420.144 187.04 420.144C186.116 420.144 185.294 419.94 184.574 419.532C183.866 419.124 183.308 418.542 182.9 417.786C182.504 417.018 182.306 416.124 182.306 415.104ZM198.418 410.028C199.57 410.028 200.512 410.388 201.244 411.108C201.976 411.816 202.342 412.872 202.342 414.276V420H201.55V414.33C201.55 413.166 201.256 412.278 200.668 411.666C200.08 411.042 199.282 410.73 198.274 410.73C197.218 410.73 196.372 411.066 195.736 411.738C195.112 412.41 194.8 413.406 194.8 414.726V420H193.99V406.68H194.8V412.296C195.076 411.564 195.538 411.006 196.186 410.622C196.834 410.226 197.578 410.028 198.418 410.028ZM204.701 415.104C204.701 414.096 204.899 413.214 205.295 412.458C205.703 411.702 206.261 411.12 206.969 410.712C207.689 410.304 208.505 410.1 209.417 410.1C210.449 410.1 211.325 410.352 212.045 410.856C212.765 411.36 213.269 412.002 213.557 412.782V410.226H214.367V420H213.557V417.426C213.269 418.218 212.759 418.872 212.027 419.388C211.307 419.892 210.437 420.144 209.417 420.144C208.505 420.144 207.689 419.94 206.969 419.532C206.261 419.112 205.703 418.524 205.295 417.768C204.899 417 204.701 416.112 204.701 415.104ZM213.557 415.104C213.557 414.252 213.377 413.502 213.017 412.854C212.669 412.194 212.189 411.69 211.577 411.342C210.965 410.982 210.281 410.802 209.525 410.802C208.733 410.802 208.037 410.976 207.437 411.324C206.837 411.66 206.369 412.152 206.033 412.8C205.697 413.448 205.529 414.216 205.529 415.104C205.529 415.992 205.697 416.76 206.033 417.408C206.369 418.056 206.837 418.554 207.437 418.902C208.049 419.25 208.745 419.424 209.525 419.424C210.281 419.424 210.965 419.25 211.577 418.902C212.201 418.542 212.687 418.038 213.035 417.39C213.383 416.73 213.557 415.968 213.557 415.104ZM220.574 420.144C219.482 420.144 218.588 419.904 217.892 419.424C217.208 418.944 216.824 418.26 216.74 417.372H217.568C217.628 418.008 217.916 418.512 218.432 418.884C218.96 419.256 219.674 419.442 220.574 419.442C221.318 419.442 221.906 419.256 222.338 418.884C222.782 418.5 223.004 418.032 223.004 417.48C223.004 417.096 222.884 416.784 222.644 416.544C222.416 416.292 222.128 416.1 221.78 415.968C221.432 415.836 220.958 415.692 220.358 415.536C219.638 415.344 219.056 415.158 218.612 414.978C218.168 414.786 217.79 414.504 217.478 414.132C217.166 413.76 217.01 413.262 217.01 412.638C217.01 412.182 217.148 411.762 217.424 411.378C217.7 410.982 218.084 410.67 218.576 410.442C219.068 410.214 219.626 410.1 220.25 410.1C221.27 410.1 222.092 410.358 222.716 410.874C223.352 411.378 223.694 412.08 223.742 412.98H222.932C222.896 412.332 222.644 411.804 222.176 411.396C221.708 410.988 221.06 410.784 220.232 410.784C219.536 410.784 218.96 410.964 218.504 411.324C218.048 411.684 217.82 412.122 217.82 412.638C217.82 413.094 217.946 413.466 218.198 413.754C218.462 414.03 218.78 414.246 219.152 414.402C219.536 414.546 220.04 414.702 220.664 414.87C221.348 415.05 221.894 415.23 222.302 415.41C222.722 415.578 223.076 415.83 223.364 416.166C223.652 416.49 223.796 416.928 223.796 417.48C223.796 417.984 223.658 418.44 223.382 418.848C223.106 419.256 222.722 419.574 222.23 419.802C221.738 420.03 221.186 420.144 220.574 420.144ZM235.065 414.456C235.065 414.888 235.053 415.212 235.029 415.428H226.587C226.611 416.304 226.803 417.042 227.163 417.642C227.523 418.242 227.997 418.692 228.585 418.992C229.173 419.292 229.815 419.442 230.511 419.442C231.471 419.442 232.275 419.208 232.923 418.74C233.571 418.26 233.979 417.612 234.147 416.796H234.993C234.801 417.792 234.309 418.602 233.517 419.226C232.725 419.838 231.723 420.144 230.511 420.144C229.599 420.144 228.783 419.94 228.063 419.532C227.343 419.124 226.779 418.542 226.371 417.786C225.963 417.018 225.759 416.124 225.759 415.104C225.759 414.084 225.957 413.196 226.353 412.44C226.761 411.684 227.325 411.108 228.045 410.712C228.765 410.304 229.587 410.1 230.511 410.1C231.447 410.1 232.257 410.304 232.941 410.712C233.637 411.108 234.165 411.642 234.525 412.314C234.885 412.974 235.065 413.688 235.065 414.456ZM234.255 414.762C234.291 413.898 234.135 413.166 233.787 412.566C233.451 411.966 232.989 411.522 232.401 411.234C231.813 410.934 231.177 410.784 230.493 410.784C229.809 410.784 229.173 410.934 228.585 411.234C228.009 411.522 227.535 411.966 227.163 412.566C226.803 413.166 226.611 413.898 226.587 414.762H234.255ZM243.403 412.8C243.679 412.008 244.177 411.36 244.897 410.856C245.629 410.352 246.511 410.1 247.543 410.1C248.455 410.1 249.265 410.304 249.973 410.712C250.693 411.12 251.251 411.702 251.647 412.458C252.055 413.214 252.259 414.096 252.259 415.104C252.259 416.112 252.055 417 251.647 417.768C251.251 418.524 250.693 419.112 249.973 419.532C249.265 419.94 248.455 420.144 247.543 420.144C246.523 420.144 245.647 419.892 244.915 419.388C244.195 418.872 243.691 418.224 243.403 417.444V424.608H242.593V410.226H243.403V412.8ZM251.431 415.104C251.431 414.216 251.263 413.448 250.927 412.8C250.591 412.152 250.117 411.66 249.505 411.324C248.905 410.976 248.209 410.802 247.417 410.802C246.661 410.802 245.977 410.982 245.365 411.342C244.753 411.69 244.273 412.194 243.925 412.854C243.577 413.502 243.403 414.252 243.403 415.104C243.403 415.968 243.577 416.73 243.925 417.39C244.273 418.038 244.753 418.542 245.365 418.902C245.977 419.25 246.661 419.424 247.417 419.424C248.209 419.424 248.905 419.25 249.505 418.902C250.117 418.554 250.591 418.056 250.927 417.408C251.263 416.76 251.431 415.992 251.431 415.104ZM255.515 412.242C255.755 411.522 256.181 410.976 256.793 410.604C257.405 410.22 258.185 410.028 259.133 410.028V410.874H258.863C257.903 410.874 257.105 411.15 256.469 411.702C255.833 412.242 255.515 413.13 255.515 414.366V420H254.705V410.226H255.515V412.242ZM261.411 408.048C261.219 408.048 261.057 407.988 260.925 407.868C260.793 407.736 260.727 407.562 260.727 407.346C260.727 407.142 260.793 406.974 260.925 406.842C261.057 406.71 261.219 406.644 261.411 406.644C261.603 406.644 261.765 406.71 261.897 406.842C262.029 406.974 262.095 407.142 262.095 407.346C262.095 407.562 262.029 407.736 261.897 407.868C261.765 407.988 261.603 408.048 261.411 408.048ZM261.807 410.226V420H260.997V410.226H261.807ZM264.273 415.104C264.273 414.084 264.471 413.196 264.867 412.44C265.275 411.684 265.833 411.108 266.541 410.712C267.261 410.304 268.083 410.1 269.007 410.1C270.231 410.1 271.233 410.406 272.013 411.018C272.805 411.63 273.297 412.452 273.489 413.484H272.643C272.487 412.644 272.079 411.984 271.419 411.504C270.771 411.024 269.967 410.784 269.007 410.784C268.287 410.784 267.633 410.946 267.045 411.27C266.457 411.582 265.983 412.068 265.623 412.728C265.275 413.376 265.101 414.168 265.101 415.104C265.101 416.052 265.275 416.85 265.623 417.498C265.983 418.146 266.457 418.632 267.045 418.956C267.633 419.28 268.287 419.442 269.007 419.442C269.967 419.442 270.771 419.202 271.419 418.722C272.079 418.242 272.487 417.582 272.643 416.742H273.489C273.297 417.762 272.805 418.584 272.013 419.208C271.221 419.832 270.219 420.144 269.007 420.144C268.083 420.144 267.261 419.94 266.541 419.532C265.833 419.124 265.275 418.542 264.867 417.786C264.471 417.018 264.273 416.124 264.273 415.104ZM284.758 414.456C284.758 414.888 284.746 415.212 284.722 415.428H276.28C276.304 416.304 276.496 417.042 276.856 417.642C277.216 418.242 277.69 418.692 278.278 418.992C278.866 419.292 279.508 419.442 280.204 419.442C281.164 419.442 281.968 419.208 282.616 418.74C283.264 418.26 283.672 417.612 283.84 416.796H284.686C284.494 417.792 284.002 418.602 283.21 419.226C282.418 419.838 281.416 420.144 280.204 420.144C279.292 420.144 278.476 419.94 277.756 419.532C277.036 419.124 276.472 418.542 276.064 417.786C275.656 417.018 275.452 416.124 275.452 415.104C275.452 414.084 275.65 413.196 276.046 412.44C276.454 411.684 277.018 411.108 277.738 410.712C278.458 410.304 279.28 410.1 280.204 410.1C281.14 410.1 281.95 410.304 282.634 410.712C283.33 411.108 283.858 411.642 284.218 412.314C284.578 412.974 284.758 413.688 284.758 414.456ZM283.948 414.762C283.984 413.898 283.828 413.166 283.48 412.566C283.144 411.966 282.682 411.522 282.094 411.234C281.506 410.934 280.87 410.784 280.186 410.784C279.502 410.784 278.866 410.934 278.278 411.234C277.702 411.522 277.228 411.966 276.856 412.566C276.496 413.166 276.304 413.898 276.28 414.762H283.948Z" fill="#264154"/>
<path d="M413.216 417.688C413.216 418.252 413.078 418.792 412.802 419.308C412.526 419.812 412.112 420.232 411.56 420.568C411.008 420.904 410.336 421.09 409.544 421.126V422.566H408.752V421.108C407.684 421.012 406.82 420.664 406.16 420.064C405.5 419.452 405.146 418.696 405.098 417.796H406.448C406.496 418.336 406.712 418.828 407.096 419.272C407.492 419.704 408.044 419.968 408.752 420.064V415.078C407.948 414.862 407.3 414.646 406.808 414.43C406.328 414.214 405.92 413.884 405.584 413.44C405.248 412.984 405.08 412.378 405.08 411.622C405.08 410.674 405.41 409.894 406.07 409.282C406.73 408.658 407.624 408.322 408.752 408.274V406.762H409.544V408.292C410.54 408.388 411.338 408.712 411.938 409.264C412.538 409.816 412.892 410.506 413 411.334H411.668C411.596 410.89 411.374 410.476 411.002 410.092C410.642 409.708 410.156 409.468 409.544 409.372V414.178C410.324 414.382 410.96 414.598 411.452 414.826C411.956 415.042 412.376 415.378 412.712 415.834C413.048 416.29 413.216 416.908 413.216 417.688ZM406.358 411.568C406.358 412.24 406.562 412.75 406.97 413.098C407.39 413.434 407.984 413.716 408.752 413.944V409.318C408.032 409.354 407.45 409.564 407.006 409.948C406.574 410.332 406.358 410.872 406.358 411.568ZM409.544 420.1C410.312 420.052 410.906 419.812 411.326 419.38C411.746 418.936 411.956 418.39 411.956 417.742C411.956 417.058 411.746 416.542 411.326 416.194C410.918 415.846 410.324 415.552 409.544 415.312V420.1ZM415.298 409.228V408.094H418.358V421H417.08V409.228H415.298ZM421.166 414.43C421.166 412.366 421.484 410.764 422.12 409.624C422.756 408.484 423.896 407.914 425.54 407.914C427.184 407.914 428.324 408.484 428.96 409.624C429.596 410.764 429.914 412.366 429.914 414.43C429.914 416.53 429.596 418.156 428.96 419.308C428.324 420.46 427.184 421.036 425.54 421.036C423.884 421.036 422.738 420.46 422.102 419.308C421.478 418.156 421.166 416.53 421.166 414.43ZM428.672 414.43C428.672 413.314 428.594 412.372 428.438 411.604C428.282 410.836 427.976 410.218 427.52 409.75C427.064 409.282 426.404 409.048 425.54 409.048C424.676 409.048 424.016 409.282 423.56 409.75C423.104 410.218 422.798 410.836 422.642 411.604C422.486 412.372 422.408 413.314 422.408 414.43C422.408 415.582 422.486 416.548 422.642 417.328C422.798 418.096 423.104 418.714 423.56 419.182C424.016 419.65 424.676 419.884 425.54 419.884C426.404 419.884 427.064 419.65 427.52 419.182C427.976 418.714 428.282 418.096 428.438 417.328C428.594 416.548 428.672 415.582 428.672 414.43ZM432.258 414.43C432.258 412.366 432.576 410.764 433.212 409.624C433.848 408.484 434.988 407.914 436.632 407.914C438.276 407.914 439.416 408.484 440.052 409.624C440.688 410.764 441.006 412.366 441.006 414.43C441.006 416.53 440.688 418.156 440.052 419.308C439.416 420.46 438.276 421.036 436.632 421.036C434.976 421.036 433.83 420.46 433.194 419.308C432.57 418.156 432.258 416.53 432.258 414.43ZM439.764 414.43C439.764 413.314 439.686 412.372 439.53 411.604C439.374 410.836 439.068 410.218 438.612 409.75C438.156 409.282 437.496 409.048 436.632 409.048C435.768 409.048 435.108 409.282 434.652 409.75C434.196 410.218 433.89 410.836 433.734 411.604C433.578 412.372 433.5 413.314 433.5 414.43C433.5 415.582 433.578 416.548 433.734 417.328C433.89 418.096 434.196 418.714 434.652 419.182C435.108 419.65 435.768 419.884 436.632 419.884C437.496 419.884 438.156 419.65 438.612 419.182C439.068 418.714 439.374 418.096 439.53 417.328C439.686 416.548 439.764 415.582 439.764 414.43ZM449.801 413.332C450.113 412.672 450.605 412.126 451.277 411.694C451.961 411.25 452.771 411.028 453.707 411.028C454.595 411.028 455.393 411.238 456.101 411.658C456.821 412.066 457.379 412.654 457.775 413.422C458.183 414.178 458.387 415.06 458.387 416.068C458.387 417.076 458.183 417.964 457.775 418.732C457.379 419.5 456.821 420.094 456.101 420.514C455.393 420.934 454.595 421.144 453.707 421.144C452.783 421.144 451.979 420.928 451.295 420.496C450.611 420.052 450.113 419.5 449.801 418.84V425.644H448.559V411.172H449.801V413.332ZM457.109 416.068C457.109 415.252 456.947 414.55 456.623 413.962C456.311 413.362 455.879 412.906 455.327 412.594C454.775 412.282 454.151 412.126 453.455 412.126C452.783 412.126 452.165 412.288 451.601 412.612C451.049 412.936 450.611 413.398 450.287 413.998C449.963 414.598 449.801 415.294 449.801 416.086C449.801 416.878 449.963 417.574 450.287 418.174C450.611 418.774 451.049 419.236 451.601 419.56C452.165 419.884 452.783 420.046 453.455 420.046C454.151 420.046 454.775 419.89 455.327 419.578C455.879 419.254 456.311 418.792 456.623 418.192C456.947 417.58 457.109 416.872 457.109 416.068ZM469.598 415.582C469.598 416.014 469.586 416.344 469.562 416.572H461.408C461.444 417.316 461.624 417.952 461.948 418.48C462.272 419.008 462.698 419.41 463.226 419.686C463.754 419.95 464.33 420.082 464.954 420.082C465.77 420.082 466.454 419.884 467.006 419.488C467.57 419.092 467.942 418.558 468.122 417.886H469.454C469.214 418.846 468.698 419.632 467.906 420.244C467.126 420.844 466.142 421.144 464.954 421.144C464.03 421.144 463.202 420.94 462.47 420.532C461.738 420.112 461.162 419.524 460.742 418.768C460.334 418 460.13 417.106 460.13 416.086C460.13 415.066 460.334 414.172 460.742 413.404C461.15 412.636 461.72 412.048 462.452 411.64C463.184 411.232 464.018 411.028 464.954 411.028C465.89 411.028 466.706 411.232 467.402 411.64C468.11 412.048 468.65 412.6 469.022 413.296C469.406 413.98 469.598 414.742 469.598 415.582ZM468.32 415.546C468.332 414.814 468.182 414.19 467.87 413.674C467.57 413.158 467.156 412.768 466.628 412.504C466.1 412.24 465.524 412.108 464.9 412.108C463.964 412.108 463.166 412.408 462.506 413.008C461.846 413.608 461.48 414.454 461.408 415.546H468.32ZM473.163 412.918C473.439 412.306 473.859 411.832 474.423 411.496C474.999 411.16 475.701 410.992 476.529 410.992V412.306H476.187C475.275 412.306 474.543 412.552 473.991 413.044C473.439 413.536 473.163 414.358 473.163 415.51V421H471.903V411.172H473.163V412.918ZM491.878 411.172V421H490.618V419.272C490.33 419.884 489.886 420.352 489.286 420.676C488.686 421 488.014 421.162 487.27 421.162C486.094 421.162 485.134 420.802 484.39 420.082C483.646 419.35 483.274 418.294 483.274 416.914V411.172H484.516V416.77C484.516 417.838 484.78 418.654 485.308 419.218C485.848 419.782 486.58 420.064 487.504 420.064C488.452 420.064 489.208 419.764 489.772 419.164C490.336 418.564 490.618 417.682 490.618 416.518V411.172H491.878ZM499.362 410.992C500.538 410.992 501.498 411.358 502.242 412.09C502.986 412.81 503.358 413.86 503.358 415.24V421H502.116V415.384C502.116 414.316 501.846 413.5 501.306 412.936C500.778 412.372 500.052 412.09 499.128 412.09C498.18 412.09 497.424 412.39 496.86 412.99C496.296 413.59 496.014 414.472 496.014 415.636V421H494.754V411.172H496.014V412.846C496.326 412.246 496.776 411.79 497.364 411.478C497.952 411.154 498.618 410.992 499.362 410.992ZM506.775 409.318C506.523 409.318 506.307 409.228 506.127 409.048C505.947 408.868 505.857 408.646 505.857 408.382C505.857 408.118 505.947 407.902 506.127 407.734C506.307 407.554 506.523 407.464 506.775 407.464C507.027 407.464 507.243 407.554 507.423 407.734C507.603 407.902 507.693 408.118 507.693 408.382C507.693 408.646 507.603 408.868 507.423 409.048C507.243 409.228 507.027 409.318 506.775 409.318ZM507.405 411.172V421H506.145V411.172H507.405ZM511.896 412.234V418.336C511.896 418.936 512.01 419.35 512.238 419.578C512.466 419.806 512.868 419.92 513.444 419.92H514.596V421H513.246C512.358 421 511.698 420.796 511.266 420.388C510.834 419.968 510.618 419.284 510.618 418.336V412.234H509.25V411.172H510.618V408.706H511.896V411.172H514.596V412.234H511.896Z" fill="#002036"/>
<path d="M162.46 467.364V468.048H158.86V480H158.05V468.048H154.45V467.364H162.46ZM168.69 480.144C167.778 480.144 166.956 479.94 166.224 479.532C165.492 479.124 164.916 478.542 164.496 477.786C164.088 477.018 163.884 476.124 163.884 475.104C163.884 474.096 164.094 473.214 164.514 472.458C164.934 471.69 165.51 471.108 166.242 470.712C166.986 470.304 167.814 470.1 168.726 470.1C169.638 470.1 170.46 470.304 171.192 470.712C171.924 471.108 172.494 471.684 172.902 472.44C173.322 473.196 173.532 474.084 173.532 475.104C173.532 476.124 173.322 477.018 172.902 477.786C172.482 478.542 171.9 479.124 171.156 479.532C170.424 479.94 169.602 480.144 168.69 480.144ZM168.69 479.424C169.398 479.424 170.058 479.268 170.67 478.956C171.294 478.632 171.792 478.146 172.164 477.498C172.536 476.85 172.722 476.052 172.722 475.104C172.722 474.168 172.536 473.376 172.164 472.728C171.792 472.08 171.3 471.6 170.688 471.288C170.076 470.964 169.416 470.802 168.708 470.802C168 470.802 167.34 470.964 166.728 471.288C166.128 471.6 165.642 472.08 165.27 472.728C164.898 473.376 164.712 474.168 164.712 475.104C164.712 476.052 164.892 476.85 165.252 477.498C165.624 478.146 166.11 478.632 166.71 478.956C167.322 479.268 167.982 479.424 168.69 479.424ZM177.196 470.928V477.39C177.196 478.11 177.328 478.608 177.592 478.884C177.856 479.148 178.324 479.28 178.996 479.28H180.094V480H178.87C178.018 480 177.388 479.802 176.98 479.406C176.584 478.998 176.386 478.326 176.386 477.39V470.928H174.91V470.226H176.386V467.742H177.196V470.226H180.094V470.928H177.196ZM181.726 475.104C181.726 474.096 181.924 473.214 182.32 472.458C182.728 471.702 183.286 471.12 183.994 470.712C184.714 470.304 185.53 470.1 186.442 470.1C187.474 470.1 188.35 470.352 189.07 470.856C189.79 471.36 190.294 472.002 190.582 472.782V470.226H191.392V480H190.582V477.426C190.294 478.218 189.784 478.872 189.052 479.388C188.332 479.892 187.462 480.144 186.442 480.144C185.53 480.144 184.714 479.94 183.994 479.532C183.286 479.112 182.728 478.524 182.32 477.768C181.924 477 181.726 476.112 181.726 475.104ZM190.582 475.104C190.582 474.252 190.402 473.502 190.042 472.854C189.694 472.194 189.214 471.69 188.602 471.342C187.99 470.982 187.306 470.802 186.55 470.802C185.758 470.802 185.062 470.976 184.462 471.324C183.862 471.66 183.394 472.152 183.058 472.8C182.722 473.448 182.554 474.216 182.554 475.104C182.554 475.992 182.722 476.76 183.058 477.408C183.394 478.056 183.862 478.554 184.462 478.902C185.074 479.25 185.77 479.424 186.55 479.424C187.306 479.424 187.99 479.25 188.602 478.902C189.226 478.542 189.712 478.038 190.06 477.39C190.408 476.73 190.582 475.968 190.582 475.104ZM195.151 466.68V480H194.341V466.68H195.151ZM204.011 472.8C204.287 472.008 204.785 471.36 205.505 470.856C206.237 470.352 207.119 470.1 208.151 470.1C209.063 470.1 209.873 470.304 210.581 470.712C211.301 471.12 211.859 471.702 212.255 472.458C212.663 473.214 212.867 474.096 212.867 475.104C212.867 476.112 212.663 477 212.255 477.768C211.859 478.524 211.301 479.112 210.581 479.532C209.873 479.94 209.063 480.144 208.151 480.144C207.131 480.144 206.255 479.892 205.523 479.388C204.803 478.872 204.299 478.224 204.011 477.444V484.608H203.201V470.226H204.011V472.8ZM212.039 475.104C212.039 474.216 211.871 473.448 211.535 472.8C211.199 472.152 210.725 471.66 210.113 471.324C209.513 470.976 208.817 470.802 208.025 470.802C207.269 470.802 206.585 470.982 205.973 471.342C205.361 471.69 204.881 472.194 204.533 472.854C204.185 473.502 204.011 474.252 204.011 475.104C204.011 475.968 204.185 476.73 204.533 477.39C204.881 478.038 205.361 478.542 205.973 478.902C206.585 479.25 207.269 479.424 208.025 479.424C208.817 479.424 209.513 479.25 210.113 478.902C210.725 478.554 211.199 478.056 211.535 477.408C211.871 476.76 212.039 475.992 212.039 475.104ZM216.122 472.242C216.362 471.522 216.788 470.976 217.4 470.604C218.012 470.22 218.792 470.028 219.74 470.028V470.874H219.47C218.51 470.874 217.712 471.15 217.076 471.702C216.44 472.242 216.122 473.13 216.122 474.366V480H215.312V470.226H216.122V472.242ZM222.019 468.048C221.827 468.048 221.665 467.988 221.533 467.868C221.401 467.736 221.335 467.562 221.335 467.346C221.335 467.142 221.401 466.974 221.533 466.842C221.665 466.71 221.827 466.644 222.019 466.644C222.211 466.644 222.373 466.71 222.505 466.842C222.637 466.974 222.703 467.142 222.703 467.346C222.703 467.562 222.637 467.736 222.505 467.868C222.373 467.988 222.211 468.048 222.019 468.048ZM222.415 470.226V480H221.605V470.226H222.415ZM224.88 475.104C224.88 474.084 225.078 473.196 225.474 472.44C225.882 471.684 226.44 471.108 227.148 470.712C227.868 470.304 228.69 470.1 229.614 470.1C230.838 470.1 231.84 470.406 232.62 471.018C233.412 471.63 233.904 472.452 234.096 473.484H233.25C233.094 472.644 232.686 471.984 232.026 471.504C231.378 471.024 230.574 470.784 229.614 470.784C228.894 470.784 228.24 470.946 227.652 471.27C227.064 471.582 226.59 472.068 226.23 472.728C225.882 473.376 225.708 474.168 225.708 475.104C225.708 476.052 225.882 476.85 226.23 477.498C226.59 478.146 227.064 478.632 227.652 478.956C228.24 479.28 228.894 479.442 229.614 479.442C230.574 479.442 231.378 479.202 232.026 478.722C232.686 478.242 233.094 477.582 233.25 476.742H234.096C233.904 477.762 233.412 478.584 232.62 479.208C231.828 479.832 230.826 480.144 229.614 480.144C228.69 480.144 227.868 479.94 227.148 479.532C226.44 479.124 225.882 478.542 225.474 477.786C225.078 477.018 224.88 476.124 224.88 475.104ZM245.366 474.456C245.366 474.888 245.354 475.212 245.33 475.428H236.888C236.912 476.304 237.104 477.042 237.464 477.642C237.824 478.242 238.298 478.692 238.886 478.992C239.474 479.292 240.116 479.442 240.812 479.442C241.772 479.442 242.576 479.208 243.224 478.74C243.872 478.26 244.28 477.612 244.448 476.796H245.294C245.102 477.792 244.61 478.602 243.818 479.226C243.026 479.838 242.024 480.144 240.812 480.144C239.9 480.144 239.084 479.94 238.364 479.532C237.644 479.124 237.08 478.542 236.672 477.786C236.264 477.018 236.06 476.124 236.06 475.104C236.06 474.084 236.258 473.196 236.654 472.44C237.062 471.684 237.626 471.108 238.346 470.712C239.066 470.304 239.888 470.1 240.812 470.1C241.748 470.1 242.558 470.304 243.242 470.712C243.938 471.108 244.466 471.642 244.826 472.314C245.186 472.974 245.366 473.688 245.366 474.456ZM244.556 474.762C244.592 473.898 244.436 473.166 244.088 472.566C243.752 471.966 243.29 471.522 242.702 471.234C242.114 470.934 241.478 470.784 240.794 470.784C240.11 470.784 239.474 470.934 238.886 471.234C238.31 471.522 237.836 471.966 237.464 472.566C237.104 473.166 236.912 473.898 236.888 474.762H244.556Z" fill="#264154"/>
<path d="M438.792 476.436C438.792 477.036 438.642 477.6 438.342 478.128C438.054 478.656 437.622 479.1 437.046 479.46C436.482 479.82 435.81 480.036 435.03 480.108V481.566H433.86V480.108C432.732 480 431.82 479.646 431.124 479.046C430.428 478.446 430.08 477.654 430.08 476.67H432.276C432.312 477.138 432.462 477.528 432.726 477.84C432.99 478.14 433.368 478.332 433.86 478.416V474.456C433.056 474.252 432.402 474.048 431.898 473.844C431.394 473.628 430.962 473.292 430.602 472.836C430.254 472.38 430.08 471.756 430.08 470.964C430.08 469.968 430.428 469.146 431.124 468.498C431.82 467.838 432.732 467.454 433.86 467.346V465.888H435.03V467.346C436.086 467.442 436.932 467.778 437.568 468.354C438.216 468.918 438.582 469.698 438.666 470.694H436.47C436.434 470.322 436.29 469.992 436.038 469.704C435.786 469.404 435.45 469.2 435.03 469.092V472.98C435.834 473.172 436.488 473.376 436.992 473.592C437.496 473.796 437.922 474.126 438.27 474.582C438.618 475.026 438.792 475.644 438.792 476.436ZM432.168 470.856C432.168 471.348 432.312 471.732 432.6 472.008C432.9 472.284 433.32 472.506 433.86 472.674V469.038C433.344 469.098 432.93 469.284 432.618 469.596C432.318 469.908 432.168 470.328 432.168 470.856ZM435.03 478.416C435.558 478.332 435.972 478.122 436.272 477.786C436.572 477.438 436.722 477.024 436.722 476.544C436.722 476.064 436.572 475.692 436.272 475.428C435.984 475.152 435.57 474.93 435.03 474.762V478.416ZM450.247 468.642H444.217V472.224C444.469 471.888 444.841 471.606 445.333 471.378C445.837 471.15 446.371 471.036 446.935 471.036C447.943 471.036 448.759 471.252 449.383 471.684C450.019 472.116 450.469 472.662 450.733 473.322C451.009 473.982 451.147 474.678 451.147 475.41C451.147 476.298 450.973 477.09 450.625 477.786C450.289 478.47 449.779 479.01 449.095 479.406C448.423 479.802 447.595 480 446.611 480C445.303 480 444.253 479.676 443.461 479.028C442.669 478.38 442.195 477.522 442.039 476.454H444.037C444.169 477.018 444.463 477.468 444.919 477.804C445.375 478.128 445.945 478.29 446.629 478.29C447.481 478.29 448.117 478.032 448.537 477.516C448.969 477 449.185 476.316 449.185 475.464C449.185 474.6 448.969 473.94 448.537 473.484C448.105 473.016 447.469 472.782 446.629 472.782C446.041 472.782 445.543 472.932 445.135 473.232C444.739 473.52 444.451 473.916 444.271 474.42H442.327V466.842H450.247V468.642ZM453.283 473.268C453.283 471.192 453.631 469.572 454.327 468.408C455.035 467.232 456.247 466.644 457.963 466.644C459.679 466.644 460.885 467.232 461.581 468.408C462.289 469.572 462.643 471.192 462.643 473.268C462.643 475.368 462.289 477.012 461.581 478.2C460.885 479.376 459.679 479.964 457.963 479.964C456.247 479.964 455.035 479.376 454.327 478.2C453.631 477.012 453.283 475.368 453.283 473.268ZM460.627 473.268C460.627 472.296 460.561 471.474 460.429 470.802C460.309 470.13 460.057 469.584 459.673 469.164C459.289 468.732 458.719 468.516 457.963 468.516C457.207 468.516 456.637 468.732 456.253 469.164C455.869 469.584 455.611 470.13 455.479 470.802C455.359 471.474 455.299 472.296 455.299 473.268C455.299 474.276 455.359 475.122 455.479 475.806C455.599 476.49 455.851 477.042 456.235 477.462C456.631 477.882 457.207 478.092 457.963 478.092C458.719 478.092 459.289 477.882 459.673 477.462C460.069 477.042 460.327 476.49 460.447 475.806C460.567 475.122 460.627 474.276 460.627 473.268ZM464.814 473.268C464.814 471.192 465.162 469.572 465.858 468.408C466.566 467.232 467.778 466.644 469.494 466.644C471.21 466.644 472.416 467.232 473.112 468.408C473.82 469.572 474.174 471.192 474.174 473.268C474.174 475.368 473.82 477.012 473.112 478.2C472.416 479.376 471.21 479.964 469.494 479.964C467.778 479.964 466.566 479.376 465.858 478.2C465.162 477.012 464.814 475.368 464.814 473.268ZM472.158 473.268C472.158 472.296 472.092 471.474 471.96 470.802C471.84 470.13 471.588 469.584 471.204 469.164C470.82 468.732 470.25 468.516 469.494 468.516C468.738 468.516 468.168 468.732 467.784 469.164C467.4 469.584 467.142 470.13 467.01 470.802C466.89 471.474 466.83 472.296 466.83 473.268C466.83 474.276 466.89 475.122 467.01 475.806C467.13 476.49 467.382 477.042 467.766 477.462C468.162 477.882 468.738 478.092 469.494 478.092C470.25 478.092 470.82 477.882 471.204 477.462C471.6 477.042 471.858 476.49 471.978 475.806C472.098 475.122 472.158 474.276 472.158 473.268ZM476.346 473.268C476.346 471.192 476.694 469.572 477.39 468.408C478.098 467.232 479.31 466.644 481.026 466.644C482.742 466.644 483.948 467.232 484.644 468.408C485.352 469.572 485.706 471.192 485.706 473.268C485.706 475.368 485.352 477.012 484.644 478.2C483.948 479.376 482.742 479.964 481.026 479.964C479.31 479.964 478.098 479.376 477.39 478.2C476.694 477.012 476.346 475.368 476.346 473.268ZM483.69 473.268C483.69 472.296 483.624 471.474 483.492 470.802C483.372 470.13 483.12 469.584 482.736 469.164C482.352 468.732 481.782 468.516 481.026 468.516C480.27 468.516 479.7 468.732 479.316 469.164C478.932 469.584 478.674 470.13 478.542 470.802C478.422 471.474 478.362 472.296 478.362 473.268C478.362 474.276 478.422 475.122 478.542 475.806C478.662 476.49 478.914 477.042 479.298 477.462C479.694 477.882 480.27 478.092 481.026 478.092C481.782 478.092 482.352 477.882 482.736 477.462C483.132 477.042 483.39 476.49 483.51 475.806C483.63 475.122 483.69 474.276 483.69 473.268ZM488.975 480.126C488.603 480.126 488.291 480 488.039 479.748C487.787 479.496 487.661 479.184 487.661 478.812C487.661 478.44 487.787 478.128 488.039 477.876C488.291 477.624 488.603 477.498 488.975 477.498C489.335 477.498 489.641 477.624 489.893 477.876C490.145 478.128 490.271 478.44 490.271 478.812C490.271 479.184 490.145 479.496 489.893 479.748C489.641 480 489.335 480.126 488.975 480.126ZM492.219 473.268C492.219 471.192 492.567 469.572 493.263 468.408C493.971 467.232 495.183 466.644 496.899 466.644C498.615 466.644 499.821 467.232 500.517 468.408C501.225 469.572 501.579 471.192 501.579 473.268C501.579 475.368 501.225 477.012 500.517 478.2C499.821 479.376 498.615 479.964 496.899 479.964C495.183 479.964 493.971 479.376 493.263 478.2C492.567 477.012 492.219 475.368 492.219 473.268ZM499.563 473.268C499.563 472.296 499.497 471.474 499.365 470.802C499.245 470.13 498.993 469.584 498.609 469.164C498.225 468.732 497.655 468.516 496.899 468.516C496.143 468.516 495.573 468.732 495.189 469.164C494.805 469.584 494.547 470.13 494.415 470.802C494.295 471.474 494.235 472.296 494.235 473.268C494.235 474.276 494.295 475.122 494.415 475.806C494.535 476.49 494.787 477.042 495.171 477.462C495.567 477.882 496.143 478.092 496.899 478.092C497.655 478.092 498.225 477.882 498.609 477.462C499.005 477.042 499.263 476.49 499.383 475.806C499.503 475.122 499.563 474.276 499.563 473.268ZM503.75 473.268C503.75 471.192 504.098 469.572 504.794 468.408C505.502 467.232 506.714 466.644 508.43 466.644C510.146 466.644 511.352 467.232 512.048 468.408C512.756 469.572 513.11 471.192 513.11 473.268C513.11 475.368 512.756 477.012 512.048 478.2C511.352 479.376 510.146 479.964 508.43 479.964C506.714 479.964 505.502 479.376 504.794 478.2C504.098 477.012 503.75 475.368 503.75 473.268ZM511.094 473.268C511.094 472.296 511.028 471.474 510.896 470.802C510.776 470.13 510.524 469.584 510.14 469.164C509.756 468.732 509.186 468.516 508.43 468.516C507.674 468.516 507.104 468.732 506.72 469.164C506.336 469.584 506.078 470.13 505.946 470.802C505.826 471.474 505.766 472.296 505.766 473.268C505.766 474.276 505.826 475.122 505.946 475.806C506.066 476.49 506.318 477.042 506.702 477.462C507.098 477.882 507.674 478.092 508.43 478.092C509.186 478.092 509.756 477.882 510.14 477.462C510.536 477.042 510.794 476.49 510.914 475.806C511.034 475.122 511.094 474.276 511.094 473.268Z" fill="#002036"/>
<g filter="url(#filter0_d_6432_10983)">
<path d="M314 62.5L328 74L343.5 50.5L358.5 66L343.5 92L322 98.5L303 76L314 62.5Z" fill="#FCFDFD"/>
<path d="M328.505 39.0415C319.31 40.0282 310.978 44.4272 305.113 51.4162C300.988 56.3223 298.425 61.8861 297.288 68.4092C297.027 69.9029 297 70.6292 297 74.0278C297 77.4264 297.027 78.1527 297.288 79.6465C298.576 87.0466 301.673 93.1723 306.785 98.4758C312.033 103.93 318.652 107.383 326.381 108.74C327.875 109 328.601 109.028 332 109.028C336.289 109.028 337.578 108.891 340.949 108.027C353.036 104.903 362.875 95.0635 366 82.9765C366.863 79.6054 367 78.3172 367 74.0278C367 69.7385 366.863 68.4503 366 65.0791C362.875 53.0059 353.036 43.1527 340.949 40.0282C337.838 39.2334 336.372 39.0552 332.548 39.0141C330.63 38.9867 328.807 39.0004 328.505 39.0415ZM350.802 60.269C351.72 60.735 352.638 61.6805 353.077 62.6261C353.392 63.2839 353.447 63.5991 353.447 64.5721C353.433 66.7236 354.269 65.7506 341.127 78.9339C331.849 88.2252 329.328 90.6919 328.766 90.966C327.423 91.6238 325.833 91.6375 324.477 91.0071C324.011 90.7878 322.27 89.1296 317.638 84.5251C312.253 79.1668 311.375 78.235 311.005 77.4949C309.978 75.4119 310.581 72.9589 312.472 71.5337C313.801 70.5333 315.528 70.2866 317.131 70.8759C317.899 71.1637 318.241 71.4789 322.202 75.4119C324.545 77.7416 326.518 79.6465 326.587 79.6465C326.655 79.6465 331.041 75.3434 336.317 70.0674C343.813 62.585 346.047 60.4335 346.567 60.1868C347.856 59.5838 349.514 59.6112 350.802 60.269Z" fill="#0D6EFD"/>
</g>
<defs>
<filter id="filter0_d_6432_10983" x="262" y="3.99976" width="140" height="140.028" filterUnits="userSpaceOnUse" color-interpolation-filters="sRGB">
<feFlood flood-opacity="0" result="BackgroundImageFix"/>
<feColorMatrix in="SourceAlpha" type="matrix" values="0 0 0 0 0 0 0 0 0 0 0 0 0 0 0 0 0 0 127 0" result="hardAlpha"/>
<feOffset/>
<feGaussianBlur stdDeviation="17.5"/>
<feComposite in2="hardAlpha" operator="out"/>
<feColorMatrix type="matrix" values="0 0 0 0 0.0509804 0 0 0 0 0.431373 0 0 0 0 0.992157 0 0 0 0.5 0"/>
<feBlend mode="normal" in2="BackgroundImageFix" result="effect1_dropShadow_6432_10983"/>
<feBlend mode="normal" in="SourceGraphic" in2="effect1_dropShadow_6432_10983" result="shape"/>
</filter>
</defs>
</svg>
