<svg width="664" height="592" viewBox="0 0 664 592" fill="none" xmlns="http://www.w3.org/2000/svg" xmlns:xlink="http://www.w3.org/1999/xlink">
<rect opacity="0.15" y="52" width="664" height="440" rx="16" fill="#E5E9EB"/>
<path d="M134.737 254.737H529.263V572C529.263 582.639 520.639 591.263 510 591.263H154C143.361 591.263 134.737 582.639 134.737 572V254.737Z" fill="#FCFDFD" stroke="#F2F4F5" stroke-width="1.47359"/>
<path d="M285.013 542.731C284.748 542.222 284.381 541.84 283.911 541.586C283.441 541.322 282.898 541.189 282.281 541.189C281.606 541.189 281.004 541.341 280.475 541.645C279.947 541.948 279.531 542.379 279.227 542.937C278.933 543.495 278.787 544.141 278.787 544.875C278.787 545.609 278.933 546.26 279.227 546.828C279.531 547.386 279.947 547.817 280.475 548.12C281.004 548.424 281.606 548.576 282.281 548.576C283.192 548.576 283.931 548.321 284.499 547.812C285.066 547.303 285.414 546.613 285.541 545.742H281.709V544.405H287.333V545.712C287.225 546.505 286.941 547.234 286.481 547.9C286.031 548.566 285.438 549.099 284.704 549.501C283.98 549.892 283.172 550.088 282.281 550.088C281.322 550.088 280.446 549.868 279.653 549.427C278.86 548.977 278.229 548.355 277.759 547.562C277.299 546.769 277.068 545.874 277.068 544.875C277.068 543.877 277.299 542.981 277.759 542.188C278.229 541.395 278.86 540.778 279.653 540.338C280.456 539.887 281.332 539.662 282.281 539.662C283.368 539.662 284.332 539.932 285.174 540.47C286.026 540.999 286.643 541.752 287.024 542.731H285.013ZM292.493 550.132C291.73 550.132 291.04 549.961 290.423 549.618C289.806 549.266 289.322 548.776 288.969 548.15C288.617 547.513 288.44 546.779 288.44 545.947C288.44 545.125 288.622 544.396 288.984 543.759C289.346 543.123 289.84 542.633 290.467 542.291C291.093 541.948 291.793 541.777 292.567 541.777C293.34 541.777 294.04 541.948 294.667 542.291C295.293 542.633 295.787 543.123 296.15 543.759C296.512 544.396 296.693 545.125 296.693 545.947C296.693 546.769 296.507 547.499 296.135 548.135C295.763 548.771 295.254 549.266 294.608 549.618C293.971 549.961 293.267 550.132 292.493 550.132ZM292.493 548.678C292.924 548.678 293.325 548.576 293.697 548.37C294.079 548.164 294.388 547.856 294.622 547.445C294.857 547.034 294.975 546.535 294.975 545.947C294.975 545.36 294.862 544.865 294.637 544.464C294.412 544.053 294.113 543.745 293.741 543.539C293.369 543.333 292.968 543.231 292.537 543.231C292.107 543.231 291.705 543.333 291.333 543.539C290.971 543.745 290.682 544.053 290.467 544.464C290.252 544.865 290.144 545.36 290.144 545.947C290.144 546.818 290.364 547.494 290.805 547.974C291.255 548.443 291.818 548.678 292.493 548.678ZM304.115 543.275V547.753C304.115 548.057 304.184 548.277 304.321 548.414C304.468 548.541 304.712 548.605 305.055 548.605H306.083V550H304.761C304.008 550 303.43 549.824 303.029 549.471C302.627 549.119 302.427 548.546 302.427 547.753V543.275H301.472V541.909H302.427V539.897H304.115V541.909H306.083V543.275H304.115ZM311.135 550.132C310.372 550.132 309.682 549.961 309.065 549.618C308.448 549.266 307.964 548.776 307.611 548.15C307.259 547.513 307.082 546.779 307.082 545.947C307.082 545.125 307.264 544.396 307.626 543.759C307.988 543.123 308.482 542.633 309.109 542.291C309.735 541.948 310.435 541.777 311.209 541.777C311.982 541.777 312.682 541.948 313.309 542.291C313.935 542.633 314.429 543.123 314.792 543.759C315.154 544.396 315.335 545.125 315.335 545.947C315.335 546.769 315.149 547.499 314.777 548.135C314.405 548.771 313.896 549.266 313.25 549.618C312.614 549.961 311.909 550.132 311.135 550.132ZM311.135 548.678C311.566 548.678 311.967 548.576 312.339 548.37C312.721 548.164 313.03 547.856 313.265 547.445C313.499 547.034 313.617 546.535 313.617 545.947C313.617 545.36 313.504 544.865 313.279 544.464C313.054 544.053 312.755 543.745 312.383 543.539C312.011 543.333 311.61 543.231 311.179 543.231C310.749 543.231 310.347 543.333 309.975 543.539C309.613 543.745 309.324 544.053 309.109 544.464C308.894 544.865 308.786 545.36 308.786 545.947C308.786 546.818 309.006 547.494 309.447 547.974C309.897 548.443 310.46 548.678 311.135 548.678ZM322.478 543.098C322.762 542.726 323.149 542.413 323.638 542.159C324.128 541.904 324.681 541.777 325.298 541.777C326.002 541.777 326.644 541.953 327.221 542.305C327.809 542.648 328.269 543.133 328.602 543.759C328.934 544.386 329.101 545.105 329.101 545.918C329.101 546.73 328.934 547.46 328.602 548.106C328.269 548.742 327.809 549.241 327.221 549.604C326.644 549.956 326.002 550.132 325.298 550.132C324.681 550.132 324.133 550.01 323.653 549.765C323.173 549.511 322.782 549.197 322.478 548.825V553.847H320.804V541.909H322.478V543.098ZM327.397 545.918C327.397 545.36 327.28 544.88 327.045 544.479C326.82 544.068 326.516 543.759 326.135 543.554C325.763 543.338 325.361 543.231 324.931 543.231C324.51 543.231 324.108 543.338 323.726 543.554C323.354 543.769 323.051 544.082 322.816 544.493C322.591 544.905 322.478 545.389 322.478 545.947C322.478 546.505 322.591 546.995 322.816 547.416C323.051 547.827 323.354 548.14 323.726 548.355C324.108 548.571 324.51 548.678 324.931 548.678C325.361 548.678 325.763 548.571 326.135 548.355C326.516 548.13 326.82 547.807 327.045 547.386C327.28 546.965 327.397 546.476 327.397 545.918ZM330.198 545.918C330.198 545.105 330.365 544.386 330.697 543.759C331.04 543.133 331.5 542.648 332.078 542.305C332.665 541.953 333.311 541.777 334.016 541.777C334.652 541.777 335.206 541.904 335.675 542.159C336.155 542.403 336.537 542.712 336.821 543.084V541.909H338.509V550H336.821V548.796C336.537 549.178 336.15 549.496 335.661 549.75C335.171 550.005 334.613 550.132 333.987 550.132C333.292 550.132 332.655 549.956 332.078 549.604C331.5 549.241 331.04 548.742 330.697 548.106C330.365 547.46 330.198 546.73 330.198 545.918ZM336.821 545.947C336.821 545.389 336.703 544.905 336.468 544.493C336.243 544.082 335.945 543.769 335.573 543.554C335.201 543.338 334.799 543.231 334.369 543.231C333.938 543.231 333.536 543.338 333.164 543.554C332.792 543.759 332.489 544.068 332.254 544.479C332.029 544.88 331.916 545.36 331.916 545.918C331.916 546.476 332.029 546.965 332.254 547.386C332.489 547.807 332.792 548.13 333.164 548.355C333.546 548.571 333.948 548.678 334.369 548.678C334.799 548.678 335.201 548.571 335.573 548.355C335.945 548.14 336.243 547.827 336.468 547.416C336.703 546.995 336.821 546.505 336.821 545.947ZM347.992 541.909L343.028 553.803H341.296L342.94 549.868L339.754 541.909H341.619L343.895 548.076L346.259 541.909H347.992ZM359.049 541.777C359.686 541.777 360.253 541.909 360.753 542.173C361.262 542.438 361.658 542.829 361.942 543.348C362.236 543.867 362.382 544.493 362.382 545.228V550H360.723V545.477C360.723 544.753 360.542 544.2 360.18 543.818C359.818 543.426 359.323 543.231 358.697 543.231C358.07 543.231 357.571 543.426 357.199 543.818C356.837 544.2 356.656 544.753 356.656 545.477V550H354.996V545.477C354.996 544.753 354.815 544.2 354.453 543.818C354.091 543.426 353.596 543.231 352.97 543.231C352.343 543.231 351.844 543.426 351.472 543.818C351.11 544.2 350.929 544.753 350.929 545.477V550H349.255V541.909H350.929V542.834C351.203 542.501 351.55 542.242 351.971 542.056C352.392 541.87 352.843 541.777 353.322 541.777C353.968 541.777 354.546 541.914 355.055 542.188C355.564 542.462 355.956 542.859 356.23 543.377C356.475 542.888 356.856 542.501 357.375 542.217C357.894 541.924 358.452 541.777 359.049 541.777ZM371.928 545.756C371.928 546.06 371.909 546.334 371.869 546.579H365.687C365.736 547.225 365.976 547.744 366.407 548.135C366.838 548.527 367.366 548.722 367.993 548.722C368.893 548.722 369.53 548.346 369.902 547.592H371.708C371.463 548.336 371.018 548.948 370.372 549.427C369.735 549.897 368.942 550.132 367.993 550.132C367.219 550.132 366.524 549.961 365.908 549.618C365.301 549.266 364.821 548.776 364.469 548.15C364.126 547.513 363.955 546.779 363.955 545.947C363.955 545.115 364.121 544.386 364.454 543.759C364.797 543.123 365.271 542.633 365.878 542.291C366.495 541.948 367.2 541.777 367.993 541.777C368.756 541.777 369.437 541.943 370.034 542.276C370.631 542.609 371.096 543.079 371.429 543.686C371.762 544.283 371.928 544.973 371.928 545.756ZM370.181 545.228C370.171 544.611 369.951 544.117 369.52 543.745C369.089 543.373 368.556 543.187 367.919 543.187C367.342 543.187 366.847 543.373 366.436 543.745C366.025 544.107 365.78 544.601 365.702 545.228H370.181ZM377.658 541.777C378.294 541.777 378.862 541.909 379.361 542.173C379.87 542.438 380.267 542.829 380.55 543.348C380.834 543.867 380.976 544.493 380.976 545.228V550H379.317V545.477C379.317 544.753 379.136 544.2 378.774 543.818C378.411 543.426 377.917 543.231 377.291 543.231C376.664 543.231 376.165 543.426 375.793 543.818C375.431 544.2 375.25 544.753 375.25 545.477V550H373.576V541.909H375.25V542.834C375.524 542.501 375.871 542.242 376.292 542.056C376.723 541.87 377.178 541.777 377.658 541.777ZM385.065 543.275V547.753C385.065 548.057 385.133 548.277 385.27 548.414C385.417 548.541 385.662 548.605 386.004 548.605H387.032V550H385.711C384.957 550 384.379 549.824 383.978 549.471C383.577 549.119 383.376 548.546 383.376 547.753V543.275H382.421V541.909H383.376V539.897H385.065V541.909H387.032V543.275H385.065Z" fill="#002036"/>
<rect x="150.5" y="522.5" width="363" height="45" rx="10.921" stroke="#0D6EFD" stroke-opacity="0.5"/>
<path d="M456.105 480.587H448.453V485.132C448.773 484.706 449.245 484.348 449.869 484.059C450.509 483.769 451.187 483.625 451.902 483.625C453.182 483.625 454.217 483.899 455.009 484.447C455.816 484.995 456.387 485.688 456.722 486.526C457.072 487.363 457.247 488.246 457.247 489.175C457.247 490.302 457.027 491.307 456.585 492.19C456.159 493.058 455.511 493.744 454.643 494.246C453.791 494.749 452.74 495 451.491 495C449.831 495 448.499 494.589 447.494 493.767C446.489 492.944 445.887 491.855 445.689 490.5H448.225C448.392 491.216 448.765 491.787 449.344 492.213C449.923 492.624 450.646 492.83 451.514 492.83C452.595 492.83 453.402 492.503 453.935 491.848C454.484 491.193 454.758 490.325 454.758 489.244C454.758 488.147 454.484 487.31 453.935 486.731C453.387 486.137 452.58 485.84 451.514 485.84C450.768 485.84 450.136 486.031 449.618 486.411C449.116 486.777 448.75 487.279 448.522 487.919H446.055V478.302H456.105V480.587ZM459.958 486.457C459.958 483.823 460.4 481.767 461.283 480.29C462.181 478.797 463.719 478.051 465.897 478.051C468.075 478.051 469.605 478.797 470.488 480.29C471.387 481.767 471.836 483.823 471.836 486.457C471.836 489.122 471.387 491.208 470.488 492.716C469.605 494.208 468.075 494.954 465.897 494.954C463.719 494.954 462.181 494.208 461.283 492.716C460.4 491.208 459.958 489.122 459.958 486.457ZM469.278 486.457C469.278 485.224 469.194 484.18 469.026 483.328C468.874 482.475 468.554 481.782 468.067 481.249C467.58 480.701 466.856 480.427 465.897 480.427C464.938 480.427 464.214 480.701 463.727 481.249C463.24 481.782 462.912 482.475 462.745 483.328C462.593 484.18 462.516 485.224 462.516 486.457C462.516 487.736 462.593 488.81 462.745 489.678C462.897 490.546 463.217 491.246 463.704 491.779C464.207 492.312 464.938 492.579 465.897 492.579C466.856 492.579 467.58 492.312 468.067 491.779C468.57 491.246 468.897 490.546 469.049 489.678C469.202 488.81 469.278 487.736 469.278 486.457Z" fill="#0D6EFD"/>
<path d="M506.499 484.933C506.499 491.245 501.353 496.366 494.999 496.366C488.645 496.366 483.499 491.245 483.499 484.933C483.499 478.621 488.645 473.5 494.999 473.5C501.353 473.5 506.499 478.621 506.499 484.933Z" fill="#F2F4F5" stroke="#F2F4F5"/>
<path opacity="0.5" d="M496.189 483.86H499.05C499.602 483.86 500.05 484.308 500.05 484.86V485.19C500.05 485.742 499.602 486.19 499.05 486.19H496.189V489.051C496.189 489.603 495.742 490.051 495.189 490.051H494.859C494.307 490.051 493.859 489.603 493.859 489.051V486.19H490.999C490.447 486.19 489.999 485.742 489.999 485.19V484.86C489.999 484.308 490.447 483.86 490.999 483.86H493.859V481C493.859 480.448 494.307 480 494.859 480H495.189C495.742 480 496.189 480.448 496.189 481V483.86Z" fill="#002036"/>
<path d="M431.499 484.933C431.499 491.245 426.353 496.366 419.999 496.366C413.645 496.366 408.499 491.245 408.499 484.933C408.499 478.621 413.645 473.5 419.999 473.5C426.353 473.5 431.499 478.621 431.499 484.933Z" fill="#F2F4F5" stroke="#F2F4F5"/>
<path opacity="0.5" d="M424.05 484C424.602 484 425.05 484.448 425.05 485V485.33C425.05 485.882 424.602 486.33 424.05 486.33H415.999C415.447 486.33 414.999 485.882 414.999 485.33V485C414.999 484.448 415.447 484 415.999 484H424.05Z" fill="#002036"/>
<path d="M161.655 480.848V487.904C161.655 488.896 161.895 489.632 162.375 490.112C162.866 490.592 163.543 490.832 164.407 490.832C165.26 490.832 165.927 490.592 166.407 490.112C166.898 489.632 167.143 488.896 167.143 487.904V480.848H168.599V487.888C168.599 488.816 168.412 489.6 168.039 490.24C167.666 490.869 167.159 491.339 166.519 491.648C165.89 491.957 165.18 492.112 164.391 492.112C163.602 492.112 162.887 491.957 162.247 491.648C161.618 491.339 161.116 490.869 160.743 490.24C160.38 489.6 160.199 488.816 160.199 487.888V480.848H161.655ZM175.3 483.072C176.367 483.072 177.231 483.397 177.892 484.048C178.553 484.688 178.884 485.616 178.884 486.832V492H177.444V487.04C177.444 486.165 177.225 485.499 176.788 485.04C176.351 484.571 175.753 484.336 174.996 484.336C174.228 484.336 173.615 484.576 173.156 485.056C172.708 485.536 172.484 486.235 172.484 487.152V492H171.028V483.232H172.484V484.48C172.772 484.032 173.161 483.685 173.652 483.44C174.153 483.195 174.703 483.072 175.3 483.072ZM182.014 481.808C181.737 481.808 181.502 481.712 181.31 481.52C181.118 481.328 181.022 481.093 181.022 480.816C181.022 480.539 181.118 480.304 181.31 480.112C181.502 479.92 181.737 479.824 182.014 479.824C182.281 479.824 182.505 479.92 182.686 480.112C182.878 480.304 182.974 480.539 182.974 480.816C182.974 481.093 182.878 481.328 182.686 481.52C182.505 481.712 182.281 481.808 182.014 481.808ZM182.718 483.232V492H181.262V483.232H182.718ZM186.976 484.432V489.6C186.976 490.027 187.066 490.331 187.248 490.512C187.429 490.683 187.744 490.768 188.192 490.768H189.264V492H187.952C187.141 492 186.533 491.813 186.128 491.44C185.722 491.067 185.52 490.453 185.52 489.6V484.432H184.384V483.232H185.52V481.024H186.976V483.232H189.264V484.432H186.976ZM194.132 492.144C193.46 492.144 192.857 492.032 192.324 491.808C191.791 491.573 191.369 491.253 191.06 490.848C190.751 490.432 190.58 489.957 190.548 489.424H192.052C192.095 489.861 192.297 490.219 192.66 490.496C193.033 490.773 193.519 490.912 194.116 490.912C194.671 490.912 195.108 490.789 195.428 490.544C195.748 490.299 195.908 489.989 195.908 489.616C195.908 489.232 195.737 488.949 195.396 488.768C195.055 488.576 194.527 488.389 193.812 488.208C193.161 488.037 192.628 487.867 192.212 487.696C191.807 487.515 191.455 487.253 191.156 486.912C190.868 486.56 190.724 486.101 190.724 485.536C190.724 485.088 190.857 484.677 191.124 484.304C191.391 483.931 191.769 483.637 192.26 483.424C192.751 483.2 193.311 483.088 193.94 483.088C194.911 483.088 195.695 483.333 196.292 483.824C196.889 484.315 197.209 484.987 197.252 485.84H195.796C195.764 485.381 195.577 485.013 195.236 484.736C194.905 484.459 194.457 484.32 193.892 484.32C193.369 484.32 192.953 484.432 192.644 484.656C192.335 484.88 192.18 485.173 192.18 485.536C192.18 485.824 192.271 486.064 192.452 486.256C192.644 486.437 192.879 486.587 193.156 486.704C193.444 486.811 193.839 486.933 194.34 487.072C194.969 487.243 195.481 487.413 195.876 487.584C196.271 487.744 196.607 487.989 196.884 488.32C197.172 488.651 197.321 489.083 197.332 489.616C197.332 490.096 197.199 490.528 196.932 490.912C196.665 491.296 196.287 491.6 195.796 491.824C195.316 492.037 194.761 492.144 194.132 492.144ZM203.109 487.584C203.109 486.688 203.29 485.904 203.653 485.232C204.016 484.549 204.512 484.021 205.141 483.648C205.781 483.275 206.496 483.088 207.285 483.088C208.042 483.088 208.704 483.259 209.269 483.6C209.845 483.931 210.266 484.341 210.533 484.832V483.232H212.005V496.16H210.533V490.384C210.256 490.875 209.829 491.291 209.253 491.632C208.677 491.973 208.005 492.144 207.237 492.144C206.469 492.144 205.77 491.952 205.141 491.568C204.512 491.184 204.016 490.645 203.653 489.952C203.29 489.259 203.109 488.469 203.109 487.584ZM210.533 487.6C210.533 486.939 210.4 486.363 210.133 485.872C209.866 485.381 209.504 485.008 209.045 484.752C208.597 484.485 208.101 484.352 207.557 484.352C207.013 484.352 206.517 484.48 206.069 484.736C205.621 484.992 205.264 485.365 204.997 485.856C204.73 486.347 204.597 486.923 204.597 487.584C204.597 488.256 204.73 488.843 204.997 489.344C205.264 489.835 205.621 490.213 206.069 490.48C206.517 490.736 207.013 490.864 207.557 490.864C208.101 490.864 208.597 490.736 209.045 490.48C209.504 490.213 209.866 489.835 210.133 489.344C210.4 488.843 210.533 488.261 210.533 487.6ZM222.241 483.232V492H220.785V490.704C220.508 491.152 220.119 491.504 219.617 491.76C219.127 492.005 218.583 492.128 217.985 492.128C217.303 492.128 216.689 491.989 216.145 491.712C215.601 491.424 215.169 490.997 214.849 490.432C214.54 489.867 214.385 489.179 214.385 488.368V483.232H215.825V488.176C215.825 489.04 216.044 489.707 216.481 490.176C216.919 490.635 217.516 490.864 218.273 490.864C219.052 490.864 219.665 490.624 220.113 490.144C220.561 489.664 220.785 488.965 220.785 488.048V483.232H222.241ZM224.156 487.584C224.156 486.688 224.337 485.904 224.7 485.232C225.062 484.549 225.558 484.021 226.188 483.648C226.828 483.275 227.537 483.088 228.316 483.088C229.084 483.088 229.75 483.253 230.316 483.584C230.881 483.915 231.302 484.331 231.58 484.832V483.232H233.052V492H231.58V490.368C231.292 490.88 230.86 491.307 230.284 491.648C229.718 491.979 229.057 492.144 228.3 492.144C227.521 492.144 226.817 491.952 226.188 491.568C225.558 491.184 225.062 490.645 224.7 489.952C224.337 489.259 224.156 488.469 224.156 487.584ZM231.58 487.6C231.58 486.939 231.446 486.363 231.18 485.872C230.913 485.381 230.55 485.008 230.092 484.752C229.644 484.485 229.148 484.352 228.604 484.352C228.06 484.352 227.564 484.48 227.116 484.736C226.668 484.992 226.31 485.365 226.044 485.856C225.777 486.347 225.644 486.923 225.644 487.584C225.644 488.256 225.777 488.843 226.044 489.344C226.31 489.835 226.668 490.213 227.116 490.48C227.564 490.736 228.06 490.864 228.604 490.864C229.148 490.864 229.644 490.736 230.092 490.48C230.55 490.213 230.913 489.835 231.18 489.344C231.446 488.843 231.58 488.261 231.58 487.6ZM239.784 483.072C240.851 483.072 241.715 483.397 242.376 484.048C243.038 484.688 243.368 485.616 243.368 486.832V492H241.928V487.04C241.928 486.165 241.71 485.499 241.272 485.04C240.835 484.571 240.238 484.336 239.48 484.336C238.712 484.336 238.099 484.576 237.64 485.056C237.192 485.536 236.968 486.235 236.968 487.152V492H235.512V483.232H236.968V484.48C237.256 484.032 237.646 483.685 238.136 483.44C238.638 483.195 239.187 483.072 239.784 483.072ZM247.523 484.432V489.6C247.523 490.027 247.613 490.331 247.795 490.512C247.976 490.683 248.291 490.768 248.739 490.768H249.811V492H248.499C247.688 492 247.08 491.813 246.675 491.44C246.269 491.067 246.067 490.453 246.067 489.6V484.432H244.931V483.232H246.067V481.024H247.523V483.232H249.811V484.432H247.523ZM252.327 481.808C252.049 481.808 251.815 481.712 251.623 481.52C251.431 481.328 251.335 481.093 251.335 480.816C251.335 480.539 251.431 480.304 251.623 480.112C251.815 479.92 252.049 479.824 252.327 479.824C252.593 479.824 252.817 479.92 252.999 480.112C253.191 480.304 253.287 480.539 253.287 480.816C253.287 481.093 253.191 481.328 252.999 481.52C252.817 481.712 252.593 481.808 252.327 481.808ZM253.031 483.232V492H251.575V483.232H253.031ZM257.288 484.432V489.6C257.288 490.027 257.379 490.331 257.56 490.512C257.742 490.683 258.056 490.768 258.504 490.768H259.576V492H258.264C257.454 492 256.846 491.813 256.44 491.44C256.035 491.067 255.832 490.453 255.832 489.6V484.432H254.696V483.232H255.832V481.024H257.288V483.232H259.576V484.432H257.288ZM268.892 483.232L263.612 496.128H262.108L263.836 491.904L260.3 483.232H261.916L264.668 490.336L267.388 483.232H268.892Z" fill="#002036"/>
<path opacity="0.15" d="M157.999 452L505.999 452" stroke="#264154" stroke-linecap="round"/>
<path d="M278.036 394.056C278.036 394.818 277.846 395.533 277.465 396.204C277.1 396.874 276.552 397.437 275.821 397.894C275.105 398.351 274.252 398.625 273.262 398.716V400.566H271.778V398.716C270.346 398.579 269.189 398.13 268.306 397.368C267.422 396.607 266.981 395.602 266.981 394.353H269.768C269.813 394.947 270.004 395.442 270.339 395.838C270.674 396.219 271.153 396.462 271.778 396.569V391.544C270.757 391.285 269.927 391.026 269.288 390.767C268.648 390.493 268.1 390.067 267.643 389.488C267.202 388.909 266.981 388.117 266.981 387.112C266.981 385.848 267.422 384.805 268.306 383.983C269.189 383.145 270.346 382.658 271.778 382.521V380.671H273.262V382.521C274.603 382.643 275.676 383.069 276.483 383.8C277.305 384.516 277.77 385.506 277.877 386.77H275.09C275.044 386.298 274.861 385.879 274.542 385.513C274.222 385.133 273.795 384.874 273.262 384.737V389.671C274.283 389.914 275.113 390.173 275.752 390.447C276.392 390.706 276.932 391.125 277.374 391.704C277.816 392.267 278.036 393.051 278.036 394.056ZM269.631 386.975C269.631 387.6 269.813 388.087 270.179 388.437C270.559 388.787 271.092 389.069 271.778 389.282V384.668C271.123 384.744 270.598 384.98 270.202 385.376C269.821 385.772 269.631 386.305 269.631 386.975ZM273.262 396.569C273.932 396.462 274.458 396.196 274.839 395.77C275.219 395.328 275.41 394.803 275.41 394.193C275.41 393.584 275.219 393.112 274.839 392.777C274.473 392.427 273.948 392.145 273.262 391.932V396.569ZM281.494 384.303V381.927H286.246V398.579H283.619V384.303H281.494ZM289.823 390.036C289.823 387.402 290.265 385.346 291.148 383.869C292.046 382.376 293.584 381.63 295.762 381.63C297.939 381.63 299.47 382.376 300.353 383.869C301.252 385.346 301.701 387.402 301.701 390.036C301.701 392.701 301.252 394.787 300.353 396.295C299.47 397.787 297.939 398.533 295.762 398.533C293.584 398.533 292.046 397.787 291.148 396.295C290.265 394.787 289.823 392.701 289.823 390.036ZM299.142 390.036C299.142 388.803 299.059 387.76 298.891 386.907C298.739 386.054 298.419 385.361 297.932 384.828C297.445 384.28 296.721 384.006 295.762 384.006C294.802 384.006 294.079 384.28 293.592 384.828C293.105 385.361 292.777 386.054 292.61 386.907C292.457 387.76 292.381 388.803 292.381 390.036C292.381 391.315 292.457 392.389 292.61 393.257C292.762 394.125 293.082 394.825 293.569 395.358C294.072 395.891 294.802 396.158 295.762 396.158C296.721 396.158 297.445 395.891 297.932 395.358C298.434 394.825 298.762 394.125 298.914 393.257C299.066 392.389 299.142 391.315 299.142 390.036ZM304.456 390.036C304.456 387.402 304.898 385.346 305.781 383.869C306.679 382.376 308.217 381.63 310.395 381.63C312.573 381.63 314.103 382.376 314.986 383.869C315.885 385.346 316.334 387.402 316.334 390.036C316.334 392.701 315.885 394.787 314.986 396.295C314.103 397.787 312.573 398.533 310.395 398.533C308.217 398.533 306.679 397.787 305.781 396.295C304.898 394.787 304.456 392.701 304.456 390.036ZM313.776 390.036C313.776 388.803 313.692 387.76 313.524 386.907C313.372 386.054 313.052 385.361 312.565 384.828C312.078 384.28 311.354 384.006 310.395 384.006C309.436 384.006 308.712 384.28 308.225 384.828C307.738 385.361 307.41 386.054 307.243 386.907C307.091 387.76 307.014 388.803 307.014 390.036C307.014 391.315 307.091 392.389 307.243 393.257C307.395 394.125 307.715 394.825 308.202 395.358C308.705 395.891 309.436 396.158 310.395 396.158C311.354 396.158 312.078 395.891 312.565 395.358C313.068 394.825 313.395 394.125 313.547 393.257C313.7 392.389 313.776 391.315 313.776 390.036Z" fill="#0D6EFD"/>
<path d="M273.055 418.626C273.055 419.536 272.771 420.246 272.204 420.755C271.636 421.254 270.794 421.504 269.678 421.504H267.475V426.027H266.814V415.718H269.678C270.813 415.718 271.66 415.983 272.218 416.511C272.776 417.03 273.055 417.735 273.055 418.626ZM269.678 420.917C271.489 420.917 272.394 420.153 272.394 418.626C272.394 417.872 272.179 417.299 271.748 416.908C271.318 416.506 270.627 416.306 269.678 416.306H267.475V420.917H269.678ZM275.491 419.698C275.687 419.11 276.035 418.665 276.534 418.361C277.033 418.048 277.669 417.892 278.443 417.892V418.582H278.223C277.439 418.582 276.788 418.807 276.27 419.257C275.751 419.698 275.491 420.422 275.491 421.43V426.027H274.831V418.053H275.491V419.698ZM280.302 416.276C280.145 416.276 280.013 416.227 279.906 416.129C279.798 416.022 279.744 415.88 279.744 415.704C279.744 415.537 279.798 415.4 279.906 415.292C280.013 415.185 280.145 415.131 280.302 415.131C280.459 415.131 280.591 415.185 280.698 415.292C280.806 415.4 280.86 415.537 280.86 415.704C280.86 415.88 280.806 416.022 280.698 416.129C280.591 416.227 280.459 416.276 280.302 416.276ZM280.625 418.053V426.027H279.964V418.053H280.625ZM282.636 422.033C282.636 421.2 282.798 420.476 283.121 419.859C283.454 419.243 283.909 418.773 284.486 418.45C285.074 418.117 285.744 417.95 286.498 417.95C287.497 417.95 288.314 418.2 288.95 418.699C289.596 419.198 289.998 419.869 290.154 420.711H289.464C289.337 420.026 289.004 419.487 288.466 419.096C287.937 418.704 287.281 418.508 286.498 418.508C285.911 418.508 285.377 418.64 284.898 418.905C284.418 419.159 284.031 419.556 283.738 420.094C283.454 420.623 283.312 421.269 283.312 422.033C283.312 422.806 283.454 423.457 283.738 423.986C284.031 424.514 284.418 424.911 284.898 425.175C285.377 425.439 285.911 425.571 286.498 425.571C287.281 425.571 287.937 425.376 288.466 424.984C289.004 424.592 289.337 424.054 289.464 423.369H290.154C289.998 424.201 289.596 424.871 288.95 425.381C288.304 425.89 287.487 426.144 286.498 426.144C285.744 426.144 285.074 425.978 284.486 425.645C283.909 425.312 283.454 424.837 283.121 424.22C282.798 423.594 282.636 422.865 282.636 422.033ZM299.348 421.504C299.348 421.856 299.338 422.121 299.319 422.297H292.432C292.451 423.011 292.608 423.614 292.902 424.103C293.195 424.592 293.582 424.96 294.062 425.204C294.542 425.449 295.065 425.571 295.633 425.571C296.416 425.571 297.072 425.381 297.601 424.999C298.129 424.607 298.462 424.079 298.599 423.413H299.289C299.133 424.225 298.731 424.886 298.085 425.395C297.439 425.894 296.622 426.144 295.633 426.144C294.889 426.144 294.223 425.978 293.636 425.645C293.049 425.312 292.589 424.837 292.256 424.22C291.923 423.594 291.756 422.865 291.756 422.033C291.756 421.2 291.918 420.476 292.241 419.859C292.574 419.243 293.034 418.773 293.621 418.45C294.209 418.117 294.879 417.95 295.633 417.95C296.397 417.95 297.057 418.117 297.615 418.45C298.183 418.773 298.614 419.208 298.908 419.756C299.201 420.295 299.348 420.877 299.348 421.504ZM298.687 421.754C298.717 421.049 298.589 420.452 298.306 419.962C298.031 419.473 297.655 419.11 297.175 418.875C296.695 418.631 296.176 418.508 295.618 418.508C295.06 418.508 294.542 418.631 294.062 418.875C293.592 419.11 293.205 419.473 292.902 419.962C292.608 420.452 292.451 421.049 292.432 421.754H298.687ZM306.15 420.153C306.375 419.507 306.782 418.978 307.369 418.567C307.966 418.156 308.686 417.95 309.528 417.95C310.272 417.95 310.932 418.117 311.51 418.45C312.097 418.782 312.553 419.257 312.876 419.874C313.208 420.491 313.375 421.21 313.375 422.033C313.375 422.855 313.208 423.579 312.876 424.206C312.553 424.823 312.097 425.302 311.51 425.645C310.932 425.978 310.272 426.144 309.528 426.144C308.696 426.144 307.981 425.939 307.384 425.527C306.796 425.106 306.385 424.578 306.15 423.941V429.786H305.489V418.053H306.15V420.153ZM312.699 422.033C312.699 421.308 312.562 420.682 312.288 420.153C312.014 419.624 311.627 419.223 311.128 418.949C310.639 418.665 310.071 418.523 309.425 418.523C308.808 418.523 308.25 418.67 307.751 418.964C307.252 419.247 306.86 419.659 306.576 420.197C306.292 420.726 306.15 421.337 306.15 422.033C306.15 422.737 306.292 423.359 306.576 423.897C306.86 424.426 307.252 424.837 307.751 425.131C308.25 425.415 308.808 425.557 309.425 425.557C310.071 425.557 310.639 425.415 311.128 425.131C311.627 424.847 312.014 424.441 312.288 423.912C312.562 423.383 312.699 422.757 312.699 422.033ZM322.55 421.504C322.55 421.856 322.541 422.121 322.521 422.297H315.634C315.654 423.011 315.81 423.614 316.104 424.103C316.398 424.592 316.784 424.96 317.264 425.204C317.744 425.449 318.267 425.571 318.835 425.571C319.618 425.571 320.274 425.381 320.803 424.999C321.332 424.607 321.664 424.079 321.801 423.413H322.492C322.335 424.225 321.934 424.886 321.287 425.395C320.641 425.894 319.824 426.144 318.835 426.144C318.091 426.144 317.426 425.978 316.838 425.645C316.251 425.312 315.791 424.837 315.458 424.22C315.125 423.594 314.959 422.865 314.959 422.033C314.959 421.2 315.12 420.476 315.443 419.859C315.776 419.243 316.236 418.773 316.823 418.45C317.411 418.117 318.081 417.95 318.835 417.95C319.599 417.95 320.26 418.117 320.818 418.45C321.385 418.773 321.816 419.208 322.11 419.756C322.403 420.295 322.55 420.877 322.55 421.504ZM321.89 421.754C321.919 421.049 321.792 420.452 321.508 419.962C321.234 419.473 320.857 419.11 320.377 418.875C319.897 418.631 319.379 418.508 318.821 418.508C318.263 418.508 317.744 418.631 317.264 418.875C316.794 419.11 316.407 419.473 316.104 419.962C315.81 420.452 315.654 421.049 315.634 421.754H321.89ZM325.208 419.698C325.404 419.11 325.751 418.665 326.251 418.361C326.75 418.048 327.386 417.892 328.16 417.892V418.582H327.939C327.156 418.582 326.505 418.807 325.986 419.257C325.468 419.698 325.208 420.422 325.208 421.43V426.027H324.547V418.053H325.208V419.698ZM340.565 418.053V426.027H339.905V424.294C339.679 424.901 339.303 425.366 338.774 425.689C338.255 426.002 337.658 426.159 336.982 426.159C336.033 426.159 335.255 425.87 334.648 425.292C334.05 424.705 333.752 423.839 333.752 422.693V418.053H334.398V422.649C334.398 423.599 334.638 424.328 335.118 424.837C335.597 425.336 336.248 425.586 337.071 425.586C337.932 425.586 338.617 425.312 339.126 424.764C339.645 424.216 339.905 423.403 339.905 422.326V418.053H340.565ZM346.572 417.892C347.521 417.892 348.295 418.185 348.892 418.773C349.489 419.35 349.788 420.212 349.788 421.357V426.027H349.142V421.401C349.142 420.452 348.902 419.727 348.422 419.228C347.942 418.719 347.291 418.464 346.469 418.464C345.608 418.464 344.917 418.738 344.399 419.287C343.89 419.835 343.635 420.647 343.635 421.724V426.027H342.974V418.053H343.635V419.742C343.86 419.145 344.232 418.689 344.751 418.376C345.28 418.053 345.887 417.892 346.572 417.892ZM352.461 416.276C352.304 416.276 352.172 416.227 352.064 416.129C351.957 416.022 351.903 415.88 351.903 415.704C351.903 415.537 351.957 415.4 352.064 415.292C352.172 415.185 352.304 415.131 352.461 415.131C352.618 415.131 352.75 415.185 352.857 415.292C352.965 415.4 353.019 415.537 353.019 415.704C353.019 415.88 352.965 416.022 352.857 416.129C352.75 416.227 352.618 416.276 352.461 416.276ZM352.784 418.053V426.027H352.123V418.053H352.784ZM356.19 418.626V423.897C356.19 424.485 356.298 424.891 356.513 425.116C356.729 425.332 357.11 425.439 357.659 425.439H358.554V426.027H357.556C356.861 426.027 356.347 425.865 356.014 425.542C355.691 425.209 355.529 424.661 355.529 423.897V418.626H354.325V418.053H355.529V416.027H356.19V418.053H358.554V418.626H356.19Z" fill="#002036"/>
<path d="M402.809 395.039C404.27 393.775 405.42 392.739 406.258 391.932C407.111 391.11 407.819 390.257 408.382 389.374C408.945 388.491 409.227 387.607 409.227 386.724C409.227 385.81 409.006 385.095 408.565 384.577C408.138 384.059 407.461 383.8 406.532 383.8C405.633 383.8 404.933 384.09 404.43 384.668C403.943 385.232 403.684 385.993 403.654 386.952H401.141C401.187 385.217 401.705 383.892 402.694 382.978C403.699 382.049 404.971 381.585 406.509 381.585C408.169 381.585 409.463 382.041 410.392 382.955C411.336 383.869 411.808 385.087 411.808 386.61C411.808 387.706 411.527 388.765 410.963 389.785C410.415 390.79 409.753 391.696 408.976 392.503C408.215 393.295 407.24 394.216 406.052 395.267L405.024 396.181H412.265V398.351H401.164V396.455L402.809 395.039ZM414.553 390.036C414.553 387.402 414.994 385.346 415.878 383.869C416.776 382.376 418.314 381.63 420.492 381.63C422.669 381.63 424.2 382.376 425.083 383.869C425.981 385.346 426.431 387.402 426.431 390.036C426.431 392.701 425.981 394.787 425.083 396.295C424.2 397.787 422.669 398.533 420.492 398.533C418.314 398.533 416.776 397.787 415.878 396.295C414.994 394.787 414.553 392.701 414.553 390.036ZM423.872 390.036C423.872 388.803 423.789 387.76 423.621 386.907C423.469 386.054 423.149 385.361 422.662 384.828C422.174 384.28 421.451 384.006 420.492 384.006C419.532 384.006 418.809 384.28 418.322 384.828C417.834 385.361 417.507 386.054 417.34 386.907C417.187 387.76 417.111 388.803 417.111 390.036C417.111 391.315 417.187 392.389 417.34 393.257C417.492 394.125 417.812 394.825 418.299 395.358C418.801 395.891 419.532 396.158 420.492 396.158C421.451 396.158 422.174 395.891 422.662 395.358C423.164 394.825 423.492 394.125 423.644 393.257C423.796 392.389 423.872 391.315 423.872 390.036ZM430.625 395.039C432.087 393.775 433.237 392.739 434.074 391.932C434.927 391.11 435.635 390.257 436.198 389.374C436.762 388.491 437.044 387.607 437.044 386.724C437.044 385.81 436.823 385.095 436.381 384.577C435.955 384.059 435.277 383.8 434.348 383.8C433.45 383.8 432.749 384.09 432.247 384.668C431.76 385.232 431.501 385.993 431.47 386.952H428.958C429.003 385.217 429.521 383.892 430.511 382.978C431.516 382.049 432.787 381.585 434.325 381.585C435.985 381.585 437.28 382.041 438.209 382.955C439.153 383.869 439.625 385.087 439.625 386.61C439.625 387.706 439.343 388.765 438.78 389.785C438.231 390.79 437.569 391.696 436.792 392.503C436.031 393.295 435.056 394.216 433.869 395.267L432.841 396.181H440.082V398.351H428.98V396.455L430.625 395.039ZM442.027 384.303V381.927H446.778V398.579H444.151V384.303H442.027Z" fill="#0D6EFD"/>
<path d="M405.652 420.696C406.25 420.804 406.749 421.098 407.15 421.577C407.561 422.057 407.767 422.62 407.767 423.266C407.767 423.795 407.64 424.269 407.385 424.69C407.14 425.102 406.768 425.429 406.269 425.674C405.78 425.909 405.183 426.027 404.478 426.027H401.203V415.718H404.419C405.447 415.718 406.22 415.958 406.739 416.438C407.268 416.908 407.532 417.52 407.532 418.273C407.532 418.929 407.356 419.463 407.003 419.874C406.651 420.275 406.201 420.549 405.652 420.696ZM401.864 420.403H404.448C405.222 420.403 405.814 420.221 406.225 419.859C406.646 419.487 406.857 418.978 406.857 418.332C406.857 417.706 406.651 417.211 406.24 416.849C405.829 416.487 405.207 416.306 404.375 416.306H401.864V420.403ZM404.434 425.454C405.266 425.454 405.917 425.258 406.387 424.867C406.866 424.465 407.106 423.917 407.106 423.222C407.106 422.537 406.861 421.993 406.372 421.592C405.892 421.181 405.231 420.975 404.39 420.975H401.864V425.454H404.434ZM416.447 418.053V426.027H415.786V424.294C415.561 424.901 415.184 425.366 414.655 425.689C414.136 426.002 413.539 426.159 412.864 426.159C411.914 426.159 411.136 425.87 410.529 425.292C409.932 424.705 409.633 423.839 409.633 422.693V418.053H410.279V422.649C410.279 423.599 410.519 424.328 410.999 424.837C411.479 425.336 412.13 425.586 412.952 425.586C413.813 425.586 414.499 425.312 415.008 424.764C415.527 424.216 415.786 423.403 415.786 422.326V418.053H416.447ZM419.193 416.276C419.037 416.276 418.905 416.227 418.797 416.129C418.689 416.022 418.635 415.88 418.635 415.704C418.635 415.537 418.689 415.4 418.797 415.292C418.905 415.185 419.037 415.131 419.193 415.131C419.35 415.131 419.482 415.185 419.59 415.292C419.698 415.4 419.751 415.537 419.751 415.704C419.751 415.88 419.698 416.022 419.59 416.129C419.482 416.227 419.35 416.276 419.193 416.276ZM419.516 418.053V426.027H418.856V418.053H419.516ZM422.6 415.16V426.027H421.939V415.16H422.6ZM424.611 422.033C424.611 421.21 424.772 420.491 425.095 419.874C425.428 419.257 425.883 418.782 426.461 418.45C427.048 418.117 427.714 417.95 428.458 417.95C429.271 417.95 429.975 418.156 430.573 418.567C431.17 418.968 431.591 419.492 431.835 420.138V415.16H432.496V426.027H431.835V423.912C431.6 424.568 431.189 425.106 430.602 425.527C430.015 425.939 429.3 426.144 428.458 426.144C427.714 426.144 427.048 425.978 426.461 425.645C425.883 425.302 425.428 424.823 425.095 424.206C424.772 423.579 424.611 422.855 424.611 422.033ZM431.835 422.033C431.835 421.337 431.689 420.726 431.395 420.197C431.111 419.659 430.719 419.247 430.22 418.964C429.721 418.67 429.163 418.523 428.546 418.523C427.9 418.523 427.332 418.665 426.843 418.949C426.353 419.223 425.971 419.624 425.697 420.153C425.423 420.682 425.286 421.308 425.286 422.033C425.286 422.757 425.423 423.383 425.697 423.912C425.971 424.441 426.353 424.847 426.843 425.131C427.342 425.415 427.91 425.557 428.546 425.557C429.163 425.557 429.721 425.415 430.22 425.131C430.729 424.837 431.126 424.426 431.41 423.897C431.693 423.359 431.835 422.737 431.835 422.033ZM445.273 418.053L440.632 429.771H439.957L441.44 426.027L438.092 418.053H438.811L441.807 425.292L444.597 418.053H445.273ZM453.928 421.504C453.928 421.856 453.918 422.121 453.898 422.297H447.011C447.031 423.011 447.188 423.614 447.481 424.103C447.775 424.592 448.162 424.96 448.641 425.204C449.121 425.449 449.645 425.571 450.212 425.571C450.996 425.571 451.652 425.381 452.18 424.999C452.709 424.607 453.042 424.079 453.179 423.413H453.869C453.712 424.225 453.311 424.886 452.665 425.395C452.019 425.894 451.201 426.144 450.212 426.144C449.468 426.144 448.803 425.978 448.215 425.645C447.628 425.312 447.168 424.837 446.835 424.22C446.502 423.594 446.336 422.865 446.336 422.033C446.336 421.2 446.497 420.476 446.82 419.859C447.153 419.243 447.613 418.773 448.201 418.45C448.788 418.117 449.459 417.95 450.212 417.95C450.976 417.95 451.637 418.117 452.195 418.45C452.763 418.773 453.193 419.208 453.487 419.756C453.781 420.295 453.928 420.877 453.928 421.504ZM453.267 421.754C453.296 421.049 453.169 420.452 452.885 419.962C452.611 419.473 452.234 419.11 451.754 418.875C451.275 418.631 450.756 418.508 450.198 418.508C449.64 418.508 449.121 418.631 448.641 418.875C448.171 419.11 447.785 419.473 447.481 419.962C447.188 420.452 447.031 421.049 447.011 421.754H453.267ZM455.513 422.033C455.513 421.21 455.675 420.491 455.998 419.874C456.331 419.257 456.786 418.782 457.364 418.45C457.951 418.117 458.617 417.95 459.361 417.95C460.203 417.95 460.917 418.156 461.505 418.567C462.092 418.978 462.503 419.502 462.738 420.138V418.053H463.399V426.027H462.738V423.927C462.503 424.573 462.087 425.106 461.49 425.527C460.903 425.939 460.193 426.144 459.361 426.144C458.617 426.144 457.951 425.978 457.364 425.645C456.786 425.302 456.331 424.823 455.998 424.206C455.675 423.579 455.513 422.855 455.513 422.033ZM462.738 422.033C462.738 421.337 462.591 420.726 462.298 420.197C462.014 419.659 461.622 419.247 461.123 418.964C460.624 418.67 460.066 418.523 459.449 418.523C458.803 418.523 458.235 418.665 457.745 418.949C457.256 419.223 456.874 419.624 456.6 420.153C456.326 420.682 456.189 421.308 456.189 422.033C456.189 422.757 456.326 423.383 456.6 423.912C456.874 424.441 457.256 424.847 457.745 425.131C458.245 425.415 458.813 425.557 459.449 425.557C460.066 425.557 460.624 425.415 461.123 425.131C461.632 424.837 462.028 424.426 462.312 423.897C462.596 423.359 462.738 422.737 462.738 422.033ZM466.466 419.698C466.661 419.11 467.009 418.665 467.508 418.361C468.008 418.048 468.644 417.892 469.417 417.892V418.582H469.197C468.414 418.582 467.763 418.807 467.244 419.257C466.725 419.698 466.466 420.422 466.466 421.43V426.027H465.805V418.053H466.466V419.698Z" fill="#002036"/>
<path d="M160.007 384.303V381.927H164.758V398.579H162.131V384.303H160.007ZM179.071 384.166H171.419V388.711C171.739 388.285 172.211 387.927 172.835 387.638C173.475 387.348 174.152 387.204 174.868 387.204C176.147 387.204 177.183 387.478 177.975 388.026C178.782 388.574 179.353 389.267 179.688 390.105C180.038 390.942 180.213 391.825 180.213 392.754C180.213 393.881 179.992 394.886 179.551 395.77C179.124 396.638 178.477 397.323 177.609 397.825C176.756 398.328 175.706 398.579 174.457 398.579C172.797 398.579 171.465 398.168 170.46 397.346C169.454 396.523 168.853 395.435 168.655 394.079H171.19C171.358 394.795 171.731 395.366 172.31 395.792C172.888 396.204 173.612 396.409 174.48 396.409C175.561 396.409 176.368 396.082 176.901 395.427C177.449 394.772 177.723 393.904 177.723 392.823C177.723 391.726 177.449 390.889 176.901 390.31C176.353 389.716 175.546 389.419 174.48 389.419C173.734 389.419 173.102 389.61 172.584 389.99C172.081 390.356 171.716 390.858 171.487 391.498H169.02V381.882H179.071V384.166ZM184.317 398.739C183.845 398.739 183.449 398.579 183.129 398.259C182.81 397.94 182.65 397.544 182.65 397.072C182.65 396.599 182.81 396.204 183.129 395.884C183.449 395.564 183.845 395.404 184.317 395.404C184.774 395.404 185.162 395.564 185.482 395.884C185.802 396.204 185.962 396.599 185.962 397.072C185.962 397.544 185.802 397.94 185.482 398.259C185.162 398.579 184.774 398.739 184.317 398.739ZM189.873 395.039C191.334 393.775 192.484 392.739 193.322 391.932C194.174 391.11 194.883 390.257 195.446 389.374C196.009 388.491 196.291 387.607 196.291 386.724C196.291 385.81 196.07 385.095 195.629 384.577C195.202 384.059 194.525 383.8 193.596 383.8C192.697 383.8 191.997 384.09 191.494 384.668C191.007 385.232 190.748 385.993 190.718 386.952H188.205C188.251 385.217 188.769 383.892 189.758 382.978C190.763 382.049 192.035 381.585 193.573 381.585C195.233 381.585 196.527 382.041 197.456 382.955C198.4 383.869 198.872 385.087 198.872 386.61C198.872 387.706 198.591 388.765 198.027 389.785C197.479 390.79 196.817 391.696 196.04 392.503C195.279 393.295 194.304 394.216 193.116 395.267L192.088 396.181H199.329V398.351H188.228V396.455L189.873 395.039ZM201.206 385.947C201.206 384.836 201.525 383.968 202.165 383.343C202.82 382.704 203.657 382.384 204.678 382.384C205.698 382.384 206.528 382.704 207.167 383.343C207.822 383.968 208.15 384.836 208.15 385.947C208.15 387.059 207.822 387.935 207.167 388.574C206.528 389.214 205.698 389.534 204.678 389.534C203.657 389.534 202.82 389.214 202.165 388.574C201.525 387.935 201.206 387.059 201.206 385.947ZM215.139 382.681L206.025 398.579H203.467L212.581 382.681H215.139ZM204.678 383.96C203.718 383.96 203.239 384.623 203.239 385.947C203.239 387.288 203.718 387.958 204.678 387.958C205.134 387.958 205.485 387.798 205.728 387.478C205.987 387.143 206.117 386.633 206.117 385.947C206.117 384.623 205.637 383.96 204.678 383.96ZM210.502 395.29C210.502 394.178 210.822 393.31 211.462 392.686C212.117 392.046 212.954 391.726 213.974 391.726C214.979 391.726 215.802 392.046 216.441 392.686C217.096 393.31 217.423 394.178 217.423 395.29C217.423 396.401 217.096 397.277 216.441 397.917C215.802 398.556 214.979 398.876 213.974 398.876C212.954 398.876 212.117 398.556 211.462 397.917C210.822 397.277 210.502 396.401 210.502 395.29ZM213.951 393.303C212.992 393.303 212.512 393.965 212.512 395.29C212.512 396.615 212.992 397.277 213.951 397.277C214.911 397.277 215.391 396.615 215.391 395.29C215.391 393.965 214.911 393.303 213.951 393.303Z" fill="#0D6EFD"/>
<path d="M166.173 415.954L162.927 422.092V426.262H162.267V422.092L158.992 415.954H159.741L162.59 421.475L165.424 415.954H166.173ZM168.097 416.512C167.94 416.512 167.808 416.463 167.7 416.365C167.592 416.257 167.539 416.115 167.539 415.939C167.539 415.773 167.592 415.636 167.7 415.528C167.808 415.42 167.94 415.367 168.097 415.367C168.253 415.367 168.385 415.42 168.493 415.528C168.601 415.636 168.655 415.773 168.655 415.939C168.655 416.115 168.601 416.257 168.493 416.365C168.385 416.463 168.253 416.512 168.097 416.512ZM168.42 418.289V426.262H167.759V418.289H168.42ZM178.022 421.739C178.022 422.092 178.013 422.356 177.993 422.532H171.106C171.126 423.247 171.282 423.849 171.576 424.339C171.87 424.828 172.256 425.195 172.736 425.44C173.216 425.685 173.74 425.807 174.307 425.807C175.091 425.807 175.746 425.616 176.275 425.234C176.804 424.843 177.137 424.314 177.274 423.648H177.964C177.807 424.461 177.406 425.122 176.76 425.631C176.114 426.13 175.296 426.38 174.307 426.38C173.563 426.38 172.898 426.213 172.31 425.88C171.723 425.548 171.263 425.073 170.93 424.456C170.597 423.83 170.431 423.1 170.431 422.268C170.431 421.436 170.592 420.712 170.915 420.095C171.248 419.478 171.708 419.008 172.296 418.685C172.883 418.352 173.554 418.186 174.307 418.186C175.071 418.186 175.732 418.352 176.29 418.685C176.858 419.008 177.288 419.444 177.582 419.992C177.876 420.53 178.022 421.113 178.022 421.739ZM177.362 421.989C177.391 421.284 177.264 420.687 176.98 420.198C176.706 419.708 176.329 419.346 175.849 419.111C175.37 418.866 174.851 418.744 174.293 418.744C173.735 418.744 173.216 418.866 172.736 419.111C172.266 419.346 171.88 419.708 171.576 420.198C171.282 420.687 171.126 421.284 171.106 421.989H177.362ZM180.68 415.396V426.262H180.02V415.396H180.68ZM182.691 422.268C182.691 421.446 182.853 420.726 183.176 420.11C183.509 419.493 183.964 419.018 184.542 418.685C185.129 418.352 185.795 418.186 186.539 418.186C187.351 418.186 188.056 418.391 188.653 418.803C189.25 419.204 189.671 419.728 189.916 420.374V415.396H190.577V426.262H189.916V424.148C189.681 424.804 189.27 425.342 188.683 425.763C188.095 426.174 187.381 426.38 186.539 426.38C185.795 426.38 185.129 426.213 184.542 425.88C183.964 425.538 183.509 425.058 183.176 424.441C182.853 423.815 182.691 423.09 182.691 422.268ZM189.916 422.268C189.916 421.573 189.769 420.961 189.476 420.433C189.192 419.894 188.8 419.483 188.301 419.199C187.802 418.905 187.244 418.759 186.627 418.759C185.981 418.759 185.413 418.901 184.923 419.184C184.434 419.459 184.052 419.86 183.778 420.389C183.504 420.917 183.367 421.544 183.367 422.268C183.367 422.993 183.504 423.619 183.778 424.148C184.052 424.676 184.434 425.083 184.923 425.366C185.423 425.65 185.991 425.792 186.627 425.792C187.244 425.792 187.802 425.65 188.301 425.366C188.81 425.073 189.206 424.662 189.49 424.133C189.774 423.595 189.916 422.973 189.916 422.268Z" fill="#002036"/>
<g opacity="0.25">
<path d="M203.574 415.698C202.463 415.826 201.4 416.269 200.573 416.952C199.597 417.757 198.975 418.853 198.836 420.011C198.806 420.25 198.806 420.874 198.836 421.113C199.088 423.197 200.866 424.945 203.159 425.363C203.871 425.491 204.756 425.491 205.441 425.36C206.739 425.109 207.883 424.451 208.683 423.497C209.259 422.811 209.614 422.025 209.731 421.174C209.774 420.864 209.774 420.262 209.731 419.95C209.637 419.266 209.372 418.587 208.976 418.011C208.095 416.728 206.628 415.879 204.972 415.696C204.641 415.66 203.899 415.661 203.574 415.698ZM205.06 416.421C206.915 416.702 208.407 417.943 208.852 419.57C209.03 420.22 209.03 420.904 208.852 421.554C208.619 422.403 208.067 423.203 207.325 423.761C206.765 424.182 206.093 424.49 205.398 424.643C204.679 424.799 203.905 424.799 203.178 424.643C202.536 424.501 201.88 424.214 201.362 423.843C200.56 423.272 199.967 422.444 199.724 421.554C199.546 420.904 199.546 420.22 199.724 419.57C199.929 418.822 200.35 418.155 200.973 417.598C201.783 416.874 202.778 416.465 203.967 416.367C204.202 416.348 204.761 416.375 205.06 416.421Z" fill="#002036"/>
<path d="M204.067 418.256C203.692 418.38 203.573 418.732 203.818 418.983C204.141 419.312 204.813 419.159 204.877 418.742C204.905 418.566 204.772 418.371 204.565 418.275C204.464 418.231 204.178 418.22 204.067 418.256Z" fill="#002036"/>
<path d="M204.012 419.771C203.941 419.791 203.866 419.829 203.815 419.873L203.732 419.944V421.269V422.594L203.824 422.674C203.946 422.783 204.1 422.825 204.339 422.814C204.592 422.802 204.788 422.708 204.846 422.573C204.857 422.548 204.865 421.965 204.865 421.276C204.865 419.9 204.87 419.94 204.735 419.848C204.579 419.743 204.251 419.708 204.012 419.771Z" fill="#002036"/>
</g>
<path d="M159.431 333.707V330.76H164.936V347.412H161.647V333.707H159.431ZM168.095 338.869C168.095 336.235 168.567 334.171 169.512 332.679C170.471 331.187 172.055 330.44 174.263 330.44C176.471 330.44 178.047 331.187 178.991 332.679C179.95 334.171 180.43 336.235 180.43 338.869C180.43 341.519 179.95 343.597 178.991 345.105C178.047 346.613 176.471 347.366 174.263 347.366C172.055 347.366 170.471 346.613 169.512 345.105C168.567 343.597 168.095 341.519 168.095 338.869ZM177.278 338.869C177.278 337.742 177.202 336.798 177.049 336.037C176.912 335.26 176.623 334.628 176.181 334.141C175.755 333.654 175.115 333.41 174.263 333.41C173.41 333.41 172.763 333.654 172.321 334.141C171.895 334.628 171.605 335.26 171.453 336.037C171.316 336.798 171.247 337.742 171.247 338.869C171.247 340.027 171.316 341.001 171.453 341.793C171.59 342.57 171.879 343.202 172.321 343.689C172.763 344.161 173.41 344.397 174.263 344.397C175.115 344.397 175.763 344.161 176.204 343.689C176.646 343.202 176.935 342.57 177.072 341.793C177.209 341.001 177.278 340.027 177.278 338.869ZM182.862 338.869C182.862 336.235 183.334 334.171 184.279 332.679C185.238 331.187 186.822 330.44 189.03 330.44C191.238 330.44 192.814 331.187 193.758 332.679C194.717 334.171 195.197 336.235 195.197 338.869C195.197 341.519 194.717 343.597 193.758 345.105C192.814 346.613 191.238 347.366 189.03 347.366C186.822 347.366 185.238 346.613 184.279 345.105C183.334 343.597 182.862 341.519 182.862 338.869ZM192.045 338.869C192.045 337.742 191.969 336.798 191.816 336.037C191.679 335.26 191.39 334.628 190.948 334.141C190.522 333.654 189.882 333.41 189.03 333.41C188.177 333.41 187.53 333.654 187.088 334.141C186.662 334.628 186.372 335.26 186.22 336.037C186.083 336.798 186.015 337.742 186.015 338.869C186.015 340.027 186.083 341.001 186.22 341.793C186.357 342.57 186.646 343.202 187.088 343.689C187.53 344.161 188.177 344.397 189.03 344.397C189.882 344.397 190.53 344.161 190.971 343.689C191.413 343.202 191.702 342.57 191.839 341.793C191.976 341.001 192.045 340.027 192.045 338.869ZM210.838 347.572C209.346 347.572 207.976 347.222 206.727 346.521C205.478 345.821 204.488 344.854 203.757 343.62C203.027 342.372 202.661 340.963 202.661 339.395C202.661 337.841 203.027 336.448 203.757 335.214C204.488 333.966 205.478 332.991 206.727 332.291C207.976 331.59 209.346 331.24 210.838 331.24C212.346 331.24 213.717 331.59 214.95 332.291C216.199 332.991 217.181 333.966 217.897 335.214C218.628 336.448 218.993 337.841 218.993 339.395C218.993 340.963 218.628 342.372 217.897 343.62C217.181 344.854 216.199 345.821 214.95 346.521C213.701 347.222 212.331 347.572 210.838 347.572ZM210.838 344.717C211.798 344.717 212.643 344.504 213.374 344.077C214.105 343.636 214.676 343.011 215.087 342.204C215.498 341.397 215.704 340.461 215.704 339.395C215.704 338.329 215.498 337.4 215.087 336.608C214.676 335.801 214.105 335.184 213.374 334.758C212.643 334.331 211.798 334.118 210.838 334.118C209.879 334.118 209.026 334.331 208.28 334.758C207.549 335.184 206.978 335.801 206.567 336.608C206.156 337.4 205.95 338.329 205.95 339.395C205.95 340.461 206.156 341.397 206.567 342.204C206.978 343.011 207.549 343.636 208.28 344.077C209.026 344.504 209.879 344.717 210.838 344.717ZM220.55 341.085C220.55 339.775 220.816 338.633 221.349 337.659C221.882 336.669 222.621 335.907 223.565 335.374C224.509 334.826 225.59 334.552 226.809 334.552C228.377 334.552 229.672 334.948 230.692 335.74C231.727 336.516 232.42 337.613 232.77 339.029H229.321C229.139 338.481 228.826 338.054 228.385 337.75C227.958 337.43 227.425 337.27 226.786 337.27C225.872 337.27 225.149 337.605 224.616 338.275C224.083 338.93 223.816 339.867 223.816 341.085C223.816 342.288 224.083 343.224 224.616 343.894C225.149 344.549 225.872 344.877 226.786 344.877C228.08 344.877 228.925 344.298 229.321 343.141H232.77C232.42 344.511 231.727 345.6 230.692 346.407C229.656 347.214 228.362 347.618 226.809 347.618C225.59 347.618 224.509 347.351 223.565 346.818C222.621 346.27 221.882 345.509 221.349 344.534C220.816 343.544 220.55 342.394 220.55 341.085ZM246.877 340.811C246.877 341.268 246.846 341.679 246.785 342.044H237.534C237.611 342.958 237.93 343.674 238.494 344.191C239.057 344.709 239.75 344.968 240.572 344.968C241.76 344.968 242.605 344.458 243.108 343.438H246.557C246.192 344.656 245.491 345.661 244.456 346.453C243.42 347.229 242.149 347.618 240.641 347.618C239.423 347.618 238.326 347.351 237.352 346.818C236.392 346.27 235.639 345.501 235.09 344.511C234.557 343.521 234.291 342.379 234.291 341.085C234.291 339.775 234.557 338.626 235.09 337.636C235.623 336.646 236.369 335.884 237.329 335.352C238.288 334.819 239.392 334.552 240.641 334.552C241.844 334.552 242.918 334.811 243.862 335.329C244.821 335.846 245.56 336.585 246.077 337.544C246.61 338.488 246.877 339.577 246.877 340.811ZM243.565 339.897C243.549 339.075 243.253 338.42 242.674 337.933C242.095 337.43 241.387 337.179 240.55 337.179C239.758 337.179 239.088 337.423 238.539 337.91C238.006 338.382 237.679 339.044 237.557 339.897H243.565ZM248.389 341.039C248.389 339.76 248.64 338.626 249.142 337.636C249.66 336.646 250.353 335.884 251.221 335.352C252.104 334.819 253.087 334.552 254.168 334.552C255.112 334.552 255.934 334.742 256.635 335.123C257.35 335.504 257.921 335.983 258.348 336.562V334.758H261.569V347.412H258.348V345.562C257.937 346.156 257.366 346.651 256.635 347.047C255.919 347.427 255.089 347.618 254.145 347.618C253.079 347.618 252.104 347.344 251.221 346.795C250.353 346.247 249.66 345.478 249.142 344.488C248.64 343.483 248.389 342.334 248.389 341.039ZM258.348 341.085C258.348 340.308 258.196 339.646 257.891 339.098C257.586 338.534 257.175 338.108 256.657 337.818C256.14 337.514 255.584 337.362 254.99 337.362C254.396 337.362 253.848 337.506 253.345 337.796C252.843 338.085 252.432 338.511 252.112 339.075C251.807 339.623 251.655 340.278 251.655 341.039C251.655 341.801 251.807 342.471 252.112 343.049C252.432 343.613 252.843 344.047 253.345 344.351C253.863 344.656 254.411 344.808 254.99 344.808C255.584 344.808 256.14 344.663 256.657 344.374C257.175 344.07 257.586 343.643 257.891 343.095C258.196 342.532 258.348 341.861 258.348 341.085ZM271.704 334.575C273.212 334.575 274.43 335.055 275.359 336.014C276.288 336.958 276.752 338.283 276.752 339.988V347.412H273.555V340.422C273.555 339.417 273.303 338.648 272.801 338.115C272.298 337.567 271.613 337.293 270.745 337.293C269.862 337.293 269.161 337.567 268.643 338.115C268.141 338.648 267.89 339.417 267.89 340.422V347.412H264.692V334.758H267.89V336.334C268.316 335.786 268.857 335.359 269.511 335.055C270.182 334.735 270.912 334.575 271.704 334.575ZM290.81 331.468C292.485 331.468 293.954 331.796 295.218 332.451C296.497 333.105 297.48 334.042 298.165 335.26C298.865 336.463 299.216 337.864 299.216 339.463C299.216 341.062 298.865 342.463 298.165 343.666C297.48 344.854 296.497 345.775 295.218 346.43C293.954 347.085 292.485 347.412 290.81 347.412H285.236V331.468H290.81ZM290.696 344.694C292.371 344.694 293.665 344.237 294.579 343.323C295.492 342.41 295.949 341.123 295.949 339.463C295.949 337.803 295.492 336.509 294.579 335.58C293.665 334.636 292.371 334.164 290.696 334.164H288.434V344.694H290.696ZM304.807 336.722C305.218 336.052 305.751 335.527 306.406 335.146C307.076 334.765 307.838 334.575 308.69 334.575V337.933H307.845C306.84 337.933 306.079 338.169 305.561 338.641C305.059 339.113 304.807 339.935 304.807 341.108V347.412H301.609V334.758H304.807V336.722ZM312.466 333.25C311.903 333.25 311.431 333.075 311.05 332.725C310.684 332.359 310.502 331.91 310.502 331.377C310.502 330.844 310.684 330.402 311.05 330.052C311.431 329.687 311.903 329.504 312.466 329.504C313.03 329.504 313.494 329.687 313.86 330.052C314.24 330.402 314.431 330.844 314.431 331.377C314.431 331.91 314.24 332.359 313.86 332.725C313.494 333.075 313.03 333.25 312.466 333.25ZM314.042 334.758V347.412H310.844V334.758H314.042ZM322.478 344.465L325.676 334.758H329.08L324.397 347.412H320.514L315.854 334.758H319.28L322.478 344.465ZM342.639 340.811C342.639 341.268 342.609 341.679 342.548 342.044H333.297C333.373 342.958 333.693 343.674 334.256 344.191C334.82 344.709 335.513 344.968 336.335 344.968C337.523 344.968 338.368 344.458 338.87 343.438H342.32C341.954 344.656 341.254 345.661 340.218 346.453C339.183 347.229 337.911 347.618 336.404 347.618C335.185 347.618 334.089 347.351 333.114 346.818C332.155 346.27 331.401 345.501 330.853 344.511C330.32 343.521 330.053 342.379 330.053 341.085C330.053 339.775 330.32 338.626 330.853 337.636C331.386 336.646 332.132 335.884 333.091 335.352C334.051 334.819 335.155 334.552 336.404 334.552C337.607 334.552 338.68 334.811 339.624 335.329C340.584 335.846 341.322 336.585 341.84 337.544C342.373 338.488 342.639 339.577 342.639 340.811ZM339.327 339.897C339.312 339.075 339.015 338.42 338.436 337.933C337.858 337.43 337.15 337.179 336.312 337.179C335.52 337.179 334.85 337.423 334.302 337.91C333.769 338.382 333.442 339.044 333.32 339.897H339.327Z" fill="#002036"/>
<path d="M186.253 301.172V311.26H185.592V302.553L181.715 311.26H181.187L177.295 302.553V311.26H176.635V301.172H177.339L181.451 310.394L185.563 301.172H186.253ZM189.018 301.51C188.861 301.51 188.729 301.461 188.622 301.363C188.514 301.256 188.46 301.114 188.46 300.938C188.46 300.771 188.514 300.634 188.622 300.526C188.729 300.419 188.861 300.365 189.018 300.365C189.175 300.365 189.307 300.419 189.414 300.526C189.522 300.634 189.576 300.771 189.576 300.938C189.576 301.114 189.522 301.256 189.414 301.363C189.307 301.461 189.175 301.51 189.018 301.51ZM189.341 303.287V311.26H188.68V303.287H189.341ZM191.352 307.266C191.352 306.444 191.514 305.725 191.837 305.108C192.17 304.491 192.625 304.016 193.202 303.683C193.79 303.351 194.455 303.184 195.199 303.184C196.041 303.184 196.756 303.39 197.343 303.801C197.931 304.212 198.342 304.736 198.577 305.372V303.287H199.238V311.26H198.577V309.161C198.342 309.807 197.926 310.34 197.329 310.761C196.741 311.172 196.032 311.378 195.199 311.378C194.455 311.378 193.79 311.212 193.202 310.879C192.625 310.536 192.17 310.056 191.837 309.44C191.514 308.813 191.352 308.089 191.352 307.266ZM198.577 307.266C198.577 306.571 198.43 305.96 198.136 305.431C197.852 304.892 197.461 304.481 196.962 304.197C196.462 303.904 195.904 303.757 195.288 303.757C194.641 303.757 194.074 303.899 193.584 304.183C193.095 304.457 192.713 304.858 192.439 305.387C192.165 305.915 192.028 306.542 192.028 307.266C192.028 307.991 192.165 308.617 192.439 309.146C192.713 309.675 193.095 310.081 193.584 310.365C194.083 310.649 194.651 310.791 195.288 310.791C195.904 310.791 196.462 310.649 196.962 310.365C197.471 310.071 197.867 309.66 198.151 309.131C198.435 308.593 198.577 307.971 198.577 307.266ZM211.071 303.125C211.981 303.125 212.725 303.419 213.303 304.007C213.88 304.584 214.169 305.446 214.169 306.591V311.26H213.523V306.635C213.523 305.685 213.293 304.961 212.833 304.462C212.383 303.953 211.761 303.698 210.968 303.698C210.146 303.698 209.485 303.982 208.986 304.55C208.486 305.118 208.237 305.94 208.237 307.017V311.26H207.591V306.635C207.591 305.685 207.361 304.961 206.901 304.462C206.45 303.953 205.829 303.698 205.036 303.698C204.213 303.698 203.553 303.982 203.053 304.55C202.554 305.118 202.304 305.94 202.304 307.017V311.26H201.644V303.287H202.304V305.02C202.53 304.393 202.892 303.923 203.391 303.61C203.9 303.287 204.483 303.125 205.138 303.125C205.863 303.125 206.485 303.316 207.003 303.698C207.532 304.07 207.894 304.623 208.09 305.357C208.276 304.623 208.638 304.07 209.177 303.698C209.715 303.316 210.346 303.125 211.071 303.125ZM216.852 301.51C216.695 301.51 216.563 301.461 216.455 301.363C216.348 301.256 216.294 301.114 216.294 300.938C216.294 300.771 216.348 300.634 216.455 300.526C216.563 300.419 216.695 300.365 216.852 300.365C217.009 300.365 217.141 300.419 217.248 300.526C217.356 300.634 217.41 300.771 217.41 300.938C217.41 301.114 217.356 301.256 217.248 301.363C217.141 301.461 217.009 301.51 216.852 301.51ZM217.175 303.287V311.26H216.514V303.287H217.175ZM220.038 309.719L218.658 313.478H218.158L219.274 309.719H220.038ZM231.151 300.952V301.51H226.496V305.813H230.564V306.371H226.496V311.26H225.835V300.952H231.151ZM233.566 310.702H237.398V311.26H232.905V300.952H233.566V310.702ZM242.779 303.551C242.867 302.66 243.21 301.961 243.807 301.451C244.414 300.942 245.212 300.688 246.2 300.688C246.837 300.688 247.38 300.805 247.83 301.04C248.281 301.265 248.623 301.574 248.858 301.965C249.093 302.357 249.211 302.802 249.211 303.302C249.211 303.928 249.02 304.472 248.638 304.932C248.256 305.382 247.674 305.651 246.891 305.739V305.827C247.644 305.945 248.251 306.234 248.711 306.694C249.171 307.154 249.402 307.771 249.402 308.544C249.402 309.366 249.127 310.042 248.579 310.57C248.041 311.089 247.248 311.349 246.2 311.349C245.212 311.349 244.394 311.084 243.748 310.556C243.112 310.027 242.73 309.278 242.603 308.309H243.249C243.366 309.033 243.68 309.626 244.189 310.086C244.698 310.536 245.368 310.761 246.2 310.761C247.042 310.761 247.679 310.551 248.109 310.13C248.55 309.709 248.77 309.166 248.77 308.5C248.77 307.697 248.462 307.095 247.845 306.694C247.238 306.292 246.367 306.092 245.231 306.092H244.952V305.519H245.246C247.458 305.509 248.565 304.785 248.565 303.346C248.565 302.719 248.354 302.215 247.933 301.833C247.522 301.451 246.939 301.261 246.186 301.261C245.451 301.261 244.83 301.456 244.321 301.848C243.822 302.23 243.523 302.798 243.425 303.551H242.779ZM251.297 303.551C251.385 302.66 251.728 301.961 252.325 301.451C252.932 300.942 253.73 300.688 254.718 300.688C255.355 300.688 255.898 300.805 256.348 301.04C256.799 301.265 257.141 301.574 257.376 301.965C257.611 302.357 257.729 302.802 257.729 303.302C257.729 303.928 257.538 304.472 257.156 304.932C256.774 305.382 256.192 305.651 255.408 305.739V305.827C256.162 305.945 256.769 306.234 257.229 306.694C257.689 307.154 257.919 307.771 257.919 308.544C257.919 309.366 257.645 310.042 257.097 310.57C256.559 311.089 255.766 311.349 254.718 311.349C253.73 311.349 252.912 311.084 252.266 310.556C251.63 310.027 251.248 309.278 251.121 308.309H251.767C251.884 309.033 252.198 309.626 252.707 310.086C253.216 310.536 253.886 310.761 254.718 310.761C255.56 310.761 256.197 310.551 256.627 310.13C257.068 309.709 257.288 309.166 257.288 308.5C257.288 307.697 256.98 307.095 256.363 306.694C255.756 306.292 254.885 306.092 253.749 306.092H253.47V305.519H253.764C255.976 305.509 257.082 304.785 257.082 303.346C257.082 302.719 256.872 302.215 256.451 301.833C256.04 301.451 255.457 301.261 254.704 301.261C253.969 301.261 253.348 301.456 252.839 301.848C252.339 302.23 252.041 302.798 251.943 303.551H251.297ZM259.609 310.776C261.45 309.503 262.899 308.275 263.956 307.09C265.023 305.906 265.556 304.77 265.556 303.683C265.556 302.969 265.365 302.386 264.984 301.936C264.612 301.486 264 301.261 263.148 301.261C262.296 301.261 261.645 301.52 261.195 302.039C260.745 302.558 260.49 303.243 260.432 304.095H259.786C259.854 303.018 260.187 302.181 260.784 301.584C261.381 300.986 262.169 300.688 263.148 300.688C264.039 300.688 264.768 300.938 265.336 301.437C265.914 301.936 266.202 302.68 266.202 303.669C266.202 304.892 265.64 306.126 264.514 307.369C263.398 308.612 262.12 309.709 260.681 310.658H266.54V311.216H259.609V310.776ZM274.739 301.407H269.1V305.622C269.364 305.25 269.751 304.946 270.26 304.711C270.769 304.467 271.322 304.344 271.919 304.344C272.712 304.344 273.358 304.506 273.858 304.829C274.367 305.142 274.734 305.553 274.959 306.062C275.184 306.571 275.297 307.124 275.297 307.722C275.297 308.387 275.174 308.994 274.929 309.542C274.685 310.081 274.298 310.516 273.769 310.849C273.251 311.172 272.595 311.334 271.802 311.334C270.842 311.334 270.049 311.074 269.423 310.556C268.806 310.027 268.429 309.317 268.292 308.426H268.938C269.085 309.18 269.413 309.758 269.922 310.159C270.431 310.551 271.058 310.747 271.802 310.747C272.751 310.747 273.466 310.472 273.946 309.924C274.425 309.366 274.665 308.637 274.665 307.736C274.665 306.855 274.42 306.165 273.931 305.666C273.451 305.167 272.761 304.917 271.86 304.917C271.244 304.917 270.691 305.054 270.201 305.328C269.721 305.602 269.349 305.979 269.085 306.459H268.468V300.82H274.739V301.407ZM278.108 308.529C278.206 309.244 278.465 309.797 278.886 310.189C279.317 310.58 279.895 310.776 280.619 310.776C281.608 310.776 282.357 310.409 282.866 309.675C283.385 308.94 283.644 307.751 283.644 306.106L283.629 305.534C283.483 306.18 283.115 306.694 282.528 307.076C281.951 307.457 281.275 307.648 280.502 307.648C279.444 307.648 278.612 307.335 278.005 306.708C277.398 306.082 277.095 305.216 277.095 304.109C277.095 303.13 277.374 302.318 277.932 301.672C278.5 301.016 279.351 300.688 280.487 300.688C281.916 300.688 282.895 301.143 283.424 302.054C283.962 302.964 284.231 304.232 284.231 305.857C284.231 307.648 283.952 309.014 283.394 309.954C282.836 310.884 281.902 311.349 280.59 311.349C279.67 311.349 278.945 311.094 278.417 310.585C277.888 310.066 277.575 309.381 277.477 308.529H278.108ZM280.575 307.09C281.074 307.09 281.549 306.987 281.999 306.782C282.45 306.566 282.812 306.253 283.086 305.842C283.37 305.431 283.512 304.932 283.512 304.344C283.512 303.786 283.404 303.272 283.189 302.802C282.974 302.333 282.636 301.956 282.176 301.672C281.725 301.388 281.162 301.246 280.487 301.246C279.655 301.246 278.984 301.505 278.475 302.024C277.976 302.533 277.726 303.228 277.726 304.109C277.726 305.059 277.976 305.793 278.475 306.312C278.975 306.831 279.674 307.09 280.575 307.09Z" fill="#264154"/>
<path opacity="0.35" d="M163.305 299.024C162.507 299.144 161.851 299.378 161.213 299.768C160.126 300.433 159.37 301.466 159.093 302.662C159.009 303.016 158.978 303.729 159.028 304.102C159.171 305.166 159.783 306.463 160.795 307.843C161.252 308.465 161.974 309.316 162.554 309.921C162.881 310.259 163.563 310.928 163.744 311.089C163.898 311.222 163.924 311.237 164.029 311.237C164.139 311.237 164.146 311.232 164.486 310.916C165.757 309.728 166.959 308.333 167.715 307.173C168.436 306.066 168.863 305.078 169.006 304.181C169.069 303.774 169.046 303.054 168.954 302.662C168.533 300.842 167.022 299.46 165.03 299.072C164.756 299.017 164.64 299.007 164.115 299.003C163.702 298.996 163.448 299.003 163.305 299.024ZM164.599 301.562C164.857 301.622 165.268 301.813 165.474 301.973C166.499 302.763 166.583 304.15 165.66 305.037C164.986 305.685 163.851 305.855 162.983 305.437C162.384 305.147 161.956 304.647 161.801 304.061C161.731 303.784 161.731 303.382 161.801 303.105C161.914 302.679 162.207 302.251 162.58 301.966C162.779 301.815 163.197 301.619 163.448 301.56C163.791 301.478 164.248 301.478 164.599 301.562Z" fill="#264154"/>
<path d="M134 20C134 8.95431 142.954 0 154 0H509.969C521.015 0 529.969 8.95431 529.969 20V265H134V20Z" fill="url(#pattern0)"/>
<defs>
<pattern id="pattern0" patternContentUnits="objectBoundingBox" width="1" height="1">
<use xlink:href="#image0_6432_11017" transform="matrix(0.000702988 0 0 0.00105042 -0.00228462 0)"/>
</pattern>
</defs>
</svg>
