<svg width="390" height="366" viewBox="0 0 390 366" fill="none" xmlns="http://www.w3.org/2000/svg" xmlns:xlink="http://www.w3.org/1999/xlink">
<rect opacity="0.1" x="-10" y="32.1487" width="410.514" height="272.027" rx="9.89189" fill="#CCD2D7"/>
<path d="M73.3002 157.489H317.214V353.635C317.214 360.212 311.882 365.544 305.304 365.544H85.2096C78.6323 365.544 73.3002 360.212 73.3002 353.635V157.489Z" fill="#FCFDFD" stroke="#F2F4F5" stroke-width="0.911037"/>
<path d="M166.208 334.949C166.044 334.634 165.817 334.398 165.527 334.24C165.236 334.077 164.9 333.995 164.519 333.995C164.101 333.995 163.729 334.089 163.402 334.277C163.075 334.464 162.818 334.731 162.631 335.076C162.449 335.421 162.358 335.82 162.358 336.274C162.358 336.728 162.449 337.13 162.631 337.481C162.818 337.826 163.075 338.093 163.402 338.28C163.729 338.468 164.101 338.562 164.519 338.562C165.082 338.562 165.539 338.404 165.89 338.09C166.241 337.775 166.456 337.348 166.534 336.81H164.165V335.984H167.642V336.791C167.575 337.282 167.4 337.733 167.115 338.144C166.837 338.556 166.471 338.886 166.017 339.134C165.569 339.376 165.07 339.497 164.519 339.497C163.926 339.497 163.384 339.361 162.894 339.088C162.404 338.81 162.013 338.426 161.723 337.935C161.438 337.445 161.296 336.891 161.296 336.274C161.296 335.657 161.438 335.103 161.723 334.613C162.013 334.122 162.404 333.741 162.894 333.469C163.39 333.19 163.932 333.051 164.519 333.051C165.191 333.051 165.787 333.218 166.307 333.551C166.834 333.877 167.215 334.343 167.451 334.949H166.208ZM170.832 339.524C170.36 339.524 169.934 339.418 169.552 339.206C169.171 338.988 168.871 338.686 168.654 338.299C168.436 337.905 168.327 337.451 168.327 336.937C168.327 336.428 168.439 335.977 168.663 335.584C168.887 335.191 169.192 334.888 169.58 334.676C169.967 334.464 170.4 334.358 170.878 334.358C171.356 334.358 171.789 334.464 172.176 334.676C172.563 334.888 172.869 335.191 173.093 335.584C173.317 335.977 173.429 336.428 173.429 336.937C173.429 337.445 173.314 337.896 173.084 338.289C172.854 338.683 172.539 338.988 172.14 339.206C171.746 339.418 171.311 339.524 170.832 339.524ZM170.832 338.625C171.099 338.625 171.347 338.562 171.577 338.435C171.813 338.308 172.003 338.117 172.149 337.863C172.294 337.609 172.367 337.3 172.367 336.937C172.367 336.574 172.297 336.268 172.158 336.02C172.019 335.766 171.834 335.575 171.604 335.448C171.374 335.321 171.126 335.257 170.86 335.257C170.593 335.257 170.345 335.321 170.115 335.448C169.891 335.575 169.713 335.766 169.58 336.02C169.446 336.268 169.38 336.574 169.38 336.937C169.38 337.475 169.516 337.893 169.788 338.19C170.067 338.48 170.415 338.625 170.832 338.625ZM178.018 335.284V338.053C178.018 338.241 178.06 338.377 178.145 338.462C178.235 338.541 178.387 338.58 178.599 338.58H179.234V339.442H178.417C177.951 339.442 177.594 339.333 177.346 339.116C177.098 338.898 176.974 338.544 176.974 338.053V335.284H176.383V334.44H176.974V333.196H178.018V334.44H179.234V335.284H178.018ZM182.358 339.524C181.886 339.524 181.459 339.418 181.078 339.206C180.696 338.988 180.397 338.686 180.179 338.299C179.961 337.905 179.852 337.451 179.852 336.937C179.852 336.428 179.964 335.977 180.188 335.584C180.412 335.191 180.718 334.888 181.105 334.676C181.492 334.464 181.925 334.358 182.403 334.358C182.881 334.358 183.314 334.464 183.701 334.676C184.089 334.888 184.394 335.191 184.618 335.584C184.842 335.977 184.954 336.428 184.954 336.937C184.954 337.445 184.839 337.896 184.609 338.289C184.379 338.683 184.064 338.988 183.665 339.206C183.272 339.418 182.836 339.524 182.358 339.524ZM182.358 338.625C182.624 338.625 182.872 338.562 183.102 338.435C183.338 338.308 183.529 338.117 183.674 337.863C183.819 337.609 183.892 337.3 183.892 336.937C183.892 336.574 183.822 336.268 183.683 336.02C183.544 335.766 183.359 335.575 183.129 335.448C182.899 335.321 182.651 335.257 182.385 335.257C182.119 335.257 181.87 335.321 181.64 335.448C181.417 335.575 181.238 335.766 181.105 336.02C180.972 336.268 180.905 336.574 180.905 336.937C180.905 337.475 181.041 337.893 181.314 338.19C181.592 338.48 181.94 338.625 182.358 338.625ZM189.37 335.176C189.546 334.946 189.785 334.752 190.088 334.595C190.39 334.437 190.732 334.358 191.113 334.358C191.549 334.358 191.946 334.467 192.303 334.685C192.666 334.897 192.95 335.197 193.156 335.584C193.362 335.971 193.465 336.416 193.465 336.919C193.465 337.421 193.362 337.872 193.156 338.271C192.95 338.665 192.666 338.973 192.303 339.197C191.946 339.415 191.549 339.524 191.113 339.524C190.732 339.524 190.393 339.448 190.097 339.297C189.8 339.14 189.558 338.946 189.37 338.716V341.821H188.335V334.44H189.37V335.176ZM192.412 336.919C192.412 336.574 192.339 336.277 192.194 336.029C192.055 335.775 191.867 335.584 191.631 335.457C191.401 335.324 191.153 335.257 190.886 335.257C190.626 335.257 190.378 335.324 190.142 335.457C189.912 335.59 189.724 335.784 189.579 336.038C189.44 336.292 189.37 336.592 189.37 336.937C189.37 337.282 189.44 337.584 189.579 337.845C189.724 338.099 189.912 338.292 190.142 338.426C190.378 338.559 190.626 338.625 190.886 338.625C191.153 338.625 191.401 338.559 191.631 338.426C191.867 338.286 192.055 338.087 192.194 337.826C192.339 337.566 192.412 337.264 192.412 336.919ZM194.143 336.919C194.143 336.416 194.246 335.971 194.452 335.584C194.664 335.197 194.948 334.897 195.305 334.685C195.668 334.467 196.068 334.358 196.504 334.358C196.897 334.358 197.239 334.437 197.529 334.595C197.826 334.746 198.062 334.936 198.238 335.166V334.44H199.282V339.442H198.238V338.698C198.062 338.934 197.823 339.131 197.52 339.288C197.218 339.445 196.873 339.524 196.485 339.524C196.056 339.524 195.662 339.415 195.305 339.197C194.948 338.973 194.664 338.665 194.452 338.271C194.246 337.872 194.143 337.421 194.143 336.919ZM198.238 336.937C198.238 336.592 198.165 336.292 198.02 336.038C197.88 335.784 197.696 335.59 197.466 335.457C197.236 335.324 196.988 335.257 196.721 335.257C196.455 335.257 196.207 335.324 195.977 335.457C195.747 335.584 195.559 335.775 195.414 336.029C195.275 336.277 195.205 336.574 195.205 336.919C195.205 337.264 195.275 337.566 195.414 337.826C195.559 338.087 195.747 338.286 195.977 338.426C196.213 338.559 196.461 338.625 196.721 338.625C196.988 338.625 197.236 338.559 197.466 338.426C197.696 338.292 197.88 338.099 198.02 337.845C198.165 337.584 198.238 337.282 198.238 336.937ZM205.144 334.44L202.075 341.794H201.004L202.021 339.361L200.051 334.44H201.204L202.611 338.253L204.073 334.44H205.144ZM211.98 334.358C212.374 334.358 212.725 334.44 213.033 334.604C213.348 334.767 213.593 335.009 213.769 335.33C213.95 335.651 214.041 336.038 214.041 336.492V339.442H213.015V336.646C213.015 336.198 212.903 335.856 212.679 335.62C212.455 335.378 212.15 335.257 211.762 335.257C211.375 335.257 211.066 335.378 210.836 335.62C210.612 335.856 210.5 336.198 210.5 336.646V339.442H209.474V336.646C209.474 336.198 209.363 335.856 209.139 335.62C208.915 335.378 208.609 335.257 208.222 335.257C207.834 335.257 207.526 335.378 207.296 335.62C207.072 335.856 206.96 336.198 206.96 336.646V339.442H205.925V334.44H206.96V335.012C207.129 334.806 207.344 334.646 207.604 334.531C207.865 334.416 208.143 334.358 208.44 334.358C208.839 334.358 209.196 334.443 209.511 334.613C209.826 334.782 210.068 335.027 210.237 335.348C210.388 335.045 210.624 334.806 210.945 334.631C211.266 334.449 211.611 334.358 211.98 334.358ZM219.942 336.819C219.942 337.006 219.93 337.176 219.906 337.327H216.084C216.114 337.727 216.263 338.047 216.529 338.289C216.795 338.532 217.122 338.653 217.509 338.653C218.066 338.653 218.46 338.42 218.69 337.954H219.806C219.655 338.413 219.38 338.792 218.98 339.088C218.587 339.379 218.096 339.524 217.509 339.524C217.031 339.524 216.602 339.418 216.22 339.206C215.845 338.988 215.548 338.686 215.331 338.299C215.119 337.905 215.013 337.451 215.013 336.937C215.013 336.422 215.116 335.971 215.322 335.584C215.533 335.191 215.827 334.888 216.202 334.676C216.583 334.464 217.019 334.358 217.509 334.358C217.982 334.358 218.402 334.461 218.771 334.667C219.141 334.873 219.428 335.163 219.634 335.539C219.84 335.908 219.942 336.335 219.942 336.819ZM218.862 336.492C218.856 336.111 218.72 335.805 218.454 335.575C218.187 335.345 217.857 335.23 217.464 335.23C217.107 335.23 216.801 335.345 216.547 335.575C216.293 335.799 216.142 336.105 216.093 336.492H218.862ZM223.485 334.358C223.878 334.358 224.229 334.44 224.538 334.604C224.853 334.767 225.098 335.009 225.273 335.33C225.449 335.651 225.536 336.038 225.536 336.492V339.442H224.511V336.646C224.511 336.198 224.399 335.856 224.175 335.62C223.951 335.378 223.645 335.257 223.258 335.257C222.87 335.257 222.562 335.378 222.332 335.62C222.108 335.856 221.996 336.198 221.996 336.646V339.442H220.961V334.44H221.996V335.012C222.165 334.806 222.38 334.646 222.64 334.531C222.907 334.416 223.188 334.358 223.485 334.358ZM228.064 335.284V338.053C228.064 338.241 228.106 338.377 228.191 338.462C228.282 338.541 228.433 338.58 228.645 338.58H229.28V339.442H228.463C227.997 339.442 227.64 339.333 227.392 339.116C227.144 338.898 227.02 338.544 227.02 338.053V335.284H226.43V334.44H227.02V333.196H228.064V334.44H229.28V335.284H228.064Z" fill="#002036"/>
<rect x="83.0454" y="323.032" width="224.422" height="27.8209" rx="6.75185" stroke="#0D6EFD" stroke-opacity="0.5" stroke-width="0.618243"/>
<path d="M271.985 296.663H267.254V299.474C267.451 299.21 267.743 298.989 268.129 298.81C268.525 298.631 268.944 298.541 269.386 298.541C270.177 298.541 270.817 298.711 271.307 299.05C271.806 299.389 272.159 299.817 272.366 300.335C272.582 300.853 272.691 301.399 272.691 301.973C272.691 302.67 272.554 303.291 272.281 303.837C272.018 304.374 271.617 304.798 271.081 305.108C270.554 305.419 269.904 305.574 269.132 305.574C268.106 305.574 267.282 305.32 266.661 304.812C266.039 304.303 265.667 303.63 265.545 302.792H267.113C267.216 303.235 267.447 303.588 267.805 303.851C268.162 304.106 268.609 304.233 269.146 304.233C269.815 304.233 270.314 304.03 270.643 303.625C270.982 303.221 271.151 302.684 271.151 302.015C271.151 301.338 270.982 300.82 270.643 300.462C270.304 300.095 269.805 299.911 269.146 299.911C268.685 299.911 268.294 300.029 267.974 300.264C267.663 300.49 267.437 300.801 267.296 301.196H265.771V295.251H271.985V296.663ZM274.367 300.293C274.367 298.664 274.64 297.393 275.186 296.48C275.741 295.557 276.692 295.096 278.038 295.096C279.385 295.096 280.331 295.557 280.877 296.48C281.432 297.393 281.71 298.664 281.71 300.293C281.71 301.94 281.432 303.23 280.877 304.162C280.331 305.085 279.385 305.546 278.038 305.546C276.692 305.546 275.741 305.085 275.186 304.162C274.64 303.23 274.367 301.94 274.367 300.293ZM280.128 300.293C280.128 299.53 280.077 298.885 279.973 298.358C279.879 297.831 279.681 297.402 279.38 297.073C279.079 296.734 278.631 296.564 278.038 296.564C277.445 296.564 276.998 296.734 276.697 297.073C276.395 297.402 276.193 297.831 276.089 298.358C275.995 298.885 275.948 299.53 275.948 300.293C275.948 301.083 275.995 301.747 276.089 302.284C276.184 302.82 276.381 303.254 276.683 303.583C276.993 303.913 277.445 304.077 278.038 304.077C278.631 304.077 279.079 303.913 279.38 303.583C279.691 303.254 279.893 302.82 279.987 302.284C280.081 301.747 280.128 301.083 280.128 300.293Z" fill="#0D6EFD"/>
<path d="M303.14 299.807C303.14 303.709 299.959 306.875 296.03 306.875C292.102 306.875 288.92 303.709 288.92 299.807C288.92 295.904 292.102 292.738 296.03 292.738C299.959 292.738 303.14 295.904 303.14 299.807Z" fill="#F2F4F5" stroke="#F2F4F5" stroke-width="0.618243"/>
<path opacity="0.5" d="M296.766 299.143H298.535C298.876 299.143 299.153 299.42 299.153 299.762V299.966C299.153 300.307 298.876 300.584 298.535 300.584H296.766V302.352C296.766 302.694 296.49 302.97 296.148 302.97H295.944C295.603 302.97 295.326 302.694 295.326 302.352V300.584H293.558C293.216 300.584 292.939 300.307 292.939 299.966V299.762C292.939 299.42 293.216 299.143 293.558 299.143H295.326V297.375C295.326 297.034 295.603 296.757 295.944 296.757H296.148C296.49 296.757 296.766 297.034 296.766 297.375V299.143Z" fill="#002036"/>
<path d="M256.772 299.807C256.772 303.709 253.59 306.875 249.662 306.875C245.734 306.875 242.552 303.709 242.552 299.807C242.552 295.904 245.734 292.738 249.662 292.738C253.59 292.738 256.772 295.904 256.772 299.807Z" fill="#F2F4F5" stroke="#F2F4F5" stroke-width="0.618243"/>
<path opacity="0.5" d="M252.167 299.23C252.508 299.23 252.785 299.507 252.785 299.848V300.052C252.785 300.393 252.508 300.67 252.167 300.67H247.19C246.848 300.67 246.571 300.393 246.571 300.052V299.848C246.571 299.507 246.848 299.23 247.19 299.23H252.167Z" fill="#002036"/>
<path d="M89.9428 297.48V301.843C89.9428 302.456 90.0912 302.911 90.388 303.208C90.6913 303.505 91.1101 303.653 91.6442 303.653C92.1718 303.653 92.584 303.505 92.8807 303.208C93.1841 302.911 93.3358 302.456 93.3358 301.843V297.48H94.2359V301.833C94.2359 302.407 94.1205 302.891 93.8897 303.287C93.6589 303.676 93.3456 303.966 92.95 304.157C92.5609 304.349 92.1223 304.444 91.6343 304.444C91.1463 304.444 90.7045 304.349 90.3088 304.157C89.9198 303.966 89.6098 303.676 89.379 303.287C89.1548 302.891 89.0427 302.407 89.0427 301.833V297.48H89.9428ZM98.3787 298.855C99.0381 298.855 99.5723 299.056 99.9812 299.459C100.39 299.854 100.594 300.428 100.594 301.18V304.375H99.7042V301.309C99.7042 300.768 99.569 300.356 99.2986 300.072C99.0283 299.782 98.659 299.637 98.1907 299.637C97.7159 299.637 97.3367 299.785 97.0532 300.082C96.7762 300.379 96.6377 300.811 96.6377 301.378V304.375H95.7376V298.954H96.6377V299.726C96.8158 299.449 97.0565 299.235 97.3598 299.083C97.6698 298.931 98.0094 298.855 98.3787 298.855ZM102.53 298.074C102.358 298.074 102.213 298.015 102.095 297.896C101.976 297.777 101.917 297.632 101.917 297.461C101.917 297.289 101.976 297.144 102.095 297.025C102.213 296.907 102.358 296.847 102.53 296.847C102.695 296.847 102.833 296.907 102.945 297.025C103.064 297.144 103.123 297.289 103.123 297.461C103.123 297.632 103.064 297.777 102.945 297.896C102.833 298.015 102.695 298.074 102.53 298.074ZM102.965 298.954V304.375H102.065V298.954H102.965ZM105.597 299.696V302.891C105.597 303.155 105.653 303.343 105.765 303.455C105.877 303.561 106.072 303.613 106.349 303.613H107.012V304.375H106.201C105.699 304.375 105.324 304.26 105.073 304.029C104.822 303.798 104.697 303.419 104.697 302.891V299.696H103.995V298.954H104.697V297.589H105.597V298.954H107.012V299.696H105.597ZM110.021 304.464C109.606 304.464 109.233 304.395 108.904 304.256C108.574 304.111 108.313 303.913 108.122 303.663C107.931 303.406 107.825 303.112 107.806 302.782H108.735C108.762 303.053 108.887 303.274 109.111 303.445C109.342 303.617 109.642 303.702 110.012 303.702C110.354 303.702 110.625 303.627 110.823 303.475C111.021 303.323 111.119 303.132 111.119 302.901C111.119 302.664 111.014 302.489 110.803 302.377C110.592 302.258 110.265 302.143 109.824 302.031C109.421 301.925 109.092 301.82 108.834 301.714C108.584 301.602 108.366 301.44 108.182 301.229C108.003 301.012 107.914 300.728 107.914 300.379C107.914 300.102 107.997 299.848 108.162 299.617C108.327 299.386 108.561 299.205 108.864 299.073C109.167 298.934 109.514 298.865 109.903 298.865C110.503 298.865 110.988 299.017 111.357 299.32C111.726 299.624 111.924 300.039 111.95 300.567H111.05C111.03 300.283 110.915 300.056 110.704 299.884C110.5 299.713 110.223 299.627 109.873 299.627C109.55 299.627 109.293 299.696 109.101 299.835C108.91 299.973 108.815 300.154 108.815 300.379C108.815 300.557 108.871 300.705 108.983 300.824C109.101 300.936 109.247 301.028 109.418 301.101C109.596 301.167 109.84 301.243 110.15 301.328C110.539 301.434 110.856 301.539 111.1 301.645C111.344 301.744 111.551 301.895 111.723 302.1C111.901 302.304 111.993 302.571 112 302.901C112 303.198 111.917 303.465 111.753 303.702C111.588 303.94 111.354 304.128 111.05 304.266C110.753 304.398 110.411 304.464 110.021 304.464ZM115.571 301.645C115.571 301.091 115.684 300.606 115.908 300.191C116.132 299.769 116.439 299.442 116.828 299.211C117.223 298.981 117.665 298.865 118.153 298.865C118.621 298.865 119.03 298.971 119.38 299.182C119.736 299.386 119.996 299.64 120.161 299.943V298.954H121.071V306.947H120.161V303.376C119.99 303.679 119.726 303.936 119.37 304.147C119.014 304.359 118.598 304.464 118.124 304.464C117.649 304.464 117.217 304.345 116.828 304.108C116.439 303.871 116.132 303.537 115.908 303.109C115.684 302.68 115.571 302.192 115.571 301.645ZM120.161 301.655C120.161 301.246 120.079 300.89 119.914 300.586C119.749 300.283 119.525 300.052 119.241 299.894C118.964 299.729 118.658 299.647 118.321 299.647C117.985 299.647 117.678 299.726 117.401 299.884C117.124 300.042 116.904 300.273 116.739 300.577C116.574 300.88 116.491 301.236 116.491 301.645C116.491 302.06 116.574 302.423 116.739 302.733C116.904 303.036 117.124 303.27 117.401 303.435C117.678 303.594 117.985 303.673 118.321 303.673C118.658 303.673 118.964 303.594 119.241 303.435C119.525 303.27 119.749 303.036 119.914 302.733C120.079 302.423 120.161 302.064 120.161 301.655ZM127.4 298.954V304.375H126.5V303.574C126.328 303.851 126.088 304.068 125.778 304.227C125.474 304.378 125.138 304.454 124.769 304.454C124.347 304.454 123.967 304.368 123.631 304.197C123.295 304.019 123.028 303.755 122.83 303.406C122.639 303.056 122.543 302.631 122.543 302.13V298.954H123.433V302.011C123.433 302.545 123.568 302.957 123.839 303.247C124.109 303.531 124.479 303.673 124.947 303.673C125.428 303.673 125.807 303.524 126.084 303.228C126.361 302.931 126.5 302.499 126.5 301.932V298.954H127.4ZM128.584 301.645C128.584 301.091 128.696 300.606 128.92 300.191C129.144 299.769 129.451 299.442 129.84 299.211C130.235 298.981 130.674 298.865 131.155 298.865C131.63 298.865 132.042 298.967 132.392 299.172C132.741 299.376 133.002 299.633 133.173 299.943V298.954H134.083V304.375H133.173V303.366C132.995 303.683 132.728 303.946 132.372 304.157C132.023 304.362 131.614 304.464 131.146 304.464C130.664 304.464 130.229 304.345 129.84 304.108C129.451 303.871 129.144 303.537 128.92 303.109C128.696 302.68 128.584 302.192 128.584 301.645ZM133.173 301.655C133.173 301.246 133.091 300.89 132.926 300.586C132.761 300.283 132.537 300.052 132.253 299.894C131.976 299.729 131.67 299.647 131.333 299.647C130.997 299.647 130.69 299.726 130.414 299.884C130.137 300.042 129.916 300.273 129.751 300.577C129.586 300.88 129.503 301.236 129.503 301.645C129.503 302.06 129.586 302.423 129.751 302.733C129.916 303.036 130.137 303.27 130.414 303.435C130.69 303.594 130.997 303.673 131.333 303.673C131.67 303.673 131.976 303.594 132.253 303.435C132.537 303.27 132.761 303.036 132.926 302.733C133.091 302.423 133.173 302.064 133.173 301.655ZM138.246 298.855C138.905 298.855 139.439 299.056 139.848 299.459C140.257 299.854 140.461 300.428 140.461 301.18V304.375H139.571V301.309C139.571 300.768 139.436 300.356 139.166 300.072C138.895 299.782 138.526 299.637 138.058 299.637C137.583 299.637 137.204 299.785 136.92 300.082C136.643 300.379 136.505 300.811 136.505 301.378V304.375H135.605V298.954H136.505V299.726C136.683 299.449 136.923 299.235 137.227 299.083C137.537 298.931 137.876 298.855 138.246 298.855ZM143.03 299.696V302.891C143.03 303.155 143.086 303.343 143.198 303.455C143.31 303.561 143.505 303.613 143.782 303.613H144.444V304.375H143.633C143.132 304.375 142.756 304.26 142.506 304.029C142.255 303.798 142.13 303.419 142.13 302.891V299.696H141.427V298.954H142.13V297.589H143.03V298.954H144.444V299.696H143.03ZM146 298.074C145.829 298.074 145.683 298.015 145.565 297.896C145.446 297.777 145.387 297.632 145.387 297.461C145.387 297.289 145.446 297.144 145.565 297.025C145.683 296.907 145.829 296.847 146 296.847C146.165 296.847 146.303 296.907 146.415 297.025C146.534 297.144 146.594 297.289 146.594 297.461C146.594 297.632 146.534 297.777 146.415 297.896C146.303 298.015 146.165 298.074 146 298.074ZM146.435 298.954V304.375H145.535V298.954H146.435ZM149.067 299.696V302.891C149.067 303.155 149.123 303.343 149.236 303.455C149.348 303.561 149.542 303.613 149.819 303.613H150.482V304.375H149.671C149.17 304.375 148.794 304.26 148.543 304.029C148.293 303.798 148.167 303.419 148.167 302.891V299.696H147.465V298.954H148.167V297.589H149.067V298.954H150.482V299.696H149.067ZM156.242 298.954L152.977 306.927H152.047L153.116 304.316L150.93 298.954H151.929L153.63 303.346L155.312 298.954H156.242Z" fill="#002036"/>
<path opacity="0.15" d="M87.6826 279.446L302.831 279.446" stroke="#264154" stroke-width="0.618243" stroke-linecap="round"/>
<path d="M161.894 243.113C161.894 243.583 161.777 244.026 161.541 244.44C161.315 244.854 160.976 245.203 160.524 245.485C160.082 245.767 159.555 245.937 158.943 245.993V247.137H158.025V245.993C157.14 245.909 156.424 245.631 155.878 245.16C155.332 244.689 155.059 244.068 155.059 243.296H156.782C156.81 243.663 156.928 243.969 157.135 244.214C157.342 244.449 157.639 244.6 158.025 244.666V241.559C157.394 241.399 156.881 241.239 156.486 241.079C156.09 240.91 155.751 240.646 155.469 240.288C155.196 239.93 155.059 239.441 155.059 238.819C155.059 238.038 155.332 237.393 155.878 236.885C156.424 236.367 157.14 236.066 158.025 235.981V234.837H158.943V235.981C159.771 236.056 160.435 236.32 160.934 236.772C161.442 237.214 161.729 237.826 161.795 238.608H160.073C160.044 238.316 159.931 238.057 159.734 237.831C159.536 237.596 159.272 237.436 158.943 237.351V240.401C159.574 240.552 160.087 240.712 160.482 240.881C160.877 241.041 161.212 241.3 161.485 241.658C161.758 242.006 161.894 242.491 161.894 243.113ZM156.697 238.735C156.697 239.121 156.81 239.422 157.036 239.639C157.272 239.855 157.601 240.029 158.025 240.161V237.308C157.62 237.356 157.295 237.501 157.05 237.746C156.815 237.991 156.697 238.321 156.697 238.735ZM158.943 244.666C159.357 244.6 159.682 244.435 159.917 244.172C160.153 243.899 160.27 243.574 160.27 243.197C160.27 242.821 160.153 242.529 159.917 242.322C159.691 242.105 159.366 241.931 158.943 241.799V244.666ZM164.032 237.082V235.614H166.97V245.909H165.346V237.082H164.032ZM169.181 240.627C169.181 238.998 169.454 237.727 170 236.814C170.556 235.892 171.507 235.43 172.853 235.43C174.199 235.43 175.145 235.892 175.691 236.814C176.247 237.727 176.525 238.998 176.525 240.627C176.525 242.275 176.247 243.564 175.691 244.496C175.145 245.419 174.199 245.88 172.853 245.88C171.507 245.88 170.556 245.419 170 244.496C169.454 243.564 169.181 242.275 169.181 240.627ZM174.943 240.627C174.943 239.865 174.891 239.22 174.788 238.692C174.693 238.165 174.496 237.737 174.194 237.407C173.893 237.068 173.446 236.899 172.853 236.899C172.26 236.899 171.813 237.068 171.511 237.407C171.21 237.737 171.008 238.165 170.904 238.692C170.81 239.22 170.763 239.865 170.763 240.627C170.763 241.418 170.81 242.082 170.904 242.618C170.998 243.155 171.196 243.588 171.497 243.917C171.808 244.247 172.26 244.412 172.853 244.412C173.446 244.412 173.893 244.247 174.194 243.917C174.505 243.588 174.708 243.155 174.802 242.618C174.896 242.082 174.943 241.418 174.943 240.627ZM178.228 240.627C178.228 238.998 178.501 237.727 179.047 236.814C179.603 235.892 180.553 235.43 181.9 235.43C183.246 235.43 184.192 235.892 184.738 236.814C185.294 237.727 185.571 238.998 185.571 240.627C185.571 242.275 185.294 243.564 184.738 244.496C184.192 245.419 183.246 245.88 181.9 245.88C180.553 245.88 179.603 245.419 179.047 244.496C178.501 243.564 178.228 242.275 178.228 240.627ZM183.99 240.627C183.99 239.865 183.938 239.22 183.834 238.692C183.74 238.165 183.543 237.737 183.241 237.407C182.94 237.068 182.493 236.899 181.9 236.899C181.307 236.899 180.859 237.068 180.558 237.407C180.257 237.737 180.054 238.165 179.951 238.692C179.857 239.22 179.81 239.865 179.81 240.627C179.81 241.418 179.857 242.082 179.951 242.618C180.045 243.155 180.243 243.588 180.544 243.917C180.855 244.247 181.307 244.412 181.9 244.412C182.493 244.412 182.94 244.247 183.241 243.917C183.552 243.588 183.754 243.155 183.849 242.618C183.943 242.082 183.99 241.418 183.99 240.627Z" fill="#0D6EFD"/>
<path d="M158.815 259.012C158.815 259.575 158.639 260.014 158.288 260.328C157.937 260.637 157.417 260.791 156.727 260.791H155.365V263.587H154.956V257.214H156.727C157.429 257.214 157.952 257.378 158.297 257.705C158.642 258.025 158.815 258.461 158.815 259.012ZM156.727 260.428C157.846 260.428 158.406 259.956 158.406 259.012C158.406 258.546 158.273 258.192 158.007 257.95C157.74 257.702 157.314 257.578 156.727 257.578H155.365V260.428H156.727ZM160.321 259.675C160.442 259.311 160.657 259.036 160.965 258.848C161.274 258.655 161.667 258.558 162.146 258.558V258.985H162.009C161.525 258.985 161.123 259.124 160.802 259.402C160.481 259.675 160.321 260.122 160.321 260.746V263.587H159.912V258.658H160.321V259.675ZM163.295 257.559C163.198 257.559 163.116 257.529 163.05 257.469C162.983 257.402 162.95 257.314 162.95 257.205C162.95 257.102 162.983 257.018 163.05 256.951C163.116 256.885 163.198 256.851 163.295 256.851C163.392 256.851 163.473 256.885 163.54 256.951C163.607 257.018 163.64 257.102 163.64 257.205C163.64 257.314 163.607 257.402 163.54 257.469C163.473 257.529 163.392 257.559 163.295 257.559ZM163.495 258.658V263.587H163.086V258.658H163.495ZM164.738 261.118C164.738 260.604 164.838 260.156 165.038 259.774C165.243 259.393 165.525 259.103 165.882 258.903C166.245 258.697 166.66 258.594 167.126 258.594C167.743 258.594 168.248 258.749 168.642 259.057C169.041 259.366 169.289 259.781 169.386 260.301H168.959C168.881 259.877 168.675 259.544 168.342 259.302C168.015 259.06 167.61 258.939 167.126 258.939C166.763 258.939 166.433 259.021 166.136 259.184C165.84 259.342 165.6 259.587 165.419 259.92C165.243 260.247 165.156 260.646 165.156 261.118C165.156 261.596 165.243 261.999 165.419 262.326C165.6 262.652 165.84 262.897 166.136 263.061C166.433 263.224 166.763 263.306 167.126 263.306C167.61 263.306 168.015 263.185 168.342 262.943C168.675 262.701 168.881 262.368 168.959 261.944H169.386C169.289 262.459 169.041 262.873 168.642 263.188C168.242 263.503 167.737 263.66 167.126 263.66C166.66 263.66 166.245 263.557 165.882 263.351C165.525 263.146 165.243 262.852 165.038 262.471C164.838 262.083 164.738 261.633 164.738 261.118ZM175.07 260.791C175.07 261.009 175.064 261.173 175.052 261.281H170.794C170.806 261.723 170.903 262.096 171.085 262.398C171.266 262.701 171.505 262.928 171.802 263.079C172.098 263.23 172.422 263.306 172.773 263.306C173.257 263.306 173.663 263.188 173.99 262.952C174.317 262.71 174.522 262.383 174.607 261.971H175.034C174.937 262.474 174.689 262.882 174.289 263.197C173.89 263.506 173.385 263.66 172.773 263.66C172.313 263.66 171.902 263.557 171.539 263.351C171.175 263.146 170.891 262.852 170.685 262.471C170.479 262.083 170.377 261.633 170.377 261.118C170.377 260.604 170.476 260.156 170.676 259.774C170.882 259.393 171.166 259.103 171.53 258.903C171.893 258.697 172.307 258.594 172.773 258.594C173.245 258.594 173.654 258.697 173.999 258.903C174.35 259.103 174.616 259.372 174.798 259.711C174.979 260.044 175.07 260.404 175.07 260.791ZM174.662 260.946C174.68 260.51 174.601 260.141 174.426 259.838C174.256 259.535 174.023 259.311 173.726 259.166C173.43 259.015 173.109 258.939 172.764 258.939C172.419 258.939 172.098 259.015 171.802 259.166C171.511 259.311 171.272 259.535 171.085 259.838C170.903 260.141 170.806 260.51 170.794 260.946H174.662ZM179.275 259.956C179.415 259.557 179.666 259.23 180.029 258.976C180.398 258.721 180.843 258.594 181.363 258.594C181.823 258.594 182.232 258.697 182.589 258.903C182.952 259.109 183.234 259.402 183.433 259.784C183.639 260.165 183.742 260.61 183.742 261.118C183.742 261.626 183.639 262.074 183.433 262.462C183.234 262.843 182.952 263.14 182.589 263.351C182.232 263.557 181.823 263.66 181.363 263.66C180.849 263.66 180.407 263.533 180.038 263.279C179.675 263.018 179.421 262.692 179.275 262.298V265.911H178.867V258.658H179.275V259.956ZM183.324 261.118C183.324 260.67 183.24 260.283 183.07 259.956C182.901 259.629 182.662 259.381 182.353 259.212C182.05 259.036 181.699 258.948 181.3 258.948C180.919 258.948 180.574 259.039 180.265 259.221C179.956 259.396 179.714 259.65 179.539 259.983C179.363 260.31 179.275 260.688 179.275 261.118C179.275 261.554 179.363 261.938 179.539 262.271C179.714 262.598 179.956 262.852 180.265 263.034C180.574 263.209 180.919 263.297 181.3 263.297C181.699 263.297 182.05 263.209 182.353 263.034C182.662 262.858 182.901 262.607 183.07 262.28C183.24 261.953 183.324 261.566 183.324 261.118ZM189.415 260.791C189.415 261.009 189.409 261.173 189.396 261.281H185.139C185.151 261.723 185.248 262.096 185.429 262.398C185.611 262.701 185.85 262.928 186.146 263.079C186.443 263.23 186.767 263.306 187.118 263.306C187.602 263.306 188.008 263.188 188.334 262.952C188.661 262.71 188.867 262.383 188.952 261.971H189.378C189.282 262.474 189.033 262.882 188.634 263.197C188.234 263.506 187.729 263.66 187.118 263.66C186.658 263.66 186.246 263.557 185.883 263.351C185.52 263.146 185.236 262.852 185.03 262.471C184.824 262.083 184.721 261.633 184.721 261.118C184.721 260.604 184.821 260.156 185.021 259.774C185.226 259.393 185.511 259.103 185.874 258.903C186.237 258.697 186.652 258.594 187.118 258.594C187.59 258.594 187.998 258.697 188.343 258.903C188.694 259.103 188.961 259.372 189.142 259.711C189.324 260.044 189.415 260.404 189.415 260.791ZM189.006 260.946C189.024 260.51 188.946 260.141 188.77 259.838C188.601 259.535 188.368 259.311 188.071 259.166C187.774 259.015 187.454 258.939 187.109 258.939C186.764 258.939 186.443 259.015 186.146 259.166C185.856 259.311 185.617 259.535 185.429 259.838C185.248 260.141 185.151 260.51 185.139 260.946H189.006ZM191.058 259.675C191.179 259.311 191.394 259.036 191.702 258.848C192.011 258.655 192.404 258.558 192.883 258.558V258.985H192.746C192.262 258.985 191.86 259.124 191.539 259.402C191.218 259.675 191.058 260.122 191.058 260.746V263.587H190.649V258.658H191.058V259.675ZM200.552 258.658V263.587H200.144V262.516C200.005 262.891 199.772 263.179 199.445 263.379C199.124 263.572 198.755 263.669 198.337 263.669C197.75 263.669 197.269 263.491 196.894 263.133C196.525 262.77 196.34 262.235 196.34 261.527V258.658H196.739V261.499C196.739 262.086 196.888 262.537 197.184 262.852C197.481 263.161 197.883 263.315 198.392 263.315C198.924 263.315 199.348 263.146 199.663 262.807C199.983 262.468 200.144 261.965 200.144 261.3V258.658H200.552ZM204.266 258.558C204.853 258.558 205.331 258.74 205.7 259.103C206.069 259.46 206.254 259.992 206.254 260.7V263.587H205.855V260.728C205.855 260.141 205.706 259.693 205.41 259.384C205.113 259.069 204.711 258.912 204.202 258.912C203.67 258.912 203.243 259.081 202.922 259.42C202.608 259.759 202.45 260.262 202.45 260.927V263.587H202.042V258.658H202.45V259.702C202.589 259.333 202.819 259.051 203.14 258.858C203.467 258.658 203.842 258.558 204.266 258.558ZM207.907 257.559C207.81 257.559 207.728 257.529 207.662 257.469C207.595 257.402 207.562 257.314 207.562 257.205C207.562 257.102 207.595 257.018 207.662 256.951C207.728 256.885 207.81 256.851 207.907 256.851C208.004 256.851 208.085 256.885 208.152 256.951C208.218 257.018 208.252 257.102 208.252 257.205C208.252 257.314 208.218 257.402 208.152 257.469C208.085 257.529 208.004 257.559 207.907 257.559ZM208.106 258.658V263.587H207.698V258.658H208.106ZM210.212 259.012V262.271C210.212 262.634 210.279 262.885 210.412 263.025C210.545 263.158 210.781 263.224 211.12 263.224H211.674V263.587H211.057C210.627 263.587 210.309 263.488 210.103 263.288C209.904 263.082 209.804 262.743 209.804 262.271V259.012H209.059V258.658H209.804V257.405H210.212V258.658H211.674V259.012H210.212Z" fill="#002036"/>
<path d="M239.035 243.72C239.939 242.938 240.649 242.298 241.167 241.799C241.694 241.291 242.132 240.764 242.481 240.218C242.829 239.672 243.003 239.125 243.003 238.579C243.003 238.015 242.867 237.572 242.594 237.252C242.33 236.932 241.911 236.772 241.337 236.772C240.781 236.772 240.348 236.951 240.038 237.308C239.736 237.657 239.576 238.128 239.557 238.721H238.004C238.032 237.647 238.352 236.828 238.964 236.263C239.586 235.689 240.372 235.402 241.323 235.402C242.349 235.402 243.149 235.684 243.723 236.249C244.307 236.814 244.599 237.567 244.599 238.509C244.599 239.187 244.425 239.841 244.076 240.472C243.737 241.093 243.328 241.653 242.848 242.152C242.377 242.642 241.775 243.211 241.04 243.861L240.405 244.426H244.881V245.767H238.018V244.595L239.035 243.72ZM246.296 240.627C246.296 238.998 246.569 237.727 247.115 236.814C247.67 235.892 248.621 235.43 249.967 235.43C251.314 235.43 252.26 235.892 252.806 236.814C253.361 237.727 253.639 238.998 253.639 240.627C253.639 242.275 253.361 243.564 252.806 244.496C252.26 245.419 251.314 245.88 249.967 245.88C248.621 245.88 247.67 245.419 247.115 244.496C246.569 243.564 246.296 242.275 246.296 240.627ZM252.057 240.627C252.057 239.865 252.006 239.22 251.902 238.692C251.808 238.165 251.61 237.737 251.309 237.407C251.008 237.068 250.56 236.899 249.967 236.899C249.374 236.899 248.927 237.068 248.626 237.407C248.324 237.737 248.122 238.165 248.019 238.692C247.924 239.22 247.877 239.865 247.877 240.627C247.877 241.418 247.924 242.082 248.019 242.618C248.113 243.155 248.31 243.588 248.612 243.917C248.922 244.247 249.374 244.412 249.967 244.412C250.56 244.412 251.008 244.247 251.309 243.917C251.62 243.588 251.822 243.155 251.916 242.618C252.01 242.082 252.057 241.418 252.057 240.627ZM256.232 243.72C257.136 242.938 257.847 242.298 258.365 241.799C258.892 241.291 259.33 240.764 259.678 240.218C260.026 239.672 260.2 239.125 260.2 238.579C260.2 238.015 260.064 237.572 259.791 237.252C259.527 236.932 259.108 236.772 258.534 236.772C257.979 236.772 257.546 236.951 257.235 237.308C256.934 237.657 256.774 238.128 256.755 238.721H255.201C255.23 237.647 255.55 236.828 256.162 236.263C256.783 235.689 257.569 235.402 258.52 235.402C259.546 235.402 260.346 235.684 260.921 236.249C261.504 236.814 261.796 237.567 261.796 238.509C261.796 239.187 261.622 239.841 261.274 240.472C260.935 241.093 260.525 241.653 260.045 242.152C259.574 242.642 258.972 243.211 258.237 243.861L257.602 244.426H262.079V245.767H255.215V244.595L256.232 243.72ZM263.281 237.082V235.614H266.218V245.909H264.594V237.082H263.281Z" fill="#0D6EFD"/>
<path d="M240.793 260.292C241.162 260.359 241.471 260.54 241.719 260.837C241.973 261.133 242.1 261.481 242.1 261.881C242.1 262.207 242.022 262.501 241.864 262.761C241.713 263.015 241.483 263.218 241.174 263.37C240.872 263.515 240.503 263.587 240.067 263.587H238.042V257.214H240.03C240.666 257.214 241.144 257.363 241.465 257.659C241.792 257.95 241.955 258.328 241.955 258.794C241.955 259.2 241.846 259.529 241.628 259.784C241.41 260.032 241.132 260.201 240.793 260.292ZM238.451 260.11H240.049C240.527 260.11 240.893 259.998 241.147 259.774C241.407 259.544 241.537 259.23 241.537 258.83C241.537 258.443 241.41 258.137 241.156 257.913C240.902 257.689 240.518 257.578 240.003 257.578H238.451V260.11ZM240.04 263.233C240.554 263.233 240.956 263.112 241.247 262.87C241.544 262.622 241.692 262.283 241.692 261.853C241.692 261.43 241.54 261.094 241.238 260.846C240.941 260.592 240.533 260.464 240.012 260.464H238.451V263.233H240.04ZM247.467 258.658V263.587H247.058V262.516C246.919 262.891 246.686 263.179 246.359 263.379C246.038 263.572 245.669 263.669 245.251 263.669C244.664 263.669 244.183 263.491 243.808 263.133C243.439 262.77 243.254 262.235 243.254 261.527V258.658H243.654V261.499C243.654 262.086 243.802 262.537 244.098 262.852C244.395 263.161 244.798 263.315 245.306 263.315C245.839 263.315 246.262 263.146 246.577 262.807C246.898 262.468 247.058 261.965 247.058 261.3V258.658H247.467ZM249.165 257.559C249.068 257.559 248.986 257.529 248.92 257.469C248.853 257.402 248.82 257.314 248.82 257.205C248.82 257.102 248.853 257.018 248.92 256.951C248.986 256.885 249.068 256.851 249.165 256.851C249.261 256.851 249.343 256.885 249.41 256.951C249.476 257.018 249.51 257.102 249.51 257.205C249.51 257.314 249.476 257.402 249.41 257.469C249.343 257.529 249.261 257.559 249.165 257.559ZM249.364 258.658V263.587H248.956V258.658H249.364ZM251.27 256.869V263.587H250.862V256.869H251.27ZM252.514 261.118C252.514 260.61 252.614 260.165 252.813 259.784C253.019 259.402 253.301 259.109 253.658 258.903C254.021 258.697 254.432 258.594 254.892 258.594C255.395 258.594 255.831 258.721 256.2 258.976C256.569 259.224 256.829 259.548 256.98 259.947V256.869H257.389V263.587H256.98V262.28C256.835 262.686 256.581 263.018 256.218 263.279C255.855 263.533 255.413 263.66 254.892 263.66C254.432 263.66 254.021 263.557 253.658 263.351C253.301 263.14 253.019 262.843 252.813 262.462C252.614 262.074 252.514 261.626 252.514 261.118ZM256.98 261.118C256.98 260.688 256.89 260.31 256.708 259.983C256.533 259.65 256.29 259.396 255.982 259.221C255.673 259.039 255.328 258.948 254.947 258.948C254.547 258.948 254.196 259.036 253.894 259.212C253.591 259.381 253.355 259.629 253.186 259.956C253.016 260.283 252.931 260.67 252.931 261.118C252.931 261.566 253.016 261.953 253.186 262.28C253.355 262.607 253.591 262.858 253.894 263.034C254.202 263.209 254.553 263.297 254.947 263.297C255.328 263.297 255.673 263.209 255.982 263.034C256.297 262.852 256.542 262.598 256.717 262.271C256.893 261.938 256.98 261.554 256.98 261.118ZM265.288 258.658L262.419 265.902H262.002L262.918 263.587L260.849 258.658H261.293L263.145 263.133L264.87 258.658H265.288ZM270.639 260.791C270.639 261.009 270.633 261.173 270.621 261.281H266.363C266.375 261.723 266.472 262.096 266.653 262.398C266.835 262.701 267.074 262.928 267.371 263.079C267.667 263.23 267.991 263.306 268.342 263.306C268.826 263.306 269.232 263.188 269.558 262.952C269.885 262.71 270.091 262.383 270.176 261.971H270.602C270.506 262.474 270.258 262.882 269.858 263.197C269.459 263.506 268.953 263.66 268.342 263.66C267.882 263.66 267.47 263.557 267.107 263.351C266.744 263.146 266.46 262.852 266.254 262.471C266.048 262.083 265.945 261.633 265.945 261.118C265.945 260.604 266.045 260.156 266.245 259.774C266.451 259.393 266.735 259.103 267.098 258.903C267.461 258.697 267.876 258.594 268.342 258.594C268.814 258.594 269.223 258.697 269.568 258.903C269.919 259.103 270.185 259.372 270.366 259.711C270.548 260.044 270.639 260.404 270.639 260.791ZM270.23 260.946C270.248 260.51 270.17 260.141 269.994 259.838C269.825 259.535 269.592 259.311 269.295 259.166C268.999 259.015 268.678 258.939 268.333 258.939C267.988 258.939 267.667 259.015 267.371 259.166C267.08 259.311 266.841 259.535 266.653 259.838C266.472 260.141 266.375 260.51 266.363 260.946H270.23ZM271.619 261.118C271.619 260.61 271.719 260.165 271.919 259.784C272.125 259.402 272.406 259.109 272.763 258.903C273.126 258.697 273.538 258.594 273.998 258.594C274.518 258.594 274.96 258.721 275.323 258.976C275.686 259.23 275.941 259.554 276.086 259.947V258.658H276.494V263.587H276.086V262.289C275.941 262.689 275.683 263.018 275.314 263.279C274.951 263.533 274.512 263.66 273.998 263.66C273.538 263.66 273.126 263.557 272.763 263.351C272.406 263.14 272.125 262.843 271.919 262.462C271.719 262.074 271.619 261.626 271.619 261.118ZM276.086 261.118C276.086 260.688 275.995 260.31 275.813 259.983C275.638 259.65 275.396 259.396 275.087 259.221C274.779 259.039 274.434 258.948 274.052 258.948C273.653 258.948 273.302 259.036 272.999 259.212C272.697 259.381 272.461 259.629 272.291 259.956C272.122 260.283 272.037 260.67 272.037 261.118C272.037 261.566 272.122 261.953 272.291 262.28C272.461 262.607 272.697 262.858 272.999 263.034C273.308 263.209 273.659 263.297 274.052 263.297C274.434 263.297 274.779 263.209 275.087 263.034C275.402 262.852 275.647 262.598 275.823 262.271C275.998 261.938 276.086 261.554 276.086 261.118ZM278.39 259.675C278.511 259.311 278.726 259.036 279.035 258.848C279.344 258.655 279.737 258.558 280.215 258.558V258.985H280.079C279.595 258.985 279.192 259.124 278.872 259.402C278.551 259.675 278.39 260.122 278.39 260.746V263.587H277.982V258.658H278.39V259.675Z" fill="#002036"/>
<path d="M88.9236 238.082V236.614H91.8609V246.909H90.2369V238.082H88.9236ZM100.71 237.998H95.979V240.808C96.1767 240.544 96.4686 240.323 96.8546 240.144C97.25 239.965 97.669 239.876 98.1114 239.876C98.9023 239.876 99.5425 240.045 100.032 240.384C100.531 240.723 100.884 241.152 101.091 241.669C101.308 242.187 101.416 242.733 101.416 243.308C101.416 244.004 101.279 244.626 101.006 245.172C100.743 245.708 100.343 246.132 99.8061 246.443C99.2789 246.753 98.6292 246.909 97.8572 246.909C96.8311 246.909 96.0073 246.654 95.3859 246.146C94.7645 245.638 94.3927 244.965 94.2703 244.127H95.8378C95.9414 244.569 96.172 244.922 96.5298 245.186C96.8875 245.44 97.3347 245.567 97.8714 245.567C98.5398 245.567 99.0388 245.365 99.3683 244.96C99.7072 244.555 99.8767 244.018 99.8767 243.35C99.8767 242.672 99.7072 242.154 99.3683 241.797C99.0294 241.429 98.5304 241.246 97.8714 241.246C97.4101 241.246 97.0193 241.363 96.6992 241.599C96.3886 241.825 96.1626 242.135 96.0214 242.531H94.4962V236.586H100.71V237.998ZM103.953 247.008C103.661 247.008 103.417 246.909 103.219 246.711C103.021 246.513 102.922 246.268 102.922 245.977C102.922 245.685 103.021 245.44 103.219 245.242C103.417 245.045 103.661 244.946 103.953 244.946C104.236 244.946 104.476 245.045 104.674 245.242C104.871 245.44 104.97 245.685 104.97 245.977C104.97 246.268 104.871 246.513 104.674 246.711C104.476 246.909 104.236 247.008 103.953 247.008ZM107.388 244.72C108.292 243.938 109.003 243.298 109.52 242.799C110.048 242.291 110.485 241.764 110.834 241.218C111.182 240.672 111.356 240.125 111.356 239.579C111.356 239.015 111.22 238.572 110.947 238.252C110.683 237.932 110.264 237.772 109.69 237.772C109.134 237.772 108.701 237.951 108.391 238.308C108.089 238.657 107.929 239.128 107.91 239.721H106.357C106.385 238.647 106.705 237.828 107.317 237.263C107.939 236.689 108.725 236.402 109.676 236.402C110.702 236.402 111.502 236.684 112.076 237.249C112.66 237.814 112.952 238.567 112.952 239.509C112.952 240.187 112.778 240.841 112.429 241.472C112.091 242.093 111.681 242.653 111.201 243.152C110.73 243.642 110.128 244.211 109.393 244.861L108.758 245.426H113.234V246.767H106.371V245.595L107.388 244.72ZM114.394 239.099C114.394 238.412 114.592 237.875 114.988 237.489C115.392 237.094 115.91 236.896 116.541 236.896C117.172 236.896 117.685 237.094 118.08 237.489C118.485 237.875 118.688 238.412 118.688 239.099C118.688 239.787 118.485 240.328 118.08 240.723C117.685 241.119 117.172 241.316 116.541 241.316C115.91 241.316 115.392 241.119 114.988 240.723C114.592 240.328 114.394 239.787 114.394 239.099ZM123.009 237.08L117.374 246.909H115.793L121.427 237.08H123.009ZM116.541 237.871C115.948 237.871 115.651 238.28 115.651 239.099C115.651 239.928 115.948 240.342 116.541 240.342C116.823 240.342 117.04 240.243 117.191 240.045C117.351 239.838 117.431 239.523 117.431 239.099C117.431 238.28 117.134 237.871 116.541 237.871ZM120.142 244.875C120.142 244.188 120.34 243.651 120.735 243.265C121.14 242.87 121.658 242.672 122.289 242.672C122.91 242.672 123.418 242.87 123.814 243.265C124.219 243.651 124.421 244.188 124.421 244.875C124.421 245.562 124.219 246.104 123.814 246.499C123.418 246.895 122.91 247.092 122.289 247.092C121.658 247.092 121.14 246.895 120.735 246.499C120.34 246.104 120.142 245.562 120.142 244.875ZM122.275 243.647C121.681 243.647 121.385 244.056 121.385 244.875C121.385 245.694 121.681 246.104 122.275 246.104C122.868 246.104 123.164 245.694 123.164 244.875C123.164 244.056 122.868 243.647 122.275 243.647Z" fill="#0D6EFD"/>
<path d="M92.7359 257.505L90.7296 261.3V263.878H90.3211V261.3L88.2966 257.505H88.7596L90.5208 260.919L92.2729 257.505H92.7359ZM93.9253 257.85C93.8285 257.85 93.7468 257.82 93.6802 257.76C93.6136 257.693 93.5804 257.605 93.5804 257.496C93.5804 257.393 93.6136 257.309 93.6802 257.242C93.7468 257.176 93.8285 257.142 93.9253 257.142C94.0222 257.142 94.1039 257.176 94.1704 257.242C94.237 257.309 94.2703 257.393 94.2703 257.496C94.2703 257.605 94.237 257.693 94.1704 257.76C94.1039 257.82 94.0222 257.85 93.9253 257.85ZM94.1251 258.949V263.878H93.7165V258.949H94.1251ZM100.062 261.082C100.062 261.3 100.056 261.464 100.044 261.573H95.786C95.7981 262.014 95.895 262.387 96.0766 262.689C96.2581 262.992 96.4972 263.219 96.7937 263.37C97.0903 263.521 97.4141 263.597 97.7651 263.597C98.2493 263.597 98.6548 263.479 98.9816 263.243C99.3085 263.001 99.5142 262.674 99.599 262.262H100.026C99.9288 262.765 99.6807 263.173 99.2812 263.488C98.8818 263.797 98.3764 263.951 97.7651 263.951C97.3052 263.951 96.8936 263.848 96.5305 263.642C96.1673 263.437 95.8829 263.143 95.6771 262.762C95.4713 262.374 95.3684 261.924 95.3684 261.409C95.3684 260.895 95.4683 260.447 95.668 260.065C95.8738 259.684 96.1583 259.394 96.5214 259.194C96.8845 258.988 97.2991 258.885 97.7651 258.885C98.2372 258.885 98.6457 258.988 98.9907 259.194C99.3417 259.394 99.608 259.663 99.7896 260.002C99.9712 260.335 100.062 260.695 100.062 261.082ZM99.6534 261.237C99.6716 260.801 99.5929 260.432 99.4174 260.129C99.2479 259.826 99.0149 259.602 98.7184 259.457C98.4218 259.306 98.101 259.23 97.7561 259.23C97.4111 259.23 97.0903 259.306 96.7937 259.457C96.5032 259.602 96.2642 259.826 96.0766 260.129C95.895 260.432 95.7981 260.801 95.786 261.237H99.6534ZM101.705 257.16V263.878H101.297V257.16H101.705ZM102.949 261.409C102.949 260.901 103.048 260.456 103.248 260.075C103.454 259.693 103.735 259.4 104.092 259.194C104.456 258.988 104.867 258.885 105.327 258.885C105.829 258.885 106.265 259.012 106.634 259.267C107.004 259.515 107.264 259.839 107.415 260.238V257.16H107.824V263.878H107.415V262.571C107.27 262.977 107.016 263.31 106.653 263.57C106.289 263.824 105.848 263.951 105.327 263.951C104.867 263.951 104.456 263.848 104.092 263.642C103.735 263.431 103.454 263.134 103.248 262.753C103.048 262.365 102.949 261.917 102.949 261.409ZM107.415 261.409C107.415 260.979 107.324 260.601 107.143 260.274C106.967 259.941 106.725 259.687 106.416 259.512C106.108 259.33 105.763 259.239 105.382 259.239C104.982 259.239 104.631 259.327 104.328 259.503C104.026 259.672 103.79 259.92 103.62 260.247C103.451 260.574 103.366 260.961 103.366 261.409C103.366 261.857 103.451 262.244 103.62 262.571C103.79 262.898 104.026 263.149 104.328 263.325C104.637 263.5 104.988 263.588 105.382 263.588C105.763 263.588 106.108 263.5 106.416 263.325C106.731 263.143 106.976 262.889 107.152 262.562C107.327 262.229 107.415 261.845 107.415 261.409Z" fill="#002036"/>
<g opacity="0.25">
<path d="M115.859 257.002C115.173 257.081 114.515 257.356 114.004 257.778C113.401 258.275 113.016 258.953 112.93 259.669C112.911 259.817 112.911 260.202 112.93 260.35C113.086 261.639 114.185 262.719 115.602 262.978C116.043 263.057 116.59 263.057 117.013 262.976C117.816 262.821 118.523 262.414 119.018 261.824C119.374 261.4 119.593 260.914 119.666 260.388C119.692 260.196 119.692 259.824 119.666 259.631C119.608 259.208 119.444 258.789 119.199 258.433C118.654 257.639 117.747 257.115 116.724 257.001C116.519 256.979 116.06 256.98 115.859 257.002ZM116.778 257.449C117.924 257.623 118.847 258.39 119.122 259.396C119.232 259.798 119.232 260.221 119.122 260.623C118.978 261.148 118.637 261.642 118.178 261.987C117.832 262.247 117.417 262.438 116.987 262.532C116.543 262.629 116.064 262.629 115.614 262.532C115.218 262.445 114.812 262.268 114.492 262.038C113.996 261.685 113.629 261.173 113.479 260.623C113.369 260.221 113.369 259.798 113.479 259.396C113.606 258.934 113.866 258.521 114.251 258.177C114.752 257.729 115.367 257.476 116.102 257.416C116.248 257.404 116.593 257.421 116.778 257.449Z" fill="#002036"/>
<path d="M116.164 258.584C115.932 258.661 115.858 258.878 116.01 259.033C116.21 259.236 116.625 259.142 116.665 258.884C116.682 258.775 116.6 258.655 116.472 258.596C116.41 258.569 116.232 258.561 116.164 258.584Z" fill="#002036"/>
<path d="M116.129 259.521C116.086 259.533 116.039 259.557 116.008 259.584L115.956 259.628V260.447V261.266L116.013 261.316C116.088 261.383 116.183 261.409 116.332 261.402C116.488 261.395 116.609 261.337 116.645 261.253C116.652 261.238 116.657 260.877 116.657 260.452C116.657 259.6 116.66 259.625 116.576 259.568C116.48 259.503 116.277 259.482 116.129 259.521Z" fill="#002036"/>
</g>
<path d="M88.567 206.802V204.98H91.9704V215.275H89.9368V206.802H88.567ZM93.9235 209.994C93.9235 208.365 94.2154 207.089 94.7991 206.166C95.3922 205.244 96.3713 204.783 97.7364 204.783C99.1015 204.783 100.076 205.244 100.66 206.166C101.253 207.089 101.549 208.365 101.549 209.994C101.549 211.632 101.253 212.917 100.66 213.849C100.076 214.781 99.1015 215.247 97.7364 215.247C96.3713 215.247 95.3922 214.781 94.7991 213.849C94.2154 212.917 93.9235 211.632 93.9235 209.994ZM99.6005 209.994C99.6005 209.297 99.5534 208.713 99.4593 208.242C99.3746 207.762 99.1957 207.372 98.9227 207.07C98.6591 206.769 98.2636 206.618 97.7364 206.618C97.2092 206.618 96.8091 206.769 96.5361 207.07C96.2725 207.372 96.0936 207.762 95.9994 208.242C95.9147 208.713 95.8723 209.297 95.8723 209.994C95.8723 210.709 95.9147 211.312 95.9994 211.801C96.0842 212.281 96.263 212.672 96.5361 212.973C96.8091 213.265 97.2092 213.411 97.7364 213.411C98.2636 213.411 98.6638 213.265 98.9368 212.973C99.2098 212.672 99.3887 212.281 99.4734 211.801C99.5582 211.312 99.6005 210.709 99.6005 209.994ZM103.053 209.994C103.053 208.365 103.345 207.089 103.929 206.166C104.522 205.244 105.501 204.783 106.866 204.783C108.231 204.783 109.206 205.244 109.789 206.166C110.382 207.089 110.679 208.365 110.679 209.994C110.679 211.632 110.382 212.917 109.789 213.849C109.206 214.781 108.231 215.247 106.866 215.247C105.501 215.247 104.522 214.781 103.929 213.849C103.345 212.917 103.053 211.632 103.053 209.994ZM108.73 209.994C108.73 209.297 108.683 208.713 108.589 208.242C108.504 207.762 108.325 207.372 108.052 207.07C107.789 206.769 107.393 206.618 106.866 206.618C106.339 206.618 105.939 206.769 105.666 207.07C105.402 207.372 105.223 207.762 105.129 208.242C105.044 208.713 105.002 209.297 105.002 209.994C105.002 210.709 105.044 211.312 105.129 211.801C105.214 212.281 105.393 212.672 105.666 212.973C105.939 213.265 106.339 213.411 106.866 213.411C107.393 213.411 107.793 213.265 108.066 212.973C108.339 212.672 108.518 212.281 108.603 211.801C108.688 211.312 108.73 210.709 108.73 209.994ZM120.349 215.374C119.427 215.374 118.579 215.157 117.807 214.724C117.035 214.291 116.423 213.693 115.971 212.931C115.519 212.159 115.294 211.288 115.294 210.318C115.294 209.358 115.519 208.497 115.971 207.734C116.423 206.962 117.035 206.359 117.807 205.926C118.579 205.493 119.427 205.277 120.349 205.277C121.281 205.277 122.129 205.493 122.891 205.926C123.663 206.359 124.27 206.962 124.713 207.734C125.165 208.497 125.391 209.358 125.391 210.318C125.391 211.288 125.165 212.159 124.713 212.931C124.27 213.693 123.663 214.291 122.891 214.724C122.119 215.157 121.272 215.374 120.349 215.374ZM120.349 213.609C120.942 213.609 121.465 213.477 121.917 213.213C122.369 212.94 122.722 212.554 122.976 212.055C123.23 211.556 123.357 210.977 123.357 210.318C123.357 209.659 123.23 209.085 122.976 208.595C122.722 208.096 122.369 207.715 121.917 207.452C121.465 207.188 120.942 207.056 120.349 207.056C119.756 207.056 119.229 207.188 118.768 207.452C118.316 207.715 117.963 208.096 117.708 208.595C117.454 209.085 117.327 209.659 117.327 210.318C117.327 210.977 117.454 211.556 117.708 212.055C117.963 212.554 118.316 212.94 118.768 213.213C119.229 213.477 119.756 213.609 120.349 213.609ZM126.353 211.363C126.353 210.554 126.518 209.848 126.847 209.245C127.177 208.633 127.634 208.162 128.217 207.833C128.801 207.494 129.469 207.324 130.223 207.324C131.192 207.324 131.993 207.569 132.623 208.059C133.264 208.539 133.692 209.217 133.908 210.092H131.776C131.663 209.753 131.47 209.49 131.197 209.302C130.933 209.104 130.604 209.005 130.209 209.005C129.644 209.005 129.196 209.212 128.867 209.626C128.537 210.031 128.373 210.61 128.373 211.363C128.373 212.107 128.537 212.686 128.867 213.1C129.196 213.505 129.644 213.708 130.209 213.708C131.009 213.708 131.531 213.35 131.776 212.634H133.908C133.692 213.482 133.264 214.155 132.623 214.654C131.983 215.153 131.183 215.402 130.223 215.402C129.469 215.402 128.801 215.237 128.217 214.908C127.634 214.569 127.177 214.098 126.847 213.496C126.518 212.884 126.353 212.173 126.353 211.363ZM142.63 211.194C142.63 211.476 142.611 211.731 142.573 211.956H136.854C136.901 212.521 137.099 212.964 137.447 213.284C137.795 213.604 138.224 213.764 138.732 213.764C139.466 213.764 139.989 213.449 140.3 212.818H142.432C142.206 213.571 141.773 214.192 141.133 214.682C140.493 215.162 139.706 215.402 138.774 215.402C138.021 215.402 137.343 215.237 136.741 214.908C136.148 214.569 135.682 214.094 135.343 213.482C135.013 212.87 134.848 212.164 134.848 211.363C134.848 210.554 135.013 209.843 135.343 209.231C135.672 208.619 136.134 208.148 136.727 207.819C137.32 207.489 138.002 207.324 138.774 207.324C139.518 207.324 140.182 207.485 140.766 207.805C141.359 208.125 141.815 208.581 142.135 209.174C142.465 209.758 142.63 210.431 142.63 211.194ZM140.582 210.629C140.573 210.121 140.389 209.716 140.031 209.415C139.673 209.104 139.236 208.949 138.718 208.949C138.228 208.949 137.814 209.099 137.475 209.4C137.146 209.692 136.943 210.102 136.868 210.629H140.582ZM143.564 211.335C143.564 210.544 143.72 209.843 144.03 209.231C144.35 208.619 144.779 208.148 145.315 207.819C145.862 207.489 146.469 207.324 147.137 207.324C147.721 207.324 148.229 207.442 148.662 207.678C149.105 207.913 149.458 208.209 149.721 208.567V207.452H151.713V215.275H149.721V214.131C149.467 214.498 149.114 214.804 148.662 215.049C148.22 215.285 147.707 215.402 147.123 215.402C146.464 215.402 145.862 215.233 145.315 214.894C144.779 214.555 144.35 214.079 144.03 213.468C143.72 212.846 143.564 212.135 143.564 211.335ZM149.721 211.363C149.721 210.883 149.627 210.474 149.439 210.135C149.251 209.786 148.997 209.523 148.676 209.344C148.356 209.156 148.013 209.061 147.646 209.061C147.278 209.061 146.939 209.151 146.629 209.33C146.318 209.509 146.064 209.772 145.866 210.121C145.678 210.46 145.584 210.864 145.584 211.335C145.584 211.806 145.678 212.22 145.866 212.578C146.064 212.926 146.318 213.195 146.629 213.383C146.949 213.571 147.288 213.665 147.646 213.665C148.013 213.665 148.356 213.576 148.676 213.397C148.997 213.209 149.251 212.945 149.439 212.606C149.627 212.258 149.721 211.844 149.721 211.363ZM157.979 207.339C158.911 207.339 159.664 207.635 160.239 208.228C160.813 208.812 161.1 209.631 161.1 210.686V215.275H159.123V210.954C159.123 210.332 158.968 209.857 158.657 209.528C158.346 209.189 157.923 209.019 157.386 209.019C156.84 209.019 156.407 209.189 156.087 209.528C155.776 209.857 155.621 210.332 155.621 210.954V215.275H153.644V207.452H155.621V208.426C155.884 208.087 156.219 207.823 156.623 207.635C157.038 207.437 157.49 207.339 157.979 207.339ZM169.791 205.418C170.826 205.418 171.735 205.62 172.516 206.025C173.307 206.43 173.914 207.009 174.338 207.762C174.771 208.506 174.988 209.372 174.988 210.361C174.988 211.349 174.771 212.215 174.338 212.959C173.914 213.693 173.307 214.263 172.516 214.668C171.735 215.073 170.826 215.275 169.791 215.275H166.345V205.418H169.791ZM169.72 213.595C170.756 213.595 171.556 213.312 172.121 212.747C172.686 212.182 172.968 211.387 172.968 210.361C172.968 209.335 172.686 208.534 172.121 207.96C171.556 207.376 170.756 207.084 169.72 207.084H168.322V213.595H169.72ZM178.445 208.666C178.699 208.252 179.028 207.927 179.433 207.692C179.848 207.456 180.318 207.339 180.845 207.339V209.415H180.323C179.702 209.415 179.231 209.56 178.911 209.852C178.6 210.144 178.445 210.653 178.445 211.377V215.275H176.468V207.452H178.445V208.666ZM183.18 206.52C182.831 206.52 182.54 206.411 182.304 206.195C182.078 205.969 181.965 205.691 181.965 205.362C181.965 205.032 182.078 204.759 182.304 204.542C182.54 204.317 182.831 204.204 183.18 204.204C183.528 204.204 183.815 204.317 184.041 204.542C184.277 204.759 184.394 205.032 184.394 205.362C184.394 205.691 184.277 205.969 184.041 206.195C183.815 206.411 183.528 206.52 183.18 206.52ZM184.154 207.452V215.275H182.177V207.452H184.154ZM189.37 213.453L191.347 207.452H193.451L190.556 215.275H188.155L185.274 207.452H187.393L189.37 213.453ZM201.834 211.194C201.834 211.476 201.815 211.731 201.778 211.956H196.058C196.105 212.521 196.303 212.964 196.651 213.284C197 213.604 197.428 213.764 197.937 213.764C198.671 213.764 199.193 213.449 199.504 212.818H201.637C201.411 213.571 200.977 214.192 200.337 214.682C199.697 215.162 198.911 215.402 197.979 215.402C197.226 215.402 196.548 215.237 195.945 214.908C195.352 214.569 194.886 214.094 194.547 213.482C194.218 212.87 194.053 212.164 194.053 211.363C194.053 210.554 194.218 209.843 194.547 209.231C194.877 208.619 195.338 208.148 195.931 207.819C196.524 207.489 197.207 207.324 197.979 207.324C198.723 207.324 199.386 207.485 199.97 207.805C200.563 208.125 201.02 208.581 201.34 209.174C201.669 209.758 201.834 210.431 201.834 211.194ZM199.787 210.629C199.777 210.121 199.594 209.716 199.236 209.415C198.878 209.104 198.44 208.949 197.922 208.949C197.433 208.949 197.019 209.099 196.68 209.4C196.35 209.692 196.148 210.102 196.072 210.629H199.787Z" fill="#002036"/>
<path d="M105.149 186.397V192.634H104.74V187.251L102.344 192.634H102.017L99.611 187.251V192.634H99.2024V186.397H99.6382L102.18 192.098L104.722 186.397H105.149ZM106.858 186.606C106.762 186.606 106.68 186.576 106.613 186.515C106.547 186.449 106.513 186.361 106.513 186.252C106.513 186.149 106.547 186.064 106.613 185.998C106.68 185.931 106.762 185.898 106.858 185.898C106.955 185.898 107.037 185.931 107.103 185.998C107.17 186.064 107.203 186.149 107.203 186.252C107.203 186.361 107.17 186.449 107.103 186.515C107.037 186.576 106.955 186.606 106.858 186.606ZM107.058 187.704V192.634H106.65V187.704H107.058ZM108.301 190.165C108.301 189.656 108.401 189.211 108.601 188.83C108.807 188.449 109.088 188.155 109.445 187.95C109.808 187.744 110.22 187.641 110.68 187.641C111.2 187.641 111.642 187.768 112.005 188.022C112.369 188.276 112.623 188.6 112.768 188.994V187.704H113.177V192.634H112.768V191.336C112.623 191.735 112.366 192.065 111.996 192.325C111.633 192.58 111.194 192.707 110.68 192.707C110.22 192.707 109.808 192.604 109.445 192.398C109.088 192.186 108.807 191.89 108.601 191.508C108.401 191.121 108.301 190.673 108.301 190.165ZM112.768 190.165C112.768 189.735 112.677 189.357 112.496 189.03C112.32 188.697 112.078 188.443 111.769 188.267C111.461 188.086 111.116 187.995 110.734 187.995C110.335 187.995 109.984 188.083 109.681 188.258C109.379 188.428 109.143 188.676 108.973 189.003C108.804 189.329 108.719 189.717 108.719 190.165C108.719 190.613 108.804 191 108.973 191.327C109.143 191.654 109.379 191.905 109.681 192.08C109.99 192.256 110.341 192.344 110.734 192.344C111.116 192.344 111.461 192.256 111.769 192.08C112.084 191.899 112.329 191.644 112.505 191.318C112.68 190.985 112.768 190.6 112.768 190.165ZM120.492 187.605C121.055 187.605 121.515 187.786 121.872 188.149C122.229 188.506 122.408 189.039 122.408 189.747V192.634H122.008V189.774C122.008 189.187 121.866 188.739 121.582 188.431C121.303 188.116 120.919 187.959 120.429 187.959C119.92 187.959 119.512 188.134 119.203 188.485C118.895 188.836 118.74 189.345 118.74 190.01V192.634H118.341V189.774C118.341 189.187 118.199 188.739 117.914 188.431C117.636 188.116 117.251 187.959 116.761 187.959C116.253 187.959 115.844 188.134 115.536 188.485C115.227 188.836 115.073 189.345 115.073 190.01V192.634H114.664V187.704H115.073V188.776C115.212 188.388 115.436 188.098 115.744 187.904C116.059 187.704 116.419 187.605 116.825 187.605C117.273 187.605 117.657 187.723 117.978 187.959C118.305 188.189 118.528 188.531 118.649 188.985C118.764 188.531 118.988 188.189 119.321 187.959C119.654 187.723 120.045 187.605 120.492 187.605ZM124.067 186.606C123.97 186.606 123.888 186.576 123.821 186.515C123.755 186.449 123.722 186.361 123.722 186.252C123.722 186.149 123.755 186.064 123.821 185.998C123.888 185.931 123.97 185.898 124.067 185.898C124.163 185.898 124.245 185.931 124.312 185.998C124.378 186.064 124.411 186.149 124.411 186.252C124.411 186.361 124.378 186.449 124.312 186.515C124.245 186.576 124.163 186.606 124.067 186.606ZM124.266 187.704V192.634H123.858V187.704H124.266ZM126.036 191.681L125.183 194.005H124.874L125.564 191.681H126.036ZM132.907 186.261V186.606H130.029V189.266H132.544V189.611H130.029V192.634H129.62V186.261H132.907ZM134.4 192.289H136.769V192.634H133.991V186.261H134.4V192.289ZM140.096 187.868C140.15 187.317 140.362 186.884 140.731 186.57C141.106 186.255 141.6 186.098 142.211 186.098C142.604 186.098 142.94 186.17 143.219 186.315C143.497 186.455 143.709 186.645 143.854 186.887C143.999 187.13 144.072 187.405 144.072 187.714C144.072 188.101 143.954 188.437 143.718 188.721C143.482 189 143.122 189.166 142.638 189.221V189.275C143.104 189.348 143.479 189.526 143.763 189.811C144.048 190.095 144.19 190.476 144.19 190.955C144.19 191.463 144.021 191.881 143.682 192.207C143.349 192.528 142.859 192.689 142.211 192.689C141.6 192.689 141.094 192.525 140.695 192.198C140.301 191.871 140.065 191.408 139.987 190.809H140.386C140.459 191.257 140.653 191.623 140.967 191.908C141.282 192.186 141.697 192.325 142.211 192.325C142.731 192.325 143.125 192.195 143.391 191.935C143.664 191.675 143.8 191.339 143.8 190.927C143.8 190.431 143.609 190.059 143.228 189.811C142.853 189.563 142.314 189.438 141.612 189.438H141.439V189.084H141.621C142.989 189.078 143.673 188.63 143.673 187.741C143.673 187.353 143.542 187.042 143.282 186.806C143.028 186.57 142.668 186.452 142.202 186.452C141.748 186.452 141.364 186.573 141.049 186.815C140.74 187.051 140.556 187.402 140.495 187.868H140.096ZM145.362 187.868C145.416 187.317 145.628 186.884 145.997 186.57C146.373 186.255 146.866 186.098 147.477 186.098C147.871 186.098 148.206 186.17 148.485 186.315C148.763 186.455 148.975 186.645 149.12 186.887C149.266 187.13 149.338 187.405 149.338 187.714C149.338 188.101 149.22 188.437 148.984 188.721C148.748 189 148.388 189.166 147.904 189.221V189.275C148.37 189.348 148.745 189.526 149.03 189.811C149.314 190.095 149.456 190.476 149.456 190.955C149.456 191.463 149.287 191.881 148.948 192.207C148.615 192.528 148.125 192.689 147.477 192.689C146.866 192.689 146.36 192.525 145.961 192.198C145.568 191.871 145.332 191.408 145.253 190.809H145.652C145.725 191.257 145.919 191.623 146.233 191.908C146.548 192.186 146.963 192.325 147.477 192.325C147.998 192.325 148.391 192.195 148.657 191.935C148.93 191.675 149.066 191.339 149.066 190.927C149.066 190.431 148.875 190.059 148.494 189.811C148.119 189.563 147.58 189.438 146.878 189.438H146.705V189.084H146.887C148.255 189.078 148.939 188.63 148.939 187.741C148.939 187.353 148.809 187.042 148.548 186.806C148.294 186.57 147.934 186.452 147.468 186.452C147.014 186.452 146.63 186.573 146.315 186.815C146.006 187.051 145.822 187.402 145.761 187.868H145.362ZM150.501 192.334C151.639 191.548 152.535 190.788 153.188 190.056C153.848 189.323 154.178 188.621 154.178 187.95C154.178 187.508 154.06 187.148 153.824 186.869C153.594 186.591 153.215 186.452 152.689 186.452C152.162 186.452 151.76 186.612 151.481 186.933C151.203 187.254 151.046 187.677 151.009 188.204H150.61C150.652 187.538 150.858 187.021 151.227 186.651C151.596 186.282 152.084 186.098 152.689 186.098C153.24 186.098 153.69 186.252 154.042 186.561C154.399 186.869 154.577 187.329 154.577 187.941C154.577 188.697 154.229 189.46 153.533 190.228C152.843 190.997 152.053 191.675 151.164 192.262H154.786V192.607H150.501V192.334ZM159.855 186.542H156.368V189.148C156.532 188.918 156.771 188.73 157.086 188.585C157.4 188.434 157.742 188.358 158.111 188.358C158.602 188.358 159.001 188.458 159.31 188.658C159.625 188.851 159.852 189.106 159.991 189.42C160.13 189.735 160.2 190.077 160.2 190.446C160.2 190.858 160.124 191.233 159.973 191.572C159.821 191.905 159.582 192.174 159.255 192.38C158.935 192.58 158.529 192.679 158.039 192.679C157.446 192.679 156.955 192.519 156.568 192.198C156.187 191.871 155.954 191.433 155.869 190.882H156.269C156.359 191.348 156.562 191.705 156.877 191.953C157.192 192.195 157.579 192.316 158.039 192.316C158.626 192.316 159.068 192.147 159.364 191.808C159.661 191.463 159.809 191.012 159.809 190.455C159.809 189.911 159.658 189.484 159.355 189.175C159.059 188.867 158.632 188.712 158.075 188.712C157.694 188.712 157.352 188.797 157.049 188.966C156.753 189.136 156.523 189.369 156.359 189.665H155.978V186.179H159.855V186.542ZM161.938 190.945C161.998 191.387 162.159 191.729 162.419 191.971C162.685 192.213 163.042 192.334 163.49 192.334C164.101 192.334 164.564 192.107 164.879 191.654C165.2 191.2 165.36 190.464 165.36 189.448L165.351 189.093C165.26 189.493 165.033 189.811 164.67 190.047C164.313 190.283 163.896 190.401 163.418 190.401C162.764 190.401 162.249 190.207 161.874 189.82C161.499 189.432 161.311 188.897 161.311 188.213C161.311 187.608 161.484 187.105 161.829 186.706C162.18 186.3 162.706 186.098 163.408 186.098C164.292 186.098 164.897 186.379 165.224 186.942C165.557 187.505 165.723 188.289 165.723 189.293C165.723 190.401 165.551 191.245 165.206 191.826C164.861 192.401 164.283 192.689 163.472 192.689C162.903 192.689 162.455 192.531 162.128 192.216C161.802 191.896 161.608 191.472 161.547 190.945H161.938ZM163.463 190.056C163.772 190.056 164.065 189.992 164.344 189.865C164.622 189.732 164.846 189.538 165.015 189.284C165.191 189.03 165.279 188.721 165.279 188.358C165.279 188.013 165.212 187.695 165.079 187.405C164.946 187.114 164.737 186.881 164.452 186.706C164.174 186.53 163.826 186.443 163.408 186.443C162.894 186.443 162.479 186.603 162.165 186.924C161.856 187.238 161.702 187.668 161.702 188.213C161.702 188.8 161.856 189.254 162.165 189.575C162.473 189.895 162.906 190.056 163.463 190.056Z" fill="#264154"/>
<path opacity="0.35" d="M90.9616 184.87C90.4686 184.944 90.063 185.089 89.6686 185.33C88.9962 185.741 88.5291 186.38 88.3578 187.119C88.3061 187.338 88.2867 187.778 88.3174 188.009C88.4063 188.667 88.7845 189.469 89.41 190.322C89.6928 190.706 90.1389 191.233 90.4977 191.607C90.6998 191.815 91.1216 192.229 91.2331 192.328C91.3285 192.411 91.3447 192.42 91.4093 192.42C91.4772 192.42 91.482 192.417 91.6921 192.222C92.4776 191.487 93.2211 190.625 93.6882 189.908C94.1343 189.223 94.3978 188.612 94.4866 188.058C94.5254 187.807 94.5109 187.361 94.4543 187.119C94.1941 185.994 93.2599 185.139 92.0283 184.899C91.8586 184.865 91.7875 184.859 91.4626 184.857C91.2073 184.852 91.0505 184.857 90.9616 184.87ZM91.7616 186.439C91.9217 186.476 92.1754 186.594 92.3031 186.693C92.9367 187.181 92.9884 188.039 92.4178 188.587C92.0008 188.988 91.2994 189.093 90.7628 188.834C90.3927 188.655 90.1276 188.346 90.0323 187.984C89.9886 187.812 89.9886 187.564 90.0323 187.393C90.1018 187.129 90.2828 186.865 90.5139 186.689C90.6367 186.595 90.8953 186.474 91.0505 186.437C91.2622 186.387 91.5451 186.387 91.7616 186.439Z" fill="#264154"/>
<path d="M72.8447 12.3649C72.8447 5.53594 78.3807 0 85.2096 0H305.285C312.114 0 317.65 5.53594 317.65 12.3649V163.834H72.8447V12.3649Z" fill="url(#pattern0)"/>
<defs>
<pattern id="pattern0" patternContentUnits="objectBoundingBox" width="1" height="1">
<use xlink:href="#image0_6603_12450" transform="matrix(0.000702988 0 0 0.00105042 -0.00228462 0)"/>
</pattern>
</defs>
</svg>
