<svg width="390" height="366" viewBox="0 0 390 366" fill="none" xmlns="http://www.w3.org/2000/svg" xmlns:xlink="http://www.w3.org/1999/xlink">
<rect opacity="0.15" x="-10" y="32.1484" width="410.514" height="272.027" rx="9.89189" fill="#0D6EFD" fill-opacity="0.15"/>
<path d="M72.8447 157.033H317.669V353.635C317.669 360.463 312.133 365.999 305.304 365.999H85.2096C78.3807 365.999 72.8447 360.463 72.8447 353.635V157.033Z" fill="#0D6EFD" fill-opacity="0.15"/>
<path d="M73.3002 157.489H317.214V353.635C317.214 360.212 311.882 365.544 305.304 365.544H85.2096C78.6323 365.544 73.3002 360.212 73.3002 353.635V157.489Z" stroke="#0D6EFD" stroke-opacity="0.15" stroke-width="0.911037"/>
<path d="M166.208 334.946C166.044 334.631 165.817 334.395 165.527 334.238C165.236 334.074 164.9 333.992 164.519 333.992C164.101 333.992 163.729 334.086 163.402 334.274C163.075 334.461 162.818 334.728 162.631 335.073C162.449 335.418 162.358 335.817 162.358 336.271C162.358 336.725 162.449 337.127 162.631 337.479C162.818 337.823 163.075 338.09 163.402 338.277C163.729 338.465 164.101 338.559 164.519 338.559C165.082 338.559 165.539 338.401 165.89 338.087C166.241 337.772 166.456 337.345 166.534 336.807H164.165V335.981H167.642V336.789C167.575 337.279 167.4 337.73 167.115 338.141C166.837 338.553 166.471 338.883 166.017 339.131C165.569 339.373 165.07 339.494 164.519 339.494C163.926 339.494 163.384 339.358 162.894 339.085C162.404 338.807 162.013 338.423 161.723 337.932C161.438 337.442 161.296 336.888 161.296 336.271C161.296 335.654 161.438 335.1 161.723 334.61C162.013 334.12 162.404 333.738 162.894 333.466C163.39 333.187 163.932 333.048 164.519 333.048C165.191 333.048 165.787 333.215 166.307 333.548C166.834 333.874 167.215 334.34 167.451 334.946H166.208ZM170.832 339.521C170.36 339.521 169.934 339.415 169.552 339.203C169.171 338.986 168.871 338.683 168.654 338.296C168.436 337.902 168.327 337.448 168.327 336.934C168.327 336.425 168.439 335.975 168.663 335.581C168.887 335.188 169.192 334.885 169.58 334.673C169.967 334.461 170.4 334.356 170.878 334.356C171.356 334.356 171.789 334.461 172.176 334.673C172.563 334.885 172.869 335.188 173.093 335.581C173.317 335.975 173.429 336.425 173.429 336.934C173.429 337.442 173.314 337.893 173.084 338.286C172.854 338.68 172.539 338.986 172.14 339.203C171.746 339.415 171.311 339.521 170.832 339.521ZM170.832 338.622C171.099 338.622 171.347 338.559 171.577 338.432C171.813 338.305 172.003 338.114 172.149 337.86C172.294 337.606 172.367 337.297 172.367 336.934C172.367 336.571 172.297 336.265 172.158 336.017C172.019 335.763 171.834 335.572 171.604 335.445C171.374 335.318 171.126 335.254 170.86 335.254C170.593 335.254 170.345 335.318 170.115 335.445C169.891 335.572 169.713 335.763 169.58 336.017C169.446 336.265 169.38 336.571 169.38 336.934C169.38 337.472 169.516 337.89 169.788 338.187C170.067 338.477 170.415 338.622 170.832 338.622ZM178.018 335.282V338.05C178.018 338.238 178.06 338.374 178.145 338.459C178.235 338.538 178.387 338.577 178.599 338.577H179.234V339.439H178.417C177.951 339.439 177.594 339.331 177.346 339.113C177.098 338.895 176.974 338.541 176.974 338.05V335.282H176.383V334.437H176.974V333.194H178.018V334.437H179.234V335.282H178.018ZM182.358 339.521C181.886 339.521 181.459 339.415 181.078 339.203C180.696 338.986 180.397 338.683 180.179 338.296C179.961 337.902 179.852 337.448 179.852 336.934C179.852 336.425 179.964 335.975 180.188 335.581C180.412 335.188 180.718 334.885 181.105 334.673C181.492 334.461 181.925 334.356 182.403 334.356C182.881 334.356 183.314 334.461 183.701 334.673C184.089 334.885 184.394 335.188 184.618 335.581C184.842 335.975 184.954 336.425 184.954 336.934C184.954 337.442 184.839 337.893 184.609 338.286C184.379 338.68 184.064 338.986 183.665 339.203C183.272 339.415 182.836 339.521 182.358 339.521ZM182.358 338.622C182.624 338.622 182.872 338.559 183.102 338.432C183.338 338.305 183.529 338.114 183.674 337.86C183.819 337.606 183.892 337.297 183.892 336.934C183.892 336.571 183.822 336.265 183.683 336.017C183.544 335.763 183.359 335.572 183.129 335.445C182.899 335.318 182.651 335.254 182.385 335.254C182.119 335.254 181.87 335.318 181.64 335.445C181.417 335.572 181.238 335.763 181.105 336.017C180.972 336.265 180.905 336.571 180.905 336.934C180.905 337.472 181.041 337.89 181.314 338.187C181.592 338.477 181.94 338.622 182.358 338.622ZM189.37 335.173C189.546 334.943 189.785 334.749 190.088 334.592C190.39 334.434 190.732 334.356 191.113 334.356C191.549 334.356 191.946 334.464 192.303 334.682C192.666 334.894 192.95 335.194 193.156 335.581C193.362 335.968 193.465 336.413 193.465 336.916C193.465 337.418 193.362 337.869 193.156 338.268C192.95 338.662 192.666 338.97 192.303 339.194C191.946 339.412 191.549 339.521 191.113 339.521C190.732 339.521 190.393 339.446 190.097 339.294C189.8 339.137 189.558 338.943 189.37 338.713V341.818H188.335V334.437H189.37V335.173ZM192.412 336.916C192.412 336.571 192.339 336.274 192.194 336.026C192.055 335.772 191.867 335.581 191.631 335.454C191.401 335.321 191.153 335.254 190.886 335.254C190.626 335.254 190.378 335.321 190.142 335.454C189.912 335.587 189.724 335.781 189.579 336.035C189.44 336.289 189.37 336.589 189.37 336.934C189.37 337.279 189.44 337.581 189.579 337.842C189.724 338.096 189.912 338.29 190.142 338.423C190.378 338.556 190.626 338.622 190.886 338.622C191.153 338.622 191.401 338.556 191.631 338.423C191.867 338.283 192.055 338.084 192.194 337.823C192.339 337.563 192.412 337.261 192.412 336.916ZM194.143 336.916C194.143 336.413 194.246 335.968 194.452 335.581C194.664 335.194 194.948 334.894 195.305 334.682C195.668 334.464 196.068 334.356 196.504 334.356C196.897 334.356 197.239 334.434 197.529 334.592C197.826 334.743 198.062 334.934 198.238 335.164V334.437H199.282V339.439H198.238V338.695C198.062 338.931 197.823 339.128 197.52 339.285C197.218 339.442 196.873 339.521 196.485 339.521C196.056 339.521 195.662 339.412 195.305 339.194C194.948 338.97 194.664 338.662 194.452 338.268C194.246 337.869 194.143 337.418 194.143 336.916ZM198.238 336.934C198.238 336.589 198.165 336.289 198.02 336.035C197.88 335.781 197.696 335.587 197.466 335.454C197.236 335.321 196.988 335.254 196.721 335.254C196.455 335.254 196.207 335.321 195.977 335.454C195.747 335.581 195.559 335.772 195.414 336.026C195.275 336.274 195.205 336.571 195.205 336.916C195.205 337.261 195.275 337.563 195.414 337.823C195.559 338.084 195.747 338.283 195.977 338.423C196.213 338.556 196.461 338.622 196.721 338.622C196.988 338.622 197.236 338.556 197.466 338.423C197.696 338.29 197.88 338.096 198.02 337.842C198.165 337.581 198.238 337.279 198.238 336.934ZM205.144 334.437L202.075 341.791H201.004L202.021 339.358L200.051 334.437H201.204L202.611 338.25L204.073 334.437H205.144ZM211.98 334.356C212.374 334.356 212.725 334.437 213.033 334.601C213.348 334.764 213.593 335.006 213.769 335.327C213.95 335.648 214.041 336.035 214.041 336.489V339.439H213.015V336.643C213.015 336.195 212.903 335.853 212.679 335.617C212.455 335.375 212.15 335.254 211.762 335.254C211.375 335.254 211.066 335.375 210.836 335.617C210.612 335.853 210.5 336.195 210.5 336.643V339.439H209.474V336.643C209.474 336.195 209.363 335.853 209.139 335.617C208.915 335.375 208.609 335.254 208.222 335.254C207.834 335.254 207.526 335.375 207.296 335.617C207.072 335.853 206.96 336.195 206.96 336.643V339.439H205.925V334.437H206.96V335.009C207.129 334.803 207.344 334.643 207.604 334.528C207.865 334.413 208.143 334.356 208.44 334.356C208.839 334.356 209.196 334.44 209.511 334.61C209.826 334.779 210.068 335.024 210.237 335.345C210.388 335.042 210.624 334.803 210.945 334.628C211.266 334.446 211.611 334.356 211.98 334.356ZM219.942 336.816C219.942 337.003 219.93 337.173 219.906 337.324H216.084C216.114 337.724 216.263 338.044 216.529 338.286C216.795 338.529 217.122 338.65 217.509 338.65C218.066 338.65 218.46 338.417 218.69 337.951H219.806C219.655 338.411 219.38 338.789 218.98 339.085C218.587 339.376 218.096 339.521 217.509 339.521C217.031 339.521 216.602 339.415 216.22 339.203C215.845 338.986 215.548 338.683 215.331 338.296C215.119 337.902 215.013 337.448 215.013 336.934C215.013 336.419 215.116 335.968 215.322 335.581C215.533 335.188 215.827 334.885 216.202 334.673C216.583 334.461 217.019 334.356 217.509 334.356C217.982 334.356 218.402 334.458 218.771 334.664C219.141 334.87 219.428 335.161 219.634 335.536C219.84 335.905 219.942 336.332 219.942 336.816ZM218.862 336.489C218.856 336.108 218.72 335.802 218.454 335.572C218.187 335.342 217.857 335.227 217.464 335.227C217.107 335.227 216.801 335.342 216.547 335.572C216.293 335.796 216.142 336.102 216.093 336.489H218.862ZM223.485 334.356C223.878 334.356 224.229 334.437 224.538 334.601C224.853 334.764 225.098 335.006 225.273 335.327C225.449 335.648 225.536 336.035 225.536 336.489V339.439H224.511V336.643C224.511 336.195 224.399 335.853 224.175 335.617C223.951 335.375 223.645 335.254 223.258 335.254C222.87 335.254 222.562 335.375 222.332 335.617C222.108 335.853 221.996 336.195 221.996 336.643V339.439H220.961V334.437H221.996V335.009C222.165 334.803 222.38 334.643 222.64 334.528C222.907 334.413 223.188 334.356 223.485 334.356ZM228.064 335.282V338.05C228.064 338.238 228.106 338.374 228.191 338.459C228.282 338.538 228.433 338.577 228.645 338.577H229.28V339.439H228.463C227.997 339.439 227.64 339.331 227.392 339.113C227.144 338.895 227.02 338.541 227.02 338.05V335.282H226.43V334.437H227.02V333.194H228.064V334.437H229.28V335.282H228.064Z" fill="#FCFDFD"/>
<rect x="83.0454" y="323.03" width="224.422" height="27.8209" rx="6.75185" stroke="#1269E8" stroke-width="0.618243"/>
<path d="M271.984 296.661H267.253V299.472C267.451 299.208 267.742 298.987 268.128 298.808C268.524 298.629 268.943 298.54 269.385 298.54C270.176 298.54 270.816 298.709 271.306 299.048C271.805 299.387 272.158 299.815 272.365 300.333C272.581 300.851 272.69 301.397 272.69 301.971C272.69 302.668 272.553 303.289 272.28 303.835C272.017 304.372 271.616 304.796 271.08 305.106C270.553 305.417 269.903 305.572 269.131 305.572C268.105 305.572 267.281 305.318 266.66 304.81C266.038 304.301 265.666 303.628 265.544 302.79H267.112C267.215 303.233 267.446 303.586 267.804 303.849C268.161 304.104 268.609 304.231 269.145 304.231C269.814 304.231 270.313 304.028 270.642 303.623C270.981 303.219 271.15 302.682 271.15 302.014C271.15 301.336 270.981 300.818 270.642 300.46C270.303 300.093 269.804 299.909 269.145 299.909C268.684 299.909 268.293 300.027 267.973 300.262C267.662 300.488 267.436 300.799 267.295 301.194H265.77V295.249H271.984V296.661ZM274.366 300.291C274.366 298.662 274.639 297.391 275.185 296.478C275.74 295.555 276.691 295.094 278.037 295.094C279.384 295.094 280.33 295.555 280.876 296.478C281.431 297.391 281.709 298.662 281.709 300.291C281.709 301.938 281.431 303.228 280.876 304.16C280.33 305.083 279.384 305.544 278.037 305.544C276.691 305.544 275.74 305.083 275.185 304.16C274.639 303.228 274.366 301.938 274.366 300.291ZM280.127 300.291C280.127 299.528 280.076 298.883 279.972 298.356C279.878 297.829 279.68 297.4 279.379 297.071C279.078 296.732 278.63 296.562 278.037 296.562C277.444 296.562 276.997 296.732 276.696 297.071C276.394 297.4 276.192 297.829 276.089 298.356C275.994 298.883 275.947 299.528 275.947 300.291C275.947 301.081 275.994 301.745 276.089 302.282C276.183 302.818 276.38 303.252 276.682 303.581C276.992 303.911 277.444 304.075 278.037 304.075C278.63 304.075 279.078 303.911 279.379 303.581C279.69 303.252 279.892 302.818 279.986 302.282C280.08 301.745 280.127 301.081 280.127 300.291Z" fill="#0D6EFD"/>
<ellipse cx="296.029" cy="299.805" rx="7.41892" ry="7.37759" fill="#0D6EFD" fill-opacity="0.15"/>
<path d="M303.139 299.805C303.139 303.708 299.958 306.874 296.029 306.874C292.101 306.874 288.919 303.708 288.919 299.805C288.919 295.903 292.101 292.737 296.029 292.737C299.958 292.737 303.139 295.903 303.139 299.805Z" stroke="#0D6EFD" stroke-opacity="0.5" stroke-width="0.618243"/>
<path opacity="0.5" d="M296.766 299.142H298.534C298.875 299.142 299.152 299.419 299.152 299.761V299.965C299.152 300.306 298.875 300.583 298.534 300.583H296.766V302.351C296.766 302.693 296.489 302.97 296.147 302.97H295.943C295.602 302.97 295.325 302.693 295.325 302.351V300.583H293.557C293.215 300.583 292.938 300.306 292.938 299.965V299.761C292.938 299.419 293.215 299.142 293.557 299.142H295.325V297.374C295.325 297.033 295.602 296.756 295.943 296.756H296.147C296.489 296.756 296.766 297.033 296.766 297.374V299.142Z" fill="#FCFDFD"/>
<ellipse cx="249.661" cy="299.805" rx="7.41892" ry="7.37759" fill="#0D6EFD" fill-opacity="0.15"/>
<path d="M256.771 299.805C256.771 303.708 253.589 306.874 249.661 306.874C245.733 306.874 242.551 303.708 242.551 299.805C242.551 295.903 245.733 292.737 249.661 292.737C253.589 292.737 256.771 295.903 256.771 299.805Z" stroke="#0D6EFD" stroke-opacity="0.5" stroke-width="0.618243"/>
<path opacity="0.5" d="M252.166 299.229C252.507 299.229 252.784 299.505 252.784 299.847V300.051C252.784 300.392 252.507 300.669 252.166 300.669H247.189C246.847 300.669 246.57 300.392 246.57 300.051V299.847C246.57 299.505 246.847 299.229 247.189 299.229H252.166Z" fill="#FCFDFD"/>
<path d="M89.9419 297.478V301.841C89.9419 302.454 90.0902 302.909 90.387 303.206C90.6903 303.503 91.1091 303.651 91.6433 303.651C92.1708 303.651 92.583 303.503 92.8798 303.206C93.1831 302.909 93.3348 302.454 93.3348 301.841V297.478H94.2349V301.831C94.2349 302.405 94.1195 302.889 93.8887 303.285C93.6579 303.674 93.3447 303.964 92.949 304.155C92.5599 304.347 92.1214 304.442 91.6334 304.442C91.1454 304.442 90.7035 304.347 90.3079 304.155C89.9188 303.964 89.6088 303.674 89.378 303.285C89.1538 302.889 89.0417 302.405 89.0417 301.831V297.478H89.9419ZM98.3777 298.853C99.0372 298.853 99.5713 299.055 99.9802 299.457C100.389 299.852 100.593 300.426 100.593 301.178V304.373H99.7032V301.307C99.7032 300.766 99.568 300.354 99.2977 300.07C99.0273 299.78 98.658 299.635 98.1898 299.635C97.715 299.635 97.3358 299.783 97.0522 300.08C96.7752 300.377 96.6367 300.809 96.6367 301.376V304.373H95.7366V298.952H96.6367V299.724C96.8148 299.447 97.0555 299.233 97.3588 299.081C97.6688 298.929 98.0084 298.853 98.3777 298.853ZM102.529 298.072C102.357 298.072 102.212 298.013 102.094 297.894C101.975 297.775 101.916 297.63 101.916 297.459C101.916 297.287 101.975 297.142 102.094 297.023C102.212 296.905 102.357 296.845 102.529 296.845C102.694 296.845 102.832 296.905 102.944 297.023C103.063 297.142 103.122 297.287 103.122 297.459C103.122 297.63 103.063 297.775 102.944 297.894C102.832 298.013 102.694 298.072 102.529 298.072ZM102.964 298.952V304.373H102.064V298.952H102.964ZM105.596 299.694V302.889C105.596 303.153 105.652 303.341 105.764 303.453C105.877 303.559 106.071 303.611 106.348 303.611H107.011V304.373H106.2C105.698 304.373 105.323 304.258 105.072 304.027C104.821 303.796 104.696 303.417 104.696 302.889V299.694H103.994V298.952H104.696V297.587H105.596V298.952H107.011V299.694H105.596ZM110.02 304.462C109.605 304.462 109.232 304.393 108.903 304.254C108.573 304.109 108.312 303.911 108.121 303.661C107.93 303.404 107.824 303.11 107.805 302.78H108.735C108.761 303.051 108.886 303.272 109.11 303.443C109.341 303.615 109.641 303.7 110.011 303.7C110.353 303.7 110.624 303.625 110.822 303.473C111.02 303.321 111.118 303.13 111.118 302.899C111.118 302.662 111.013 302.487 110.802 302.375C110.591 302.256 110.264 302.141 109.823 302.029C109.42 301.923 109.091 301.818 108.833 301.712C108.583 301.6 108.365 301.438 108.181 301.227C108.003 301.01 107.913 300.726 107.913 300.377C107.913 300.1 107.996 299.846 108.161 299.615C108.326 299.384 108.56 299.203 108.863 299.071C109.166 298.933 109.513 298.863 109.902 298.863C110.502 298.863 110.987 299.015 111.356 299.318C111.725 299.622 111.923 300.037 111.949 300.565H111.049C111.029 300.281 110.914 300.054 110.703 299.882C110.499 299.711 110.222 299.625 109.872 299.625C109.549 299.625 109.292 299.694 109.101 299.833C108.909 299.971 108.814 300.153 108.814 300.377C108.814 300.555 108.87 300.703 108.982 300.822C109.101 300.934 109.246 301.026 109.417 301.099C109.595 301.165 109.839 301.241 110.149 301.326C110.538 301.432 110.855 301.537 111.099 301.643C111.343 301.742 111.55 301.893 111.722 302.098C111.9 302.302 111.992 302.569 111.999 302.899C111.999 303.196 111.916 303.463 111.752 303.7C111.587 303.938 111.353 304.126 111.049 304.264C110.752 304.396 110.41 304.462 110.02 304.462ZM115.57 301.643C115.57 301.089 115.683 300.604 115.907 300.189C116.131 299.767 116.438 299.44 116.827 299.209C117.222 298.979 117.664 298.863 118.152 298.863C118.62 298.863 119.029 298.969 119.379 299.18C119.735 299.384 119.995 299.638 120.16 299.941V298.952H121.07V306.945H120.16V303.374C119.989 303.677 119.725 303.935 119.369 304.146C119.013 304.357 118.597 304.462 118.123 304.462C117.648 304.462 117.216 304.343 116.827 304.106C116.438 303.869 116.131 303.536 115.907 303.107C115.683 302.678 115.57 302.19 115.57 301.643ZM120.16 301.653C120.16 301.244 120.078 300.888 119.913 300.584C119.748 300.281 119.524 300.05 119.24 299.892C118.963 299.727 118.657 299.645 118.32 299.645C117.984 299.645 117.677 299.724 117.4 299.882C117.123 300.04 116.903 300.271 116.738 300.575C116.573 300.878 116.49 301.234 116.49 301.643C116.49 302.058 116.573 302.421 116.738 302.731C116.903 303.034 117.123 303.268 117.4 303.433C117.677 303.592 117.984 303.671 118.32 303.671C118.657 303.671 118.963 303.592 119.24 303.433C119.524 303.268 119.748 303.034 119.913 302.731C120.078 302.421 120.16 302.062 120.16 301.653ZM127.399 298.952V304.373H126.499V303.572C126.327 303.849 126.087 304.066 125.777 304.225C125.473 304.376 125.137 304.452 124.768 304.452C124.346 304.452 123.966 304.366 123.63 304.195C123.294 304.017 123.027 303.753 122.829 303.404C122.638 303.054 122.542 302.629 122.542 302.128V298.952H123.432V302.009C123.432 302.543 123.568 302.955 123.838 303.245C124.108 303.529 124.478 303.671 124.946 303.671C125.427 303.671 125.806 303.522 126.083 303.226C126.36 302.929 126.499 302.497 126.499 301.93V298.952H127.399ZM128.583 301.643C128.583 301.089 128.695 300.604 128.919 300.189C129.143 299.767 129.45 299.44 129.839 299.209C130.234 298.979 130.673 298.863 131.154 298.863C131.629 298.863 132.041 298.965 132.391 299.17C132.74 299.374 133.001 299.632 133.172 299.941V298.952H134.082V304.373H133.172V303.364C132.994 303.681 132.727 303.944 132.371 304.155C132.022 304.36 131.613 304.462 131.145 304.462C130.663 304.462 130.228 304.343 129.839 304.106C129.45 303.869 129.143 303.536 128.919 303.107C128.695 302.678 128.583 302.19 128.583 301.643ZM133.172 301.653C133.172 301.244 133.09 300.888 132.925 300.584C132.76 300.281 132.536 300.05 132.252 299.892C131.975 299.727 131.669 299.645 131.332 299.645C130.996 299.645 130.689 299.724 130.413 299.882C130.136 300.04 129.915 300.271 129.75 300.575C129.585 300.878 129.502 301.234 129.502 301.643C129.502 302.058 129.585 302.421 129.75 302.731C129.915 303.034 130.136 303.268 130.413 303.433C130.689 303.592 130.996 303.671 131.332 303.671C131.669 303.671 131.975 303.592 132.252 303.433C132.536 303.268 132.76 303.034 132.925 302.731C133.09 302.421 133.172 302.062 133.172 301.653ZM138.245 298.853C138.904 298.853 139.438 299.055 139.847 299.457C140.256 299.852 140.461 300.426 140.461 301.178V304.373H139.57V301.307C139.57 300.766 139.435 300.354 139.165 300.07C138.894 299.78 138.525 299.635 138.057 299.635C137.582 299.635 137.203 299.783 136.919 300.08C136.642 300.377 136.504 300.809 136.504 301.376V304.373H135.604V298.952H136.504V299.724C136.682 299.447 136.923 299.233 137.226 299.081C137.536 298.929 137.875 298.853 138.245 298.853ZM143.029 299.694V302.889C143.029 303.153 143.085 303.341 143.197 303.453C143.309 303.559 143.504 303.611 143.781 303.611H144.443V304.373H143.632C143.131 304.373 142.755 304.258 142.505 304.027C142.254 303.796 142.129 303.417 142.129 302.889V299.694H141.426V298.952H142.129V297.587H143.029V298.952H144.443V299.694H143.029ZM145.999 298.072C145.828 298.072 145.683 298.013 145.564 297.894C145.445 297.775 145.386 297.63 145.386 297.459C145.386 297.287 145.445 297.142 145.564 297.023C145.683 296.905 145.828 296.845 145.999 296.845C146.164 296.845 146.302 296.905 146.415 297.023C146.533 297.142 146.593 297.287 146.593 297.459C146.593 297.63 146.533 297.775 146.415 297.894C146.302 298.013 146.164 298.072 145.999 298.072ZM146.434 298.952V304.373H145.534V298.952H146.434ZM149.066 299.694V302.889C149.066 303.153 149.123 303.341 149.235 303.453C149.347 303.559 149.541 303.611 149.818 303.611H150.481V304.373H149.67C149.169 304.373 148.793 304.258 148.542 304.027C148.292 303.796 148.166 303.417 148.166 302.889V299.694H147.464V298.952H148.166V297.587H149.066V298.952H150.481V299.694H149.066ZM156.241 298.952L152.976 306.925H152.046L153.115 304.314L150.929 298.952H151.928L153.629 303.344L155.311 298.952H156.241Z" fill="#FCFDFD"/>
<path opacity="0.15" d="M87.6816 279.441L302.83 279.441" stroke="#99A6AF" stroke-width="0.618243" stroke-linecap="round"/>
<path d="M161.893 243.11C161.893 243.581 161.776 244.023 161.54 244.438C161.314 244.852 160.975 245.2 160.523 245.483C160.081 245.765 159.554 245.934 158.942 245.991V247.135H158.024V245.991C157.139 245.906 156.423 245.629 155.877 245.158C155.331 244.687 155.058 244.066 155.058 243.294H156.781C156.809 243.661 156.927 243.967 157.134 244.212C157.341 244.447 157.638 244.598 158.024 244.664V241.557C157.393 241.397 156.88 241.237 156.485 241.077C156.089 240.907 155.75 240.643 155.468 240.286C155.195 239.928 155.058 239.438 155.058 238.817C155.058 238.036 155.331 237.391 155.877 236.882C156.423 236.365 157.139 236.063 158.024 235.979V234.835H158.942V235.979C159.77 236.054 160.434 236.317 160.933 236.769C161.441 237.212 161.729 237.824 161.794 238.605H160.072C160.043 238.313 159.93 238.054 159.733 237.828C159.535 237.593 159.271 237.433 158.942 237.348V240.399C159.573 240.549 160.086 240.709 160.481 240.879C160.876 241.039 161.211 241.298 161.484 241.656C161.757 242.004 161.893 242.489 161.893 243.11ZM156.696 238.732C156.696 239.118 156.809 239.42 157.035 239.636C157.271 239.853 157.6 240.027 158.024 240.159V237.306C157.619 237.353 157.294 237.499 157.049 237.744C156.814 237.989 156.696 238.318 156.696 238.732ZM158.942 244.664C159.356 244.598 159.681 244.433 159.916 244.169C160.152 243.896 160.269 243.571 160.269 243.195C160.269 242.818 160.152 242.526 159.916 242.319C159.69 242.103 159.365 241.929 158.942 241.797V244.664ZM164.031 237.08V235.611H166.969V245.906H165.345V237.08H164.031ZM169.18 240.625C169.18 238.996 169.453 237.725 169.999 236.812C170.555 235.889 171.506 235.428 172.852 235.428C174.198 235.428 175.144 235.889 175.69 236.812C176.246 237.725 176.524 238.996 176.524 240.625C176.524 242.272 176.246 243.562 175.69 244.494C175.144 245.417 174.198 245.878 172.852 245.878C171.506 245.878 170.555 245.417 169.999 244.494C169.453 243.562 169.18 242.272 169.18 240.625ZM174.942 240.625C174.942 239.862 174.89 239.217 174.787 238.69C174.692 238.163 174.495 237.734 174.193 237.405C173.892 237.066 173.445 236.896 172.852 236.896C172.259 236.896 171.812 237.066 171.51 237.405C171.209 237.734 171.007 238.163 170.903 238.69C170.809 239.217 170.762 239.862 170.762 240.625C170.762 241.415 170.809 242.079 170.903 242.616C170.997 243.152 171.195 243.586 171.496 243.915C171.807 244.245 172.259 244.409 172.852 244.409C173.445 244.409 173.892 244.245 174.193 243.915C174.504 243.586 174.707 243.152 174.801 242.616C174.895 242.079 174.942 241.415 174.942 240.625ZM178.227 240.625C178.227 238.996 178.5 237.725 179.046 236.812C179.602 235.889 180.552 235.428 181.899 235.428C183.245 235.428 184.191 235.889 184.737 236.812C185.293 237.725 185.57 238.996 185.57 240.625C185.57 242.272 185.293 243.562 184.737 244.494C184.191 245.417 183.245 245.878 181.899 245.878C180.552 245.878 179.602 245.417 179.046 244.494C178.5 243.562 178.227 242.272 178.227 240.625ZM183.989 240.625C183.989 239.862 183.937 239.217 183.833 238.69C183.739 238.163 183.542 237.734 183.24 237.405C182.939 237.066 182.492 236.896 181.899 236.896C181.306 236.896 180.858 237.066 180.557 237.405C180.256 237.734 180.054 238.163 179.95 238.69C179.856 239.217 179.809 239.862 179.809 240.625C179.809 241.415 179.856 242.079 179.95 242.616C180.044 243.152 180.242 243.586 180.543 243.915C180.854 244.245 181.306 244.409 181.899 244.409C182.492 244.409 182.939 244.245 183.24 243.915C183.551 243.586 183.753 243.152 183.848 242.616C183.942 242.079 183.989 241.415 183.989 240.625Z" fill="#0D6EFD"/>
<path d="M158.814 259.01C158.814 259.573 158.638 260.012 158.287 260.327C157.936 260.635 157.416 260.79 156.726 260.79H155.364V263.586H154.955V257.213H156.726C157.428 257.213 157.951 257.376 158.296 257.703C158.641 258.024 158.814 258.46 158.814 259.01ZM156.726 260.427C157.845 260.427 158.405 259.955 158.405 259.01C158.405 258.544 158.272 258.19 158.006 257.948C157.739 257.7 157.313 257.576 156.726 257.576H155.364V260.427H156.726ZM160.32 259.673C160.441 259.31 160.656 259.035 160.964 258.847C161.273 258.653 161.666 258.557 162.145 258.557V258.983H162.008C161.524 258.983 161.122 259.122 160.801 259.401C160.48 259.673 160.32 260.121 160.32 260.744V263.586H159.911V258.656H160.32V259.673ZM163.294 257.558C163.197 257.558 163.115 257.528 163.049 257.467C162.982 257.401 162.949 257.313 162.949 257.204C162.949 257.101 162.982 257.016 163.049 256.95C163.115 256.883 163.197 256.85 163.294 256.85C163.391 256.85 163.472 256.883 163.539 256.95C163.606 257.016 163.639 257.101 163.639 257.204C163.639 257.313 163.606 257.401 163.539 257.467C163.472 257.528 163.391 257.558 163.294 257.558ZM163.494 258.656V263.586H163.085V258.656H163.494ZM164.737 261.117C164.737 260.602 164.837 260.154 165.037 259.773C165.242 259.392 165.524 259.101 165.881 258.901C166.244 258.696 166.659 258.593 167.125 258.593C167.742 258.593 168.247 258.747 168.641 259.056C169.04 259.364 169.288 259.779 169.385 260.3H168.959C168.88 259.876 168.674 259.543 168.341 259.301C168.014 259.059 167.609 258.938 167.125 258.938C166.762 258.938 166.432 259.02 166.135 259.183C165.839 259.34 165.599 259.585 165.418 259.918C165.242 260.245 165.155 260.645 165.155 261.117C165.155 261.595 165.242 261.997 165.418 262.324C165.599 262.651 165.839 262.896 166.135 263.059C166.432 263.223 166.762 263.305 167.125 263.305C167.609 263.305 168.014 263.183 168.341 262.941C168.674 262.699 168.88 262.366 168.959 261.943H169.385C169.288 262.457 169.04 262.872 168.641 263.186C168.241 263.501 167.736 263.659 167.125 263.659C166.659 263.659 166.244 263.556 165.881 263.35C165.524 263.144 165.242 262.851 165.037 262.469C164.837 262.082 164.737 261.631 164.737 261.117ZM175.069 260.79C175.069 261.008 175.063 261.171 175.051 261.28H170.793C170.805 261.722 170.902 262.094 171.084 262.397C171.265 262.699 171.504 262.926 171.801 263.078C172.097 263.229 172.421 263.305 172.772 263.305C173.256 263.305 173.662 263.186 173.989 262.95C174.316 262.708 174.521 262.382 174.606 261.97H175.033C174.936 262.472 174.688 262.881 174.288 263.196C173.889 263.504 173.384 263.659 172.772 263.659C172.312 263.659 171.901 263.556 171.538 263.35C171.174 263.144 170.89 262.851 170.684 262.469C170.478 262.082 170.376 261.631 170.376 261.117C170.376 260.602 170.475 260.154 170.675 259.773C170.881 259.392 171.165 259.101 171.529 258.901C171.892 258.696 172.306 258.593 172.772 258.593C173.244 258.593 173.653 258.696 173.998 258.901C174.349 259.101 174.615 259.371 174.797 259.709C174.978 260.042 175.069 260.402 175.069 260.79ZM174.661 260.944C174.679 260.508 174.6 260.139 174.425 259.837C174.255 259.534 174.022 259.31 173.726 259.165C173.429 259.013 173.108 258.938 172.763 258.938C172.418 258.938 172.097 259.013 171.801 259.165C171.51 259.31 171.271 259.534 171.084 259.837C170.902 260.139 170.805 260.508 170.793 260.944H174.661ZM179.274 259.955C179.414 259.555 179.665 259.228 180.028 258.974C180.397 258.72 180.842 258.593 181.362 258.593C181.822 258.593 182.231 258.696 182.588 258.901C182.951 259.107 183.233 259.401 183.432 259.782C183.638 260.163 183.741 260.608 183.741 261.117C183.741 261.625 183.638 262.073 183.432 262.46C183.233 262.842 182.951 263.138 182.588 263.35C182.231 263.556 181.822 263.659 181.362 263.659C180.848 263.659 180.406 263.531 180.037 263.277C179.674 263.017 179.42 262.69 179.274 262.297V265.91H178.866V258.656H179.274V259.955ZM183.323 261.117C183.323 260.669 183.239 260.281 183.069 259.955C182.9 259.628 182.661 259.38 182.352 259.21C182.049 259.035 181.698 258.947 181.299 258.947C180.918 258.947 180.573 259.038 180.264 259.219C179.955 259.395 179.713 259.649 179.538 259.982C179.362 260.309 179.274 260.687 179.274 261.117C179.274 261.552 179.362 261.937 179.538 262.27C179.713 262.596 179.955 262.851 180.264 263.032C180.573 263.208 180.918 263.295 181.299 263.295C181.698 263.295 182.049 263.208 182.352 263.032C182.661 262.857 182.9 262.605 183.069 262.279C183.239 261.952 183.323 261.564 183.323 261.117ZM189.414 260.79C189.414 261.008 189.408 261.171 189.396 261.28H185.138C185.15 261.722 185.247 262.094 185.428 262.397C185.61 262.699 185.849 262.926 186.145 263.078C186.442 263.229 186.766 263.305 187.117 263.305C187.601 263.305 188.007 263.186 188.333 262.95C188.66 262.708 188.866 262.382 188.951 261.97H189.377C189.281 262.472 189.032 262.881 188.633 263.196C188.233 263.504 187.728 263.659 187.117 263.659C186.657 263.659 186.245 263.556 185.882 263.35C185.519 263.144 185.235 262.851 185.029 262.469C184.823 262.082 184.72 261.631 184.72 261.117C184.72 260.602 184.82 260.154 185.02 259.773C185.226 259.392 185.51 259.101 185.873 258.901C186.236 258.696 186.651 258.593 187.117 258.593C187.589 258.593 187.997 258.696 188.342 258.901C188.693 259.101 188.96 259.371 189.141 259.709C189.323 260.042 189.414 260.402 189.414 260.79ZM189.005 260.944C189.023 260.508 188.945 260.139 188.769 259.837C188.6 259.534 188.367 259.31 188.07 259.165C187.774 259.013 187.453 258.938 187.108 258.938C186.763 258.938 186.442 259.013 186.145 259.165C185.855 259.31 185.616 259.534 185.428 259.837C185.247 260.139 185.15 260.508 185.138 260.944H189.005ZM191.057 259.673C191.178 259.31 191.393 259.035 191.701 258.847C192.01 258.653 192.403 258.557 192.882 258.557V258.983H192.745C192.261 258.983 191.859 259.122 191.538 259.401C191.217 259.673 191.057 260.121 191.057 260.744V263.586H190.648V258.656H191.057V259.673ZM200.551 258.656V263.586H200.143V262.515C200.004 262.89 199.771 263.177 199.444 263.377C199.123 263.571 198.754 263.668 198.336 263.668C197.749 263.668 197.268 263.489 196.893 263.132C196.524 262.769 196.339 262.233 196.339 261.525V258.656H196.738V261.498C196.738 262.085 196.887 262.536 197.183 262.851C197.48 263.159 197.882 263.314 198.391 263.314C198.923 263.314 199.347 263.144 199.662 262.805C199.982 262.466 200.143 261.964 200.143 261.298V258.656H200.551ZM204.265 258.557C204.852 258.557 205.33 258.738 205.699 259.101C206.068 259.458 206.253 259.991 206.253 260.699V263.586H205.854V260.726C205.854 260.139 205.705 259.691 205.409 259.383C205.112 259.068 204.71 258.911 204.201 258.911C203.669 258.911 203.242 259.08 202.921 259.419C202.607 259.758 202.449 260.26 202.449 260.926V263.586H202.041V258.656H202.449V259.7C202.588 259.331 202.818 259.05 203.139 258.856C203.466 258.656 203.841 258.557 204.265 258.557ZM207.906 257.558C207.809 257.558 207.727 257.528 207.661 257.467C207.594 257.401 207.561 257.313 207.561 257.204C207.561 257.101 207.594 257.016 207.661 256.95C207.727 256.883 207.809 256.85 207.906 256.85C208.003 256.85 208.084 256.883 208.151 256.95C208.217 257.016 208.251 257.101 208.251 257.204C208.251 257.313 208.217 257.401 208.151 257.467C208.084 257.528 208.003 257.558 207.906 257.558ZM208.105 258.656V263.586H207.697V258.656H208.105ZM210.211 259.01V262.27C210.211 262.633 210.278 262.884 210.411 263.023C210.544 263.156 210.78 263.223 211.119 263.223H211.673V263.586H211.056C210.626 263.586 210.308 263.486 210.102 263.286C209.903 263.081 209.803 262.742 209.803 262.27V259.01H209.058V258.656H209.803V257.404H210.211V258.656H211.673V259.01H210.211Z" fill="#FCFDFD"/>
<path d="M239.034 243.717C239.938 242.936 240.648 242.296 241.166 241.797C241.694 241.288 242.131 240.761 242.48 240.215C242.828 239.669 243.002 239.123 243.002 238.577C243.002 238.012 242.866 237.57 242.593 237.249C242.329 236.929 241.91 236.769 241.336 236.769C240.78 236.769 240.347 236.948 240.037 237.306C239.735 237.654 239.575 238.125 239.556 238.718H238.003C238.031 237.645 238.351 236.826 238.963 236.261C239.585 235.687 240.371 235.4 241.322 235.4C242.348 235.4 243.148 235.682 243.722 236.247C244.306 236.812 244.598 237.565 244.598 238.506C244.598 239.184 244.424 239.839 244.075 240.469C243.736 241.091 243.327 241.651 242.847 242.15C242.376 242.639 241.774 243.209 241.039 243.859L240.404 244.423H244.88V245.765H238.017V244.593L239.034 243.717ZM246.295 240.625C246.295 238.996 246.568 237.725 247.114 236.812C247.669 235.889 248.62 235.428 249.966 235.428C251.313 235.428 252.259 235.889 252.805 236.812C253.36 237.725 253.638 238.996 253.638 240.625C253.638 242.272 253.36 243.562 252.805 244.494C252.259 245.417 251.313 245.878 249.966 245.878C248.62 245.878 247.669 245.417 247.114 244.494C246.568 243.562 246.295 242.272 246.295 240.625ZM252.056 240.625C252.056 239.862 252.005 239.217 251.901 238.69C251.807 238.163 251.609 237.734 251.308 237.405C251.007 237.066 250.559 236.896 249.966 236.896C249.373 236.896 248.926 237.066 248.625 237.405C248.324 237.734 248.121 238.163 248.018 238.69C247.923 239.217 247.876 239.862 247.876 240.625C247.876 241.415 247.923 242.079 248.018 242.616C248.112 243.152 248.309 243.586 248.611 243.915C248.921 244.245 249.373 244.409 249.966 244.409C250.559 244.409 251.007 244.245 251.308 243.915C251.619 243.586 251.821 243.152 251.915 242.616C252.009 242.079 252.056 241.415 252.056 240.625ZM256.231 243.717C257.135 242.936 257.846 242.296 258.364 241.797C258.891 241.288 259.329 240.761 259.677 240.215C260.025 239.669 260.199 239.123 260.199 238.577C260.199 238.012 260.063 237.57 259.79 237.249C259.526 236.929 259.107 236.769 258.533 236.769C257.978 236.769 257.545 236.948 257.234 237.306C256.933 237.654 256.773 238.125 256.754 238.718H255.2C255.229 237.645 255.549 236.826 256.161 236.261C256.782 235.687 257.568 235.4 258.519 235.4C259.545 235.4 260.345 235.682 260.92 236.247C261.503 236.812 261.795 237.565 261.795 238.506C261.795 239.184 261.621 239.839 261.273 240.469C260.934 241.091 260.524 241.651 260.044 242.15C259.573 242.639 258.971 243.209 258.237 243.859L257.601 244.423H262.078V245.765H255.214V244.593L256.231 243.717ZM263.28 237.08V235.611H266.218V245.906H264.593V237.08H263.28Z" fill="#0D6EFD"/>
<path d="M240.792 260.29C241.161 260.357 241.47 260.539 241.718 260.835C241.972 261.132 242.099 261.48 242.099 261.879C242.099 262.206 242.021 262.5 241.863 262.76C241.712 263.014 241.482 263.217 241.173 263.368C240.871 263.513 240.502 263.586 240.066 263.586H238.041V257.213H240.029C240.665 257.213 241.143 257.361 241.464 257.658C241.791 257.948 241.954 258.327 241.954 258.793C241.954 259.198 241.845 259.528 241.627 259.782C241.409 260.03 241.131 260.2 240.792 260.29ZM238.45 260.109H240.048C240.526 260.109 240.892 259.997 241.146 259.773C241.406 259.543 241.536 259.228 241.536 258.829C241.536 258.442 241.409 258.136 241.155 257.912C240.901 257.688 240.517 257.576 240.002 257.576H238.45V260.109ZM240.039 263.232C240.553 263.232 240.955 263.111 241.246 262.869C241.543 262.621 241.691 262.282 241.691 261.852C241.691 261.428 241.54 261.092 241.237 260.844C240.94 260.59 240.532 260.463 240.011 260.463H238.45V263.232H240.039ZM247.466 258.656V263.586H247.057V262.515C246.918 262.89 246.685 263.177 246.358 263.377C246.037 263.571 245.668 263.668 245.25 263.668C244.663 263.668 244.182 263.489 243.807 263.132C243.438 262.769 243.253 262.233 243.253 261.525V258.656H243.653V261.498C243.653 262.085 243.801 262.536 244.098 262.851C244.394 263.159 244.797 263.314 245.305 263.314C245.838 263.314 246.261 263.144 246.576 262.805C246.897 262.466 247.057 261.964 247.057 261.298V258.656H247.466ZM249.164 257.558C249.067 257.558 248.985 257.528 248.919 257.467C248.852 257.401 248.819 257.313 248.819 257.204C248.819 257.101 248.852 257.016 248.919 256.95C248.985 256.883 249.067 256.85 249.164 256.85C249.261 256.85 249.342 256.883 249.409 256.95C249.475 257.016 249.509 257.101 249.509 257.204C249.509 257.313 249.475 257.401 249.409 257.467C249.342 257.528 249.261 257.558 249.164 257.558ZM249.363 258.656V263.586H248.955V258.656H249.363ZM251.27 256.868V263.586H250.861V256.868H251.27ZM252.513 261.117C252.513 260.608 252.613 260.163 252.812 259.782C253.018 259.401 253.3 259.107 253.657 258.901C254.02 258.696 254.431 258.593 254.891 258.593C255.394 258.593 255.83 258.72 256.199 258.974C256.568 259.222 256.828 259.546 256.979 259.946V256.868H257.388V263.586H256.979V262.279C256.834 262.684 256.58 263.017 256.217 263.277C255.854 263.531 255.412 263.659 254.891 263.659C254.431 263.659 254.02 263.556 253.657 263.35C253.3 263.138 253.018 262.842 252.812 262.46C252.613 262.073 252.513 261.625 252.513 261.117ZM256.979 261.117C256.979 260.687 256.889 260.309 256.707 259.982C256.532 259.649 256.29 259.395 255.981 259.219C255.672 259.038 255.327 258.947 254.946 258.947C254.546 258.947 254.195 259.035 253.893 259.21C253.59 259.38 253.354 259.628 253.185 259.955C253.015 260.281 252.931 260.669 252.931 261.117C252.931 261.564 253.015 261.952 253.185 262.279C253.354 262.605 253.59 262.857 253.893 263.032C254.201 263.208 254.553 263.295 254.946 263.295C255.327 263.295 255.672 263.208 255.981 263.032C256.296 262.851 256.541 262.596 256.716 262.27C256.892 261.937 256.979 261.552 256.979 261.117ZM265.287 258.656L262.418 265.901H262.001L262.917 263.586L260.848 258.656H261.292L263.144 263.132L264.869 258.656H265.287ZM270.638 260.79C270.638 261.008 270.632 261.171 270.62 261.28H266.362C266.374 261.722 266.471 262.094 266.652 262.397C266.834 262.699 267.073 262.926 267.37 263.078C267.666 263.229 267.99 263.305 268.341 263.305C268.825 263.305 269.231 263.186 269.558 262.95C269.884 262.708 270.09 262.382 270.175 261.97H270.602C270.505 262.472 270.257 262.881 269.857 263.196C269.458 263.504 268.952 263.659 268.341 263.659C267.881 263.659 267.469 263.556 267.106 263.35C266.743 263.144 266.459 262.851 266.253 262.469C266.047 262.082 265.944 261.631 265.944 261.117C265.944 260.602 266.044 260.154 266.244 259.773C266.45 259.392 266.734 259.101 267.097 258.901C267.46 258.696 267.875 258.593 268.341 258.593C268.813 258.593 269.222 258.696 269.567 258.901C269.918 259.101 270.184 259.371 270.365 259.709C270.547 260.042 270.638 260.402 270.638 260.79ZM270.229 260.944C270.247 260.508 270.169 260.139 269.993 259.837C269.824 259.534 269.591 259.31 269.294 259.165C268.998 259.013 268.677 258.938 268.332 258.938C267.987 258.938 267.666 259.013 267.37 259.165C267.079 259.31 266.84 259.534 266.652 259.837C266.471 260.139 266.374 260.508 266.362 260.944H270.229ZM271.618 261.117C271.618 260.608 271.718 260.163 271.918 259.782C272.124 259.401 272.405 259.107 272.762 258.901C273.125 258.696 273.537 258.593 273.997 258.593C274.517 258.593 274.959 258.72 275.322 258.974C275.685 259.228 275.94 259.552 276.085 259.946V258.656H276.493V263.586H276.085V262.288C275.94 262.687 275.682 263.017 275.313 263.277C274.95 263.531 274.511 263.659 273.997 263.659C273.537 263.659 273.125 263.556 272.762 263.35C272.405 263.138 272.124 262.842 271.918 262.46C271.718 262.073 271.618 261.625 271.618 261.117ZM276.085 261.117C276.085 260.687 275.994 260.309 275.813 259.982C275.637 259.649 275.395 259.395 275.086 259.219C274.778 259.038 274.433 258.947 274.051 258.947C273.652 258.947 273.301 259.035 272.998 259.21C272.696 259.38 272.46 259.628 272.29 259.955C272.121 260.281 272.036 260.669 272.036 261.117C272.036 261.564 272.121 261.952 272.29 262.279C272.46 262.605 272.696 262.857 272.998 263.032C273.307 263.208 273.658 263.295 274.051 263.295C274.433 263.295 274.778 263.208 275.086 263.032C275.401 262.851 275.646 262.596 275.822 262.27C275.997 261.937 276.085 261.552 276.085 261.117ZM278.389 259.673C278.51 259.31 278.725 259.035 279.034 258.847C279.343 258.653 279.736 258.557 280.214 258.557V258.983H280.078C279.594 258.983 279.191 259.122 278.871 259.401C278.55 259.673 278.389 260.121 278.389 260.744V263.586H277.981V258.656H278.389V259.673Z" fill="#FCFDFD"/>
<path d="M88.9226 238.08V236.611H91.86V246.906H90.2359V238.08H88.9226ZM100.709 237.995H95.9781V240.806C96.1758 240.542 96.4676 240.321 96.8536 240.142C97.249 239.963 97.668 239.874 98.1105 239.874C98.9013 239.874 99.5415 240.043 100.031 240.382C100.53 240.721 100.883 241.149 101.09 241.667C101.307 242.185 101.415 242.731 101.415 243.305C101.415 244.002 101.278 244.623 101.005 245.169C100.742 245.706 100.342 246.13 99.8051 246.44C99.2779 246.751 98.6283 246.906 97.8563 246.906C96.8301 246.906 96.0063 246.652 95.3849 246.144C94.7636 245.635 94.3917 244.962 94.2693 244.124H95.8368C95.9404 244.567 96.1711 244.92 96.5288 245.183C96.8866 245.438 97.3338 245.565 97.8704 245.565C98.5388 245.565 99.0378 245.362 99.3673 244.957C99.7062 244.553 99.8757 244.016 99.8757 243.348C99.8757 242.67 99.7062 242.152 99.3673 241.794C99.0284 241.427 98.5294 241.243 97.8704 241.243C97.4091 241.243 97.0184 241.361 96.6983 241.596C96.3876 241.822 96.1616 242.133 96.0204 242.528H94.4952V236.583H100.709V237.995ZM103.952 247.005C103.66 247.005 103.416 246.906 103.218 246.709C103.02 246.511 102.921 246.266 102.921 245.974C102.921 245.682 103.02 245.438 103.218 245.24C103.416 245.042 103.66 244.943 103.952 244.943C104.235 244.943 104.475 245.042 104.673 245.24C104.87 245.438 104.969 245.682 104.969 245.974C104.969 246.266 104.87 246.511 104.673 246.709C104.475 246.906 104.235 247.005 103.952 247.005ZM107.387 244.717C108.291 243.936 109.002 243.296 109.519 242.797C110.047 242.288 110.484 241.761 110.833 241.215C111.181 240.669 111.355 240.123 111.355 239.577C111.355 239.012 111.219 238.57 110.946 238.249C110.682 237.929 110.263 237.769 109.689 237.769C109.133 237.769 108.7 237.948 108.39 238.306C108.088 238.654 107.928 239.125 107.909 239.718H106.356C106.384 238.645 106.704 237.826 107.316 237.261C107.938 236.687 108.724 236.4 109.675 236.4C110.701 236.4 111.501 236.682 112.075 237.247C112.659 237.812 112.951 238.565 112.951 239.506C112.951 240.184 112.777 240.839 112.428 241.469C112.09 242.091 111.68 242.651 111.2 243.15C110.729 243.639 110.127 244.209 109.392 244.859L108.757 245.423H113.233V246.765H106.37V245.593L107.387 244.717ZM114.394 239.097C114.394 238.41 114.591 237.873 114.987 237.487C115.391 237.091 115.909 236.894 116.54 236.894C117.171 236.894 117.684 237.091 118.079 237.487C118.484 237.873 118.687 238.41 118.687 239.097C118.687 239.784 118.484 240.325 118.079 240.721C117.684 241.116 117.171 241.314 116.54 241.314C115.909 241.314 115.391 241.116 114.987 240.721C114.591 240.325 114.394 239.784 114.394 239.097ZM123.008 237.077L117.373 246.906H115.792L121.426 237.077H123.008ZM116.54 237.868C115.947 237.868 115.65 238.278 115.65 239.097C115.65 239.925 115.947 240.34 116.54 240.34C116.822 240.34 117.039 240.241 117.19 240.043C117.35 239.836 117.43 239.52 117.43 239.097C117.43 238.278 117.133 237.868 116.54 237.868ZM120.141 244.873C120.141 244.185 120.339 243.649 120.734 243.263C121.139 242.867 121.657 242.67 122.288 242.67C122.909 242.67 123.417 242.867 123.813 243.263C124.218 243.649 124.42 244.185 124.42 244.873C124.42 245.56 124.218 246.101 123.813 246.497C123.417 246.892 122.909 247.09 122.288 247.09C121.657 247.09 121.139 246.892 120.734 246.497C120.339 246.101 120.141 245.56 120.141 244.873ZM122.274 243.644C121.68 243.644 121.384 244.054 121.384 244.873C121.384 245.692 121.68 246.101 122.274 246.101C122.867 246.101 123.163 245.692 123.163 244.873C123.163 244.054 122.867 243.644 122.274 243.644Z" fill="#0D6EFD"/>
<path d="M92.7349 257.502L90.7286 261.297V263.875H90.3201V261.297L88.2956 257.502H88.7586L90.5198 260.915L92.2719 257.502H92.7349ZM93.9244 257.847C93.8275 257.847 93.7458 257.817 93.6792 257.756C93.6127 257.69 93.5794 257.602 93.5794 257.493C93.5794 257.39 93.6127 257.305 93.6792 257.239C93.7458 257.172 93.8275 257.139 93.9244 257.139C94.0212 257.139 94.1029 257.172 94.1695 257.239C94.236 257.305 94.2693 257.39 94.2693 257.493C94.2693 257.602 94.236 257.69 94.1695 257.756C94.1029 257.817 94.0212 257.847 93.9244 257.847ZM94.1241 258.945V263.875H93.7155V258.945H94.1241ZM100.061 261.079C100.061 261.297 100.055 261.46 100.043 261.569H95.7851C95.7972 262.011 95.894 262.383 96.0756 262.686C96.2571 262.988 96.4962 263.215 96.7928 263.367C97.0893 263.518 97.4131 263.594 97.7642 263.594C98.2483 263.594 98.6538 263.476 98.9807 263.24C99.3075 262.997 99.5133 262.671 99.598 262.259H100.025C99.9278 262.761 99.6797 263.17 99.2802 263.485C98.8808 263.793 98.3754 263.948 97.7642 263.948C97.3042 263.948 96.8926 263.845 96.5295 263.639C96.1664 263.433 95.8819 263.14 95.6761 262.758C95.4704 262.371 95.3675 261.92 95.3675 261.406C95.3675 260.891 95.4673 260.443 95.667 260.062C95.8728 259.681 96.1573 259.39 96.5204 259.191C96.8836 258.985 97.2981 258.882 97.7642 258.882C98.2362 258.882 98.6448 258.985 98.9897 259.191C99.3408 259.39 99.6071 259.66 99.7886 259.999C99.9702 260.331 100.061 260.692 100.061 261.079ZM99.6525 261.233C99.6706 260.797 99.5919 260.428 99.4164 260.126C99.247 259.823 99.0139 259.599 98.7174 259.454C98.4208 259.303 98.1001 259.227 97.7551 259.227C97.4101 259.227 97.0893 259.303 96.7928 259.454C96.5023 259.599 96.2632 259.823 96.0756 260.126C95.894 260.428 95.7972 260.797 95.7851 261.233H99.6525ZM101.704 257.157V263.875H101.296V257.157H101.704ZM102.948 261.406C102.948 260.897 103.047 260.452 103.247 260.071C103.453 259.69 103.734 259.396 104.091 259.191C104.455 258.985 104.866 258.882 105.326 258.882C105.828 258.882 106.264 259.009 106.633 259.263C107.003 259.511 107.263 259.835 107.414 260.235V257.157H107.823V263.875H107.414V262.568C107.269 262.973 107.015 263.306 106.652 263.566C106.288 263.821 105.847 263.948 105.326 263.948C104.866 263.948 104.455 263.845 104.091 263.639C103.734 263.427 103.453 263.131 103.247 262.749C103.047 262.362 102.948 261.914 102.948 261.406ZM107.414 261.406C107.414 260.976 107.323 260.598 107.142 260.271C106.966 259.938 106.724 259.684 106.416 259.508C106.107 259.327 105.762 259.236 105.381 259.236C104.981 259.236 104.63 259.324 104.327 259.499C104.025 259.669 103.789 259.917 103.619 260.244C103.45 260.57 103.365 260.958 103.365 261.406C103.365 261.854 103.45 262.241 103.619 262.568C103.789 262.895 104.025 263.146 104.327 263.321C104.636 263.497 104.987 263.584 105.381 263.584C105.762 263.584 106.107 263.497 106.416 263.321C106.73 263.14 106.975 262.885 107.151 262.559C107.326 262.226 107.414 261.841 107.414 261.406Z" fill="#FCFDFD"/>
<g opacity="0.25">
<path d="M115.448 257.202C114.884 257.275 114.344 257.527 113.923 257.915C113.428 258.372 113.111 258.995 113.041 259.654C113.025 259.79 113.025 260.144 113.041 260.28C113.169 261.464 114.072 262.458 115.237 262.696C115.599 262.768 116.049 262.768 116.397 262.693C117.057 262.551 117.638 262.177 118.045 261.635C118.337 261.245 118.517 260.798 118.577 260.314C118.599 260.138 118.599 259.796 118.577 259.619C118.529 259.23 118.395 258.844 118.194 258.517C117.746 257.788 117 257.305 116.159 257.201C115.99 257.18 115.613 257.181 115.448 257.202ZM116.203 257.613C117.146 257.772 117.904 258.478 118.13 259.403C118.221 259.772 118.221 260.161 118.13 260.531C118.012 261.013 117.732 261.468 117.354 261.785C117.07 262.024 116.728 262.199 116.375 262.286C116.01 262.375 115.617 262.375 115.247 262.286C114.921 262.206 114.587 262.042 114.324 261.832C113.917 261.507 113.616 261.036 113.492 260.531C113.402 260.161 113.402 259.772 113.492 259.403C113.596 258.978 113.81 258.598 114.126 258.282C114.538 257.87 115.044 257.638 115.648 257.582C115.768 257.571 116.051 257.587 116.203 257.613Z" fill="#FCFDFD"/>
<path d="M115.698 258.656C115.508 258.726 115.447 258.926 115.572 259.069C115.736 259.256 116.078 259.169 116.11 258.932C116.124 258.832 116.057 258.721 115.952 258.667C115.9 258.642 115.755 258.635 115.698 258.656Z" fill="#FCFDFD"/>
<path d="M115.671 259.516C115.635 259.527 115.597 259.549 115.571 259.574L115.528 259.614V260.367V261.12L115.575 261.166C115.637 261.228 115.715 261.252 115.837 261.245C115.965 261.239 116.065 261.185 116.095 261.108C116.1 261.094 116.104 260.763 116.104 260.371C116.104 259.589 116.107 259.612 116.038 259.559C115.959 259.5 115.792 259.48 115.671 259.516Z" fill="#FCFDFD"/>
</g>
<path d="M88.567 206.8V204.979H91.9704V215.273H89.9368V206.8H88.567ZM93.9235 209.992C93.9235 208.363 94.2154 207.087 94.7991 206.165C95.3922 205.242 96.3713 204.781 97.7364 204.781C99.1015 204.781 100.076 205.242 100.66 206.165C101.253 207.087 101.549 208.363 101.549 209.992C101.549 211.63 101.253 212.915 100.66 213.847C100.076 214.779 99.1015 215.245 97.7364 215.245C96.3713 215.245 95.3922 214.779 94.7991 213.847C94.2154 212.915 93.9235 211.63 93.9235 209.992ZM99.6005 209.992C99.6005 209.295 99.5534 208.711 99.4593 208.241C99.3746 207.761 99.1957 207.37 98.9227 207.069C98.6591 206.767 98.2636 206.617 97.7364 206.617C97.2092 206.617 96.8091 206.767 96.5361 207.069C96.2725 207.37 96.0936 207.761 95.9994 208.241C95.9147 208.711 95.8723 209.295 95.8723 209.992C95.8723 210.707 95.9147 211.31 95.9994 211.799C96.0842 212.28 96.263 212.67 96.5361 212.972C96.8091 213.263 97.2092 213.409 97.7364 213.409C98.2636 213.409 98.6638 213.263 98.9368 212.972C99.2098 212.67 99.3887 212.28 99.4734 211.799C99.5582 211.31 99.6005 210.707 99.6005 209.992ZM103.053 209.992C103.053 208.363 103.345 207.087 103.929 206.165C104.522 205.242 105.501 204.781 106.866 204.781C108.231 204.781 109.206 205.242 109.789 206.165C110.382 207.087 110.679 208.363 110.679 209.992C110.679 211.63 110.382 212.915 109.789 213.847C109.206 214.779 108.231 215.245 106.866 215.245C105.501 215.245 104.522 214.779 103.929 213.847C103.345 212.915 103.053 211.63 103.053 209.992ZM108.73 209.992C108.73 209.295 108.683 208.711 108.589 208.241C108.504 207.761 108.325 207.37 108.052 207.069C107.789 206.767 107.393 206.617 106.866 206.617C106.339 206.617 105.939 206.767 105.666 207.069C105.402 207.37 105.223 207.761 105.129 208.241C105.044 208.711 105.002 209.295 105.002 209.992C105.002 210.707 105.044 211.31 105.129 211.799C105.214 212.28 105.393 212.67 105.666 212.972C105.939 213.263 106.339 213.409 106.866 213.409C107.393 213.409 107.793 213.263 108.066 212.972C108.339 212.67 108.518 212.28 108.603 211.799C108.688 211.31 108.73 210.707 108.73 209.992ZM120.349 215.372C119.427 215.372 118.579 215.156 117.807 214.723C117.035 214.29 116.423 213.692 115.971 212.929C115.519 212.157 115.294 211.286 115.294 210.317C115.294 209.356 115.519 208.495 115.971 207.732C116.423 206.96 117.035 206.358 117.807 205.925C118.579 205.492 119.427 205.275 120.349 205.275C121.281 205.275 122.129 205.492 122.891 205.925C123.663 206.358 124.27 206.96 124.713 207.732C125.165 208.495 125.391 209.356 125.391 210.317C125.391 211.286 125.165 212.157 124.713 212.929C124.27 213.692 123.663 214.29 122.891 214.723C122.119 215.156 121.272 215.372 120.349 215.372ZM120.349 213.607C120.942 213.607 121.465 213.475 121.917 213.212C122.369 212.939 122.722 212.553 122.976 212.054C123.23 211.555 123.357 210.976 123.357 210.317C123.357 209.658 123.23 209.083 122.976 208.594C122.722 208.095 122.369 207.713 121.917 207.45C121.465 207.186 120.942 207.054 120.349 207.054C119.756 207.054 119.229 207.186 118.768 207.45C118.316 207.713 117.963 208.095 117.708 208.594C117.454 209.083 117.327 209.658 117.327 210.317C117.327 210.976 117.454 211.555 117.708 212.054C117.963 212.553 118.316 212.939 118.768 213.212C119.229 213.475 119.756 213.607 120.349 213.607ZM126.353 211.362C126.353 210.552 126.518 209.846 126.847 209.243C127.177 208.631 127.634 208.161 128.217 207.831C128.801 207.492 129.469 207.323 130.223 207.323C131.192 207.323 131.993 207.568 132.623 208.057C133.264 208.537 133.692 209.215 133.908 210.091H131.776C131.663 209.752 131.47 209.488 131.197 209.3C130.933 209.102 130.604 209.003 130.209 209.003C129.644 209.003 129.196 209.21 128.867 209.625C128.537 210.029 128.373 210.608 128.373 211.362C128.373 212.105 128.537 212.684 128.867 213.099C129.196 213.503 129.644 213.706 130.209 213.706C131.009 213.706 131.531 213.348 131.776 212.633H133.908C133.692 213.48 133.264 214.153 132.623 214.652C131.983 215.151 131.183 215.401 130.223 215.401C129.469 215.401 128.801 215.236 128.217 214.906C127.634 214.567 127.177 214.097 126.847 213.494C126.518 212.882 126.353 212.171 126.353 211.362ZM142.63 211.192C142.63 211.475 142.611 211.729 142.573 211.955H136.854C136.901 212.52 137.099 212.962 137.447 213.282C137.795 213.602 138.224 213.762 138.732 213.762C139.466 213.762 139.989 213.447 140.3 212.816H142.432C142.206 213.569 141.773 214.191 141.133 214.68C140.493 215.16 139.706 215.401 138.774 215.401C138.021 215.401 137.343 215.236 136.741 214.906C136.148 214.567 135.682 214.092 135.343 213.48C135.013 212.868 134.848 212.162 134.848 211.362C134.848 210.552 135.013 209.841 135.343 209.229C135.672 208.617 136.134 208.147 136.727 207.817C137.32 207.488 138.002 207.323 138.774 207.323C139.518 207.323 140.182 207.483 140.766 207.803C141.359 208.123 141.815 208.58 142.135 209.173C142.465 209.756 142.63 210.43 142.63 211.192ZM140.582 210.627C140.573 210.119 140.389 209.714 140.031 209.413C139.673 209.102 139.236 208.947 138.718 208.947C138.228 208.947 137.814 209.097 137.475 209.399C137.146 209.691 136.943 210.1 136.868 210.627H140.582ZM143.564 211.333C143.564 210.543 143.72 209.841 144.03 209.229C144.35 208.617 144.779 208.147 145.315 207.817C145.862 207.488 146.469 207.323 147.137 207.323C147.721 207.323 148.229 207.44 148.662 207.676C149.105 207.911 149.458 208.208 149.721 208.566V207.45H151.713V215.273H149.721V214.13C149.467 214.497 149.114 214.803 148.662 215.047C148.22 215.283 147.707 215.401 147.123 215.401C146.464 215.401 145.862 215.231 145.315 214.892C144.779 214.553 144.35 214.078 144.03 213.466C143.72 212.844 143.564 212.134 143.564 211.333ZM149.721 211.362C149.721 210.882 149.627 210.472 149.439 210.133C149.251 209.785 148.997 209.521 148.676 209.342C148.356 209.154 148.013 209.06 147.646 209.06C147.278 209.06 146.939 209.149 146.629 209.328C146.318 209.507 146.064 209.771 145.866 210.119C145.678 210.458 145.584 210.863 145.584 211.333C145.584 211.804 145.678 212.218 145.866 212.576C146.064 212.924 146.318 213.193 146.629 213.381C146.949 213.569 147.288 213.664 147.646 213.664C148.013 213.664 148.356 213.574 148.676 213.395C148.997 213.207 149.251 212.943 149.439 212.604C149.627 212.256 149.721 211.842 149.721 211.362ZM157.979 207.337C158.911 207.337 159.664 207.633 160.239 208.227C160.813 208.81 161.1 209.629 161.1 210.684V215.273H159.123V210.952C159.123 210.331 158.968 209.855 158.657 209.526C158.346 209.187 157.923 209.017 157.386 209.017C156.84 209.017 156.407 209.187 156.087 209.526C155.776 209.855 155.621 210.331 155.621 210.952V215.273H153.644V207.45H155.621V208.424C155.884 208.085 156.219 207.822 156.623 207.633C157.038 207.436 157.49 207.337 157.979 207.337ZM169.791 205.416C170.826 205.416 171.735 205.619 172.516 206.024C173.307 206.428 173.914 207.007 174.338 207.761C174.771 208.504 174.988 209.37 174.988 210.359C174.988 211.348 174.771 212.214 174.338 212.957C173.914 213.692 173.307 214.261 172.516 214.666C171.735 215.071 170.826 215.273 169.791 215.273H166.345V205.416H169.791ZM169.72 213.593C170.756 213.593 171.556 213.31 172.121 212.746C172.686 212.181 172.968 211.385 172.968 210.359C172.968 209.333 172.686 208.533 172.121 207.958C171.556 207.375 170.756 207.083 169.72 207.083H168.322V213.593H169.72ZM178.445 208.664C178.699 208.25 179.028 207.925 179.433 207.69C179.848 207.455 180.318 207.337 180.845 207.337V209.413H180.323C179.702 209.413 179.231 209.559 178.911 209.851C178.6 210.142 178.445 210.651 178.445 211.376V215.273H176.468V207.45H178.445V208.664ZM183.18 206.518C182.831 206.518 182.54 206.41 182.304 206.193C182.078 205.967 181.965 205.689 181.965 205.36C181.965 205.03 182.078 204.757 182.304 204.541C182.54 204.315 182.831 204.202 183.18 204.202C183.528 204.202 183.815 204.315 184.041 204.541C184.277 204.757 184.394 205.03 184.394 205.36C184.394 205.689 184.277 205.967 184.041 206.193C183.815 206.41 183.528 206.518 183.18 206.518ZM184.154 207.45V215.273H182.177V207.45H184.154ZM189.37 213.452L191.347 207.45H193.451L190.556 215.273H188.155L185.274 207.45H187.393L189.37 213.452ZM201.834 211.192C201.834 211.475 201.815 211.729 201.778 211.955H196.058C196.105 212.52 196.303 212.962 196.651 213.282C197 213.602 197.428 213.762 197.937 213.762C198.671 213.762 199.193 213.447 199.504 212.816H201.637C201.411 213.569 200.977 214.191 200.337 214.68C199.697 215.16 198.911 215.401 197.979 215.401C197.226 215.401 196.548 215.236 195.945 214.906C195.352 214.567 194.886 214.092 194.547 213.48C194.218 212.868 194.053 212.162 194.053 211.362C194.053 210.552 194.218 209.841 194.547 209.229C194.877 208.617 195.338 208.147 195.931 207.817C196.524 207.488 197.207 207.323 197.979 207.323C198.723 207.323 199.386 207.483 199.97 207.803C200.563 208.123 201.02 208.58 201.34 209.173C201.669 209.756 201.834 210.43 201.834 211.192ZM199.787 210.627C199.777 210.119 199.594 209.714 199.236 209.413C198.878 209.102 198.44 208.947 197.922 208.947C197.433 208.947 197.019 209.097 196.68 209.399C196.35 209.691 196.148 210.1 196.072 210.627H199.787Z" fill="#FCFDFD"/>
<path d="M105.149 186.394V192.631H104.74V187.247L102.344 192.631H102.017L99.611 187.247V192.631H99.2024V186.394H99.6382L102.18 192.095L104.722 186.394H105.149ZM106.858 186.603C106.762 186.603 106.68 186.573 106.613 186.512C106.547 186.445 106.513 186.358 106.513 186.249C106.513 186.146 106.547 186.061 106.613 185.995C106.68 185.928 106.762 185.895 106.858 185.895C106.955 185.895 107.037 185.928 107.103 185.995C107.17 186.061 107.203 186.146 107.203 186.249C107.203 186.358 107.17 186.445 107.103 186.512C107.037 186.573 106.955 186.603 106.858 186.603ZM107.058 187.701V192.631H106.65V187.701H107.058ZM108.301 190.162C108.301 189.653 108.401 189.208 108.601 188.827C108.807 188.446 109.088 188.152 109.445 187.946C109.808 187.741 110.22 187.638 110.68 187.638C111.2 187.638 111.642 187.765 112.005 188.019C112.369 188.273 112.623 188.597 112.768 188.99V187.701H113.177V192.631H112.768V191.333C112.623 191.732 112.366 192.062 111.996 192.322C111.633 192.576 111.194 192.703 110.68 192.703C110.22 192.703 109.808 192.601 109.445 192.395C109.088 192.183 108.807 191.886 108.601 191.505C108.401 191.118 108.301 190.67 108.301 190.162ZM112.768 190.162C112.768 189.732 112.677 189.354 112.496 189.027C112.32 188.694 112.078 188.44 111.769 188.264C111.461 188.083 111.116 187.992 110.734 187.992C110.335 187.992 109.984 188.08 109.681 188.255C109.379 188.425 109.143 188.673 108.973 189C108.804 189.326 108.719 189.714 108.719 190.162C108.719 190.609 108.804 190.997 108.973 191.324C109.143 191.65 109.379 191.902 109.681 192.077C109.99 192.253 110.341 192.34 110.734 192.34C111.116 192.34 111.461 192.253 111.769 192.077C112.084 191.896 112.329 191.641 112.505 191.314C112.68 190.982 112.768 190.597 112.768 190.162ZM120.492 187.601C121.055 187.601 121.515 187.783 121.872 188.146C122.229 188.503 122.408 189.036 122.408 189.744V192.631H122.008V189.771C122.008 189.184 121.866 188.736 121.582 188.428C121.303 188.113 120.919 187.955 120.429 187.955C119.92 187.955 119.512 188.131 119.203 188.482C118.895 188.833 118.74 189.341 118.74 190.007V192.631H118.341V189.771C118.341 189.184 118.199 188.736 117.914 188.428C117.636 188.113 117.251 187.955 116.761 187.955C116.253 187.955 115.844 188.131 115.536 188.482C115.227 188.833 115.073 189.341 115.073 190.007V192.631H114.664V187.701H115.073V188.773C115.212 188.385 115.436 188.095 115.744 187.901C116.059 187.701 116.419 187.601 116.825 187.601C117.273 187.601 117.657 187.719 117.978 187.955C118.305 188.185 118.528 188.527 118.649 188.981C118.764 188.527 118.988 188.185 119.321 187.955C119.654 187.719 120.045 187.601 120.492 187.601ZM124.067 186.603C123.97 186.603 123.888 186.573 123.821 186.512C123.755 186.445 123.722 186.358 123.722 186.249C123.722 186.146 123.755 186.061 123.821 185.995C123.888 185.928 123.97 185.895 124.067 185.895C124.163 185.895 124.245 185.928 124.312 185.995C124.378 186.061 124.411 186.146 124.411 186.249C124.411 186.358 124.378 186.445 124.312 186.512C124.245 186.573 124.163 186.603 124.067 186.603ZM124.266 187.701V192.631H123.858V187.701H124.266ZM126.036 191.678L125.183 194.002H124.874L125.564 191.678H126.036ZM132.907 186.258V186.603H130.029V189.263H132.544V189.608H130.029V192.631H129.62V186.258H132.907ZM134.4 192.286H136.769V192.631H133.991V186.258H134.4V192.286ZM140.096 187.865C140.15 187.314 140.362 186.881 140.731 186.566C141.106 186.252 141.6 186.094 142.211 186.094C142.604 186.094 142.94 186.167 143.219 186.312C143.497 186.452 143.709 186.642 143.854 186.884C143.999 187.126 144.072 187.402 144.072 187.71C144.072 188.098 143.954 188.434 143.718 188.718C143.482 188.996 143.122 189.163 142.638 189.217V189.272C143.104 189.344 143.479 189.523 143.763 189.807C144.048 190.092 144.19 190.473 144.19 190.951C144.19 191.46 144.021 191.877 143.682 192.204C143.349 192.525 142.859 192.685 142.211 192.685C141.6 192.685 141.094 192.522 140.695 192.195C140.301 191.868 140.065 191.405 139.987 190.806H140.386C140.459 191.254 140.653 191.62 140.967 191.905C141.282 192.183 141.697 192.322 142.211 192.322C142.731 192.322 143.125 192.192 143.391 191.932C143.664 191.672 143.8 191.336 143.8 190.924C143.8 190.428 143.609 190.056 143.228 189.807C142.853 189.559 142.314 189.435 141.612 189.435H141.439V189.081H141.621C142.989 189.075 143.673 188.627 143.673 187.738C143.673 187.35 143.542 187.039 143.282 186.803C143.028 186.566 142.668 186.448 142.202 186.448C141.748 186.448 141.364 186.57 141.049 186.812C140.74 187.048 140.556 187.399 140.495 187.865H140.096ZM145.362 187.865C145.416 187.314 145.628 186.881 145.997 186.566C146.373 186.252 146.866 186.094 147.477 186.094C147.871 186.094 148.206 186.167 148.485 186.312C148.763 186.452 148.975 186.642 149.12 186.884C149.266 187.126 149.338 187.402 149.338 187.71C149.338 188.098 149.22 188.434 148.984 188.718C148.748 188.996 148.388 189.163 147.904 189.217V189.272C148.37 189.344 148.745 189.523 149.03 189.807C149.314 190.092 149.456 190.473 149.456 190.951C149.456 191.46 149.287 191.877 148.948 192.204C148.615 192.525 148.125 192.685 147.477 192.685C146.866 192.685 146.36 192.522 145.961 192.195C145.568 191.868 145.332 191.405 145.253 190.806H145.652C145.725 191.254 145.919 191.62 146.233 191.905C146.548 192.183 146.963 192.322 147.477 192.322C147.998 192.322 148.391 192.192 148.657 191.932C148.93 191.672 149.066 191.336 149.066 190.924C149.066 190.428 148.875 190.056 148.494 189.807C148.119 189.559 147.58 189.435 146.878 189.435H146.705V189.081H146.887C148.255 189.075 148.939 188.627 148.939 187.738C148.939 187.35 148.809 187.039 148.548 186.803C148.294 186.566 147.934 186.448 147.468 186.448C147.014 186.448 146.63 186.57 146.315 186.812C146.006 187.048 145.822 187.399 145.761 187.865H145.362ZM150.501 192.331C151.639 191.544 152.535 190.785 153.188 190.053C153.848 189.32 154.178 188.618 154.178 187.946C154.178 187.505 154.06 187.144 153.824 186.866C153.594 186.588 153.215 186.448 152.689 186.448C152.162 186.448 151.76 186.609 151.481 186.93C151.203 187.25 151.046 187.674 151.009 188.201H150.61C150.652 187.535 150.858 187.017 151.227 186.648C151.596 186.279 152.084 186.094 152.689 186.094C153.24 186.094 153.69 186.249 154.042 186.557C154.399 186.866 154.577 187.326 154.577 187.937C154.577 188.694 154.229 189.456 153.533 190.225C152.843 190.994 152.053 191.672 151.164 192.259H154.786V192.604H150.501V192.331ZM159.855 186.539H156.368V189.145C156.532 188.915 156.771 188.727 157.086 188.582C157.4 188.431 157.742 188.355 158.111 188.355C158.602 188.355 159.001 188.455 159.31 188.655C159.625 188.848 159.852 189.102 159.991 189.417C160.13 189.732 160.2 190.074 160.2 190.443C160.2 190.855 160.124 191.23 159.973 191.569C159.821 191.902 159.582 192.171 159.255 192.377C158.935 192.576 158.529 192.676 158.039 192.676C157.446 192.676 156.955 192.516 156.568 192.195C156.187 191.868 155.954 191.429 155.869 190.879H156.269C156.359 191.345 156.562 191.702 156.877 191.95C157.192 192.192 157.579 192.313 158.039 192.313C158.626 192.313 159.068 192.144 159.364 191.805C159.661 191.46 159.809 191.009 159.809 190.452C159.809 189.907 159.658 189.481 159.355 189.172C159.059 188.863 158.632 188.709 158.075 188.709C157.694 188.709 157.352 188.794 157.049 188.963C156.753 189.133 156.523 189.366 156.359 189.662H155.978V186.176H159.855V186.539ZM161.938 190.942C161.998 191.384 162.159 191.726 162.419 191.968C162.685 192.21 163.042 192.331 163.49 192.331C164.101 192.331 164.564 192.104 164.879 191.65C165.2 191.196 165.36 190.461 165.36 189.444L165.351 189.09C165.26 189.49 165.033 189.807 164.67 190.044C164.313 190.28 163.896 190.398 163.418 190.398C162.764 190.398 162.249 190.204 161.874 189.817C161.499 189.429 161.311 188.894 161.311 188.21C161.311 187.604 161.484 187.102 161.829 186.703C162.18 186.297 162.706 186.094 163.408 186.094C164.292 186.094 164.897 186.376 165.224 186.939C165.557 187.502 165.723 188.285 165.723 189.29C165.723 190.398 165.551 191.242 165.206 191.823C164.861 192.398 164.283 192.685 163.472 192.685C162.903 192.685 162.455 192.528 162.128 192.213C161.802 191.892 161.608 191.469 161.547 190.942H161.938ZM163.463 190.053C163.772 190.053 164.065 189.989 164.344 189.862C164.622 189.729 164.846 189.535 165.015 189.281C165.191 189.027 165.279 188.718 165.279 188.355C165.279 188.01 165.212 187.692 165.079 187.402C164.946 187.111 164.737 186.878 164.452 186.703C164.174 186.527 163.826 186.439 163.408 186.439C162.894 186.439 162.479 186.6 162.165 186.921C161.856 187.235 161.702 187.665 161.702 188.21C161.702 188.797 161.856 189.251 162.165 189.571C162.473 189.892 162.906 190.053 163.463 190.053Z" fill="#99A6AF"/>
<path opacity="0.35" d="M90.9616 184.866C90.4686 184.94 90.063 185.085 89.6686 185.326C88.9962 185.737 88.5291 186.375 88.3578 187.115C88.3061 187.334 88.2867 187.774 88.3174 188.005C88.4063 188.663 88.7845 189.464 89.41 190.318C89.6928 190.702 90.1389 191.229 90.4977 191.603C90.6998 191.811 91.1216 192.225 91.2331 192.324C91.3285 192.407 91.3447 192.416 91.4093 192.416C91.4772 192.416 91.482 192.413 91.6921 192.218C92.4776 191.483 93.2211 190.621 93.6882 189.904C94.1343 189.219 94.3978 188.608 94.4866 188.054C94.5254 187.802 94.5109 187.357 94.4543 187.115C94.1941 185.989 93.2599 185.135 92.0283 184.895C91.8586 184.861 91.7875 184.855 91.4626 184.852C91.2073 184.848 91.0505 184.852 90.9616 184.866ZM91.7616 186.435C91.9217 186.472 92.1754 186.59 92.3031 186.689C92.9367 187.177 92.9884 188.035 92.4178 188.583C92.0008 188.984 91.2994 189.089 90.7628 188.83C90.3927 188.651 90.1276 188.342 90.0323 187.98C89.9886 187.808 89.9886 187.56 90.0323 187.388C90.1018 187.125 90.2828 186.86 90.5139 186.684C90.6367 186.591 90.8953 186.47 91.0505 186.433C91.2622 186.383 91.5451 186.383 91.7616 186.435Z" fill="#99A6AF"/>
<path d="M72.8447 12.3649C72.8447 5.53594 78.3807 0 85.2096 0H305.285C312.114 0 317.65 5.53594 317.65 12.3649V163.834H72.8447V12.3649Z" fill="url(#pattern0)"/>
<defs>
<pattern id="pattern0" patternContentUnits="objectBoundingBox" width="1" height="1">
<use xlink:href="#image0_6467_10730" transform="matrix(0.000702988 0 0 0.00105042 -0.00228462 0)"/>
</pattern>

</defs>
</svg>
