<svg width="664" height="592" viewBox="0 0 664 592" fill="none" xmlns="http://www.w3.org/2000/svg" xmlns:xlink="http://www.w3.org/1999/xlink">
<rect opacity="0.15" y="52" width="664" height="440" rx="16" fill="#0D6EFD" fill-opacity="0.15"/>
<path d="M134 254H530V572C530 583.046 521.046 592 510 592H154C142.954 592 134 583.046 134 572V254Z" fill="#0D6EFD" fill-opacity="0.15"/>
<path d="M134.737 254.737H529.263V572C529.263 582.639 520.639 591.263 510 591.263H154C143.361 591.263 134.737 582.639 134.737 572V254.737Z" stroke="#0D6EFD" stroke-opacity="0.15" stroke-width="1.47359"/>
<path d="M285.013 542.731C284.748 542.222 284.381 541.84 283.911 541.586C283.441 541.322 282.898 541.189 282.281 541.189C281.606 541.189 281.004 541.341 280.475 541.645C279.947 541.948 279.531 542.379 279.227 542.937C278.933 543.495 278.787 544.141 278.787 544.875C278.787 545.609 278.933 546.26 279.227 546.828C279.531 547.386 279.947 547.817 280.475 548.12C281.004 548.424 281.606 548.576 282.281 548.576C283.192 548.576 283.931 548.321 284.499 547.812C285.066 547.303 285.414 546.613 285.541 545.742H281.709V544.405H287.333V545.712C287.225 546.505 286.941 547.234 286.481 547.9C286.031 548.566 285.438 549.099 284.704 549.501C283.98 549.892 283.172 550.088 282.281 550.088C281.322 550.088 280.446 549.868 279.653 549.427C278.86 548.977 278.229 548.355 277.759 547.562C277.299 546.769 277.068 545.874 277.068 544.875C277.068 543.877 277.299 542.981 277.759 542.188C278.229 541.395 278.86 540.778 279.653 540.338C280.456 539.887 281.332 539.662 282.281 539.662C283.368 539.662 284.332 539.932 285.174 540.47C286.026 540.999 286.643 541.752 287.024 542.731H285.013ZM292.493 550.132C291.73 550.132 291.04 549.961 290.423 549.618C289.806 549.266 289.322 548.776 288.969 548.15C288.617 547.513 288.44 546.779 288.44 545.947C288.44 545.125 288.622 544.396 288.984 543.759C289.346 543.123 289.84 542.633 290.467 542.291C291.093 541.948 291.793 541.777 292.567 541.777C293.34 541.777 294.04 541.948 294.667 542.291C295.293 542.633 295.787 543.123 296.15 543.759C296.512 544.396 296.693 545.125 296.693 545.947C296.693 546.769 296.507 547.499 296.135 548.135C295.763 548.771 295.254 549.266 294.608 549.618C293.971 549.961 293.267 550.132 292.493 550.132ZM292.493 548.678C292.924 548.678 293.325 548.576 293.697 548.37C294.079 548.164 294.388 547.856 294.622 547.445C294.857 547.034 294.975 546.535 294.975 545.947C294.975 545.36 294.862 544.865 294.637 544.464C294.412 544.053 294.113 543.745 293.741 543.539C293.369 543.333 292.968 543.231 292.537 543.231C292.107 543.231 291.705 543.333 291.333 543.539C290.971 543.745 290.682 544.053 290.467 544.464C290.252 544.865 290.144 545.36 290.144 545.947C290.144 546.818 290.364 547.494 290.805 547.974C291.255 548.443 291.818 548.678 292.493 548.678ZM304.115 543.275V547.753C304.115 548.057 304.184 548.277 304.321 548.414C304.468 548.541 304.712 548.605 305.055 548.605H306.083V550H304.761C304.008 550 303.43 549.824 303.029 549.471C302.627 549.119 302.427 548.546 302.427 547.753V543.275H301.472V541.909H302.427V539.897H304.115V541.909H306.083V543.275H304.115ZM311.135 550.132C310.372 550.132 309.682 549.961 309.065 549.618C308.448 549.266 307.964 548.776 307.611 548.15C307.259 547.513 307.082 546.779 307.082 545.947C307.082 545.125 307.264 544.396 307.626 543.759C307.988 543.123 308.482 542.633 309.109 542.291C309.735 541.948 310.435 541.777 311.209 541.777C311.982 541.777 312.682 541.948 313.309 542.291C313.935 542.633 314.429 543.123 314.792 543.759C315.154 544.396 315.335 545.125 315.335 545.947C315.335 546.769 315.149 547.499 314.777 548.135C314.405 548.771 313.896 549.266 313.25 549.618C312.614 549.961 311.909 550.132 311.135 550.132ZM311.135 548.678C311.566 548.678 311.967 548.576 312.339 548.37C312.721 548.164 313.03 547.856 313.265 547.445C313.499 547.034 313.617 546.535 313.617 545.947C313.617 545.36 313.504 544.865 313.279 544.464C313.054 544.053 312.755 543.745 312.383 543.539C312.011 543.333 311.61 543.231 311.179 543.231C310.749 543.231 310.347 543.333 309.975 543.539C309.613 543.745 309.324 544.053 309.109 544.464C308.894 544.865 308.786 545.36 308.786 545.947C308.786 546.818 309.006 547.494 309.447 547.974C309.897 548.443 310.46 548.678 311.135 548.678ZM322.478 543.098C322.762 542.726 323.149 542.413 323.638 542.159C324.128 541.904 324.681 541.777 325.298 541.777C326.002 541.777 326.644 541.953 327.221 542.305C327.809 542.648 328.269 543.133 328.602 543.759C328.934 544.386 329.101 545.105 329.101 545.918C329.101 546.73 328.934 547.46 328.602 548.106C328.269 548.742 327.809 549.241 327.221 549.604C326.644 549.956 326.002 550.132 325.298 550.132C324.681 550.132 324.133 550.01 323.653 549.765C323.173 549.511 322.782 549.197 322.478 548.825V553.847H320.804V541.909H322.478V543.098ZM327.397 545.918C327.397 545.36 327.28 544.88 327.045 544.479C326.82 544.068 326.516 543.759 326.135 543.554C325.763 543.338 325.361 543.231 324.931 543.231C324.51 543.231 324.108 543.338 323.726 543.554C323.354 543.769 323.051 544.082 322.816 544.493C322.591 544.905 322.478 545.389 322.478 545.947C322.478 546.505 322.591 546.995 322.816 547.416C323.051 547.827 323.354 548.14 323.726 548.355C324.108 548.571 324.51 548.678 324.931 548.678C325.361 548.678 325.763 548.571 326.135 548.355C326.516 548.13 326.82 547.807 327.045 547.386C327.28 546.965 327.397 546.476 327.397 545.918ZM330.198 545.918C330.198 545.105 330.365 544.386 330.697 543.759C331.04 543.133 331.5 542.648 332.078 542.305C332.665 541.953 333.311 541.777 334.016 541.777C334.652 541.777 335.206 541.904 335.675 542.159C336.155 542.403 336.537 542.712 336.821 543.084V541.909H338.509V550H336.821V548.796C336.537 549.178 336.15 549.496 335.661 549.75C335.171 550.005 334.613 550.132 333.987 550.132C333.292 550.132 332.655 549.956 332.078 549.604C331.5 549.241 331.04 548.742 330.697 548.106C330.365 547.46 330.198 546.73 330.198 545.918ZM336.821 545.947C336.821 545.389 336.703 544.905 336.468 544.493C336.243 544.082 335.945 543.769 335.573 543.554C335.201 543.338 334.799 543.231 334.369 543.231C333.938 543.231 333.536 543.338 333.164 543.554C332.792 543.759 332.489 544.068 332.254 544.479C332.029 544.88 331.916 545.36 331.916 545.918C331.916 546.476 332.029 546.965 332.254 547.386C332.489 547.807 332.792 548.13 333.164 548.355C333.546 548.571 333.948 548.678 334.369 548.678C334.799 548.678 335.201 548.571 335.573 548.355C335.945 548.14 336.243 547.827 336.468 547.416C336.703 546.995 336.821 546.505 336.821 545.947ZM347.992 541.909L343.028 553.803H341.296L342.94 549.868L339.754 541.909H341.619L343.895 548.076L346.259 541.909H347.992ZM359.049 541.777C359.686 541.777 360.253 541.909 360.753 542.173C361.262 542.438 361.658 542.829 361.942 543.348C362.236 543.867 362.382 544.493 362.382 545.228V550H360.723V545.477C360.723 544.753 360.542 544.2 360.18 543.818C359.818 543.426 359.323 543.231 358.697 543.231C358.07 543.231 357.571 543.426 357.199 543.818C356.837 544.2 356.656 544.753 356.656 545.477V550H354.996V545.477C354.996 544.753 354.815 544.2 354.453 543.818C354.091 543.426 353.596 543.231 352.97 543.231C352.343 543.231 351.844 543.426 351.472 543.818C351.11 544.2 350.929 544.753 350.929 545.477V550H349.255V541.909H350.929V542.834C351.203 542.501 351.55 542.242 351.971 542.056C352.392 541.87 352.843 541.777 353.322 541.777C353.968 541.777 354.546 541.914 355.055 542.188C355.564 542.462 355.956 542.859 356.23 543.377C356.475 542.888 356.856 542.501 357.375 542.217C357.894 541.924 358.452 541.777 359.049 541.777ZM371.928 545.756C371.928 546.06 371.909 546.334 371.869 546.579H365.687C365.736 547.225 365.976 547.744 366.407 548.135C366.838 548.527 367.366 548.722 367.993 548.722C368.893 548.722 369.53 548.346 369.902 547.592H371.708C371.463 548.336 371.018 548.948 370.372 549.427C369.735 549.897 368.942 550.132 367.993 550.132C367.219 550.132 366.524 549.961 365.908 549.618C365.301 549.266 364.821 548.776 364.469 548.15C364.126 547.513 363.955 546.779 363.955 545.947C363.955 545.115 364.121 544.386 364.454 543.759C364.797 543.123 365.271 542.633 365.878 542.291C366.495 541.948 367.2 541.777 367.993 541.777C368.756 541.777 369.437 541.943 370.034 542.276C370.631 542.609 371.096 543.079 371.429 543.686C371.762 544.283 371.928 544.973 371.928 545.756ZM370.181 545.228C370.171 544.611 369.951 544.117 369.52 543.745C369.089 543.373 368.556 543.187 367.919 543.187C367.342 543.187 366.847 543.373 366.436 543.745C366.025 544.107 365.78 544.601 365.702 545.228H370.181ZM377.658 541.777C378.294 541.777 378.862 541.909 379.361 542.173C379.87 542.438 380.267 542.829 380.55 543.348C380.834 543.867 380.976 544.493 380.976 545.228V550H379.317V545.477C379.317 544.753 379.136 544.2 378.774 543.818C378.411 543.426 377.917 543.231 377.291 543.231C376.664 543.231 376.165 543.426 375.793 543.818C375.431 544.2 375.25 544.753 375.25 545.477V550H373.576V541.909H375.25V542.834C375.524 542.501 375.871 542.242 376.292 542.056C376.723 541.87 377.178 541.777 377.658 541.777ZM385.065 543.275V547.753C385.065 548.057 385.133 548.277 385.27 548.414C385.417 548.541 385.662 548.605 386.004 548.605H387.032V550H385.711C384.957 550 384.379 549.824 383.978 549.471C383.577 549.119 383.376 548.546 383.376 547.753V543.275H382.421V541.909H383.376V539.897H385.065V541.909H387.032V543.275H385.065Z" fill="#FCFDFD"/>
<rect x="150.5" y="522.5" width="363" height="45" rx="10.921" stroke="#1269E8"/>
<path d="M456.105 480.585H448.453V485.13C448.773 484.704 449.245 484.346 449.869 484.057C450.509 483.767 451.187 483.623 451.902 483.623C453.182 483.623 454.217 483.897 455.009 484.445C455.816 484.993 456.387 485.686 456.722 486.524C457.072 487.361 457.247 488.244 457.247 489.173C457.247 490.3 457.027 491.305 456.585 492.188C456.159 493.056 455.511 493.742 454.643 494.244C453.791 494.747 452.74 494.998 451.491 494.998C449.831 494.998 448.499 494.587 447.494 493.765C446.489 492.942 445.887 491.853 445.689 490.498H448.225C448.392 491.214 448.765 491.785 449.344 492.211C449.923 492.622 450.646 492.828 451.514 492.828C452.595 492.828 453.402 492.501 453.935 491.846C454.484 491.191 454.758 490.323 454.758 489.242C454.758 488.145 454.484 487.308 453.935 486.729C453.387 486.135 452.58 485.838 451.514 485.838C450.768 485.838 450.136 486.029 449.618 486.409C449.116 486.775 448.75 487.277 448.522 487.917H446.055V478.301H456.105V480.585ZM459.958 486.455C459.958 483.821 460.4 481.765 461.283 480.288C462.181 478.795 463.719 478.049 465.897 478.049C468.075 478.049 469.605 478.795 470.488 480.288C471.387 481.765 471.836 483.821 471.836 486.455C471.836 489.12 471.387 491.206 470.488 492.714C469.605 494.206 468.075 494.952 465.897 494.952C463.719 494.952 462.181 494.206 461.283 492.714C460.4 491.206 459.958 489.12 459.958 486.455ZM469.278 486.455C469.278 485.222 469.194 484.179 469.026 483.326C468.874 482.473 468.554 481.78 468.067 481.247C467.58 480.699 466.856 480.425 465.897 480.425C464.938 480.425 464.214 480.699 463.727 481.247C463.24 481.78 462.912 482.473 462.745 483.326C462.593 484.179 462.516 485.222 462.516 486.455C462.516 487.734 462.593 488.808 462.745 489.676C462.897 490.544 463.217 491.244 463.704 491.777C464.207 492.31 464.938 492.577 465.897 492.577C466.856 492.577 467.58 492.31 468.067 491.777C468.57 491.244 468.897 490.544 469.049 489.676C469.202 488.808 469.278 487.734 469.278 486.455Z" fill="#0D6EFD"/>
<ellipse cx="494.999" cy="484.931" rx="12" ry="11.9331" fill="#0D6EFD" fill-opacity="0.15"/>
<path d="M506.499 484.931C506.499 491.243 501.353 496.364 494.999 496.364C488.645 496.364 483.499 491.243 483.499 484.931C483.499 478.619 488.645 473.498 494.999 473.498C501.353 473.498 506.499 478.619 506.499 484.931Z" stroke="#0D6EFD" stroke-opacity="0.5"/>
<path opacity="0.5" d="M496.189 483.858H499.05C499.602 483.858 500.05 484.306 500.05 484.858V485.188C500.05 485.741 499.602 486.188 499.05 486.188H496.189V489.049C496.189 489.601 495.742 490.049 495.189 490.049H494.859C494.307 490.049 493.859 489.601 493.859 489.049V486.188H490.999C490.447 486.188 489.999 485.741 489.999 485.188V484.858C489.999 484.306 490.447 483.858 490.999 483.858H493.859V480.998C493.859 480.446 494.307 479.998 494.859 479.998H495.189C495.742 479.998 496.189 480.446 496.189 480.998V483.858Z" fill="#FCFDFD"/>
<ellipse cx="419.999" cy="484.931" rx="12" ry="11.9331" fill="#0D6EFD" fill-opacity="0.15"/>
<path d="M431.499 484.931C431.499 491.243 426.353 496.364 419.999 496.364C413.645 496.364 408.499 491.243 408.499 484.931C408.499 478.619 413.645 473.498 419.999 473.498C426.353 473.498 431.499 478.619 431.499 484.931Z" stroke="#0D6EFD" stroke-opacity="0.5"/>
<path opacity="0.5" d="M424.05 483.998C424.602 483.998 425.05 484.446 425.05 484.998V485.328C425.05 485.88 424.602 486.328 424.05 486.328H415.999C415.447 486.328 414.999 485.88 414.999 485.328V484.998C414.999 484.446 415.447 483.998 415.999 483.998H424.05Z" fill="#FCFDFD"/>
<path d="M161.655 480.846V487.902C161.655 488.894 161.895 489.63 162.375 490.11C162.866 490.59 163.543 490.83 164.407 490.83C165.26 490.83 165.927 490.59 166.407 490.11C166.898 489.63 167.143 488.894 167.143 487.902V480.846H168.599V487.886C168.599 488.814 168.412 489.598 168.039 490.238C167.666 490.867 167.159 491.337 166.519 491.646C165.89 491.955 165.18 492.11 164.391 492.11C163.602 492.11 162.887 491.955 162.247 491.646C161.618 491.337 161.116 490.867 160.743 490.238C160.38 489.598 160.199 488.814 160.199 487.886V480.846H161.655ZM175.3 483.07C176.367 483.07 177.231 483.395 177.892 484.046C178.553 484.686 178.884 485.614 178.884 486.83V491.998H177.444V487.038C177.444 486.163 177.225 485.497 176.788 485.038C176.351 484.569 175.753 484.334 174.996 484.334C174.228 484.334 173.615 484.574 173.156 485.054C172.708 485.534 172.484 486.233 172.484 487.15V491.998H171.028V483.23H172.484V484.478C172.772 484.03 173.161 483.683 173.652 483.438C174.153 483.193 174.703 483.07 175.3 483.07ZM182.014 481.806C181.737 481.806 181.502 481.71 181.31 481.518C181.118 481.326 181.022 481.091 181.022 480.814C181.022 480.537 181.118 480.302 181.31 480.11C181.502 479.918 181.737 479.822 182.014 479.822C182.281 479.822 182.505 479.918 182.686 480.11C182.878 480.302 182.974 480.537 182.974 480.814C182.974 481.091 182.878 481.326 182.686 481.518C182.505 481.71 182.281 481.806 182.014 481.806ZM182.718 483.23V491.998H181.262V483.23H182.718ZM186.976 484.43V489.598C186.976 490.025 187.066 490.329 187.248 490.51C187.429 490.681 187.744 490.766 188.192 490.766H189.264V491.998H187.952C187.141 491.998 186.533 491.811 186.128 491.438C185.722 491.065 185.52 490.451 185.52 489.598V484.43H184.384V483.23H185.52V481.022H186.976V483.23H189.264V484.43H186.976ZM194.132 492.142C193.46 492.142 192.857 492.03 192.324 491.806C191.791 491.571 191.369 491.251 191.06 490.846C190.751 490.43 190.58 489.955 190.548 489.422H192.052C192.095 489.859 192.297 490.217 192.66 490.494C193.033 490.771 193.519 490.91 194.116 490.91C194.671 490.91 195.108 490.787 195.428 490.542C195.748 490.297 195.908 489.987 195.908 489.614C195.908 489.23 195.737 488.947 195.396 488.766C195.055 488.574 194.527 488.387 193.812 488.206C193.161 488.035 192.628 487.865 192.212 487.694C191.807 487.513 191.455 487.251 191.156 486.91C190.868 486.558 190.724 486.099 190.724 485.534C190.724 485.086 190.857 484.675 191.124 484.302C191.391 483.929 191.769 483.635 192.26 483.422C192.751 483.198 193.311 483.086 193.94 483.086C194.911 483.086 195.695 483.331 196.292 483.822C196.889 484.313 197.209 484.985 197.252 485.838H195.796C195.764 485.379 195.577 485.011 195.236 484.734C194.905 484.457 194.457 484.318 193.892 484.318C193.369 484.318 192.953 484.43 192.644 484.654C192.335 484.878 192.18 485.171 192.18 485.534C192.18 485.822 192.271 486.062 192.452 486.254C192.644 486.435 192.879 486.585 193.156 486.702C193.444 486.809 193.839 486.931 194.34 487.07C194.969 487.241 195.481 487.411 195.876 487.582C196.271 487.742 196.607 487.987 196.884 488.318C197.172 488.649 197.321 489.081 197.332 489.614C197.332 490.094 197.199 490.526 196.932 490.91C196.665 491.294 196.287 491.598 195.796 491.822C195.316 492.035 194.761 492.142 194.132 492.142ZM203.109 487.582C203.109 486.686 203.29 485.902 203.653 485.23C204.016 484.547 204.512 484.019 205.141 483.646C205.781 483.273 206.496 483.086 207.285 483.086C208.042 483.086 208.704 483.257 209.269 483.598C209.845 483.929 210.266 484.339 210.533 484.83V483.23H212.005V496.158H210.533V490.382C210.256 490.873 209.829 491.289 209.253 491.63C208.677 491.971 208.005 492.142 207.237 492.142C206.469 492.142 205.77 491.95 205.141 491.566C204.512 491.182 204.016 490.643 203.653 489.95C203.29 489.257 203.109 488.467 203.109 487.582ZM210.533 487.598C210.533 486.937 210.4 486.361 210.133 485.87C209.866 485.379 209.504 485.006 209.045 484.75C208.597 484.483 208.101 484.35 207.557 484.35C207.013 484.35 206.517 484.478 206.069 484.734C205.621 484.99 205.264 485.363 204.997 485.854C204.73 486.345 204.597 486.921 204.597 487.582C204.597 488.254 204.73 488.841 204.997 489.342C205.264 489.833 205.621 490.211 206.069 490.478C206.517 490.734 207.013 490.862 207.557 490.862C208.101 490.862 208.597 490.734 209.045 490.478C209.504 490.211 209.866 489.833 210.133 489.342C210.4 488.841 210.533 488.259 210.533 487.598ZM222.241 483.23V491.998H220.785V490.702C220.508 491.15 220.119 491.502 219.617 491.758C219.127 492.003 218.583 492.126 217.985 492.126C217.303 492.126 216.689 491.987 216.145 491.71C215.601 491.422 215.169 490.995 214.849 490.43C214.54 489.865 214.385 489.177 214.385 488.366V483.23H215.825V488.174C215.825 489.038 216.044 489.705 216.481 490.174C216.919 490.633 217.516 490.862 218.273 490.862C219.052 490.862 219.665 490.622 220.113 490.142C220.561 489.662 220.785 488.963 220.785 488.046V483.23H222.241ZM224.156 487.582C224.156 486.686 224.337 485.902 224.7 485.23C225.062 484.547 225.558 484.019 226.188 483.646C226.828 483.273 227.537 483.086 228.316 483.086C229.084 483.086 229.75 483.251 230.316 483.582C230.881 483.913 231.302 484.329 231.58 484.83V483.23H233.052V491.998H231.58V490.366C231.292 490.878 230.86 491.305 230.284 491.646C229.718 491.977 229.057 492.142 228.3 492.142C227.521 492.142 226.817 491.95 226.188 491.566C225.558 491.182 225.062 490.643 224.7 489.95C224.337 489.257 224.156 488.467 224.156 487.582ZM231.58 487.598C231.58 486.937 231.446 486.361 231.18 485.87C230.913 485.379 230.55 485.006 230.092 484.75C229.644 484.483 229.148 484.35 228.604 484.35C228.06 484.35 227.564 484.478 227.116 484.734C226.668 484.99 226.31 485.363 226.044 485.854C225.777 486.345 225.644 486.921 225.644 487.582C225.644 488.254 225.777 488.841 226.044 489.342C226.31 489.833 226.668 490.211 227.116 490.478C227.564 490.734 228.06 490.862 228.604 490.862C229.148 490.862 229.644 490.734 230.092 490.478C230.55 490.211 230.913 489.833 231.18 489.342C231.446 488.841 231.58 488.259 231.58 487.598ZM239.784 483.07C240.851 483.07 241.715 483.395 242.376 484.046C243.038 484.686 243.368 485.614 243.368 486.83V491.998H241.928V487.038C241.928 486.163 241.71 485.497 241.272 485.038C240.835 484.569 240.238 484.334 239.48 484.334C238.712 484.334 238.099 484.574 237.64 485.054C237.192 485.534 236.968 486.233 236.968 487.15V491.998H235.512V483.23H236.968V484.478C237.256 484.03 237.646 483.683 238.136 483.438C238.638 483.193 239.187 483.07 239.784 483.07ZM247.523 484.43V489.598C247.523 490.025 247.613 490.329 247.795 490.51C247.976 490.681 248.291 490.766 248.739 490.766H249.811V491.998H248.499C247.688 491.998 247.08 491.811 246.675 491.438C246.269 491.065 246.067 490.451 246.067 489.598V484.43H244.931V483.23H246.067V481.022H247.523V483.23H249.811V484.43H247.523ZM252.327 481.806C252.049 481.806 251.815 481.71 251.623 481.518C251.431 481.326 251.335 481.091 251.335 480.814C251.335 480.537 251.431 480.302 251.623 480.11C251.815 479.918 252.049 479.822 252.327 479.822C252.593 479.822 252.817 479.918 252.999 480.11C253.191 480.302 253.287 480.537 253.287 480.814C253.287 481.091 253.191 481.326 252.999 481.518C252.817 481.71 252.593 481.806 252.327 481.806ZM253.031 483.23V491.998H251.575V483.23H253.031ZM257.288 484.43V489.598C257.288 490.025 257.379 490.329 257.56 490.51C257.742 490.681 258.056 490.766 258.504 490.766H259.576V491.998H258.264C257.454 491.998 256.846 491.811 256.44 491.438C256.035 491.065 255.832 490.451 255.832 489.598V484.43H254.696V483.23H255.832V481.022H257.288V483.23H259.576V484.43H257.288ZM268.892 483.23L263.612 496.126H262.108L263.836 491.902L260.3 483.23H261.916L264.668 490.334L267.388 483.23H268.892Z" fill="#FCFDFD"/>
<path opacity="0.15" d="M157.999 451.998L505.999 451.998" stroke="#99A6AF" stroke-linecap="round"/>
<path d="M278.036 394.055C278.036 394.817 277.846 395.533 277.465 396.203C277.1 396.873 276.552 397.436 275.821 397.893C275.105 398.35 274.252 398.624 273.262 398.715V400.565H271.778V398.715C270.346 398.578 269.189 398.129 268.306 397.367C267.422 396.606 266.981 395.601 266.981 394.352H269.768C269.813 394.946 270.004 395.441 270.339 395.837C270.674 396.218 271.153 396.461 271.778 396.568V391.543C270.757 391.284 269.927 391.025 269.288 390.766C268.648 390.492 268.1 390.066 267.643 389.487C267.202 388.908 266.981 388.116 266.981 387.111C266.981 385.847 267.422 384.804 268.306 383.982C269.189 383.145 270.346 382.657 271.778 382.52V380.67H273.262V382.52C274.603 382.642 275.676 383.068 276.483 383.799C277.305 384.515 277.77 385.505 277.877 386.769H275.09C275.044 386.297 274.861 385.878 274.542 385.512C274.222 385.132 273.795 384.873 273.262 384.736V389.67C274.283 389.913 275.113 390.172 275.752 390.446C276.392 390.705 276.932 391.124 277.374 391.703C277.816 392.266 278.036 393.05 278.036 394.055ZM269.631 386.974C269.631 387.599 269.813 388.086 270.179 388.436C270.559 388.786 271.092 389.068 271.778 389.281V384.667C271.123 384.743 270.598 384.979 270.202 385.375C269.821 385.771 269.631 386.304 269.631 386.974ZM273.262 396.568C273.932 396.461 274.458 396.195 274.839 395.769C275.219 395.327 275.41 394.802 275.41 394.192C275.41 393.583 275.219 393.111 274.839 392.776C274.473 392.426 273.948 392.144 273.262 391.931V396.568ZM281.494 384.302V381.926H286.246V398.578H283.619V384.302H281.494ZM289.823 390.035C289.823 387.401 290.265 385.345 291.148 383.868C292.046 382.375 293.584 381.629 295.762 381.629C297.939 381.629 299.47 382.375 300.353 383.868C301.252 385.345 301.701 387.401 301.701 390.035C301.701 392.7 301.252 394.786 300.353 396.294C299.47 397.786 297.939 398.532 295.762 398.532C293.584 398.532 292.046 397.786 291.148 396.294C290.265 394.786 289.823 392.7 289.823 390.035ZM299.142 390.035C299.142 388.802 299.059 387.759 298.891 386.906C298.739 386.053 298.419 385.36 297.932 384.827C297.445 384.279 296.721 384.005 295.762 384.005C294.802 384.005 294.079 384.279 293.592 384.827C293.105 385.36 292.777 386.053 292.61 386.906C292.457 387.759 292.381 388.802 292.381 390.035C292.381 391.314 292.457 392.388 292.61 393.256C292.762 394.124 293.082 394.824 293.569 395.357C294.072 395.89 294.802 396.157 295.762 396.157C296.721 396.157 297.445 395.89 297.932 395.357C298.434 394.824 298.762 394.124 298.914 393.256C299.066 392.388 299.142 391.314 299.142 390.035ZM304.456 390.035C304.456 387.401 304.898 385.345 305.781 383.868C306.679 382.375 308.217 381.629 310.395 381.629C312.573 381.629 314.103 382.375 314.986 383.868C315.885 385.345 316.334 387.401 316.334 390.035C316.334 392.7 315.885 394.786 314.986 396.294C314.103 397.786 312.573 398.532 310.395 398.532C308.217 398.532 306.679 397.786 305.781 396.294C304.898 394.786 304.456 392.7 304.456 390.035ZM313.776 390.035C313.776 388.802 313.692 387.759 313.524 386.906C313.372 386.053 313.052 385.36 312.565 384.827C312.078 384.279 311.354 384.005 310.395 384.005C309.436 384.005 308.712 384.279 308.225 384.827C307.738 385.36 307.41 386.053 307.243 386.906C307.091 387.759 307.014 388.802 307.014 390.035C307.014 391.314 307.091 392.388 307.243 393.256C307.395 394.124 307.715 394.824 308.202 395.357C308.705 395.89 309.436 396.157 310.395 396.157C311.354 396.157 312.078 395.89 312.565 395.357C313.068 394.824 313.395 394.124 313.547 393.256C313.7 392.388 313.776 391.314 313.776 390.035Z" fill="#0D6EFD"/>
<path d="M273.055 418.625C273.055 419.535 272.771 420.245 272.204 420.754C271.636 421.253 270.794 421.503 269.678 421.503H267.475V426.025H266.814V415.717H269.678C270.813 415.717 271.66 415.981 272.218 416.51C272.776 417.029 273.055 417.734 273.055 418.625ZM269.678 420.915C271.489 420.915 272.394 420.152 272.394 418.625C272.394 417.871 272.179 417.298 271.748 416.907C271.318 416.505 270.627 416.304 269.678 416.304H267.475V420.915H269.678ZM275.491 419.697C275.687 419.109 276.035 418.664 276.534 418.36C277.033 418.047 277.669 417.89 278.443 417.89V418.581H278.223C277.439 418.581 276.788 418.806 276.27 419.256C275.751 419.697 275.491 420.421 275.491 421.429V426.025H274.831V418.052H275.491V419.697ZM280.302 416.275C280.145 416.275 280.013 416.226 279.906 416.128C279.798 416.021 279.744 415.879 279.744 415.702C279.744 415.536 279.798 415.399 279.906 415.291C280.013 415.184 280.145 415.13 280.302 415.13C280.459 415.13 280.591 415.184 280.698 415.291C280.806 415.399 280.86 415.536 280.86 415.702C280.86 415.879 280.806 416.021 280.698 416.128C280.591 416.226 280.459 416.275 280.302 416.275ZM280.625 418.052V426.025H279.964V418.052H280.625ZM282.636 422.031C282.636 421.199 282.798 420.475 283.121 419.858C283.454 419.241 283.909 418.771 284.486 418.448C285.074 418.116 285.744 417.949 286.498 417.949C287.497 417.949 288.314 418.199 288.95 418.698C289.596 419.197 289.998 419.868 290.154 420.71H289.464C289.337 420.024 289.004 419.486 288.466 419.094C287.937 418.703 287.281 418.507 286.498 418.507C285.911 418.507 285.377 418.639 284.898 418.904C284.418 419.158 284.031 419.555 283.738 420.093C283.454 420.622 283.312 421.268 283.312 422.031C283.312 422.805 283.454 423.456 283.738 423.984C284.031 424.513 284.418 424.909 284.898 425.174C285.377 425.438 285.911 425.57 286.498 425.57C287.281 425.57 287.937 425.374 288.466 424.983C289.004 424.591 289.337 424.053 289.464 423.368H290.154C289.998 424.2 289.596 424.87 288.95 425.379C288.304 425.888 287.487 426.143 286.498 426.143C285.744 426.143 285.074 425.976 284.486 425.644C283.909 425.311 283.454 424.836 283.121 424.219C282.798 423.593 282.636 422.863 282.636 422.031ZM299.348 421.503C299.348 421.855 299.338 422.119 299.319 422.296H292.432C292.451 423.01 292.608 423.612 292.902 424.102C293.195 424.591 293.582 424.958 294.062 425.203C294.542 425.448 295.065 425.57 295.633 425.57C296.416 425.57 297.072 425.379 297.601 424.997C298.129 424.606 298.462 424.077 298.599 423.412H299.289C299.133 424.224 298.731 424.885 298.085 425.394C297.439 425.893 296.622 426.143 295.633 426.143C294.889 426.143 294.223 425.976 293.636 425.644C293.049 425.311 292.589 424.836 292.256 424.219C291.923 423.593 291.756 422.863 291.756 422.031C291.756 421.199 291.918 420.475 292.241 419.858C292.574 419.241 293.034 418.771 293.621 418.448C294.209 418.116 294.879 417.949 295.633 417.949C296.397 417.949 297.057 418.116 297.615 418.448C298.183 418.771 298.614 419.207 298.908 419.755C299.201 420.294 299.348 420.876 299.348 421.503ZM298.687 421.752C298.717 421.047 298.589 420.45 298.306 419.961C298.031 419.471 297.655 419.109 297.175 418.874C296.695 418.629 296.176 418.507 295.618 418.507C295.06 418.507 294.542 418.629 294.062 418.874C293.592 419.109 293.205 419.471 292.902 419.961C292.608 420.45 292.451 421.047 292.432 421.752H298.687ZM306.15 420.152C306.375 419.506 306.782 418.977 307.369 418.566C307.966 418.155 308.686 417.949 309.528 417.949C310.272 417.949 310.932 418.116 311.51 418.448C312.097 418.781 312.553 419.256 312.876 419.873C313.208 420.489 313.375 421.209 313.375 422.031C313.375 422.854 313.208 423.578 312.876 424.205C312.553 424.821 312.097 425.301 311.51 425.644C310.932 425.976 310.272 426.143 309.528 426.143C308.696 426.143 307.981 425.937 307.384 425.526C306.796 425.105 306.385 424.577 306.15 423.94V429.785H305.489V418.052H306.15V420.152ZM312.699 422.031C312.699 421.307 312.562 420.68 312.288 420.152C312.014 419.623 311.627 419.222 311.128 418.948C310.639 418.664 310.071 418.522 309.425 418.522C308.808 418.522 308.25 418.669 307.751 418.962C307.252 419.246 306.86 419.657 306.576 420.196C306.292 420.724 306.15 421.336 306.15 422.031C306.15 422.736 306.292 423.358 306.576 423.896C306.86 424.425 307.252 424.836 307.751 425.13C308.25 425.414 308.808 425.555 309.425 425.555C310.071 425.555 310.639 425.414 311.128 425.13C311.627 424.846 312.014 424.439 312.288 423.911C312.562 423.382 312.699 422.756 312.699 422.031ZM322.55 421.503C322.55 421.855 322.541 422.119 322.521 422.296H315.634C315.654 423.01 315.81 423.612 316.104 424.102C316.398 424.591 316.784 424.958 317.264 425.203C317.744 425.448 318.267 425.57 318.835 425.57C319.618 425.57 320.274 425.379 320.803 424.997C321.332 424.606 321.664 424.077 321.801 423.412H322.492C322.335 424.224 321.934 424.885 321.287 425.394C320.641 425.893 319.824 426.143 318.835 426.143C318.091 426.143 317.426 425.976 316.838 425.644C316.251 425.311 315.791 424.836 315.458 424.219C315.125 423.593 314.959 422.863 314.959 422.031C314.959 421.199 315.12 420.475 315.443 419.858C315.776 419.241 316.236 418.771 316.823 418.448C317.411 418.116 318.081 417.949 318.835 417.949C319.599 417.949 320.26 418.116 320.818 418.448C321.385 418.771 321.816 419.207 322.11 419.755C322.403 420.294 322.55 420.876 322.55 421.503ZM321.89 421.752C321.919 421.047 321.792 420.45 321.508 419.961C321.234 419.471 320.857 419.109 320.377 418.874C319.897 418.629 319.379 418.507 318.821 418.507C318.263 418.507 317.744 418.629 317.264 418.874C316.794 419.109 316.407 419.471 316.104 419.961C315.81 420.45 315.654 421.047 315.634 421.752H321.89ZM325.208 419.697C325.404 419.109 325.751 418.664 326.251 418.36C326.75 418.047 327.386 417.89 328.16 417.89V418.581H327.939C327.156 418.581 326.505 418.806 325.986 419.256C325.468 419.697 325.208 420.421 325.208 421.429V426.025H324.547V418.052H325.208V419.697ZM340.565 418.052V426.025H339.905V424.293C339.679 424.9 339.303 425.365 338.774 425.688C338.255 426.001 337.658 426.158 336.982 426.158C336.033 426.158 335.255 425.869 334.648 425.291C334.05 424.704 333.752 423.837 333.752 422.692V418.052H334.398V422.648C334.398 423.598 334.638 424.327 335.118 424.836C335.597 425.335 336.248 425.585 337.071 425.585C337.932 425.585 338.617 425.311 339.126 424.763C339.645 424.214 339.905 423.402 339.905 422.325V418.052H340.565ZM346.572 417.89C347.521 417.89 348.295 418.184 348.892 418.771C349.489 419.349 349.788 420.21 349.788 421.356V426.025H349.142V421.4C349.142 420.45 348.902 419.726 348.422 419.227C347.942 418.718 347.291 418.463 346.469 418.463C345.608 418.463 344.917 418.737 344.399 419.285C343.89 419.834 343.635 420.646 343.635 421.723V426.025H342.974V418.052H343.635V419.741C343.86 419.143 344.232 418.688 344.751 418.375C345.28 418.052 345.887 417.89 346.572 417.89ZM352.461 416.275C352.304 416.275 352.172 416.226 352.064 416.128C351.957 416.021 351.903 415.879 351.903 415.702C351.903 415.536 351.957 415.399 352.064 415.291C352.172 415.184 352.304 415.13 352.461 415.13C352.618 415.13 352.75 415.184 352.857 415.291C352.965 415.399 353.019 415.536 353.019 415.702C353.019 415.879 352.965 416.021 352.857 416.128C352.75 416.226 352.618 416.275 352.461 416.275ZM352.784 418.052V426.025H352.123V418.052H352.784ZM356.19 418.625V423.896C356.19 424.484 356.298 424.89 356.513 425.115C356.729 425.33 357.11 425.438 357.659 425.438H358.554V426.025H357.556C356.861 426.025 356.347 425.864 356.014 425.541C355.691 425.208 355.529 424.66 355.529 423.896V418.625H354.325V418.052H355.529V416.025H356.19V418.052H358.554V418.625H356.19Z" fill="#FCFDFD"/>
<path d="M402.809 395.038C404.27 393.774 405.42 392.738 406.258 391.931C407.111 391.109 407.819 390.256 408.382 389.373C408.945 388.49 409.227 387.606 409.227 386.723C409.227 385.809 409.006 385.094 408.565 384.576C408.138 384.058 407.461 383.799 406.532 383.799C405.633 383.799 404.933 384.089 404.43 384.667C403.943 385.231 403.684 385.992 403.654 386.952H401.141C401.187 385.216 401.705 383.891 402.694 382.977C403.699 382.048 404.971 381.584 406.509 381.584C408.169 381.584 409.463 382.04 410.392 382.954C411.336 383.868 411.808 385.086 411.808 386.609C411.808 387.705 411.527 388.764 410.963 389.784C410.415 390.789 409.753 391.695 408.976 392.502C408.215 393.294 407.24 394.215 406.052 395.266L405.024 396.18H412.265V398.35H401.164V396.454L402.809 395.038ZM414.553 390.035C414.553 387.401 414.994 385.345 415.878 383.868C416.776 382.375 418.314 381.629 420.492 381.629C422.669 381.629 424.2 382.375 425.083 383.868C425.981 385.345 426.431 387.401 426.431 390.035C426.431 392.7 425.981 394.786 425.083 396.294C424.2 397.786 422.669 398.532 420.492 398.532C418.314 398.532 416.776 397.786 415.878 396.294C414.994 394.786 414.553 392.7 414.553 390.035ZM423.872 390.035C423.872 388.802 423.789 387.759 423.621 386.906C423.469 386.053 423.149 385.36 422.662 384.827C422.174 384.279 421.451 384.005 420.492 384.005C419.532 384.005 418.809 384.279 418.322 384.827C417.834 385.36 417.507 386.053 417.34 386.906C417.187 387.759 417.111 388.802 417.111 390.035C417.111 391.314 417.187 392.388 417.34 393.256C417.492 394.124 417.812 394.824 418.299 395.357C418.801 395.89 419.532 396.157 420.492 396.157C421.451 396.157 422.174 395.89 422.662 395.357C423.164 394.824 423.492 394.124 423.644 393.256C423.796 392.388 423.872 391.314 423.872 390.035ZM430.625 395.038C432.087 393.774 433.237 392.738 434.074 391.931C434.927 391.109 435.635 390.256 436.198 389.373C436.762 388.49 437.044 387.606 437.044 386.723C437.044 385.809 436.823 385.094 436.381 384.576C435.955 384.058 435.277 383.799 434.348 383.799C433.45 383.799 432.749 384.089 432.247 384.667C431.76 385.231 431.501 385.992 431.47 386.952H428.958C429.003 385.216 429.521 383.891 430.511 382.977C431.516 382.048 432.787 381.584 434.325 381.584C435.985 381.584 437.28 382.04 438.209 382.954C439.153 383.868 439.625 385.086 439.625 386.609C439.625 387.705 439.343 388.764 438.78 389.784C438.231 390.789 437.569 391.695 436.792 392.502C436.031 393.294 435.056 394.215 433.869 395.266L432.841 396.18H440.082V398.35H428.98V396.454L430.625 395.038ZM442.027 384.302V381.926H446.778V398.578H444.151V384.302H442.027Z" fill="#0D6EFD"/>
<path d="M405.652 420.695C406.25 420.803 406.749 421.096 407.15 421.576C407.561 422.056 407.767 422.619 407.767 423.265C407.767 423.793 407.64 424.268 407.385 424.689C407.14 425.1 406.768 425.428 406.269 425.673C405.78 425.908 405.183 426.025 404.478 426.025H401.203V415.717H404.419C405.447 415.717 406.22 415.957 406.739 416.437C407.268 416.907 407.532 417.518 407.532 418.272C407.532 418.928 407.356 419.462 407.003 419.873C406.651 420.274 406.201 420.548 405.652 420.695ZM401.864 420.401H404.448C405.222 420.401 405.814 420.22 406.225 419.858C406.646 419.486 406.857 418.977 406.857 418.331C406.857 417.704 406.651 417.21 406.24 416.848C405.829 416.486 405.207 416.304 404.375 416.304H401.864V420.401ZM404.434 425.453C405.266 425.453 405.917 425.257 406.387 424.865C406.866 424.464 407.106 423.916 407.106 423.221C407.106 422.535 406.861 421.992 406.372 421.591C405.892 421.18 405.231 420.974 404.39 420.974H401.864V425.453H404.434ZM416.447 418.052V426.025H415.786V424.293C415.561 424.9 415.184 425.365 414.655 425.688C414.136 426.001 413.539 426.158 412.864 426.158C411.914 426.158 411.136 425.869 410.529 425.291C409.932 424.704 409.633 423.837 409.633 422.692V418.052H410.279V422.648C410.279 423.598 410.519 424.327 410.999 424.836C411.479 425.335 412.13 425.585 412.952 425.585C413.813 425.585 414.499 425.311 415.008 424.763C415.527 424.214 415.786 423.402 415.786 422.325V418.052H416.447ZM419.193 416.275C419.037 416.275 418.905 416.226 418.797 416.128C418.689 416.021 418.635 415.879 418.635 415.702C418.635 415.536 418.689 415.399 418.797 415.291C418.905 415.184 419.037 415.13 419.193 415.13C419.35 415.13 419.482 415.184 419.59 415.291C419.698 415.399 419.751 415.536 419.751 415.702C419.751 415.879 419.698 416.021 419.59 416.128C419.482 416.226 419.35 416.275 419.193 416.275ZM419.516 418.052V426.025H418.856V418.052H419.516ZM422.6 415.159V426.025H421.939V415.159H422.6ZM424.611 422.031C424.611 421.209 424.772 420.489 425.095 419.873C425.428 419.256 425.883 418.781 426.461 418.448C427.048 418.116 427.714 417.949 428.458 417.949C429.271 417.949 429.975 418.155 430.573 418.566C431.17 418.967 431.591 419.491 431.835 420.137V415.159H432.496V426.025H431.835V423.911C431.6 424.567 431.189 425.105 430.602 425.526C430.015 425.937 429.3 426.143 428.458 426.143C427.714 426.143 427.048 425.976 426.461 425.644C425.883 425.301 425.428 424.821 425.095 424.205C424.772 423.578 424.611 422.854 424.611 422.031ZM431.835 422.031C431.835 421.336 431.689 420.724 431.395 420.196C431.111 419.657 430.719 419.246 430.22 418.962C429.721 418.669 429.163 418.522 428.546 418.522C427.9 418.522 427.332 418.664 426.843 418.948C426.353 419.222 425.971 419.623 425.697 420.152C425.423 420.68 425.286 421.307 425.286 422.031C425.286 422.756 425.423 423.382 425.697 423.911C425.971 424.439 426.353 424.846 426.843 425.13C427.342 425.414 427.91 425.555 428.546 425.555C429.163 425.555 429.721 425.414 430.22 425.13C430.729 424.836 431.126 424.425 431.41 423.896C431.693 423.358 431.835 422.736 431.835 422.031ZM445.273 418.052L440.632 429.77H439.957L441.44 426.025L438.092 418.052H438.811L441.807 425.291L444.597 418.052H445.273ZM453.928 421.503C453.928 421.855 453.918 422.119 453.898 422.296H447.011C447.031 423.01 447.188 423.612 447.481 424.102C447.775 424.591 448.162 424.958 448.641 425.203C449.121 425.448 449.645 425.57 450.212 425.57C450.996 425.57 451.652 425.379 452.18 424.997C452.709 424.606 453.042 424.077 453.179 423.412H453.869C453.712 424.224 453.311 424.885 452.665 425.394C452.019 425.893 451.201 426.143 450.212 426.143C449.468 426.143 448.803 425.976 448.215 425.644C447.628 425.311 447.168 424.836 446.835 424.219C446.502 423.593 446.336 422.863 446.336 422.031C446.336 421.199 446.497 420.475 446.82 419.858C447.153 419.241 447.613 418.771 448.201 418.448C448.788 418.116 449.459 417.949 450.212 417.949C450.976 417.949 451.637 418.116 452.195 418.448C452.763 418.771 453.193 419.207 453.487 419.755C453.781 420.294 453.928 420.876 453.928 421.503ZM453.267 421.752C453.296 421.047 453.169 420.45 452.885 419.961C452.611 419.471 452.234 419.109 451.754 418.874C451.275 418.629 450.756 418.507 450.198 418.507C449.64 418.507 449.121 418.629 448.641 418.874C448.171 419.109 447.785 419.471 447.481 419.961C447.188 420.45 447.031 421.047 447.011 421.752H453.267ZM455.513 422.031C455.513 421.209 455.675 420.489 455.998 419.873C456.331 419.256 456.786 418.781 457.364 418.448C457.951 418.116 458.617 417.949 459.361 417.949C460.203 417.949 460.917 418.155 461.505 418.566C462.092 418.977 462.503 419.501 462.738 420.137V418.052H463.399V426.025H462.738V423.926C462.503 424.572 462.087 425.105 461.49 425.526C460.903 425.937 460.193 426.143 459.361 426.143C458.617 426.143 457.951 425.976 457.364 425.644C456.786 425.301 456.331 424.821 455.998 424.205C455.675 423.578 455.513 422.854 455.513 422.031ZM462.738 422.031C462.738 421.336 462.591 420.724 462.298 420.196C462.014 419.657 461.622 419.246 461.123 418.962C460.624 418.669 460.066 418.522 459.449 418.522C458.803 418.522 458.235 418.664 457.745 418.948C457.256 419.222 456.874 419.623 456.6 420.152C456.326 420.68 456.189 421.307 456.189 422.031C456.189 422.756 456.326 423.382 456.6 423.911C456.874 424.439 457.256 424.846 457.745 425.13C458.245 425.414 458.813 425.555 459.449 425.555C460.066 425.555 460.624 425.414 461.123 425.13C461.632 424.836 462.028 424.425 462.312 423.896C462.596 423.358 462.738 422.736 462.738 422.031ZM466.466 419.697C466.661 419.109 467.009 418.664 467.508 418.36C468.008 418.047 468.644 417.89 469.417 417.89V418.581H469.197C468.414 418.581 467.763 418.806 467.244 419.256C466.725 419.697 466.466 420.421 466.466 421.429V426.025H465.805V418.052H466.466V419.697Z" fill="#FCFDFD"/>
<path d="M160.007 384.302V381.926H164.758V398.578H162.131V384.302H160.007ZM179.071 384.165H171.419V388.71C171.739 388.284 172.211 387.926 172.835 387.637C173.475 387.347 174.152 387.203 174.868 387.203C176.147 387.203 177.183 387.477 177.975 388.025C178.782 388.573 179.353 389.266 179.688 390.104C180.038 390.941 180.213 391.824 180.213 392.753C180.213 393.88 179.992 394.885 179.551 395.769C179.124 396.637 178.477 397.322 177.609 397.824C176.756 398.327 175.706 398.578 174.457 398.578C172.797 398.578 171.465 398.167 170.46 397.345C169.454 396.522 168.853 395.434 168.655 394.078H171.19C171.358 394.794 171.731 395.365 172.31 395.791C172.888 396.203 173.612 396.408 174.48 396.408C175.561 396.408 176.368 396.081 176.901 395.426C177.449 394.771 177.723 393.903 177.723 392.822C177.723 391.726 177.449 390.888 176.901 390.309C176.353 389.715 175.546 389.418 174.48 389.418C173.734 389.418 173.102 389.609 172.584 389.99C172.081 390.355 171.716 390.858 171.487 391.497H169.02V381.881H179.071V384.165ZM184.317 398.738C183.845 398.738 183.449 398.578 183.129 398.258C182.81 397.939 182.65 397.543 182.65 397.071C182.65 396.598 182.81 396.203 183.129 395.883C183.449 395.563 183.845 395.403 184.317 395.403C184.774 395.403 185.162 395.563 185.482 395.883C185.802 396.203 185.962 396.598 185.962 397.071C185.962 397.543 185.802 397.939 185.482 398.258C185.162 398.578 184.774 398.738 184.317 398.738ZM189.873 395.038C191.334 393.774 192.484 392.738 193.322 391.931C194.174 391.109 194.883 390.256 195.446 389.373C196.009 388.49 196.291 387.606 196.291 386.723C196.291 385.809 196.07 385.094 195.629 384.576C195.202 384.058 194.525 383.799 193.596 383.799C192.697 383.799 191.997 384.089 191.494 384.667C191.007 385.231 190.748 385.992 190.718 386.952H188.205C188.251 385.216 188.769 383.891 189.758 382.977C190.763 382.048 192.035 381.584 193.573 381.584C195.233 381.584 196.527 382.04 197.456 382.954C198.4 383.868 198.872 385.086 198.872 386.609C198.872 387.705 198.591 388.764 198.027 389.784C197.479 390.789 196.817 391.695 196.04 392.502C195.279 393.294 194.304 394.215 193.116 395.266L192.088 396.18H199.329V398.35H188.228V396.454L189.873 395.038ZM201.206 385.946C201.206 384.835 201.525 383.967 202.165 383.342C202.82 382.703 203.657 382.383 204.678 382.383C205.698 382.383 206.528 382.703 207.167 383.342C207.822 383.967 208.15 384.835 208.15 385.946C208.15 387.058 207.822 387.934 207.167 388.573C206.528 389.213 205.698 389.533 204.678 389.533C203.657 389.533 202.82 389.213 202.165 388.573C201.525 387.934 201.206 387.058 201.206 385.946ZM215.139 382.68L206.025 398.578H203.467L212.581 382.68H215.139ZM204.678 383.959C203.718 383.959 203.239 384.622 203.239 385.946C203.239 387.287 203.718 387.957 204.678 387.957C205.134 387.957 205.485 387.797 205.728 387.477C205.987 387.142 206.117 386.632 206.117 385.946C206.117 384.622 205.637 383.959 204.678 383.959ZM210.502 395.289C210.502 394.177 210.822 393.309 211.462 392.685C212.117 392.045 212.954 391.726 213.974 391.726C214.979 391.726 215.802 392.045 216.441 392.685C217.096 393.309 217.423 394.177 217.423 395.289C217.423 396.401 217.096 397.276 216.441 397.916C215.802 398.555 214.979 398.875 213.974 398.875C212.954 398.875 212.117 398.555 211.462 397.916C210.822 397.276 210.502 396.401 210.502 395.289ZM213.951 393.302C212.992 393.302 212.512 393.964 212.512 395.289C212.512 396.614 212.992 397.276 213.951 397.276C214.911 397.276 215.391 396.614 215.391 395.289C215.391 393.964 214.911 393.302 213.951 393.302Z" fill="#0D6EFD"/>
<path d="M166.173 415.953L162.927 422.091V426.262H162.267V422.091L158.992 415.953H159.741L162.59 421.475L165.424 415.953H166.173ZM168.097 416.511C167.94 416.511 167.808 416.462 167.7 416.365C167.592 416.257 167.539 416.115 167.539 415.939C167.539 415.772 167.592 415.635 167.7 415.528C167.808 415.42 167.94 415.366 168.097 415.366C168.253 415.366 168.385 415.42 168.493 415.528C168.601 415.635 168.655 415.772 168.655 415.939C168.655 416.115 168.601 416.257 168.493 416.365C168.385 416.462 168.253 416.511 168.097 416.511ZM168.42 418.288V426.262H167.759V418.288H168.42ZM178.022 421.739C178.022 422.091 178.013 422.356 177.993 422.532H171.106C171.126 423.247 171.282 423.849 171.576 424.338C171.87 424.828 172.256 425.195 172.736 425.439C173.216 425.684 173.74 425.807 174.307 425.807C175.091 425.807 175.746 425.616 176.275 425.234C176.804 424.842 177.137 424.314 177.274 423.648H177.964C177.807 424.46 177.406 425.121 176.76 425.63C176.114 426.13 175.296 426.379 174.307 426.379C173.563 426.379 172.898 426.213 172.31 425.88C171.723 425.547 171.263 425.072 170.93 424.456C170.597 423.829 170.431 423.1 170.431 422.268C170.431 421.436 170.592 420.711 170.915 420.094C171.248 419.478 171.708 419.008 172.296 418.685C172.883 418.352 173.554 418.185 174.307 418.185C175.071 418.185 175.732 418.352 176.29 418.685C176.858 419.008 177.288 419.443 177.582 419.992C177.876 420.53 178.022 421.112 178.022 421.739ZM177.362 421.989C177.391 421.284 177.264 420.687 176.98 420.197C176.706 419.708 176.329 419.345 175.849 419.111C175.37 418.866 174.851 418.743 174.293 418.743C173.735 418.743 173.216 418.866 172.736 419.111C172.266 419.345 171.88 419.708 171.576 420.197C171.282 420.687 171.126 421.284 171.106 421.989H177.362ZM180.68 415.395V426.262H180.02V415.395H180.68ZM182.691 422.268C182.691 421.445 182.853 420.726 183.176 420.109C183.509 419.492 183.964 419.018 184.542 418.685C185.129 418.352 185.795 418.185 186.539 418.185C187.351 418.185 188.056 418.391 188.653 418.802C189.25 419.204 189.671 419.727 189.916 420.373V415.395H190.577V426.262H189.916V424.147C189.681 424.803 189.27 425.342 188.683 425.762C188.095 426.174 187.381 426.379 186.539 426.379C185.795 426.379 185.129 426.213 184.542 425.88C183.964 425.537 183.509 425.058 183.176 424.441C182.853 423.814 182.691 423.09 182.691 422.268ZM189.916 422.268C189.916 421.573 189.769 420.961 189.476 420.432C189.192 419.894 188.8 419.483 188.301 419.199C187.802 418.905 187.244 418.758 186.627 418.758C185.981 418.758 185.413 418.9 184.923 419.184C184.434 419.458 184.052 419.859 183.778 420.388C183.504 420.917 183.367 421.543 183.367 422.268C183.367 422.992 183.504 423.619 183.778 424.147C184.052 424.676 184.434 425.082 184.923 425.366C185.423 425.65 185.991 425.792 186.627 425.792C187.244 425.792 187.802 425.65 188.301 425.366C188.81 425.072 189.206 424.661 189.49 424.133C189.774 423.594 189.916 422.972 189.916 422.268Z" fill="#FCFDFD"/>
<g opacity="0.25">
<path d="M202.911 416.026C201.999 416.144 201.125 416.552 200.445 417.179C199.643 417.919 199.132 418.926 199.017 419.992C198.993 420.211 198.993 420.785 199.017 421.004C199.225 422.92 200.686 424.527 202.57 424.912C203.156 425.03 203.884 425.03 204.446 424.909C205.513 424.678 206.454 424.074 207.111 423.196C207.584 422.565 207.876 421.843 207.973 421.061C208.008 420.776 208.008 420.222 207.973 419.936C207.895 419.306 207.677 418.682 207.352 418.153C206.628 416.973 205.422 416.193 204.061 416.024C203.789 415.991 203.179 415.993 202.911 416.026ZM204.133 416.69C205.657 416.949 206.884 418.09 207.25 419.586C207.396 420.183 207.396 420.813 207.25 421.41C207.059 422.191 206.605 422.926 205.995 423.439C205.534 423.826 204.982 424.109 204.411 424.249C203.82 424.394 203.184 424.394 202.586 424.249C202.059 424.119 201.519 423.856 201.094 423.515C200.434 422.989 199.947 422.228 199.747 421.41C199.601 420.813 199.601 420.183 199.747 419.586C199.916 418.898 200.262 418.285 200.774 417.773C201.44 417.107 202.257 416.731 203.235 416.641C203.428 416.624 203.887 416.648 204.133 416.69Z" fill="#FCFDFD"/>
<path d="M203.317 418.377C203.009 418.491 202.911 418.815 203.113 419.045C203.378 419.348 203.93 419.207 203.983 418.824C204.006 418.662 203.897 418.483 203.726 418.395C203.644 418.354 203.408 418.344 203.317 418.377Z" fill="#FCFDFD"/>
<path d="M203.272 419.772C203.214 419.789 203.152 419.825 203.11 419.865L203.041 419.93V421.148V422.366L203.117 422.44C203.217 422.541 203.344 422.579 203.541 422.569C203.748 422.558 203.91 422.472 203.957 422.347C203.966 422.324 203.973 421.788 203.973 421.155C203.973 419.89 203.977 419.927 203.866 419.842C203.738 419.745 203.469 419.714 203.272 419.772Z" fill="#FCFDFD"/>
</g>
<path d="M159.431 333.707V330.76H164.936V347.412H161.647V333.707H159.431ZM168.095 338.869C168.095 336.235 168.567 334.171 169.512 332.679C170.471 331.187 172.055 330.44 174.263 330.44C176.471 330.44 178.047 331.187 178.991 332.679C179.95 334.171 180.43 336.235 180.43 338.869C180.43 341.519 179.95 343.597 178.991 345.105C178.047 346.613 176.471 347.366 174.263 347.366C172.055 347.366 170.471 346.613 169.512 345.105C168.567 343.597 168.095 341.519 168.095 338.869ZM177.278 338.869C177.278 337.742 177.202 336.798 177.049 336.037C176.912 335.26 176.623 334.628 176.181 334.141C175.755 333.654 175.115 333.41 174.263 333.41C173.41 333.41 172.763 333.654 172.321 334.141C171.895 334.628 171.605 335.26 171.453 336.037C171.316 336.798 171.247 337.742 171.247 338.869C171.247 340.027 171.316 341.001 171.453 341.793C171.59 342.57 171.879 343.202 172.321 343.689C172.763 344.161 173.41 344.397 174.263 344.397C175.115 344.397 175.763 344.161 176.204 343.689C176.646 343.202 176.935 342.57 177.072 341.793C177.209 341.001 177.278 340.027 177.278 338.869ZM182.862 338.869C182.862 336.235 183.334 334.171 184.279 332.679C185.238 331.187 186.822 330.44 189.03 330.44C191.238 330.44 192.814 331.187 193.758 332.679C194.717 334.171 195.197 336.235 195.197 338.869C195.197 341.519 194.717 343.597 193.758 345.105C192.814 346.613 191.238 347.366 189.03 347.366C186.822 347.366 185.238 346.613 184.279 345.105C183.334 343.597 182.862 341.519 182.862 338.869ZM192.045 338.869C192.045 337.742 191.969 336.798 191.816 336.037C191.679 335.26 191.39 334.628 190.948 334.141C190.522 333.654 189.882 333.41 189.03 333.41C188.177 333.41 187.53 333.654 187.088 334.141C186.662 334.628 186.372 335.26 186.22 336.037C186.083 336.798 186.015 337.742 186.015 338.869C186.015 340.027 186.083 341.001 186.22 341.793C186.357 342.57 186.646 343.202 187.088 343.689C187.53 344.161 188.177 344.397 189.03 344.397C189.882 344.397 190.53 344.161 190.971 343.689C191.413 343.202 191.702 342.57 191.839 341.793C191.976 341.001 192.045 340.027 192.045 338.869ZM210.838 347.572C209.346 347.572 207.976 347.222 206.727 346.521C205.478 345.821 204.488 344.854 203.757 343.62C203.027 342.372 202.661 340.963 202.661 339.395C202.661 337.841 203.027 336.448 203.757 335.214C204.488 333.966 205.478 332.991 206.727 332.291C207.976 331.59 209.346 331.24 210.838 331.24C212.346 331.24 213.717 331.59 214.95 332.291C216.199 332.991 217.181 333.966 217.897 335.214C218.628 336.448 218.993 337.841 218.993 339.395C218.993 340.963 218.628 342.372 217.897 343.62C217.181 344.854 216.199 345.821 214.95 346.521C213.701 347.222 212.331 347.572 210.838 347.572ZM210.838 344.717C211.798 344.717 212.643 344.504 213.374 344.077C214.105 343.636 214.676 343.011 215.087 342.204C215.498 341.397 215.704 340.461 215.704 339.395C215.704 338.329 215.498 337.4 215.087 336.608C214.676 335.801 214.105 335.184 213.374 334.758C212.643 334.331 211.798 334.118 210.838 334.118C209.879 334.118 209.026 334.331 208.28 334.758C207.549 335.184 206.978 335.801 206.567 336.608C206.156 337.4 205.95 338.329 205.95 339.395C205.95 340.461 206.156 341.397 206.567 342.204C206.978 343.011 207.549 343.636 208.28 344.077C209.026 344.504 209.879 344.717 210.838 344.717ZM220.55 341.085C220.55 339.775 220.816 338.633 221.349 337.659C221.882 336.669 222.621 335.907 223.565 335.374C224.509 334.826 225.59 334.552 226.809 334.552C228.377 334.552 229.672 334.948 230.692 335.74C231.727 336.516 232.42 337.613 232.77 339.029H229.321C229.139 338.481 228.826 338.054 228.385 337.75C227.958 337.43 227.425 337.27 226.786 337.27C225.872 337.27 225.149 337.605 224.616 338.275C224.083 338.93 223.816 339.867 223.816 341.085C223.816 342.288 224.083 343.224 224.616 343.894C225.149 344.549 225.872 344.877 226.786 344.877C228.08 344.877 228.925 344.298 229.321 343.141H232.77C232.42 344.511 231.727 345.6 230.692 346.407C229.656 347.214 228.362 347.618 226.809 347.618C225.59 347.618 224.509 347.351 223.565 346.818C222.621 346.27 221.882 345.509 221.349 344.534C220.816 343.544 220.55 342.394 220.55 341.085ZM246.877 340.811C246.877 341.268 246.846 341.679 246.785 342.044H237.534C237.611 342.958 237.93 343.674 238.494 344.191C239.057 344.709 239.75 344.968 240.572 344.968C241.76 344.968 242.605 344.458 243.108 343.438H246.557C246.192 344.656 245.491 345.661 244.456 346.453C243.42 347.229 242.149 347.618 240.641 347.618C239.423 347.618 238.326 347.351 237.352 346.818C236.392 346.27 235.639 345.501 235.09 344.511C234.557 343.521 234.291 342.379 234.291 341.085C234.291 339.775 234.557 338.626 235.09 337.636C235.623 336.646 236.369 335.884 237.329 335.352C238.288 334.819 239.392 334.552 240.641 334.552C241.844 334.552 242.918 334.811 243.862 335.329C244.821 335.846 245.56 336.585 246.077 337.544C246.61 338.488 246.877 339.577 246.877 340.811ZM243.565 339.897C243.549 339.075 243.253 338.42 242.674 337.933C242.095 337.43 241.387 337.179 240.55 337.179C239.758 337.179 239.088 337.423 238.539 337.91C238.006 338.382 237.679 339.044 237.557 339.897H243.565ZM248.389 341.039C248.389 339.76 248.64 338.626 249.142 337.636C249.66 336.646 250.353 335.884 251.221 335.352C252.104 334.819 253.087 334.552 254.168 334.552C255.112 334.552 255.934 334.742 256.635 335.123C257.35 335.504 257.921 335.983 258.348 336.562V334.758H261.569V347.412H258.348V345.562C257.937 346.156 257.366 346.651 256.635 347.047C255.919 347.427 255.089 347.618 254.145 347.618C253.079 347.618 252.104 347.344 251.221 346.795C250.353 346.247 249.66 345.478 249.142 344.488C248.64 343.483 248.389 342.334 248.389 341.039ZM258.348 341.085C258.348 340.308 258.196 339.646 257.891 339.098C257.586 338.534 257.175 338.108 256.657 337.818C256.14 337.514 255.584 337.362 254.99 337.362C254.396 337.362 253.848 337.506 253.345 337.796C252.843 338.085 252.432 338.511 252.112 339.075C251.807 339.623 251.655 340.278 251.655 341.039C251.655 341.801 251.807 342.471 252.112 343.049C252.432 343.613 252.843 344.047 253.345 344.351C253.863 344.656 254.411 344.808 254.99 344.808C255.584 344.808 256.14 344.663 256.657 344.374C257.175 344.07 257.586 343.643 257.891 343.095C258.196 342.532 258.348 341.861 258.348 341.085ZM271.704 334.575C273.212 334.575 274.43 335.055 275.359 336.014C276.288 336.958 276.752 338.283 276.752 339.988V347.412H273.555V340.422C273.555 339.417 273.303 338.648 272.801 338.115C272.298 337.567 271.613 337.293 270.745 337.293C269.862 337.293 269.161 337.567 268.643 338.115C268.141 338.648 267.89 339.417 267.89 340.422V347.412H264.692V334.758H267.89V336.334C268.316 335.786 268.857 335.359 269.511 335.055C270.182 334.735 270.912 334.575 271.704 334.575ZM290.81 331.468C292.485 331.468 293.954 331.796 295.218 332.451C296.497 333.105 297.48 334.042 298.165 335.26C298.865 336.463 299.216 337.864 299.216 339.463C299.216 341.062 298.865 342.463 298.165 343.666C297.48 344.854 296.497 345.775 295.218 346.43C293.954 347.085 292.485 347.412 290.81 347.412H285.236V331.468H290.81ZM290.696 344.694C292.371 344.694 293.665 344.237 294.579 343.323C295.492 342.41 295.949 341.123 295.949 339.463C295.949 337.803 295.492 336.509 294.579 335.58C293.665 334.636 292.371 334.164 290.696 334.164H288.434V344.694H290.696ZM304.807 336.722C305.218 336.052 305.751 335.527 306.406 335.146C307.076 334.765 307.838 334.575 308.69 334.575V337.933H307.845C306.84 337.933 306.079 338.169 305.561 338.641C305.059 339.113 304.807 339.935 304.807 341.108V347.412H301.609V334.758H304.807V336.722ZM312.466 333.25C311.903 333.25 311.431 333.075 311.05 332.725C310.684 332.359 310.502 331.91 310.502 331.377C310.502 330.844 310.684 330.402 311.05 330.052C311.431 329.687 311.903 329.504 312.466 329.504C313.03 329.504 313.494 329.687 313.86 330.052C314.24 330.402 314.431 330.844 314.431 331.377C314.431 331.91 314.24 332.359 313.86 332.725C313.494 333.075 313.03 333.25 312.466 333.25ZM314.042 334.758V347.412H310.844V334.758H314.042ZM322.478 344.465L325.676 334.758H329.08L324.397 347.412H320.514L315.854 334.758H319.28L322.478 344.465ZM342.639 340.811C342.639 341.268 342.609 341.679 342.548 342.044H333.297C333.373 342.958 333.693 343.674 334.256 344.191C334.82 344.709 335.513 344.968 336.335 344.968C337.523 344.968 338.368 344.458 338.87 343.438H342.32C341.954 344.656 341.254 345.661 340.218 346.453C339.183 347.229 337.911 347.618 336.404 347.618C335.185 347.618 334.089 347.351 333.114 346.818C332.155 346.27 331.401 345.501 330.853 344.511C330.32 343.521 330.053 342.379 330.053 341.085C330.053 339.775 330.32 338.626 330.853 337.636C331.386 336.646 332.132 335.884 333.091 335.352C334.051 334.819 335.155 334.552 336.404 334.552C337.607 334.552 338.68 334.811 339.624 335.329C340.584 335.846 341.322 336.585 341.84 337.544C342.373 338.488 342.639 339.577 342.639 340.811ZM339.327 339.897C339.312 339.075 339.015 338.42 338.436 337.933C337.858 337.43 337.15 337.179 336.312 337.179C335.52 337.179 334.85 337.423 334.302 337.91C333.769 338.382 333.442 339.044 333.32 339.897H339.327Z" fill="#FCFDFD"/>
<path d="M186.253 301.172V311.26H185.592V302.552L181.715 311.26H181.187L177.295 302.552V311.26H176.635V301.172H177.339L181.451 310.393L185.563 301.172H186.253ZM189.018 301.509C188.861 301.509 188.729 301.461 188.622 301.363C188.514 301.255 188.46 301.113 188.46 300.937C188.46 300.77 188.514 300.633 188.622 300.526C188.729 300.418 188.861 300.364 189.018 300.364C189.175 300.364 189.307 300.418 189.414 300.526C189.522 300.633 189.576 300.77 189.576 300.937C189.576 301.113 189.522 301.255 189.414 301.363C189.307 301.461 189.175 301.509 189.018 301.509ZM189.341 303.286V311.26H188.68V303.286H189.341ZM191.352 307.266C191.352 306.443 191.514 305.724 191.837 305.107C192.17 304.49 192.625 304.016 193.202 303.683C193.79 303.35 194.455 303.183 195.199 303.183C196.041 303.183 196.756 303.389 197.343 303.8C197.931 304.211 198.342 304.735 198.577 305.371V303.286H199.238V311.26H198.577V309.16C198.342 309.806 197.926 310.34 197.329 310.761C196.741 311.172 196.032 311.377 195.199 311.377C194.455 311.377 193.79 311.211 193.202 310.878C192.625 310.535 192.17 310.056 191.837 309.439C191.514 308.812 191.352 308.088 191.352 307.266ZM198.577 307.266C198.577 306.571 198.43 305.959 198.136 305.43C197.852 304.892 197.461 304.481 196.962 304.197C196.462 303.903 195.904 303.756 195.288 303.756C194.641 303.756 194.074 303.898 193.584 304.182C193.095 304.456 192.713 304.857 192.439 305.386C192.165 305.915 192.028 306.541 192.028 307.266C192.028 307.99 192.165 308.617 192.439 309.145C192.713 309.674 193.095 310.08 193.584 310.364C194.083 310.648 194.651 310.79 195.288 310.79C195.904 310.79 196.462 310.648 196.962 310.364C197.471 310.07 197.867 309.659 198.151 309.131C198.435 308.592 198.577 307.971 198.577 307.266ZM211.071 303.125C211.981 303.125 212.725 303.418 213.303 304.006C213.88 304.583 214.169 305.445 214.169 306.59V311.26H213.523V306.634C213.523 305.685 213.293 304.96 212.833 304.461C212.383 303.952 211.761 303.697 210.968 303.697C210.146 303.697 209.485 303.981 208.986 304.549C208.486 305.117 208.237 305.939 208.237 307.016V311.26H207.591V306.634C207.591 305.685 207.361 304.96 206.901 304.461C206.45 303.952 205.829 303.697 205.036 303.697C204.213 303.697 203.553 303.981 203.053 304.549C202.554 305.117 202.304 305.939 202.304 307.016V311.26H201.644V303.286H202.304V305.019C202.53 304.392 202.892 303.923 203.391 303.609C203.9 303.286 204.483 303.125 205.138 303.125C205.863 303.125 206.485 303.316 207.003 303.697C207.532 304.069 207.894 304.623 208.09 305.357C208.276 304.623 208.638 304.069 209.177 303.697C209.715 303.316 210.346 303.125 211.071 303.125ZM216.852 301.509C216.695 301.509 216.563 301.461 216.455 301.363C216.348 301.255 216.294 301.113 216.294 300.937C216.294 300.77 216.348 300.633 216.455 300.526C216.563 300.418 216.695 300.364 216.852 300.364C217.009 300.364 217.141 300.418 217.248 300.526C217.356 300.633 217.41 300.77 217.41 300.937C217.41 301.113 217.356 301.255 217.248 301.363C217.141 301.461 217.009 301.509 216.852 301.509ZM217.175 303.286V311.26H216.514V303.286H217.175ZM220.038 309.718L218.658 313.477H218.158L219.274 309.718H220.038ZM231.151 300.951V301.509H226.496V305.812H230.564V306.37H226.496V311.26H225.835V300.951H231.151ZM233.566 310.702H237.398V311.26H232.905V300.951H233.566V310.702ZM242.779 303.551C242.867 302.66 243.21 301.96 243.807 301.451C244.414 300.942 245.212 300.687 246.2 300.687C246.837 300.687 247.38 300.805 247.83 301.04C248.281 301.265 248.623 301.573 248.858 301.965C249.093 302.356 249.211 302.802 249.211 303.301C249.211 303.927 249.02 304.471 248.638 304.931C248.256 305.381 247.674 305.65 246.891 305.739V305.827C247.644 305.944 248.251 306.233 248.711 306.693C249.171 307.153 249.402 307.77 249.402 308.543C249.402 309.366 249.127 310.041 248.579 310.57C248.041 311.088 247.248 311.348 246.2 311.348C245.212 311.348 244.394 311.084 243.748 310.555C243.112 310.026 242.73 309.277 242.603 308.308H243.249C243.366 309.033 243.68 309.625 244.189 310.085C244.698 310.535 245.368 310.761 246.2 310.761C247.042 310.761 247.679 310.55 248.109 310.129C248.55 309.708 248.77 309.165 248.77 308.499C248.77 307.696 248.462 307.094 247.845 306.693C247.238 306.292 246.367 306.091 245.231 306.091H244.952V305.518H245.246C247.458 305.508 248.565 304.784 248.565 303.345C248.565 302.718 248.354 302.214 247.933 301.833C247.522 301.451 246.939 301.26 246.186 301.26C245.451 301.26 244.83 301.456 244.321 301.847C243.822 302.229 243.523 302.797 243.425 303.551H242.779ZM251.297 303.551C251.385 302.66 251.728 301.96 252.325 301.451C252.932 300.942 253.73 300.687 254.718 300.687C255.355 300.687 255.898 300.805 256.348 301.04C256.799 301.265 257.141 301.573 257.376 301.965C257.611 302.356 257.729 302.802 257.729 303.301C257.729 303.927 257.538 304.471 257.156 304.931C256.774 305.381 256.192 305.65 255.408 305.739V305.827C256.162 305.944 256.769 306.233 257.229 306.693C257.689 307.153 257.919 307.77 257.919 308.543C257.919 309.366 257.645 310.041 257.097 310.57C256.559 311.088 255.766 311.348 254.718 311.348C253.73 311.348 252.912 311.084 252.266 310.555C251.63 310.026 251.248 309.277 251.121 308.308H251.767C251.884 309.033 252.198 309.625 252.707 310.085C253.216 310.535 253.886 310.761 254.718 310.761C255.56 310.761 256.197 310.55 256.627 310.129C257.068 309.708 257.288 309.165 257.288 308.499C257.288 307.696 256.98 307.094 256.363 306.693C255.756 306.292 254.885 306.091 253.749 306.091H253.47V305.518H253.764C255.976 305.508 257.082 304.784 257.082 303.345C257.082 302.718 256.872 302.214 256.451 301.833C256.04 301.451 255.457 301.26 254.704 301.26C253.969 301.26 253.348 301.456 252.839 301.847C252.339 302.229 252.041 302.797 251.943 303.551H251.297ZM259.609 310.775C261.45 309.503 262.899 308.274 263.956 307.089C265.023 305.905 265.556 304.769 265.556 303.683C265.556 302.968 265.365 302.386 264.984 301.935C264.612 301.485 264 301.26 263.148 301.26C262.296 301.26 261.645 301.519 261.195 302.038C260.745 302.557 260.49 303.242 260.432 304.094H259.786C259.854 303.017 260.187 302.18 260.784 301.583C261.381 300.986 262.169 300.687 263.148 300.687C264.039 300.687 264.768 300.937 265.336 301.436C265.914 301.935 266.202 302.679 266.202 303.668C266.202 304.892 265.64 306.125 264.514 307.368C263.398 308.612 262.12 309.708 260.681 310.658H266.54V311.216H259.609V310.775ZM274.739 301.407H269.1V305.621C269.364 305.249 269.751 304.946 270.26 304.711C270.769 304.466 271.322 304.344 271.919 304.344C272.712 304.344 273.358 304.505 273.858 304.828C274.367 305.141 274.734 305.553 274.959 306.062C275.184 306.571 275.297 307.124 275.297 307.721C275.297 308.387 275.174 308.994 274.929 309.542C274.685 310.08 274.298 310.516 273.769 310.849C273.251 311.172 272.595 311.333 271.802 311.333C270.842 311.333 270.049 311.074 269.423 310.555C268.806 310.026 268.429 309.317 268.292 308.426H268.938C269.085 309.18 269.413 309.757 269.922 310.158C270.431 310.55 271.058 310.746 271.802 310.746C272.751 310.746 273.466 310.472 273.946 309.924C274.425 309.366 274.665 308.636 274.665 307.736C274.665 306.855 274.42 306.164 273.931 305.665C273.451 305.166 272.761 304.916 271.86 304.916C271.244 304.916 270.691 305.053 270.201 305.327C269.721 305.601 269.349 305.978 269.085 306.458H268.468V300.819H274.739V301.407ZM278.108 308.529C278.206 309.243 278.465 309.796 278.886 310.188C279.317 310.579 279.895 310.775 280.619 310.775C281.608 310.775 282.357 310.408 282.866 309.674C283.385 308.94 283.644 307.75 283.644 306.106L283.629 305.533C283.483 306.179 283.115 306.693 282.528 307.075C281.951 307.457 281.275 307.647 280.502 307.647C279.444 307.647 278.612 307.334 278.005 306.708C277.398 306.081 277.095 305.215 277.095 304.109C277.095 303.13 277.374 302.317 277.932 301.671C278.5 301.015 279.351 300.687 280.487 300.687C281.916 300.687 282.895 301.142 283.424 302.053C283.962 302.963 284.231 304.231 284.231 305.856C284.231 307.647 283.952 309.013 283.394 309.953C282.836 310.883 281.902 311.348 280.59 311.348C279.67 311.348 278.945 311.093 278.417 310.584C277.888 310.065 277.575 309.38 277.477 308.529H278.108ZM280.575 307.089C281.074 307.089 281.549 306.987 281.999 306.781C282.45 306.566 282.812 306.252 283.086 305.841C283.37 305.43 283.512 304.931 283.512 304.344C283.512 303.786 283.404 303.272 283.189 302.802C282.974 302.332 282.636 301.955 282.176 301.671C281.725 301.387 281.162 301.245 280.487 301.245C279.655 301.245 278.984 301.505 278.475 302.023C277.976 302.532 277.726 303.228 277.726 304.109C277.726 305.058 277.976 305.792 278.475 306.311C278.975 306.83 279.674 307.089 280.575 307.089Z" fill="#99A6AF"/>
<path opacity="0.35" d="M163.305 299.024C162.507 299.143 161.851 299.378 161.213 299.768C160.126 300.433 159.37 301.466 159.093 302.662C159.009 303.016 158.978 303.728 159.028 304.102C159.171 305.166 159.783 306.462 160.795 307.842C161.252 308.464 161.974 309.316 162.554 309.921C162.881 310.258 163.563 310.928 163.744 311.088C163.898 311.222 163.924 311.236 164.029 311.236C164.139 311.236 164.146 311.232 164.486 310.916C165.757 309.727 166.959 308.333 167.715 307.173C168.436 306.065 168.863 305.077 169.006 304.18C169.069 303.774 169.046 303.054 168.954 302.662C168.533 300.842 167.022 299.459 165.03 299.072C164.756 299.017 164.64 299.007 164.115 299.002C163.702 298.995 163.448 299.002 163.305 299.024ZM164.599 301.561C164.857 301.621 165.268 301.813 165.474 301.973C166.499 302.762 166.583 304.149 165.66 305.037C164.986 305.685 163.851 305.855 162.983 305.436C162.384 305.147 161.956 304.647 161.801 304.061C161.731 303.783 161.731 303.382 161.801 303.104C161.914 302.678 162.207 302.25 162.58 301.966C162.779 301.815 163.197 301.619 163.448 301.559C163.791 301.478 164.248 301.478 164.599 301.561Z" fill="#99A6AF"/>
<path d="M134 20C134 8.95431 142.954 0 154 0H509.969C521.015 0 529.969 8.95431 529.969 20V265H134V20Z" fill="url(#pattern0)"/>
<defs>
<pattern id="pattern0" patternContentUnits="objectBoundingBox" width="1" height="1">
<use xlink:href="#image0_6432_9997" transform="matrix(0.000702988 0 0 0.00105042 -0.00228462 0)"/>
</pattern>
</defs>
</svg>
