<svg width="53" height="66" viewBox="0 0 53 66" fill="none" xmlns="http://www.w3.org/2000/svg">
<path fill-rule="evenodd" clip-rule="evenodd" d="M15.7344 15.6749C15.7344 9.75174 20.5543 4.94999 26.5 4.94999C32.4456 4.94999 37.2655 9.75174 37.2655 15.6749V19.8H15.7344V15.6749ZM10.7656 20.0317V15.6749C10.7656 7.01793 17.8102 0 26.5 0C35.1898 0 42.2343 7.01793 42.2343 15.6749V20.0317C48.3645 21.1901 53 26.5557 53 32.9999V52.7999C53 60.0901 47.0677 66 39.7499 66H13.25C5.93222 66 0 60.0901 0 52.7999V32.9999C0 26.5557 4.63535 21.1901 10.7656 20.0317ZM26.5 37.125C27.872 37.125 28.9843 38.2331 28.9843 39.6V46.2C28.9843 47.5668 27.872 48.675 26.5 48.675C25.128 48.675 24.0156 47.5668 24.0156 46.2V39.6C24.0156 38.2331 25.128 37.125 26.5 37.125Z" fill="#0D6EFD"/>
</svg>
