<svg width="56" height="56" viewBox="0 0 56 56" fill="none" xmlns="http://www.w3.org/2000/svg">
<rect width="56" height="56" rx="12" fill="#062C4D"/>
<g opacity="0.5">
<path fill-rule="evenodd" clip-rule="evenodd" d="M10.667 18.666C10.667 18.1137 11.1147 17.666 11.667 17.666H44.3337C44.8859 17.666 45.3337 18.1137 45.3337 18.666C45.3337 19.2183 44.8859 19.666 44.3337 19.666L11.667 19.666C11.1147 19.666 10.667 19.2183 10.667 18.666ZM10.667 27.9994C10.667 27.4471 11.1147 26.9994 11.667 26.9994L44.3337 26.9994C44.8859 26.9994 45.3337 27.4471 45.3337 27.9994C45.3337 28.5516 44.8859 28.9994 44.3337 28.9994L11.667 28.9994C11.1147 28.9994 10.667 28.5516 10.667 27.9994ZM11.667 36.3327C11.1147 36.3327 10.667 36.7804 10.667 37.3327C10.667 37.885 11.1147 38.3327 11.667 38.3327L37.3337 38.3327C37.8859 38.3327 38.3337 37.885 38.3337 37.3327C38.3337 36.7804 37.8859 36.3327 37.3337 36.3327L11.667 36.3327Z" fill="#FCFDFD"/>
</g>
</svg>
