<svg width="56" height="56" viewBox="0 0 56 56" fill="none" xmlns="http://www.w3.org/2000/svg">
<rect width="56" height="56" rx="12" fill="#EDF4FD"/>
<g opacity="0.5">
<path fill-rule="evenodd" clip-rule="evenodd" d="M10.667 18.6665C10.667 18.1142 11.1147 17.6665 11.667 17.6665H44.3337C44.8859 17.6665 45.3337 18.1142 45.3337 18.6665C45.3337 19.2188 44.8859 19.6665 44.3337 19.6665L11.667 19.6665C11.1147 19.6665 10.667 19.2188 10.667 18.6665ZM10.667 27.9998C10.667 27.4476 11.1147 26.9998 11.667 26.9998L44.3337 26.9998C44.8859 26.9998 45.3337 27.4476 45.3337 27.9998C45.3337 28.5521 44.8859 28.9998 44.3337 28.9998L11.667 28.9998C11.1147 28.9998 10.667 28.5521 10.667 27.9998ZM11.667 36.3332C11.1147 36.3332 10.667 36.7809 10.667 37.3332C10.667 37.8855 11.1147 38.3332 11.667 38.3332L37.3337 38.3332C37.8859 38.3332 38.3337 37.8855 38.3337 37.3332C38.3337 36.7809 37.8859 36.3332 37.3337 36.3332L11.667 36.3332Z" fill="#0D2B40"/>
</g>
</svg>
