<svg width="390" height="405" viewBox="0 0 390 405" fill="none" xmlns="http://www.w3.org/2000/svg">
<path d="M201.823 73.5124C201.646 59.051 201.823 73.0303 201.646 44.8306C208.938 44.8027 340.104 101.282 345.784 105.871C351.464 110.46 351.687 116.407 352.508 123.922C352.508 126.928 352.653 126.678 352.508 127.897C352.661 129.51 352.653 131.059 352.653 132.632V229.172C352.673 229.823 352.625 230.475 352.508 231.116C352.264 232.196 351.673 233.167 350.827 233.879C349.981 234.592 348.926 235.006 347.823 235.06H346.594H310.601C310.088 235.053 309.575 235.082 309.066 235.148C308.084 235.242 307.153 235.628 306.393 236.258C305.632 236.888 305.077 237.732 304.799 238.681C304.517 239.642 304.517 240.664 304.799 241.625C305.278 243.633 305.518 245.691 305.514 247.755C305.536 252.039 304.427 256.253 302.299 259.967C299.147 265.655 293.909 269.885 287.698 271.759C285.668 272.39 283.562 272.742 281.437 272.807C276.963 273.037 262.871 272.018 258.939 269.863C255.73 268.162 252.934 265.774 250.747 262.868C248.559 259.962 247.035 256.609 246.282 253.046C245.762 250.73 245.58 248.35 245.743 245.981C245.843 244.507 246.069 243.044 246.418 241.609C246.777 240.335 246.63 238.97 246.008 237.802C245.647 237.077 245.109 236.454 244.445 235.992C243.78 235.53 243.011 235.242 242.207 235.156C241.673 235.097 241.137 235.065 240.6 235.06H204.444H203.102C201.84 235.006 200.644 234.479 199.752 233.583C198.859 232.687 198.333 231.487 198.28 230.22C198.28 229.841 198.28 229.462 198.28 229.083V192.035C198.246 191.218 198.017 190.42 197.612 189.711C197.206 189.001 196.637 188.4 195.951 187.958C195.266 187.516 194.484 187.246 193.672 187.171C192.861 187.095 192.043 187.217 191.289 187.526C189.735 188.174 188.119 188.661 186.467 188.978C184.181 189.427 181.846 189.562 179.524 189.381C177.513 189.223 167.376 185.596 166.478 184.423C164.299 181.577 162.757 178.293 161.955 174.796C161.337 172.251 161.144 172.513 161.385 169.904C160.386 164.572 162.512 159.521 166.01 155.483C169.508 151.444 174.196 148.628 179.394 147.441C184.372 146.301 189.578 146.711 194.317 148.619C194.663 148.756 195.025 148.877 195.386 148.982C196.119 149.166 196.884 149.182 197.624 149.029C198.364 148.877 199.06 148.559 199.661 148.1C200.262 147.641 200.753 147.052 201.097 146.376C201.44 145.701 201.628 144.957 201.646 144.199C201.646 143.788 201.646 143.392 201.646 142.965V100.265C201.625 99.612 201.823 99.5429 201.823 98.321C201.823 96.6507 201.823 100.265 201.823 95.6866C201.823 92.7943 201.823 96.4096 201.823 92.0712V80.5021V73.5124Z" fill="#0D6EFD" fill-opacity="0.15"/>
<mask id="path-2-inside-1_9302_19720" fill="white">
<path d="M262.289 395.752H200.195C199.583 395.772 198.97 395.732 198.365 395.633C197.186 395.386 196.124 394.751 195.348 393.829C194.572 392.908 194.128 391.753 194.085 390.549C194.085 390.261 194.085 389.973 194.085 389.702V344.391C194.063 343.74 194.117 343.089 194.246 342.451C194.411 341.746 194.716 341.082 195.143 340.498C195.571 339.915 196.112 339.423 196.734 339.054C197.356 338.684 198.046 338.444 198.763 338.348C199.481 338.251 200.21 338.301 200.907 338.493C201.323 338.612 201.755 338.781 202.128 338.934C206.748 340.737 211.783 341.201 216.655 340.272C221.527 339.342 226.038 337.058 229.67 333.68C233.254 330.364 235.849 326.12 237.169 321.42C238.488 316.719 238.48 311.745 237.145 307.048C235.81 302.352 233.201 298.117 229.606 294.812C226.012 291.508 221.572 289.263 216.78 288.327C211.824 287.341 206.686 287.824 202 289.717C201.194 290.056 200.333 290.248 199.458 290.285C198.067 290.297 196.726 289.766 195.72 288.806C194.713 287.846 194.121 286.531 194.068 285.141C194.068 284.853 194.068 284.565 194.068 284.294C194.068 269.159 194.068 254.025 194.068 238.89C194.053 238.42 194.075 237.95 194.136 237.483C194.314 236.219 194.934 235.059 195.887 234.209C196.84 233.358 198.063 232.873 199.339 232.84C199.661 232.84 199.992 232.84 200.314 232.84H243.882C244.495 232.827 245.108 232.87 245.713 232.967C247.076 233.229 248.283 234.01 249.081 235.145C249.88 236.28 250.206 237.68 249.993 239.051C249.908 239.551 249.789 240.043 249.696 240.534C247.95 249.398 250.077 257.228 256.094 263.939C260.015 268.368 265.365 271.283 271.213 272.176C275.527 272.895 279.952 272.533 284.091 271.121C288.231 269.71 291.955 267.294 294.931 264.089C297.906 260.884 300.04 256.991 301.141 252.759C302.242 248.527 302.276 244.088 301.239 239.839C300.968 238.823 300.968 237.754 301.239 236.738C301.548 235.645 302.195 234.679 303.087 233.977C303.979 233.276 305.071 232.874 306.205 232.831C306.536 232.831 306.858 232.831 307.18 232.831H355.188C355.756 232.818 356.323 232.857 356.883 232.95C358.102 233.167 359.21 233.796 360.02 234.733C360.83 235.669 361.293 236.856 361.332 238.094C361.332 238.314 361.332 238.534 361.332 238.746C361.332 279.924 361.332 321.099 361.332 362.271C361.408 369.9 358.798 377.312 353.959 383.211C349.008 389.469 341.952 393.715 334.103 395.159C332.009 395.563 329.88 395.764 327.747 395.761L262.289 395.752Z"/>
</mask>
<path d="M262.289 395.752H200.195C199.583 395.772 198.97 395.732 198.365 395.633C197.186 395.386 196.124 394.751 195.348 393.829C194.572 392.908 194.128 391.753 194.085 390.549C194.085 390.261 194.085 389.973 194.085 389.702V344.391C194.063 343.74 194.117 343.089 194.246 342.451C194.411 341.746 194.716 341.082 195.143 340.498C195.571 339.915 196.112 339.423 196.734 339.054C197.356 338.684 198.046 338.444 198.763 338.348C199.481 338.251 200.21 338.301 200.907 338.493C201.323 338.612 201.755 338.781 202.128 338.934C206.748 340.737 211.783 341.201 216.655 340.272C221.527 339.342 226.038 337.058 229.67 333.68C233.254 330.364 235.849 326.12 237.169 321.42C238.488 316.719 238.48 311.745 237.145 307.048C235.81 302.352 233.201 298.117 229.606 294.812C226.012 291.508 221.572 289.263 216.78 288.327C211.824 287.341 206.686 287.824 202 289.717C201.194 290.056 200.333 290.248 199.458 290.285C198.067 290.297 196.726 289.766 195.72 288.806C194.713 287.846 194.121 286.531 194.068 285.141C194.068 284.853 194.068 284.565 194.068 284.294C194.068 269.159 194.068 254.025 194.068 238.89C194.053 238.42 194.075 237.95 194.136 237.483C194.314 236.219 194.934 235.059 195.887 234.209C196.84 233.358 198.063 232.873 199.339 232.84C199.661 232.84 199.992 232.84 200.314 232.84H243.882C244.495 232.827 245.108 232.87 245.713 232.967C247.076 233.229 248.283 234.01 249.081 235.145C249.88 236.28 250.206 237.68 249.993 239.051C249.908 239.551 249.789 240.043 249.696 240.534C247.95 249.398 250.077 257.228 256.094 263.939C260.015 268.368 265.365 271.283 271.213 272.176C275.527 272.895 279.952 272.533 284.091 271.121C288.231 269.71 291.955 267.294 294.931 264.089C297.906 260.884 300.04 256.991 301.141 252.759C302.242 248.527 302.276 244.088 301.239 239.839C300.968 238.823 300.968 237.754 301.239 236.738C301.548 235.645 302.195 234.679 303.087 233.977C303.979 233.276 305.071 232.874 306.205 232.831C306.536 232.831 306.858 232.831 307.18 232.831H355.188C355.756 232.818 356.323 232.857 356.883 232.95C358.102 233.167 359.21 233.796 360.02 234.733C360.83 235.669 361.293 236.856 361.332 238.094C361.332 238.314 361.332 238.534 361.332 238.746C361.332 279.924 361.332 321.099 361.332 362.271C361.408 369.9 358.798 377.312 353.959 383.211C349.008 389.469 341.952 393.715 334.103 395.159C332.009 395.563 329.88 395.764 327.747 395.761L262.289 395.752Z" fill="#0D6EFD" fill-opacity="0.15"/>
<mask id="path-4-outside-2_9302_19720" maskUnits="userSpaceOnUse" x="38.8281" y="35.8198" width="165" height="207" fill="black">
<rect fill="white" x="38.8281" y="35.8198" width="165" height="207"/>
<path d="M46.8308 181.689C46.8308 163.297 46.8308 144.902 46.8308 126.505C46.7606 121.284 48.0611 116.135 50.6024 111.574C52.7407 107.613 55.7338 104.178 59.3647 101.517C62.9956 98.8567 191.379 45.6651 195.8 44.8198C196.04 51.5686 195.793 63.3789 196.033 71.8145V88.9272C196.033 93.9886 196.033 92.0605 196.033 96.3989C196.033 99.7732 195.995 99.1146 196.033 100.368C196.033 100.569 196.033 100.763 196.033 100.965C196.033 114.934 196.033 128.903 196.033 142.871C196.051 143.334 196.022 143.796 195.947 144.253C195.809 144.953 195.52 145.614 195.101 146.192C194.681 146.769 194.141 147.248 193.518 147.596C192.895 147.944 192.204 148.152 191.492 148.205C190.781 148.259 190.066 148.158 189.397 147.908C188.325 147.474 187.229 147.101 186.115 146.79C180.923 145.405 175.418 145.788 170.468 147.877C165.518 149.967 160.956 153.98 158.775 158.33C156.594 162.68 155.238 167.62 155.764 172.563C156.255 177.624 158.33 182.401 161.693 186.215C165.057 190.028 169.537 192.684 174.497 193.803C179.2 194.898 184.124 194.543 188.621 192.786C189.139 192.57 189.674 192.396 190.22 192.266C190.921 192.138 191.642 192.163 192.333 192.342C193.023 192.521 193.666 192.848 194.216 193.301C194.767 193.754 195.212 194.322 195.52 194.965C196.233 196.451 196.002 198.203 196.002 199.798C196.002 213.767 196.002 215.817 196.002 229.786C196.028 230.413 195.96 231.041 195.8 231.648C195.529 232.574 194.99 233.398 194.251 234.018C193.512 234.638 192.607 235.026 191.648 235.133C191.182 235.133 190.725 235.202 190.259 235.202H155.323C154.888 235.202 154.461 235.164 154.035 235.14C153.339 235.08 152.665 234.872 152.057 234.529C151.449 234.186 150.922 233.716 150.512 233.152C150.101 232.587 149.817 231.942 149.677 231.258C149.538 230.574 149.547 229.868 149.704 229.188C149.914 228.179 150.147 227.186 150.271 226.169C151.052 219.996 144.612 213.759 140.927 208.746C137.241 203.733 131.771 200.328 125.646 199.233C119.533 198.133 113.232 199.43 108.051 202.855C102.87 206.281 99.2072 211.57 97.8245 217.625C96.9706 221.245 92.1661 225.016 93.0506 228.629C93.2946 229.49 93.3344 230.396 93.167 231.276C92.9553 232.289 92.4256 233.208 91.6551 233.899C90.8845 234.59 89.9134 235.017 88.8833 235.117C88.3944 235.117 87.8977 235.179 87.401 235.179H52.6434C52.1467 235.179 51.65 235.179 51.1611 235.101C50.1184 234.979 49.1435 234.521 48.3824 233.798C47.6213 233.075 47.1151 232.124 46.9395 231.089C46.8595 230.534 46.8258 229.974 46.8386 229.413L46.8308 181.689Z"/>
</mask>
<path d="M46.8308 181.689C46.8308 163.297 46.8308 144.902 46.8308 126.505C46.7606 121.284 48.0611 116.135 50.6024 111.574C52.7407 107.613 55.7338 104.178 59.3647 101.517C62.9956 98.8567 191.379 45.6651 195.8 44.8198C196.04 51.5686 195.793 63.3789 196.033 71.8145V88.9272C196.033 93.9886 196.033 92.0605 196.033 96.3989C196.033 99.7732 195.995 99.1146 196.033 100.368C196.033 100.569 196.033 100.763 196.033 100.965C196.033 114.934 196.033 128.903 196.033 142.871C196.051 143.334 196.022 143.796 195.947 144.253C195.809 144.953 195.52 145.614 195.101 146.192C194.681 146.769 194.141 147.248 193.518 147.596C192.895 147.944 192.204 148.152 191.492 148.205C190.781 148.259 190.066 148.158 189.397 147.908C188.325 147.474 187.229 147.101 186.115 146.79C180.923 145.405 175.418 145.788 170.468 147.877C165.518 149.967 160.956 153.98 158.775 158.33C156.594 162.68 155.238 167.62 155.764 172.563C156.255 177.624 158.33 182.401 161.693 186.215C165.057 190.028 169.537 192.684 174.497 193.803C179.2 194.898 184.124 194.543 188.621 192.786C189.139 192.57 189.674 192.396 190.22 192.266C190.921 192.138 191.642 192.163 192.333 192.342C193.023 192.521 193.666 192.848 194.216 193.301C194.767 193.754 195.212 194.322 195.52 194.965C196.233 196.451 196.002 198.203 196.002 199.798C196.002 213.767 196.002 215.817 196.002 229.786C196.028 230.413 195.96 231.041 195.8 231.648C195.529 232.574 194.99 233.398 194.251 234.018C193.512 234.638 192.607 235.026 191.648 235.133C191.182 235.133 190.725 235.202 190.259 235.202H155.323C154.888 235.202 154.461 235.164 154.035 235.14C153.339 235.08 152.665 234.872 152.057 234.529C151.449 234.186 150.922 233.716 150.512 233.152C150.101 232.587 149.817 231.942 149.677 231.258C149.538 230.574 149.547 229.868 149.704 229.188C149.914 228.179 150.147 227.186 150.271 226.169C151.052 219.996 144.612 213.759 140.927 208.746C137.241 203.733 131.771 200.328 125.646 199.233C119.533 198.133 113.232 199.43 108.051 202.855C102.87 206.281 99.2072 211.57 97.8245 217.625C96.9706 221.245 92.1661 225.016 93.0506 228.629C93.2946 229.49 93.3344 230.396 93.167 231.276C92.9553 232.289 92.4256 233.208 91.6551 233.899C90.8845 234.59 89.9134 235.017 88.8833 235.117C88.3944 235.117 87.8977 235.179 87.401 235.179H52.6434C52.1467 235.179 51.65 235.179 51.1611 235.101C50.1184 234.979 49.1435 234.521 48.3824 233.798C47.6213 233.075 47.1151 232.124 46.9395 231.089C46.8595 230.534 46.8258 229.974 46.8386 229.413L46.8308 181.689Z" fill="#0D6EFD" fill-opacity="0.15"/>
<path fill-rule="evenodd" clip-rule="evenodd" d="M47.0393 356.619L47.0626 246.002C47.0519 245.407 47.096 244.812 47.1945 244.225C47.3794 243.296 47.8296 242.44 48.4907 241.761C49.1518 241.082 49.9954 240.609 50.9195 240.399C51.5051 240.288 52.1007 240.239 52.6967 240.252H93.5785C94.8323 240.215 96.0253 239.703 96.9158 238.82C97.8063 237.937 98.3278 236.748 98.3745 235.494C98.3628 234.969 98.2846 234.448 98.1417 233.942C97.6539 231.949 97.4193 229.902 97.4432 227.85C97.5359 222.442 99.4257 217.219 102.815 213.004C106.204 208.789 110.899 205.821 116.161 204.569C118.318 204.04 120.54 203.826 122.758 203.933C128.036 204.174 133.092 206.133 137.154 209.512C141.217 212.891 144.064 217.505 145.263 222.651C146.129 226.437 146.094 230.374 145.162 234.144C144.952 235.017 144.976 235.93 145.232 236.79C145.533 237.777 146.14 238.642 146.964 239.263C147.788 239.883 148.787 240.227 149.818 240.244H190.607C191.203 240.222 191.799 240.266 192.384 240.376C193.461 240.601 194.43 241.184 195.135 242.029C195.839 242.874 196.237 243.932 196.264 245.032V287.303C196.245 287.931 196.3 288.558 196.427 289.173C196.592 289.807 196.883 290.402 197.281 290.922C197.68 291.441 198.178 291.876 198.748 292.2C199.317 292.524 199.945 292.731 200.596 292.808C201.246 292.886 201.906 292.832 202.535 292.65C202.854 292.56 203.168 292.451 203.474 292.324C206.767 290.992 210.321 290.429 213.865 290.679C218.583 290.969 223.113 292.629 226.902 295.454C230.692 298.28 233.574 302.149 235.198 306.588C236.033 308.856 236.507 311.242 236.603 313.657C236.738 316.403 236.413 319.152 235.641 321.79C234.016 327.251 230.517 331.963 225.761 335.098C221.004 338.234 215.294 339.592 209.636 338.933C207.401 338.677 205.212 338.113 203.132 337.257C202.198 336.861 201.163 336.763 200.171 336.975C199.178 337.188 198.275 337.7 197.584 338.444C196.806 339.274 196.347 340.351 196.288 341.486V383.959C196.315 384.555 196.268 385.152 196.148 385.736C195.888 386.783 195.292 387.715 194.45 388.389C193.609 389.064 192.57 389.443 191.492 389.469H77.887C72.6326 389.516 67.4587 388.177 62.8861 385.589C59.3759 383.671 56.2805 381.077 53.779 377.956C51.2774 374.835 49.4193 371.249 48.312 367.406C47.6093 365.06 47.2052 362.636 47.1091 360.189C47.0626 359.002 47.0393 357.814 47.0393 356.619ZM41.3746 369.445C40.5042 366.528 40.0034 363.514 39.884 360.473C39.8337 359.191 39.8086 357.908 39.8086 356.619L39.8319 246.058C39.818 245.043 39.8955 244.029 40.0635 243.029L40.0815 242.921L40.1028 242.814C40.5604 240.514 41.6743 238.396 43.31 236.716C44.9456 235.037 47.0329 233.866 49.3195 233.348L49.4454 233.319L49.5723 233.295C50.624 233.095 51.6933 233.004 52.7636 233.021H90.59C90.3188 231.284 90.1925 229.527 90.213 227.766L90.2132 227.746L90.2136 227.727C90.3337 220.713 92.7845 213.94 97.1796 208.473C101.569 203.013 107.649 199.168 114.463 197.541C117.286 196.85 120.194 196.571 123.097 196.71C129.947 197.025 136.506 199.568 141.778 203.953C147.052 208.34 150.749 214.329 152.305 221.011L152.308 221.025L152.312 221.039C153.212 224.976 153.358 229.038 152.753 233.013H190.494C191.574 232.984 192.654 233.07 193.716 233.269L193.791 233.283L193.865 233.298C196.537 233.857 200.27 235.303 202.018 237.4C203.765 239.497 203.425 242.123 203.493 244.852L203.495 244.942V284.663C207.002 283.618 210.676 283.209 214.342 283.464C220.451 283.846 226.318 285.998 231.225 289.658C236.14 293.323 239.88 298.342 241.988 304.1C243.078 307.064 243.698 310.181 243.827 313.336C243.997 316.876 243.576 320.42 242.58 323.821L242.576 323.837L242.571 323.853C240.46 330.944 235.917 337.063 229.74 341.135C223.566 345.205 216.155 346.969 208.81 346.116C207.017 345.911 205.247 345.552 203.518 345.046V383.822C203.555 384.952 203.458 386.083 203.231 387.191L203.201 387.335L203.166 387.479C202.524 390.063 201.051 392.365 198.973 394.031C196.896 395.696 194.328 396.633 191.666 396.698L191.579 396.7H77.9183C71.4233 396.752 65.0282 395.099 59.3714 391.908C55.0425 389.535 51.2247 386.331 48.137 382.479C45.0458 378.622 42.7477 374.192 41.3746 369.445Z" fill="#FCFDFD"/>
<path opacity="0.8" d="M47.0619 303.429V246.002C47.0511 245.407 47.0953 244.812 47.1938 244.225C47.3787 243.295 47.8289 242.439 48.49 241.76C49.151 241.081 49.9946 240.608 50.9188 240.399C51.5044 240.288 52.1 240.238 52.6959 240.251H92.4914C92.8561 240.251 93.2208 240.251 93.5778 240.251C94.8316 240.215 96.0246 239.703 96.9151 238.82C97.8056 237.936 98.327 236.748 98.3738 235.494C98.3621 234.969 98.2839 234.448 98.1409 233.942C97.6532 231.949 97.4185 229.902 97.4425 227.85C97.5351 222.442 99.425 217.219 102.814 213.004C106.203 208.788 110.899 205.821 116.161 204.569C118.317 204.04 120.539 203.825 122.757 203.933C128.036 204.174 133.091 206.133 137.153 209.512C141.216 212.891 144.063 217.504 145.262 222.651C146.128 226.437 146.093 230.373 145.161 234.144C144.952 235.017 144.976 235.93 145.231 236.79C145.533 237.777 146.139 238.642 146.963 239.262C147.787 239.883 148.786 240.226 149.818 240.244H190.606C191.202 240.222 191.798 240.266 192.383 240.376C193.46 240.601 194.43 241.183 195.134 242.028C195.838 242.874 196.236 243.932 196.264 245.032C196.264 245.428 196.264 245.808 196.264 246.219V287.303C196.244 287.93 196.299 288.558 196.427 289.173C196.592 289.807 196.882 290.401 197.28 290.921C197.679 291.441 198.178 291.876 198.747 292.2C199.316 292.524 199.944 292.731 200.595 292.808C201.245 292.885 201.905 292.831 202.534 292.65C202.853 292.56 203.167 292.451 203.473 292.324C206.766 290.991 210.321 290.429 213.864 290.679C218.582 290.969 223.113 292.628 226.902 295.454C230.691 298.279 233.574 302.149 235.198 306.587C236.033 308.856 236.507 311.242 236.602 313.657C236.737 316.403 236.412 319.152 235.64 321.79C234.015 327.25 230.516 331.963 225.76 335.098C221.003 338.234 215.294 339.591 209.635 338.933C207.4 338.677 205.212 338.113 203.132 337.257C202.197 336.861 201.163 336.762 200.17 336.975C199.177 337.187 198.274 337.7 197.583 338.444C196.806 339.273 196.347 340.351 196.287 341.486C196.287 341.882 196.287 342.262 196.287 342.673V383.959C196.314 384.555 196.267 385.152 196.147 385.736C195.887 386.782 195.291 387.714 194.45 388.389C193.608 389.063 192.569 389.443 191.491 389.469H77.8862C72.6319 389.516 67.458 388.177 62.8854 385.589C59.3751 383.671 56.2798 381.077 53.7782 377.956C51.2767 374.835 49.4186 371.249 48.3113 367.406C47.6086 365.06 47.2045 362.635 47.1084 360.189C47.0619 359.001 47.0386 357.814 47.0386 356.619L47.0619 303.429Z" fill="#0D6EFD"/>
<path d="M221.078 10.388L383.678 86.9291C390.2 89.9992 388.013 99.7838 380.804 99.7838H376.862C373.036 99.7838 369.251 98.9845 365.751 97.4371L211.722 29.3346C203.617 25.7511 194.385 25.7103 186.249 29.2221L27.982 97.5342C24.5437 99.0182 20.8383 99.7838 17.0934 99.7838H11.9603C4.71222 99.7838 2.56112 89.9152 9.15168 86.8987L176.832 10.1509C190.896 3.71351 207.083 3.80026 221.078 10.388Z" fill="#0D6EFD" fill-opacity="0.15"/>
<g filter="url(#filter0_b_9302_19720)">
<path d="M139.132 276.564L154.307 279.599C155.189 279.775 156.086 279.864 156.985 279.864H325.17C332.71 279.864 338.822 285.976 338.822 293.516V391.348C338.822 398.888 332.71 405 325.17 405H156.084C148.544 405 142.432 398.888 142.432 391.348V295.179C142.432 294.321 142.351 293.466 142.191 292.624L139.132 276.564Z" fill="white" fill-opacity="0.6"/>
<path d="M142.521 292.561L139.556 276.992L154.241 279.929C155.144 280.11 156.063 280.201 156.985 280.201H325.17C332.524 280.201 338.486 286.162 338.486 293.516V391.348C338.486 398.702 332.524 404.663 325.17 404.663H156.084C148.73 404.663 142.768 398.702 142.768 391.348V295.179C142.768 294.3 142.686 293.424 142.521 292.561Z" stroke="#0D6EFD" stroke-opacity="0.5" stroke-width="0.672905"/>
</g>
<path opacity="0.75" d="M234.12 358.303L231.708 362.901V365.829H230.954V362.901L228.521 358.303H229.372L231.331 362.212L233.28 358.303H234.12ZM235.599 358.842C235.449 358.842 235.32 358.788 235.212 358.68C235.104 358.572 235.05 358.44 235.05 358.282C235.05 358.124 235.104 357.995 235.212 357.894C235.32 357.787 235.449 357.733 235.599 357.733C235.75 357.733 235.879 357.787 235.987 357.894C236.095 357.995 236.149 358.124 236.149 358.282C236.149 358.44 236.095 358.572 235.987 358.68C235.879 358.788 235.75 358.842 235.599 358.842ZM235.976 359.951V365.829H235.223V359.951H235.976ZM243.002 362.588C243.002 362.847 242.994 363.044 242.98 363.181H238.103C238.124 363.626 238.232 364.006 238.426 364.322C238.62 364.638 238.874 364.878 239.19 365.043C239.506 365.201 239.851 365.28 240.224 365.28C240.712 365.28 241.121 365.162 241.451 364.925C241.789 364.688 242.011 364.368 242.119 363.967H242.915C242.772 364.541 242.463 365.011 241.99 365.377C241.523 365.736 240.934 365.915 240.224 365.915C239.671 365.915 239.176 365.793 238.738 365.549C238.3 365.298 237.956 364.946 237.705 364.494C237.46 364.035 237.338 363.5 237.338 362.89C237.338 362.28 237.46 361.745 237.705 361.286C237.949 360.826 238.289 360.475 238.727 360.231C239.165 359.986 239.664 359.864 240.224 359.864C240.784 359.864 241.272 359.986 241.688 360.231C242.112 360.475 242.435 360.805 242.657 361.221C242.887 361.63 243.002 362.086 243.002 362.588ZM242.237 362.567C242.244 362.129 242.155 361.756 241.968 361.447C241.789 361.139 241.541 360.905 241.225 360.747C240.909 360.589 240.565 360.51 240.192 360.51C239.632 360.51 239.154 360.69 238.76 361.049C238.365 361.408 238.146 361.914 238.103 362.567H242.237ZM245.134 357.862V365.829H244.38V357.862H245.134ZM246.496 362.879C246.496 362.276 246.618 361.749 246.862 361.296C247.106 360.837 247.44 360.485 247.864 360.241C248.294 359.99 248.779 359.864 249.317 359.864C249.834 359.864 250.3 359.99 250.717 360.241C251.133 360.493 251.438 360.819 251.632 361.221V357.862H252.386V365.829H251.632V364.516C251.452 364.925 251.158 365.262 250.749 365.528C250.34 365.786 249.859 365.915 249.306 365.915C248.768 365.915 248.283 365.79 247.853 365.538C247.429 365.287 247.096 364.932 246.852 364.473C246.615 364.013 246.496 363.482 246.496 362.879ZM251.632 362.89C251.632 362.416 251.535 362 251.341 361.641C251.147 361.282 250.882 361.006 250.544 360.812C250.214 360.618 249.848 360.521 249.446 360.521C249.03 360.521 248.657 360.615 248.327 360.801C247.996 360.988 247.734 361.261 247.541 361.619C247.354 361.971 247.261 362.391 247.261 362.879C247.261 363.36 247.354 363.783 247.541 364.15C247.734 364.508 247.996 364.785 248.327 364.979C248.657 365.165 249.03 365.258 249.446 365.258C249.848 365.258 250.214 365.162 250.544 364.968C250.882 364.774 251.147 364.498 251.341 364.139C251.535 363.78 251.632 363.364 251.632 362.89Z" fill="#4D6372"/>
<path d="M228.962 380.87V378.439H233.503V392.175H230.79V380.87H228.962ZM236.938 389.198C238.144 388.193 239.105 387.358 239.821 386.692C240.537 386.014 241.133 385.31 241.611 384.582C242.088 383.853 242.327 383.137 242.327 382.434C242.327 381.793 242.176 381.291 241.875 380.927C241.573 380.562 241.108 380.38 240.48 380.38C239.852 380.38 239.369 380.594 239.029 381.021C238.69 381.435 238.514 382.007 238.502 382.735H235.94C235.99 381.228 236.436 380.085 237.277 379.306C238.131 378.527 239.212 378.138 240.518 378.138C241.95 378.138 243.049 378.521 243.815 379.287C244.581 380.041 244.965 381.04 244.965 382.283C244.965 383.263 244.701 384.199 244.173 385.09C243.646 385.982 243.043 386.761 242.364 387.427C241.686 388.08 240.801 388.871 239.708 389.801H245.266V391.986H235.958V390.027L236.938 389.198ZM248.398 392.307C247.92 392.307 247.525 392.162 247.211 391.873C246.909 391.572 246.759 391.201 246.759 390.762C246.759 390.322 246.909 389.958 247.211 389.669C247.525 389.367 247.92 389.217 248.398 389.217C248.862 389.217 249.246 389.367 249.547 389.669C249.849 389.958 249.999 390.322 249.999 390.762C249.999 391.201 249.849 391.572 249.547 391.873C249.246 392.162 248.862 392.307 248.398 392.307ZM261.055 380.719H254.95V383.941C255.214 383.615 255.591 383.351 256.081 383.15C256.57 382.936 257.092 382.83 257.644 382.83C258.649 382.83 259.472 383.049 260.113 383.489C260.753 383.929 261.218 384.494 261.507 385.185C261.796 385.863 261.94 386.591 261.94 387.37C261.94 388.815 261.526 389.977 260.697 390.856C259.88 391.735 258.712 392.175 257.192 392.175C255.76 392.175 254.617 391.817 253.763 391.101C252.909 390.385 252.425 389.449 252.312 388.293H254.875C254.988 388.796 255.239 389.198 255.628 389.499C256.03 389.801 256.539 389.952 257.155 389.952C257.896 389.952 258.455 389.719 258.831 389.254C259.208 388.79 259.397 388.174 259.397 387.408C259.397 386.629 259.202 386.039 258.813 385.637C258.436 385.222 257.877 385.015 257.136 385.015C256.608 385.015 256.169 385.147 255.817 385.411C255.465 385.675 255.214 386.026 255.063 386.466H252.538V378.402H261.055V380.719ZM263.646 381.812C263.646 380.857 263.923 380.11 264.475 379.57C265.041 379.03 265.763 378.76 266.642 378.76C267.521 378.76 268.237 379.03 268.79 379.57C269.355 380.11 269.638 380.857 269.638 381.812C269.638 382.779 269.355 383.533 268.79 384.073C268.237 384.613 267.521 384.883 266.642 384.883C265.763 384.883 265.041 384.613 264.475 384.073C263.923 383.533 263.646 382.779 263.646 381.812ZM275.743 378.986L268.338 392.175H265.775L273.161 378.986H275.743ZM266.623 380.342C265.933 380.342 265.587 380.832 265.587 381.812C265.587 382.804 265.933 383.301 266.623 383.301C266.962 383.301 267.226 383.181 267.415 382.943C267.603 382.691 267.697 382.315 267.697 381.812C267.697 380.832 267.339 380.342 266.623 380.342ZM271.918 389.33C271.918 388.363 272.194 387.615 272.747 387.088C273.312 386.548 274.034 386.277 274.914 386.277C275.793 386.277 276.502 386.548 277.043 387.088C277.595 387.615 277.872 388.363 277.872 389.33C277.872 390.297 277.595 391.051 277.043 391.591C276.502 392.131 275.793 392.401 274.914 392.401C274.022 392.401 273.299 392.131 272.747 391.591C272.194 391.051 271.918 390.297 271.918 389.33ZM274.895 387.86C274.179 387.86 273.821 388.35 273.821 389.33C273.821 390.322 274.179 390.818 274.895 390.818C275.598 390.818 275.95 390.322 275.95 389.33C275.95 388.35 275.598 387.86 274.895 387.86Z" fill="#0D6EFD"/>
<path opacity="0.75" d="M161.904 357.882V362.62C161.904 363.366 162.08 363.919 162.432 364.278C162.79 364.637 163.278 364.816 163.896 364.816C164.513 364.816 164.994 364.64 165.338 364.288C165.69 363.93 165.866 363.373 165.866 362.62V357.882H166.62V362.609C166.62 363.564 166.365 364.281 165.855 364.762C165.353 365.243 164.696 365.484 163.885 365.484C163.074 365.484 162.414 365.243 161.904 364.762C161.402 364.281 161.15 363.564 161.15 362.609V357.882H161.904ZM171.057 359.422C171.76 359.422 172.335 359.641 172.78 360.079C173.225 360.509 173.447 361.138 173.447 361.963V365.408H172.704V362.049C172.704 361.41 172.543 360.922 172.22 360.585C171.904 360.247 171.47 360.079 170.917 360.079C170.35 360.079 169.898 360.258 169.56 360.617C169.223 360.976 169.054 361.504 169.054 362.2V365.408H168.301V359.53H169.054V360.531C169.241 360.172 169.51 359.899 169.862 359.713C170.214 359.519 170.612 359.422 171.057 359.422ZM175.491 358.421C175.34 358.421 175.211 358.367 175.103 358.259C174.995 358.152 174.942 358.019 174.942 357.861C174.942 357.703 174.995 357.574 175.103 357.473C175.211 357.366 175.34 357.312 175.491 357.312C175.641 357.312 175.771 357.366 175.878 357.473C175.986 357.574 176.04 357.703 176.04 357.861C176.04 358.019 175.986 358.152 175.878 358.259C175.771 358.367 175.641 358.421 175.491 358.421ZM175.867 359.53V365.408H175.114V359.53H175.867ZM178.554 360.165V363.815C178.554 364.174 178.622 364.421 178.758 364.558C178.895 364.694 179.135 364.762 179.48 364.762H180.169V365.408H179.361C178.83 365.408 178.435 365.286 178.177 365.042C177.919 364.791 177.789 364.382 177.789 363.815V360.165H176.971V359.53H177.789V358.055H178.554V359.53H180.169V360.165H178.554ZM185.109 360.822C185.296 360.427 185.59 360.1 185.992 359.842C186.401 359.576 186.886 359.444 187.445 359.444C187.977 359.444 188.454 359.569 188.877 359.82C189.308 360.064 189.642 360.416 189.879 360.876C190.123 361.328 190.245 361.855 190.245 362.458C190.245 363.061 190.123 363.592 189.879 364.052C189.642 364.511 189.308 364.866 188.877 365.118C188.454 365.369 187.977 365.494 187.445 365.494C186.893 365.494 186.412 365.365 186.003 365.107C185.594 364.841 185.296 364.511 185.109 364.116V368.186H184.366V359.53H185.109V360.822ZM189.48 362.458C189.48 361.97 189.383 361.55 189.19 361.199C189.003 360.84 188.745 360.567 188.414 360.38C188.084 360.194 187.711 360.1 187.295 360.1C186.893 360.1 186.523 360.197 186.186 360.391C185.856 360.585 185.594 360.861 185.4 361.22C185.206 361.579 185.109 361.995 185.109 362.469C185.109 362.943 185.206 363.359 185.4 363.718C185.594 364.077 185.856 364.353 186.186 364.547C186.523 364.741 186.893 364.838 187.295 364.838C187.711 364.838 188.084 364.744 188.414 364.558C188.745 364.364 189.003 364.088 189.19 363.729C189.383 363.363 189.48 362.939 189.48 362.458ZM192.385 360.574C192.55 360.208 192.802 359.924 193.139 359.724C193.483 359.523 193.903 359.422 194.399 359.422V360.208H194.194C193.648 360.208 193.211 360.355 192.88 360.649C192.55 360.944 192.385 361.435 192.385 362.124V365.408H191.632V359.53H192.385V360.574ZM195.909 358.421C195.758 358.421 195.629 358.367 195.522 358.259C195.414 358.152 195.36 358.019 195.36 357.861C195.36 357.703 195.414 357.574 195.522 357.473C195.629 357.366 195.758 357.312 195.909 357.312C196.06 357.312 196.189 357.366 196.297 357.473C196.404 357.574 196.458 357.703 196.458 357.861C196.458 358.019 196.404 358.152 196.297 358.259C196.189 358.367 196.06 358.421 195.909 358.421ZM196.286 359.53V365.408H195.532V359.53H196.286ZM197.648 362.469C197.648 361.859 197.77 361.328 198.014 360.876C198.258 360.416 198.596 360.064 199.026 359.82C199.457 359.569 199.949 359.444 200.501 359.444C201.226 359.444 201.822 359.623 202.288 359.982C202.762 360.341 203.067 360.829 203.204 361.446H202.396C202.296 361.023 202.077 360.692 201.739 360.456C201.409 360.212 200.996 360.09 200.501 360.09C200.106 360.09 199.751 360.179 199.435 360.359C199.119 360.538 198.868 360.807 198.682 361.166C198.502 361.518 198.412 361.952 198.412 362.469C198.412 362.986 198.502 363.424 198.682 363.782C198.868 364.141 199.119 364.411 199.435 364.59C199.751 364.769 200.106 364.859 200.501 364.859C200.996 364.859 201.409 364.741 201.739 364.504C202.077 364.26 202.296 363.922 202.396 363.492H203.204C203.067 364.095 202.762 364.579 202.288 364.945C201.815 365.311 201.219 365.494 200.501 365.494C199.949 365.494 199.457 365.372 199.026 365.128C198.596 364.877 198.258 364.525 198.014 364.073C197.77 363.614 197.648 363.079 197.648 362.469ZM209.914 362.167C209.914 362.426 209.907 362.623 209.893 362.76H205.015C205.037 363.205 205.145 363.585 205.338 363.901C205.532 364.217 205.787 364.457 206.103 364.622C206.419 364.78 206.763 364.859 207.136 364.859C207.624 364.859 208.034 364.741 208.364 364.504C208.701 364.267 208.924 363.948 209.031 363.546H209.828C209.684 364.12 209.376 364.59 208.902 364.956C208.436 365.315 207.847 365.494 207.136 365.494C206.584 365.494 206.088 365.372 205.651 365.128C205.213 364.877 204.868 364.525 204.617 364.073C204.373 363.614 204.251 363.079 204.251 362.469C204.251 361.859 204.373 361.324 204.617 360.865C204.861 360.405 205.202 360.054 205.64 359.81C206.078 359.566 206.577 359.444 207.136 359.444C207.696 359.444 208.184 359.566 208.601 359.81C209.024 360.054 209.347 360.384 209.57 360.8C209.799 361.209 209.914 361.665 209.914 362.167ZM209.15 362.146C209.157 361.708 209.067 361.335 208.881 361.026C208.701 360.718 208.453 360.484 208.138 360.326C207.822 360.169 207.477 360.09 207.104 360.09C206.544 360.09 206.067 360.269 205.672 360.628C205.277 360.987 205.058 361.493 205.015 362.146H209.15Z" fill="#4D6372"/>
<path d="M170.194 384.061C170.194 385.141 169.849 386.033 169.158 386.736C168.467 387.427 167.544 387.842 166.388 387.98V389.638H165.126V387.999C164.071 387.923 163.166 387.628 162.413 387.113C161.659 386.598 161.119 385.901 160.792 385.022L163.034 383.722C163.436 384.739 164.134 385.311 165.126 385.436V382.177H165.107L165.069 382.158C164.303 381.882 163.619 381.555 163.016 381.178C161.998 380.538 161.452 379.52 161.376 378.126C161.376 377.008 161.734 376.123 162.45 375.469C163.204 374.791 164.096 374.408 165.126 374.32V372.681H166.388V374.358C168.096 374.571 169.302 375.457 170.006 377.014L167.82 378.296C167.519 377.542 167.041 377.083 166.388 376.92V380.067C167.607 380.557 168.392 380.927 168.743 381.178C169.711 381.882 170.194 382.843 170.194 384.061ZM163.958 378.145C163.958 378.421 164.046 378.666 164.221 378.88C164.397 379.081 164.699 379.288 165.126 379.501V376.864C164.347 377.014 163.958 377.441 163.958 378.145ZM166.388 382.686V385.399C167.192 385.235 167.594 384.796 167.594 384.08C167.594 383.515 167.192 383.05 166.388 382.686ZM170.869 375.79L174.336 374.565H176.597V387.754H173.997V377.316L171.51 378.013L170.869 375.79ZM183.883 388.018C182.238 388.018 180.944 387.396 180.002 386.152C179.072 384.884 178.608 383.219 178.608 381.159C178.608 379.099 179.072 377.441 180.002 376.185C180.944 374.929 182.238 374.301 183.883 374.301C185.554 374.301 186.848 374.929 187.765 376.185C188.694 377.441 189.159 379.099 189.159 381.159C189.159 383.219 188.694 384.884 187.765 386.152C186.848 387.396 185.554 388.018 183.883 388.018ZM186.578 381.159C186.578 379.753 186.345 378.679 185.88 377.938C185.428 377.196 184.763 376.826 183.883 376.826C183.004 376.826 182.338 377.196 181.886 377.938C181.434 378.679 181.208 379.753 181.208 381.159C181.208 382.566 181.434 383.64 181.886 384.381C182.338 385.11 183.004 385.474 183.883 385.474C184.763 385.474 185.428 385.104 185.88 384.362C186.345 383.621 186.578 382.554 186.578 381.159ZM195.751 388.018C194.106 388.018 192.812 387.396 191.87 386.152C190.94 384.884 190.476 383.219 190.476 381.159C190.476 379.099 190.94 377.441 191.87 376.185C192.812 374.929 194.106 374.301 195.751 374.301C197.422 374.301 198.715 374.929 199.632 376.185C200.562 377.441 201.027 379.099 201.027 381.159C201.027 383.219 200.562 384.884 199.632 386.152C198.715 387.396 197.422 388.018 195.751 388.018ZM198.445 381.159C198.445 379.753 198.213 378.679 197.748 377.938C197.296 377.196 196.63 376.826 195.751 376.826C194.872 376.826 194.206 377.196 193.754 377.938C193.302 378.679 193.076 379.753 193.076 381.159C193.076 382.566 193.302 383.64 193.754 384.381C194.206 385.11 194.872 385.474 195.751 385.474C196.63 385.474 197.296 385.104 197.748 384.362C198.213 383.621 198.445 382.554 198.445 381.159Z" fill="#0D6EFD"/>
<path opacity="0.15" fill-rule="evenodd" clip-rule="evenodd" d="M159.997 343.651C159.997 343.466 160.144 343.315 160.325 343.315H319.821C320.002 343.315 320.148 343.466 320.148 343.651C320.148 343.837 320.002 343.988 319.821 343.988H160.325C160.144 343.988 159.997 343.837 159.997 343.651Z" fill="#4D6372"/>
<path d="M168.758 322.906C169.499 323.044 170.109 323.414 170.586 324.017C171.063 324.62 171.302 325.311 171.302 326.09C171.302 326.793 171.126 327.415 170.774 327.955C170.435 328.483 169.939 328.897 169.286 329.199C168.633 329.5 167.86 329.651 166.968 329.651H161.297V316.5H166.723C167.615 316.5 168.381 316.644 169.022 316.933C169.675 317.222 170.165 317.624 170.492 318.139C170.831 318.654 171 319.238 171 319.891C171 320.657 170.793 321.298 170.379 321.813C169.977 322.328 169.437 322.692 168.758 322.906ZM163.935 321.926H166.347C166.975 321.926 167.458 321.788 167.797 321.511C168.137 321.223 168.306 320.814 168.306 320.287C168.306 319.759 168.137 319.351 167.797 319.062C167.458 318.773 166.975 318.629 166.347 318.629H163.935V321.926ZM166.592 327.503C167.232 327.503 167.728 327.352 168.08 327.051C168.444 326.749 168.626 326.322 168.626 325.77C168.626 325.204 168.438 324.765 168.061 324.451C167.684 324.124 167.176 323.961 166.535 323.961H163.935V327.503H166.592ZM174.742 317.969C174.277 317.969 173.888 317.825 173.574 317.536C173.272 317.234 173.122 316.864 173.122 316.424C173.122 315.985 173.272 315.62 173.574 315.331C173.888 315.03 174.277 314.879 174.742 314.879C175.207 314.879 175.59 315.03 175.891 315.331C176.205 315.62 176.362 315.985 176.362 316.424C176.362 316.864 176.205 317.234 175.891 317.536C175.59 317.825 175.207 317.969 174.742 317.969ZM176.042 319.213V329.651H173.404V319.213H176.042ZM182.642 329.82C181.788 329.82 181.022 329.67 180.344 329.368C179.666 329.054 179.125 328.633 178.723 328.106C178.334 327.578 178.121 326.994 178.083 326.354H180.739C180.79 326.756 180.984 327.088 181.324 327.352C181.675 327.616 182.109 327.748 182.624 327.748C183.126 327.748 183.515 327.647 183.792 327.446C184.081 327.245 184.225 326.988 184.225 326.674C184.225 326.335 184.049 326.084 183.698 325.92C183.358 325.744 182.812 325.556 182.058 325.355C181.28 325.167 180.639 324.972 180.137 324.771C179.647 324.57 179.22 324.262 178.855 323.848C178.504 323.433 178.328 322.874 178.328 322.171C178.328 321.593 178.491 321.066 178.818 320.588C179.157 320.111 179.634 319.734 180.25 319.458C180.878 319.181 181.612 319.043 182.454 319.043C183.698 319.043 184.69 319.357 185.431 319.985C186.172 320.601 186.58 321.436 186.656 322.491H184.131C184.093 322.077 183.917 321.75 183.603 321.511C183.302 321.26 182.894 321.135 182.379 321.135C181.901 321.135 181.531 321.223 181.267 321.398C181.016 321.574 180.89 321.819 180.89 322.133C180.89 322.485 181.066 322.755 181.418 322.943C181.769 323.119 182.316 323.301 183.057 323.49C183.811 323.678 184.432 323.873 184.922 324.074C185.412 324.275 185.833 324.589 186.185 325.016C186.549 325.43 186.737 325.983 186.75 326.674C186.75 327.277 186.58 327.817 186.241 328.294C185.915 328.772 185.437 329.148 184.809 329.425C184.194 329.689 183.471 329.82 182.642 329.82ZM188.237 324.432C188.237 323.352 188.457 322.41 188.896 321.606C189.336 320.789 189.945 320.161 190.724 319.721C191.503 319.269 192.395 319.043 193.399 319.043C194.693 319.043 195.761 319.37 196.602 320.023C197.457 320.664 198.028 321.568 198.317 322.736H195.472C195.321 322.284 195.064 321.932 194.699 321.681C194.348 321.417 193.908 321.285 193.381 321.285C192.627 321.285 192.03 321.562 191.591 322.114C191.151 322.654 190.931 323.427 190.931 324.432C190.931 325.424 191.151 326.197 191.591 326.749C192.03 327.289 192.627 327.559 193.381 327.559C194.448 327.559 195.145 327.082 195.472 326.128H198.317C198.028 327.258 197.457 328.156 196.602 328.822C195.748 329.488 194.681 329.82 193.399 329.82C192.395 329.82 191.503 329.601 190.724 329.161C189.945 328.709 189.336 328.081 188.896 327.277C188.457 326.46 188.237 325.512 188.237 324.432ZM199.571 324.394C199.571 323.339 199.778 322.403 200.193 321.587C200.62 320.77 201.191 320.142 201.907 319.703C202.636 319.263 203.446 319.043 204.338 319.043C205.117 319.043 205.795 319.2 206.373 319.514C206.963 319.828 207.434 320.224 207.786 320.701V319.213H210.443V329.651H207.786V328.125C207.447 328.615 206.976 329.023 206.373 329.349C205.782 329.663 205.098 329.82 204.319 329.82C203.44 329.82 202.636 329.594 201.907 329.142C201.191 328.69 200.62 328.056 200.193 327.239C199.778 326.41 199.571 325.462 199.571 324.394ZM207.786 324.432C207.786 323.791 207.66 323.245 207.409 322.793C207.158 322.328 206.819 321.976 206.392 321.738C205.965 321.486 205.506 321.361 205.016 321.361C204.526 321.361 204.074 321.48 203.66 321.719C203.245 321.957 202.906 322.309 202.642 322.774C202.391 323.226 202.265 323.766 202.265 324.394C202.265 325.022 202.391 325.575 202.642 326.052C202.906 326.517 203.245 326.875 203.66 327.126C204.087 327.377 204.539 327.503 205.016 327.503C205.506 327.503 205.965 327.384 206.392 327.145C206.819 326.894 207.158 326.542 207.409 326.09C207.66 325.625 207.786 325.072 207.786 324.432ZM223.005 319.213L216.542 334.587H213.735L215.996 329.387L211.813 319.213H214.771L217.465 326.504L220.197 319.213H223.005ZM230.211 319.062C231.454 319.062 232.459 319.458 233.226 320.249C233.992 321.028 234.375 322.121 234.375 323.527V329.651H231.737V323.885C231.737 323.056 231.53 322.422 231.115 321.982C230.701 321.53 230.136 321.304 229.42 321.304C228.691 321.304 228.113 321.53 227.686 321.982C227.272 322.422 227.064 323.056 227.064 323.885V329.651H224.427V319.213H227.064V320.513C227.416 320.061 227.862 319.709 228.402 319.458C228.955 319.194 229.558 319.062 230.211 319.062ZM246.587 324.206C246.587 324.583 246.561 324.922 246.511 325.223H238.88C238.943 325.977 239.207 326.567 239.672 326.994C240.137 327.421 240.708 327.635 241.386 327.635C242.366 327.635 243.063 327.214 243.478 326.372H246.323C246.021 327.377 245.444 328.206 244.589 328.86C243.735 329.5 242.686 329.82 241.443 329.82C240.438 329.82 239.534 329.601 238.73 329.161C237.938 328.709 237.317 328.074 236.864 327.258C236.425 326.442 236.205 325.5 236.205 324.432C236.205 323.352 236.425 322.403 236.864 321.587C237.304 320.77 237.92 320.142 238.711 319.703C239.502 319.263 240.413 319.043 241.443 319.043C242.435 319.043 243.321 319.257 244.099 319.684C244.891 320.111 245.5 320.72 245.927 321.511C246.367 322.29 246.587 323.188 246.587 324.206ZM243.855 323.452C243.842 322.774 243.597 322.234 243.12 321.832C242.642 321.417 242.058 321.21 241.367 321.21C240.714 321.21 240.162 321.411 239.709 321.813C239.27 322.202 239 322.749 238.899 323.452H243.855ZM260.463 322.906C261.204 323.044 261.813 323.414 262.29 324.017C262.768 324.62 263.006 325.311 263.006 326.09C263.006 326.793 262.83 327.415 262.479 327.955C262.139 328.483 261.643 328.897 260.99 329.199C260.337 329.5 259.565 329.651 258.673 329.651H253.001V316.5H258.428C259.32 316.5 260.086 316.644 260.726 316.933C261.38 317.222 261.869 317.624 262.196 318.139C262.535 318.654 262.705 319.238 262.705 319.891C262.705 320.657 262.497 321.298 262.083 321.813C261.681 322.328 261.141 322.692 260.463 322.906ZM255.639 321.926H258.051C258.679 321.926 259.163 321.788 259.502 321.511C259.841 321.223 260.01 320.814 260.01 320.287C260.01 319.759 259.841 319.351 259.502 319.062C259.163 318.773 258.679 318.629 258.051 318.629H255.639V321.926ZM258.296 327.503C258.936 327.503 259.433 327.352 259.784 327.051C260.149 326.749 260.331 326.322 260.331 325.77C260.331 325.204 260.142 324.765 259.765 324.451C259.389 324.124 258.88 323.961 258.239 323.961H255.639V327.503H258.296ZM267.746 315.708V329.651H265.108V315.708H267.746ZM274.705 327.22L277.343 319.213H280.15L276.287 329.651H273.084L269.241 319.213H272.067L274.705 327.22ZM280.953 324.394C280.953 323.339 281.16 322.403 281.575 321.587C282.002 320.77 282.58 320.142 283.308 319.703C284.037 319.263 284.847 319.043 285.739 319.043C286.417 319.043 287.064 319.194 287.68 319.495C288.295 319.784 288.785 320.174 289.149 320.664V315.708H291.825V329.651H289.149V328.106C288.823 328.621 288.364 329.035 287.774 329.349C287.183 329.663 286.499 329.82 285.72 329.82C284.841 329.82 284.037 329.594 283.308 329.142C282.58 328.69 282.002 328.056 281.575 327.239C281.16 326.41 280.953 325.462 280.953 324.394ZM289.168 324.432C289.168 323.791 289.042 323.245 288.791 322.793C288.54 322.328 288.201 321.976 287.774 321.738C287.347 321.486 286.888 321.361 286.398 321.361C285.908 321.361 285.456 321.48 285.042 321.719C284.627 321.957 284.288 322.309 284.024 322.774C283.773 323.226 283.647 323.766 283.647 324.394C283.647 325.022 283.773 325.575 284.024 326.052C284.288 326.517 284.627 326.875 285.042 327.126C285.469 327.377 285.921 327.503 286.398 327.503C286.888 327.503 287.347 327.384 287.774 327.145C288.201 326.894 288.54 326.542 288.791 326.09C289.042 325.625 289.168 325.072 289.168 324.432Z" fill="#002036"/>
<path opacity="0.75" d="M168.402 297.418V304.847H167.649V298.915L165 304.847H164.451L161.802 298.936V304.847H161.049V297.418H161.846L164.72 303.857L167.595 297.418H168.402ZM170.489 297.86C170.338 297.86 170.209 297.806 170.101 297.698C169.994 297.591 169.94 297.458 169.94 297.3C169.94 297.142 169.994 297.013 170.101 296.912C170.209 296.805 170.338 296.751 170.489 296.751C170.64 296.751 170.769 296.805 170.876 296.912C170.984 297.013 171.038 297.142 171.038 297.3C171.038 297.458 170.984 297.591 170.876 297.698C170.769 297.806 170.64 297.86 170.489 297.86ZM170.866 298.969V304.847H170.112V298.969H170.866ZM172.228 301.897C172.228 301.294 172.346 300.767 172.583 300.314C172.827 299.855 173.161 299.503 173.584 299.259C174.015 299.008 174.5 298.883 175.038 298.883C175.598 298.883 176.079 299.012 176.481 299.27C176.89 299.529 177.184 299.859 177.363 300.261V298.969H178.117V304.847H177.363V303.544C177.177 303.946 176.879 304.28 176.47 304.546C176.068 304.804 175.587 304.933 175.027 304.933C174.496 304.933 174.015 304.808 173.584 304.556C173.161 304.305 172.827 303.95 172.583 303.491C172.346 303.031 172.228 302.5 172.228 301.897ZM177.363 301.908C177.363 301.434 177.266 301.018 177.073 300.659C176.879 300.3 176.613 300.024 176.276 299.83C175.946 299.636 175.58 299.539 175.178 299.539C174.761 299.539 174.388 299.633 174.058 299.819C173.728 300.006 173.466 300.279 173.272 300.637C173.086 300.989 172.992 301.409 172.992 301.897C172.992 302.378 173.086 302.802 173.272 303.168C173.466 303.526 173.728 303.803 174.058 303.997C174.388 304.183 174.761 304.277 175.178 304.277C175.58 304.277 175.946 304.18 176.276 303.986C176.613 303.792 176.879 303.516 177.073 303.157C177.266 302.798 177.363 302.382 177.363 301.908ZM186.836 298.861C187.525 298.861 188.085 299.08 188.515 299.518C188.953 299.948 189.172 300.576 189.172 301.402V304.847H188.429V301.488C188.429 300.849 188.275 300.361 187.966 300.024C187.658 299.686 187.238 299.518 186.707 299.518C186.154 299.518 185.712 299.701 185.382 300.067C185.052 300.433 184.887 300.964 184.887 301.66V304.847H184.144V301.488C184.144 300.849 183.99 300.361 183.681 300.024C183.373 299.686 182.949 299.518 182.411 299.518C181.858 299.518 181.417 299.701 181.086 300.067C180.756 300.433 180.591 300.964 180.591 301.66V304.847H179.838V298.969H180.591V299.981C180.778 299.615 181.043 299.338 181.388 299.152C181.732 298.958 182.116 298.861 182.54 298.861C183.05 298.861 183.495 298.983 183.875 299.227C184.263 299.471 184.543 299.83 184.715 300.304C184.873 299.837 185.142 299.482 185.522 299.238C185.91 298.987 186.348 298.861 186.836 298.861ZM191.223 297.86C191.072 297.86 190.943 297.806 190.835 297.698C190.727 297.591 190.674 297.458 190.674 297.3C190.674 297.142 190.727 297.013 190.835 296.912C190.943 296.805 191.072 296.751 191.223 296.751C191.373 296.751 191.503 296.805 191.61 296.912C191.718 297.013 191.772 297.142 191.772 297.3C191.772 297.458 191.718 297.591 191.61 297.698C191.503 297.806 191.373 297.86 191.223 297.86ZM191.6 298.969V304.847H190.846V298.969H191.6ZM193.995 303.598L192.876 306.419H192.359L193.155 303.598H193.995ZM202.191 297.321V297.946H198.875V300.756H201.675V301.38H198.875V304.847H198.122V297.321H202.191ZM204.185 304.233H206.887V304.847H203.431V297.321H204.185V304.233Z" fill="#4D6372"/>
<defs>
<filter id="filter0_b_9302_19720" x="115.58" y="253.012" width="246.794" height="175.539" filterUnits="userSpaceOnUse" color-interpolation-filters="sRGB">
<feFlood flood-opacity="0" result="BackgroundImageFix"/>
<feGaussianBlur in="BackgroundImageFix" stdDeviation="11.7758"/>
<feComposite in2="SourceAlpha" operator="in" result="effect1_backgroundBlur_9302_19720"/>
<feBlend mode="normal" in="SourceGraphic" in2="effect1_backgroundBlur_9302_19720" result="shape"/>
</filter>
</defs>
</svg>
