<svg width="639" height="602" viewBox="0 0 639 602" fill="none" xmlns="http://www.w3.org/2000/svg">
<mask id="path-1-inside-1_9301_20150" fill="white">
<path d="M328.164 109.247C327.901 87.7559 328.164 108.531 327.901 66.6231C338.737 66.5816 533.662 150.515 542.103 157.335C550.544 164.155 550.875 172.993 552.096 184.161C552.096 188.628 552.311 188.256 552.096 190.068C552.323 192.465 552.311 194.766 552.311 197.104V340.571C552.341 341.539 552.269 342.507 552.096 343.46C551.733 345.066 550.855 346.509 549.598 347.567C548.341 348.626 546.773 349.242 545.134 349.321H543.306H489.818C489.055 349.311 488.293 349.355 487.537 349.453C486.078 349.592 484.694 350.167 483.564 351.103C482.434 352.038 481.609 353.292 481.195 354.703C480.777 356.131 480.777 357.65 481.195 359.078C481.907 362.062 482.264 365.12 482.258 368.188C482.291 374.555 480.643 380.816 477.481 386.335C472.796 394.789 465.012 401.076 455.781 403.86C452.764 404.797 449.635 405.322 446.478 405.418C439.828 405.76 418.887 404.245 413.043 401.043C408.275 398.514 404.119 394.965 400.869 390.647C397.618 386.328 395.353 381.345 394.233 376.051C393.461 372.609 393.191 369.071 393.433 365.551C393.582 363.361 393.917 361.187 394.436 359.054C394.97 357.16 394.751 355.133 393.827 353.397C393.289 352.319 392.49 351.394 391.503 350.707C390.516 350.02 389.373 349.593 388.178 349.465C387.385 349.377 386.588 349.329 385.79 349.321H332.059H330.064C328.189 349.242 326.412 348.459 325.085 347.127C323.758 345.795 322.978 344.011 322.899 342.13C322.899 341.566 322.899 341.003 322.899 340.439V285.382C322.848 284.168 322.508 282.983 321.905 281.929C321.303 280.874 320.456 279.981 319.437 279.324C318.419 278.667 317.257 278.265 316.051 278.154C314.845 278.042 313.63 278.223 312.509 278.682C310.2 279.645 307.799 280.368 305.343 280.84C301.946 281.506 298.475 281.708 295.025 281.439C292.036 281.204 276.972 275.814 275.637 274.07C272.4 269.841 270.108 264.961 268.917 259.763C267.998 255.981 267.711 256.371 268.069 252.494C266.584 244.57 269.744 237.064 274.942 231.063C280.14 225.061 287.107 220.876 294.832 219.112C302.23 217.417 309.967 218.028 317.01 220.862C317.523 221.066 318.061 221.246 318.598 221.402C319.687 221.675 320.824 221.699 321.923 221.472C323.023 221.246 324.058 220.773 324.951 220.091C325.844 219.408 326.573 218.533 327.084 217.53C327.595 216.526 327.874 215.42 327.901 214.294C327.901 213.682 327.901 213.095 327.901 212.46V149.004C327.869 148.033 328.164 147.931 328.164 146.115C328.164 143.633 328.164 149.004 328.164 142.2C328.164 137.902 328.164 143.274 328.164 136.827V119.634V109.247Z"/>
</mask>
<path d="M328.164 109.247C327.901 87.7559 328.164 108.531 327.901 66.6231C338.737 66.5816 533.662 150.515 542.103 157.335C550.544 164.155 550.875 172.993 552.096 184.161C552.096 188.628 552.311 188.256 552.096 190.068C552.323 192.465 552.311 194.766 552.311 197.104V340.571C552.341 341.539 552.269 342.507 552.096 343.46C551.733 345.066 550.855 346.509 549.598 347.567C548.341 348.626 546.773 349.242 545.134 349.321H543.306H489.818C489.055 349.311 488.293 349.355 487.537 349.453C486.078 349.592 484.694 350.167 483.564 351.103C482.434 352.038 481.609 353.292 481.195 354.703C480.777 356.131 480.777 357.65 481.195 359.078C481.907 362.062 482.264 365.12 482.258 368.188C482.291 374.555 480.643 380.816 477.481 386.335C472.796 394.789 465.012 401.076 455.781 403.86C452.764 404.797 449.635 405.322 446.478 405.418C439.828 405.76 418.887 404.245 413.043 401.043C408.275 398.514 404.119 394.965 400.869 390.647C397.618 386.328 395.353 381.345 394.233 376.051C393.461 372.609 393.191 369.071 393.433 365.551C393.582 363.361 393.917 361.187 394.436 359.054C394.97 357.16 394.751 355.133 393.827 353.397C393.289 352.319 392.49 351.394 391.503 350.707C390.516 350.02 389.373 349.593 388.178 349.465C387.385 349.377 386.588 349.329 385.79 349.321H332.059H330.064C328.189 349.242 326.412 348.459 325.085 347.127C323.758 345.795 322.978 344.011 322.899 342.13C322.899 341.566 322.899 341.003 322.899 340.439V285.382C322.848 284.168 322.508 282.983 321.905 281.929C321.303 280.874 320.456 279.981 319.437 279.324C318.419 278.667 317.257 278.265 316.051 278.154C314.845 278.042 313.63 278.223 312.509 278.682C310.2 279.645 307.799 280.368 305.343 280.84C301.946 281.506 298.475 281.708 295.025 281.439C292.036 281.204 276.972 275.814 275.637 274.07C272.4 269.841 270.108 264.961 268.917 259.763C267.998 255.981 267.711 256.371 268.069 252.494C266.584 244.57 269.744 237.064 274.942 231.063C280.14 225.061 287.107 220.876 294.832 219.112C302.23 217.417 309.967 218.028 317.01 220.862C317.523 221.066 318.061 221.246 318.598 221.402C319.687 221.675 320.824 221.699 321.923 221.472C323.023 221.246 324.058 220.773 324.951 220.091C325.844 219.408 326.573 218.533 327.084 217.53C327.595 216.526 327.874 215.42 327.901 214.294C327.901 213.682 327.901 213.095 327.901 212.46V149.004C327.869 148.033 328.164 147.931 328.164 146.115C328.164 143.633 328.164 149.004 328.164 142.2C328.164 137.902 328.164 143.274 328.164 136.827V119.634V109.247Z" fill="#05243A"/>
<mask id="path-3-inside-2_9301_20150" fill="white">
<path d="M418.023 588.124H325.746C324.836 588.154 323.924 588.095 323.026 587.948C321.273 587.581 319.695 586.637 318.542 585.267C317.389 583.898 316.729 582.181 316.665 580.392C316.665 579.964 316.665 579.536 316.665 579.133V511.797C316.632 510.83 316.712 509.862 316.905 508.914C317.149 507.867 317.603 506.88 318.238 506.012C318.873 505.145 319.677 504.414 320.602 503.865C321.526 503.316 322.552 502.959 323.618 502.816C324.684 502.673 325.767 502.747 326.804 503.033C327.421 503.209 328.063 503.461 328.617 503.687C335.484 506.368 342.967 507.057 350.207 505.676C357.447 504.294 364.151 500.899 369.548 495.88C374.874 490.952 378.731 484.645 380.692 477.659C382.652 470.674 382.64 463.281 380.656 456.302C378.673 449.323 374.795 443.029 369.453 438.119C364.112 433.208 357.514 429.872 350.393 428.481C343.026 427.015 335.392 427.733 328.428 430.546C327.229 431.051 325.95 431.336 324.65 431.39C322.583 431.408 320.59 430.62 319.095 429.193C317.599 427.765 316.719 425.812 316.64 423.746C316.64 423.318 316.64 422.89 316.64 422.487C316.64 399.996 316.64 377.504 316.64 355.013C316.617 354.314 316.651 353.615 316.741 352.922C317.006 351.043 317.928 349.319 319.343 348.056C320.759 346.792 322.577 346.071 324.474 346.021C324.952 346.021 325.444 346.021 325.922 346.021H390.669C391.579 346.003 392.49 346.066 393.389 346.21C395.414 346.6 397.209 347.76 398.395 349.447C399.582 351.134 400.067 353.215 399.749 355.252C399.623 355.995 399.447 356.725 399.308 357.456C396.714 370.628 399.875 382.264 408.817 392.238C414.644 398.82 422.594 403.152 431.285 404.479C437.696 405.547 444.272 405.009 450.423 402.911C456.575 400.814 462.109 397.223 466.532 392.46C470.954 387.698 474.125 381.913 475.761 375.623C477.397 369.334 477.447 362.737 475.906 356.423C475.503 354.913 475.503 353.324 475.906 351.814C476.365 350.191 477.327 348.755 478.653 347.712C479.978 346.669 481.601 346.073 483.286 346.009C483.778 346.009 484.256 346.009 484.735 346.009H556.08C556.923 345.989 557.766 346.048 558.599 346.185C560.41 346.508 562.056 347.443 563.26 348.835C564.464 350.227 565.152 351.99 565.21 353.829C565.21 354.156 565.21 354.484 565.21 354.799C565.21 415.993 565.21 477.183 565.21 538.369C565.323 549.706 561.445 560.721 554.254 569.487C546.896 578.787 536.409 585.098 524.745 587.243C521.633 587.843 518.47 588.142 515.3 588.137L418.023 588.124Z"/>
</mask>
<path d="M418.023 588.124H325.746C324.836 588.154 323.924 588.095 323.026 587.948C321.273 587.581 319.695 586.637 318.542 585.267C317.389 583.898 316.729 582.181 316.665 580.392C316.665 579.964 316.665 579.536 316.665 579.133V511.797C316.632 510.83 316.712 509.862 316.905 508.914C317.149 507.867 317.603 506.88 318.238 506.012C318.873 505.145 319.677 504.414 320.602 503.865C321.526 503.316 322.552 502.959 323.618 502.816C324.684 502.673 325.767 502.747 326.804 503.033C327.421 503.209 328.063 503.461 328.617 503.687C335.484 506.368 342.967 507.057 350.207 505.676C357.447 504.294 364.151 500.899 369.548 495.88C374.874 490.952 378.731 484.645 380.692 477.659C382.652 470.674 382.64 463.281 380.656 456.302C378.673 449.323 374.795 443.029 369.453 438.119C364.112 433.208 357.514 429.872 350.393 428.481C343.026 427.015 335.392 427.733 328.428 430.546C327.229 431.051 325.95 431.336 324.65 431.39C322.583 431.408 320.59 430.62 319.095 429.193C317.599 427.765 316.719 425.812 316.64 423.746C316.64 423.318 316.64 422.89 316.64 422.487C316.64 399.996 316.64 377.504 316.64 355.013C316.617 354.314 316.651 353.615 316.741 352.922C317.006 351.043 317.928 349.319 319.343 348.056C320.759 346.792 322.577 346.071 324.474 346.021C324.952 346.021 325.444 346.021 325.922 346.021H390.669C391.579 346.003 392.49 346.066 393.389 346.21C395.414 346.6 397.209 347.76 398.395 349.447C399.582 351.134 400.067 353.215 399.749 355.252C399.623 355.995 399.447 356.725 399.308 357.456C396.714 370.628 399.875 382.264 408.817 392.238C414.644 398.82 422.594 403.152 431.285 404.479C437.696 405.547 444.272 405.009 450.423 402.911C456.575 400.814 462.109 397.223 466.532 392.46C470.954 387.698 474.125 381.913 475.761 375.623C477.397 369.334 477.447 362.737 475.906 356.423C475.503 354.913 475.503 353.324 475.906 351.814C476.365 350.191 477.327 348.755 478.653 347.712C479.978 346.669 481.601 346.073 483.286 346.009C483.778 346.009 484.256 346.009 484.735 346.009H556.08C556.923 345.989 557.766 346.048 558.599 346.185C560.41 346.508 562.056 347.443 563.26 348.835C564.464 350.227 565.152 351.99 565.21 353.829C565.21 354.156 565.21 354.484 565.21 354.799C565.21 415.993 565.21 477.183 565.21 538.369C565.323 549.706 561.445 560.721 554.254 569.487C546.896 578.787 536.409 585.098 524.745 587.243C521.633 587.843 518.47 588.142 515.3 588.137L418.023 588.124Z" fill="#05243A"/>
<mask id="path-5-outside-3_9301_20150" maskUnits="userSpaceOnUse" x="86.8267" y="53.6064" width="244" height="307" fill="black">
<rect fill="white" x="86.8267" y="53.6064" width="244" height="307"/>
<path d="M97.8307 270.007C97.8307 242.674 97.8307 215.338 97.8307 187.998C97.7263 180.239 99.6589 172.588 103.436 165.809C106.613 159.923 111.061 154.818 116.457 150.864C121.853 146.91 312.642 67.8626 319.213 66.6064C319.569 76.6358 319.202 94.187 319.559 106.723V132.154C319.559 139.676 319.559 136.81 319.559 143.258C319.559 148.272 319.503 147.294 319.559 149.156C319.559 149.456 319.559 149.744 319.559 150.044C319.559 170.803 319.559 191.562 319.559 212.32C319.586 213.007 319.543 213.695 319.432 214.373C319.226 215.414 318.797 216.397 318.174 217.255C317.55 218.112 316.748 218.824 315.822 219.341C314.896 219.858 313.868 220.167 312.811 220.247C311.754 220.327 310.691 220.177 309.698 219.805C308.104 219.161 306.476 218.606 304.82 218.144C297.105 216.086 288.924 216.654 281.567 219.759C274.211 222.864 267.432 228.829 264.19 235.294C260.948 241.758 258.934 249.098 259.715 256.444C260.445 263.966 263.528 271.065 268.527 276.733C273.525 282.4 280.184 286.346 287.555 288.01C294.544 289.636 301.861 289.109 308.545 286.499C309.315 286.177 310.109 285.919 310.921 285.726C311.963 285.535 313.034 285.573 314.06 285.839C315.086 286.104 316.041 286.591 316.86 287.264C317.678 287.937 318.339 288.781 318.798 289.737C319.856 291.945 319.513 294.549 319.513 296.918C319.513 317.677 319.513 320.724 319.513 341.483C319.551 342.415 319.45 343.348 319.213 344.251C318.81 345.626 318.009 346.852 316.911 347.773C315.813 348.695 314.467 349.271 313.043 349.429C312.351 349.429 311.67 349.533 310.978 349.533H259.06C258.414 349.533 257.78 349.475 257.145 349.441C256.112 349.352 255.11 349.042 254.207 348.532C253.304 348.022 252.52 347.324 251.91 346.486C251.3 345.647 250.877 344.687 250.67 343.671C250.463 342.654 250.477 341.606 250.71 340.595C251.022 339.096 251.368 337.62 251.552 336.109C252.714 326.935 243.143 317.666 237.666 310.217C232.189 302.767 224.059 297.706 214.957 296.079C205.873 294.444 196.508 296.372 188.809 301.462C181.109 306.552 175.667 314.413 173.612 323.411C172.343 328.791 165.203 334.396 166.518 339.765C166.88 341.044 166.939 342.391 166.691 343.697C166.376 345.203 165.589 346.569 164.444 347.596C163.299 348.622 161.855 349.257 160.325 349.406C159.598 349.406 158.86 349.498 158.122 349.498H106.469C105.731 349.498 104.992 349.498 104.266 349.383C102.716 349.201 101.267 348.521 100.136 347.446C99.0055 346.371 98.2531 344.959 97.9921 343.421C97.8733 342.596 97.8231 341.763 97.8422 340.929L97.8307 270.007Z"/>
</mask>
<path d="M97.8307 270.007C97.8307 242.674 97.8307 215.338 97.8307 187.998C97.7263 180.239 99.6589 172.588 103.436 165.809C106.613 159.923 111.061 154.818 116.457 150.864C121.853 146.91 312.642 67.8626 319.213 66.6064C319.569 76.6358 319.202 94.187 319.559 106.723V132.154C319.559 139.676 319.559 136.81 319.559 143.258C319.559 148.272 319.503 147.294 319.559 149.156C319.559 149.456 319.559 149.744 319.559 150.044C319.559 170.803 319.559 191.562 319.559 212.32C319.586 213.007 319.543 213.695 319.432 214.373C319.226 215.414 318.797 216.397 318.174 217.255C317.55 218.112 316.748 218.824 315.822 219.341C314.896 219.858 313.868 220.167 312.811 220.247C311.754 220.327 310.691 220.177 309.698 219.805C308.104 219.161 306.476 218.606 304.82 218.144C297.105 216.086 288.924 216.654 281.567 219.759C274.211 222.864 267.432 228.829 264.19 235.294C260.948 241.758 258.934 249.098 259.715 256.444C260.445 263.966 263.528 271.065 268.527 276.733C273.525 282.4 280.184 286.346 287.555 288.01C294.544 289.636 301.861 289.109 308.545 286.499C309.315 286.177 310.109 285.919 310.921 285.726C311.963 285.535 313.034 285.573 314.06 285.839C315.086 286.104 316.041 286.591 316.86 287.264C317.678 287.937 318.339 288.781 318.798 289.737C319.856 291.945 319.513 294.549 319.513 296.918C319.513 317.677 319.513 320.724 319.513 341.483C319.551 342.415 319.45 343.348 319.213 344.251C318.81 345.626 318.009 346.852 316.911 347.773C315.813 348.695 314.467 349.271 313.043 349.429C312.351 349.429 311.67 349.533 310.978 349.533H259.06C258.414 349.533 257.78 349.475 257.145 349.441C256.112 349.352 255.11 349.042 254.207 348.532C253.304 348.022 252.52 347.324 251.91 346.486C251.3 345.647 250.877 344.687 250.67 343.671C250.463 342.654 250.477 341.606 250.71 340.595C251.022 339.096 251.368 337.62 251.552 336.109C252.714 326.935 243.143 317.666 237.666 310.217C232.189 302.767 224.059 297.706 214.957 296.079C205.873 294.444 196.508 296.372 188.809 301.462C181.109 306.552 175.667 314.413 173.612 323.411C172.343 328.791 165.203 334.396 166.518 339.765C166.88 341.044 166.939 342.391 166.691 343.697C166.376 345.203 165.589 346.569 164.444 347.596C163.299 348.622 161.855 349.257 160.325 349.406C159.598 349.406 158.86 349.498 158.122 349.498H106.469C105.731 349.498 104.992 349.498 104.266 349.383C102.716 349.201 101.267 348.521 100.136 347.446C99.0055 346.371 98.2531 344.959 97.9921 343.421C97.8733 342.596 97.8231 341.763 97.8422 340.929L97.8307 270.007Z" fill="#05243A"/>
<path fill-rule="evenodd" clip-rule="evenodd" d="M98.1407 529.97L98.1753 365.583C98.1593 364.698 98.2249 363.814 98.3713 362.942C98.6461 361.56 99.3152 360.288 100.298 359.279C101.28 358.27 102.534 357.568 103.907 357.256C104.777 357.091 105.662 357.017 106.548 357.037H167.302C169.166 356.982 170.938 356.222 172.262 354.909C173.585 353.597 174.36 351.83 174.43 349.967C174.412 349.187 174.296 348.412 174.084 347.661C173.359 344.699 173.01 341.657 173.046 338.608C173.183 330.571 175.992 322.808 181.028 316.544C186.065 310.28 193.043 305.87 200.863 304.009C204.067 303.223 207.369 302.904 210.665 303.064C218.51 303.422 226.023 306.333 232.06 311.355C238.097 316.376 242.329 323.233 244.11 330.881C245.397 336.507 245.345 342.357 243.96 347.961C243.649 349.258 243.684 350.614 244.064 351.893C244.512 353.359 245.413 354.645 246.638 355.567C247.862 356.489 249.347 357 250.88 357.025H311.496C312.381 356.992 313.267 357.058 314.137 357.221C315.737 357.556 317.178 358.422 318.224 359.678C319.271 360.934 319.863 362.507 319.903 364.141V426.96C319.874 427.892 319.956 428.825 320.145 429.739C320.391 430.681 320.822 431.565 321.414 432.337C322.006 433.11 322.747 433.756 323.593 434.238C324.439 434.719 325.373 435.026 326.34 435.141C327.307 435.256 328.286 435.176 329.222 434.906C329.696 434.772 330.162 434.61 330.617 434.421C335.511 432.441 340.793 431.605 346.059 431.976C353.07 432.408 359.803 434.874 365.434 439.073C371.065 443.272 375.35 449.022 377.763 455.618C379.004 458.99 379.708 462.535 379.85 466.125C380.051 470.205 379.568 474.29 378.42 478.211C376.005 486.325 370.806 493.328 363.737 497.988C356.669 502.648 348.184 504.665 339.774 503.687C336.453 503.306 333.201 502.468 330.11 501.196C328.72 500.608 327.184 500.461 325.708 500.777C324.233 501.093 322.891 501.855 321.864 502.96C320.709 504.193 320.027 505.794 319.938 507.481V570.6C319.978 571.485 319.909 572.372 319.73 573.241C319.344 574.796 318.458 576.181 317.207 577.183C315.957 578.185 314.413 578.749 312.811 578.788H143.983C136.175 578.857 128.486 576.868 121.69 573.021C116.474 570.172 111.874 566.317 108.156 561.679C104.439 557.041 101.678 551.712 100.032 546C98.9878 542.515 98.3872 538.911 98.2444 535.275C98.1753 533.51 98.1407 531.746 98.1407 529.97ZM89.7223 549.03C88.4289 544.696 87.6847 540.216 87.5072 535.696C87.4325 533.791 87.3951 531.886 87.3951 529.97L87.4297 365.666C87.4092 364.158 87.5243 362.651 87.7739 361.164L87.8007 361.004L87.8324 360.845C88.5123 357.427 90.1678 354.28 92.5985 351.783C95.0293 349.287 98.1312 347.548 101.529 346.777L101.716 346.734L101.905 346.699C103.468 346.402 105.057 346.266 106.647 346.291H162.861C162.458 343.711 162.27 341.098 162.301 338.482L162.301 338.453L162.302 338.424C162.48 328.001 166.122 317.935 172.654 309.811C179.177 301.697 188.213 295.982 198.339 293.564C202.534 292.539 206.856 292.123 211.17 292.33C221.349 292.798 231.097 296.577 238.931 303.093C246.769 309.612 252.263 318.514 254.576 328.443L254.581 328.464L254.586 328.486C255.923 334.336 256.14 340.373 255.241 346.28H311.328C312.933 346.237 314.538 346.364 316.116 346.66L316.227 346.68L316.337 346.704C320.308 347.534 325.856 349.682 328.453 352.799C331.05 355.915 330.544 359.818 330.645 363.873L330.649 364.007V423.037C335.86 421.483 341.32 420.876 346.768 421.254C355.847 421.822 364.565 425.02 371.858 430.459C379.163 435.906 384.721 443.365 387.852 451.921C389.472 456.327 390.394 460.958 390.585 465.648C390.838 470.908 390.212 476.174 388.733 481.229L388.726 481.253L388.719 481.277C385.583 491.814 378.831 500.908 369.651 506.959C360.476 513.008 349.463 515.629 338.547 514.362C335.882 514.056 333.252 513.523 330.683 512.771V570.397C330.738 572.076 330.594 573.756 330.256 575.402L330.212 575.617L330.159 575.831C329.205 579.671 327.016 583.092 323.929 585.567C320.841 588.042 317.026 589.435 313.07 589.53L312.94 589.533H144.03C134.378 589.611 124.874 587.155 116.467 582.413C110.034 578.886 104.36 574.124 99.7719 568.399C95.1781 562.668 91.7629 556.086 89.7223 549.03Z" fill="#002036"/>
<path opacity="0.75" d="M98.1744 450.923V365.581C98.1584 364.697 98.224 363.813 98.3704 362.94C98.6452 361.559 99.3143 360.287 100.297 359.278C101.279 358.269 102.533 357.566 103.906 357.255C104.776 357.09 105.662 357.016 106.547 357.035H165.687C166.229 357.035 166.771 357.035 167.301 357.035C169.165 356.981 170.938 356.221 172.261 354.908C173.584 353.595 174.359 351.829 174.429 349.966C174.411 349.186 174.295 348.41 174.083 347.659C173.358 344.697 173.009 341.656 173.045 338.606C173.182 330.569 175.991 322.807 181.027 316.543C186.064 310.278 193.042 305.868 200.862 304.008C204.067 303.222 207.368 302.903 210.664 303.062C218.509 303.421 226.022 306.332 232.059 311.353C238.096 316.375 242.328 323.231 244.109 330.879C245.396 336.506 245.344 342.356 243.959 347.959C243.648 349.256 243.684 350.613 244.063 351.892C244.511 353.358 245.412 354.644 246.637 355.566C247.861 356.488 249.346 356.998 250.879 357.024H311.495C312.38 356.991 313.266 357.057 314.136 357.22C315.736 357.555 317.177 358.42 318.223 359.676C319.27 360.932 319.862 362.505 319.902 364.14C319.902 364.728 319.902 365.293 319.902 365.904V426.958C319.874 427.891 319.955 428.824 320.145 429.738C320.39 430.68 320.821 431.563 321.413 432.336C322.006 433.108 322.746 433.755 323.592 434.236C324.438 434.718 325.372 435.025 326.339 435.14C327.306 435.255 328.286 435.174 329.221 434.904C329.695 434.771 330.161 434.609 330.616 434.42C335.51 432.44 340.792 431.604 346.059 431.975C353.069 432.406 359.803 434.873 365.433 439.072C371.064 443.271 375.349 449.021 377.762 455.617C379.003 458.989 379.707 462.534 379.849 466.123C380.05 470.204 379.567 474.289 378.419 478.21C376.004 486.324 370.805 493.327 363.736 497.987C356.668 502.646 348.183 504.664 339.773 503.685C336.452 503.305 333.2 502.466 330.109 501.194C328.72 500.606 327.183 500.46 325.707 500.776C324.232 501.091 322.89 501.854 321.863 502.959C320.708 504.192 320.026 505.793 319.937 507.48C319.937 508.068 319.937 508.633 319.937 509.244V570.598C319.977 571.484 319.908 572.371 319.729 573.239C319.343 574.794 318.457 576.18 317.207 577.182C315.956 578.184 314.412 578.748 312.81 578.786H143.982C136.174 578.856 128.485 576.867 121.69 573.02C116.473 570.171 111.873 566.316 108.156 561.678C104.438 557.04 101.677 551.711 100.031 545.999C98.9869 542.513 98.3863 538.91 98.2436 535.274C98.1744 533.509 98.1398 531.745 98.1398 529.968L98.1744 450.923Z" fill="#0D6EFD"/>
<path d="M356.778 15.4376L598.418 129.185C608.11 133.747 604.859 148.288 594.147 148.288H588.289C582.602 148.288 576.978 147.1 571.777 144.801L342.875 43.5939C330.83 38.2685 317.11 38.208 305.019 43.4268L69.8197 144.945C64.7101 147.15 59.2035 148.288 53.6381 148.288H46.0099C35.2386 148.288 32.0418 133.622 41.836 129.14L291.025 15.0852C311.926 5.51863 335.981 5.64753 356.778 15.4376Z" fill="#05243A" stroke="#002036" stroke-width="0.716368"/>
<g filter="url(#filter0_b_9301_20150)">
<path d="M234.999 411L257.551 415.51C258.861 415.772 260.194 415.904 261.53 415.904H511.469C522.674 415.904 531.758 424.988 531.758 436.193V581.579C531.758 592.784 522.674 601.868 511.469 601.868H260.192C248.987 601.868 239.904 592.784 239.904 581.579V438.663C239.904 437.389 239.784 436.118 239.545 434.867L234.999 411Z" fill="#052034" fill-opacity="0.25"/>
<path d="M240.037 434.773L235.629 411.636L257.453 416.001C258.796 416.269 260.161 416.404 261.53 416.404H511.469C522.398 416.404 531.258 425.264 531.258 436.193V581.579C531.258 592.508 522.398 601.368 511.469 601.368H260.192C249.263 601.368 240.404 592.508 240.404 581.579V438.663C240.404 437.358 240.281 436.055 240.037 434.773Z" stroke="#0D6EFD" stroke-opacity="0.5"/>
</g>
<path opacity="0.75" d="M376.16 532.639L372.576 539.471V543.823H371.456V539.471L367.84 532.639H369.104L372.016 538.447L374.912 532.639H376.16ZM378.36 533.439C378.136 533.439 377.944 533.359 377.784 533.199C377.624 533.039 377.544 532.842 377.544 532.607C377.544 532.373 377.624 532.181 377.784 532.031C377.944 531.871 378.136 531.791 378.36 531.791C378.584 531.791 378.776 531.871 378.936 532.031C379.096 532.181 379.176 532.373 379.176 532.607C379.176 532.842 379.096 533.039 378.936 533.199C378.776 533.359 378.584 533.439 378.36 533.439ZM378.92 535.087V543.823H377.8V535.087H378.92ZM389.36 539.007C389.36 539.391 389.349 539.685 389.328 539.887H382.08C382.112 540.549 382.272 541.114 382.56 541.583C382.848 542.053 383.226 542.41 383.696 542.655C384.165 542.89 384.677 543.007 385.232 543.007C385.957 543.007 386.565 542.831 387.056 542.479C387.557 542.127 387.888 541.653 388.048 541.055H389.232C389.018 541.909 388.56 542.607 387.856 543.151C387.162 543.685 386.288 543.951 385.232 543.951C384.41 543.951 383.674 543.77 383.024 543.407C382.373 543.034 381.861 542.511 381.488 541.839C381.125 541.157 380.944 540.362 380.944 539.455C380.944 538.549 381.125 537.754 381.488 537.071C381.85 536.389 382.357 535.866 383.008 535.503C383.658 535.141 384.4 534.959 385.232 534.959C386.064 534.959 386.789 535.141 387.408 535.503C388.037 535.866 388.517 536.357 388.848 536.975C389.189 537.583 389.36 538.261 389.36 539.007ZM388.224 538.975C388.234 538.325 388.101 537.77 387.824 537.311C387.557 536.853 387.189 536.506 386.72 536.271C386.25 536.037 385.738 535.919 385.184 535.919C384.352 535.919 383.642 536.186 383.056 536.719C382.469 537.253 382.144 538.005 382.08 538.975H388.224ZM392.529 531.983V543.823H391.409V531.983H392.529ZM394.553 539.439C394.553 538.543 394.734 537.759 395.097 537.087C395.46 536.405 395.956 535.882 396.585 535.519C397.225 535.146 397.945 534.959 398.745 534.959C399.513 534.959 400.206 535.146 400.825 535.519C401.444 535.893 401.897 536.378 402.185 536.975V531.983H403.305V543.823H402.185V541.871C401.918 542.479 401.481 542.981 400.873 543.375C400.265 543.759 399.55 543.951 398.729 543.951C397.929 543.951 397.209 543.765 396.569 543.391C395.94 543.018 395.444 542.49 395.081 541.807C394.729 541.125 394.553 540.335 394.553 539.439ZM402.185 539.455C402.185 538.751 402.041 538.133 401.753 537.599C401.465 537.066 401.07 536.655 400.569 536.367C400.078 536.079 399.534 535.935 398.937 535.935C398.318 535.935 397.764 536.074 397.273 536.351C396.782 536.629 396.393 537.034 396.105 537.567C395.828 538.09 395.689 538.714 395.689 539.439C395.689 540.154 395.828 540.783 396.105 541.327C396.393 541.861 396.782 542.271 397.273 542.559C397.764 542.837 398.318 542.975 398.937 542.975C399.534 542.975 400.078 542.831 400.569 542.543C401.07 542.255 401.465 541.845 401.753 541.311C402.041 540.778 402.185 540.159 402.185 539.455Z" fill="#CCD2D7"/>
<path d="M368.496 566.023V562.411H375.244V582.823H371.212V566.023H368.496ZM380.349 578.399C382.141 576.906 383.569 575.665 384.633 574.675C385.697 573.667 386.583 572.622 387.293 571.539C388.002 570.457 388.357 569.393 388.357 568.347C388.357 567.395 388.133 566.649 387.685 566.107C387.237 565.566 386.546 565.295 385.613 565.295C384.679 565.295 383.961 565.613 383.457 566.247C382.953 566.863 382.691 567.713 382.673 568.795H378.865C378.939 566.555 379.602 564.857 380.853 563.699C382.122 562.542 383.727 561.963 385.669 561.963C387.797 561.963 389.43 562.533 390.569 563.671C391.707 564.791 392.277 566.275 392.277 568.123C392.277 569.579 391.885 570.97 391.101 572.295C390.317 573.621 389.421 574.778 388.413 575.767C387.405 576.738 386.089 577.914 384.465 579.295H392.725V582.543H378.893V579.631L380.349 578.399ZM397.379 583.019C396.67 583.019 396.082 582.805 395.615 582.375C395.167 581.927 394.943 581.377 394.943 580.723C394.943 580.07 395.167 579.529 395.615 579.099C396.082 578.651 396.67 578.427 397.379 578.427C398.07 578.427 398.639 578.651 399.087 579.099C399.535 579.529 399.759 580.07 399.759 580.723C399.759 581.377 399.535 581.927 399.087 582.375C398.639 582.805 398.07 583.019 397.379 583.019ZM416.188 565.799H407.116V570.587C407.508 570.102 408.068 569.71 408.796 569.411C409.524 569.094 410.299 568.935 411.12 568.935C412.614 568.935 413.836 569.262 414.788 569.915C415.74 570.569 416.431 571.409 416.86 572.435C417.29 573.443 417.504 574.526 417.504 575.683C417.504 577.83 416.888 579.557 415.656 580.863C414.443 582.17 412.707 582.823 410.448 582.823C408.32 582.823 406.622 582.291 405.352 581.227C404.083 580.163 403.364 578.773 403.196 577.055H407.004C407.172 577.802 407.546 578.399 408.124 578.847C408.722 579.295 409.478 579.519 410.392 579.519C411.494 579.519 412.324 579.174 412.884 578.483C413.444 577.793 413.724 576.878 413.724 575.739C413.724 574.582 413.435 573.705 412.856 573.107C412.296 572.491 411.466 572.183 410.364 572.183C409.58 572.183 408.927 572.379 408.404 572.771C407.882 573.163 407.508 573.686 407.284 574.339H403.532V562.355H416.188V565.799ZM420.04 567.423C420.04 566.005 420.451 564.894 421.272 564.091C422.112 563.289 423.185 562.887 424.492 562.887C425.799 562.887 426.863 563.289 427.684 564.091C428.524 564.894 428.944 566.005 428.944 567.423C428.944 568.861 428.524 569.981 427.684 570.783C426.863 571.586 425.799 571.987 424.492 571.987C423.185 571.987 422.112 571.586 421.272 570.783C420.451 569.981 420.04 568.861 420.04 567.423ZM438.016 563.223L427.012 582.823H423.204L434.18 563.223H438.016ZM424.464 565.239C423.437 565.239 422.924 565.967 422.924 567.423C422.924 568.898 423.437 569.635 424.464 569.635C424.968 569.635 425.36 569.458 425.64 569.103C425.92 568.73 426.06 568.17 426.06 567.423C426.06 565.967 425.528 565.239 424.464 565.239ZM432.332 578.595C432.332 577.158 432.743 576.047 433.564 575.263C434.404 574.461 435.477 574.059 436.784 574.059C438.091 574.059 439.145 574.461 439.948 575.263C440.769 576.047 441.18 577.158 441.18 578.595C441.18 580.033 440.769 581.153 439.948 581.955C439.145 582.758 438.091 583.159 436.784 583.159C435.459 583.159 434.385 582.758 433.564 581.955C432.743 581.153 432.332 580.033 432.332 578.595ZM436.756 576.411C435.692 576.411 435.16 577.139 435.16 578.595C435.16 580.07 435.692 580.807 436.756 580.807C437.801 580.807 438.324 580.07 438.324 578.595C438.324 577.139 437.801 576.411 436.756 576.411Z" fill="#0D6EFD"/>
<path opacity="0.75" d="M268.84 532.014V539.054C268.84 540.164 269.102 540.985 269.624 541.518C270.158 542.052 270.883 542.318 271.8 542.318C272.718 542.318 273.432 542.057 273.944 541.534C274.467 541.001 274.728 540.174 274.728 539.054V532.014H275.848V539.038C275.848 540.457 275.47 541.524 274.712 542.238C273.966 542.953 272.99 543.31 271.784 543.31C270.579 543.31 269.598 542.953 268.84 542.238C268.094 541.524 267.72 540.457 267.72 539.038V532.014H268.84ZM282.442 534.302C283.488 534.302 284.341 534.628 285.002 535.278C285.664 535.918 285.994 536.852 285.994 538.078V543.198H284.89V538.206C284.89 537.257 284.65 536.532 284.17 536.03C283.701 535.529 283.056 535.278 282.234 535.278C281.392 535.278 280.72 535.545 280.218 536.078C279.717 536.612 279.466 537.396 279.466 538.43V543.198H278.346V534.462H279.466V535.95C279.744 535.417 280.144 535.012 280.666 534.734C281.189 534.446 281.781 534.302 282.442 534.302ZM289.031 532.814C288.807 532.814 288.615 532.734 288.455 532.574C288.295 532.414 288.215 532.217 288.215 531.982C288.215 531.748 288.295 531.556 288.455 531.406C288.615 531.246 288.807 531.166 289.031 531.166C289.255 531.166 289.447 531.246 289.607 531.406C289.767 531.556 289.847 531.748 289.847 531.982C289.847 532.217 289.767 532.414 289.607 532.574C289.447 532.734 289.255 532.814 289.031 532.814ZM289.591 534.462V543.198H288.471V534.462H289.591ZM293.584 535.406V540.83C293.584 541.364 293.685 541.732 293.888 541.934C294.09 542.137 294.448 542.238 294.96 542.238H295.984V543.198H294.784C293.994 543.198 293.408 543.017 293.024 542.654C292.64 542.281 292.448 541.673 292.448 540.83V535.406H291.232V534.462H292.448V532.27H293.584V534.462H295.984V535.406H293.584ZM303.325 536.382C303.603 535.796 304.04 535.31 304.637 534.926C305.245 534.532 305.965 534.334 306.797 534.334C307.587 534.334 308.296 534.521 308.925 534.894C309.565 535.257 310.061 535.78 310.413 536.462C310.776 537.134 310.957 537.918 310.957 538.814C310.957 539.71 310.776 540.5 310.413 541.182C310.061 541.865 309.565 542.393 308.925 542.766C308.296 543.14 307.587 543.326 306.797 543.326C305.976 543.326 305.261 543.134 304.653 542.75C304.045 542.356 303.603 541.865 303.325 541.278V547.326H302.221V534.462H303.325V536.382ZM309.821 538.814C309.821 538.089 309.677 537.465 309.389 536.942C309.112 536.409 308.728 536.004 308.237 535.726C307.747 535.449 307.192 535.31 306.573 535.31C305.976 535.31 305.427 535.454 304.925 535.742C304.435 536.03 304.045 536.441 303.757 536.974C303.469 537.508 303.325 538.126 303.325 538.83C303.325 539.534 303.469 540.153 303.757 540.686C304.045 541.22 304.435 541.63 304.925 541.918C305.427 542.206 305.976 542.35 306.573 542.35C307.192 542.35 307.747 542.212 308.237 541.934C308.728 541.646 309.112 541.236 309.389 540.702C309.677 540.158 309.821 539.529 309.821 538.814ZM314.138 536.014C314.384 535.47 314.757 535.049 315.258 534.75C315.77 534.452 316.394 534.302 317.13 534.302V535.47H316.826C316.016 535.47 315.365 535.689 314.874 536.126C314.384 536.564 314.138 537.294 314.138 538.318V543.198H313.018V534.462H314.138V536.014ZM319.375 532.814C319.151 532.814 318.959 532.734 318.799 532.574C318.639 532.414 318.559 532.217 318.559 531.982C318.559 531.748 318.639 531.556 318.799 531.406C318.959 531.246 319.151 531.166 319.375 531.166C319.599 531.166 319.791 531.246 319.951 531.406C320.111 531.556 320.191 531.748 320.191 531.982C320.191 532.217 320.111 532.414 319.951 532.574C319.791 532.734 319.599 532.814 319.375 532.814ZM319.935 534.462V543.198H318.815V534.462H319.935ZM321.959 538.83C321.959 537.924 322.141 537.134 322.503 536.462C322.866 535.78 323.367 535.257 324.007 534.894C324.647 534.521 325.378 534.334 326.199 534.334C327.277 534.334 328.162 534.601 328.855 535.134C329.559 535.668 330.013 536.393 330.215 537.31H329.015C328.866 536.681 328.541 536.19 328.039 535.838C327.549 535.476 326.935 535.294 326.199 535.294C325.613 535.294 325.085 535.428 324.615 535.694C324.146 535.961 323.773 536.361 323.495 536.894C323.229 537.417 323.095 538.062 323.095 538.83C323.095 539.598 323.229 540.249 323.495 540.782C323.773 541.316 324.146 541.716 324.615 541.982C325.085 542.249 325.613 542.382 326.199 542.382C326.935 542.382 327.549 542.206 328.039 541.854C328.541 541.492 328.866 540.99 329.015 540.35H330.215C330.013 541.246 329.559 541.966 328.855 542.51C328.151 543.054 327.266 543.326 326.199 543.326C325.378 543.326 324.647 543.145 324.007 542.782C323.367 542.409 322.866 541.886 322.503 541.214C322.141 540.532 321.959 539.737 321.959 538.83ZM340.188 538.382C340.188 538.766 340.177 539.06 340.156 539.262H332.908C332.94 539.924 333.1 540.489 333.388 540.958C333.676 541.428 334.055 541.785 334.524 542.03C334.993 542.265 335.505 542.382 336.06 542.382C336.785 542.382 337.393 542.206 337.884 541.854C338.385 541.502 338.716 541.028 338.876 540.43H340.06C339.847 541.284 339.388 541.982 338.684 542.526C337.991 543.06 337.116 543.326 336.06 543.326C335.239 543.326 334.503 543.145 333.852 542.782C333.201 542.409 332.689 541.886 332.316 541.214C331.953 540.532 331.772 539.737 331.772 538.83C331.772 537.924 331.953 537.129 332.316 536.446C332.679 535.764 333.185 535.241 333.836 534.878C334.487 534.516 335.228 534.334 336.06 534.334C336.892 534.334 337.617 534.516 338.236 534.878C338.865 535.241 339.345 535.732 339.676 536.35C340.017 536.958 340.188 537.636 340.188 538.382ZM339.052 538.35C339.063 537.7 338.929 537.145 338.652 536.686C338.385 536.228 338.017 535.881 337.548 535.646C337.079 535.412 336.567 535.294 336.012 535.294C335.18 535.294 334.471 535.561 333.884 536.094C333.297 536.628 332.972 537.38 332.908 538.35H339.052Z" fill="#CCD2D7"/>
<path d="M281.16 570.71C281.16 572.316 280.647 573.641 279.62 574.686C278.594 575.713 277.222 576.329 275.504 576.534V578.998H273.628V576.562C272.06 576.45 270.716 576.012 269.596 575.246C268.476 574.481 267.674 573.445 267.188 572.138L270.52 570.206C271.118 571.718 272.154 572.568 273.628 572.754V567.91H273.6L273.544 567.882C272.406 567.472 271.388 566.986 270.492 566.426C268.98 565.474 268.168 563.962 268.056 561.89C268.056 560.229 268.588 558.913 269.652 557.942C270.772 556.934 272.098 556.365 273.628 556.234V553.798H275.504V556.29C278.043 556.608 279.835 557.924 280.88 560.238L277.632 562.142C277.184 561.022 276.475 560.341 275.504 560.098V564.774C277.315 565.502 278.482 566.053 279.004 566.426C280.442 567.472 281.16 568.9 281.16 570.71ZM271.892 561.918C271.892 562.329 272.023 562.693 272.284 563.01C272.546 563.309 272.994 563.617 273.628 563.934V560.014C272.471 560.238 271.892 560.873 271.892 561.918ZM275.504 568.666V572.698C276.699 572.456 277.296 571.802 277.296 570.738C277.296 569.898 276.699 569.208 275.504 568.666ZM282.163 558.418L287.315 556.598H290.675V576.198H286.811V560.686L283.115 561.722L282.163 558.418ZM301.504 576.59C299.058 576.59 297.136 575.666 295.736 573.818C294.354 571.933 293.664 569.46 293.664 566.398C293.664 563.337 294.354 560.873 295.736 559.006C297.136 557.14 299.058 556.206 301.504 556.206C303.986 556.206 305.909 557.14 307.272 559.006C308.653 560.873 309.344 563.337 309.344 566.398C309.344 569.46 308.653 571.933 307.272 573.818C305.909 575.666 303.986 576.59 301.504 576.59ZM305.508 566.398C305.508 564.308 305.162 562.712 304.472 561.61C303.8 560.509 302.81 559.958 301.504 559.958C300.197 559.958 299.208 560.509 298.536 561.61C297.864 562.712 297.528 564.308 297.528 566.398C297.528 568.489 297.864 570.085 298.536 571.186C299.208 572.269 300.197 572.81 301.504 572.81C302.81 572.81 303.8 572.26 304.472 571.158C305.162 570.057 305.508 568.47 305.508 566.398ZM319.14 576.59C316.695 576.59 314.772 575.666 313.372 573.818C311.991 571.933 311.3 569.46 311.3 566.398C311.3 563.337 311.991 560.873 313.372 559.006C314.772 557.14 316.695 556.206 319.14 556.206C321.623 556.206 323.546 557.14 324.908 559.006C326.29 560.873 326.98 563.337 326.98 566.398C326.98 569.46 326.29 571.933 324.908 573.818C323.546 575.666 321.623 576.59 319.14 576.59ZM323.144 566.398C323.144 564.308 322.799 562.712 322.108 561.61C321.436 560.509 320.447 559.958 319.14 559.958C317.834 559.958 316.844 560.509 316.172 561.61C315.5 562.712 315.164 564.308 315.164 566.398C315.164 568.489 315.5 570.085 316.172 571.186C316.844 572.269 317.834 572.81 319.14 572.81C320.447 572.81 321.436 572.26 322.108 571.158C322.799 570.057 323.144 568.47 323.144 566.398Z" fill="#0D6EFD"/>
<path opacity="0.15" fill-rule="evenodd" clip-rule="evenodd" d="M266.006 510.698C266.006 510.422 266.224 510.198 266.493 510.198H503.519C503.788 510.198 504.006 510.422 504.006 510.698C504.006 510.974 503.788 511.198 503.519 511.198H266.493C266.224 511.198 266.006 510.974 266.006 510.698Z" fill="#99A6AF" stroke="#0D6EFD" stroke-opacity="0.5" stroke-linecap="round"/>
<path d="M279.025 480.174C280.127 480.38 281.032 480.93 281.741 481.826C282.451 482.722 282.805 483.749 282.805 484.906C282.805 485.952 282.544 486.876 282.021 487.678C281.517 488.462 280.78 489.078 279.809 489.526C278.839 489.974 277.691 490.198 276.365 490.198H267.937V470.654H276.001C277.327 470.654 278.465 470.869 279.417 471.298C280.388 471.728 281.116 472.325 281.601 473.09C282.105 473.856 282.357 474.724 282.357 475.694C282.357 476.833 282.049 477.785 281.433 478.55C280.836 479.316 280.033 479.857 279.025 480.174ZM271.857 478.718H275.441C276.375 478.718 277.093 478.513 277.597 478.102C278.101 477.673 278.353 477.066 278.353 476.282C278.353 475.498 278.101 474.892 277.597 474.462C277.093 474.033 276.375 473.818 275.441 473.818H271.857V478.718ZM275.805 487.006C276.757 487.006 277.495 486.782 278.017 486.334C278.559 485.886 278.829 485.252 278.829 484.43C278.829 483.59 278.549 482.937 277.989 482.47C277.429 481.985 276.673 481.742 275.721 481.742H271.857V487.006H275.805ZM287.918 472.838C287.227 472.838 286.648 472.624 286.182 472.194C285.734 471.746 285.51 471.196 285.51 470.542C285.51 469.889 285.734 469.348 286.182 468.918C286.648 468.47 287.227 468.246 287.918 468.246C288.608 468.246 289.178 468.47 289.626 468.918C290.092 469.348 290.326 469.889 290.326 470.542C290.326 471.196 290.092 471.746 289.626 472.194C289.178 472.624 288.608 472.838 287.918 472.838ZM289.85 474.686V490.198H285.93V474.686H289.85ZM299.659 490.45C298.389 490.45 297.251 490.226 296.243 489.778C295.235 489.312 294.432 488.686 293.835 487.902C293.256 487.118 292.939 486.25 292.883 485.298H296.831C296.905 485.896 297.195 486.39 297.699 486.782C298.221 487.174 298.865 487.37 299.631 487.37C300.377 487.37 300.956 487.221 301.367 486.922C301.796 486.624 302.011 486.241 302.011 485.774C302.011 485.27 301.749 484.897 301.227 484.654C300.723 484.393 299.911 484.113 298.791 483.814C297.633 483.534 296.681 483.245 295.935 482.946C295.207 482.648 294.572 482.19 294.031 481.574C293.508 480.958 293.247 480.128 293.247 479.082C293.247 478.224 293.489 477.44 293.975 476.73C294.479 476.021 295.188 475.461 296.103 475.05C297.036 474.64 298.128 474.434 299.379 474.434C301.227 474.434 302.701 474.901 303.803 475.834C304.904 476.749 305.511 477.99 305.623 479.558H301.871C301.815 478.942 301.553 478.457 301.087 478.102C300.639 477.729 300.032 477.542 299.267 477.542C298.557 477.542 298.007 477.673 297.615 477.934C297.241 478.196 297.055 478.56 297.055 479.026C297.055 479.549 297.316 479.95 297.839 480.23C298.361 480.492 299.173 480.762 300.275 481.042C301.395 481.322 302.319 481.612 303.047 481.91C303.775 482.209 304.4 482.676 304.923 483.31C305.464 483.926 305.744 484.748 305.763 485.774C305.763 486.67 305.511 487.473 305.007 488.182C304.521 488.892 303.812 489.452 302.879 489.862C301.964 490.254 300.891 490.45 299.659 490.45ZM307.972 482.442C307.972 480.837 308.299 479.437 308.952 478.242C309.606 477.029 310.511 476.096 311.668 475.442C312.826 474.77 314.151 474.434 315.644 474.434C317.567 474.434 319.154 474.92 320.404 475.89C321.674 476.842 322.523 478.186 322.952 479.922H318.724C318.5 479.25 318.118 478.728 317.576 478.354C317.054 477.962 316.4 477.766 315.616 477.766C314.496 477.766 313.61 478.177 312.956 478.998C312.303 479.801 311.976 480.949 311.976 482.442C311.976 483.917 312.303 485.065 312.956 485.886C313.61 486.689 314.496 487.09 315.616 487.09C317.203 487.09 318.239 486.381 318.724 484.962H322.952C322.523 486.642 321.674 487.977 320.404 488.966C319.135 489.956 317.548 490.45 315.644 490.45C314.151 490.45 312.826 490.124 311.668 489.47C310.511 488.798 309.606 487.865 308.952 486.67C308.299 485.457 307.972 484.048 307.972 482.442ZM324.816 482.386C324.816 480.818 325.124 479.428 325.74 478.214C326.375 477.001 327.224 476.068 328.288 475.414C329.371 474.761 330.575 474.434 331.9 474.434C333.057 474.434 334.065 474.668 334.924 475.134C335.801 475.601 336.501 476.189 337.024 476.898V474.686H340.972V490.198H337.024V487.93C336.52 488.658 335.82 489.265 334.924 489.75C334.047 490.217 333.029 490.45 331.872 490.45C330.565 490.45 329.371 490.114 328.288 489.442C327.224 488.77 326.375 487.828 325.74 486.614C325.124 485.382 324.816 483.973 324.816 482.386ZM337.024 482.442C337.024 481.49 336.837 480.678 336.464 480.006C336.091 479.316 335.587 478.793 334.952 478.438C334.317 478.065 333.636 477.878 332.908 477.878C332.18 477.878 331.508 478.056 330.892 478.41C330.276 478.765 329.772 479.288 329.38 479.978C329.007 480.65 328.82 481.453 328.82 482.386C328.82 483.32 329.007 484.141 329.38 484.85C329.772 485.541 330.276 486.073 330.892 486.446C331.527 486.82 332.199 487.006 332.908 487.006C333.636 487.006 334.317 486.829 334.952 486.474C335.587 486.101 336.091 485.578 336.464 484.906C336.837 484.216 337.024 483.394 337.024 482.442ZM359.641 474.686L350.037 497.534H345.865L349.225 489.806L343.009 474.686H347.405L351.409 485.522L355.469 474.686H359.641ZM370.35 474.462C372.198 474.462 373.691 475.05 374.83 476.226C375.969 477.384 376.538 479.008 376.538 481.098V490.198H372.618V481.63C372.618 480.398 372.31 479.456 371.694 478.802C371.078 478.13 370.238 477.794 369.174 477.794C368.091 477.794 367.233 478.13 366.598 478.802C365.982 479.456 365.674 480.398 365.674 481.63V490.198H361.754V474.686H365.674V476.618C366.197 475.946 366.859 475.424 367.662 475.05C368.483 474.658 369.379 474.462 370.35 474.462ZM394.686 482.106C394.686 482.666 394.648 483.17 394.574 483.618H383.234C383.327 484.738 383.719 485.616 384.41 486.25C385.1 486.885 385.95 487.202 386.958 487.202C388.414 487.202 389.45 486.577 390.066 485.326H394.294C393.846 486.82 392.987 488.052 391.718 489.022C390.448 489.974 388.89 490.45 387.042 490.45C385.548 490.45 384.204 490.124 383.01 489.47C381.834 488.798 380.91 487.856 380.238 486.642C379.584 485.429 379.258 484.029 379.258 482.442C379.258 480.837 379.584 479.428 380.238 478.214C380.891 477.001 381.806 476.068 382.982 475.414C384.158 474.761 385.511 474.434 387.042 474.434C388.516 474.434 389.832 474.752 390.99 475.386C392.166 476.021 393.071 476.926 393.706 478.102C394.359 479.26 394.686 480.594 394.686 482.106ZM390.626 480.986C390.607 479.978 390.243 479.176 389.534 478.578C388.824 477.962 387.956 477.654 386.93 477.654C385.959 477.654 385.138 477.953 384.466 478.55C383.812 479.129 383.411 479.941 383.262 480.986H390.626ZM415.307 480.174C416.408 480.38 417.313 480.93 418.023 481.826C418.732 482.722 419.087 483.749 419.087 484.906C419.087 485.952 418.825 486.876 418.303 487.678C417.799 488.462 417.061 489.078 416.091 489.526C415.12 489.974 413.972 490.198 412.647 490.198H404.219V470.654H412.283C413.608 470.654 414.747 470.869 415.699 471.298C416.669 471.728 417.397 472.325 417.883 473.09C418.387 473.856 418.639 474.724 418.639 475.694C418.639 476.833 418.331 477.785 417.715 478.55C417.117 479.316 416.315 479.857 415.307 480.174ZM408.139 478.718H411.723C412.656 478.718 413.375 478.513 413.879 478.102C414.383 477.673 414.635 477.066 414.635 476.282C414.635 475.498 414.383 474.892 413.879 474.462C413.375 474.033 412.656 473.818 411.723 473.818H408.139V478.718ZM412.087 487.006C413.039 487.006 413.776 486.782 414.299 486.334C414.84 485.886 415.111 485.252 415.111 484.43C415.111 483.59 414.831 482.937 414.271 482.47C413.711 481.985 412.955 481.742 412.003 481.742H408.139V487.006H412.087ZM426.131 469.478V490.198H422.211V469.478H426.131ZM436.472 486.586L440.392 474.686H444.564L438.824 490.198H434.064L428.352 474.686H432.552L436.472 486.586ZM445.758 482.386C445.758 480.818 446.066 479.428 446.682 478.214C447.316 477.001 448.175 476.068 449.258 475.414C450.34 474.761 451.544 474.434 452.87 474.434C453.878 474.434 454.839 474.658 455.754 475.106C456.668 475.536 457.396 476.114 457.938 476.842V469.478H461.914V490.198H457.938V487.902C457.452 488.668 456.771 489.284 455.894 489.75C455.016 490.217 453.999 490.45 452.842 490.45C451.535 490.45 450.34 490.114 449.258 489.442C448.175 488.77 447.316 487.828 446.682 486.614C446.066 485.382 445.758 483.973 445.758 482.386ZM457.966 482.442C457.966 481.49 457.779 480.678 457.406 480.006C457.032 479.316 456.528 478.793 455.894 478.438C455.259 478.065 454.578 477.878 453.85 477.878C453.122 477.878 452.45 478.056 451.834 478.41C451.218 478.765 450.714 479.288 450.322 479.978C449.948 480.65 449.762 481.453 449.762 482.386C449.762 483.32 449.948 484.141 450.322 484.85C450.714 485.541 451.218 486.073 451.834 486.446C452.468 486.82 453.14 487.006 453.85 487.006C454.578 487.006 455.259 486.829 455.894 486.474C456.528 486.101 457.032 485.578 457.406 484.906C457.779 484.216 457.966 483.394 457.966 482.442Z" fill="#FCFDFD"/>
<g opacity="0.75">
<path d="M278.497 442.158V453.198H277.377V444.382L273.441 453.198H272.625L268.689 444.414V453.198H267.569V442.158H268.753L273.025 451.726L277.297 442.158H278.497ZM281.597 442.814C281.373 442.814 281.181 442.734 281.021 442.574C280.861 442.414 280.781 442.217 280.781 441.982C280.781 441.748 280.861 441.556 281.021 441.406C281.181 441.246 281.373 441.166 281.597 441.166C281.821 441.166 282.013 441.246 282.173 441.406C282.333 441.556 282.413 441.748 282.413 441.982C282.413 442.217 282.333 442.414 282.173 442.574C282.013 442.734 281.821 442.814 281.597 442.814ZM282.157 444.462V453.198H281.037V444.462H282.157ZM284.182 448.814C284.182 447.918 284.358 447.134 284.71 446.462C285.072 445.78 285.568 445.257 286.198 444.894C286.838 444.521 287.558 444.334 288.358 444.334C289.19 444.334 289.904 444.526 290.502 444.91C291.11 445.294 291.547 445.785 291.814 446.382V444.462H292.934V453.198H291.814V451.262C291.536 451.86 291.094 452.356 290.486 452.75C289.888 453.134 289.174 453.326 288.342 453.326C287.552 453.326 286.838 453.14 286.198 452.766C285.568 452.393 285.072 451.865 284.71 451.182C284.358 450.5 284.182 449.71 284.182 448.814ZM291.814 448.83C291.814 448.126 291.67 447.508 291.382 446.974C291.094 446.441 290.699 446.03 290.198 445.742C289.707 445.454 289.163 445.31 288.566 445.31C287.947 445.31 287.392 445.449 286.902 445.726C286.411 446.004 286.022 446.409 285.734 446.942C285.456 447.465 285.318 448.089 285.318 448.814C285.318 449.529 285.456 450.158 285.734 450.702C286.022 451.236 286.411 451.646 286.902 451.934C287.392 452.212 287.947 452.35 288.566 452.35C289.163 452.35 289.707 452.206 290.198 451.918C290.699 451.63 291.094 451.22 291.382 450.686C291.67 450.153 291.814 449.534 291.814 448.83ZM305.891 444.302C306.915 444.302 307.747 444.628 308.387 445.278C309.037 445.918 309.363 446.852 309.363 448.078V453.198H308.259V448.206C308.259 447.257 308.029 446.532 307.571 446.03C307.112 445.529 306.488 445.278 305.699 445.278C304.877 445.278 304.221 445.55 303.731 446.094C303.24 446.638 302.995 447.428 302.995 448.462V453.198H301.891V448.206C301.891 447.257 301.661 446.532 301.203 446.03C300.744 445.529 300.115 445.278 299.315 445.278C298.493 445.278 297.837 445.55 297.347 446.094C296.856 446.638 296.611 447.428 296.611 448.462V453.198H295.491V444.462H296.611V445.966C296.888 445.422 297.283 445.012 297.795 444.734C298.307 444.446 298.877 444.302 299.507 444.302C300.264 444.302 300.925 444.484 301.491 444.846C302.067 445.209 302.483 445.742 302.739 446.446C302.973 445.753 303.373 445.225 303.939 444.862C304.515 444.489 305.165 444.302 305.891 444.302ZM312.41 442.814C312.186 442.814 311.994 442.734 311.834 442.574C311.674 442.414 311.594 442.217 311.594 441.982C311.594 441.748 311.674 441.556 311.834 441.406C311.994 441.246 312.186 441.166 312.41 441.166C312.634 441.166 312.826 441.246 312.986 441.406C313.146 441.556 313.226 441.748 313.226 441.982C313.226 442.217 313.146 442.414 312.986 442.574C312.826 442.734 312.634 442.814 312.41 442.814ZM312.97 444.462V453.198H311.85V444.462H312.97ZM316.53 451.342L314.866 455.534H314.098L315.282 451.342H316.53ZM328.71 442.014V442.942H323.782V447.118H327.942V448.046H323.782V453.198H322.662V442.014H328.71ZM331.673 452.286H335.689V453.198H330.553V442.014H331.673V452.286Z" fill="#CCD2D7"/>
<path d="M278.497 442.158H279.634V441.021H278.497V442.158ZM278.497 453.198V454.335H279.634V453.198H278.497ZM277.377 453.198H276.239V454.335H277.377V453.198ZM277.377 444.382H278.514L276.338 443.919L277.377 444.382ZM273.441 453.198V454.335H274.178L274.479 453.662L273.441 453.198ZM272.625 453.198L271.587 453.663L271.888 454.335H272.625V453.198ZM268.689 444.414L269.726 443.949L267.551 444.414H268.689ZM268.689 453.198V454.335H269.826V453.198H268.689ZM267.569 453.198H266.431V454.335H267.569V453.198ZM267.569 442.158V441.021H266.431V442.158H267.569ZM268.753 442.158L269.791 441.695L269.49 441.021H268.753V442.158ZM273.025 451.726L271.986 452.19L273.025 454.516L274.063 452.19L273.025 451.726ZM277.297 442.158V441.021H276.559L276.258 441.695L277.297 442.158ZM277.359 442.158V453.198H279.634V442.158H277.359ZM278.497 452.061H277.377V454.335H278.497V452.061ZM278.514 453.198V444.382H276.239V453.198H278.514ZM276.338 443.919L272.402 452.735L274.479 453.662L278.415 444.846L276.338 443.919ZM273.441 452.061H272.625V454.335H273.441V452.061ZM273.662 452.733L269.726 443.949L267.651 444.879L271.587 453.663L273.662 452.733ZM267.551 444.414V453.198H269.826V444.414H267.551ZM268.689 452.061H267.569V454.335H268.689V452.061ZM268.706 453.198V442.158H266.431V453.198H268.706ZM267.569 443.295H268.753V441.021H267.569V443.295ZM267.714 442.622L271.986 452.19L274.063 451.263L269.791 441.695L267.714 442.622ZM274.063 452.19L278.335 442.622L276.258 441.695L271.986 451.263L274.063 452.19ZM277.297 443.295H278.497V441.021H277.297V443.295ZM281.021 441.406L281.797 442.238L281.812 442.224L281.826 442.21L281.021 441.406ZM282.173 441.406L281.369 442.21L281.383 442.224L281.397 442.238L282.173 441.406ZM282.157 444.462H283.295V443.325H282.157V444.462ZM282.157 453.198V454.335H283.295V453.198H282.157ZM281.037 453.198H279.9V454.335H281.037V453.198ZM281.037 444.462V443.325H279.9V444.462H281.037ZM281.597 441.677C281.624 441.677 281.67 441.682 281.723 441.705C281.776 441.726 281.81 441.754 281.826 441.77L280.217 443.378C280.588 443.749 281.068 443.951 281.597 443.951V441.677ZM281.826 441.77C281.846 441.791 281.875 441.828 281.895 441.879C281.916 441.929 281.919 441.968 281.919 441.982H279.644C279.644 442.506 279.835 442.996 280.217 443.378L281.826 441.77ZM281.919 441.982C281.919 441.996 281.916 442.04 281.891 442.1C281.866 442.161 281.829 442.208 281.797 442.238L280.245 440.575C279.837 440.956 279.644 441.458 279.644 441.982H281.919ZM281.826 442.21C281.81 442.226 281.776 442.254 281.723 442.276C281.67 442.298 281.624 442.303 281.597 442.303V440.029C281.068 440.029 280.588 440.231 280.217 440.602L281.826 442.21ZM281.597 442.303C281.571 442.303 281.525 442.298 281.472 442.276C281.419 442.254 281.385 442.226 281.369 442.21L282.978 440.602C282.607 440.231 282.126 440.029 281.597 440.029V442.303ZM281.397 442.238C281.366 442.208 281.329 442.161 281.304 442.1C281.279 442.04 281.276 441.996 281.276 441.982H283.551C283.551 441.458 283.358 440.956 282.949 440.575L281.397 442.238ZM281.276 441.982C281.276 441.968 281.279 441.929 281.299 441.879C281.32 441.828 281.348 441.791 281.369 441.77L282.978 443.378C283.359 442.996 283.551 442.506 283.551 441.982H281.276ZM281.369 441.77C281.385 441.754 281.419 441.726 281.472 441.705C281.525 441.682 281.571 441.677 281.597 441.677V443.951C282.126 443.951 282.607 443.749 282.978 443.378L281.369 441.77ZM281.02 444.462V453.198H283.295V444.462H281.02ZM282.157 452.061H281.037V454.335H282.157V452.061ZM282.175 453.198V444.462H279.9V453.198H282.175ZM281.037 445.599H282.157V443.325H281.037V445.599ZM284.71 446.462L283.705 445.929L283.702 445.935L284.71 446.462ZM286.198 444.894L286.765 445.88L286.771 445.877L286.198 444.894ZM290.502 444.91L289.887 445.867L289.894 445.872L290.502 444.91ZM291.814 446.382L290.775 446.846L292.951 446.382H291.814ZM291.814 444.462V443.325H290.676V444.462H291.814ZM292.934 444.462H294.071V443.325H292.934V444.462ZM292.934 453.198V454.335H294.071V453.198H292.934ZM291.814 453.198H290.676V454.335H291.814V453.198ZM291.814 451.262H292.951L290.782 450.783L291.814 451.262ZM290.486 452.75L291.101 453.707L291.105 453.704L290.486 452.75ZM286.198 452.766L285.617 453.744L285.625 453.749L286.198 452.766ZM284.71 451.182L283.699 451.703L283.705 451.716L284.71 451.182ZM291.382 446.974L292.382 446.434L291.382 446.974ZM290.198 445.742L289.622 446.723L289.631 446.728L290.198 445.742ZM286.902 445.726L287.461 446.716V446.716L286.902 445.726ZM285.734 446.942L284.733 446.402L284.729 446.409L285.734 446.942ZM285.734 450.702L284.72 451.219L284.727 451.231L284.733 451.243L285.734 450.702ZM286.902 451.934L286.326 452.915L286.334 452.92L286.342 452.924L286.902 451.934ZM290.198 451.918L289.631 450.932L289.622 450.937L290.198 451.918ZM291.382 450.686L292.382 451.227L291.382 450.686ZM285.319 448.814C285.319 448.069 285.464 447.472 285.717 446.99L283.702 445.935C283.251 446.796 283.044 447.768 283.044 448.814H285.319ZM285.714 446.996C285.983 446.489 286.333 446.129 286.765 445.88L285.63 443.909C284.803 444.385 284.161 445.07 283.705 445.929L285.714 446.996ZM286.771 445.877C287.223 445.613 287.742 445.471 288.358 445.471V443.197C287.373 443.197 286.452 443.429 285.625 443.912L286.771 445.877ZM288.358 445.471C289.01 445.471 289.502 445.62 289.887 445.867L291.117 443.954C290.306 443.433 289.37 443.197 288.358 443.197V445.471ZM289.894 445.872C290.332 446.148 290.609 446.474 290.775 446.846L292.852 445.919C292.485 445.096 291.887 444.44 291.109 443.949L289.894 445.872ZM292.951 446.382V444.462H290.676V446.382H292.951ZM291.814 445.599H292.934V443.325H291.814V445.599ZM291.796 444.462V453.198H294.071V444.462H291.796ZM292.934 452.061H291.814V454.335H292.934V452.061ZM292.951 453.198V451.262H290.676V453.198H292.951ZM290.782 450.783C290.604 451.167 290.314 451.506 289.866 451.796L291.105 453.704C291.873 453.205 292.469 452.552 292.845 451.741L290.782 450.783ZM289.871 451.794C289.486 452.041 288.994 452.189 288.342 452.189V454.463C289.354 454.463 290.29 454.228 291.101 453.707L289.871 451.794ZM288.342 452.189C287.74 452.189 287.225 452.049 286.771 451.784L285.625 453.749C286.45 454.23 287.365 454.463 288.342 454.463V452.189ZM286.778 451.788C286.338 451.527 285.984 451.158 285.714 450.649L283.705 451.716C284.16 452.572 284.798 453.258 285.617 453.744L286.778 451.788ZM285.72 450.661C285.464 450.164 285.319 449.559 285.319 448.814H283.044C283.044 449.861 283.251 450.835 283.699 451.703L285.72 450.661ZM292.951 448.83C292.951 447.968 292.773 447.158 292.382 446.434L290.381 447.515C290.566 447.857 290.676 448.284 290.676 448.83H292.951ZM292.382 446.434C291.999 445.724 291.458 445.155 290.764 444.756L289.631 446.728C289.94 446.906 290.188 447.158 290.381 447.515L292.382 446.434ZM290.773 444.761C290.099 444.366 289.355 444.173 288.566 444.173V446.447C288.971 446.447 289.315 446.543 289.622 446.723L290.773 444.761ZM288.566 444.173C287.771 444.173 287.02 444.353 286.342 444.736L287.461 446.716C287.765 446.545 288.123 446.447 288.566 446.447V444.173ZM286.342 444.736C285.651 445.127 285.115 445.695 284.733 446.402L286.734 447.483C286.929 447.123 287.171 446.88 287.461 446.716L286.342 444.736ZM284.729 446.409C284.347 447.129 284.18 447.945 284.18 448.814H286.455C286.455 448.233 286.566 447.801 286.738 447.475L284.729 446.409ZM284.18 448.814C284.18 449.678 284.349 450.49 284.72 451.219L286.747 450.186C286.564 449.827 286.455 449.38 286.455 448.814H284.18ZM284.733 451.243C285.113 451.946 285.644 452.515 286.326 452.915L287.477 450.953C287.178 450.778 286.93 450.525 286.734 450.162L284.733 451.243ZM286.342 452.924C287.02 453.307 287.771 453.487 288.566 453.487V451.213C288.123 451.213 287.765 451.116 287.461 450.944L286.342 452.924ZM288.566 453.487C289.355 453.487 290.099 453.295 290.773 452.899L289.622 450.937C289.315 451.118 288.971 451.213 288.566 451.213V453.487ZM290.764 452.904C291.458 452.506 291.999 451.937 292.382 451.227L290.381 450.146C290.188 450.503 289.94 450.755 289.631 450.932L290.764 452.904ZM292.382 451.227C292.773 450.502 292.951 449.692 292.951 448.83H290.676C290.676 449.376 290.566 449.804 290.381 450.146L292.382 451.227ZM308.387 445.278L307.576 446.076L307.582 446.082L307.589 446.089L308.387 445.278ZM309.363 453.198V454.335H310.5V453.198H309.363ZM308.259 453.198H307.121V454.335H308.259V453.198ZM307.571 446.03L306.731 446.798V446.798L307.571 446.03ZM303.731 446.094L302.886 445.333L303.731 446.094ZM302.995 453.198V454.335H304.132V453.198H302.995ZM301.891 453.198H300.753V454.335H301.891V453.198ZM301.203 446.03L300.363 446.798V446.798L301.203 446.03ZM297.347 446.094L296.502 445.333H296.502L297.347 446.094ZM296.611 453.198V454.335H297.748V453.198H296.611ZM295.491 453.198H294.353V454.335H295.491V453.198ZM295.491 444.462V443.325H294.353V444.462H295.491ZM296.611 444.462H297.748V443.325H296.611V444.462ZM296.611 445.966H295.473L297.624 446.483L296.611 445.966ZM297.795 444.734L298.336 445.734L298.344 445.73L298.352 445.725L297.795 444.734ZM301.491 444.846L300.876 445.803L300.885 445.809L301.491 444.846ZM302.739 446.446L301.67 446.835L302.777 449.88L303.816 446.811L302.739 446.446ZM303.939 444.862L304.553 445.819L304.557 445.817L303.939 444.862ZM305.891 445.439C306.65 445.439 307.177 445.67 307.576 446.076L309.197 444.481C308.317 443.585 307.179 443.165 305.891 443.165V445.439ZM307.589 446.089C307.956 446.45 308.225 447.048 308.225 448.078H310.5C310.5 446.655 310.119 445.387 309.184 444.467L307.589 446.089ZM308.225 448.078V453.198H310.5V448.078H308.225ZM309.363 452.061H308.259V454.335H309.363V452.061ZM309.396 453.198V448.206H307.121V453.198H309.396ZM309.396 448.206C309.396 447.086 309.125 446.044 308.41 445.263L306.731 446.798C306.934 447.019 307.121 447.428 307.121 448.206H309.396ZM308.41 445.263C307.7 444.487 306.75 444.141 305.699 444.141V446.415C306.225 446.415 306.524 446.571 306.731 446.798L308.41 445.263ZM305.699 444.141C304.599 444.141 303.62 444.519 302.886 445.333L304.575 446.856C304.823 446.581 305.156 446.415 305.699 446.415V444.141ZM302.886 445.333C302.142 446.158 301.857 447.262 301.857 448.462H304.132C304.132 447.593 304.338 447.119 304.575 446.856L302.886 445.333ZM301.857 448.462V453.198H304.132V448.462H301.857ZM302.995 452.061H301.891V454.335H302.995V452.061ZM303.028 453.198V448.206H300.753V453.198H303.028ZM303.028 448.206C303.028 447.086 302.757 446.044 302.042 445.263L300.363 446.798C300.566 447.019 300.753 447.428 300.753 448.206H303.028ZM302.042 445.263C301.329 444.484 300.372 444.141 299.315 444.141V446.415C299.857 446.415 300.159 446.574 300.363 446.798L302.042 445.263ZM299.315 444.141C298.215 444.141 297.236 444.519 296.502 445.333L298.191 446.856C298.439 446.581 298.772 446.415 299.315 446.415V444.141ZM296.502 445.333C295.758 446.158 295.473 447.262 295.473 448.462H297.748C297.748 447.593 297.954 447.119 298.191 446.856L296.502 445.333ZM295.473 448.462V453.198H297.748V448.462H295.473ZM296.611 452.061H295.491V454.335H296.611V452.061ZM296.628 453.198V444.462H294.353V453.198H296.628ZM295.491 445.599H296.611V443.325H295.491V445.599ZM295.473 444.462V445.966H297.748V444.462H295.473ZM297.624 446.483C297.802 446.133 298.037 445.896 298.336 445.734L297.253 443.734C296.528 444.127 295.974 444.711 295.597 445.45L297.624 446.483ZM298.352 445.725C298.682 445.54 299.058 445.439 299.507 445.439V443.165C298.696 443.165 297.931 443.353 297.237 443.743L298.352 445.725ZM299.507 445.439C300.075 445.439 300.517 445.573 300.876 445.803L302.105 443.889C301.333 443.394 300.453 443.165 299.507 443.165V445.439ZM300.885 445.809C301.225 446.023 301.491 446.343 301.67 446.835L303.807 446.058C303.474 445.142 302.908 444.395 302.096 443.884L300.885 445.809ZM303.816 446.811C303.976 446.338 304.224 446.03 304.553 445.819L303.324 443.905C302.522 444.42 301.971 445.167 301.661 446.082L303.816 446.811ZM304.557 445.817C304.938 445.57 305.372 445.439 305.891 445.439V443.165C304.959 443.165 304.091 443.408 303.32 443.908L304.557 445.817ZM311.834 441.406L312.61 442.238L312.624 442.224L312.638 442.21L311.834 441.406ZM312.986 441.406L312.182 442.21L312.196 442.224L312.21 442.238L312.986 441.406ZM312.97 444.462H314.107V443.325H312.97V444.462ZM312.97 453.198V454.335H314.107V453.198H312.97ZM311.85 453.198H310.713V454.335H311.85V453.198ZM311.85 444.462V443.325H310.713V444.462H311.85ZM312.41 441.677C312.436 441.677 312.482 441.682 312.535 441.705C312.588 441.726 312.622 441.754 312.638 441.77L311.03 443.378C311.401 443.749 311.881 443.951 312.41 443.951V441.677ZM312.638 441.77C312.659 441.791 312.687 441.828 312.708 441.879C312.728 441.929 312.731 441.968 312.731 441.982H310.457C310.457 442.506 310.648 442.996 311.03 443.378L312.638 441.77ZM312.731 441.982C312.731 441.996 312.728 442.04 312.704 442.1C312.678 442.161 312.642 442.208 312.61 442.238L311.058 440.575C310.65 440.956 310.457 441.458 310.457 441.982H312.731ZM312.638 442.21C312.622 442.226 312.588 442.254 312.535 442.276C312.482 442.298 312.436 442.303 312.41 442.303V440.029C311.881 440.029 311.401 440.231 311.03 440.602L312.638 442.21ZM312.41 442.303C312.383 442.303 312.337 442.298 312.284 442.276C312.232 442.254 312.197 442.226 312.182 442.21L313.79 440.602C313.419 440.231 312.939 440.029 312.41 440.029V442.303ZM312.21 442.238C312.178 442.208 312.142 442.161 312.116 442.1C312.091 442.04 312.089 441.996 312.089 441.982H314.363C314.363 441.458 314.17 440.956 313.762 440.575L312.21 442.238ZM312.089 441.982C312.089 441.968 312.092 441.929 312.112 441.879C312.133 441.828 312.161 441.791 312.182 441.77L313.79 443.378C314.172 442.996 314.363 442.506 314.363 441.982H312.089ZM312.182 441.77C312.197 441.754 312.232 441.726 312.284 441.705C312.337 441.682 312.383 441.677 312.41 441.677V443.951C312.939 443.951 313.419 443.749 313.79 443.378L312.182 441.77ZM311.833 444.462V453.198H314.107V444.462H311.833ZM312.97 452.061H311.85V454.335H312.97V452.061ZM312.987 453.198V444.462H310.713V453.198H312.987ZM311.85 445.599H312.97V443.325H311.85V445.599ZM316.53 451.342L317.587 451.762L318.205 450.205H316.53V451.342ZM314.866 455.534V456.671H315.638L315.923 455.954L314.866 455.534ZM314.098 455.534L313.004 455.225L312.595 456.671H314.098V455.534ZM315.282 451.342V450.205H314.422L314.188 451.033L315.282 451.342ZM315.473 450.923L313.809 455.115L315.923 455.954L317.587 451.762L315.473 450.923ZM314.866 454.397H314.098V456.671H314.866V454.397ZM315.193 455.843L316.377 451.651L314.188 451.033L313.004 455.225L315.193 455.843ZM315.282 452.479H316.53V450.205H315.282V452.479ZM328.71 442.014H329.848V440.877H328.71V442.014ZM328.71 442.942V444.079H329.848V442.942H328.71ZM323.782 442.942V441.805H322.645V442.942H323.782ZM323.782 447.118H322.645V448.255H323.782V447.118ZM327.942 447.118H329.08V445.981H327.942V447.118ZM327.942 448.046V449.183H329.08V448.046H327.942ZM323.782 448.046V446.909H322.645V448.046H323.782ZM323.782 453.198V454.335H324.92V453.198H323.782ZM322.662 453.198H321.525V454.335H322.662V453.198ZM322.662 442.014V440.877H321.525V442.014H322.662ZM327.573 442.014V442.942H329.848V442.014H327.573ZM328.71 441.805H323.782V444.079H328.71V441.805ZM322.645 442.942V447.118H324.92V442.942H322.645ZM323.782 448.255H327.942V445.981H323.782V448.255ZM326.805 447.118V448.046H329.08V447.118H326.805ZM327.942 446.909H323.782V449.183H327.942V446.909ZM322.645 448.046V453.198H324.92V448.046H322.645ZM323.782 452.061H322.662V454.335H323.782V452.061ZM323.8 453.198V442.014H321.525V453.198H323.8ZM322.662 443.151H328.71V440.877H322.662V443.151ZM331.673 452.286H330.536V453.423H331.673V452.286ZM335.689 452.286H336.826V451.149H335.689V452.286ZM335.689 453.198V454.335H336.826V453.198H335.689ZM330.553 453.198H329.416V454.335H330.553V453.198ZM330.553 442.014V440.877H329.416V442.014H330.553ZM331.673 442.014H332.81V440.877H331.673V442.014ZM331.673 453.423H335.689V451.149H331.673V453.423ZM334.552 452.286V453.198H336.826V452.286H334.552ZM335.689 452.061H330.553V454.335H335.689V452.061ZM331.69 453.198V442.014H329.416V453.198H331.69ZM330.553 443.151H331.673V440.877H330.553V443.151ZM330.536 442.014V452.286H332.81V442.014H330.536Z" fill="#0D6EFD" fill-opacity="0.5"/>
</g>
<defs>
<filter id="filter0_b_9301_20150" x="199.999" y="376" width="366.758" height="260.868" filterUnits="userSpaceOnUse" color-interpolation-filters="sRGB">
<feFlood flood-opacity="0" result="BackgroundImageFix"/>
<feGaussianBlur in="BackgroundImageFix" stdDeviation="17.5"/>
<feComposite in2="SourceAlpha" operator="in" result="effect1_backgroundBlur_9301_20150"/>
<feBlend mode="normal" in="SourceGraphic" in2="effect1_backgroundBlur_9301_20150" result="shape"/>
</filter>
</defs>
</svg>
