<svg width="390" height="392" viewBox="0 0 390 392" fill="none" xmlns="http://www.w3.org/2000/svg">
<mask id="path-1-inside-1_9302_19721" fill="white">
<path d="M195.734 71.1528C195.563 57.1555 195.734 70.6862 195.563 43.3916C202.621 43.3646 329.576 98.0307 335.074 102.473C340.572 106.914 340.787 112.671 341.582 119.945C341.582 122.854 341.722 122.612 341.582 123.792C341.73 125.353 341.722 126.852 341.722 128.374V221.815C341.742 222.446 341.695 223.076 341.582 223.697C341.346 224.743 340.774 225.683 339.955 226.372C339.136 227.061 338.115 227.463 337.047 227.514H335.857H301.02C300.523 227.508 300.027 227.536 299.534 227.6C298.584 227.691 297.683 228.065 296.947 228.674C296.211 229.284 295.673 230.101 295.404 231.02C295.132 231.95 295.132 232.939 295.404 233.869C295.868 235.812 296.1 237.804 296.096 239.802C296.118 243.949 295.044 248.027 292.985 251.622C289.934 257.128 284.864 261.222 278.852 263.035C276.887 263.646 274.849 263.988 272.793 264.05C268.462 264.273 254.822 263.287 251.016 261.201C247.911 259.554 245.204 257.243 243.087 254.43C240.97 251.617 239.495 248.372 238.765 244.924C238.262 242.681 238.087 240.378 238.244 238.085C238.341 236.658 238.56 235.243 238.898 233.854C239.245 232.62 239.103 231.299 238.501 230.169C238.151 229.467 237.63 228.864 236.987 228.417C236.344 227.969 235.6 227.691 234.822 227.608C234.305 227.551 233.786 227.519 233.266 227.514H198.271H196.972C195.75 227.463 194.593 226.953 193.729 226.085C192.865 225.218 192.356 224.056 192.305 222.83C192.305 222.463 192.305 222.097 192.305 221.73V185.871C192.272 185.08 192.05 184.308 191.658 183.621C191.265 182.935 190.714 182.353 190.05 181.925C189.387 181.497 188.63 181.235 187.845 181.163C187.059 181.09 186.268 181.208 185.538 181.507C184.034 182.134 182.47 182.605 180.871 182.912C178.658 183.346 176.398 183.477 174.15 183.302C172.204 183.149 162.393 179.639 161.523 178.503C159.415 175.748 157.922 172.57 157.146 169.185C156.548 166.722 156.361 166.975 156.594 164.451C155.627 159.29 157.685 154.401 161.071 150.492C164.456 146.583 168.993 143.857 174.025 142.709C178.843 141.604 183.882 142.002 188.469 143.848C188.804 143.981 189.154 144.098 189.504 144.2C190.213 144.378 190.953 144.394 191.669 144.246C192.386 144.098 193.06 143.791 193.641 143.346C194.223 142.901 194.698 142.331 195.031 141.678C195.363 141.024 195.545 140.304 195.563 139.57C195.563 139.172 195.563 138.79 195.563 138.376V97.0465C195.542 96.4146 195.734 96.3477 195.734 95.165C195.734 93.5483 195.734 97.0465 195.734 92.6152C195.734 89.8157 195.734 93.315 195.734 89.1159V77.9181V71.1528Z"/>
</mask>
<path d="M195.734 71.1528C195.563 57.1555 195.734 70.6862 195.563 43.3916C202.621 43.3646 329.576 98.0307 335.074 102.473C340.572 106.914 340.787 112.671 341.582 119.945C341.582 122.854 341.722 122.612 341.582 123.792C341.73 125.353 341.722 126.852 341.722 128.374V221.815C341.742 222.446 341.695 223.076 341.582 223.697C341.346 224.743 340.774 225.683 339.955 226.372C339.136 227.061 338.115 227.463 337.047 227.514H335.857H301.02C300.523 227.508 300.027 227.536 299.534 227.6C298.584 227.691 297.683 228.065 296.947 228.674C296.211 229.284 295.673 230.101 295.404 231.02C295.132 231.95 295.132 232.939 295.404 233.869C295.868 235.812 296.1 237.804 296.096 239.802C296.118 243.949 295.044 248.027 292.985 251.622C289.934 257.128 284.864 261.222 278.852 263.035C276.887 263.646 274.849 263.988 272.793 264.05C268.462 264.273 254.822 263.287 251.016 261.201C247.911 259.554 245.204 257.243 243.087 254.43C240.97 251.617 239.495 248.372 238.765 244.924C238.262 242.681 238.087 240.378 238.244 238.085C238.341 236.658 238.56 235.243 238.898 233.854C239.245 232.62 239.103 231.299 238.501 230.169C238.151 229.467 237.63 228.864 236.987 228.417C236.344 227.969 235.6 227.691 234.822 227.608C234.305 227.551 233.786 227.519 233.266 227.514H198.271H196.972C195.75 227.463 194.593 226.953 193.729 226.085C192.865 225.218 192.356 224.056 192.305 222.83C192.305 222.463 192.305 222.097 192.305 221.73V185.871C192.272 185.08 192.05 184.308 191.658 183.621C191.265 182.935 190.714 182.353 190.05 181.925C189.387 181.497 188.63 181.235 187.845 181.163C187.059 181.09 186.268 181.208 185.538 181.507C184.034 182.134 182.47 182.605 180.871 182.912C178.658 183.346 176.398 183.477 174.15 183.302C172.204 183.149 162.393 179.639 161.523 178.503C159.415 175.748 157.922 172.57 157.146 169.185C156.548 166.722 156.361 166.975 156.594 164.451C155.627 159.29 157.685 154.401 161.071 150.492C164.456 146.583 168.993 143.857 174.025 142.709C178.843 141.604 183.882 142.002 188.469 143.848C188.804 143.981 189.154 144.098 189.504 144.2C190.213 144.378 190.953 144.394 191.669 144.246C192.386 144.098 193.06 143.791 193.641 143.346C194.223 142.901 194.698 142.331 195.031 141.678C195.363 141.024 195.545 140.304 195.563 139.57C195.563 139.172 195.563 138.79 195.563 138.376V97.0465C195.542 96.4146 195.734 96.3477 195.734 95.165C195.734 93.5483 195.734 97.0465 195.734 92.6152C195.734 89.8157 195.734 93.315 195.734 89.1159V77.9181V71.1528Z" fill="#05243A"/>
<mask id="path-3-inside-2_9302_19721" fill="white">
<path d="M254.259 383.047H194.159C193.566 383.066 192.972 383.028 192.387 382.932C191.246 382.693 190.218 382.078 189.467 381.186C188.716 380.294 188.286 379.176 188.245 378.011C188.245 377.732 188.245 377.453 188.245 377.191V333.335C188.223 332.705 188.275 332.075 188.4 331.457C188.56 330.775 188.855 330.132 189.269 329.567C189.683 329.002 190.206 328.526 190.808 328.169C191.41 327.811 192.079 327.579 192.773 327.485C193.467 327.392 194.173 327.44 194.848 327.626C195.25 327.741 195.668 327.905 196.029 328.053C200.501 329.799 205.375 330.247 210.09 329.348C214.806 328.448 219.172 326.237 222.688 322.968C226.156 319.758 228.668 315.651 229.945 311.101C231.222 306.551 231.214 301.736 229.922 297.191C228.63 292.645 226.105 288.546 222.626 285.348C219.146 282.149 214.85 279.977 210.211 279.071C205.414 278.116 200.441 278.583 195.906 280.416C195.125 280.744 194.292 280.93 193.445 280.965C192.099 280.977 190.801 280.464 189.827 279.534C188.853 278.605 188.279 277.332 188.228 275.987C188.228 275.708 188.228 275.429 188.228 275.167C188.228 260.518 188.228 245.869 188.228 231.22C188.213 230.766 188.235 230.31 188.294 229.859C188.466 228.635 189.067 227.512 189.989 226.689C190.911 225.866 192.095 225.397 193.33 225.364C193.642 225.364 193.962 225.364 194.274 225.364H236.443C237.036 225.352 237.629 225.393 238.215 225.487C239.534 225.741 240.703 226.497 241.476 227.595C242.248 228.694 242.564 230.049 242.357 231.376C242.275 231.86 242.161 232.336 242.07 232.812C240.381 241.391 242.439 248.969 248.263 255.465C252.058 259.753 257.237 262.574 262.897 263.438C267.072 264.134 271.355 263.783 275.362 262.417C279.368 261.051 282.973 258.712 285.853 255.61C288.733 252.508 290.799 248.74 291.864 244.644C292.93 240.548 292.962 236.251 291.959 232.139C291.696 231.156 291.696 230.121 291.959 229.137C292.258 228.08 292.884 227.145 293.748 226.465C294.611 225.786 295.668 225.398 296.766 225.356C297.085 225.356 297.397 225.356 297.709 225.356H344.176C344.726 225.343 345.275 225.381 345.817 225.471C346.997 225.681 348.069 226.29 348.853 227.197C349.637 228.103 350.085 229.252 350.123 230.449C350.123 230.663 350.123 230.876 350.123 231.081C350.123 270.937 350.123 310.791 350.123 350.641C350.197 358.025 347.67 365.199 342.987 370.908C338.195 376.966 331.365 381.076 323.768 382.473C321.741 382.864 319.681 383.059 317.616 383.055L254.259 383.047Z"/>
</mask>
<path d="M254.259 383.047H194.159C193.566 383.066 192.972 383.028 192.387 382.932C191.246 382.693 190.218 382.078 189.467 381.186C188.716 380.294 188.286 379.176 188.245 378.011C188.245 377.732 188.245 377.453 188.245 377.191V333.335C188.223 332.705 188.275 332.075 188.4 331.457C188.56 330.775 188.855 330.132 189.269 329.567C189.683 329.002 190.206 328.526 190.808 328.169C191.41 327.811 192.079 327.579 192.773 327.485C193.467 327.392 194.173 327.44 194.848 327.626C195.25 327.741 195.668 327.905 196.029 328.053C200.501 329.799 205.375 330.247 210.09 329.348C214.806 328.448 219.172 326.237 222.688 322.968C226.156 319.758 228.668 315.651 229.945 311.101C231.222 306.551 231.214 301.736 229.922 297.191C228.63 292.645 226.105 288.546 222.626 285.348C219.146 282.149 214.85 279.977 210.211 279.071C205.414 278.116 200.441 278.583 195.906 280.416C195.125 280.744 194.292 280.93 193.445 280.965C192.099 280.977 190.801 280.464 189.827 279.534C188.853 278.605 188.279 277.332 188.228 275.987C188.228 275.708 188.228 275.429 188.228 275.167C188.228 260.518 188.228 245.869 188.228 231.22C188.213 230.766 188.235 230.31 188.294 229.859C188.466 228.635 189.067 227.512 189.989 226.689C190.911 225.866 192.095 225.397 193.33 225.364C193.642 225.364 193.962 225.364 194.274 225.364H236.443C237.036 225.352 237.629 225.393 238.215 225.487C239.534 225.741 240.703 226.497 241.476 227.595C242.248 228.694 242.564 230.049 242.357 231.376C242.275 231.86 242.161 232.336 242.07 232.812C240.381 241.391 242.439 248.969 248.263 255.465C252.058 259.753 257.237 262.574 262.897 263.438C267.072 264.134 271.355 263.783 275.362 262.417C279.368 261.051 282.973 258.712 285.853 255.61C288.733 252.508 290.799 248.74 291.864 244.644C292.93 240.548 292.962 236.251 291.959 232.139C291.696 231.156 291.696 230.121 291.959 229.137C292.258 228.08 292.884 227.145 293.748 226.465C294.611 225.786 295.668 225.398 296.766 225.356C297.085 225.356 297.397 225.356 297.709 225.356H344.176C344.726 225.343 345.275 225.381 345.817 225.471C346.997 225.681 348.069 226.29 348.853 227.197C349.637 228.103 350.085 229.252 350.123 230.449C350.123 230.663 350.123 230.876 350.123 231.081C350.123 270.937 350.123 310.791 350.123 350.641C350.197 358.025 347.67 365.199 342.987 370.908C338.195 376.966 331.365 381.076 323.768 382.473C321.741 382.864 319.681 383.059 317.616 383.055L254.259 383.047Z" fill="#05243A"/>
<mask id="path-5-outside-3_9302_19721" maskUnits="userSpaceOnUse" x="38.7148" y="34.3809" width="159" height="201" fill="black">
<rect fill="white" x="38.7148" y="34.3809" width="159" height="201"/>
<path d="M45.7175 175.857C45.7175 158.055 45.7175 140.251 45.7175 122.444C45.6495 117.39 46.9082 112.407 49.368 107.992C51.4376 104.158 54.3347 100.833 57.849 98.2582C61.3634 95.6832 185.625 44.199 189.905 43.3809C190.137 49.913 189.898 61.3442 190.13 69.509V86.0724C190.13 90.9714 190.13 89.1051 190.13 93.3043C190.13 96.5703 190.094 95.9328 190.13 97.1457C190.13 97.341 190.13 97.5287 190.13 97.724C190.13 111.244 190.13 124.765 190.13 138.285C190.148 138.732 190.12 139.18 190.047 139.622C189.914 140.3 189.634 140.94 189.228 141.499C188.822 142.057 188.299 142.521 187.696 142.858C187.093 143.194 186.424 143.396 185.735 143.448C185.047 143.5 184.355 143.402 183.708 143.16C182.67 142.74 181.609 142.379 180.531 142.078C175.506 140.738 170.177 141.108 165.386 143.13C160.595 145.152 156.179 149.037 154.068 153.248C151.957 157.458 150.645 162.239 151.154 167.023C151.629 171.922 153.637 176.546 156.893 180.237C160.148 183.928 164.485 186.498 169.286 187.582C173.838 188.641 178.604 188.298 182.957 186.598C183.458 186.389 183.975 186.22 184.504 186.095C185.183 185.97 185.881 185.995 186.549 186.168C187.217 186.341 187.839 186.658 188.372 187.096C188.905 187.535 189.336 188.084 189.634 188.707C190.324 190.145 190.1 191.841 190.1 193.384C190.1 206.904 190.1 208.889 190.1 222.409C190.125 223.017 190.059 223.624 189.905 224.212C189.642 225.108 189.121 225.906 188.406 226.506C187.69 227.106 186.814 227.482 185.886 227.585C185.435 227.585 184.992 227.652 184.542 227.652H150.727C150.306 227.652 149.893 227.615 149.48 227.592C148.807 227.534 148.154 227.332 147.566 227C146.978 226.668 146.468 226.214 146.07 225.668C145.673 225.121 145.398 224.496 145.263 223.834C145.128 223.172 145.137 222.489 145.289 221.831C145.491 220.855 145.717 219.893 145.837 218.909C146.593 212.934 140.36 206.897 136.793 202.045C133.226 197.193 127.931 193.897 122.002 192.837C116.086 191.773 109.987 193.028 104.972 196.344C99.9574 199.659 96.4126 204.779 95.0743 210.639C94.2478 214.143 89.5975 217.793 90.4536 221.29C90.6897 222.124 90.7283 223.001 90.5663 223.852C90.3614 224.832 89.8487 225.722 89.1029 226.39C88.357 227.059 87.4171 227.472 86.4201 227.57C85.9468 227.57 85.4661 227.63 84.9854 227.63H51.3434C50.8627 227.63 50.382 227.63 49.9088 227.555C48.8995 227.436 47.9559 226.993 47.2192 226.293C46.4826 225.593 45.9926 224.673 45.8226 223.671C45.7452 223.134 45.7125 222.591 45.725 222.049L45.7175 175.857Z"/>
</mask>
<path d="M45.7175 175.857C45.7175 158.055 45.7175 140.251 45.7175 122.444C45.6495 117.39 46.9082 112.407 49.368 107.992C51.4376 104.158 54.3347 100.833 57.849 98.2582C61.3634 95.6832 185.625 44.199 189.905 43.3809C190.137 49.913 189.898 61.3442 190.13 69.509V86.0724C190.13 90.9714 190.13 89.1051 190.13 93.3043C190.13 96.5703 190.094 95.9328 190.13 97.1457C190.13 97.341 190.13 97.5287 190.13 97.724C190.13 111.244 190.13 124.765 190.13 138.285C190.148 138.732 190.12 139.18 190.047 139.622C189.914 140.3 189.634 140.94 189.228 141.499C188.822 142.057 188.299 142.521 187.696 142.858C187.093 143.194 186.424 143.396 185.735 143.448C185.047 143.5 184.355 143.402 183.708 143.16C182.67 142.74 181.609 142.379 180.531 142.078C175.506 140.738 170.177 141.108 165.386 143.13C160.595 145.152 156.179 149.037 154.068 153.248C151.957 157.458 150.645 162.239 151.154 167.023C151.629 171.922 153.637 176.546 156.893 180.237C160.148 183.928 164.485 186.498 169.286 187.582C173.838 188.641 178.604 188.298 182.957 186.598C183.458 186.389 183.975 186.22 184.504 186.095C185.183 185.97 185.881 185.995 186.549 186.168C187.217 186.341 187.839 186.658 188.372 187.096C188.905 187.535 189.336 188.084 189.634 188.707C190.324 190.145 190.1 191.841 190.1 193.384C190.1 206.904 190.1 208.889 190.1 222.409C190.125 223.017 190.059 223.624 189.905 224.212C189.642 225.108 189.121 225.906 188.406 226.506C187.69 227.106 186.814 227.482 185.886 227.585C185.435 227.585 184.992 227.652 184.542 227.652H150.727C150.306 227.652 149.893 227.615 149.48 227.592C148.807 227.534 148.154 227.332 147.566 227C146.978 226.668 146.468 226.214 146.07 225.668C145.673 225.121 145.398 224.496 145.263 223.834C145.128 223.172 145.137 222.489 145.289 221.831C145.491 220.855 145.717 219.893 145.837 218.909C146.593 212.934 140.36 206.897 136.793 202.045C133.226 197.193 127.931 193.897 122.002 192.837C116.086 191.773 109.987 193.028 104.972 196.344C99.9574 199.659 96.4126 204.779 95.0743 210.639C94.2478 214.143 89.5975 217.793 90.4536 221.29C90.6897 222.124 90.7283 223.001 90.5663 223.852C90.3614 224.832 89.8487 225.722 89.1029 226.39C88.357 227.059 87.4171 227.472 86.4201 227.57C85.9468 227.57 85.4661 227.63 84.9854 227.63H51.3434C50.8627 227.63 50.382 227.63 49.9088 227.555C48.8995 227.436 47.9559 226.993 47.2192 226.293C46.4826 225.593 45.9926 224.673 45.8226 223.671C45.7452 223.134 45.7125 222.591 45.725 222.049L45.7175 175.857Z" fill="#05243A"/>
<path fill-rule="evenodd" clip-rule="evenodd" d="M45.919 345.172L45.9416 238.106C45.9312 237.53 45.9739 236.954 46.0692 236.386C46.2482 235.486 46.684 234.658 47.3238 234C47.9637 233.343 48.7802 232.885 49.6747 232.683C50.2415 232.575 50.818 232.527 51.3948 232.54H90.9644C92.1779 232.504 93.3326 232.009 94.1945 231.154C95.0564 230.299 95.5611 229.149 95.6064 227.935C95.5951 227.427 95.5194 226.922 95.381 226.433C94.9089 224.504 94.6818 222.523 94.705 220.537C94.7947 215.302 96.6238 210.247 99.9041 206.167C103.184 202.087 107.729 199.215 112.822 198.003C114.91 197.491 117.06 197.283 119.207 197.387C124.316 197.62 129.209 199.516 133.141 202.787C137.073 206.057 139.829 210.523 140.99 215.504C141.828 219.169 141.794 222.979 140.892 226.628C140.689 227.473 140.712 228.357 140.96 229.19C141.252 230.144 141.838 230.982 142.636 231.583C143.433 232.183 144.401 232.516 145.399 232.532H184.878C185.455 232.511 186.032 232.554 186.598 232.66C187.641 232.878 188.579 233.442 189.261 234.26C189.942 235.078 190.328 236.102 190.354 237.167V278.081C190.335 278.688 190.388 279.296 190.512 279.891C190.672 280.505 190.953 281.08 191.338 281.583C191.724 282.087 192.206 282.507 192.757 282.821C193.308 283.135 193.917 283.335 194.546 283.41C195.176 283.484 195.814 283.432 196.423 283.256C196.732 283.169 197.036 283.064 197.332 282.941C200.52 281.651 203.96 281.106 207.39 281.348C211.956 281.629 216.341 283.236 220.009 285.97C223.676 288.705 226.467 292.45 228.038 296.747C228.846 298.942 229.305 301.251 229.398 303.589C229.529 306.247 229.214 308.908 228.467 311.461C226.893 316.746 223.507 321.307 218.903 324.342C214.3 327.377 208.773 328.691 203.296 328.054C201.133 327.806 199.015 327.26 197.002 326.431C196.097 326.048 195.096 325.953 194.135 326.159C193.174 326.364 192.3 326.861 191.631 327.58C190.879 328.383 190.434 329.426 190.377 330.525V371.634C190.403 372.211 190.358 372.789 190.241 373.354C189.99 374.367 189.413 375.269 188.598 375.922C187.784 376.575 186.778 376.942 185.735 376.967H75.7765C70.6908 377.013 65.683 375.717 61.2571 373.212C57.8596 371.356 54.8636 368.845 52.4423 365.824C50.0211 362.803 48.2226 359.333 47.1509 355.613C46.4708 353.342 46.0796 350.995 45.9866 348.627C45.9415 347.478 45.919 346.329 45.919 345.172ZM40.4361 357.586C39.5937 354.763 39.109 351.846 38.9934 348.902C38.9447 347.661 38.9204 346.42 38.9204 345.172L38.9429 238.16C38.9295 237.178 39.0046 236.196 39.1671 235.228L39.1846 235.123L39.2052 235.02C39.6481 232.794 40.7262 230.744 42.3094 229.118C43.8925 227.492 45.9129 226.36 48.126 225.857L48.2479 225.83L48.3707 225.806C49.3887 225.613 50.4237 225.525 51.4596 225.541H88.0718C87.8093 223.86 87.687 222.159 87.7069 220.455L87.7071 220.436L87.7074 220.417C87.8237 213.629 90.1958 207.072 94.4498 201.781C98.6987 196.497 104.583 192.775 111.179 191.2C113.911 190.532 116.726 190.261 119.536 190.396C126.165 190.701 132.514 193.162 137.617 197.406C142.721 201.652 146.299 207.45 147.806 213.916L147.809 213.93L147.812 213.944C148.683 217.755 148.825 221.686 148.239 225.534H184.769C185.814 225.506 186.86 225.589 187.888 225.781L187.96 225.795L188.032 225.81C190.618 226.351 194.231 227.75 195.923 229.779C197.614 231.809 197.285 234.351 197.351 236.992L197.353 237.08V275.526C200.747 274.514 204.303 274.118 207.851 274.365C213.765 274.735 219.443 276.818 224.192 280.36C228.95 283.908 232.57 288.766 234.61 294.339C235.665 297.208 236.265 300.224 236.39 303.279C236.554 306.705 236.147 310.135 235.183 313.427L235.179 313.442L235.174 313.458C233.131 320.321 228.734 326.244 222.755 330.185C216.779 334.125 209.606 335.832 202.497 335.007C200.761 334.807 199.048 334.46 197.375 333.97V371.502C197.411 372.596 197.317 373.69 197.097 374.762L197.068 374.902L197.034 375.041C196.412 377.543 194.987 379.771 192.976 381.383C190.965 382.995 188.48 383.902 185.904 383.964L185.819 383.966H75.8068C69.5203 384.016 63.3305 382.417 57.8553 379.328C53.6653 377.031 49.97 373.93 46.9814 370.201C43.9895 366.469 41.7651 362.181 40.4361 357.586Z" fill="#002036"/>
<path opacity="0.75" d="M45.9405 293.689V238.105C45.9301 237.529 45.9729 236.953 46.0682 236.385C46.2472 235.486 46.6829 234.657 47.3228 234C47.9626 233.343 48.7792 232.885 49.6736 232.682C50.2404 232.574 50.8169 232.527 51.3937 232.539H89.9117C90.2648 232.539 90.6178 232.539 90.9633 232.539C92.1768 232.504 93.3315 232.009 94.1935 231.154C95.0554 230.299 95.5601 229.148 95.6053 227.935C95.5941 227.427 95.5183 226.922 95.38 226.433C94.9079 224.503 94.6808 222.522 94.704 220.536C94.7936 215.302 96.6228 210.246 99.9031 206.166C103.183 202.086 107.728 199.214 112.821 198.002C114.909 197.49 117.059 197.283 119.206 197.386C124.315 197.62 129.208 199.516 133.14 202.786C137.072 206.057 139.828 210.522 140.989 215.504C141.826 219.168 141.793 222.978 140.891 226.628C140.688 227.473 140.711 228.356 140.959 229.189C141.251 230.144 141.837 230.982 142.635 231.582C143.432 232.183 144.4 232.515 145.398 232.532H184.877C185.454 232.51 186.031 232.553 186.597 232.659C187.64 232.878 188.578 233.441 189.259 234.259C189.941 235.077 190.327 236.102 190.353 237.166C190.353 237.549 190.353 237.917 190.353 238.315V278.08C190.334 278.688 190.387 279.296 190.511 279.891C190.67 280.504 190.951 281.08 191.337 281.583C191.723 282.086 192.205 282.507 192.756 282.82C193.307 283.134 193.916 283.334 194.545 283.409C195.175 283.484 195.813 283.432 196.422 283.256C196.731 283.169 197.035 283.063 197.331 282.94C200.519 281.65 203.959 281.106 207.389 281.348C211.955 281.629 216.34 283.235 220.008 285.97C223.675 288.705 226.465 292.45 228.037 296.746C228.845 298.942 229.304 301.251 229.397 303.589C229.528 306.246 229.213 308.907 228.465 311.461C226.892 316.746 223.506 321.307 218.902 324.341C214.299 327.376 208.772 328.691 203.295 328.053C201.132 327.805 199.014 327.259 197.001 326.431C196.096 326.048 195.095 325.952 194.134 326.158C193.173 326.364 192.299 326.86 191.63 327.58C190.878 328.383 190.433 329.426 190.376 330.524C190.376 330.907 190.376 331.276 190.376 331.674V371.634C190.402 372.211 190.357 372.788 190.24 373.354C189.989 374.367 189.412 375.269 188.597 375.922C187.783 376.574 186.777 376.942 185.734 376.967H75.7754C70.6898 377.012 65.6819 375.717 61.2561 373.211C57.8585 371.355 54.8625 368.844 52.4413 365.824C50.02 362.803 48.2216 359.332 47.1498 355.612C46.4697 353.342 46.0785 350.995 45.9856 348.627C45.9405 347.477 45.918 346.328 45.918 345.171L45.9405 293.689Z" fill="#0D6EFD"/>
<path d="M214.371 10.0546L371.753 84.1388C378.065 87.1103 375.948 96.5808 368.971 96.5808H365.155C361.451 96.5808 357.788 95.8071 354.401 94.3094L205.316 28.3929C197.471 24.9245 188.535 24.885 180.66 28.2841L27.4739 94.4034C24.146 95.8398 20.5595 96.5808 16.9348 96.5808H11.9665C4.95107 96.5808 2.86896 87.029 9.24797 84.1093L171.546 9.82506C185.159 3.59431 200.826 3.67828 214.371 10.0546Z" fill="#05243A" stroke="#002036" stroke-width="0.466574"/>
<g filter="url(#filter0_b_9302_19721)">
<path d="M135.057 267.688L149.745 270.625C150.598 270.796 151.466 270.882 152.336 270.882H315.123C322.421 270.882 328.337 276.798 328.337 284.096V378.787C328.337 386.085 322.421 392.001 315.123 392.001H151.465C144.167 392.001 138.251 386.085 138.251 378.787V285.705C138.251 284.875 138.173 284.047 138.018 283.232L135.057 267.688Z" fill="#14354F" fill-opacity="0.5"/>
<path d="M138.337 283.171L135.467 268.102L149.681 270.944C150.555 271.119 151.445 271.207 152.336 271.207H315.123C322.241 271.207 328.011 276.978 328.011 284.096V378.787C328.011 385.905 322.241 391.675 315.123 391.675H151.465C144.347 391.675 138.577 385.905 138.577 378.787V285.705C138.577 284.854 138.496 284.006 138.337 283.171Z" stroke="#0D6EFD" stroke-opacity="0.5" stroke-width="0.651305"/>
</g>
<path opacity="0.75" d="M226.996 347.188L224.661 351.638V354.473H223.932V351.638L221.577 347.188H222.4L224.297 350.971L226.183 347.188H226.996ZM228.428 347.71C228.282 347.71 228.157 347.657 228.053 347.553C227.949 347.449 227.897 347.32 227.897 347.168C227.897 347.015 227.949 346.89 228.053 346.792C228.157 346.688 228.282 346.636 228.428 346.636C228.574 346.636 228.699 346.688 228.803 346.792C228.908 346.89 228.96 347.015 228.96 347.168C228.96 347.32 228.908 347.449 228.803 347.553C228.699 347.657 228.574 347.71 228.428 347.71ZM228.793 348.783V354.473H228.063V348.783H228.793ZM235.593 351.336C235.593 351.586 235.586 351.777 235.572 351.909H230.851C230.872 352.34 230.976 352.708 231.164 353.014C231.351 353.319 231.598 353.552 231.904 353.712C232.209 353.865 232.543 353.941 232.904 353.941C233.376 353.941 233.772 353.827 234.092 353.597C234.419 353.368 234.634 353.059 234.738 352.67H235.509C235.37 353.226 235.072 353.681 234.613 354.035C234.162 354.382 233.592 354.556 232.904 354.556C232.369 354.556 231.89 354.438 231.466 354.202C231.042 353.959 230.709 353.618 230.466 353.18C230.229 352.736 230.111 352.218 230.111 351.628C230.111 351.037 230.229 350.52 230.466 350.075C230.702 349.63 231.032 349.29 231.456 349.054C231.879 348.818 232.362 348.699 232.904 348.699C233.446 348.699 233.918 348.818 234.321 349.054C234.731 349.29 235.044 349.61 235.259 350.013C235.482 350.409 235.593 350.85 235.593 351.336ZM234.853 351.315C234.86 350.891 234.773 350.53 234.592 350.231C234.419 349.933 234.179 349.707 233.873 349.554C233.568 349.401 233.234 349.325 232.873 349.325C232.331 349.325 231.869 349.498 231.487 349.846C231.105 350.193 230.893 350.683 230.851 351.315H234.853ZM237.657 346.761V354.473H236.927V346.761H237.657ZM238.975 351.617C238.975 351.034 239.093 350.523 239.329 350.085C239.566 349.641 239.889 349.3 240.299 349.064C240.715 348.821 241.184 348.699 241.705 348.699C242.206 348.699 242.657 348.821 243.06 349.064C243.463 349.307 243.758 349.623 243.946 350.013V346.761H244.675V354.473H243.946V353.201C243.772 353.597 243.487 353.924 243.091 354.181C242.695 354.431 242.23 354.556 241.695 354.556C241.174 354.556 240.705 354.434 240.288 354.191C239.878 353.948 239.555 353.604 239.319 353.16C239.09 352.715 238.975 352.201 238.975 351.617ZM243.946 351.628C243.946 351.169 243.852 350.766 243.665 350.419C243.477 350.072 243.22 349.804 242.893 349.617C242.574 349.429 242.22 349.335 241.83 349.335C241.428 349.335 241.066 349.425 240.747 349.606C240.427 349.787 240.174 350.051 239.986 350.398C239.805 350.739 239.715 351.145 239.715 351.617C239.715 352.083 239.805 352.493 239.986 352.847C240.174 353.194 240.427 353.462 240.747 353.649C241.066 353.83 241.428 353.92 241.83 353.92C242.22 353.92 242.574 353.827 242.893 353.639C243.22 353.451 243.477 353.184 243.665 352.837C243.852 352.489 243.946 352.086 243.946 351.628Z" fill="#CCD2D7"/>
<path d="M222.004 368.833V366.481H226.399V379.775H223.773V368.833H222.004ZM229.724 376.894C230.891 375.921 231.821 375.113 232.514 374.469C233.207 373.812 233.784 373.131 234.246 372.426C234.708 371.721 234.939 371.028 234.939 370.347C234.939 369.727 234.794 369.241 234.502 368.888C234.21 368.536 233.76 368.359 233.152 368.359C232.544 368.359 232.076 368.566 231.748 368.979C231.42 369.381 231.25 369.934 231.237 370.639H228.757C228.806 369.18 229.237 368.074 230.052 367.32C230.879 366.566 231.924 366.189 233.189 366.189C234.575 366.189 235.639 366.56 236.38 367.302C237.122 368.031 237.493 368.998 237.493 370.201C237.493 371.15 237.237 372.055 236.727 372.918C236.216 373.782 235.632 374.535 234.976 375.18C234.319 375.812 233.462 376.578 232.405 377.478H237.784V379.593H228.775V377.696L229.724 376.894ZM240.816 379.903C240.354 379.903 239.971 379.763 239.667 379.484C239.375 379.192 239.229 378.833 239.229 378.408C239.229 377.982 239.375 377.63 239.667 377.35C239.971 377.058 240.354 376.912 240.816 376.912C241.265 376.912 241.636 377.058 241.928 377.35C242.22 377.63 242.366 377.982 242.366 378.408C242.366 378.833 242.22 379.192 241.928 379.484C241.636 379.763 241.265 379.903 240.816 379.903ZM253.066 368.688H247.158V371.806C247.413 371.49 247.778 371.235 248.252 371.04C248.726 370.833 249.231 370.73 249.765 370.73C250.738 370.73 251.534 370.943 252.154 371.368C252.774 371.794 253.224 372.341 253.504 373.01C253.784 373.666 253.923 374.371 253.923 375.125C253.923 376.523 253.522 377.648 252.72 378.499C251.93 379.35 250.799 379.775 249.328 379.775C247.942 379.775 246.835 379.429 246.009 378.736C245.182 378.043 244.714 377.137 244.605 376.019H247.085C247.194 376.505 247.437 376.894 247.814 377.186C248.203 377.478 248.696 377.623 249.291 377.623C250.009 377.623 250.55 377.399 250.914 376.949C251.279 376.499 251.461 375.903 251.461 375.162C251.461 374.408 251.273 373.836 250.896 373.447C250.531 373.046 249.99 372.846 249.273 372.846C248.762 372.846 248.337 372.973 247.997 373.228C247.656 373.484 247.413 373.824 247.267 374.25H244.823V366.444H253.066V368.688ZM255.575 369.745C255.575 368.821 255.842 368.098 256.377 367.575C256.924 367.052 257.623 366.791 258.474 366.791C259.325 366.791 260.018 367.052 260.553 367.575C261.1 368.098 261.374 368.821 261.374 369.745C261.374 370.681 261.1 371.411 260.553 371.934C260.018 372.456 259.325 372.718 258.474 372.718C257.623 372.718 256.924 372.456 256.377 371.934C255.842 371.411 255.575 370.681 255.575 369.745ZM267.283 367.01L260.116 379.775H257.636L264.784 367.01H267.283ZM258.456 368.323C257.787 368.323 257.453 368.797 257.453 369.745C257.453 370.706 257.787 371.186 258.456 371.186C258.784 371.186 259.04 371.07 259.222 370.839C259.404 370.596 259.496 370.232 259.496 369.745C259.496 368.797 259.149 368.323 258.456 368.323ZM263.581 377.022C263.581 376.086 263.848 375.362 264.383 374.852C264.93 374.329 265.629 374.067 266.48 374.067C267.331 374.067 268.018 374.329 268.541 374.852C269.076 375.362 269.343 376.086 269.343 377.022C269.343 377.958 269.076 378.687 268.541 379.21C268.018 379.733 267.331 379.994 266.48 379.994C265.617 379.994 264.918 379.733 264.383 379.21C263.848 378.687 263.581 377.958 263.581 377.022ZM266.462 375.599C265.769 375.599 265.423 376.073 265.423 377.022C265.423 377.982 265.769 378.462 266.462 378.462C267.143 378.462 267.483 377.982 267.483 377.022C267.483 376.073 267.143 375.599 266.462 375.599Z" fill="#0D6EFD"/>
<path opacity="0.75" d="M157.098 346.781V351.366C157.098 352.089 157.268 352.624 157.609 352.971C157.956 353.319 158.429 353.492 159.026 353.492C159.624 353.492 160.089 353.322 160.423 352.982C160.763 352.634 160.933 352.096 160.933 351.366V346.781H161.663V351.356C161.663 352.28 161.416 352.975 160.923 353.44C160.436 353.906 159.801 354.138 159.016 354.138C158.231 354.138 157.592 353.906 157.098 353.44C156.612 352.975 156.369 352.28 156.369 351.356V346.781H157.098ZM165.957 348.271C166.638 348.271 167.194 348.483 167.625 348.907C168.055 349.324 168.271 349.932 168.271 350.731V354.065H167.552V350.814C167.552 350.196 167.395 349.723 167.083 349.397C166.777 349.07 166.357 348.907 165.822 348.907C165.273 348.907 164.835 349.081 164.509 349.428C164.182 349.776 164.019 350.286 164.019 350.96V354.065H163.29V348.376H164.019V349.345C164.2 348.997 164.46 348.733 164.801 348.553C165.141 348.365 165.527 348.271 165.957 348.271ZM170.249 347.302C170.103 347.302 169.978 347.25 169.874 347.146C169.769 347.042 169.717 346.913 169.717 346.76C169.717 346.608 169.769 346.483 169.874 346.385C169.978 346.281 170.103 346.229 170.249 346.229C170.395 346.229 170.52 346.281 170.624 346.385C170.728 346.483 170.78 346.608 170.78 346.76C170.78 346.913 170.728 347.042 170.624 347.146C170.52 347.25 170.395 347.302 170.249 347.302ZM170.614 348.376V354.065H169.884V348.376H170.614ZM173.214 348.99V352.523C173.214 352.871 173.28 353.11 173.412 353.242C173.544 353.374 173.776 353.44 174.11 353.44H174.777V354.065H173.995C173.481 354.065 173.099 353.947 172.849 353.711C172.599 353.468 172.474 353.072 172.474 352.523V348.99H171.682V348.376H172.474V346.948H173.214V348.376H174.777V348.99H173.214ZM179.559 349.626C179.739 349.244 180.024 348.928 180.413 348.678C180.809 348.421 181.278 348.292 181.82 348.292C182.334 348.292 182.796 348.414 183.206 348.657C183.623 348.893 183.946 349.234 184.175 349.678C184.411 350.116 184.529 350.627 184.529 351.21C184.529 351.794 184.411 352.308 184.175 352.752C183.946 353.197 183.623 353.541 183.206 353.784C182.796 354.027 182.334 354.149 181.82 354.149C181.285 354.149 180.82 354.024 180.424 353.774C180.028 353.517 179.739 353.197 179.559 352.815V356.754H178.84V348.376H179.559V349.626ZM183.789 351.21C183.789 350.738 183.696 350.331 183.508 349.991C183.327 349.644 183.077 349.38 182.758 349.199C182.438 349.018 182.077 348.928 181.674 348.928C181.285 348.928 180.927 349.022 180.601 349.209C180.281 349.397 180.028 349.664 179.84 350.012C179.652 350.359 179.559 350.762 179.559 351.221C179.559 351.679 179.652 352.082 179.84 352.429C180.028 352.777 180.281 353.044 180.601 353.232C180.927 353.419 181.285 353.513 181.674 353.513C182.077 353.513 182.438 353.423 182.758 353.242C183.077 353.055 183.327 352.787 183.508 352.44C183.696 352.085 183.789 351.676 183.789 351.21ZM186.601 349.386C186.761 349.032 187.004 348.758 187.331 348.563C187.664 348.369 188.07 348.271 188.55 348.271V349.032H188.352C187.824 349.032 187.4 349.175 187.08 349.459C186.761 349.744 186.601 350.22 186.601 350.887V354.065H185.872V348.376H186.601V349.386ZM190.012 347.302C189.866 347.302 189.741 347.25 189.637 347.146C189.533 347.042 189.48 346.913 189.48 346.76C189.48 346.608 189.533 346.483 189.637 346.385C189.741 346.281 189.866 346.229 190.012 346.229C190.158 346.229 190.283 346.281 190.387 346.385C190.491 346.483 190.543 346.608 190.543 346.76C190.543 346.913 190.491 347.042 190.387 347.146C190.283 347.25 190.158 347.302 190.012 347.302ZM190.377 348.376V354.065H189.647V348.376H190.377ZM191.695 351.221C191.695 350.63 191.813 350.116 192.049 349.678C192.286 349.234 192.612 348.893 193.029 348.657C193.446 348.414 193.922 348.292 194.457 348.292C195.158 348.292 195.735 348.466 196.186 348.813C196.645 349.161 196.94 349.633 197.072 350.231H196.291C196.193 349.821 195.981 349.501 195.655 349.272C195.335 349.036 194.936 348.918 194.457 348.918C194.074 348.918 193.731 349.004 193.425 349.178C193.119 349.352 192.876 349.612 192.695 349.96C192.522 350.3 192.435 350.72 192.435 351.221C192.435 351.721 192.522 352.145 192.695 352.492C192.876 352.839 193.119 353.1 193.425 353.273C193.731 353.447 194.074 353.534 194.457 353.534C194.936 353.534 195.335 353.419 195.655 353.19C195.981 352.954 196.193 352.627 196.291 352.211H197.072C196.94 352.794 196.645 353.263 196.186 353.617C195.728 353.972 195.151 354.149 194.457 354.149C193.922 354.149 193.446 354.031 193.029 353.794C192.612 353.551 192.286 353.211 192.049 352.773C191.813 352.329 191.695 351.811 191.695 351.221ZM203.567 350.929C203.567 351.179 203.56 351.37 203.546 351.502H198.826C198.847 351.933 198.951 352.301 199.138 352.607C199.326 352.912 199.573 353.145 199.878 353.305C200.184 353.458 200.517 353.534 200.879 353.534C201.351 353.534 201.747 353.419 202.067 353.19C202.393 352.961 202.609 352.652 202.713 352.263H203.484C203.345 352.818 203.046 353.273 202.588 353.628C202.136 353.975 201.567 354.149 200.879 354.149C200.344 354.149 199.864 354.031 199.441 353.794C199.017 353.551 198.683 353.211 198.44 352.773C198.204 352.329 198.086 351.811 198.086 351.221C198.086 350.63 198.204 350.112 198.44 349.668C198.676 349.223 199.006 348.883 199.43 348.647C199.854 348.41 200.337 348.292 200.879 348.292C201.421 348.292 201.893 348.41 202.296 348.647C202.706 348.883 203.019 349.202 203.234 349.605C203.456 350.001 203.567 350.442 203.567 350.929ZM202.827 350.908C202.834 350.484 202.748 350.123 202.567 349.824C202.393 349.525 202.154 349.3 201.848 349.147C201.542 348.994 201.209 348.918 200.847 348.918C200.306 348.918 199.844 349.091 199.462 349.439C199.079 349.786 198.868 350.276 198.826 350.908H202.827Z" fill="#CCD2D7"/>
<path d="M165.122 371.794C165.122 372.839 164.788 373.703 164.119 374.383C163.451 375.052 162.557 375.453 161.439 375.587V377.192H160.217V375.605C159.195 375.532 158.32 375.247 157.591 374.748C156.861 374.25 156.338 373.575 156.022 372.724L158.192 371.466C158.582 372.45 159.256 373.003 160.217 373.125V369.97H160.198L160.162 369.952C159.42 369.684 158.758 369.368 158.174 369.004C157.189 368.384 156.661 367.399 156.588 366.049C156.588 364.967 156.934 364.11 157.627 363.478C158.357 362.821 159.22 362.451 160.217 362.366V360.779H161.439V362.402C163.092 362.609 164.259 363.466 164.94 364.973L162.825 366.213C162.533 365.484 162.071 365.04 161.439 364.882V367.928C162.618 368.402 163.378 368.76 163.718 369.004C164.654 369.684 165.122 370.615 165.122 371.794ZM159.086 366.068C159.086 366.335 159.171 366.572 159.341 366.779C159.512 366.973 159.803 367.174 160.217 367.381V364.827C159.463 364.973 159.086 365.387 159.086 366.068ZM161.439 370.463V373.089C162.217 372.931 162.606 372.505 162.606 371.812C162.606 371.265 162.217 370.815 161.439 370.463ZM165.776 363.788L169.131 362.603H171.32V375.368H168.803V365.265L166.396 365.94L165.776 363.788ZM178.372 375.623C176.779 375.623 175.527 375.022 174.615 373.818C173.716 372.59 173.266 370.979 173.266 368.985C173.266 366.992 173.716 365.387 174.615 364.171C175.527 362.955 176.779 362.347 178.372 362.347C179.989 362.347 181.241 362.955 182.129 364.171C183.028 365.387 183.478 366.992 183.478 368.985C183.478 370.979 183.028 372.59 182.129 373.818C181.241 375.022 179.989 375.623 178.372 375.623ZM180.98 368.985C180.98 367.624 180.755 366.584 180.305 365.867C179.867 365.15 179.223 364.791 178.372 364.791C177.521 364.791 176.877 365.15 176.439 365.867C176.001 366.584 175.782 367.624 175.782 368.985C175.782 370.347 176.001 371.387 176.439 372.104C176.877 372.809 177.521 373.162 178.372 373.162C179.223 373.162 179.867 372.803 180.305 372.086C180.755 371.368 180.98 370.335 180.98 368.985ZM189.859 375.623C188.266 375.623 187.014 375.022 186.102 373.818C185.203 372.59 184.753 370.979 184.753 368.985C184.753 366.992 185.203 365.387 186.102 364.171C187.014 362.955 188.266 362.347 189.859 362.347C191.476 362.347 192.728 362.955 193.616 364.171C194.515 365.387 194.965 366.992 194.965 368.985C194.965 370.979 194.515 372.59 193.616 373.818C192.728 375.022 191.476 375.623 189.859 375.623ZM192.467 368.985C192.467 367.624 192.242 366.584 191.792 365.867C191.354 365.15 190.71 364.791 189.859 364.791C189.008 364.791 188.364 365.15 187.926 365.867C187.488 366.584 187.269 367.624 187.269 368.985C187.269 370.347 187.488 371.387 187.926 372.104C188.364 372.809 189.008 373.162 189.859 373.162C190.71 373.162 191.354 372.803 191.792 372.086C192.242 371.368 192.467 370.335 192.467 368.985Z" fill="#0D6EFD"/>
<path opacity="0.15" fill-rule="evenodd" clip-rule="evenodd" d="M155.252 332.623C155.252 332.443 155.394 332.297 155.569 332.297H309.946C310.121 332.297 310.263 332.443 310.263 332.623C310.263 332.802 310.121 332.948 309.946 332.948H155.569C155.394 332.948 155.252 332.802 155.252 332.623Z" fill="#99A6AF" stroke="#0D6EFD" stroke-opacity="0.5" stroke-width="0.651305" stroke-linecap="round"/>
<path d="M163.732 313.249C164.449 313.382 165.039 313.741 165.501 314.325C165.963 314.908 166.194 315.577 166.194 316.331C166.194 317.011 166.024 317.613 165.683 318.136C165.355 318.647 164.875 319.048 164.243 319.34C163.61 319.631 162.863 319.777 161.999 319.777H156.51V307.048H161.762C162.626 307.048 163.367 307.188 163.987 307.468C164.619 307.747 165.094 308.136 165.41 308.635C165.738 309.133 165.902 309.699 165.902 310.331C165.902 311.072 165.701 311.692 165.3 312.191C164.911 312.689 164.388 313.042 163.732 313.249ZM159.063 312.3H161.398C162.006 312.3 162.474 312.167 162.802 311.899C163.13 311.62 163.294 311.224 163.294 310.714C163.294 310.203 163.13 309.808 162.802 309.528C162.474 309.249 162.006 309.109 161.398 309.109H159.063V312.3ZM161.635 317.698C162.255 317.698 162.735 317.552 163.075 317.261C163.428 316.969 163.604 316.556 163.604 316.021C163.604 315.474 163.422 315.048 163.057 314.744C162.692 314.428 162.2 314.27 161.58 314.27H159.063V317.698H161.635ZM169.523 308.471C169.074 308.471 168.697 308.331 168.393 308.051C168.101 307.759 167.955 307.401 167.955 306.975C167.955 306.55 168.101 306.197 168.393 305.918C168.697 305.626 169.074 305.48 169.523 305.48C169.973 305.48 170.344 305.626 170.636 305.918C170.94 306.197 171.092 306.55 171.092 306.975C171.092 307.401 170.94 307.759 170.636 308.051C170.344 308.331 169.973 308.471 169.523 308.471ZM170.782 309.674V319.777H168.229V309.674H170.782ZM177.17 319.941C176.344 319.941 175.602 319.796 174.946 319.504C174.289 319.2 173.766 318.793 173.377 318.282C173 317.771 172.794 317.206 172.757 316.586H175.329C175.377 316.975 175.566 317.297 175.894 317.552C176.234 317.808 176.654 317.935 177.152 317.935C177.638 317.935 178.015 317.838 178.283 317.644C178.562 317.449 178.702 317.2 178.702 316.896C178.702 316.568 178.532 316.325 178.192 316.167C177.863 315.996 177.335 315.814 176.605 315.619C175.851 315.437 175.231 315.249 174.745 315.054C174.271 314.86 173.857 314.562 173.505 314.16C173.164 313.759 172.994 313.218 172.994 312.537C172.994 311.978 173.152 311.468 173.468 311.006C173.797 310.544 174.259 310.179 174.854 309.911C175.462 309.644 176.173 309.51 176.988 309.51C178.192 309.51 179.152 309.814 179.869 310.422C180.587 311.018 180.982 311.826 181.055 312.847H178.611C178.575 312.446 178.404 312.13 178.1 311.899C177.809 311.656 177.414 311.534 176.915 311.534C176.453 311.534 176.094 311.62 175.839 311.79C175.596 311.96 175.474 312.197 175.474 312.501C175.474 312.841 175.645 313.103 175.985 313.285C176.325 313.455 176.854 313.632 177.572 313.814C178.301 313.996 178.903 314.185 179.377 314.379C179.851 314.574 180.258 314.878 180.599 315.291C180.951 315.692 181.134 316.227 181.146 316.896C181.146 317.48 180.982 318.002 180.654 318.464C180.337 318.926 179.876 319.291 179.268 319.559C178.672 319.814 177.973 319.941 177.17 319.941ZM182.585 314.726C182.585 313.68 182.798 312.768 183.224 311.99C183.649 311.2 184.239 310.592 184.992 310.167C185.746 309.729 186.609 309.51 187.582 309.51C188.834 309.51 189.868 309.826 190.682 310.458C191.509 311.079 192.062 311.954 192.342 313.085H189.588C189.442 312.647 189.193 312.306 188.84 312.063C188.5 311.808 188.074 311.68 187.564 311.68C186.834 311.68 186.257 311.948 185.831 312.483C185.406 313.006 185.193 313.753 185.193 314.726C185.193 315.686 185.406 316.434 185.831 316.969C186.257 317.492 186.834 317.753 187.564 317.753C188.597 317.753 189.272 317.291 189.588 316.367H192.342C192.062 317.461 191.509 318.331 190.682 318.975C189.856 319.619 188.822 319.941 187.582 319.941C186.609 319.941 185.746 319.729 184.992 319.303C184.239 318.866 183.649 318.258 183.224 317.48C182.798 316.689 182.585 315.771 182.585 314.726ZM193.556 314.689C193.556 313.668 193.756 312.762 194.157 311.972C194.571 311.182 195.124 310.574 195.817 310.148C196.522 309.723 197.306 309.51 198.17 309.51C198.923 309.51 199.58 309.662 200.139 309.966C200.71 310.27 201.166 310.653 201.507 311.115V309.674H204.078V319.777H201.507V318.3C201.179 318.774 200.723 319.169 200.139 319.486C199.568 319.79 198.905 319.941 198.151 319.941C197.3 319.941 196.522 319.723 195.817 319.285C195.124 318.847 194.571 318.233 194.157 317.443C193.756 316.641 193.556 315.723 193.556 314.689ZM201.507 314.726C201.507 314.106 201.385 313.577 201.142 313.139C200.899 312.689 200.571 312.349 200.157 312.118C199.744 311.875 199.3 311.753 198.826 311.753C198.352 311.753 197.914 311.869 197.513 312.1C197.112 312.331 196.784 312.671 196.528 313.121C196.285 313.559 196.163 314.081 196.163 314.689C196.163 315.297 196.285 315.832 196.528 316.294C196.784 316.744 197.112 317.09 197.513 317.334C197.926 317.577 198.364 317.698 198.826 317.698C199.3 317.698 199.744 317.583 200.157 317.352C200.571 317.109 200.899 316.768 201.142 316.331C201.385 315.881 201.507 315.346 201.507 314.726ZM216.237 309.674L209.982 324.555H207.265L209.453 319.522L205.405 309.674H208.268L210.876 316.732L213.52 309.674H216.237ZM223.212 309.528C224.416 309.528 225.388 309.911 226.13 310.677C226.871 311.431 227.242 312.489 227.242 313.85V319.777H224.689V314.197C224.689 313.395 224.489 312.781 224.087 312.355C223.686 311.917 223.139 311.699 222.446 311.699C221.741 311.699 221.182 311.917 220.768 312.355C220.367 312.781 220.166 313.395 220.166 314.197V319.777H217.613V309.674H220.166V310.933C220.507 310.495 220.938 310.155 221.461 309.911C221.996 309.656 222.58 309.528 223.212 309.528ZM239.062 314.507C239.062 314.872 239.038 315.2 238.989 315.492H231.603C231.664 316.221 231.919 316.793 232.369 317.206C232.819 317.619 233.372 317.826 234.029 317.826C234.977 317.826 235.652 317.419 236.053 316.604H238.807C238.515 317.577 237.956 318.379 237.129 319.011C236.302 319.631 235.287 319.941 234.083 319.941C233.111 319.941 232.235 319.729 231.457 319.303C230.691 318.866 230.09 318.252 229.652 317.461C229.226 316.671 229.014 315.759 229.014 314.726C229.014 313.68 229.226 312.762 229.652 311.972C230.077 311.182 230.673 310.574 231.439 310.148C232.205 309.723 233.086 309.51 234.083 309.51C235.044 309.51 235.901 309.717 236.655 310.13C237.421 310.544 238.01 311.133 238.424 311.899C238.849 312.653 239.062 313.522 239.062 314.507ZM236.418 313.778C236.405 313.121 236.168 312.598 235.706 312.209C235.244 311.808 234.679 311.607 234.01 311.607C233.378 311.607 232.843 311.802 232.406 312.191C231.98 312.568 231.719 313.097 231.621 313.778H236.418ZM252.493 313.249C253.21 313.382 253.8 313.741 254.262 314.325C254.724 314.908 254.955 315.577 254.955 316.331C254.955 317.011 254.784 317.613 254.444 318.136C254.116 318.647 253.635 319.048 253.003 319.34C252.371 319.631 251.623 319.777 250.76 319.777H245.271V307.048H250.523C251.386 307.048 252.128 307.188 252.748 307.468C253.38 307.747 253.854 308.136 254.17 308.635C254.499 309.133 254.663 309.699 254.663 310.331C254.663 311.072 254.462 311.692 254.061 312.191C253.672 312.689 253.149 313.042 252.493 313.249ZM247.824 312.3H250.158C250.766 312.3 251.234 312.167 251.563 311.899C251.891 311.62 252.055 311.224 252.055 310.714C252.055 310.203 251.891 309.808 251.563 309.528C251.234 309.249 250.766 309.109 250.158 309.109H247.824V312.3ZM250.395 317.698C251.015 317.698 251.496 317.552 251.836 317.261C252.189 316.969 252.365 316.556 252.365 316.021C252.365 315.474 252.183 315.048 251.818 314.744C251.453 314.428 250.961 314.27 250.341 314.27H247.824V317.698H250.395ZM259.542 306.282V319.777H256.989V306.282H259.542ZM266.278 317.425L268.831 309.674H271.548L267.809 319.777H264.709L260.989 309.674H263.724L266.278 317.425ZM272.325 314.689C272.325 313.668 272.526 312.762 272.927 311.972C273.341 311.182 273.9 310.574 274.605 310.148C275.31 309.723 276.094 309.51 276.957 309.51C277.614 309.51 278.24 309.656 278.836 309.948C279.432 310.227 279.906 310.604 280.258 311.079V306.282H282.848V319.777H280.258V318.282C279.942 318.78 279.498 319.182 278.927 319.486C278.356 319.79 277.693 319.941 276.939 319.941C276.088 319.941 275.31 319.723 274.605 319.285C273.9 318.847 273.341 318.233 272.927 317.443C272.526 316.641 272.325 315.723 272.325 314.689ZM280.277 314.726C280.277 314.106 280.155 313.577 279.912 313.139C279.669 312.689 279.34 312.349 278.927 312.118C278.514 311.875 278.07 311.753 277.596 311.753C277.122 311.753 276.684 311.869 276.283 312.1C275.882 312.331 275.553 312.671 275.298 313.121C275.055 313.559 274.933 314.081 274.933 314.689C274.933 315.297 275.055 315.832 275.298 316.294C275.553 316.744 275.882 317.09 276.283 317.334C276.696 317.577 277.134 317.698 277.596 317.698C278.07 317.698 278.514 317.583 278.927 317.352C279.34 317.109 279.669 316.768 279.912 316.331C280.155 315.881 280.277 315.346 280.277 314.726Z" fill="#FCFDFD"/>
<g opacity="0.75">
<path d="M163.387 288.258V295.448H162.657V289.706L160.094 295.448H159.562L156.999 289.727V295.448H156.269V288.258H157.04L159.823 294.49L162.605 288.258H163.387ZM165.406 288.685C165.26 288.685 165.135 288.633 165.031 288.529C164.927 288.425 164.875 288.296 164.875 288.143C164.875 287.99 164.927 287.865 165.031 287.768C165.135 287.664 165.26 287.612 165.406 287.612C165.552 287.612 165.677 287.664 165.781 287.768C165.886 287.865 165.938 287.99 165.938 288.143C165.938 288.296 165.886 288.425 165.781 288.529C165.677 288.633 165.552 288.685 165.406 288.685ZM165.771 289.758V295.448H165.041V289.758H165.771ZM167.089 292.593C167.089 292.009 167.204 291.499 167.433 291.061C167.669 290.616 167.992 290.276 168.402 290.04C168.819 289.797 169.288 289.675 169.809 289.675C170.351 289.675 170.817 289.8 171.206 290.05C171.602 290.3 171.886 290.62 172.06 291.009V289.758H172.79V295.448H172.06V294.187C171.879 294.576 171.591 294.899 171.195 295.156C170.806 295.407 170.341 295.532 169.799 295.532C169.285 295.532 168.819 295.41 168.402 295.167C167.992 294.924 167.669 294.58 167.433 294.135C167.204 293.691 167.089 293.176 167.089 292.593ZM172.06 292.603C172.06 292.145 171.966 291.742 171.779 291.395C171.591 291.047 171.334 290.78 171.008 290.592C170.688 290.405 170.334 290.311 169.945 290.311C169.542 290.311 169.18 290.401 168.861 290.582C168.541 290.762 168.288 291.026 168.1 291.374C167.92 291.714 167.829 292.121 167.829 292.593C167.829 293.058 167.92 293.468 168.1 293.823C168.288 294.17 168.541 294.437 168.861 294.625C169.18 294.806 169.542 294.896 169.945 294.896C170.334 294.896 170.688 294.802 171.008 294.615C171.334 294.427 171.591 294.16 171.779 293.812C171.966 293.465 172.06 293.062 172.06 292.603ZM181.228 289.654C181.895 289.654 182.437 289.866 182.854 290.29C183.278 290.707 183.49 291.315 183.49 292.114V295.448H182.771V292.197C182.771 291.579 182.621 291.106 182.323 290.78C182.024 290.453 181.617 290.29 181.103 290.29C180.568 290.29 180.141 290.467 179.822 290.821C179.502 291.176 179.342 291.69 179.342 292.364V295.448H178.623V292.197C178.623 291.579 178.474 291.106 178.175 290.78C177.876 290.453 177.467 290.29 176.945 290.29C176.411 290.29 175.983 290.467 175.664 290.821C175.344 291.176 175.184 291.69 175.184 292.364V295.448H174.455V289.758H175.184V290.738C175.365 290.384 175.622 290.116 175.955 289.936C176.289 289.748 176.661 289.654 177.071 289.654C177.564 289.654 177.994 289.772 178.363 290.009C178.738 290.245 179.009 290.592 179.176 291.051C179.328 290.599 179.589 290.255 179.957 290.019C180.332 289.776 180.756 289.654 181.228 289.654ZM185.475 288.685C185.329 288.685 185.204 288.633 185.099 288.529C184.995 288.425 184.943 288.296 184.943 288.143C184.943 287.99 184.995 287.865 185.099 287.768C185.204 287.664 185.329 287.612 185.475 287.612C185.62 287.612 185.745 287.664 185.85 287.768C185.954 287.865 186.006 287.99 186.006 288.143C186.006 288.296 185.954 288.425 185.85 288.529C185.745 288.633 185.62 288.685 185.475 288.685ZM185.839 289.758V295.448H185.11V289.758H185.839ZM188.158 294.239L187.074 296.97H186.574L187.345 294.239H188.158ZM196.091 288.164V288.768H192.882V291.488H195.591V292.093H192.882V295.448H192.152V288.164H196.091ZM198.021 294.854H200.636V295.448H197.291V288.164H198.021V294.854Z" fill="#CCD2D7"/>
<path d="M163.387 288.258H164.127V287.517H163.387V288.258ZM163.387 295.448V296.189H164.127V295.448H163.387ZM162.657 295.448H161.917V296.189H162.657V295.448ZM162.657 289.706H163.398L161.981 289.404L162.657 289.706ZM160.094 295.448V296.189H160.574L160.77 295.75L160.094 295.448ZM159.562 295.448L158.886 295.751L159.082 296.189H159.562V295.448ZM156.999 289.727L157.675 289.424L156.258 289.727H156.999ZM156.999 295.448V296.189H157.739V295.448H156.999ZM156.269 295.448H155.529V296.189H156.269V295.448ZM156.269 288.258V287.517H155.529V288.258H156.269ZM157.04 288.258L157.717 287.956L157.521 287.517H157.04V288.258ZM159.823 294.49L159.146 294.791L159.823 296.306L160.499 294.791L159.823 294.49ZM162.605 288.258V287.517H162.125L161.929 287.956L162.605 288.258ZM162.646 288.258V295.448H164.127V288.258H162.646ZM163.387 294.708H162.657V296.189H163.387V294.708ZM163.398 295.448V289.706H161.917V295.448H163.398ZM161.981 289.404L159.417 295.146L160.77 295.75L163.334 290.008L161.981 289.404ZM160.094 294.708H159.562V296.189H160.094V294.708ZM160.238 295.145L157.675 289.424L156.323 290.03L158.886 295.751L160.238 295.145ZM156.258 289.727V295.448H157.739V289.727H156.258ZM156.999 294.708H156.269V296.189H156.999V294.708ZM157.01 295.448V288.258H155.529V295.448H157.01ZM156.269 288.999H157.04V287.517H156.269V288.999ZM156.364 288.56L159.146 294.791L160.499 294.188L157.717 287.956L156.364 288.56ZM160.499 294.791L163.281 288.56L161.929 287.956L159.146 294.188L160.499 294.791ZM162.605 288.999H163.387V287.517H162.605V288.999ZM165.031 287.768L165.536 288.31L165.546 288.301L165.555 288.292L165.031 287.768ZM165.781 287.768L165.258 288.292L165.267 288.301L165.276 288.31L165.781 287.768ZM165.771 289.758H166.512V289.018H165.771V289.758ZM165.771 295.448V296.189H166.512V295.448H165.771ZM165.041 295.448H164.301V296.189H165.041V295.448ZM165.041 289.758V289.018H164.301V289.758H165.041ZM165.406 287.944C165.423 287.944 165.453 287.948 165.488 287.962C165.522 287.977 165.545 287.995 165.555 288.005L164.507 289.053C164.749 289.294 165.062 289.426 165.406 289.426V287.944ZM165.555 288.005C165.568 288.019 165.587 288.043 165.6 288.076C165.614 288.109 165.615 288.134 165.615 288.143H164.134C164.134 288.484 164.259 288.804 164.507 289.053L165.555 288.005ZM165.615 288.143C165.615 288.152 165.614 288.181 165.598 288.22C165.581 288.259 165.557 288.29 165.536 288.31L164.526 287.227C164.26 287.475 164.134 287.802 164.134 288.143H165.615ZM165.555 288.292C165.545 288.302 165.522 288.32 165.488 288.335C165.453 288.349 165.423 288.352 165.406 288.352V286.871C165.062 286.871 164.749 287.003 164.507 287.244L165.555 288.292ZM165.406 288.352C165.389 288.352 165.359 288.349 165.325 288.335C165.29 288.32 165.268 288.302 165.258 288.292L166.305 287.244C166.064 287.003 165.751 286.871 165.406 286.871V288.352ZM165.276 288.31C165.255 288.29 165.231 288.259 165.215 288.22C165.199 288.181 165.197 288.152 165.197 288.143H166.678C166.678 287.802 166.553 287.475 166.287 287.227L165.276 288.31ZM165.197 288.143C165.197 288.134 165.199 288.109 165.212 288.076C165.226 288.043 165.244 288.019 165.258 288.005L166.305 289.053C166.554 288.804 166.678 288.484 166.678 288.143H165.197ZM165.258 288.005C165.268 287.995 165.29 287.977 165.325 287.962C165.359 287.948 165.389 287.944 165.406 287.944V289.426C165.751 289.426 166.064 289.294 166.305 289.053L165.258 288.005ZM165.03 289.758V295.448H166.512V289.758H165.03ZM165.771 294.708H165.041V296.189H165.771V294.708ZM165.782 295.448V289.758H164.301V295.448H165.782ZM165.041 290.499H165.771V289.018H165.041V290.499ZM167.433 291.061L166.779 290.714L166.777 290.717L167.433 291.061ZM168.402 290.04L168.772 290.682L168.776 290.68L168.402 290.04ZM171.206 290.05L170.805 290.673L170.81 290.676L171.206 290.05ZM172.06 291.009L171.384 291.311L172.801 291.009H172.06ZM172.06 289.758V289.018H171.319V289.758H172.06ZM172.79 289.758H173.53V289.018H172.79V289.758ZM172.79 295.448V296.189H173.53V295.448H172.79ZM172.06 295.448H171.319V296.189H172.06V295.448ZM172.06 294.187H172.801L171.388 293.875L172.06 294.187ZM171.195 295.156L171.596 295.78L171.598 295.778L171.195 295.156ZM168.402 295.167L168.024 295.804L168.029 295.807L168.402 295.167ZM167.433 294.135L166.775 294.475L166.779 294.483L167.433 294.135ZM171.779 291.395L172.43 291.043L171.779 291.395ZM171.008 290.592L170.633 291.231L170.639 291.234L171.008 290.592ZM168.861 290.582L169.225 291.226V291.226L168.861 290.582ZM168.1 291.374L167.448 291.022L167.446 291.027L168.1 291.374ZM168.1 293.823L167.44 294.159L167.444 294.167L167.448 294.175L168.1 293.823ZM168.861 294.625L168.486 295.264L168.496 295.27L168.861 294.625ZM171.008 294.615L170.639 293.972L170.633 293.976L171.008 294.615ZM171.779 293.812L172.43 294.164L171.779 293.812ZM167.83 292.593C167.83 292.107 167.925 291.719 168.089 291.405L166.777 290.717C166.483 291.279 166.349 291.911 166.349 292.593H167.83ZM168.087 291.409C168.263 291.079 168.491 290.844 168.772 290.682L168.033 289.398C167.494 289.708 167.076 290.154 166.779 290.714L168.087 291.409ZM168.776 290.68C169.07 290.508 169.408 290.416 169.809 290.416V288.934C169.168 288.934 168.568 289.086 168.029 289.4L168.776 290.68ZM169.809 290.416C170.234 290.416 170.555 290.512 170.805 290.673L171.606 289.427C171.078 289.088 170.468 288.934 169.809 288.934V290.416ZM170.81 290.676C171.095 290.857 171.276 291.068 171.384 291.311L172.736 290.707C172.497 290.171 172.108 289.744 171.601 289.424L170.81 290.676ZM172.801 291.009V289.758H171.319V291.009H172.801ZM172.06 290.499H172.79V289.018H172.06V290.499ZM172.049 289.758V295.448H173.53V289.758H172.049ZM172.79 294.708H172.06V296.189H172.79V294.708ZM172.801 295.448V294.187H171.319V295.448H172.801ZM171.388 293.875C171.272 294.126 171.083 294.346 170.792 294.535L171.598 295.778C172.099 295.453 172.487 295.027 172.732 294.499L171.388 293.875ZM170.795 294.533C170.544 294.694 170.223 294.791 169.799 294.791V296.272C170.458 296.272 171.068 296.119 171.596 295.779L170.795 294.533ZM169.799 294.791C169.407 294.791 169.072 294.7 168.776 294.527L168.029 295.807C168.567 296.12 169.162 296.272 169.799 296.272V294.791ZM168.78 294.53C168.494 294.36 168.264 294.119 168.087 293.788L166.779 294.483C167.075 295.04 167.491 295.487 168.024 295.804L168.78 294.53ZM168.092 293.796C167.925 293.472 167.83 293.078 167.83 292.593H166.349C166.349 293.275 166.483 293.909 166.775 294.475L168.092 293.796ZM172.801 292.603C172.801 292.042 172.685 291.514 172.43 291.043L171.127 291.746C171.247 291.969 171.319 292.248 171.319 292.603H172.801ZM172.43 291.043C172.181 290.58 171.828 290.209 171.377 289.95L170.639 291.234C170.84 291.35 171.002 291.514 171.127 291.746L172.43 291.043ZM171.383 289.953C170.944 289.696 170.459 289.57 169.945 289.57V291.051C170.209 291.051 170.433 291.113 170.633 291.231L171.383 289.953ZM169.945 289.57C169.427 289.57 168.938 289.687 168.496 289.937L169.225 291.226C169.423 291.115 169.657 291.051 169.945 291.051V289.57ZM168.496 289.937C168.046 290.191 167.697 290.561 167.448 291.022L168.752 291.726C168.878 291.491 169.036 291.333 169.225 291.226L168.496 289.937ZM167.446 291.027C167.197 291.495 167.089 292.026 167.089 292.593H168.57C168.57 292.215 168.642 291.933 168.754 291.721L167.446 291.027ZM167.089 292.593C167.089 293.155 167.198 293.684 167.44 294.159L168.76 293.486C168.641 293.252 168.57 292.961 168.57 292.593H167.089ZM167.448 294.175C167.696 294.633 168.042 295.003 168.486 295.264L169.236 293.986C169.041 293.872 168.88 293.707 168.752 293.471L167.448 294.175ZM168.496 295.27C168.938 295.519 169.427 295.637 169.945 295.637V294.155C169.657 294.155 169.423 294.092 169.225 293.98L168.496 295.27ZM169.945 295.637C170.459 295.637 170.944 295.511 171.383 295.253L170.633 293.976C170.433 294.093 170.209 294.155 169.945 294.155V295.637ZM171.377 295.257C171.828 294.997 172.181 294.626 172.43 294.164L171.127 293.46C171.002 293.693 170.84 293.857 170.639 293.972L171.377 295.257ZM172.43 294.164C172.685 293.692 172.801 293.165 172.801 292.603H171.319C171.319 292.959 171.247 293.237 171.127 293.46L172.43 294.164ZM182.854 290.29L182.326 290.809L182.335 290.818L182.854 290.29ZM183.49 295.448V296.189H184.23V295.448H183.49ZM182.771 295.448H182.03V296.189H182.771V295.448ZM182.323 290.78L181.776 291.28V291.28L182.323 290.78ZM179.822 290.821L179.272 290.325L179.822 290.821ZM179.342 295.448V296.189H180.083V295.448H179.342ZM178.623 295.448H177.883V296.189H178.623V295.448ZM178.175 290.78L177.629 291.28V291.28L178.175 290.78ZM175.664 290.821L175.114 290.325L175.664 290.821ZM175.184 295.448V296.189H175.925V295.448H175.184ZM174.455 295.448H173.714V296.189H174.455V295.448ZM174.455 289.758V289.018H173.714V289.758H174.455ZM175.184 289.758H175.925V289.018H175.184V289.758ZM175.184 290.738H174.444L175.844 291.074L175.184 290.738ZM175.955 289.936L176.308 290.587L176.319 290.581L175.955 289.936ZM178.363 290.009L177.963 290.632L177.968 290.635L178.363 290.009ZM179.176 291.051L178.479 291.304L179.201 293.287L179.877 291.288L179.176 291.051ZM179.957 290.019L180.357 290.642L180.36 290.641L179.957 290.019ZM181.228 290.395C181.723 290.395 182.066 290.545 182.326 290.809L183.382 289.771C182.809 289.187 182.067 288.914 181.228 288.914V290.395ZM182.335 290.818C182.574 291.053 182.749 291.443 182.749 292.114H184.23C184.23 291.187 183.982 290.361 183.373 289.762L182.335 290.818ZM182.749 292.114V295.448H184.23V292.114H182.749ZM183.49 294.708H182.771V296.189H183.49V294.708ZM183.511 295.448V292.197H182.03V295.448H183.511ZM183.511 292.197C183.511 291.467 183.335 290.789 182.869 290.28L181.776 291.28C181.908 291.424 182.03 291.69 182.03 292.197H183.511ZM182.869 290.28C182.407 289.775 181.789 289.549 181.103 289.549V291.031C181.446 291.031 181.641 291.132 181.776 291.28L182.869 290.28ZM181.103 289.549C180.387 289.549 179.749 289.795 179.272 290.325L180.372 291.317C180.533 291.139 180.75 291.031 181.103 291.031V289.549ZM179.272 290.325C178.787 290.863 178.602 291.582 178.602 292.364H180.083C180.083 291.798 180.217 291.489 180.372 291.317L179.272 290.325ZM178.602 292.364V295.448H180.083V292.364H178.602ZM179.342 294.708H178.623V296.189H179.342V294.708ZM179.364 295.448V292.197H177.883V295.448H179.364ZM179.364 292.197C179.364 291.467 179.187 290.789 178.722 290.28L177.629 291.28C177.76 291.424 177.883 291.69 177.883 292.197H179.364ZM178.722 290.28C178.258 289.772 177.634 289.549 176.945 289.549V291.031C177.299 291.031 177.495 291.134 177.629 291.28L178.722 290.28ZM176.945 289.549C176.229 289.549 175.592 289.795 175.114 290.325L176.214 291.317C176.375 291.139 176.592 291.031 176.945 291.031V289.549ZM175.114 290.325C174.629 290.863 174.444 291.582 174.444 292.364H175.925C175.925 291.798 176.059 291.489 176.214 291.317L175.114 290.325ZM174.444 292.364V295.448H175.925V292.364H174.444ZM175.184 294.708H174.455V296.189H175.184V294.708ZM175.196 295.448V289.758H173.714V295.448H175.196ZM174.455 290.499H175.184V289.018H174.455V290.499ZM174.444 289.758V290.738H175.925V289.758H174.444ZM175.844 291.074C175.96 290.847 176.113 290.692 176.308 290.587L175.603 289.284C175.131 289.54 174.77 289.921 174.524 290.402L175.844 291.074ZM176.319 290.581C176.533 290.46 176.778 290.395 177.071 290.395V288.914C176.543 288.914 176.045 289.036 175.592 289.29L176.319 290.581ZM177.071 290.395C177.441 290.395 177.729 290.482 177.963 290.632L178.763 289.385C178.26 289.063 177.687 288.914 177.071 288.914V290.395ZM177.968 290.635C178.19 290.775 178.363 290.983 178.479 291.304L179.872 290.798C179.655 290.201 179.286 289.714 178.757 289.382L177.968 290.635ZM179.877 291.288C179.981 290.98 180.143 290.78 180.357 290.642L179.557 289.396C179.035 289.731 178.675 290.218 178.474 290.813L179.877 291.288ZM180.36 290.641C180.608 290.48 180.89 290.395 181.228 290.395V288.914C180.622 288.914 180.056 289.072 179.554 289.397L180.36 290.641ZM185.099 287.768L185.605 288.31L185.614 288.301L185.623 288.292L185.099 287.768ZM185.85 287.768L185.326 288.292L185.335 288.301L185.344 288.31L185.85 287.768ZM185.839 289.758H186.58V289.018H185.839V289.758ZM185.839 295.448V296.189H186.58V295.448H185.839ZM185.11 295.448H184.369V296.189H185.11V295.448ZM185.11 289.758V289.018H184.369V289.758H185.11ZM185.475 287.944C185.492 287.944 185.522 287.948 185.556 287.962C185.591 287.977 185.613 287.995 185.623 288.005L184.576 289.053C184.817 289.294 185.13 289.426 185.475 289.426V287.944ZM185.623 288.005C185.637 288.019 185.655 288.043 185.669 288.076C185.682 288.109 185.684 288.134 185.684 288.143H184.202C184.202 288.484 184.327 288.804 184.576 289.053L185.623 288.005ZM185.684 288.143C185.684 288.152 185.682 288.181 185.666 288.22C185.649 288.259 185.626 288.29 185.605 288.31L184.594 287.227C184.328 287.475 184.202 287.802 184.202 288.143H185.684ZM185.623 288.292C185.613 288.302 185.591 288.32 185.556 288.335C185.522 288.349 185.492 288.352 185.475 288.352V286.871C185.13 286.871 184.817 287.003 184.576 287.244L185.623 288.292ZM185.475 288.352C185.457 288.352 185.427 288.349 185.393 288.335C185.359 288.32 185.336 288.302 185.326 288.292L186.373 287.244C186.132 287.003 185.819 286.871 185.475 286.871V288.352ZM185.344 288.31C185.324 288.29 185.3 288.259 185.283 288.22C185.267 288.181 185.265 288.152 185.265 288.143H186.747C186.747 287.802 186.621 287.475 186.355 287.227L185.344 288.31ZM185.265 288.143C185.265 288.134 185.267 288.109 185.281 288.076C185.294 288.043 185.312 288.019 185.326 288.005L186.373 289.053C186.622 288.804 186.747 288.484 186.747 288.143H185.265ZM185.326 288.005C185.336 287.995 185.359 287.977 185.393 287.962C185.427 287.948 185.457 287.944 185.475 287.944V289.426C185.819 289.426 186.132 289.294 186.373 289.053L185.326 288.005ZM185.099 289.758V295.448H186.58V289.758H185.099ZM185.839 294.708H185.11V296.189H185.839V294.708ZM185.85 295.448V289.758H184.369V295.448H185.85ZM185.11 290.499H185.839V289.018H185.11V290.499ZM188.158 294.239L188.847 294.513L189.249 293.499H188.158V294.239ZM187.074 296.97V297.71H187.577L187.763 297.243L187.074 296.97ZM186.574 296.97L185.861 296.768L185.595 297.71H186.574V296.97ZM187.345 294.239V293.499H186.785L186.632 294.038L187.345 294.239ZM187.47 293.966L186.386 296.696L187.763 297.243L188.847 294.513L187.47 293.966ZM187.074 296.229H186.574V297.71H187.074V296.229ZM187.287 297.171L188.058 294.441L186.632 294.038L185.861 296.768L187.287 297.171ZM187.345 294.98H188.158V293.499H187.345V294.98ZM196.091 288.164H196.832V287.423H196.091V288.164ZM196.091 288.768V289.509H196.832V288.768H196.091ZM192.882 288.768V288.028H192.141V288.768H192.882ZM192.882 291.488H192.141V292.229H192.882V291.488ZM195.591 291.488H196.332V290.748H195.591V291.488ZM195.591 292.093V292.833H196.332V292.093H195.591ZM192.882 292.093V291.352H192.141V292.093H192.882ZM192.882 295.448V296.189H193.622V295.448H192.882ZM192.152 295.448H191.411V296.189H192.152V295.448ZM192.152 288.164V287.423H191.411V288.164H192.152ZM195.35 288.164V288.768H196.832V288.164H195.35ZM196.091 288.028H192.882V289.509H196.091V288.028ZM192.141 288.768V291.488H193.622V288.768H192.141ZM192.882 292.229H195.591V290.748H192.882V292.229ZM194.85 291.488V292.093H196.332V291.488H194.85ZM195.591 291.352H192.882V292.833H195.591V291.352ZM192.141 292.093V295.448H193.622V292.093H192.141ZM192.882 294.708H192.152V296.189H192.882V294.708ZM192.893 295.448V288.164H191.411V295.448H192.893ZM192.152 288.905H196.091V287.423H192.152V288.905ZM198.021 294.854H197.28V295.595H198.021V294.854ZM200.636 294.854H201.377V294.114H200.636V294.854ZM200.636 295.448V296.189H201.377V295.448H200.636ZM197.291 295.448H196.551V296.189H197.291V295.448ZM197.291 288.164V287.423H196.551V288.164H197.291ZM198.021 288.164H198.761V287.423H198.021V288.164ZM198.021 295.595H200.636V294.114H198.021V295.595ZM199.896 294.854V295.448H201.377V294.854H199.896ZM200.636 294.708H197.291V296.189H200.636V294.708ZM198.032 295.448V288.164H196.551V295.448H198.032ZM197.291 288.905H198.021V287.423H197.291V288.905ZM197.28 288.164V294.854H198.761V288.164H197.28Z" fill="#0D6EFD" fill-opacity="0.5"/>
</g>
<defs>
<filter id="filter0_b_9302_19721" x="112.261" y="244.892" width="238.872" height="169.905" filterUnits="userSpaceOnUse" color-interpolation-filters="sRGB">
<feFlood flood-opacity="0" result="BackgroundImageFix"/>
<feGaussianBlur in="BackgroundImageFix" stdDeviation="11.3978"/>
<feComposite in2="SourceAlpha" operator="in" result="effect1_backgroundBlur_9302_19721"/>
<feBlend mode="normal" in="SourceGraphic" in2="effect1_backgroundBlur_9302_19721" result="shape"/>
</filter>
</defs>
</svg>
