<svg xmlns="http://www.w3.org/2000/svg" width="32" height="41" viewBox="0 0 32 41" fill="none">
    <path d="M15.3681 0.624191C15.2492 0.694588 14.9444 0.944889 14.6991 1.18737C11.3986 4.40997 7.47373 6.02127 2.39663 6.24028C0.984256 6.30286 0.880187 6.32632 0.567978 6.60791C0.0401969 7.10069 0.0624975 6.93643 0.0178963 10.9725C-0.0490056 16.7294 0.0624975 19.295 0.50851 22.236C1.4823 28.6499 4.19554 33.4994 8.71513 36.8785C10.2613 38.0361 12.2015 39.1312 14.2531 39.9994C15.3458 40.4609 15.4871 40.5 16 40.5C16.5055 40.5 16.6542 40.4609 17.6354 40.0385C18.9288 39.491 20.2966 38.8105 21.2258 38.2629C27.0314 34.79 30.3765 29.565 31.4915 22.2282C31.9375 19.295 32.049 16.7216 31.9821 10.9725C31.9375 6.93643 31.9598 7.10069 31.432 6.60791C31.1198 6.32632 31.0157 6.30286 29.6034 6.24028C24.5411 6.02909 20.5865 4.40215 17.3306 1.21865C17.0704 0.960533 16.7508 0.686768 16.617 0.616371C16.3122 0.459934 15.6581 0.459934 15.3681 0.624191ZM16.7211 4.48819C19.9175 7.18673 23.939 8.75892 28.4214 9.05615L29.2094 9.1109L29.2614 12.2553C29.3506 17.7932 29.1053 20.9454 28.3397 24.1367C27.2023 28.9158 24.7195 32.5139 20.7426 35.189C19.8729 35.7756 17.6205 36.9567 16.6542 37.34L16 37.5903L15.3533 37.34C14.216 36.8941 11.919 35.6583 10.8709 34.923C7.12436 32.2949 4.76793 28.775 3.66033 24.1367C2.89468 20.9454 2.64937 17.7932 2.73857 12.2553L2.79061 9.1109L3.57856 9.05615C6.15056 8.88407 8.96044 8.18792 11.0493 7.20237C12.4914 6.52187 14.3498 5.30948 15.4053 4.37086C15.6729 4.1362 15.9257 3.94066 15.9777 3.94066C16.0297 3.93283 16.3642 4.18314 16.7211 4.48819Z" fill="#0D6EFD"/>
    <path d="M20.9787 15.322C20.8151 15.3924 19.4994 16.7221 17.4329 18.8966L14.1398 22.3538L12.6382 20.7738C10.9954 19.0608 10.9657 19.0374 10.2223 19.1312C9.44925 19.2173 8.94377 20.062 9.15934 20.9146C9.23368 21.2118 9.50129 21.5325 11.263 23.4019C12.5713 24.7864 13.389 25.5921 13.5823 25.6859C13.9465 25.8658 14.3554 25.8737 14.7196 25.7172C14.9055 25.6312 16.184 24.3406 18.7709 21.6264C22.9114 17.2774 22.9783 17.1914 22.8817 16.4718C22.7553 15.5097 21.8112 14.9465 20.9787 15.322Z" fill="#0D6EFD"/>
    </svg>