<svg width="1151" height="183" viewBox="0 0 1151 183" fill="none" xmlns="http://www.w3.org/2000/svg">
<path opacity="0.3" fill-rule="evenodd" clip-rule="evenodd" d="M4.56289 53.375H19.7085C21.7769 53.375 23.586 51.9824 24.1151 49.9829L35.8288 5.72461C36.5941 2.83274 34.4136 0 31.4222 0H22.4416C20.5833 0 18.9111 1.12801 18.2151 2.85099L0.33638 47.1093C-0.874001 50.1056 1.33139 53.375 4.56289 53.375ZM35.7136 53.375H50.8563C52.9173 53.375 54.7219 51.9921 55.2579 50.002L67.177 5.7437C67.957 2.84726 65.7751 0 62.7755 0H53.7978C51.9462 0 50.2785 1.1201 49.5782 2.83416L31.494 47.0925C30.2687 50.0911 32.4744 53.375 35.7136 53.375ZM32.3777 4.26188C32.2528 3.86233 31.881 3.55859 31.4222 3.55859H22.4416C22.0339 3.55859 21.6671 3.80605 21.5144 4.18404L3.63568 48.4424C3.61125 48.5029 3.59315 48.5639 3.58099 48.6247C3.59314 48.5638 3.61121 48.5027 3.63568 48.4421L21.5144 4.18378C21.6671 3.80579 22.0339 3.55833 22.4416 3.55833H31.4222C31.8811 3.55833 32.2529 3.8622 32.3777 4.26188ZM63.7342 4.27241C63.6127 3.86779 63.2385 3.55859 62.7755 3.55859H53.7978C53.3916 3.55859 53.0258 3.80432 52.8721 4.18035L34.7879 48.4387C34.7692 48.4845 34.7541 48.5307 34.7425 48.5769C34.7541 48.5306 34.7692 48.4844 34.7879 48.4384L52.8721 4.18009C53.0258 3.80406 53.3916 3.55833 53.7978 3.55833H62.7755C63.2386 3.55833 63.6128 3.86767 63.7342 4.27241ZM1087.56 179.375H1102.71C1104.78 179.375 1106.59 177.982 1107.12 175.983L1118.83 131.725C1119.59 128.833 1117.41 126 1114.42 126H1105.44C1103.58 126 1101.91 127.128 1101.22 128.851L1083.34 173.109C1082.13 176.106 1084.33 179.375 1087.56 179.375ZM1118.71 179.375H1133.86C1135.92 179.375 1137.72 177.992 1138.26 176.002L1150.18 131.744C1150.96 128.847 1148.78 126 1145.78 126H1136.8C1134.95 126 1133.28 127.12 1132.58 128.834L1114.49 173.092C1113.27 176.091 1115.47 179.375 1118.71 179.375Z" fill="#0D6EFD" fill-opacity="0.5"/>
<path d="M414.08 180.559H35.0804C30.1099 180.559 26.0804 176.529 26.0804 171.559V78.0586M743.08 180.559H1060.58M87.5804 11.5586H1116.08C1121.05 11.5586 1125.08 15.588 1125.08 20.5586V107.559" stroke="#0D6EFD" stroke-opacity="0.15" stroke-width="3"/>
</svg>
