<svg width="53" height="59" viewBox="0 0 53 59" fill="none" xmlns="http://www.w3.org/2000/svg">
<path fill-rule="evenodd" clip-rule="evenodd" d="M6.86786 7.99654L21.7028 1.07437C24.7729 -0.358121 28.2772 -0.358124 31.3471 1.07437L46.1234 7.96909C50.4444 9.9853 53.2806 14.5168 52.9779 19.471C51.8166 38.4737 46.6418 47.0641 32.6535 57.0301C28.9619 59.6602 24.0922 59.6538 20.3979 57.028C6.45246 47.1158 1.08565 38.6452 0.0181528 19.4043C-0.2549 14.4827 2.57683 9.99878 6.86786 7.99654ZM36.9951 25.057C37.7983 24.1374 37.7053 22.7395 36.7873 21.935C35.8695 21.1303 34.4744 21.2234 33.6712 22.1431L25.2211 31.8188C24.9616 32.1157 24.5148 32.1555 24.2071 31.909L19.0461 27.7723C18.0938 27.0091 16.704 27.1637 15.9421 28.1179C15.1802 29.072 15.3347 30.4644 16.287 31.2277L21.4482 35.3643C23.6014 37.0901 26.7291 36.8117 28.5449 34.7326L36.9951 25.057Z" fill="#0D6EFD"/>
</svg>
