<svg xmlns="http://www.w3.org/2000/svg" width="566" height="672" viewBox="0 0 566 672" fill="none">
    <path
        d="M213.331 26.3186C179.801 40.3334 120.86 64.8267 82.3516 80.8062C7.56212 111.848 3.89469 113.813 1.01314 123.637C0.0962786 126.911 -0.165681 156.251 0.0962786 218.073C0.751178 317.356 0.882157 319.713 10.5747 362.151C40.831 495.75 135.66 610.227 261.663 665.369C280.262 673.49 285.632 673.49 303.969 665.238C404.038 620.967 484.853 540.414 528.469 441.525C544.448 405.243 555.451 367.259 562 325.477C564.881 307.008 565.012 303.734 565.012 214.668V128.824C565.012 124.953 563.722 121.192 561.345 118.135C559.249 115.385 556.237 112.372 554.534 111.193C552.7 110.015 492.58 84.7356 420.803 54.8722C295.849 3.00415 289.824 0.646545 282.227 0.777527C274.892 0.908508 268.867 3.13519 213.331 26.3186ZM399.192 104.383L488.707 141.561C503.788 147.825 513.547 162.626 513.362 178.955L512.882 221.348C512.096 295.089 511.179 307.794 504.761 339.098C486.948 426.724 438.224 507.276 368.935 563.205C345.49 582.066 291.002 614.942 283.013 614.942C277.642 614.942 245.16 597.391 222.369 582.066C146.925 531.508 89.0316 449.907 66.1101 362.151C54.9768 319.189 53.536 304.782 52.6192 221.348L52.1389 178.924C51.9542 162.611 61.695 147.82 76.7547 141.547L165.655 104.513C228.263 78.4485 280.655 57.0989 282.096 57.0989C283.537 56.9679 336.19 78.3176 399.192 104.383Z"
        fill="url(#paint0_linear_1041_29547)" />
    <defs>
        <linearGradient id="paint0_linear_1041_29547" x1="292" y1="31.9434" x2="97.5" y2="740.943"
            gradientUnits="userSpaceOnUse">
            <stop stop-color="#0D6EFD" stop-opacity="0.24" />
            <stop offset="1" stop-color="#0D6EFD" stop-opacity="0" />
        </linearGradient>
    </defs>
</svg>