<svg width="767" height="241" viewBox="0 0 767 241" fill="none" xmlns="http://www.w3.org/2000/svg">
<path d="M3.072 12.804V11.748C2.52 11.7 2.004 11.564 1.524 11.34C1.044 11.108 0.624 10.796 0.264 10.404L0.816 9.816C1.456 10.504 2.208 10.908 3.072 11.028V8.076L2.652 7.992C1.852 7.816 1.284 7.576 0.948 7.272C0.612 6.96 0.444 6.52 0.444 5.952C0.444 5.528 0.556 5.156 0.78 4.836C1.004 4.516 1.312 4.268 1.704 4.092C2.104 3.908 2.56 3.816 3.072 3.816V2.796H3.684V3.84C4.148 3.896 4.6 4.012 5.04 4.188C5.488 4.356 5.904 4.58 6.288 4.86L5.832 5.532C5.464 5.276 5.1 5.072 4.74 4.92C4.388 4.768 4.036 4.664 3.684 4.608V7.38L4.092 7.464C4.956 7.656 5.564 7.908 5.916 8.22C6.268 8.532 6.444 8.972 6.444 9.54C6.444 9.964 6.328 10.34 6.096 10.668C5.864 10.996 5.54 11.256 5.124 11.448C4.708 11.64 4.228 11.748 3.684 11.772V12.804H3.072ZM3.072 7.26V4.56C2.536 4.568 2.1 4.692 1.764 4.932C1.436 5.172 1.272 5.488 1.272 5.88C1.272 6.128 1.32 6.336 1.416 6.504C1.52 6.672 1.688 6.812 1.92 6.924C2.152 7.036 2.472 7.136 2.88 7.224L3.072 7.26ZM3.684 11.052C4.244 11.02 4.7 10.872 5.052 10.608C5.412 10.336 5.592 9.992 5.592 9.576C5.592 9.328 5.54 9.124 5.436 8.964C5.332 8.796 5.156 8.656 4.908 8.544C4.66 8.424 4.312 8.32 3.864 8.232L3.684 8.196V11.052ZM8.56059 12V4.524L7.14459 5.148V4.344L8.87259 3.6H9.43659V12H8.56059ZM14.2493 12.132C13.5773 12.132 12.9853 11.948 12.4733 11.58C11.9613 11.212 11.5573 10.704 11.2613 10.056C10.9733 9.4 10.8293 8.648 10.8293 7.8C10.8293 6.952 10.9733 6.204 11.2613 5.556C11.5573 4.9 11.9613 4.388 12.4733 4.02C12.9853 3.652 13.5773 3.468 14.2493 3.468C14.9213 3.468 15.5133 3.652 16.0253 4.02C16.5373 4.388 16.9373 4.9 17.2253 5.556C17.5213 6.204 17.6693 6.952 17.6693 7.8C17.6693 8.648 17.5213 9.4 17.2253 10.056C16.9373 10.704 16.5373 11.212 16.0253 11.58C15.5133 11.948 14.9213 12.132 14.2493 12.132ZM14.2493 11.352C14.7693 11.352 15.2173 11.208 15.5933 10.92C15.9773 10.624 16.2733 10.208 16.4813 9.672C16.6893 9.136 16.7933 8.512 16.7933 7.8C16.7933 7.08 16.6893 6.456 16.4813 5.928C16.2733 5.392 15.9773 4.98 15.5933 4.692C15.2173 4.396 14.7693 4.248 14.2493 4.248C13.7373 4.248 13.2893 4.396 12.9053 4.692C12.5213 4.98 12.2253 5.392 12.0173 5.928C11.8093 6.456 11.7053 7.08 11.7053 7.8C11.7053 8.512 11.8093 9.136 12.0173 9.672C12.2253 10.208 12.5213 10.624 12.9053 10.92C13.2893 11.208 13.7373 11.352 14.2493 11.352ZM22.1947 12.132C21.5227 12.132 20.9307 11.948 20.4187 11.58C19.9067 11.212 19.5027 10.704 19.2067 10.056C18.9187 9.4 18.7747 8.648 18.7747 7.8C18.7747 6.952 18.9187 6.204 19.2067 5.556C19.5027 4.9 19.9067 4.388 20.4187 4.02C20.9307 3.652 21.5227 3.468 22.1947 3.468C22.8667 3.468 23.4587 3.652 23.9707 4.02C24.4827 4.388 24.8827 4.9 25.1707 5.556C25.4667 6.204 25.6147 6.952 25.6147 7.8C25.6147 8.648 25.4667 9.4 25.1707 10.056C24.8827 10.704 24.4827 11.212 23.9707 11.58C23.4587 11.948 22.8667 12.132 22.1947 12.132ZM22.1947 11.352C22.7147 11.352 23.1627 11.208 23.5387 10.92C23.9227 10.624 24.2187 10.208 24.4267 9.672C24.6347 9.136 24.7387 8.512 24.7387 7.8C24.7387 7.08 24.6347 6.456 24.4267 5.928C24.2187 5.392 23.9227 4.98 23.5387 4.692C23.1627 4.396 22.7147 4.248 22.1947 4.248C21.6827 4.248 21.2347 4.396 20.8507 4.692C20.4667 4.98 20.1707 5.392 19.9627 5.928C19.7547 6.456 19.6507 7.08 19.6507 7.8C19.6507 8.512 19.7547 9.136 19.9627 9.672C20.1707 10.208 20.4667 10.624 20.8507 10.92C21.2347 11.208 21.6827 11.352 22.1947 11.352ZM27.3047 12.072C27.1367 12.072 26.9927 12.012 26.8727 11.892C26.7527 11.772 26.6927 11.628 26.6927 11.46C26.6927 11.292 26.7527 11.148 26.8727 11.028C26.9927 10.908 27.1367 10.848 27.3047 10.848C27.4727 10.848 27.6167 10.908 27.7367 11.028C27.8567 11.148 27.9167 11.292 27.9167 11.46C27.9167 11.628 27.8567 11.772 27.7367 11.892C27.6167 12.012 27.4727 12.072 27.3047 12.072ZM33.6 12V9.756H28.824V9.06L33.54 3.6H34.476V9H35.484V9.756H34.476V12H33.6ZM29.904 9H33.6V4.716L29.904 9ZM39.4125 12.132C38.8365 12.132 38.3245 12.028 37.8765 11.82C37.4285 11.612 37.0725 11.328 36.8085 10.968C36.5525 10.6 36.4245 10.188 36.4245 9.732C36.4245 9.388 36.5085 9.072 36.6765 8.784C36.8445 8.488 37.0765 8.236 37.3725 8.028C37.6765 7.812 38.0205 7.66 38.4045 7.572C37.9165 7.436 37.5165 7.192 37.2045 6.84C36.9005 6.488 36.7485 6.092 36.7485 5.652C36.7485 5.236 36.8645 4.864 37.0965 4.536C37.3285 4.208 37.6445 3.948 38.0445 3.756C38.4525 3.564 38.9085 3.468 39.4125 3.468C39.9245 3.468 40.3805 3.564 40.7805 3.756C41.1805 3.948 41.4965 4.208 41.7285 4.536C41.9605 4.864 42.0765 5.236 42.0765 5.652C42.0765 6.092 41.9245 6.488 41.6205 6.84C41.3165 7.192 40.9165 7.436 40.4205 7.572C41.0045 7.708 41.4805 7.976 41.8485 8.376C42.2165 8.768 42.4005 9.22 42.4005 9.732C42.4005 10.188 42.2725 10.6 42.0165 10.968C41.7605 11.328 41.4045 11.612 40.9485 11.82C40.5005 12.028 39.9885 12.132 39.4125 12.132ZM39.4125 7.212C39.7565 7.212 40.0645 7.144 40.3365 7.008C40.6165 6.872 40.8365 6.692 40.9965 6.468C41.1565 6.236 41.2365 5.976 41.2365 5.688C41.2365 5.4 41.1565 5.14 40.9965 4.908C40.8365 4.676 40.6165 4.496 40.3365 4.368C40.0645 4.232 39.7565 4.164 39.4125 4.164C39.0685 4.164 38.7565 4.232 38.4765 4.368C38.2045 4.496 37.9885 4.676 37.8285 4.908C37.6685 5.14 37.5885 5.4 37.5885 5.688C37.5885 5.976 37.6685 6.236 37.8285 6.468C37.9885 6.692 38.2045 6.872 38.4765 7.008C38.7565 7.144 39.0685 7.212 39.4125 7.212ZM39.4125 11.436C39.8205 11.436 40.1845 11.36 40.5045 11.208C40.8245 11.056 41.0765 10.848 41.2605 10.584C41.4525 10.32 41.5485 10.024 41.5485 9.696C41.5485 9.368 41.4525 9.072 41.2605 8.808C41.0765 8.544 40.8245 8.336 40.5045 8.184C40.1845 8.032 39.8205 7.956 39.4125 7.956C39.0045 7.956 38.6405 8.032 38.3205 8.184C38.0005 8.336 37.7445 8.544 37.5525 8.808C37.3685 9.072 37.2765 9.368 37.2765 9.696C37.2765 10.024 37.3685 10.32 37.5525 10.584C37.7445 10.848 38.0005 11.056 38.3205 11.208C38.6405 11.36 39.0045 11.436 39.4125 11.436Z" fill="#CCD2D7"/>
<path d="M8.072 69.0932V68.0372C7.52 67.9892 7.004 67.8532 6.524 67.6292C6.044 67.3972 5.624 67.0852 5.264 66.6932L5.816 66.1052C6.456 66.7932 7.208 67.1972 8.072 67.3172V64.3652L7.652 64.2812C6.852 64.1052 6.284 63.8652 5.948 63.5612C5.612 63.2492 5.444 62.8092 5.444 62.2412C5.444 61.8172 5.556 61.4452 5.78 61.1252C6.004 60.8052 6.312 60.5572 6.704 60.3812C7.104 60.1972 7.56 60.1052 8.072 60.1052V59.0852H8.684V60.1292C9.148 60.1852 9.6 60.3012 10.04 60.4772C10.488 60.6452 10.904 60.8692 11.288 61.1492L10.832 61.8212C10.464 61.5652 10.1 61.3612 9.74 61.2092C9.388 61.0572 9.036 60.9532 8.684 60.8972V63.6692L9.092 63.7532C9.956 63.9452 10.564 64.1972 10.916 64.5092C11.268 64.8212 11.444 65.2612 11.444 65.8292C11.444 66.2532 11.328 66.6292 11.096 66.9572C10.864 67.2852 10.54 67.5452 10.124 67.7372C9.708 67.9292 9.228 68.0372 8.684 68.0612V69.0932H8.072ZM8.072 63.5492V60.8492C7.536 60.8572 7.1 60.9812 6.764 61.2212C6.436 61.4612 6.272 61.7772 6.272 62.1692C6.272 62.4172 6.32 62.6252 6.416 62.7932C6.52 62.9612 6.688 63.1012 6.92 63.2132C7.152 63.3252 7.472 63.4252 7.88 63.5132L8.072 63.5492ZM8.684 67.3412C9.244 67.3092 9.7 67.1612 10.052 66.8972C10.412 66.6252 10.592 66.2812 10.592 65.8652C10.592 65.6172 10.54 65.4132 10.436 65.2532C10.332 65.0852 10.156 64.9452 9.908 64.8332C9.66 64.7132 9.312 64.6092 8.864 64.5212L8.684 64.4852V67.3412ZM15.1806 59.7572C15.8286 59.7572 16.3966 59.9292 16.8846 60.2732C17.3806 60.6172 17.7686 61.0932 18.0486 61.7012C18.3286 62.3012 18.4686 62.9972 18.4686 63.7892C18.4686 64.7172 18.3126 65.5292 18.0006 66.2252C17.6886 66.9132 17.2486 67.4492 16.6806 67.8332C16.1206 68.2172 15.4606 68.4092 14.7006 68.4092C14.3566 68.4092 14.0086 68.3612 13.6566 68.2652C13.3126 68.1612 13.0046 68.0212 12.7326 67.8452L13.1646 67.1732C13.4126 67.3172 13.6726 67.4292 13.9446 67.5092C14.2246 67.5892 14.5006 67.6292 14.7726 67.6292C15.3486 67.6292 15.8446 67.4812 16.2606 67.1852C16.6846 66.8812 17.0126 66.4492 17.2446 65.8892C17.4766 65.3212 17.5966 64.6492 17.6046 63.8732C17.2926 64.2732 16.9206 64.5852 16.4886 64.8092C16.0566 65.0332 15.6086 65.1452 15.1446 65.1452C14.6006 65.1452 14.1166 65.0332 13.6926 64.8092C13.2686 64.5772 12.9366 64.2652 12.6966 63.8732C12.4566 63.4812 12.3366 63.0332 12.3366 62.5292C12.3366 61.9932 12.4606 61.5172 12.7086 61.1012C12.9566 60.6852 13.2926 60.3572 13.7166 60.1172C14.1486 59.8772 14.6366 59.7572 15.1806 59.7572ZM15.2646 64.4372C15.7046 64.4372 16.1246 64.3292 16.5246 64.1132C16.9326 63.8892 17.2846 63.5852 17.5806 63.2012C17.5246 62.6572 17.3886 62.1852 17.1726 61.7852C16.9566 61.3852 16.6806 61.0732 16.3446 60.8492C16.0086 60.6252 15.6246 60.5132 15.1926 60.5132C14.8166 60.5132 14.4766 60.6012 14.1726 60.7772C13.8686 60.9452 13.6286 61.1812 13.4526 61.4852C13.2846 61.7812 13.2006 62.1212 13.2006 62.5052C13.2006 62.8812 13.2886 63.2172 13.4646 63.5132C13.6406 63.8012 13.8846 64.0292 14.1966 64.1972C14.5086 64.3572 14.8646 64.4372 15.2646 64.4372ZM22.4803 68.4212C21.3763 68.4212 20.4243 68.0412 19.6243 67.2812L20.1643 66.6932C20.5323 67.0372 20.8963 67.2892 21.2563 67.4492C21.6243 67.6012 22.0363 67.6772 22.4923 67.6772C22.9003 67.6772 23.2603 67.5932 23.5723 67.4252C23.8843 67.2572 24.1243 67.0212 24.2923 66.7172C24.4683 66.4132 24.5563 66.0652 24.5563 65.6732C24.5563 65.1132 24.3643 64.6612 23.9803 64.3172C23.6043 63.9732 23.1083 63.8012 22.4923 63.8012C22.1723 63.8012 21.8603 63.8412 21.5563 63.9212C21.2523 63.9932 20.9363 64.1132 20.6083 64.2812L20.0083 64.0892L20.2003 59.8892H24.9763V60.6452H20.9443L20.8123 63.5492C21.1323 63.3892 21.4403 63.2772 21.7363 63.2132C22.0323 63.1412 22.3443 63.1052 22.6723 63.1052C23.2243 63.1052 23.7043 63.2132 24.1123 63.4292C24.5283 63.6372 24.8483 63.9332 25.0723 64.3172C25.3043 64.6932 25.4203 65.1332 25.4203 65.6372C25.4203 66.1892 25.2963 66.6732 25.0483 67.0892C24.8003 67.5052 24.4563 67.8332 24.0163 68.0732C23.5763 68.3052 23.0643 68.4212 22.4803 68.4212ZM27.1719 68.3612C27.0039 68.3612 26.8599 68.3012 26.7399 68.1812C26.6199 68.0612 26.5599 67.9172 26.5599 67.7492C26.5599 67.5812 26.6199 67.4372 26.7399 67.3172C26.8599 67.1972 27.0039 67.1372 27.1719 67.1372C27.3399 67.1372 27.4839 67.1972 27.6039 67.3172C27.7239 67.4372 27.7839 67.5812 27.7839 67.7492C27.7839 67.9172 27.7239 68.0612 27.6039 68.1812C27.4839 68.3012 27.3399 68.3612 27.1719 68.3612ZM33.4672 68.2892V66.0452H28.6912V65.3492L33.4072 59.8892H34.3432V65.2892H35.3512V66.0452H34.3432V68.2892H33.4672ZM29.7712 65.2892H33.4672V61.0052L29.7712 65.2892ZM39.7689 68.4092C39.1209 68.4092 38.5489 68.2372 38.0529 67.8932C37.5649 67.5492 37.1809 67.0772 36.9009 66.4772C36.6209 65.8692 36.4809 65.1692 36.4809 64.3772C36.4809 63.4492 36.6369 62.6412 36.9489 61.9532C37.2609 61.2572 37.7009 60.7172 38.2689 60.3332C38.8369 59.9492 39.4969 59.7572 40.2489 59.7572C40.6009 59.7572 40.9489 59.8052 41.2929 59.9012C41.6369 59.9972 41.9449 60.1372 42.2169 60.3212L41.7849 60.9932C41.5369 60.8492 41.2769 60.7372 41.0049 60.6572C40.7329 60.5772 40.4569 60.5372 40.1769 60.5372C39.6009 60.5372 39.1009 60.6892 38.6769 60.9932C38.2609 61.2892 37.9369 61.7172 37.7049 62.2772C37.4809 62.8372 37.3609 63.5092 37.3449 64.2932C37.6569 63.8932 38.0289 63.5812 38.4609 63.3572C38.8929 63.1332 39.3409 63.0212 39.8049 63.0212C40.3489 63.0212 40.8329 63.1332 41.2569 63.3572C41.6809 63.5812 42.0129 63.8932 42.2529 64.2932C42.4929 64.6852 42.6129 65.1332 42.6129 65.6372C42.6129 66.1652 42.4889 66.6412 42.2409 67.0652C41.9929 67.4812 41.6529 67.8092 41.2209 68.0492C40.7969 68.2892 40.3129 68.4092 39.7689 68.4092ZM39.6849 63.7292C39.2449 63.7292 38.8209 63.8412 38.4129 64.0652C38.0129 64.2812 37.6649 64.5812 37.3689 64.9652C37.4329 65.5012 37.5689 65.9732 37.7769 66.3812C37.9929 66.7812 38.2689 67.0932 38.6049 67.3172C38.9489 67.5412 39.3329 67.6532 39.7569 67.6532C40.1409 67.6532 40.4809 67.5692 40.7769 67.4012C41.0809 67.2252 41.3169 66.9852 41.4849 66.6812C41.6609 66.3772 41.7489 66.0372 41.7489 65.6612C41.7489 65.2852 41.6609 64.9532 41.4849 64.6652C41.3089 64.3692 41.0649 64.1412 40.7529 63.9812C40.4489 63.8132 40.0929 63.7292 39.6849 63.7292Z" fill="#CCD2D7"/>
<path d="M13.072 125.382V124.326C12.52 124.278 12.004 124.142 11.524 123.918C11.044 123.686 10.624 123.374 10.264 122.982L10.816 122.394C11.456 123.082 12.208 123.486 13.072 123.606V120.654L12.652 120.57C11.852 120.394 11.284 120.154 10.948 119.85C10.612 119.538 10.444 119.098 10.444 118.53C10.444 118.106 10.556 117.734 10.78 117.414C11.004 117.094 11.312 116.846 11.704 116.67C12.104 116.486 12.56 116.394 13.072 116.394V115.374H13.684V116.418C14.148 116.474 14.6 116.59 15.04 116.766C15.488 116.934 15.904 117.158 16.288 117.438L15.832 118.11C15.464 117.854 15.1 117.65 14.74 117.498C14.388 117.346 14.036 117.242 13.684 117.186V119.958L14.092 120.042C14.956 120.234 15.564 120.486 15.916 120.798C16.268 121.11 16.444 121.55 16.444 122.118C16.444 122.542 16.328 122.918 16.096 123.246C15.864 123.574 15.54 123.834 15.124 124.026C14.708 124.218 14.228 124.326 13.684 124.35V125.382H13.072ZM13.072 119.838V117.138C12.536 117.146 12.1 117.27 11.764 117.51C11.436 117.75 11.272 118.066 11.272 118.458C11.272 118.706 11.32 118.914 11.416 119.082C11.52 119.25 11.688 119.39 11.92 119.502C12.152 119.614 12.472 119.714 12.88 119.802L13.072 119.838ZM13.684 123.63C14.244 123.598 14.7 123.45 15.052 123.186C15.412 122.914 15.592 122.57 15.592 122.154C15.592 121.906 15.54 121.702 15.436 121.542C15.332 121.374 15.156 121.234 14.908 121.122C14.66 121.002 14.312 120.898 13.864 120.81L13.684 120.774V123.63ZM18.0446 124.578L22.2206 116.934H17.1806V116.178H23.1566V116.85L19.0286 124.578H18.0446ZM26.7888 124.71C25.6848 124.71 24.7328 124.33 23.9328 123.57L24.4728 122.982C24.8408 123.326 25.2048 123.578 25.5648 123.738C25.9328 123.89 26.3448 123.966 26.8008 123.966C27.2088 123.966 27.5688 123.882 27.8808 123.714C28.1928 123.546 28.4328 123.31 28.6008 123.006C28.7768 122.702 28.8648 122.354 28.8648 121.962C28.8648 121.402 28.6728 120.95 28.2888 120.606C27.9128 120.262 27.4168 120.09 26.8008 120.09C26.4808 120.09 26.1688 120.13 25.8648 120.21C25.5608 120.282 25.2448 120.402 24.9168 120.57L24.3168 120.378L24.5088 116.178H29.2848V116.934H25.2528L25.1208 119.838C25.4408 119.678 25.7488 119.566 26.0448 119.502C26.3408 119.43 26.6528 119.394 26.9808 119.394C27.5328 119.394 28.0128 119.502 28.4208 119.718C28.8368 119.926 29.1568 120.222 29.3808 120.606C29.6128 120.982 29.7288 121.422 29.7288 121.926C29.7288 122.478 29.6048 122.962 29.3568 123.378C29.1088 123.794 28.7648 124.122 28.3248 124.362C27.8848 124.594 27.3728 124.71 26.7888 124.71ZM31.4805 124.65C31.3125 124.65 31.1685 124.59 31.0485 124.47C30.9285 124.35 30.8685 124.206 30.8685 124.038C30.8685 123.87 30.9285 123.726 31.0485 123.606C31.1685 123.486 31.3125 123.426 31.4805 123.426C31.6485 123.426 31.7925 123.486 31.9125 123.606C32.0325 123.726 32.0925 123.87 32.0925 124.038C32.0925 124.206 32.0325 124.35 31.9125 124.47C31.7925 124.59 31.6485 124.65 31.4805 124.65ZM36.2713 124.71C35.6953 124.71 35.1553 124.61 34.6513 124.41C34.1553 124.21 33.7153 123.914 33.3313 123.522L33.9073 122.958C34.2593 123.31 34.6193 123.566 34.9873 123.726C35.3633 123.878 35.7873 123.954 36.2593 123.954C36.6673 123.954 37.0273 123.882 37.3393 123.738C37.6593 123.594 37.9073 123.394 38.0833 123.138C38.2593 122.882 38.3473 122.59 38.3473 122.262C38.3473 121.95 38.2673 121.674 38.1073 121.434C37.9553 121.186 37.7433 120.994 37.4713 120.858C37.1993 120.722 36.8873 120.654 36.5353 120.654H35.5393V119.91H36.4993C36.9553 119.91 37.3233 119.77 37.6033 119.49C37.8913 119.21 38.0353 118.846 38.0353 118.398C38.0353 118.102 37.9553 117.834 37.7953 117.594C37.6353 117.354 37.4153 117.166 37.1353 117.03C36.8633 116.886 36.5553 116.814 36.2113 116.814C35.7793 116.814 35.3913 116.894 35.0473 117.054C34.7113 117.206 34.3673 117.466 34.0153 117.834L33.4393 117.258C33.8153 116.858 34.2393 116.558 34.7113 116.358C35.1833 116.15 35.6873 116.046 36.2233 116.046C36.7353 116.046 37.1913 116.146 37.5913 116.346C37.9993 116.546 38.3193 116.822 38.5513 117.174C38.7833 117.518 38.8993 117.91 38.8993 118.35C38.8993 118.79 38.7553 119.186 38.4673 119.538C38.1793 119.882 37.7993 120.122 37.3273 120.258C37.8953 120.386 38.3513 120.634 38.6953 121.002C39.0393 121.37 39.2113 121.798 39.2113 122.286C39.2113 122.75 39.0833 123.166 38.8273 123.534C38.5793 123.902 38.2313 124.19 37.7833 124.398C37.3433 124.606 36.8393 124.71 36.2713 124.71ZM41.4825 124.578V117.102L40.0665 117.726V116.922L41.7945 116.178H42.3585V124.578H41.4825Z" fill="#CCD2D7"/>
<path d="M9.072 181.672V180.616C8.52 180.568 8.004 180.432 7.524 180.208C7.044 179.976 6.624 179.664 6.264 179.272L6.816 178.684C7.456 179.372 8.208 179.776 9.072 179.896V176.944L8.652 176.86C7.852 176.684 7.284 176.444 6.948 176.14C6.612 175.828 6.444 175.388 6.444 174.82C6.444 174.396 6.556 174.024 6.78 173.704C7.004 173.384 7.312 173.136 7.704 172.96C8.104 172.776 8.56 172.684 9.072 172.684V171.664H9.684V172.708C10.148 172.764 10.6 172.88 11.04 173.056C11.488 173.224 11.904 173.448 12.288 173.728L11.832 174.4C11.464 174.144 11.1 173.94 10.74 173.788C10.388 173.636 10.036 173.532 9.684 173.476V176.248L10.092 176.332C10.956 176.524 11.564 176.776 11.916 177.088C12.268 177.4 12.444 177.84 12.444 178.408C12.444 178.832 12.328 179.208 12.096 179.536C11.864 179.864 11.54 180.124 11.124 180.316C10.708 180.508 10.228 180.616 9.684 180.64V181.672H9.072ZM9.072 176.128V173.428C8.536 173.436 8.1 173.56 7.764 173.8C7.436 174.04 7.272 174.356 7.272 174.748C7.272 174.996 7.32 175.204 7.416 175.372C7.52 175.54 7.688 175.68 7.92 175.792C8.152 175.904 8.472 176.004 8.88 176.092L9.072 176.128ZM9.684 179.92C10.244 179.888 10.7 179.74 11.052 179.476C11.412 179.204 11.592 178.86 11.592 178.444C11.592 178.196 11.54 177.992 11.436 177.832C11.332 177.664 11.156 177.524 10.908 177.412C10.66 177.292 10.312 177.188 9.864 177.1L9.684 177.064V179.92ZM16.7806 180.988C16.1326 180.988 15.5606 180.816 15.0646 180.472C14.5766 180.128 14.1926 179.656 13.9126 179.056C13.6326 178.448 13.4926 177.748 13.4926 176.956C13.4926 176.028 13.6486 175.22 13.9606 174.532C14.2726 173.836 14.7126 173.296 15.2806 172.912C15.8486 172.528 16.5086 172.336 17.2606 172.336C17.6126 172.336 17.9606 172.384 18.3046 172.48C18.6486 172.576 18.9566 172.716 19.2286 172.9L18.7966 173.572C18.5486 173.428 18.2886 173.316 18.0166 173.236C17.7446 173.156 17.4686 173.116 17.1886 173.116C16.6126 173.116 16.1126 173.268 15.6886 173.572C15.2726 173.868 14.9486 174.296 14.7166 174.856C14.4926 175.416 14.3726 176.088 14.3566 176.872C14.6686 176.472 15.0406 176.16 15.4726 175.936C15.9046 175.712 16.3526 175.6 16.8166 175.6C17.3606 175.6 17.8446 175.712 18.2686 175.936C18.6926 176.16 19.0246 176.472 19.2646 176.872C19.5046 177.264 19.6246 177.712 19.6246 178.216C19.6246 178.744 19.5006 179.22 19.2526 179.644C19.0046 180.06 18.6646 180.388 18.2326 180.628C17.8086 180.868 17.3246 180.988 16.7806 180.988ZM16.6966 176.308C16.2566 176.308 15.8326 176.42 15.4246 176.644C15.0246 176.86 14.6766 177.16 14.3806 177.544C14.4446 178.08 14.5806 178.552 14.7886 178.96C15.0046 179.36 15.2806 179.672 15.6166 179.896C15.9606 180.12 16.3446 180.232 16.7686 180.232C17.1526 180.232 17.4926 180.148 17.7886 179.98C18.0926 179.804 18.3286 179.564 18.4966 179.26C18.6726 178.956 18.7606 178.616 18.7606 178.24C18.7606 177.864 18.6726 177.532 18.4966 177.244C18.3206 176.948 18.0766 176.72 17.7646 176.56C17.4606 176.392 17.1046 176.308 16.6966 176.308ZM23.3045 181C22.2005 181 21.2485 180.62 20.4485 179.86L20.9885 179.272C21.3565 179.616 21.7205 179.868 22.0805 180.028C22.4485 180.18 22.8605 180.256 23.3165 180.256C23.7245 180.256 24.0845 180.172 24.3965 180.004C24.7085 179.836 24.9485 179.6 25.1165 179.296C25.2925 178.992 25.3805 178.644 25.3805 178.252C25.3805 177.692 25.1885 177.24 24.8045 176.896C24.4285 176.552 23.9325 176.38 23.3165 176.38C22.9965 176.38 22.6845 176.42 22.3805 176.5C22.0765 176.572 21.7605 176.692 21.4325 176.86L20.8325 176.668L21.0245 172.468H25.8005V173.224H21.7685L21.6365 176.128C21.9565 175.968 22.2645 175.856 22.5605 175.792C22.8565 175.72 23.1685 175.684 23.4965 175.684C24.0485 175.684 24.5285 175.792 24.9365 176.008C25.3525 176.216 25.6725 176.512 25.8965 176.896C26.1285 177.272 26.2445 177.712 26.2445 178.216C26.2445 178.768 26.1205 179.252 25.8725 179.668C25.6245 180.084 25.2805 180.412 24.8405 180.652C24.4005 180.884 23.8885 181 23.3045 181ZM27.9961 180.94C27.8281 180.94 27.6841 180.88 27.5641 180.76C27.4441 180.64 27.3841 180.496 27.3841 180.328C27.3841 180.16 27.4441 180.016 27.5641 179.896C27.6841 179.776 27.8281 179.716 27.9961 179.716C28.1641 179.716 28.3081 179.776 28.4281 179.896C28.5481 180.016 28.6081 180.16 28.6081 180.328C28.6081 180.496 28.5481 180.64 28.4281 180.76C28.3081 180.88 28.1641 180.94 27.9961 180.94ZM33.1048 181C32.4328 181 31.8408 180.816 31.3288 180.448C30.8168 180.08 30.4128 179.572 30.1168 178.924C29.8288 178.268 29.6848 177.516 29.6848 176.668C29.6848 175.82 29.8288 175.072 30.1168 174.424C30.4128 173.768 30.8168 173.256 31.3288 172.888C31.8408 172.52 32.4328 172.336 33.1048 172.336C33.7768 172.336 34.3688 172.52 34.8808 172.888C35.3928 173.256 35.7928 173.768 36.0808 174.424C36.3768 175.072 36.5248 175.82 36.5248 176.668C36.5248 177.516 36.3768 178.268 36.0808 178.924C35.7928 179.572 35.3928 180.08 34.8808 180.448C34.3688 180.816 33.7768 181 33.1048 181ZM33.1048 180.22C33.6248 180.22 34.0728 180.076 34.4488 179.788C34.8328 179.492 35.1288 179.076 35.3368 178.54C35.5448 178.004 35.6488 177.38 35.6488 176.668C35.6488 175.948 35.5448 175.324 35.3368 174.796C35.1288 174.26 34.8328 173.848 34.4488 173.56C34.0728 173.264 33.6248 173.116 33.1048 173.116C32.5928 173.116 32.1448 173.264 31.7608 173.56C31.3768 173.848 31.0808 174.26 30.8728 174.796C30.6648 175.324 30.5608 175.948 30.5608 176.668C30.5608 177.38 30.6648 178.004 30.8728 178.54C31.0808 179.076 31.3768 179.492 31.7608 179.788C32.1448 180.076 32.5928 180.22 33.1048 180.22ZM37.3028 180.868V180.232L40.6628 176.56C40.9268 176.272 41.1308 176.02 41.2748 175.804C41.4268 175.58 41.5308 175.372 41.5868 175.18C41.6508 174.988 41.6828 174.784 41.6828 174.568C41.6828 174.144 41.5148 173.796 41.1788 173.524C40.8508 173.244 40.4308 173.104 39.9188 173.104C39.5268 173.104 39.1628 173.18 38.8268 173.332C38.4908 173.484 38.1148 173.748 37.6988 174.124L37.1948 173.524C37.6348 173.124 38.0788 172.828 38.5268 172.636C38.9748 172.436 39.4428 172.336 39.9308 172.336C40.4348 172.336 40.8828 172.432 41.2748 172.624C41.6668 172.808 41.9748 173.064 42.1988 173.392C42.4228 173.72 42.5348 174.096 42.5348 174.52C42.5348 174.8 42.4988 175.06 42.4268 175.3C42.3548 175.532 42.2268 175.784 42.0428 176.056C41.8588 176.32 41.5948 176.64 41.2508 177.016L38.3828 180.124L42.7148 180.112V180.868H37.3028Z" fill="#CCD2D7"/>
<path d="M9.072 237.961V236.905C8.52 236.857 8.004 236.721 7.524 236.497C7.044 236.265 6.624 235.953 6.264 235.561L6.816 234.973C7.456 235.661 8.208 236.065 9.072 236.185V233.233L8.652 233.149C7.852 232.973 7.284 232.733 6.948 232.429C6.612 232.117 6.444 231.677 6.444 231.109C6.444 230.685 6.556 230.313 6.78 229.993C7.004 229.673 7.312 229.425 7.704 229.249C8.104 229.065 8.56 228.973 9.072 228.973V227.953H9.684V228.997C10.148 229.053 10.6 229.169 11.04 229.345C11.488 229.513 11.904 229.737 12.288 230.017L11.832 230.689C11.464 230.433 11.1 230.229 10.74 230.077C10.388 229.925 10.036 229.821 9.684 229.765V232.537L10.092 232.621C10.956 232.813 11.564 233.065 11.916 233.377C12.268 233.689 12.444 234.129 12.444 234.697C12.444 235.121 12.328 235.497 12.096 235.825C11.864 236.153 11.54 236.413 11.124 236.605C10.708 236.797 10.228 236.905 9.684 236.929V237.961H9.072ZM9.072 232.417V229.717C8.536 229.725 8.1 229.849 7.764 230.089C7.436 230.329 7.272 230.645 7.272 231.037C7.272 231.285 7.32 231.493 7.416 231.661C7.52 231.829 7.688 231.969 7.92 232.081C8.152 232.193 8.472 232.293 8.88 232.381L9.072 232.417ZM9.684 236.209C10.244 236.177 10.7 236.029 11.052 235.765C11.412 235.493 11.592 235.149 11.592 234.733C11.592 234.485 11.54 234.281 11.436 234.121C11.332 233.953 11.156 233.813 10.908 233.701C10.66 233.581 10.312 233.477 9.864 233.389L9.684 233.353V236.209ZM17.9086 237.157V234.913H13.1326V234.217L17.8486 228.757H18.7846V234.157H19.7926V234.913H18.7846V237.157H17.9086ZM14.2126 234.157H17.9086V229.873L14.2126 234.157ZM23.247 228.625C23.895 228.625 24.463 228.797 24.951 229.141C25.447 229.485 25.835 229.961 26.115 230.569C26.395 231.169 26.535 231.865 26.535 232.657C26.535 233.585 26.379 234.397 26.067 235.093C25.755 235.781 25.315 236.317 24.747 236.701C24.187 237.085 23.527 237.277 22.767 237.277C22.423 237.277 22.075 237.229 21.723 237.133C21.379 237.029 21.071 236.889 20.799 236.713L21.231 236.041C21.479 236.185 21.739 236.297 22.011 236.377C22.291 236.457 22.567 236.497 22.839 236.497C23.415 236.497 23.911 236.349 24.327 236.053C24.751 235.749 25.079 235.317 25.311 234.757C25.543 234.189 25.663 233.517 25.671 232.741C25.359 233.141 24.987 233.453 24.555 233.677C24.123 233.901 23.675 234.013 23.211 234.013C22.667 234.013 22.183 233.901 21.759 233.677C21.335 233.445 21.003 233.133 20.763 232.741C20.523 232.349 20.403 231.901 20.403 231.397C20.403 230.861 20.527 230.385 20.775 229.969C21.023 229.553 21.359 229.225 21.783 228.985C22.215 228.745 22.703 228.625 23.247 228.625ZM23.331 233.305C23.771 233.305 24.191 233.197 24.591 232.981C24.999 232.757 25.351 232.453 25.647 232.069C25.591 231.525 25.455 231.053 25.239 230.653C25.023 230.253 24.747 229.941 24.411 229.717C24.075 229.493 23.691 229.381 23.259 229.381C22.883 229.381 22.543 229.469 22.239 229.645C21.935 229.813 21.695 230.049 21.519 230.353C21.351 230.649 21.267 230.989 21.267 231.373C21.267 231.749 21.355 232.085 21.531 232.381C21.707 232.669 21.951 232.897 22.263 233.065C22.575 233.225 22.931 233.305 23.331 233.305ZM28.3594 237.229C28.1914 237.229 28.0474 237.169 27.9274 237.049C27.8074 236.929 27.7474 236.785 27.7474 236.617C27.7474 236.449 27.8074 236.305 27.9274 236.185C28.0474 236.065 28.1914 236.005 28.3594 236.005C28.5274 236.005 28.6714 236.065 28.7914 236.185C28.9114 236.305 28.9714 236.449 28.9714 236.617C28.9714 236.785 28.9114 236.929 28.7914 237.049C28.6714 237.169 28.5274 237.229 28.3594 237.229ZM33.1547 237.289C32.5787 237.289 32.0667 237.185 31.6187 236.977C31.1707 236.769 30.8147 236.485 30.5507 236.125C30.2947 235.757 30.1667 235.345 30.1667 234.889C30.1667 234.545 30.2507 234.229 30.4187 233.941C30.5867 233.645 30.8187 233.393 31.1147 233.185C31.4187 232.969 31.7627 232.817 32.1467 232.729C31.6587 232.593 31.2587 232.349 30.9467 231.997C30.6427 231.645 30.4907 231.249 30.4907 230.809C30.4907 230.393 30.6067 230.021 30.8387 229.693C31.0707 229.365 31.3867 229.105 31.7867 228.913C32.1947 228.721 32.6507 228.625 33.1547 228.625C33.6667 228.625 34.1227 228.721 34.5227 228.913C34.9227 229.105 35.2387 229.365 35.4707 229.693C35.7027 230.021 35.8187 230.393 35.8187 230.809C35.8187 231.249 35.6667 231.645 35.3627 231.997C35.0587 232.349 34.6587 232.593 34.1627 232.729C34.7467 232.865 35.2227 233.133 35.5907 233.533C35.9587 233.925 36.1427 234.377 36.1427 234.889C36.1427 235.345 36.0147 235.757 35.7587 236.125C35.5027 236.485 35.1467 236.769 34.6907 236.977C34.2427 237.185 33.7307 237.289 33.1547 237.289ZM33.1547 232.369C33.4987 232.369 33.8067 232.301 34.0787 232.165C34.3587 232.029 34.5787 231.849 34.7387 231.625C34.8987 231.393 34.9787 231.133 34.9787 230.845C34.9787 230.557 34.8987 230.297 34.7387 230.065C34.5787 229.833 34.3587 229.653 34.0787 229.525C33.8067 229.389 33.4987 229.321 33.1547 229.321C32.8107 229.321 32.4987 229.389 32.2187 229.525C31.9467 229.653 31.7307 229.833 31.5707 230.065C31.4107 230.297 31.3307 230.557 31.3307 230.845C31.3307 231.133 31.4107 231.393 31.5707 231.625C31.7307 231.849 31.9467 232.029 32.2187 232.165C32.4987 232.301 32.8107 232.369 33.1547 232.369ZM33.1547 236.593C33.5627 236.593 33.9267 236.517 34.2467 236.365C34.5667 236.213 34.8187 236.005 35.0027 235.741C35.1947 235.477 35.2907 235.181 35.2907 234.853C35.2907 234.525 35.1947 234.229 35.0027 233.965C34.8187 233.701 34.5667 233.493 34.2467 233.341C33.9267 233.189 33.5627 233.113 33.1547 233.113C32.7467 233.113 32.3827 233.189 32.0627 233.341C31.7427 233.493 31.4867 233.701 31.2947 233.965C31.1107 234.229 31.0187 234.525 31.0187 234.853C31.0187 235.181 31.1107 235.477 31.2947 235.741C31.4867 236.005 31.7427 236.213 32.0627 236.365C32.3827 236.517 32.7467 236.593 33.1547 236.593ZM40.0048 228.625C40.6528 228.625 41.2208 228.797 41.7088 229.141C42.2048 229.485 42.5928 229.961 42.8728 230.569C43.1528 231.169 43.2928 231.865 43.2928 232.657C43.2928 233.585 43.1368 234.397 42.8248 235.093C42.5128 235.781 42.0728 236.317 41.5048 236.701C40.9448 237.085 40.2848 237.277 39.5248 237.277C39.1808 237.277 38.8328 237.229 38.4808 237.133C38.1368 237.029 37.8288 236.889 37.5568 236.713L37.9888 236.041C38.2368 236.185 38.4968 236.297 38.7688 236.377C39.0488 236.457 39.3248 236.497 39.5968 236.497C40.1728 236.497 40.6688 236.349 41.0848 236.053C41.5088 235.749 41.8368 235.317 42.0688 234.757C42.3008 234.189 42.4208 233.517 42.4288 232.741C42.1168 233.141 41.7448 233.453 41.3128 233.677C40.8808 233.901 40.4328 234.013 39.9688 234.013C39.4248 234.013 38.9408 233.901 38.5168 233.677C38.0928 233.445 37.7608 233.133 37.5208 232.741C37.2808 232.349 37.1608 231.901 37.1608 231.397C37.1608 230.861 37.2848 230.385 37.5328 229.969C37.7808 229.553 38.1168 229.225 38.5408 228.985C38.9728 228.745 39.4608 228.625 40.0048 228.625ZM40.0888 233.305C40.5288 233.305 40.9488 233.197 41.3488 232.981C41.7568 232.757 42.1088 232.453 42.4048 232.069C42.3488 231.525 42.2128 231.053 41.9968 230.653C41.7808 230.253 41.5048 229.941 41.1688 229.717C40.8328 229.493 40.4488 229.381 40.0168 229.381C39.6408 229.381 39.3008 229.469 38.9968 229.645C38.6928 229.813 38.4528 230.049 38.2768 230.353C38.1088 230.649 38.0248 230.989 38.0248 231.373C38.0248 231.749 38.1128 232.085 38.2888 232.381C38.4648 232.669 38.7088 232.897 39.0208 233.065C39.3328 233.225 39.6888 233.305 40.0888 233.305Z" fill="#CCD2D7"/>
<line x1="64" y1="203.072" x2="766.376" y2="203.072" stroke="#1A364A" stroke-dasharray="6 6"/>
<path d="M429.965 105.5L429.965 240.157" stroke="#1A364A"/>
<rect x="418.391" y="64" width="113.149" height="42" rx="13" fill="#2BC65D" fill-opacity="0.15"/>
<path d="M428.757 79.6023V73.7045H430.095V79.6023H428.757ZM426.477 77.3224V75.9844H432.375V77.3224H426.477ZM437.053 82.0909V71.1818H437.752V82.0909H437.053ZM439.069 74.6719C439.029 74.2997 438.861 74.0099 438.566 73.8026C438.273 73.5952 437.892 73.4915 437.424 73.4915C437.094 73.4915 436.811 73.5412 436.576 73.6406C436.34 73.7401 436.159 73.875 436.034 74.0455C435.909 74.2159 435.846 74.4105 435.843 74.6293C435.843 74.8111 435.884 74.9687 435.966 75.1023C436.051 75.2358 436.167 75.3494 436.311 75.4432C436.456 75.5341 436.617 75.6108 436.793 75.6733C436.969 75.7358 437.147 75.7884 437.326 75.831L438.144 76.0355C438.473 76.1122 438.79 76.2159 439.094 76.3466C439.401 76.4773 439.675 76.642 439.917 76.8409C440.161 77.0398 440.354 77.2798 440.496 77.5611C440.638 77.8423 440.709 78.1719 440.709 78.5497C440.709 79.0611 440.578 79.5114 440.317 79.9006C440.056 80.2869 439.678 80.5895 439.184 80.8082C438.692 81.0241 438.097 81.1321 437.398 81.1321C436.719 81.1321 436.13 81.027 435.63 80.8168C435.132 80.6065 434.743 80.2997 434.462 79.8963C434.184 79.4929 434.033 79.0014 434.01 78.4219H435.566C435.588 78.7259 435.682 78.9787 435.847 79.1804C436.012 79.3821 436.226 79.5327 436.49 79.6321C436.757 79.7315 437.056 79.7812 437.385 79.7812C437.729 79.7812 438.03 79.7301 438.289 79.6278C438.55 79.5227 438.755 79.3778 438.902 79.1932C439.05 79.0057 439.125 78.7869 439.128 78.5369C439.125 78.3097 439.059 78.1222 438.928 77.9744C438.797 77.8239 438.614 77.6989 438.378 77.5994C438.145 77.4972 437.873 77.4062 437.56 77.3267L436.567 77.071C435.848 76.8864 435.28 76.6065 434.863 76.2315C434.448 75.8537 434.24 75.3523 434.24 74.7273C434.24 74.2131 434.38 73.7628 434.658 73.3764C434.939 72.9901 435.321 72.6903 435.804 72.4773C436.287 72.2614 436.834 72.1534 437.445 72.1534C438.064 72.1534 438.607 72.2614 439.073 72.4773C439.542 72.6903 439.909 72.9872 440.176 73.3679C440.444 73.7457 440.581 74.1804 440.59 74.6719H439.069ZM445.259 81.1662C444.558 81.1662 443.955 80.9886 443.452 80.6335C442.952 80.2756 442.567 79.7599 442.298 79.0866C442.031 78.4105 441.897 77.5966 441.897 76.6449C441.9 75.6932 442.035 74.8835 442.302 74.2159C442.572 73.5455 442.957 73.0341 443.457 72.6818C443.96 72.3295 444.56 72.1534 445.259 72.1534C445.958 72.1534 446.559 72.3295 447.062 72.6818C447.565 73.0341 447.95 73.5455 448.217 74.2159C448.487 74.8864 448.621 75.696 448.621 76.6449C448.621 77.5994 448.487 78.4148 448.217 79.0909C447.95 79.7642 447.565 80.2784 447.062 80.6335C446.562 80.9886 445.961 81.1662 445.259 81.1662ZM445.259 79.8324C445.805 79.8324 446.235 79.5639 446.55 79.027C446.869 78.4872 447.028 77.6932 447.028 76.6449C447.028 75.9517 446.955 75.3693 446.81 74.8977C446.665 74.4261 446.461 74.071 446.197 73.8324C445.933 73.5909 445.62 73.4702 445.259 73.4702C444.717 73.4702 444.288 73.7401 443.972 74.2798C443.657 74.8168 443.498 75.6051 443.495 76.6449C443.492 77.3409 443.562 77.9261 443.704 78.4006C443.849 78.875 444.053 79.233 444.317 79.4744C444.582 79.7131 444.896 79.8324 445.259 79.8324ZM450.665 81.0938C450.406 81.0938 450.185 81.0028 450 80.821C449.815 80.6392 449.724 80.4176 449.727 80.1562C449.724 79.9006 449.815 79.6818 450 79.5C450.185 79.3182 450.406 79.2273 450.665 79.2273C450.915 79.2273 451.132 79.3182 451.317 79.5C451.504 79.6818 451.599 79.9006 451.602 80.1562C451.599 80.3295 451.554 80.4872 451.466 80.6293C451.381 80.7713 451.267 80.8849 451.125 80.9702C450.986 81.0526 450.832 81.0938 450.665 81.0938ZM453.178 81V79.858L456.208 76.8878C456.498 76.5952 456.739 76.3352 456.932 76.108C457.125 75.8807 457.27 75.6605 457.367 75.4474C457.463 75.2344 457.512 75.0071 457.512 74.7656C457.512 74.4901 457.449 74.2543 457.324 74.0582C457.199 73.8594 457.027 73.706 456.809 73.598C456.59 73.4901 456.341 73.4361 456.063 73.4361C455.776 73.4361 455.525 73.4957 455.309 73.6151C455.093 73.7315 454.925 73.8977 454.806 74.1136C454.689 74.3295 454.631 74.5866 454.631 74.8849H453.127C453.127 74.331 453.253 73.8494 453.506 73.4403C453.759 73.0312 454.107 72.7145 454.55 72.4901C454.996 72.2656 455.507 72.1534 456.084 72.1534C456.669 72.1534 457.184 72.2628 457.627 72.4815C458.07 72.7003 458.414 73 458.658 73.3807C458.905 73.7614 459.029 74.196 459.029 74.6847C459.029 75.0114 458.966 75.3324 458.841 75.6477C458.716 75.9631 458.496 76.3125 458.181 76.696C457.868 77.0795 457.429 77.544 456.864 78.0895L455.36 79.6193V79.679H459.161V81H453.178ZM464.181 72.2727V81H462.6V73.8111H462.549L460.507 75.1151V73.6662L462.676 72.2727H464.181ZM469.774 76.6364C469.774 75.571 469.914 74.5923 470.196 73.7003C470.48 72.8054 470.902 71.9787 471.461 71.2202H472.914C472.699 71.5014 472.497 71.8466 472.309 72.2557C472.122 72.6619 471.958 73.108 471.819 73.5938C471.683 74.0767 471.575 74.5781 471.495 75.098C471.419 75.6179 471.38 76.1307 471.38 76.6364C471.38 77.3097 471.447 77.9915 471.581 78.6818C471.717 79.3722 471.9 80.0128 472.13 80.6037C472.363 81.1918 472.625 81.6733 472.914 82.0483H471.461C470.902 81.2898 470.48 80.4645 470.196 79.5724C469.914 78.6776 469.774 77.6989 469.774 76.6364ZM477.322 81.1662C476.62 81.1662 476.018 80.9886 475.515 80.6335C475.015 80.2756 474.63 79.7599 474.36 79.0866C474.093 78.4105 473.96 77.5966 473.96 76.6449C473.962 75.6932 474.097 74.8835 474.364 74.2159C474.634 73.5455 475.019 73.0341 475.519 72.6818C476.022 72.3295 476.623 72.1534 477.322 72.1534C478.021 72.1534 478.621 72.3295 479.124 72.6818C479.627 73.0341 480.012 73.5455 480.279 74.2159C480.549 74.8864 480.684 75.696 480.684 76.6449C480.684 77.5994 480.549 78.4148 480.279 79.0909C480.012 79.7642 479.627 80.2784 479.124 80.6335C478.624 80.9886 478.023 81.1662 477.322 81.1662ZM477.322 79.8324C477.867 79.8324 478.298 79.5639 478.613 79.027C478.931 78.4872 479.09 77.6932 479.09 76.6449C479.09 75.9517 479.018 75.3693 478.873 74.8977C478.728 74.4261 478.523 74.071 478.259 73.8324C477.995 73.5909 477.683 73.4702 477.322 73.4702C476.779 73.4702 476.35 73.7401 476.035 74.2798C475.719 74.8168 475.56 75.6051 475.558 76.6449C475.555 77.3409 475.624 77.9261 475.766 78.4006C475.911 78.875 476.116 79.233 476.38 79.4744C476.644 79.7131 476.958 79.8324 477.322 79.8324ZM482.727 81.0938C482.469 81.0938 482.247 81.0028 482.062 80.821C481.878 80.6392 481.787 80.4176 481.79 80.1562C481.787 79.9006 481.878 79.6818 482.062 79.5C482.247 79.3182 482.469 79.2273 482.727 79.2273C482.977 79.2273 483.195 79.3182 483.379 79.5C483.567 79.6818 483.662 79.9006 483.665 80.1562C483.662 80.3295 483.616 80.4872 483.528 80.6293C483.443 80.7713 483.33 80.8849 483.188 80.9702C483.048 81.0526 482.895 81.0938 482.727 81.0938ZM488.141 72.1534C488.559 72.1562 488.965 72.2301 489.36 72.375C489.758 72.517 490.116 72.75 490.434 73.0739C490.752 73.3949 491.005 73.8253 491.192 74.3651C491.38 74.9048 491.474 75.5724 491.474 76.3679C491.477 77.1179 491.397 77.7884 491.235 78.3793C491.076 78.9673 490.847 79.4645 490.549 79.8707C490.251 80.277 489.891 80.5866 489.471 80.7997C489.05 81.0128 488.577 81.1193 488.052 81.1193C487.501 81.1193 487.012 81.0114 486.586 80.7955C486.163 80.5795 485.82 80.2841 485.559 79.9091C485.298 79.5341 485.137 79.1051 485.077 78.6222H486.633C486.712 78.9687 486.874 79.2443 487.119 79.4489C487.366 79.6506 487.677 79.7514 488.052 79.7514C488.657 79.7514 489.123 79.4886 489.45 78.9631C489.776 78.4375 489.94 77.7074 489.94 76.7727H489.88C489.741 77.0227 489.56 77.2386 489.339 77.4205C489.117 77.5994 488.866 77.7372 488.585 77.8338C488.306 77.9304 488.011 77.9787 487.698 77.9787C487.187 77.9787 486.727 77.8565 486.317 77.6122C485.911 77.3679 485.589 77.0327 485.35 76.6065C485.114 76.1804 484.995 75.6932 484.992 75.1449C484.992 74.5767 485.123 74.0668 485.384 73.6151C485.648 73.1605 486.016 72.8026 486.488 72.5412C486.96 72.277 487.511 72.1477 488.141 72.1534ZM488.146 73.4318C487.839 73.4318 487.562 73.5071 487.315 73.6577C487.07 73.8054 486.877 74.0071 486.735 74.2628C486.596 74.5156 486.526 74.7983 486.526 75.1108C486.529 75.4205 486.599 75.7017 486.735 75.9545C486.874 76.2074 487.063 76.4077 487.302 76.5554C487.543 76.7031 487.819 76.777 488.129 76.777C488.359 76.777 488.573 76.733 488.772 76.6449C488.971 76.5568 489.144 76.4347 489.292 76.2784C489.442 76.1193 489.559 75.9389 489.641 75.7372C489.727 75.5355 489.768 75.3224 489.765 75.098C489.765 74.7997 489.694 74.5241 489.552 74.2713C489.413 74.0185 489.221 73.8153 488.977 73.6619C488.735 73.5085 488.458 73.4318 488.146 73.4318ZM495.923 72.1534C496.34 72.1562 496.746 72.2301 497.141 72.375C497.539 72.517 497.897 72.75 498.215 73.0739C498.533 73.3949 498.786 73.8253 498.974 74.3651C499.161 74.9048 499.255 75.5724 499.255 76.3679C499.258 77.1179 499.178 77.7884 499.016 78.3793C498.857 78.9673 498.629 79.4645 498.33 79.8707C498.032 80.277 497.673 80.5866 497.252 80.7997C496.832 81.0128 496.359 81.1193 495.833 81.1193C495.282 81.1193 494.793 81.0114 494.367 80.7955C493.944 80.5795 493.602 80.2841 493.34 79.9091C493.079 79.5341 492.918 79.1051 492.859 78.6222H494.414C494.494 78.9687 494.656 79.2443 494.9 79.4489C495.147 79.6506 495.458 79.7514 495.833 79.7514C496.438 79.7514 496.904 79.4886 497.231 78.9631C497.558 78.4375 497.721 77.7074 497.721 76.7727H497.661C497.522 77.0227 497.342 77.2386 497.12 77.4205C496.898 77.5994 496.647 77.7372 496.366 77.8338C496.087 77.9304 495.792 77.9787 495.479 77.9787C494.968 77.9787 494.508 77.8565 494.099 77.6122C493.692 77.3679 493.37 77.0327 493.131 76.6065C492.896 76.1804 492.776 75.6932 492.773 75.1449C492.773 74.5767 492.904 74.0668 493.165 73.6151C493.43 73.1605 493.798 72.8026 494.269 72.5412C494.741 72.277 495.292 72.1477 495.923 72.1534ZM495.927 73.4318C495.62 73.4318 495.343 73.5071 495.096 73.6577C494.852 73.8054 494.658 74.0071 494.516 74.2628C494.377 74.5156 494.308 74.7983 494.308 75.1108C494.31 75.4205 494.38 75.7017 494.516 75.9545C494.656 76.2074 494.844 76.4077 495.083 76.5554C495.325 76.7031 495.6 76.777 495.91 76.777C496.14 76.777 496.354 76.733 496.553 76.6449C496.752 76.5568 496.925 76.4347 497.073 76.2784C497.224 76.1193 497.34 75.9389 497.423 75.7372C497.508 75.5355 497.549 75.3224 497.546 75.098C497.546 74.7997 497.475 74.5241 497.333 74.2713C497.194 74.0185 497.002 73.8153 496.758 73.6619C496.516 73.5085 496.239 73.4318 495.927 73.4318ZM505.34 79.3636V78.9034C505.34 78.5653 505.411 78.2543 505.553 77.9702C505.698 77.6861 505.908 77.4574 506.184 77.2841C506.46 77.1108 506.793 77.0241 507.185 77.0241C507.589 77.0241 507.927 77.1108 508.2 77.2841C508.472 77.4545 508.678 77.6818 508.817 77.9659C508.96 78.25 509.031 78.5625 509.031 78.9034V79.3636C509.031 79.7017 508.96 80.0128 508.817 80.2969C508.675 80.581 508.467 80.8097 508.191 80.983C507.918 81.1563 507.583 81.2429 507.185 81.2429C506.788 81.2429 506.451 81.1563 506.175 80.983C505.9 80.8097 505.691 80.581 505.549 80.2969C505.41 80.0128 505.34 79.7017 505.34 79.3636ZM506.452 78.9034V79.3636C506.452 79.5881 506.506 79.794 506.614 79.9815C506.722 80.169 506.913 80.2628 507.185 80.2628C507.461 80.2628 507.65 80.1705 507.752 79.9858C507.857 79.7983 507.91 79.5909 507.91 79.3636V78.9034C507.91 78.6761 507.86 78.4688 507.761 78.2812C507.661 78.0909 507.469 77.9957 507.185 77.9957C506.918 77.9957 506.729 78.0909 506.619 78.2812C506.508 78.4688 506.452 78.6761 506.452 78.9034ZM500.904 74.3693V73.9091C500.904 73.5682 500.977 73.2557 501.121 72.9716C501.266 72.6875 501.477 72.4602 501.752 72.2898C502.028 72.1165 502.362 72.0298 502.754 72.0298C503.154 72.0298 503.491 72.1165 503.763 72.2898C504.039 72.4602 504.246 72.6875 504.386 72.9716C504.525 73.2557 504.594 73.5682 504.594 73.9091V74.3693C504.594 74.7102 504.523 75.0227 504.381 75.3068C504.242 75.5881 504.035 75.8139 503.759 75.9844C503.484 76.1548 503.148 76.2401 502.754 76.2401C502.353 76.2401 502.015 76.1548 501.739 75.9844C501.467 75.8139 501.259 75.5866 501.117 75.3026C500.975 75.0185 500.904 74.7074 500.904 74.3693ZM502.025 73.9091V74.3693C502.025 74.5966 502.077 74.804 502.183 74.9915C502.29 75.1761 502.481 75.2685 502.754 75.2685C503.026 75.2685 503.214 75.1761 503.316 74.9915C503.421 74.804 503.474 74.5966 503.474 74.3693V73.9091C503.474 73.6818 503.424 73.4744 503.325 73.2869C503.225 73.0966 503.035 73.0014 502.754 73.0014C502.484 73.0014 502.295 73.0966 502.187 73.2869C502.079 73.4773 502.025 73.6847 502.025 73.9091ZM501.39 81L507.39 72.2727H508.455L502.455 81H501.39ZM513.569 76.6364C513.569 77.6989 513.427 78.6776 513.143 79.5724C512.862 80.4645 512.441 81.2898 511.881 82.0483H510.428C510.647 81.767 510.849 81.4233 511.033 81.017C511.221 80.6108 511.383 80.1648 511.519 79.679C511.658 79.1932 511.766 78.6903 511.843 78.1705C511.923 77.6506 511.962 77.1392 511.962 76.6364C511.962 75.9631 511.894 75.2812 511.758 74.5909C511.624 73.9006 511.441 73.2599 511.208 72.669C510.978 72.0781 510.718 71.5952 510.428 71.2202H511.881C512.441 71.9787 512.862 72.8054 513.143 73.7003C513.427 74.5923 513.569 75.571 513.569 76.6364Z" fill="#2BC65D"/>
<path d="M429.141 97.1193C428.499 97.1193 427.952 96.9446 427.5 96.5952C427.048 96.2429 426.703 95.733 426.464 95.0653C426.226 94.3949 426.107 93.5852 426.107 92.6364C426.107 91.6932 426.226 90.8878 426.464 90.2202C426.706 89.5497 427.053 89.0384 427.504 88.6861C427.959 88.331 428.504 88.1534 429.141 88.1534C429.777 88.1534 430.321 88.331 430.773 88.6861C431.227 89.0384 431.574 89.5497 431.812 90.2202C432.054 90.8878 432.175 91.6932 432.175 92.6364C432.175 93.5852 432.055 94.3949 431.817 95.0653C431.578 95.733 431.233 96.2429 430.781 96.5952C430.33 96.9446 429.783 97.1193 429.141 97.1193ZM429.141 96.1818C429.777 96.1818 430.271 95.875 430.624 95.2614C430.976 94.6477 431.152 93.7727 431.152 92.6364C431.152 91.8807 431.071 91.2372 430.909 90.706C430.75 90.1747 430.52 89.7699 430.219 89.4915C429.92 89.2131 429.561 89.0739 429.141 89.0739C428.51 89.0739 428.017 89.3849 427.662 90.0071C427.307 90.6264 427.129 91.5028 427.129 92.6364C427.129 93.392 427.209 94.0341 427.368 94.5625C427.527 95.0909 427.756 95.4929 428.054 95.7685C428.355 96.044 428.717 96.1818 429.141 96.1818ZM436.589 97.1193C436.004 97.1193 435.487 97.0156 435.038 96.8082C434.592 96.598 434.244 96.3097 433.994 95.9432C433.744 95.5739 433.621 95.1534 433.624 94.6818C433.621 94.3125 433.693 93.9716 433.841 93.6591C433.989 93.3437 434.19 93.081 434.446 92.8707C434.705 92.6577 434.993 92.5227 435.311 92.4659V92.4148C434.893 92.3068 434.561 92.0724 434.314 91.7116C434.067 91.348 433.945 90.9347 433.947 90.4716C433.945 90.0284 434.057 89.6321 434.284 89.2827C434.511 88.9332 434.824 88.6577 435.222 88.456C435.622 88.2543 436.078 88.1534 436.589 88.1534C437.095 88.1534 437.547 88.2543 437.945 88.456C438.342 88.6577 438.655 88.9332 438.882 89.2827C439.112 89.6321 439.229 90.0284 439.232 90.4716C439.229 90.9347 439.102 91.348 438.852 91.7116C438.605 92.0724 438.277 92.3068 437.868 92.4148V92.4659C438.183 92.5227 438.467 92.6577 438.72 92.8707C438.973 93.081 439.175 93.3437 439.325 93.6591C439.476 93.9716 439.553 94.3125 439.555 94.6818C439.553 95.1534 439.425 95.5739 439.172 95.9432C438.922 96.3097 438.574 96.598 438.128 96.8082C437.685 97.0156 437.172 97.1193 436.589 97.1193ZM436.589 96.1818C436.984 96.1818 437.325 96.1179 437.612 95.9901C437.899 95.8622 438.121 95.6818 438.277 95.4489C438.433 95.2159 438.513 94.9432 438.516 94.6307C438.513 94.3011 438.428 94.0099 438.26 93.7571C438.092 93.5043 437.864 93.3054 437.574 93.1605C437.287 93.0156 436.959 92.9432 436.589 92.9432C436.217 92.9432 435.885 93.0156 435.592 93.1605C435.303 93.3054 435.074 93.5043 434.906 93.7571C434.741 94.0099 434.661 94.3011 434.663 94.6307C434.661 94.9432 434.736 95.2159 434.889 95.4489C435.045 95.6818 435.268 95.8622 435.558 95.9901C435.848 96.1179 436.192 96.1818 436.589 96.1818ZM436.589 92.0398C436.902 92.0398 437.179 91.9773 437.42 91.8523C437.665 91.7273 437.857 91.5526 437.996 91.3281C438.135 91.1037 438.206 90.8409 438.209 90.5398C438.206 90.2443 438.136 89.9872 438 89.7685C437.864 89.5469 437.675 89.3764 437.433 89.2571C437.192 89.1349 436.911 89.0739 436.589 89.0739C436.263 89.0739 435.977 89.1349 435.733 89.2571C435.489 89.3764 435.3 89.5469 435.166 89.7685C435.033 89.9872 434.967 90.2443 434.97 90.5398C434.967 90.8409 435.034 91.1037 435.17 91.3281C435.31 91.5526 435.501 91.7273 435.746 91.8523C435.99 91.9773 436.271 92.0398 436.589 92.0398ZM441.939 95.8835C441.728 95.8835 441.548 95.8082 441.397 95.6577C441.247 95.5071 441.172 95.3267 441.172 95.1165C441.172 94.9062 441.247 94.7259 441.397 94.5753C441.548 94.4247 441.728 94.3494 441.939 94.3494C442.149 94.3494 442.329 94.4247 442.48 94.5753C442.63 94.7259 442.706 94.9062 442.706 95.1165C442.706 95.2557 442.67 95.3835 442.599 95.5C442.531 95.6165 442.439 95.7102 442.322 95.7812C442.208 95.8494 442.081 95.8835 441.939 95.8835ZM441.939 91.4688C441.728 91.4688 441.548 91.3935 441.397 91.2429C441.247 91.0923 441.172 90.9119 441.172 90.7017C441.172 90.4915 441.247 90.3111 441.397 90.1605C441.548 90.0099 441.728 89.9347 441.939 89.9347C442.149 89.9347 442.329 90.0099 442.48 90.1605C442.63 90.3111 442.706 90.4915 442.706 90.7017C442.706 90.8409 442.67 90.9688 442.599 91.0852C442.531 91.2017 442.439 91.2955 442.322 91.3665C442.208 91.4347 442.081 91.4688 441.939 91.4688ZM447.34 97.1193C446.698 97.1193 446.151 96.9446 445.699 96.5952C445.248 96.2429 444.902 95.733 444.664 95.0653C444.425 94.3949 444.306 93.5852 444.306 92.6364C444.306 91.6932 444.425 90.8878 444.664 90.2202C444.905 89.5497 445.252 89.0384 445.703 88.6861C446.158 88.331 446.703 88.1534 447.34 88.1534C447.976 88.1534 448.52 88.331 448.972 88.6861C449.426 89.0384 449.773 89.5497 450.012 90.2202C450.253 90.8878 450.374 91.6932 450.374 92.6364C450.374 93.5852 450.255 94.3949 450.016 95.0653C449.777 95.733 449.432 96.2429 448.98 96.5952C448.529 96.9446 447.982 97.1193 447.34 97.1193ZM447.34 96.1818C447.976 96.1818 448.471 95.875 448.823 95.2614C449.175 94.6477 449.351 93.7727 449.351 92.6364C449.351 91.8807 449.27 91.2372 449.108 90.706C448.949 90.1747 448.719 89.7699 448.418 89.4915C448.12 89.2131 447.76 89.0739 447.34 89.0739C446.709 89.0739 446.216 89.3849 445.861 90.0071C445.506 90.6264 445.328 91.5028 445.328 92.6364C445.328 93.392 445.408 94.0341 445.567 94.5625C445.726 95.0909 445.955 95.4929 446.253 95.7685C446.554 96.044 446.917 96.1818 447.34 96.1818ZM454.721 97.1193C454.221 97.1193 453.77 97.0199 453.37 96.821C452.969 96.6222 452.648 96.3494 452.407 96.0028C452.165 95.6562 452.033 95.2614 452.01 94.8182H453.033C453.073 95.2131 453.252 95.5398 453.57 95.7983C453.891 96.054 454.275 96.1818 454.721 96.1818C455.078 96.1818 455.397 96.098 455.675 95.9304C455.956 95.7628 456.176 95.5327 456.336 95.2401C456.498 94.9446 456.578 94.6108 456.578 94.2386C456.578 93.858 456.495 93.5185 456.327 93.2202C456.162 92.919 455.935 92.6818 455.645 92.5085C455.355 92.3352 455.025 92.2472 454.652 92.2443C454.385 92.2415 454.111 92.2827 453.83 92.3679C453.549 92.4503 453.317 92.5568 453.135 92.6875L452.147 92.5682L452.675 88.2727H457.209V89.2102H453.561L453.255 91.7841H453.306C453.485 91.642 453.709 91.5241 453.979 91.4304C454.249 91.3366 454.53 91.2898 454.823 91.2898C455.357 91.2898 455.833 91.4176 456.25 91.6733C456.671 91.9261 457 92.2727 457.239 92.7131C457.48 93.1534 457.601 93.6562 457.601 94.2216C457.601 94.7784 457.476 95.2756 457.226 95.7131C456.979 96.1477 456.638 96.4915 456.203 96.7443C455.769 96.9943 455.275 97.1193 454.721 97.1193ZM462.822 97V88.2727H465.771C466.456 88.2727 467.016 88.3963 467.45 88.6435C467.888 88.8878 468.212 89.2188 468.422 89.6364C468.632 90.054 468.737 90.5199 468.737 91.0341C468.737 91.5483 468.632 92.0156 468.422 92.4361C468.214 92.8565 467.893 93.1918 467.459 93.4418C467.024 93.6889 466.467 93.8125 465.788 93.8125H463.675V92.875H465.754C466.223 92.875 466.599 92.794 466.884 92.6321C467.168 92.4702 467.374 92.2514 467.501 91.9759C467.632 91.6974 467.697 91.3835 467.697 91.0341C467.697 90.6847 467.632 90.3722 467.501 90.0966C467.374 89.821 467.166 89.6051 466.879 89.4489C466.592 89.2898 466.212 89.2102 465.737 89.2102H463.879V97H462.822ZM470.44 88.2727H471.701L474.667 95.517H474.769L477.735 88.2727H478.996V97H478.008V90.3693H477.923L475.195 97H474.241L471.513 90.3693H471.428V97H470.44V88.2727Z" fill="#2BC65D"/>
<path d="M64 192.413L244.666 145.285C271.256 138.349 299.481 141.642 323.759 154.515L336.022 161.017C363.392 175.528 396.454 174.184 422.556 157.5V157.5V157.5C450.218 139.818 482.084 129.808 514.889 128.494L570.732 126.257C598.878 125.13 625.492 113.137 644.981 92.7975L658.797 78.3787C667.992 68.7821 680.337 62.8192 693.57 61.582V61.582C710.95 59.9572 726.541 50.2203 735.629 35.3168L756.553 1" stroke="#2BC65D" stroke-width="2"/>
<ellipse cx="429.924" cy="152.487" rx="6.38524" ry="6.48738" fill="#05243A"/>
<ellipse cx="429.928" cy="152.487" rx="4.56088" ry="4.63384" fill="#2BC65D"/>
</svg>
