<svg width="249" height="80" viewBox="0 0 249 80" fill="none" xmlns="http://www.w3.org/2000/svg">
<path d="M248 18.5097H245.418V22.3332H241.976V28.4509L239.394 24.6273L237.672 26.9214L231.648 24.6273L229.927 26.9214L226.484 22.3332L223.902 26.9214L221.321 24.6273L220.46 27.6861V20.0391L214.436 22.3332L211.854 20.0391V22.3332L210.132 18.5097L208.411 20.0391L204.969 24.6273L203.247 16.2156H201.526L198.944 0.156737L197.223 22.3332L195.502 16.2156L193.78 20.0391L191.199 16.2156V22.3332L186.895 12.392L185.174 14.6861V12.392L182.592 14.6861L180.871 39.1567L179.15 36.8626V50.6273L176.568 46.0391V52.1567L173.125 41.4509L171.404 42.9803V36.8626L168.822 52.1567L166.24 49.0979L164.519 55.9803L162.798 50.6273L160.216 53.6861V46.0391L158.495 49.0979L155.052 46.0391L151.61 57.5097L149.889 53.6861L147.307 62.8626L143.864 55.9803L142.143 59.8038L137.84 53.6861L135.258 55.9803L134.397 54.4509L132.676 59.8038L129.233 57.5097L124.07 62.8626L121.488 59.8038L116.324 65.9214L112.021 59.8038H109.439L106.857 57.5097L105.136 65.9214L102.554 61.3332L97.3902 67.4509L93.0871 62.8626L91.3659 69.745L88.784 67.4509L83.6202 78.1567L80.1777 69.745L77.5958 72.8038L74.1533 59.8038L70.7108 72.8038L68.1289 67.4509L61.2439 69.745L58.662 67.4509L52.6376 69.745L50.0557 65.9214L48.3345 67.4509L44.892 62.8626L43.1707 69.745L41.4495 62.8626L39.7282 64.392L38.007 59.8038L36.2857 62.8626V59.8038L32.8432 69.745L27.6794 67.4509H23.3763L19.0732 65.9214L15.6307 69.745L10.4669 62.8626L7.88502 65.9214L5.30314 64.392L1 72.8038" stroke="#2BC65D" stroke-opacity="0.5" stroke-width="1.5" stroke-linecap="round"/>
</svg>
