<svg width="249" height="81" viewBox="0 0 249 81" fill="none" xmlns="http://www.w3.org/2000/svg">
<path d="M248 19.3529H245.418V23.1765H241.976V29.2941L239.394 25.4706L237.672 27.7647L231.648 25.4706L229.927 27.7647L226.484 23.1765L223.902 27.7647L221.321 25.4706L220.46 28.5294V20.8824L214.436 23.1765L211.854 20.8824V23.1765L210.132 19.3529L208.411 20.8824L204.969 25.4706L203.247 17.0588H201.526L198.944 0.999999L197.223 23.1765L195.502 17.0588L193.78 20.8824L191.199 17.0588V23.1765L186.895 13.2353L185.174 15.5294V13.2353L182.592 15.5294L180.871 40L179.15 37.7059V51.4706L176.568 46.8824V53L173.125 42.2941L171.404 43.8235V37.7059L168.822 53L166.24 49.9412L164.519 56.8235L162.798 51.4706L160.216 54.5294V46.8824L158.495 49.9412L155.052 46.8824L151.61 58.3529L149.889 54.5294L147.307 63.7059L143.864 56.8235L142.143 60.6471L137.84 54.5294L135.258 56.8235L134.397 55.2941L132.676 60.6471L129.233 58.3529L124.07 63.7059L121.488 60.6471L116.324 66.7647L112.021 60.6471H109.439L106.857 58.3529L105.136 66.7647L102.554 62.1765L97.3902 68.2941L93.0871 63.7059L91.3659 70.5882L88.784 68.2941L83.6202 79L80.1777 70.5882L77.5958 73.6471L74.1533 60.6471L70.7108 73.6471L68.1289 68.2941L61.2439 70.5882L58.662 68.2941L52.6376 70.5882L50.0557 66.7647L48.3345 68.2941L44.892 63.7059L43.1707 70.5882L41.4495 63.7059L39.7282 65.2353L38.007 60.6471L36.2857 63.7059V60.6471L32.8432 70.5882L27.6794 68.2941H23.3763L19.0732 66.7647L15.6307 70.5882L10.4669 63.7059L7.88502 66.7647L5.30314 65.2353L1 73.6471" stroke="#2BC65D" stroke-opacity="0.5" stroke-width="1.5" stroke-linecap="round"/>
</svg>
