<svg width="722" height="241" viewBox="0 0 722 241" fill="none" xmlns="http://www.w3.org/2000/svg">
<path d="M3.072 12.804V11.748C2.52 11.7 2.004 11.564 1.524 11.34C1.044 11.108 0.624 10.796 0.264 10.404L0.816 9.816C1.456 10.504 2.208 10.908 3.072 11.028V8.076L2.652 7.992C1.852 7.816 1.284 7.576 0.948 7.272C0.612 6.96 0.444 6.52 0.444 5.952C0.444 5.528 0.556 5.156 0.78 4.836C1.004 4.516 1.312 4.268 1.704 4.092C2.104 3.908 2.56 3.816 3.072 3.816V2.796H3.684V3.84C4.148 3.896 4.6 4.012 5.04 4.188C5.488 4.356 5.904 4.58 6.288 4.86L5.832 5.532C5.464 5.276 5.1 5.072 4.74 4.92C4.388 4.768 4.036 4.664 3.684 4.608V7.38L4.092 7.464C4.956 7.656 5.564 7.908 5.916 8.22C6.268 8.532 6.444 8.972 6.444 9.54C6.444 9.964 6.328 10.34 6.096 10.668C5.864 10.996 5.54 11.256 5.124 11.448C4.708 11.64 4.228 11.748 3.684 11.772V12.804H3.072ZM3.072 7.26V4.56C2.536 4.568 2.1 4.692 1.764 4.932C1.436 5.172 1.272 5.488 1.272 5.88C1.272 6.128 1.32 6.336 1.416 6.504C1.52 6.672 1.688 6.812 1.92 6.924C2.152 7.036 2.472 7.136 2.88 7.224L3.072 7.26ZM3.684 11.052C4.244 11.02 4.7 10.872 5.052 10.608C5.412 10.336 5.592 9.992 5.592 9.576C5.592 9.328 5.54 9.124 5.436 8.964C5.332 8.796 5.156 8.656 4.908 8.544C4.66 8.424 4.312 8.32 3.864 8.232L3.684 8.196V11.052ZM8.56059 12V4.524L7.14459 5.148V4.344L8.87259 3.6H9.43659V12H8.56059ZM14.2493 12.132C13.5773 12.132 12.9853 11.948 12.4733 11.58C11.9613 11.212 11.5573 10.704 11.2613 10.056C10.9733 9.4 10.8293 8.648 10.8293 7.8C10.8293 6.952 10.9733 6.204 11.2613 5.556C11.5573 4.9 11.9613 4.388 12.4733 4.02C12.9853 3.652 13.5773 3.468 14.2493 3.468C14.9213 3.468 15.5133 3.652 16.0253 4.02C16.5373 4.388 16.9373 4.9 17.2253 5.556C17.5213 6.204 17.6693 6.952 17.6693 7.8C17.6693 8.648 17.5213 9.4 17.2253 10.056C16.9373 10.704 16.5373 11.212 16.0253 11.58C15.5133 11.948 14.9213 12.132 14.2493 12.132ZM14.2493 11.352C14.7693 11.352 15.2173 11.208 15.5933 10.92C15.9773 10.624 16.2733 10.208 16.4813 9.672C16.6893 9.136 16.7933 8.512 16.7933 7.8C16.7933 7.08 16.6893 6.456 16.4813 5.928C16.2733 5.392 15.9773 4.98 15.5933 4.692C15.2173 4.396 14.7693 4.248 14.2493 4.248C13.7373 4.248 13.2893 4.396 12.9053 4.692C12.5213 4.98 12.2253 5.392 12.0173 5.928C11.8093 6.456 11.7053 7.08 11.7053 7.8C11.7053 8.512 11.8093 9.136 12.0173 9.672C12.2253 10.208 12.5213 10.624 12.9053 10.92C13.2893 11.208 13.7373 11.352 14.2493 11.352ZM22.1947 12.132C21.5227 12.132 20.9307 11.948 20.4187 11.58C19.9067 11.212 19.5027 10.704 19.2067 10.056C18.9187 9.4 18.7747 8.648 18.7747 7.8C18.7747 6.952 18.9187 6.204 19.2067 5.556C19.5027 4.9 19.9067 4.388 20.4187 4.02C20.9307 3.652 21.5227 3.468 22.1947 3.468C22.8667 3.468 23.4587 3.652 23.9707 4.02C24.4827 4.388 24.8827 4.9 25.1707 5.556C25.4667 6.204 25.6147 6.952 25.6147 7.8C25.6147 8.648 25.4667 9.4 25.1707 10.056C24.8827 10.704 24.4827 11.212 23.9707 11.58C23.4587 11.948 22.8667 12.132 22.1947 12.132ZM22.1947 11.352C22.7147 11.352 23.1627 11.208 23.5387 10.92C23.9227 10.624 24.2187 10.208 24.4267 9.672C24.6347 9.136 24.7387 8.512 24.7387 7.8C24.7387 7.08 24.6347 6.456 24.4267 5.928C24.2187 5.392 23.9227 4.98 23.5387 4.692C23.1627 4.396 22.7147 4.248 22.1947 4.248C21.6827 4.248 21.2347 4.396 20.8507 4.692C20.4667 4.98 20.1707 5.392 19.9627 5.928C19.7547 6.456 19.6507 7.08 19.6507 7.8C19.6507 8.512 19.7547 9.136 19.9627 9.672C20.1707 10.208 20.4667 10.624 20.8507 10.92C21.2347 11.208 21.6827 11.352 22.1947 11.352ZM27.3047 12.072C27.1367 12.072 26.9927 12.012 26.8727 11.892C26.7527 11.772 26.6927 11.628 26.6927 11.46C26.6927 11.292 26.7527 11.148 26.8727 11.028C26.9927 10.908 27.1367 10.848 27.3047 10.848C27.4727 10.848 27.6167 10.908 27.7367 11.028C27.8567 11.148 27.9167 11.292 27.9167 11.46C27.9167 11.628 27.8567 11.772 27.7367 11.892C27.6167 12.012 27.4727 12.072 27.3047 12.072ZM33.6 12V9.756H28.824V9.06L33.54 3.6H34.476V9H35.484V9.756H34.476V12H33.6ZM29.904 9H33.6V4.716L29.904 9ZM39.4125 12.132C38.8365 12.132 38.3245 12.028 37.8765 11.82C37.4285 11.612 37.0725 11.328 36.8085 10.968C36.5525 10.6 36.4245 10.188 36.4245 9.732C36.4245 9.388 36.5085 9.072 36.6765 8.784C36.8445 8.488 37.0765 8.236 37.3725 8.028C37.6765 7.812 38.0205 7.66 38.4045 7.572C37.9165 7.436 37.5165 7.192 37.2045 6.84C36.9005 6.488 36.7485 6.092 36.7485 5.652C36.7485 5.236 36.8645 4.864 37.0965 4.536C37.3285 4.208 37.6445 3.948 38.0445 3.756C38.4525 3.564 38.9085 3.468 39.4125 3.468C39.9245 3.468 40.3805 3.564 40.7805 3.756C41.1805 3.948 41.4965 4.208 41.7285 4.536C41.9605 4.864 42.0765 5.236 42.0765 5.652C42.0765 6.092 41.9245 6.488 41.6205 6.84C41.3165 7.192 40.9165 7.436 40.4205 7.572C41.0045 7.708 41.4805 7.976 41.8485 8.376C42.2165 8.768 42.4005 9.22 42.4005 9.732C42.4005 10.188 42.2725 10.6 42.0165 10.968C41.7605 11.328 41.4045 11.612 40.9485 11.82C40.5005 12.028 39.9885 12.132 39.4125 12.132ZM39.4125 7.212C39.7565 7.212 40.0645 7.144 40.3365 7.008C40.6165 6.872 40.8365 6.692 40.9965 6.468C41.1565 6.236 41.2365 5.976 41.2365 5.688C41.2365 5.4 41.1565 5.14 40.9965 4.908C40.8365 4.676 40.6165 4.496 40.3365 4.368C40.0645 4.232 39.7565 4.164 39.4125 4.164C39.0685 4.164 38.7565 4.232 38.4765 4.368C38.2045 4.496 37.9885 4.676 37.8285 4.908C37.6685 5.14 37.5885 5.4 37.5885 5.688C37.5885 5.976 37.6685 6.236 37.8285 6.468C37.9885 6.692 38.2045 6.872 38.4765 7.008C38.7565 7.144 39.0685 7.212 39.4125 7.212ZM39.4125 11.436C39.8205 11.436 40.1845 11.36 40.5045 11.208C40.8245 11.056 41.0765 10.848 41.2605 10.584C41.4525 10.32 41.5485 10.024 41.5485 9.696C41.5485 9.368 41.4525 9.072 41.2605 8.808C41.0765 8.544 40.8245 8.336 40.5045 8.184C40.1845 8.032 39.8205 7.956 39.4125 7.956C39.0045 7.956 38.6405 8.032 38.3205 8.184C38.0005 8.336 37.7445 8.544 37.5525 8.808C37.3685 9.072 37.2765 9.368 37.2765 9.696C37.2765 10.024 37.3685 10.32 37.5525 10.584C37.7445 10.848 38.0005 11.056 38.3205 11.208C38.6405 11.36 39.0045 11.436 39.4125 11.436Z" fill="#667986"/>
<path d="M8.072 69.0931V68.0371C7.52 67.9891 7.004 67.8531 6.524 67.6291C6.044 67.3971 5.624 67.0851 5.264 66.6931L5.816 66.1051C6.456 66.7931 7.208 67.1971 8.072 67.3171V64.3651L7.652 64.2811C6.852 64.1051 6.284 63.8651 5.948 63.5611C5.612 63.2491 5.444 62.8091 5.444 62.2411C5.444 61.8171 5.556 61.4451 5.78 61.1251C6.004 60.8051 6.312 60.5571 6.704 60.3811C7.104 60.1971 7.56 60.1051 8.072 60.1051V59.0851H8.684V60.1291C9.148 60.1851 9.6 60.3011 10.04 60.4771C10.488 60.6451 10.904 60.8691 11.288 61.1491L10.832 61.8211C10.464 61.5651 10.1 61.3611 9.74 61.2091C9.388 61.0571 9.036 60.9531 8.684 60.8971V63.6691L9.092 63.7531C9.956 63.9451 10.564 64.1971 10.916 64.5091C11.268 64.8211 11.444 65.2611 11.444 65.8291C11.444 66.2531 11.328 66.6291 11.096 66.9571C10.864 67.2851 10.54 67.5451 10.124 67.7371C9.708 67.9291 9.228 68.0371 8.684 68.0611V69.0931H8.072ZM8.072 63.5491V60.8491C7.536 60.8571 7.1 60.9811 6.764 61.2211C6.436 61.4611 6.272 61.7771 6.272 62.1691C6.272 62.4171 6.32 62.6251 6.416 62.7931C6.52 62.9611 6.688 63.1011 6.92 63.2131C7.152 63.3251 7.472 63.4251 7.88 63.5131L8.072 63.5491ZM8.684 67.3411C9.244 67.3091 9.7 67.1611 10.052 66.8971C10.412 66.6251 10.592 66.2811 10.592 65.8651C10.592 65.6171 10.54 65.4131 10.436 65.2531C10.332 65.0851 10.156 64.9451 9.908 64.8331C9.66 64.7131 9.312 64.6091 8.864 64.5211L8.684 64.4851V67.3411ZM15.1806 59.7571C15.8286 59.7571 16.3966 59.9291 16.8846 60.2731C17.3806 60.6171 17.7686 61.0931 18.0486 61.7011C18.3286 62.3011 18.4686 62.9971 18.4686 63.7891C18.4686 64.7171 18.3126 65.5291 18.0006 66.2251C17.6886 66.9131 17.2486 67.4491 16.6806 67.8331C16.1206 68.2171 15.4606 68.4091 14.7006 68.4091C14.3566 68.4091 14.0086 68.3611 13.6566 68.2651C13.3126 68.1611 13.0046 68.0211 12.7326 67.8451L13.1646 67.1731C13.4126 67.3171 13.6726 67.4291 13.9446 67.5091C14.2246 67.5891 14.5006 67.6291 14.7726 67.6291C15.3486 67.6291 15.8446 67.4811 16.2606 67.1851C16.6846 66.8811 17.0126 66.4491 17.2446 65.8891C17.4766 65.3211 17.5966 64.6491 17.6046 63.8731C17.2926 64.2731 16.9206 64.5851 16.4886 64.8091C16.0566 65.0331 15.6086 65.1451 15.1446 65.1451C14.6006 65.1451 14.1166 65.0331 13.6926 64.8091C13.2686 64.5771 12.9366 64.2651 12.6966 63.8731C12.4566 63.4811 12.3366 63.0331 12.3366 62.5291C12.3366 61.9931 12.4606 61.5171 12.7086 61.1011C12.9566 60.6851 13.2926 60.3571 13.7166 60.1171C14.1486 59.8771 14.6366 59.7571 15.1806 59.7571ZM15.2646 64.4371C15.7046 64.4371 16.1246 64.3291 16.5246 64.1131C16.9326 63.8891 17.2846 63.5851 17.5806 63.2011C17.5246 62.6571 17.3886 62.1851 17.1726 61.7851C16.9566 61.3851 16.6806 61.0731 16.3446 60.8491C16.0086 60.6251 15.6246 60.5131 15.1926 60.5131C14.8166 60.5131 14.4766 60.6011 14.1726 60.7771C13.8686 60.9451 13.6286 61.1811 13.4526 61.4851C13.2846 61.7811 13.2006 62.1211 13.2006 62.5051C13.2006 62.8811 13.2886 63.2171 13.4646 63.5131C13.6406 63.8011 13.8846 64.0291 14.1966 64.1971C14.5086 64.3571 14.8646 64.4371 15.2646 64.4371ZM22.4803 68.4211C21.3763 68.4211 20.4243 68.0411 19.6243 67.2811L20.1643 66.6931C20.5323 67.0371 20.8963 67.2891 21.2563 67.4491C21.6243 67.6011 22.0363 67.6771 22.4923 67.6771C22.9003 67.6771 23.2603 67.5931 23.5723 67.4251C23.8843 67.2571 24.1243 67.0211 24.2923 66.7171C24.4683 66.4131 24.5563 66.0651 24.5563 65.6731C24.5563 65.1131 24.3643 64.6611 23.9803 64.3171C23.6043 63.9731 23.1083 63.8011 22.4923 63.8011C22.1723 63.8011 21.8603 63.8411 21.5563 63.9211C21.2523 63.9931 20.9363 64.1131 20.6083 64.2811L20.0083 64.0891L20.2003 59.8891H24.9763V60.6451H20.9443L20.8123 63.5491C21.1323 63.3891 21.4403 63.2771 21.7363 63.2131C22.0323 63.1411 22.3443 63.1051 22.6723 63.1051C23.2243 63.1051 23.7043 63.2131 24.1123 63.4291C24.5283 63.6371 24.8483 63.9331 25.0723 64.3171C25.3043 64.6931 25.4203 65.1331 25.4203 65.6371C25.4203 66.1891 25.2963 66.6731 25.0483 67.0891C24.8003 67.5051 24.4563 67.8331 24.0163 68.0731C23.5763 68.3051 23.0643 68.4211 22.4803 68.4211ZM27.1719 68.3611C27.0039 68.3611 26.8599 68.3011 26.7399 68.1811C26.6199 68.0611 26.5599 67.9171 26.5599 67.7491C26.5599 67.5811 26.6199 67.4371 26.7399 67.3171C26.8599 67.1971 27.0039 67.1371 27.1719 67.1371C27.3399 67.1371 27.4839 67.1971 27.6039 67.3171C27.7239 67.4371 27.7839 67.5811 27.7839 67.7491C27.7839 67.9171 27.7239 68.0611 27.6039 68.1811C27.4839 68.3011 27.3399 68.3611 27.1719 68.3611ZM33.4672 68.2891V66.0451H28.6912V65.3491L33.4072 59.8891H34.3432V65.2891H35.3512V66.0451H34.3432V68.2891H33.4672ZM29.7712 65.2891H33.4672V61.0051L29.7712 65.2891ZM39.7689 68.4091C39.1209 68.4091 38.5489 68.2371 38.0529 67.8931C37.5649 67.5491 37.1809 67.0771 36.9009 66.4771C36.6209 65.8691 36.4809 65.1691 36.4809 64.3771C36.4809 63.4491 36.6369 62.6411 36.9489 61.9531C37.2609 61.2571 37.7009 60.7171 38.2689 60.3331C38.8369 59.9491 39.4969 59.7571 40.2489 59.7571C40.6009 59.7571 40.9489 59.8051 41.2929 59.9011C41.6369 59.9971 41.9449 60.1371 42.2169 60.3211L41.7849 60.9931C41.5369 60.8491 41.2769 60.7371 41.0049 60.6571C40.7329 60.5771 40.4569 60.5371 40.1769 60.5371C39.6009 60.5371 39.1009 60.6891 38.6769 60.9931C38.2609 61.2891 37.9369 61.7171 37.7049 62.2771C37.4809 62.8371 37.3609 63.5091 37.3449 64.2931C37.6569 63.8931 38.0289 63.5811 38.4609 63.3571C38.8929 63.1331 39.3409 63.0211 39.8049 63.0211C40.3489 63.0211 40.8329 63.1331 41.2569 63.3571C41.6809 63.5811 42.0129 63.8931 42.2529 64.2931C42.4929 64.6851 42.6129 65.1331 42.6129 65.6371C42.6129 66.1651 42.4889 66.6411 42.2409 67.0651C41.9929 67.4811 41.6529 67.8091 41.2209 68.0491C40.7969 68.2891 40.3129 68.4091 39.7689 68.4091ZM39.6849 63.7291C39.2449 63.7291 38.8209 63.8411 38.4129 64.0651C38.0129 64.2811 37.6649 64.5811 37.3689 64.9651C37.4329 65.5011 37.5689 65.9731 37.7769 66.3811C37.9929 66.7811 38.2689 67.0931 38.6049 67.3171C38.9489 67.5411 39.3329 67.6531 39.7569 67.6531C40.1409 67.6531 40.4809 67.5691 40.7769 67.4011C41.0809 67.2251 41.3169 66.9851 41.4849 66.6811C41.6609 66.3771 41.7489 66.0371 41.7489 65.6611C41.7489 65.2851 41.6609 64.9531 41.4849 64.6651C41.3089 64.3691 41.0649 64.1411 40.7529 63.9811C40.4489 63.8131 40.0929 63.7291 39.6849 63.7291Z" fill="#667986"/>
<path d="M13.072 125.382V124.326C12.52 124.278 12.004 124.142 11.524 123.918C11.044 123.686 10.624 123.374 10.264 122.982L10.816 122.394C11.456 123.082 12.208 123.486 13.072 123.606V120.654L12.652 120.57C11.852 120.394 11.284 120.154 10.948 119.85C10.612 119.538 10.444 119.098 10.444 118.53C10.444 118.106 10.556 117.734 10.78 117.414C11.004 117.094 11.312 116.846 11.704 116.67C12.104 116.486 12.56 116.394 13.072 116.394V115.374H13.684V116.418C14.148 116.474 14.6 116.59 15.04 116.766C15.488 116.934 15.904 117.158 16.288 117.438L15.832 118.11C15.464 117.854 15.1 117.65 14.74 117.498C14.388 117.346 14.036 117.242 13.684 117.186V119.958L14.092 120.042C14.956 120.234 15.564 120.486 15.916 120.798C16.268 121.11 16.444 121.55 16.444 122.118C16.444 122.542 16.328 122.918 16.096 123.246C15.864 123.574 15.54 123.834 15.124 124.026C14.708 124.218 14.228 124.326 13.684 124.35V125.382H13.072ZM13.072 119.838V117.138C12.536 117.146 12.1 117.27 11.764 117.51C11.436 117.75 11.272 118.066 11.272 118.458C11.272 118.706 11.32 118.914 11.416 119.082C11.52 119.25 11.688 119.39 11.92 119.502C12.152 119.614 12.472 119.714 12.88 119.802L13.072 119.838ZM13.684 123.63C14.244 123.598 14.7 123.45 15.052 123.186C15.412 122.914 15.592 122.57 15.592 122.154C15.592 121.906 15.54 121.702 15.436 121.542C15.332 121.374 15.156 121.234 14.908 121.122C14.66 121.002 14.312 120.898 13.864 120.81L13.684 120.774V123.63ZM18.0446 124.578L22.2206 116.934H17.1806V116.178H23.1566V116.85L19.0286 124.578H18.0446ZM26.7888 124.71C25.6848 124.71 24.7328 124.33 23.9328 123.57L24.4728 122.982C24.8408 123.326 25.2048 123.578 25.5648 123.738C25.9328 123.89 26.3448 123.966 26.8008 123.966C27.2088 123.966 27.5688 123.882 27.8808 123.714C28.1928 123.546 28.4328 123.31 28.6008 123.006C28.7768 122.702 28.8648 122.354 28.8648 121.962C28.8648 121.402 28.6728 120.95 28.2888 120.606C27.9128 120.262 27.4168 120.09 26.8008 120.09C26.4808 120.09 26.1688 120.13 25.8648 120.21C25.5608 120.282 25.2448 120.402 24.9168 120.57L24.3168 120.378L24.5088 116.178H29.2848V116.934H25.2528L25.1208 119.838C25.4408 119.678 25.7488 119.566 26.0448 119.502C26.3408 119.43 26.6528 119.394 26.9808 119.394C27.5328 119.394 28.0128 119.502 28.4208 119.718C28.8368 119.926 29.1568 120.222 29.3808 120.606C29.6128 120.982 29.7288 121.422 29.7288 121.926C29.7288 122.478 29.6048 122.962 29.3568 123.378C29.1088 123.794 28.7648 124.122 28.3248 124.362C27.8848 124.594 27.3728 124.71 26.7888 124.71ZM31.4805 124.65C31.3125 124.65 31.1685 124.59 31.0485 124.47C30.9285 124.35 30.8685 124.206 30.8685 124.038C30.8685 123.87 30.9285 123.726 31.0485 123.606C31.1685 123.486 31.3125 123.426 31.4805 123.426C31.6485 123.426 31.7925 123.486 31.9125 123.606C32.0325 123.726 32.0925 123.87 32.0925 124.038C32.0925 124.206 32.0325 124.35 31.9125 124.47C31.7925 124.59 31.6485 124.65 31.4805 124.65ZM36.2713 124.71C35.6953 124.71 35.1553 124.61 34.6513 124.41C34.1553 124.21 33.7153 123.914 33.3313 123.522L33.9073 122.958C34.2593 123.31 34.6193 123.566 34.9873 123.726C35.3633 123.878 35.7873 123.954 36.2593 123.954C36.6673 123.954 37.0273 123.882 37.3393 123.738C37.6593 123.594 37.9073 123.394 38.0833 123.138C38.2593 122.882 38.3473 122.59 38.3473 122.262C38.3473 121.95 38.2673 121.674 38.1073 121.434C37.9553 121.186 37.7433 120.994 37.4713 120.858C37.1993 120.722 36.8873 120.654 36.5353 120.654H35.5393V119.91H36.4993C36.9553 119.91 37.3233 119.77 37.6033 119.49C37.8913 119.21 38.0353 118.846 38.0353 118.398C38.0353 118.102 37.9553 117.834 37.7953 117.594C37.6353 117.354 37.4153 117.166 37.1353 117.03C36.8633 116.886 36.5553 116.814 36.2113 116.814C35.7793 116.814 35.3913 116.894 35.0473 117.054C34.7113 117.206 34.3673 117.466 34.0153 117.834L33.4393 117.258C33.8153 116.858 34.2393 116.558 34.7113 116.358C35.1833 116.15 35.6873 116.046 36.2233 116.046C36.7353 116.046 37.1913 116.146 37.5913 116.346C37.9993 116.546 38.3193 116.822 38.5513 117.174C38.7833 117.518 38.8993 117.91 38.8993 118.35C38.8993 118.79 38.7553 119.186 38.4673 119.538C38.1793 119.882 37.7993 120.122 37.3273 120.258C37.8953 120.386 38.3513 120.634 38.6953 121.002C39.0393 121.37 39.2113 121.798 39.2113 122.286C39.2113 122.75 39.0833 123.166 38.8273 123.534C38.5793 123.902 38.2313 124.19 37.7833 124.398C37.3433 124.606 36.8393 124.71 36.2713 124.71ZM41.4825 124.578V117.102L40.0665 117.726V116.922L41.7945 116.178H42.3585V124.578H41.4825Z" fill="#667986"/>
<path d="M9.072 181.671V180.615C8.52 180.567 8.004 180.431 7.524 180.207C7.044 179.975 6.624 179.663 6.264 179.271L6.816 178.683C7.456 179.371 8.208 179.775 9.072 179.895V176.943L8.652 176.859C7.852 176.683 7.284 176.443 6.948 176.139C6.612 175.827 6.444 175.387 6.444 174.819C6.444 174.395 6.556 174.023 6.78 173.703C7.004 173.383 7.312 173.135 7.704 172.959C8.104 172.775 8.56 172.683 9.072 172.683V171.663H9.684V172.707C10.148 172.763 10.6 172.879 11.04 173.055C11.488 173.223 11.904 173.447 12.288 173.727L11.832 174.399C11.464 174.143 11.1 173.939 10.74 173.787C10.388 173.635 10.036 173.531 9.684 173.475V176.247L10.092 176.331C10.956 176.523 11.564 176.775 11.916 177.087C12.268 177.399 12.444 177.839 12.444 178.407C12.444 178.831 12.328 179.207 12.096 179.535C11.864 179.863 11.54 180.123 11.124 180.315C10.708 180.507 10.228 180.615 9.684 180.639V181.671H9.072ZM9.072 176.127V173.427C8.536 173.435 8.1 173.559 7.764 173.799C7.436 174.039 7.272 174.355 7.272 174.747C7.272 174.995 7.32 175.203 7.416 175.371C7.52 175.539 7.688 175.679 7.92 175.791C8.152 175.903 8.472 176.003 8.88 176.091L9.072 176.127ZM9.684 179.919C10.244 179.887 10.7 179.739 11.052 179.475C11.412 179.203 11.592 178.859 11.592 178.443C11.592 178.195 11.54 177.991 11.436 177.831C11.332 177.663 11.156 177.523 10.908 177.411C10.66 177.291 10.312 177.187 9.864 177.099L9.684 177.063V179.919ZM16.7806 180.987C16.1326 180.987 15.5606 180.815 15.0646 180.471C14.5766 180.127 14.1926 179.655 13.9126 179.055C13.6326 178.447 13.4926 177.747 13.4926 176.955C13.4926 176.027 13.6486 175.219 13.9606 174.531C14.2726 173.835 14.7126 173.295 15.2806 172.911C15.8486 172.527 16.5086 172.335 17.2606 172.335C17.6126 172.335 17.9606 172.383 18.3046 172.479C18.6486 172.575 18.9566 172.715 19.2286 172.899L18.7966 173.571C18.5486 173.427 18.2886 173.315 18.0166 173.235C17.7446 173.155 17.4686 173.115 17.1886 173.115C16.6126 173.115 16.1126 173.267 15.6886 173.571C15.2726 173.867 14.9486 174.295 14.7166 174.855C14.4926 175.415 14.3726 176.087 14.3566 176.871C14.6686 176.471 15.0406 176.159 15.4726 175.935C15.9046 175.711 16.3526 175.599 16.8166 175.599C17.3606 175.599 17.8446 175.711 18.2686 175.935C18.6926 176.159 19.0246 176.471 19.2646 176.871C19.5046 177.263 19.6246 177.711 19.6246 178.215C19.6246 178.743 19.5006 179.219 19.2526 179.643C19.0046 180.059 18.6646 180.387 18.2326 180.627C17.8086 180.867 17.3246 180.987 16.7806 180.987ZM16.6966 176.307C16.2566 176.307 15.8326 176.419 15.4246 176.643C15.0246 176.859 14.6766 177.159 14.3806 177.543C14.4446 178.079 14.5806 178.551 14.7886 178.959C15.0046 179.359 15.2806 179.671 15.6166 179.895C15.9606 180.119 16.3446 180.231 16.7686 180.231C17.1526 180.231 17.4926 180.147 17.7886 179.979C18.0926 179.803 18.3286 179.563 18.4966 179.259C18.6726 178.955 18.7606 178.615 18.7606 178.239C18.7606 177.863 18.6726 177.531 18.4966 177.243C18.3206 176.947 18.0766 176.719 17.7646 176.559C17.4606 176.391 17.1046 176.307 16.6966 176.307ZM23.3045 180.999C22.2005 180.999 21.2485 180.619 20.4485 179.859L20.9885 179.271C21.3565 179.615 21.7205 179.867 22.0805 180.027C22.4485 180.179 22.8605 180.255 23.3165 180.255C23.7245 180.255 24.0845 180.171 24.3965 180.003C24.7085 179.835 24.9485 179.599 25.1165 179.295C25.2925 178.991 25.3805 178.643 25.3805 178.251C25.3805 177.691 25.1885 177.239 24.8045 176.895C24.4285 176.551 23.9325 176.379 23.3165 176.379C22.9965 176.379 22.6845 176.419 22.3805 176.499C22.0765 176.571 21.7605 176.691 21.4325 176.859L20.8325 176.667L21.0245 172.467H25.8005V173.223H21.7685L21.6365 176.127C21.9565 175.967 22.2645 175.855 22.5605 175.791C22.8565 175.719 23.1685 175.683 23.4965 175.683C24.0485 175.683 24.5285 175.791 24.9365 176.007C25.3525 176.215 25.6725 176.511 25.8965 176.895C26.1285 177.271 26.2445 177.711 26.2445 178.215C26.2445 178.767 26.1205 179.251 25.8725 179.667C25.6245 180.083 25.2805 180.411 24.8405 180.651C24.4005 180.883 23.8885 180.999 23.3045 180.999ZM27.9961 180.939C27.8281 180.939 27.6841 180.879 27.5641 180.759C27.4441 180.639 27.3841 180.495 27.3841 180.327C27.3841 180.159 27.4441 180.015 27.5641 179.895C27.6841 179.775 27.8281 179.715 27.9961 179.715C28.1641 179.715 28.3081 179.775 28.4281 179.895C28.5481 180.015 28.6081 180.159 28.6081 180.327C28.6081 180.495 28.5481 180.639 28.4281 180.759C28.3081 180.879 28.1641 180.939 27.9961 180.939ZM33.1048 180.999C32.4328 180.999 31.8408 180.815 31.3288 180.447C30.8168 180.079 30.4128 179.571 30.1168 178.923C29.8288 178.267 29.6848 177.515 29.6848 176.667C29.6848 175.819 29.8288 175.071 30.1168 174.423C30.4128 173.767 30.8168 173.255 31.3288 172.887C31.8408 172.519 32.4328 172.335 33.1048 172.335C33.7768 172.335 34.3688 172.519 34.8808 172.887C35.3928 173.255 35.7928 173.767 36.0808 174.423C36.3768 175.071 36.5248 175.819 36.5248 176.667C36.5248 177.515 36.3768 178.267 36.0808 178.923C35.7928 179.571 35.3928 180.079 34.8808 180.447C34.3688 180.815 33.7768 180.999 33.1048 180.999ZM33.1048 180.219C33.6248 180.219 34.0728 180.075 34.4488 179.787C34.8328 179.491 35.1288 179.075 35.3368 178.539C35.5448 178.003 35.6488 177.379 35.6488 176.667C35.6488 175.947 35.5448 175.323 35.3368 174.795C35.1288 174.259 34.8328 173.847 34.4488 173.559C34.0728 173.263 33.6248 173.115 33.1048 173.115C32.5928 173.115 32.1448 173.263 31.7608 173.559C31.3768 173.847 31.0808 174.259 30.8728 174.795C30.6648 175.323 30.5608 175.947 30.5608 176.667C30.5608 177.379 30.6648 178.003 30.8728 178.539C31.0808 179.075 31.3768 179.491 31.7608 179.787C32.1448 180.075 32.5928 180.219 33.1048 180.219ZM37.3028 180.867V180.231L40.6628 176.559C40.9268 176.271 41.1308 176.019 41.2748 175.803C41.4268 175.579 41.5308 175.371 41.5868 175.179C41.6508 174.987 41.6828 174.783 41.6828 174.567C41.6828 174.143 41.5148 173.795 41.1788 173.523C40.8508 173.243 40.4308 173.103 39.9188 173.103C39.5268 173.103 39.1628 173.179 38.8268 173.331C38.4908 173.483 38.1148 173.747 37.6988 174.123L37.1948 173.523C37.6348 173.123 38.0788 172.827 38.5268 172.635C38.9748 172.435 39.4428 172.335 39.9308 172.335C40.4348 172.335 40.8828 172.431 41.2748 172.623C41.6668 172.807 41.9748 173.063 42.1988 173.391C42.4228 173.719 42.5348 174.095 42.5348 174.519C42.5348 174.799 42.4988 175.059 42.4268 175.299C42.3548 175.531 42.2268 175.783 42.0428 176.055C41.8588 176.319 41.5948 176.639 41.2508 177.015L38.3828 180.123L42.7148 180.111V180.867H37.3028Z" fill="#667986"/>
<path d="M9.072 237.96V236.904C8.52 236.856 8.004 236.72 7.524 236.496C7.044 236.264 6.624 235.952 6.264 235.56L6.816 234.972C7.456 235.66 8.208 236.064 9.072 236.184V233.232L8.652 233.148C7.852 232.972 7.284 232.732 6.948 232.428C6.612 232.116 6.444 231.676 6.444 231.108C6.444 230.684 6.556 230.312 6.78 229.992C7.004 229.672 7.312 229.424 7.704 229.248C8.104 229.064 8.56 228.972 9.072 228.972V227.952H9.684V228.996C10.148 229.052 10.6 229.168 11.04 229.344C11.488 229.512 11.904 229.736 12.288 230.016L11.832 230.688C11.464 230.432 11.1 230.228 10.74 230.076C10.388 229.924 10.036 229.82 9.684 229.764V232.536L10.092 232.62C10.956 232.812 11.564 233.064 11.916 233.376C12.268 233.688 12.444 234.128 12.444 234.696C12.444 235.12 12.328 235.496 12.096 235.824C11.864 236.152 11.54 236.412 11.124 236.604C10.708 236.796 10.228 236.904 9.684 236.928V237.96H9.072ZM9.072 232.416V229.716C8.536 229.724 8.1 229.848 7.764 230.088C7.436 230.328 7.272 230.644 7.272 231.036C7.272 231.284 7.32 231.492 7.416 231.66C7.52 231.828 7.688 231.968 7.92 232.08C8.152 232.192 8.472 232.292 8.88 232.38L9.072 232.416ZM9.684 236.208C10.244 236.176 10.7 236.028 11.052 235.764C11.412 235.492 11.592 235.148 11.592 234.732C11.592 234.484 11.54 234.28 11.436 234.12C11.332 233.952 11.156 233.812 10.908 233.7C10.66 233.58 10.312 233.476 9.864 233.388L9.684 233.352V236.208ZM17.9086 237.156V234.912H13.1326V234.216L17.8486 228.756H18.7846V234.156H19.7926V234.912H18.7846V237.156H17.9086ZM14.2126 234.156H17.9086V229.872L14.2126 234.156ZM23.247 228.624C23.895 228.624 24.463 228.796 24.951 229.14C25.447 229.484 25.835 229.96 26.115 230.568C26.395 231.168 26.535 231.864 26.535 232.656C26.535 233.584 26.379 234.396 26.067 235.092C25.755 235.78 25.315 236.316 24.747 236.7C24.187 237.084 23.527 237.276 22.767 237.276C22.423 237.276 22.075 237.228 21.723 237.132C21.379 237.028 21.071 236.888 20.799 236.712L21.231 236.04C21.479 236.184 21.739 236.296 22.011 236.376C22.291 236.456 22.567 236.496 22.839 236.496C23.415 236.496 23.911 236.348 24.327 236.052C24.751 235.748 25.079 235.316 25.311 234.756C25.543 234.188 25.663 233.516 25.671 232.74C25.359 233.14 24.987 233.452 24.555 233.676C24.123 233.9 23.675 234.012 23.211 234.012C22.667 234.012 22.183 233.9 21.759 233.676C21.335 233.444 21.003 233.132 20.763 232.74C20.523 232.348 20.403 231.9 20.403 231.396C20.403 230.86 20.527 230.384 20.775 229.968C21.023 229.552 21.359 229.224 21.783 228.984C22.215 228.744 22.703 228.624 23.247 228.624ZM23.331 233.304C23.771 233.304 24.191 233.196 24.591 232.98C24.999 232.756 25.351 232.452 25.647 232.068C25.591 231.524 25.455 231.052 25.239 230.652C25.023 230.252 24.747 229.94 24.411 229.716C24.075 229.492 23.691 229.38 23.259 229.38C22.883 229.38 22.543 229.468 22.239 229.644C21.935 229.812 21.695 230.048 21.519 230.352C21.351 230.648 21.267 230.988 21.267 231.372C21.267 231.748 21.355 232.084 21.531 232.38C21.707 232.668 21.951 232.896 22.263 233.064C22.575 233.224 22.931 233.304 23.331 233.304ZM28.3594 237.228C28.1914 237.228 28.0474 237.168 27.9274 237.048C27.8074 236.928 27.7474 236.784 27.7474 236.616C27.7474 236.448 27.8074 236.304 27.9274 236.184C28.0474 236.064 28.1914 236.004 28.3594 236.004C28.5274 236.004 28.6714 236.064 28.7914 236.184C28.9114 236.304 28.9714 236.448 28.9714 236.616C28.9714 236.784 28.9114 236.928 28.7914 237.048C28.6714 237.168 28.5274 237.228 28.3594 237.228ZM33.1547 237.288C32.5787 237.288 32.0667 237.184 31.6187 236.976C31.1707 236.768 30.8147 236.484 30.5507 236.124C30.2947 235.756 30.1667 235.344 30.1667 234.888C30.1667 234.544 30.2507 234.228 30.4187 233.94C30.5867 233.644 30.8187 233.392 31.1147 233.184C31.4187 232.968 31.7627 232.816 32.1467 232.728C31.6587 232.592 31.2587 232.348 30.9467 231.996C30.6427 231.644 30.4907 231.248 30.4907 230.808C30.4907 230.392 30.6067 230.02 30.8387 229.692C31.0707 229.364 31.3867 229.104 31.7867 228.912C32.1947 228.72 32.6507 228.624 33.1547 228.624C33.6667 228.624 34.1227 228.72 34.5227 228.912C34.9227 229.104 35.2387 229.364 35.4707 229.692C35.7027 230.02 35.8187 230.392 35.8187 230.808C35.8187 231.248 35.6667 231.644 35.3627 231.996C35.0587 232.348 34.6587 232.592 34.1627 232.728C34.7467 232.864 35.2227 233.132 35.5907 233.532C35.9587 233.924 36.1427 234.376 36.1427 234.888C36.1427 235.344 36.0147 235.756 35.7587 236.124C35.5027 236.484 35.1467 236.768 34.6907 236.976C34.2427 237.184 33.7307 237.288 33.1547 237.288ZM33.1547 232.368C33.4987 232.368 33.8067 232.3 34.0787 232.164C34.3587 232.028 34.5787 231.848 34.7387 231.624C34.8987 231.392 34.9787 231.132 34.9787 230.844C34.9787 230.556 34.8987 230.296 34.7387 230.064C34.5787 229.832 34.3587 229.652 34.0787 229.524C33.8067 229.388 33.4987 229.32 33.1547 229.32C32.8107 229.32 32.4987 229.388 32.2187 229.524C31.9467 229.652 31.7307 229.832 31.5707 230.064C31.4107 230.296 31.3307 230.556 31.3307 230.844C31.3307 231.132 31.4107 231.392 31.5707 231.624C31.7307 231.848 31.9467 232.028 32.2187 232.164C32.4987 232.3 32.8107 232.368 33.1547 232.368ZM33.1547 236.592C33.5627 236.592 33.9267 236.516 34.2467 236.364C34.5667 236.212 34.8187 236.004 35.0027 235.74C35.1947 235.476 35.2907 235.18 35.2907 234.852C35.2907 234.524 35.1947 234.228 35.0027 233.964C34.8187 233.7 34.5667 233.492 34.2467 233.34C33.9267 233.188 33.5627 233.112 33.1547 233.112C32.7467 233.112 32.3827 233.188 32.0627 233.34C31.7427 233.492 31.4867 233.7 31.2947 233.964C31.1107 234.228 31.0187 234.524 31.0187 234.852C31.0187 235.18 31.1107 235.476 31.2947 235.74C31.4867 236.004 31.7427 236.212 32.0627 236.364C32.3827 236.516 32.7467 236.592 33.1547 236.592ZM40.0048 228.624C40.6528 228.624 41.2208 228.796 41.7088 229.14C42.2048 229.484 42.5928 229.96 42.8728 230.568C43.1528 231.168 43.2928 231.864 43.2928 232.656C43.2928 233.584 43.1368 234.396 42.8248 235.092C42.5128 235.78 42.0728 236.316 41.5048 236.7C40.9448 237.084 40.2848 237.276 39.5248 237.276C39.1808 237.276 38.8328 237.228 38.4808 237.132C38.1368 237.028 37.8288 236.888 37.5568 236.712L37.9888 236.04C38.2368 236.184 38.4968 236.296 38.7688 236.376C39.0488 236.456 39.3248 236.496 39.5968 236.496C40.1728 236.496 40.6688 236.348 41.0848 236.052C41.5088 235.748 41.8368 235.316 42.0688 234.756C42.3008 234.188 42.4208 233.516 42.4288 232.74C42.1168 233.14 41.7448 233.452 41.3128 233.676C40.8808 233.9 40.4328 234.012 39.9688 234.012C39.4248 234.012 38.9408 233.9 38.5168 233.676C38.0928 233.444 37.7608 233.132 37.5208 232.74C37.2808 232.348 37.1608 231.9 37.1608 231.396C37.1608 230.86 37.2848 230.384 37.5328 229.968C37.7808 229.552 38.1168 229.224 38.5408 228.984C38.9728 228.744 39.4608 228.624 40.0048 228.624ZM40.0888 233.304C40.5288 233.304 40.9488 233.196 41.3488 232.98C41.7568 232.756 42.1088 232.452 42.4048 232.068C42.3488 231.524 42.2128 231.052 41.9968 230.652C41.7808 230.252 41.5048 229.94 41.1688 229.716C40.8328 229.492 40.4488 229.38 40.0168 229.38C39.6408 229.38 39.3008 229.468 38.9968 229.644C38.6928 229.812 38.4528 230.048 38.2768 230.352C38.1088 230.648 38.0248 230.988 38.0248 231.372C38.0248 231.748 38.1128 232.084 38.2888 232.38C38.4648 232.668 38.7088 232.896 39.0208 233.064C39.3328 233.224 39.6888 233.304 40.0888 233.304Z" fill="#667986"/>
<line x1="64" y1="203.072" x2="722" y2="203.072" stroke="#CCD2D7" stroke-dasharray="6 6"/>
<path d="M406.844 105.5L406.844 240.156" stroke="#E5E9EB"/>
<rect x="396" y="64" width="106" height="42" rx="13" fill="#2BC65D" fill-opacity="0.15"/>
<path d="M406.366 79.6023V73.7045H407.705V79.6023H406.366ZM404.087 77.3224V75.9844H409.984V77.3224H404.087ZM414.662 82.0909V71.1818H415.361V82.0909H414.662ZM416.678 74.6719C416.638 74.2997 416.471 74.0099 416.175 73.8026C415.882 73.5952 415.502 73.4915 415.033 73.4915C414.703 73.4915 414.421 73.5412 414.185 73.6406C413.949 73.7401 413.769 73.875 413.644 74.0455C413.519 74.2159 413.455 74.4105 413.452 74.6293C413.452 74.8111 413.493 74.9687 413.576 75.1023C413.661 75.2358 413.776 75.3494 413.921 75.4432C414.066 75.5341 414.226 75.6108 414.402 75.6733C414.578 75.7358 414.756 75.7884 414.935 75.831L415.753 76.0355C416.083 76.1122 416.4 76.2159 416.703 76.3466C417.01 76.4773 417.284 76.642 417.526 76.8409C417.77 77.0398 417.963 77.2798 418.105 77.5611C418.248 77.8423 418.319 78.1719 418.319 78.5497C418.319 79.0611 418.188 79.5114 417.926 79.9006C417.665 80.2869 417.287 80.5895 416.793 80.8082C416.301 81.0241 415.706 81.1321 415.007 81.1321C414.328 81.1321 413.739 81.027 413.239 80.8168C412.742 80.6065 412.353 80.2997 412.071 79.8963C411.793 79.4929 411.642 79.0014 411.62 78.4219H413.175C413.198 78.7259 413.292 78.9787 413.456 79.1804C413.621 79.3821 413.836 79.5327 414.1 79.6321C414.367 79.7315 414.665 79.7812 414.995 79.7812C415.338 79.7812 415.64 79.7301 415.898 79.6278C416.159 79.5227 416.364 79.3778 416.512 79.1932C416.659 79.0057 416.735 78.7869 416.738 78.5369C416.735 78.3097 416.668 78.1222 416.537 77.9744C416.407 77.8239 416.223 77.6989 415.988 77.5994C415.755 77.4972 415.482 77.4062 415.169 77.3267L414.176 77.071C413.458 76.8864 412.89 76.6065 412.472 76.2315C412.057 75.8537 411.85 75.3523 411.85 74.7273C411.85 74.2131 411.989 73.7628 412.267 73.3764C412.549 72.9901 412.931 72.6903 413.414 72.4773C413.897 72.2614 414.444 72.1534 415.054 72.1534C415.674 72.1534 416.216 72.2614 416.682 72.4773C417.151 72.6903 417.519 72.9872 417.786 73.3679C418.053 73.7457 418.191 74.1804 418.199 74.6719H416.678ZM422.869 81.1662C422.167 81.1662 421.565 80.9886 421.062 80.6335C420.562 80.2756 420.177 79.7599 419.907 79.0866C419.64 78.4105 419.506 77.5966 419.506 76.6449C419.509 75.6932 419.644 74.8835 419.911 74.2159C420.181 73.5455 420.566 73.0341 421.066 72.6818C421.569 72.3295 422.17 72.1534 422.869 72.1534C423.567 72.1534 424.168 72.3295 424.671 72.6818C425.174 73.0341 425.559 73.5455 425.826 74.2159C426.096 74.8864 426.231 75.696 426.231 76.6449C426.231 77.5994 426.096 78.4148 425.826 79.0909C425.559 79.7642 425.174 80.2784 424.671 80.6335C424.171 80.9886 423.57 81.1662 422.869 81.1662ZM422.869 79.8324C423.414 79.8324 423.844 79.5639 424.16 79.027C424.478 78.4872 424.637 77.6932 424.637 76.6449C424.637 75.9517 424.565 75.3693 424.42 74.8977C424.275 74.4261 424.07 74.071 423.806 73.8324C423.542 73.5909 423.229 73.4702 422.869 73.4702C422.326 73.4702 421.897 73.7401 421.582 74.2798C421.266 74.8168 421.107 75.6051 421.104 76.6449C421.102 77.3409 421.171 77.9261 421.313 78.4006C421.458 78.875 421.663 79.233 421.927 79.4744C422.191 79.7131 422.505 79.8324 422.869 79.8324ZM428.274 81.0938C428.016 81.0938 427.794 81.0028 427.609 80.821C427.425 80.6392 427.334 80.4176 427.337 80.1562C427.334 79.9006 427.425 79.6818 427.609 79.5C427.794 79.3182 428.016 79.2273 428.274 79.2273C428.524 79.2273 428.741 79.3182 428.926 79.5C429.114 79.6818 429.209 79.9006 429.212 80.1562C429.209 80.3295 429.163 80.4872 429.075 80.6293C428.99 80.7713 428.876 80.8849 428.734 80.9702C428.595 81.0526 428.442 81.0938 428.274 81.0938ZM430.787 81V79.858L433.817 76.8878C434.107 76.5952 434.348 76.3352 434.542 76.108C434.735 75.8807 434.88 75.6605 434.976 75.4474C435.073 75.2344 435.121 75.0071 435.121 74.7656C435.121 74.4901 435.059 74.2543 434.934 74.0582C434.809 73.8594 434.637 73.706 434.418 73.598C434.199 73.4901 433.951 73.4361 433.672 73.4361C433.385 73.4361 433.134 73.4957 432.918 73.6151C432.702 73.7315 432.534 73.8977 432.415 74.1136C432.299 74.3295 432.24 74.5866 432.24 74.8849H430.736C430.736 74.331 430.863 73.8494 431.115 73.4403C431.368 73.0312 431.716 72.7145 432.159 72.4901C432.605 72.2656 433.117 72.1534 433.694 72.1534C434.279 72.1534 434.793 72.2628 435.236 72.4815C435.679 72.7003 436.023 73 436.267 73.3807C436.515 73.7614 436.638 74.196 436.638 74.6847C436.638 75.0114 436.576 75.3324 436.451 75.6477C436.326 75.9631 436.105 76.3125 435.79 76.696C435.478 77.0795 435.039 77.544 434.473 78.0895L432.969 79.6193V79.679H436.77V81H430.787ZM441.79 72.2727V81H440.209V73.8111H440.158L438.117 75.1151V73.6662L440.286 72.2727H441.79ZM447.383 76.6364C447.383 75.571 447.524 74.5923 447.805 73.7003C448.089 72.8054 448.511 71.9787 449.071 71.2202H450.524C450.308 71.5014 450.106 71.8466 449.919 72.2557C449.731 72.6619 449.568 73.108 449.429 73.5938C449.292 74.0767 449.184 74.5781 449.105 75.098C449.028 75.6179 448.99 76.1307 448.99 76.6364C448.99 77.3097 449.056 77.9915 449.19 78.6818C449.326 79.3722 449.51 80.0128 449.74 80.6037C449.973 81.1918 450.234 81.6733 450.524 82.0483H449.071C448.511 81.2898 448.089 80.4645 447.805 79.5724C447.524 78.6776 447.383 77.6989 447.383 76.6364ZM454.931 81.1662C454.229 81.1662 453.627 80.9886 453.124 80.6335C452.624 80.2756 452.239 79.7599 451.969 79.0866C451.702 78.4105 451.569 77.5966 451.569 76.6449C451.572 75.6932 451.707 74.8835 451.974 74.2159C452.244 73.5455 452.629 73.0341 453.129 72.6818C453.631 72.3295 454.232 72.1534 454.931 72.1534C455.63 72.1534 456.231 72.3295 456.734 72.6818C457.237 73.0341 457.621 73.5455 457.888 74.2159C458.158 74.8864 458.293 75.696 458.293 76.6449C458.293 77.5994 458.158 78.4148 457.888 79.0909C457.621 79.7642 457.237 80.2784 456.734 80.6335C456.234 80.9886 455.633 81.1662 454.931 81.1662ZM454.931 79.8324C455.477 79.8324 455.907 79.5639 456.222 79.027C456.54 78.4872 456.7 77.6932 456.7 76.6449C456.7 75.9517 456.627 75.3693 456.482 74.8977C456.337 74.4261 456.133 74.071 455.869 73.8324C455.604 73.5909 455.292 73.4702 454.931 73.4702C454.388 73.4702 453.96 73.7401 453.644 74.2798C453.329 74.8168 453.17 75.6051 453.167 76.6449C453.164 77.3409 453.234 77.9261 453.376 78.4006C453.521 78.875 453.725 79.233 453.989 79.4744C454.254 79.7131 454.567 79.8324 454.931 79.8324ZM460.337 81.0938C460.078 81.0938 459.857 81.0028 459.672 80.821C459.487 80.6392 459.396 80.4176 459.399 80.1562C459.396 79.9006 459.487 79.6818 459.672 79.5C459.857 79.3182 460.078 79.2273 460.337 79.2273C460.587 79.2273 460.804 79.3182 460.989 79.5C461.176 79.6818 461.271 79.9006 461.274 80.1562C461.271 80.3295 461.226 80.4872 461.138 80.6293C461.053 80.7713 460.939 80.8849 460.797 80.9702C460.658 81.0526 460.504 81.0938 460.337 81.0938ZM465.751 72.1534C466.168 72.1562 466.575 72.2301 466.969 72.375C467.367 72.517 467.725 72.75 468.043 73.0739C468.362 73.3949 468.614 73.8253 468.802 74.3651C468.989 74.9048 469.083 75.5724 469.083 76.3679C469.086 77.1179 469.006 77.7884 468.844 78.3793C468.685 78.9673 468.457 79.4645 468.158 79.8707C467.86 80.277 467.501 80.5866 467.08 80.7997C466.66 81.0128 466.187 81.1193 465.661 81.1193C465.11 81.1193 464.621 81.0114 464.195 80.7955C463.772 80.5795 463.43 80.2841 463.168 79.9091C462.907 79.5341 462.746 79.1051 462.687 78.6222H464.242C464.322 78.9687 464.484 79.2443 464.728 79.4489C464.975 79.6506 465.286 79.7514 465.661 79.7514C466.266 79.7514 466.732 79.4886 467.059 78.9631C467.386 78.4375 467.549 77.7074 467.549 76.7727H467.489C467.35 77.0227 467.17 77.2386 466.948 77.4205C466.727 77.5994 466.475 77.7372 466.194 77.8338C465.915 77.9304 465.62 77.9787 465.308 77.9787C464.796 77.9787 464.336 77.8565 463.927 77.6122C463.521 77.3679 463.198 77.0327 462.96 76.6065C462.724 76.1804 462.604 75.6932 462.602 75.1449C462.602 74.5767 462.732 74.0668 462.994 73.6151C463.258 73.1605 463.626 72.8026 464.097 72.5412C464.569 72.277 465.12 72.1477 465.751 72.1534ZM465.755 73.4318C465.448 73.4318 465.171 73.5071 464.924 73.6577C464.68 73.8054 464.487 74.0071 464.344 74.2628C464.205 74.5156 464.136 74.7983 464.136 75.1108C464.138 75.4205 464.208 75.7017 464.344 75.9545C464.484 76.2074 464.673 76.4077 464.911 76.5554C465.153 76.7031 465.428 76.777 465.738 76.777C465.968 76.777 466.183 76.733 466.381 76.6449C466.58 76.5568 466.754 76.4347 466.901 76.2784C467.052 76.1193 467.168 75.9389 467.251 75.7372C467.336 75.5355 467.377 75.3224 467.374 75.098C467.374 74.7997 467.303 74.5241 467.161 74.2713C467.022 74.0185 466.83 73.8153 466.586 73.6619C466.344 73.5085 466.067 73.4318 465.755 73.4318ZM473.532 72.1534C473.95 72.1562 474.356 72.2301 474.751 72.375C475.148 72.517 475.506 72.75 475.825 73.0739C476.143 73.3949 476.396 73.8253 476.583 74.3651C476.771 74.9048 476.864 75.5724 476.864 76.3679C476.867 77.1179 476.788 77.7884 476.626 78.3793C476.467 78.9673 476.238 79.4645 475.94 79.8707C475.641 80.277 475.282 80.5866 474.862 80.7997C474.441 81.0128 473.968 81.1193 473.442 81.1193C472.891 81.1193 472.403 81.0114 471.977 80.7955C471.553 80.5795 471.211 80.2841 470.95 79.9091C470.688 79.5341 470.528 79.1051 470.468 78.6222H472.023C472.103 78.9687 472.265 79.2443 472.509 79.4489C472.756 79.6506 473.067 79.7514 473.442 79.7514C474.048 79.7514 474.513 79.4886 474.84 78.9631C475.167 78.4375 475.33 77.7074 475.33 76.7727H475.271C475.131 77.0227 474.951 77.2386 474.729 77.4205C474.508 77.5994 474.256 77.7372 473.975 77.8338C473.697 77.9304 473.401 77.9787 473.089 77.9787C472.577 77.9787 472.117 77.8565 471.708 77.6122C471.302 77.3679 470.979 77.0327 470.741 76.6065C470.505 76.1804 470.386 75.6932 470.383 75.1449C470.383 74.5767 470.513 74.0668 470.775 73.6151C471.039 73.1605 471.407 72.8026 471.879 72.5412C472.35 72.277 472.901 72.1477 473.532 72.1534ZM473.536 73.4318C473.229 73.4318 472.952 73.5071 472.705 73.6577C472.461 73.8054 472.268 74.0071 472.126 74.2628C471.987 74.5156 471.917 74.7983 471.917 75.1108C471.92 75.4205 471.989 75.7017 472.126 75.9545C472.265 76.2074 472.454 76.4077 472.692 76.5554C472.934 76.7031 473.21 76.777 473.519 76.777C473.749 76.777 473.964 76.733 474.163 76.6449C474.362 76.5568 474.535 76.4347 474.683 76.2784C474.833 76.1193 474.95 75.9389 475.032 75.7372C475.117 75.5355 475.158 75.3224 475.156 75.098C475.156 74.7997 475.085 74.5241 474.942 74.2713C474.803 74.0185 474.612 73.8153 474.367 73.6619C474.126 73.5085 473.849 73.4318 473.536 73.4318ZM482.95 79.3636V78.9034C482.95 78.5653 483.021 78.2543 483.163 77.9702C483.308 77.6861 483.518 77.4574 483.793 77.2841C484.069 77.1108 484.403 77.0241 484.795 77.0241C485.198 77.0241 485.536 77.1108 485.809 77.2841C486.082 77.4545 486.288 77.6818 486.427 77.9659C486.569 78.25 486.64 78.5625 486.64 78.9034V79.3636C486.64 79.7017 486.569 80.0128 486.427 80.2969C486.285 80.581 486.076 80.8097 485.8 80.983C485.528 81.1563 485.192 81.2429 484.795 81.2429C484.397 81.2429 484.06 81.1563 483.785 80.983C483.509 80.8097 483.3 80.581 483.158 80.2969C483.019 80.0128 482.95 79.7017 482.95 79.3636ZM484.062 78.9034V79.3636C484.062 79.5881 484.116 79.794 484.224 79.9815C484.332 80.169 484.522 80.2628 484.795 80.2628C485.07 80.2628 485.259 80.1705 485.362 79.9858C485.467 79.7983 485.519 79.5909 485.519 79.3636V78.9034C485.519 78.6761 485.469 78.4688 485.37 78.2812C485.271 78.0909 485.079 77.9957 484.795 77.9957C484.528 77.9957 484.339 78.0909 484.228 78.2812C484.117 78.4688 484.062 78.6761 484.062 78.9034ZM478.513 74.3693V73.9091C478.513 73.5682 478.586 73.2557 478.731 72.9716C478.876 72.6875 479.086 72.4602 479.362 72.2898C479.637 72.1165 479.971 72.0298 480.363 72.0298C480.763 72.0298 481.1 72.1165 481.373 72.2898C481.648 72.4602 481.856 72.6875 481.995 72.9716C482.134 73.2557 482.204 73.5682 482.204 73.9091V74.3693C482.204 74.7102 482.133 75.0227 481.991 75.3068C481.852 75.5881 481.644 75.8139 481.369 75.9844C481.093 76.1548 480.758 76.2401 480.363 76.2401C479.962 76.2401 479.624 76.1548 479.349 75.9844C479.076 75.8139 478.869 75.5866 478.727 75.3026C478.585 75.0185 478.513 74.7074 478.513 74.3693ZM479.634 73.9091V74.3693C479.634 74.5966 479.687 74.804 479.792 74.9915C479.9 75.1761 480.09 75.2685 480.363 75.2685C480.636 75.2685 480.823 75.1761 480.925 74.9915C481.031 74.804 481.083 74.5966 481.083 74.3693V73.9091C481.083 73.6818 481.033 73.4744 480.934 73.2869C480.835 73.0966 480.644 73.0014 480.363 73.0014C480.093 73.0014 479.904 73.0966 479.796 73.2869C479.688 73.4773 479.634 73.6847 479.634 73.9091ZM478.999 81L484.999 72.2727H486.065L480.065 81H478.999ZM491.178 76.6364C491.178 77.6989 491.036 78.6776 490.752 79.5724C490.471 80.4645 490.05 81.2898 489.491 82.0483H488.038C488.256 81.767 488.458 81.4233 488.643 81.017C488.83 80.6108 488.992 80.1648 489.129 79.679C489.268 79.1932 489.376 78.6903 489.452 78.1705C489.532 77.6506 489.572 77.1392 489.572 76.6364C489.572 75.9631 489.504 75.2812 489.367 74.5909C489.234 73.9006 489.05 73.2599 488.817 72.669C488.587 72.0781 488.327 71.5952 488.038 71.2202H489.491C490.05 71.9787 490.471 72.8054 490.752 73.7003C491.036 74.5923 491.178 75.571 491.178 76.6364Z" fill="#2BC65D"/>
<path d="M406.75 97.1193C406.108 97.1193 405.561 96.9446 405.109 96.5952C404.658 96.2429 404.313 95.733 404.074 95.0653C403.835 94.3949 403.716 93.5852 403.716 92.6364C403.716 91.6932 403.835 90.8878 404.074 90.2202C404.315 89.5497 404.662 89.0384 405.114 88.6861C405.568 88.331 406.114 88.1534 406.75 88.1534C407.386 88.1534 407.93 88.331 408.382 88.6861C408.837 89.0384 409.183 89.5497 409.422 90.2202C409.663 90.8878 409.784 91.6932 409.784 92.6364C409.784 93.5852 409.665 94.3949 409.426 95.0653C409.188 95.733 408.842 96.2429 408.391 96.5952C407.939 96.9446 407.392 97.1193 406.75 97.1193ZM406.75 96.1818C407.386 96.1818 407.881 95.875 408.233 95.2614C408.585 94.6477 408.761 93.7727 408.761 92.6364C408.761 91.8807 408.68 91.2372 408.518 90.706C408.359 90.1747 408.129 89.7699 407.828 89.4915C407.53 89.2131 407.17 89.0739 406.75 89.0739C406.119 89.0739 405.626 89.3849 405.271 90.0071C404.916 90.6264 404.739 91.5028 404.739 92.6364C404.739 93.392 404.818 94.0341 404.977 94.5625C405.136 95.0909 405.365 95.4929 405.663 95.7685C405.964 96.044 406.327 96.1818 406.75 96.1818ZM414.199 97.1193C413.614 97.1193 413.097 97.0156 412.648 96.8082C412.202 96.598 411.854 96.3097 411.604 95.9432C411.354 95.5739 411.23 95.1534 411.233 94.6818C411.23 94.3125 411.303 93.9716 411.45 93.6591C411.598 93.3437 411.8 93.081 412.055 92.8707C412.314 92.6577 412.602 92.5227 412.92 92.4659V92.4148C412.503 92.3068 412.17 92.0724 411.923 91.7116C411.676 91.348 411.554 90.9347 411.557 90.4716C411.554 90.0284 411.666 89.6321 411.893 89.2827C412.121 88.9332 412.433 88.6577 412.831 88.456C413.232 88.2543 413.688 88.1534 414.199 88.1534C414.705 88.1534 415.156 88.2543 415.554 88.456C415.952 88.6577 416.264 88.9332 416.491 89.2827C416.722 89.6321 416.838 90.0284 416.841 90.4716C416.838 90.9347 416.712 91.348 416.462 91.7116C416.214 92.0724 415.886 92.3068 415.477 92.4148V92.4659C415.793 92.5227 416.077 92.6577 416.33 92.8707C416.582 93.081 416.784 93.3437 416.935 93.6591C417.085 93.9716 417.162 94.3125 417.165 94.6818C417.162 95.1534 417.034 95.5739 416.781 95.9432C416.531 96.3097 416.183 96.598 415.737 96.8082C415.294 97.0156 414.781 97.1193 414.199 97.1193ZM414.199 96.1818C414.594 96.1818 414.935 96.1179 415.222 95.9901C415.509 95.8622 415.73 95.6818 415.886 95.4489C416.043 95.2159 416.122 94.9432 416.125 94.6307C416.122 94.3011 416.037 94.0099 415.869 93.7571C415.702 93.5043 415.473 93.3054 415.183 93.1605C414.896 93.0156 414.568 92.9432 414.199 92.9432C413.827 92.9432 413.494 93.0156 413.202 93.1605C412.912 93.3054 412.683 93.5043 412.516 93.7571C412.351 94.0099 412.27 94.3011 412.273 94.6307C412.27 94.9432 412.345 95.2159 412.499 95.4489C412.655 95.6818 412.878 95.8622 413.168 95.9901C413.457 96.1179 413.801 96.1818 414.199 96.1818ZM414.199 92.0398C414.511 92.0398 414.788 91.9773 415.03 91.8523C415.274 91.7273 415.466 91.5526 415.605 91.3281C415.744 91.1037 415.815 90.8409 415.818 90.5398C415.815 90.2443 415.746 89.9872 415.609 89.7685C415.473 89.5469 415.284 89.3764 415.043 89.2571C414.801 89.1349 414.52 89.0739 414.199 89.0739C413.872 89.0739 413.587 89.1349 413.342 89.2571C413.098 89.3764 412.909 89.5469 412.776 89.7685C412.642 89.9872 412.577 90.2443 412.58 90.5398C412.577 90.8409 412.643 91.1037 412.78 91.3281C412.919 91.5526 413.111 91.7273 413.355 91.8523C413.599 91.9773 413.881 92.0398 414.199 92.0398ZM419.548 95.8835C419.338 95.8835 419.157 95.8082 419.007 95.6577C418.856 95.5071 418.781 95.3267 418.781 95.1165C418.781 94.9062 418.856 94.7259 419.007 94.5753C419.157 94.4247 419.338 94.3494 419.548 94.3494C419.758 94.3494 419.939 94.4247 420.089 94.5753C420.24 94.7259 420.315 94.9062 420.315 95.1165C420.315 95.2557 420.279 95.3835 420.208 95.5C420.14 95.6165 420.048 95.7102 419.931 95.7812C419.818 95.8494 419.69 95.8835 419.548 95.8835ZM419.548 91.4688C419.338 91.4688 419.157 91.3935 419.007 91.2429C418.856 91.0923 418.781 90.9119 418.781 90.7017C418.781 90.4915 418.856 90.3111 419.007 90.1605C419.157 90.0099 419.338 89.9347 419.548 89.9347C419.758 89.9347 419.939 90.0099 420.089 90.1605C420.24 90.3111 420.315 90.4915 420.315 90.7017C420.315 90.8409 420.279 90.9688 420.208 91.0852C420.14 91.2017 420.048 91.2955 419.931 91.3665C419.818 91.4347 419.69 91.4688 419.548 91.4688ZM424.949 97.1193C424.307 97.1193 423.76 96.9446 423.309 96.5952C422.857 96.2429 422.512 95.733 422.273 95.0653C422.034 94.3949 421.915 93.5852 421.915 92.6364C421.915 91.6932 422.034 90.8878 422.273 90.2202C422.515 89.5497 422.861 89.0384 423.313 88.6861C423.767 88.331 424.313 88.1534 424.949 88.1534C425.586 88.1534 426.13 88.331 426.581 88.6861C427.036 89.0384 427.382 89.5497 427.621 90.2202C427.863 90.8878 427.983 91.6932 427.983 92.6364C427.983 93.5852 427.864 94.3949 427.625 95.0653C427.387 95.733 427.042 96.2429 426.59 96.5952C426.138 96.9446 425.591 97.1193 424.949 97.1193ZM424.949 96.1818C425.586 96.1818 426.08 95.875 426.432 95.2614C426.784 94.6477 426.961 93.7727 426.961 92.6364C426.961 91.8807 426.88 91.2372 426.718 90.706C426.559 90.1747 426.328 89.7699 426.027 89.4915C425.729 89.2131 425.37 89.0739 424.949 89.0739C424.319 89.0739 423.826 89.3849 423.471 90.0071C423.115 90.6264 422.938 91.5028 422.938 92.6364C422.938 93.392 423.017 94.0341 423.176 94.5625C423.336 95.0909 423.564 95.4929 423.863 95.7685C424.164 96.044 424.526 96.1818 424.949 96.1818ZM432.33 97.1193C431.83 97.1193 431.38 97.0199 430.979 96.821C430.578 96.6222 430.257 96.3494 430.016 96.0028C429.775 95.6562 429.642 95.2614 429.62 94.8182H430.642C430.682 95.2131 430.861 95.5398 431.179 95.7983C431.5 96.054 431.884 96.1818 432.33 96.1818C432.688 96.1818 433.006 96.098 433.284 95.9304C433.566 95.7628 433.786 95.5327 433.945 95.2401C434.107 94.9446 434.188 94.6108 434.188 94.2386C434.188 93.858 434.104 93.5185 433.936 93.2202C433.772 92.919 433.544 92.6818 433.255 92.5085C432.965 92.3352 432.634 92.2472 432.262 92.2443C431.995 92.2415 431.721 92.2827 431.439 92.3679C431.158 92.4503 430.926 92.5568 430.745 92.6875L429.756 92.5682L430.284 88.2727H434.819V89.2102H431.171L430.864 91.7841H430.915C431.094 91.642 431.319 91.5241 431.588 91.4304C431.858 91.3366 432.14 91.2898 432.432 91.2898C432.966 91.2898 433.442 91.4176 433.86 91.6733C434.28 91.9261 434.61 92.2727 434.848 92.7131C435.09 93.1534 435.211 93.6562 435.211 94.2216C435.211 94.7784 435.086 95.2756 434.836 95.7131C434.588 96.1477 434.248 96.4915 433.813 96.7443C433.378 96.9943 432.884 97.1193 432.33 97.1193ZM440.432 97V88.2727H443.381C444.065 88.2727 444.625 88.3963 445.06 88.6435C445.497 88.8878 445.821 89.2188 446.031 89.6364C446.241 90.054 446.347 90.5199 446.347 91.0341C446.347 91.5483 446.241 92.0156 446.031 92.4361C445.824 92.8565 445.503 93.1918 445.068 93.4418C444.634 93.6889 444.077 93.8125 443.398 93.8125H441.284V92.875H443.364C443.832 92.875 444.209 92.794 444.493 92.6321C444.777 92.4702 444.983 92.2514 445.111 91.9759C445.241 91.6974 445.307 91.3835 445.307 91.0341C445.307 90.6847 445.241 90.3722 445.111 90.0966C444.983 89.821 444.776 89.6051 444.489 89.4489C444.202 89.2898 443.821 89.2102 443.347 89.2102H441.489V97H440.432ZM448.049 88.2727H449.31L452.276 95.517H452.379L455.344 88.2727H456.606V97H455.617V90.3693H455.532L452.805 97H451.85L449.123 90.3693H449.038V97H448.049V88.2727Z" fill="#2BC65D"/>
<path d="M64 192.412L232.875 145.389C257.912 138.418 284.695 141.694 307.313 154.495L318.638 160.904C344.161 175.349 375.677 174.029 399.902 157.5V157.5V157.5C425.767 139.852 456.053 129.791 487.336 128.453L537.197 126.322C564.453 125.156 590.089 113.056 608.313 92.7545L621.582 77.9727C629.94 68.6617 641.476 62.8108 653.926 61.5683V61.5683C670.076 59.9567 684.448 50.6299 692.498 36.5368L712.797 0.999512" stroke="#2BC65D" stroke-width="2"/>
<ellipse cx="406.806" cy="152.487" rx="5.98182" ry="6.48738" fill="#F7F8F9"/>
<ellipse cx="406.808" cy="152.487" rx="4.27273" ry="4.63384" fill="#2BC65D"/>
</svg>
