<svg width="14" height="16" viewBox="0 0 14 16" fill="none" xmlns="http://www.w3.org/2000/svg">
<path fill-rule="evenodd" clip-rule="evenodd" d="M13.3333 9.00065C13.3333 12.6825 10.3486 15.6673 6.66667 15.6673C2.98477 15.6673 0 12.6825 0 9.00065C0 5.31875 2.98477 2.33398 6.66667 2.33398C10.3486 2.33398 13.3333 5.31875 13.3333 9.00065ZM7.33333 5.66667C7.33333 6.03486 7.03486 6.33333 6.66667 6.33333C6.29848 6.33333 6 6.03486 6 5.66667C6 5.29848 6.29848 5 6.66667 5C7.03486 5 7.33333 5.29848 7.33333 5.66667ZM6 7.16797C5.72386 7.16797 5.5 7.39183 5.5 7.66797C5.5 7.94411 5.72386 8.16797 6 8.16797H6.16667V12.3346C6.16667 12.6108 6.39052 12.8346 6.66667 12.8346C6.94281 12.8346 7.16667 12.6108 7.16667 12.3346V7.66797C7.16667 7.39183 6.94281 7.16797 6.66667 7.16797H6Z" fill="#CCD2D7"/>
</svg>
