<svg width="16" height="16" viewBox="0 0 16 16" fill="none" xmlns="http://www.w3.org/2000/svg">
<path fill-rule="evenodd" clip-rule="evenodd" d="M8.00065 14.6667C11.6825 14.6667 14.6673 11.6819 14.6673 8.00001C14.6673 4.31811 11.6825 1.33334 8.00065 1.33334C4.31875 1.33334 1.33398 4.31811 1.33398 8.00001C1.33398 11.6819 4.31875 14.6667 8.00065 14.6667ZM8.66732 4.66603C8.66732 5.03422 8.36884 5.33269 8.00065 5.33269C7.63246 5.33269 7.33398 5.03422 7.33398 4.66603C7.33398 4.29784 7.63246 3.99936 8.00065 3.99936C8.36884 3.99936 8.66732 4.29784 8.66732 4.66603ZM6.83398 6.66733C6.83398 6.39119 7.05784 6.16733 7.33398 6.16733H8.00065C8.27679 6.16733 8.50065 6.39119 8.50065 6.66733V11.334C8.50065 11.6101 8.27679 11.834 8.00065 11.834C7.72451 11.834 7.50065 11.6101 7.50065 11.334V7.16733H7.33398C7.05784 7.16733 6.83398 6.94347 6.83398 6.66733Z" fill="#1A364A"/>
</svg>
