<svg width="377" height="250" viewBox="0 0 377 250" fill="none" xmlns="http://www.w3.org/2000/svg">
<rect width="377" height="250" rx="8" fill="#F2F4F5"/>
<rect x="16" y="193" width="345" height="8" rx="4" fill="transparent"/>
<rect x="16" y="193" width="149.916" height="8" rx="4" fill="#0D6EFD" fill-opacity="0.7"/>
<circle cx="175" cy="198" r="10" fill="#0D6EFD" stroke="#E5E9EB" stroke-width="2"/>
<path d="M20.096 226.072V224.664C19.36 224.6 18.672 224.419 18.032 224.12C17.392 223.811 16.832 223.395 16.352 222.872L17.088 222.088C17.9413 223.005 18.944 223.544 20.096 223.704V219.768L19.536 219.656C18.4693 219.421 17.712 219.101 17.264 218.696C16.816 218.28 16.592 217.693 16.592 216.936C16.592 216.371 16.7413 215.875 17.04 215.448C17.3387 215.021 17.7493 214.691 18.272 214.456C18.8053 214.211 19.4133 214.088 20.096 214.088V212.728H20.912V214.12C21.5307 214.195 22.1333 214.349 22.72 214.584C23.3173 214.808 23.872 215.107 24.384 215.48L23.776 216.376C23.2853 216.035 22.8 215.763 22.32 215.56C21.8507 215.357 21.3813 215.219 20.912 215.144V218.84L21.456 218.952C22.608 219.208 23.4187 219.544 23.888 219.96C24.3573 220.376 24.592 220.963 24.592 221.72C24.592 222.285 24.4373 222.787 24.128 223.224C23.8187 223.661 23.3867 224.008 22.832 224.264C22.2773 224.52 21.6373 224.664 20.912 224.696V226.072H20.096ZM20.096 218.68V215.08C19.3813 215.091 18.8 215.256 18.352 215.576C17.9147 215.896 17.696 216.317 17.696 216.84C17.696 217.171 17.76 217.448 17.888 217.672C18.0267 217.896 18.2507 218.083 18.56 218.232C18.8693 218.381 19.296 218.515 19.84 218.632L20.096 218.68ZM20.912 223.736C21.6587 223.693 22.2667 223.496 22.736 223.144C23.216 222.781 23.456 222.323 23.456 221.768C23.456 221.437 23.3867 221.165 23.248 220.952C23.1093 220.728 22.8747 220.541 22.544 220.392C22.2133 220.232 21.7493 220.093 21.152 219.976L20.912 219.928V223.736ZM27.4141 225V215.032L25.5261 215.864V214.792L27.8301 213.8H28.5821V225H27.4141ZM34.9991 225.176C34.1031 225.176 33.3138 224.931 32.6311 224.44C31.9485 223.949 31.4098 223.272 31.0151 222.408C30.6311 221.533 30.4391 220.531 30.4391 219.4C30.4391 218.269 30.6311 217.272 31.0151 216.408C31.4098 215.533 31.9485 214.851 32.6311 214.36C33.3138 213.869 34.1031 213.624 34.9991 213.624C35.8951 213.624 36.6845 213.869 37.3671 214.36C38.0498 214.851 38.5831 215.533 38.9671 216.408C39.3618 217.272 39.5591 218.269 39.5591 219.4C39.5591 220.531 39.3618 221.533 38.9671 222.408C38.5831 223.272 38.0498 223.949 37.3671 224.44C36.6845 224.931 35.8951 225.176 34.9991 225.176ZM34.9991 224.136C35.6925 224.136 36.2898 223.944 36.7911 223.56C37.3031 223.165 37.6978 222.611 37.9751 221.896C38.2525 221.181 38.3911 220.349 38.3911 219.4C38.3911 218.44 38.2525 217.608 37.9751 216.904C37.6978 216.189 37.3031 215.64 36.7911 215.256C36.2898 214.861 35.6925 214.664 34.9991 214.664C34.3165 214.664 33.7191 214.861 33.2071 215.256C32.6951 215.64 32.3005 216.189 32.0231 216.904C31.7458 217.608 31.6071 218.44 31.6071 219.4C31.6071 220.349 31.7458 221.181 32.0231 221.896C32.3005 222.611 32.6951 223.165 33.2071 223.56C33.7191 223.944 34.3165 224.136 34.9991 224.136ZM42.4766 225V215.032L40.5886 215.864V214.792L42.8926 213.8H43.6446V225H42.4766Z" fill="#99A6AF"/>
<path d="M139.518 234.072V232.68C138.761 232.616 138.052 232.435 137.39 232.136C136.729 231.827 136.153 231.416 135.662 230.904L136.558 229.816C137.401 230.68 138.388 231.197 139.518 231.368V227.992L138.83 227.848C137.774 227.635 137.017 227.315 136.558 226.888C136.11 226.461 135.886 225.853 135.886 225.064C135.886 224.467 136.036 223.944 136.334 223.496C136.644 223.048 137.07 222.701 137.614 222.456C138.158 222.211 138.793 222.083 139.518 222.072V220.728H140.43V222.104C141.06 222.179 141.678 222.328 142.286 222.552C142.905 222.776 143.476 223.069 143.998 223.432L143.262 224.648C142.772 224.328 142.292 224.072 141.822 223.88C141.353 223.677 140.889 223.539 140.43 223.464V226.696L141.102 226.808C142.244 227.053 143.054 227.389 143.534 227.816C144.014 228.243 144.254 228.84 144.254 229.608C144.254 230.205 144.094 230.733 143.774 231.192C143.454 231.64 143.006 231.997 142.43 232.264C141.865 232.52 141.198 232.664 140.43 232.696V234.072H139.518ZM139.518 226.536V223.4C138.878 223.411 138.361 223.555 137.966 223.832C137.572 224.109 137.374 224.477 137.374 224.936C137.374 225.235 137.433 225.485 137.55 225.688C137.668 225.891 137.865 226.056 138.142 226.184C138.42 226.301 138.793 226.408 139.262 226.504L139.518 226.536ZM140.43 231.416C141.102 231.373 141.652 231.203 142.078 230.904C142.505 230.595 142.718 230.2 142.718 229.72C142.718 229.421 142.654 229.176 142.526 228.984C142.409 228.792 142.201 228.632 141.902 228.504C141.614 228.376 141.204 228.264 140.67 228.168L140.43 228.12V231.416ZM147.119 233V223.448L145.103 224.296V222.888L147.695 221.8H148.703V233H147.119ZM152.15 233V223.448L150.134 224.296V222.888L152.726 221.8H153.734V233H152.15ZM155.198 235.288L156.19 231.56H157.886L156.414 235.288H155.198ZM159.617 233L164.961 223.16H158.433V221.8H166.625V222.968L161.409 233H159.617ZM171.781 233.176C170.981 233.176 170.229 233.037 169.525 232.76C168.831 232.472 168.229 232.061 167.717 231.528L168.757 230.536C169.205 231.005 169.658 231.341 170.117 231.544C170.586 231.736 171.135 231.832 171.765 231.832C172.266 231.832 172.709 231.747 173.093 231.576C173.487 231.405 173.791 231.171 174.005 230.872C174.218 230.573 174.325 230.227 174.325 229.832C174.325 229.469 174.229 229.149 174.037 228.872C173.855 228.584 173.605 228.365 173.285 228.216C172.975 228.056 172.607 227.976 172.181 227.976H170.821V226.68H172.069C172.634 226.68 173.087 226.515 173.429 226.184C173.77 225.853 173.941 225.421 173.941 224.888C173.941 224.536 173.845 224.216 173.653 223.928C173.461 223.64 173.194 223.416 172.853 223.256C172.522 223.085 172.143 223 171.717 223C171.151 223 170.65 223.101 170.213 223.304C169.786 223.496 169.343 223.837 168.885 224.328L167.845 223.336C168.357 222.781 168.949 222.36 169.621 222.072C170.293 221.773 171.002 221.624 171.749 221.624C172.474 221.624 173.114 221.757 173.669 222.024C174.234 222.291 174.677 222.664 174.997 223.144C175.327 223.613 175.493 224.147 175.493 224.744C175.493 225.331 175.295 225.859 174.901 226.328C174.517 226.787 174.01 227.107 173.381 227.288C174.138 227.448 174.741 227.768 175.189 228.248C175.637 228.717 175.861 229.272 175.861 229.912C175.861 230.541 175.685 231.101 175.333 231.592C174.991 232.083 174.511 232.472 173.893 232.76C173.274 233.037 172.57 233.176 171.781 233.176ZM181.939 233.176C181 233.176 180.179 232.936 179.475 232.456C178.771 231.965 178.216 231.288 177.811 230.424C177.416 229.549 177.219 228.541 177.219 227.4C177.219 226.259 177.416 225.256 177.811 224.392C178.216 223.517 178.771 222.84 179.475 222.36C180.179 221.869 181 221.624 181.939 221.624C182.867 221.624 183.683 221.869 184.387 222.36C185.091 222.84 185.64 223.517 186.035 224.392C186.44 225.256 186.643 226.259 186.643 227.4C186.643 228.541 186.44 229.549 186.035 230.424C185.64 231.288 185.091 231.965 184.387 232.456C183.683 232.936 182.867 233.176 181.939 233.176ZM181.939 231.784C182.579 231.784 183.133 231.608 183.603 231.256C184.072 230.893 184.435 230.381 184.691 229.72C184.947 229.059 185.075 228.285 185.075 227.4C185.075 226.504 184.947 225.731 184.691 225.08C184.435 224.419 184.072 223.912 183.603 223.56C183.133 223.197 182.579 223.016 181.939 223.016C181.299 223.016 180.744 223.197 180.275 223.56C179.805 223.912 179.437 224.419 179.171 225.08C178.915 225.731 178.787 226.504 178.787 227.4C178.787 228.285 178.915 229.059 179.171 229.72C179.437 230.381 179.805 230.893 180.275 231.256C180.744 231.608 181.299 231.784 181.939 231.784ZM188.891 233.112C188.613 233.112 188.373 233.016 188.171 232.824C187.979 232.621 187.883 232.381 187.883 232.104C187.883 231.827 187.979 231.592 188.171 231.4C188.373 231.197 188.613 231.096 188.891 231.096C189.168 231.096 189.403 231.197 189.595 231.4C189.797 231.592 189.899 231.827 189.899 232.104C189.899 232.381 189.797 232.621 189.595 232.824C189.403 233.016 189.168 233.112 188.891 233.112ZM191.675 233V231.88L196.219 227.048C196.528 226.728 196.768 226.44 196.939 226.184C197.109 225.928 197.227 225.688 197.291 225.464C197.365 225.229 197.403 224.984 197.403 224.728C197.403 224.227 197.2 223.811 196.795 223.48C196.389 223.149 195.877 222.984 195.259 222.984C194.747 222.984 194.267 223.085 193.819 223.288C193.371 223.491 192.875 223.843 192.331 224.344L191.467 223.288C192.064 222.733 192.677 222.317 193.307 222.04C193.947 221.763 194.608 221.624 195.291 221.624C196.005 221.624 196.635 221.752 197.179 222.008C197.723 222.264 198.144 222.621 198.443 223.08C198.752 223.528 198.907 224.045 198.907 224.632C198.907 225.005 198.859 225.352 198.763 225.672C198.667 225.981 198.501 226.312 198.267 226.664C198.032 227.005 197.701 227.4 197.275 227.848L193.627 231.688L199.131 231.672V233H191.675ZM205.142 233.176C204.203 233.176 203.382 232.936 202.678 232.456C201.974 231.965 201.419 231.288 201.014 230.424C200.619 229.549 200.422 228.541 200.422 227.4C200.422 226.259 200.619 225.256 201.014 224.392C201.419 223.517 201.974 222.84 202.678 222.36C203.382 221.869 204.203 221.624 205.142 221.624C206.07 221.624 206.886 221.869 207.59 222.36C208.294 222.84 208.843 223.517 209.238 224.392C209.643 225.256 209.846 226.259 209.846 227.4C209.846 228.541 209.643 229.549 209.238 230.424C208.843 231.288 208.294 231.965 207.59 232.456C206.886 232.936 206.07 233.176 205.142 233.176ZM205.142 231.784C205.782 231.784 206.336 231.608 206.806 231.256C207.275 230.893 207.638 230.381 207.894 229.72C208.15 229.059 208.278 228.285 208.278 227.4C208.278 226.504 208.15 225.731 207.894 225.08C207.638 224.419 207.275 223.912 206.806 223.56C206.336 223.197 205.782 223.016 205.142 223.016C204.502 223.016 203.947 223.197 203.478 223.56C203.008 223.912 202.64 224.419 202.374 225.08C202.118 225.731 201.99 226.504 201.99 227.4C201.99 228.285 202.118 229.059 202.374 229.72C202.64 230.381 203.008 230.893 203.478 231.256C203.947 231.608 204.502 231.784 205.142 231.784Z" fill="#002036"/>
<path d="M304.205 226.072V224.664C303.469 224.6 302.781 224.419 302.141 224.12C301.501 223.811 300.941 223.395 300.461 222.872L301.197 222.088C302.051 223.005 303.053 223.544 304.205 223.704V219.768L303.645 219.656C302.579 219.421 301.821 219.101 301.373 218.696C300.925 218.28 300.701 217.693 300.701 216.936C300.701 216.371 300.851 215.875 301.149 215.448C301.448 215.021 301.859 214.691 302.381 214.456C302.915 214.211 303.523 214.088 304.205 214.088V212.728H305.021V214.12C305.64 214.195 306.243 214.349 306.829 214.584C307.427 214.808 307.981 215.107 308.493 215.48L307.885 216.376C307.395 216.035 306.909 215.763 306.429 215.56C305.96 215.357 305.491 215.219 305.021 215.144V218.84L305.565 218.952C306.717 219.208 307.528 219.544 307.997 219.96C308.467 220.376 308.701 220.963 308.701 221.72C308.701 222.285 308.547 222.787 308.237 223.224C307.928 223.661 307.496 224.008 306.941 224.264C306.387 224.52 305.747 224.664 305.021 224.696V226.072H304.205ZM304.205 218.68V215.08C303.491 215.091 302.909 215.256 302.461 215.576C302.024 215.896 301.805 216.317 301.805 216.84C301.805 217.171 301.869 217.448 301.997 217.672C302.136 217.896 302.36 218.083 302.669 218.232C302.979 218.381 303.405 218.515 303.949 218.632L304.205 218.68ZM305.021 223.736C305.768 223.693 306.376 223.496 306.845 223.144C307.325 222.781 307.565 222.323 307.565 221.768C307.565 221.437 307.496 221.165 307.357 220.952C307.219 220.728 306.984 220.541 306.653 220.392C306.323 220.232 305.859 220.093 305.261 219.976L305.021 219.928V223.736ZM309.972 225V224.152L314.452 219.256C314.804 218.872 315.076 218.536 315.268 218.248C315.47 217.949 315.609 217.672 315.684 217.416C315.769 217.16 315.812 216.888 315.812 216.6C315.812 216.035 315.588 215.571 315.14 215.208C314.702 214.835 314.142 214.648 313.46 214.648C312.937 214.648 312.452 214.749 312.004 214.952C311.556 215.155 311.054 215.507 310.5 216.008L309.828 215.208C310.414 214.675 311.006 214.28 311.604 214.024C312.201 213.757 312.825 213.624 313.476 213.624C314.148 213.624 314.745 213.752 315.268 214.008C315.79 214.253 316.201 214.595 316.5 215.032C316.798 215.469 316.948 215.971 316.948 216.536C316.948 216.909 316.9 217.256 316.804 217.576C316.708 217.885 316.537 218.221 316.292 218.584C316.046 218.936 315.694 219.363 315.236 219.864L311.412 224.008L317.188 223.992V225H309.972ZM318.643 225V224.152L323.123 219.256C323.475 218.872 323.747 218.536 323.939 218.248C324.142 217.949 324.281 217.672 324.355 217.416C324.441 217.16 324.483 216.888 324.483 216.6C324.483 216.035 324.259 215.571 323.811 215.208C323.374 214.835 322.814 214.648 322.131 214.648C321.609 214.648 321.123 214.749 320.675 214.952C320.227 215.155 319.726 215.507 319.171 216.008L318.499 215.208C319.086 214.675 319.678 214.28 320.275 214.024C320.873 213.757 321.497 213.624 322.147 213.624C322.819 213.624 323.417 213.752 323.939 214.008C324.462 214.253 324.873 214.595 325.171 215.032C325.47 215.469 325.619 215.971 325.619 216.536C325.619 216.909 325.571 217.256 325.475 217.576C325.379 217.885 325.209 218.221 324.963 218.584C324.718 218.936 324.366 219.363 323.907 219.864L320.083 224.008L325.859 223.992V225H318.643ZM327.235 227.192L328.163 223.816H329.443L328.163 227.192H327.235ZM334.925 225.176C334.157 225.176 333.474 225.037 332.877 224.76C332.28 224.483 331.805 224.104 331.453 223.624C331.112 223.133 330.941 222.584 330.941 221.976C330.941 221.517 331.053 221.096 331.277 220.712C331.501 220.317 331.81 219.981 332.205 219.704C332.61 219.416 333.069 219.213 333.581 219.096C332.93 218.915 332.397 218.589 331.981 218.12C331.576 217.651 331.373 217.123 331.373 216.536C331.373 215.981 331.528 215.485 331.837 215.048C332.146 214.611 332.568 214.264 333.101 214.008C333.645 213.752 334.253 213.624 334.925 213.624C335.608 213.624 336.216 213.752 336.749 214.008C337.282 214.264 337.704 214.611 338.013 215.048C338.322 215.485 338.477 215.981 338.477 216.536C338.477 217.123 338.274 217.651 337.869 218.12C337.464 218.589 336.93 218.915 336.269 219.096C337.048 219.277 337.682 219.635 338.173 220.168C338.664 220.691 338.909 221.293 338.909 221.976C338.909 222.584 338.738 223.133 338.397 223.624C338.056 224.104 337.581 224.483 336.973 224.76C336.376 225.037 335.693 225.176 334.925 225.176ZM334.925 218.616C335.384 218.616 335.794 218.525 336.157 218.344C336.53 218.163 336.824 217.923 337.037 217.624C337.25 217.315 337.357 216.968 337.357 216.584C337.357 216.2 337.25 215.853 337.037 215.544C336.824 215.235 336.53 214.995 336.157 214.824C335.794 214.643 335.384 214.552 334.925 214.552C334.466 214.552 334.05 214.643 333.677 214.824C333.314 214.995 333.026 215.235 332.813 215.544C332.6 215.853 332.493 216.2 332.493 216.584C332.493 216.968 332.6 217.315 332.813 217.624C333.026 217.923 333.314 218.163 333.677 218.344C334.05 218.525 334.466 218.616 334.925 218.616ZM334.925 224.248C335.469 224.248 335.954 224.147 336.381 223.944C336.808 223.741 337.144 223.464 337.389 223.112C337.645 222.76 337.773 222.365 337.773 221.928C337.773 221.491 337.645 221.096 337.389 220.744C337.144 220.392 336.808 220.115 336.381 219.912C335.954 219.709 335.469 219.608 334.925 219.608C334.381 219.608 333.896 219.709 333.469 219.912C333.042 220.115 332.701 220.392 332.445 220.744C332.2 221.096 332.077 221.491 332.077 221.928C332.077 222.365 332.2 222.76 332.445 223.112C332.701 223.464 333.042 223.741 333.469 223.944C333.896 224.147 334.381 224.248 334.925 224.248ZM345.109 225.176C344.213 225.176 343.423 224.931 342.741 224.44C342.058 223.949 341.519 223.272 341.125 222.408C340.741 221.533 340.549 220.531 340.549 219.4C340.549 218.269 340.741 217.272 341.125 216.408C341.519 215.533 342.058 214.851 342.741 214.36C343.423 213.869 344.213 213.624 345.109 213.624C346.005 213.624 346.794 213.869 347.477 214.36C348.159 214.851 348.693 215.533 349.077 216.408C349.471 217.272 349.669 218.269 349.669 219.4C349.669 220.531 349.471 221.533 349.077 222.408C348.693 223.272 348.159 223.949 347.477 224.44C346.794 224.931 346.005 225.176 345.109 225.176ZM345.109 224.136C345.802 224.136 346.399 223.944 346.901 223.56C347.413 223.165 347.807 222.611 348.085 221.896C348.362 221.181 348.501 220.349 348.501 219.4C348.501 218.44 348.362 217.608 348.085 216.904C347.807 216.189 347.413 215.64 346.901 215.256C346.399 214.861 345.802 214.664 345.109 214.664C344.426 214.664 343.829 214.861 343.317 215.256C342.805 215.64 342.41 216.189 342.133 216.904C341.855 217.608 341.717 218.44 341.717 219.4C341.717 220.349 341.855 221.181 342.133 221.896C342.41 222.611 342.805 223.165 343.317 223.56C343.829 223.944 344.426 224.136 345.109 224.136ZM355.702 225.176C354.806 225.176 354.017 224.931 353.334 224.44C352.652 223.949 352.113 223.272 351.718 222.408C351.334 221.533 351.142 220.531 351.142 219.4C351.142 218.269 351.334 217.272 351.718 216.408C352.113 215.533 352.652 214.851 353.334 214.36C354.017 213.869 354.806 213.624 355.702 213.624C356.598 213.624 357.388 213.869 358.07 214.36C358.753 214.851 359.286 215.533 359.67 216.408C360.065 217.272 360.262 218.269 360.262 219.4C360.262 220.531 360.065 221.533 359.67 222.408C359.286 223.272 358.753 223.949 358.07 224.44C357.388 224.931 356.598 225.176 355.702 225.176ZM355.702 224.136C356.396 224.136 356.993 223.944 357.494 223.56C358.006 223.165 358.401 222.611 358.678 221.896C358.956 221.181 359.094 220.349 359.094 219.4C359.094 218.44 358.956 217.608 358.678 216.904C358.401 216.189 358.006 215.64 357.494 215.256C356.993 214.861 356.396 214.664 355.702 214.664C355.02 214.664 354.422 214.861 353.91 215.256C353.398 215.64 353.004 216.189 352.726 216.904C352.449 217.608 352.31 218.44 352.31 219.4C352.31 220.349 352.449 221.181 352.726 221.896C353.004 222.611 353.398 223.165 353.91 223.56C354.422 223.944 355.02 224.136 355.702 224.136Z" fill="#99A6AF"/>
<path d="M175 181L175 12" stroke="#0D6EFD" stroke-opacity="0.3" stroke-linecap="round" stroke-linejoin="round"/>
<rect width="62" height="24" transform="translate(144 18)" fill="#F2F4F5"/>
<path d="M157.8 34V27.268L156.156 27.952V26.512L158.4 25.6H159.444V34H157.8ZM163.676 34.132C163.028 34.132 162.424 34.02 161.864 33.796C161.312 33.564 160.848 33.24 160.472 32.824L161.528 31.84C161.848 32.184 162.164 32.424 162.476 32.56C162.796 32.688 163.188 32.752 163.652 32.752C163.988 32.752 164.28 32.704 164.528 32.608C164.784 32.504 164.98 32.36 165.116 32.176C165.26 31.992 165.332 31.78 165.332 31.54C165.332 31.316 165.276 31.124 165.164 30.964C165.052 30.804 164.9 30.68 164.708 30.592C164.516 30.496 164.288 30.448 164.024 30.448H162.968V29.152H163.88C164.256 29.152 164.552 29.056 164.768 28.864C164.984 28.664 165.092 28.392 165.092 28.048C165.092 27.824 165.028 27.624 164.9 27.448C164.772 27.264 164.596 27.12 164.372 27.016C164.156 26.912 163.908 26.86 163.628 26.86C163.212 26.86 162.852 26.932 162.548 27.076C162.252 27.22 161.94 27.476 161.612 27.844L160.544 26.86C160.936 26.42 161.404 26.08 161.948 25.84C162.5 25.592 163.08 25.468 163.688 25.468C164.272 25.468 164.788 25.572 165.236 25.78C165.684 25.98 166.036 26.26 166.292 26.62C166.548 26.98 166.676 27.392 166.676 27.856C166.676 28.304 166.528 28.704 166.232 29.056C165.936 29.4 165.552 29.64 165.08 29.776C165.64 29.888 166.084 30.112 166.412 30.448C166.748 30.784 166.916 31.188 166.916 31.66C166.916 32.132 166.776 32.556 166.496 32.932C166.216 33.308 165.832 33.604 165.344 33.82C164.864 34.028 164.308 34.132 163.676 34.132ZM168.807 34.12C168.543 34.12 168.315 34.024 168.123 33.832C167.931 33.64 167.835 33.412 167.835 33.148C167.835 32.876 167.931 32.644 168.123 32.452C168.315 32.26 168.543 32.164 168.807 32.164C169.071 32.164 169.299 32.26 169.491 32.452C169.683 32.644 169.779 32.876 169.779 33.148C169.779 33.412 169.683 33.64 169.491 33.832C169.299 34.024 169.071 34.12 168.807 34.12ZM173.899 34.132C173.275 34.132 172.723 34.028 172.243 33.82C171.763 33.604 171.387 33.312 171.115 32.944C170.843 32.568 170.707 32.14 170.707 31.66C170.707 31.348 170.775 31.06 170.911 30.796C171.055 30.524 171.255 30.292 171.511 30.1C171.775 29.9 172.071 29.752 172.399 29.656C171.975 29.504 171.631 29.264 171.367 28.936C171.103 28.608 170.971 28.24 170.971 27.832C170.971 27.384 171.099 26.984 171.355 26.632C171.611 26.272 171.959 25.988 172.399 25.78C172.847 25.572 173.347 25.468 173.899 25.468C174.459 25.468 174.959 25.572 175.399 25.78C175.839 25.988 176.187 26.272 176.443 26.632C176.699 26.984 176.827 27.384 176.827 27.832C176.827 28.24 176.695 28.608 176.431 28.936C176.167 29.264 175.823 29.504 175.399 29.656C175.903 29.808 176.311 30.064 176.623 30.424C176.935 30.776 177.091 31.188 177.091 31.66C177.091 32.14 176.955 32.568 176.683 32.944C176.419 33.312 176.043 33.604 175.555 33.82C175.075 34.028 174.523 34.132 173.899 34.132ZM173.899 29.104C174.163 29.104 174.399 29.056 174.607 28.96C174.823 28.856 174.991 28.716 175.111 28.54C175.231 28.364 175.291 28.164 175.291 27.94C175.291 27.716 175.231 27.516 175.111 27.34C174.991 27.156 174.823 27.016 174.607 26.92C174.399 26.816 174.163 26.764 173.899 26.764C173.635 26.764 173.395 26.816 173.179 26.92C172.971 27.016 172.807 27.152 172.687 27.328C172.567 27.504 172.507 27.708 172.507 27.94C172.507 28.164 172.567 28.364 172.687 28.54C172.807 28.716 172.971 28.856 173.179 28.96C173.395 29.056 173.635 29.104 173.899 29.104ZM173.899 32.824C174.219 32.824 174.499 32.772 174.739 32.668C174.979 32.556 175.167 32.404 175.303 32.212C175.439 32.012 175.507 31.792 175.507 31.552C175.507 31.304 175.439 31.084 175.303 30.892C175.167 30.7 174.979 30.548 174.739 30.436C174.499 30.324 174.219 30.268 173.899 30.268C173.587 30.268 173.307 30.324 173.059 30.436C172.819 30.548 172.631 30.7 172.495 30.892C172.359 31.084 172.291 31.304 172.291 31.552C172.291 31.792 172.359 32.012 172.495 32.212C172.631 32.404 172.819 32.556 173.059 32.668C173.307 32.772 173.587 32.824 173.899 32.824ZM178.289 34V32.872L181.793 29.32C181.961 29.144 182.093 28.98 182.189 28.828C182.293 28.676 182.365 28.528 182.405 28.384C182.453 28.232 182.477 28.08 182.477 27.928C182.477 27.616 182.345 27.356 182.081 27.148C181.825 26.94 181.497 26.836 181.097 26.836C180.713 26.836 180.357 26.916 180.029 27.076C179.701 27.228 179.341 27.492 178.949 27.868L178.061 26.788C178.533 26.348 179.025 26.02 179.537 25.804C180.049 25.58 180.585 25.468 181.145 25.468C181.713 25.468 182.213 25.568 182.645 25.768C183.077 25.968 183.413 26.244 183.653 26.596C183.893 26.948 184.013 27.36 184.013 27.832C184.013 28.104 183.973 28.36 183.893 28.6C183.821 28.84 183.701 29.084 183.533 29.332C183.365 29.572 183.141 29.832 182.861 30.112L180.317 32.668L184.145 32.656V34H178.289ZM186.764 29.86C186.18 29.86 185.712 29.664 185.36 29.272C185.016 28.872 184.844 28.344 184.844 27.688C184.844 27.048 185.02 26.528 185.372 26.128C185.724 25.728 186.188 25.528 186.764 25.528C187.332 25.528 187.792 25.728 188.144 26.128C188.496 26.528 188.672 27.048 188.672 27.688C188.672 28.344 188.496 28.872 188.144 29.272C187.8 29.664 187.34 29.86 186.764 29.86ZM186.764 28.984C187.052 28.984 187.276 28.872 187.436 28.648C187.604 28.416 187.688 28.096 187.688 27.688C187.688 27.296 187.604 26.984 187.436 26.752C187.268 26.52 187.044 26.404 186.764 26.404C186.476 26.404 186.248 26.52 186.08 26.752C185.92 26.984 185.836 27.296 185.828 27.688C185.836 28.096 185.92 28.416 186.08 28.648C186.24 28.872 186.468 28.984 186.764 28.984ZM186.296 34L191.048 25.6H192.272L187.52 34H186.296ZM191.924 34.06C191.34 34.06 190.872 33.864 190.52 33.472C190.176 33.072 190.004 32.544 190.004 31.888C190.004 31.248 190.18 30.728 190.532 30.328C190.884 29.928 191.348 29.728 191.924 29.728C192.492 29.728 192.952 29.928 193.304 30.328C193.656 30.728 193.832 31.248 193.832 31.888C193.832 32.544 193.656 33.072 193.304 33.472C192.96 33.864 192.5 34.06 191.924 34.06ZM191.924 33.184C192.212 33.184 192.436 33.072 192.596 32.848C192.764 32.616 192.848 32.296 192.848 31.888C192.848 31.496 192.764 31.184 192.596 30.952C192.428 30.72 192.204 30.604 191.924 30.604C191.636 30.604 191.408 30.72 191.24 30.952C191.08 31.184 190.996 31.496 190.988 31.888C190.996 32.296 191.08 32.616 191.24 32.848C191.4 33.072 191.628 33.184 191.924 33.184Z" fill="#0D6EFD"/>
<path d="M17.752 34V26.524L16.336 27.148V26.344L18.064 25.6H18.628V34H17.752ZM24.5688 34V31.756H19.7928V31.06L24.5088 25.6H25.4448V31H26.4528V31.756H25.4448V34H24.5688ZM20.8728 31H24.5688V26.716L20.8728 31ZM28.2812 34.072C28.1133 34.072 27.9693 34.012 27.8493 33.892C27.7293 33.772 27.6693 33.628 27.6693 33.46C27.6693 33.292 27.7293 33.148 27.8493 33.028C27.9693 32.908 28.1133 32.848 28.2812 32.848C28.4493 32.848 28.5933 32.908 28.7133 33.028C28.8333 33.148 28.8933 33.292 28.8933 33.46C28.8933 33.628 28.8333 33.772 28.7133 33.892C28.5933 34.012 28.4493 34.072 28.2812 34.072ZM33.39 34.132C32.718 34.132 32.126 33.948 31.614 33.58C31.102 33.212 30.698 32.704 30.402 32.056C30.114 31.4 29.97 30.648 29.97 29.8C29.97 28.952 30.114 28.204 30.402 27.556C30.698 26.9 31.102 26.388 31.614 26.02C32.126 25.652 32.718 25.468 33.39 25.468C34.062 25.468 34.654 25.652 35.166 26.02C35.678 26.388 36.078 26.9 36.366 27.556C36.662 28.204 36.81 28.952 36.81 29.8C36.81 30.648 36.662 31.4 36.366 32.056C36.078 32.704 35.678 33.212 35.166 33.58C34.654 33.948 34.062 34.132 33.39 34.132ZM33.39 33.352C33.91 33.352 34.358 33.208 34.734 32.92C35.118 32.624 35.414 32.208 35.622 31.672C35.83 31.136 35.934 30.512 35.934 29.8C35.934 29.08 35.83 28.456 35.622 27.928C35.414 27.392 35.118 26.98 34.734 26.692C34.358 26.396 33.91 26.248 33.39 26.248C32.878 26.248 32.43 26.396 32.046 26.692C31.662 26.98 31.366 27.392 31.158 27.928C30.95 28.456 30.846 29.08 30.846 29.8C30.846 30.512 30.95 31.136 31.158 31.672C31.366 32.208 31.662 32.624 32.046 32.92C32.43 33.208 32.878 33.352 33.39 33.352ZM39.4753 29.86C38.9393 29.86 38.5073 29.66 38.1793 29.26C37.8513 28.86 37.6873 28.34 37.6873 27.7C37.6873 27.06 37.8513 26.54 38.1793 26.14C38.5073 25.74 38.9393 25.54 39.4753 25.54C39.9953 25.54 40.4193 25.74 40.7473 26.14C41.0753 26.54 41.2433 27.06 41.2513 27.7C41.2433 28.34 41.0753 28.86 40.7473 29.26C40.4193 29.66 39.9953 29.86 39.4753 29.86ZM39.4753 29.308C39.8273 29.308 40.1073 29.164 40.3153 28.876C40.5313 28.58 40.6393 28.188 40.6393 27.7C40.6393 27.204 40.5313 26.812 40.3153 26.524C40.1073 26.228 39.8273 26.08 39.4753 26.08C39.1153 26.08 38.8313 26.228 38.6233 26.524C38.4153 26.812 38.3073 27.204 38.2993 27.7C38.3073 28.188 38.4153 28.58 38.6233 28.876C38.8313 29.164 39.1153 29.308 39.4753 29.308ZM39.0673 34L43.7833 25.6H44.5273L39.7993 34H39.0673ZM44.1553 34.06C43.6193 34.06 43.1873 33.86 42.8593 33.46C42.5313 33.06 42.3673 32.54 42.3673 31.9C42.3673 31.26 42.5313 30.74 42.8593 30.34C43.1873 29.94 43.6193 29.74 44.1553 29.74C44.6753 29.74 45.0993 29.94 45.4273 30.34C45.7553 30.74 45.9233 31.26 45.9313 31.9C45.9233 32.54 45.7553 33.06 45.4273 33.46C45.0993 33.86 44.6753 34.06 44.1553 34.06ZM44.1553 33.508C44.5073 33.508 44.7873 33.364 44.9953 33.076C45.2113 32.78 45.3193 32.388 45.3193 31.9C45.3193 31.404 45.2113 31.012 44.9953 30.724C44.7873 30.428 44.5073 30.28 44.1553 30.28C43.7953 30.28 43.5113 30.428 43.3033 30.724C43.0953 31.012 42.9873 31.404 42.9793 31.9C42.9873 32.388 43.0953 32.78 43.3033 33.076C43.5113 33.364 43.7953 33.508 44.1553 33.508Z" fill="#667986"/>
<path d="M334.228 34V26.524L332.812 27.148V26.344L334.54 25.6H335.104V34H334.228ZM339.353 34.132C338.777 34.132 338.237 34.032 337.733 33.832C337.237 33.632 336.797 33.336 336.413 32.944L336.989 32.38C337.341 32.732 337.701 32.988 338.069 33.148C338.445 33.3 338.869 33.376 339.341 33.376C339.749 33.376 340.109 33.304 340.421 33.16C340.741 33.016 340.989 32.816 341.165 32.56C341.341 32.304 341.429 32.012 341.429 31.684C341.429 31.372 341.349 31.096 341.189 30.856C341.037 30.608 340.825 30.416 340.553 30.28C340.281 30.144 339.969 30.076 339.617 30.076H338.621V29.332H339.581C340.037 29.332 340.405 29.192 340.685 28.912C340.973 28.632 341.117 28.268 341.117 27.82C341.117 27.524 341.037 27.256 340.877 27.016C340.717 26.776 340.497 26.588 340.217 26.452C339.945 26.308 339.637 26.236 339.293 26.236C338.861 26.236 338.473 26.316 338.129 26.476C337.793 26.628 337.449 26.888 337.097 27.256L336.521 26.68C336.897 26.28 337.321 25.98 337.793 25.78C338.265 25.572 338.769 25.468 339.305 25.468C339.817 25.468 340.273 25.568 340.673 25.768C341.081 25.968 341.401 26.244 341.633 26.596C341.865 26.94 341.981 27.332 341.981 27.772C341.981 28.212 341.837 28.608 341.549 28.96C341.261 29.304 340.881 29.544 340.409 29.68C340.977 29.808 341.433 30.056 341.777 30.424C342.121 30.792 342.293 31.22 342.293 31.708C342.293 32.172 342.165 32.588 341.909 32.956C341.661 33.324 341.313 33.612 340.865 33.82C340.425 34.028 339.921 34.132 339.353 34.132ZM344.125 34.072C343.957 34.072 343.813 34.012 343.693 33.892C343.573 33.772 343.513 33.628 343.513 33.46C343.513 33.292 343.573 33.148 343.693 33.028C343.813 32.908 343.957 32.848 344.125 32.848C344.293 32.848 344.437 32.908 344.557 33.028C344.677 33.148 344.737 33.292 344.737 33.46C344.737 33.628 344.677 33.772 344.557 33.892C344.437 34.012 344.293 34.072 344.125 34.072ZM346.213 34V33.364L349.573 29.692C349.837 29.404 350.041 29.152 350.185 28.936C350.337 28.712 350.441 28.504 350.497 28.312C350.561 28.12 350.593 27.916 350.593 27.7C350.593 27.276 350.425 26.928 350.089 26.656C349.761 26.376 349.341 26.236 348.829 26.236C348.437 26.236 348.073 26.312 347.737 26.464C347.401 26.616 347.025 26.88 346.609 27.256L346.105 26.656C346.545 26.256 346.989 25.96 347.437 25.768C347.885 25.568 348.353 25.468 348.841 25.468C349.345 25.468 349.793 25.564 350.185 25.756C350.577 25.94 350.885 26.196 351.109 26.524C351.333 26.852 351.445 27.228 351.445 27.652C351.445 27.932 351.409 28.192 351.337 28.432C351.265 28.664 351.137 28.916 350.953 29.188C350.769 29.452 350.505 29.772 350.161 30.148L347.293 33.256L351.625 33.244V34H346.213ZM354.241 29.86C353.705 29.86 353.273 29.66 352.945 29.26C352.617 28.86 352.453 28.34 352.453 27.7C352.453 27.06 352.617 26.54 352.945 26.14C353.273 25.74 353.705 25.54 354.241 25.54C354.761 25.54 355.185 25.74 355.513 26.14C355.841 26.54 356.009 27.06 356.017 27.7C356.009 28.34 355.841 28.86 355.513 29.26C355.185 29.66 354.761 29.86 354.241 29.86ZM354.241 29.308C354.593 29.308 354.873 29.164 355.081 28.876C355.297 28.58 355.405 28.188 355.405 27.7C355.405 27.204 355.297 26.812 355.081 26.524C354.873 26.228 354.593 26.08 354.241 26.08C353.881 26.08 353.597 26.228 353.389 26.524C353.181 26.812 353.073 27.204 353.065 27.7C353.073 28.188 353.181 28.58 353.389 28.876C353.597 29.164 353.881 29.308 354.241 29.308ZM353.833 34L358.549 25.6H359.293L354.565 34H353.833ZM358.921 34.06C358.385 34.06 357.953 33.86 357.625 33.46C357.297 33.06 357.133 32.54 357.133 31.9C357.133 31.26 357.297 30.74 357.625 30.34C357.953 29.94 358.385 29.74 358.921 29.74C359.441 29.74 359.865 29.94 360.193 30.34C360.521 30.74 360.689 31.26 360.697 31.9C360.689 32.54 360.521 33.06 360.193 33.46C359.865 33.86 359.441 34.06 358.921 34.06ZM358.921 33.508C359.273 33.508 359.553 33.364 359.761 33.076C359.977 32.78 360.085 32.388 360.085 31.9C360.085 31.404 359.977 31.012 359.761 30.724C359.553 30.428 359.273 30.28 358.921 30.28C358.561 30.28 358.277 30.428 358.069 30.724C357.861 31.012 357.753 31.404 357.745 31.9C357.753 32.388 357.861 32.78 358.069 33.076C358.277 33.364 358.561 33.508 358.921 33.508Z" fill="#667986"/>
<path d="M361 50C361 50 307.026 50 267.357 58C227.688 66 222.76 90 189.101 95.5C155.443 101 129.087 130 93.625 140C58.1633 150 16 155 16 155V178H361V50Z" fill="#0D6EFD" fill-opacity="0.15"/>
<g opacity="0.5">
<mask id="mask0_10122_35677" style="mask-type:alpha" maskUnits="userSpaceOnUse" x="16" y="50" width="159" height="128">
<path d="M16 50H174.824V178H16V50Z" fill="#D9D9D9"/>
</mask>
<g mask="url(#mask0_10122_35677)">
<path d="M360.574 50C360.574 50 306.666 50 267.046 58C227.426 66 222.503 90 188.886 95.5C155.269 101 128.945 130 93.5269 140C58.1087 150 15.997 155 15.997 155V178H360.574V50Z" fill="#0D6EFD"/>
</g>
</g>
</svg>
