<svg width="200" height="24" viewBox="0 0 200 24" fill="none" xmlns="http://www.w3.org/2000/svg">
<path d="M0 4.77363C0 4.85547 0.0272819 4.88277 0.111856 4.88277H18.9855C19.6501 4.88277 19.9557 4.99388 20.0941 5.18759C20.2305 5.32645 20.3696 5.60398 20.3696 6.26893V14.4435C20.3696 15.5246 20.0649 15.8026 18.9855 15.8026H0.111856C0.0272819 15.8026 0 15.8302 0 15.9145V18.9621C0 19.5995 0.443702 20.0439 1.08136 20.0439H19.6229C23.1698 20.0439 24.9431 18.2706 24.9431 14.6942V5.9914C24.9431 2.41751 23.1698 0.643923 19.6229 0.643923H1.08136C0.858385 0.643923 0.664689 0.698717 0.471233 0.837637L0.250745 1.03084C0.166419 1.11268 0.111856 1.2243 0.0843261 1.30887C0.0545638 1.33611 0.0545638 1.36341 0.0545638 1.41802C0.0272819 1.6137 0 1.69554 0 1.72278V4.77363Z" fill="#42BFF8"/>
<path d="M34.043 18.9894C34.043 19.2104 34.1273 19.5152 34.3482 19.7386C34.3755 19.8205 34.4321 19.8205 34.4593 19.8478C34.6531 19.9869 34.8741 20.0439 35.124 20.0439H55.3279C55.5509 20.0439 55.8264 20.0166 56.0492 19.8205L56.131 19.7386C56.3544 19.4879 56.4092 19.1831 56.4092 18.9621V16.8839C56.4092 16.7175 56.4092 16.6059 56.382 16.5787C56.2974 16.0529 55.7989 15.8026 55.3279 15.8026H35.0968C34.7349 15.8026 34.5413 15.9145 34.2937 16.162C34.1546 16.3582 34.0703 16.5787 34.0703 16.8269C34.043 16.8567 34.043 16.9658 34.043 17.1615V18.9894ZM34.0703 1.64084C34.0703 1.75246 34.043 1.86185 34.043 1.97347V3.83062C34.043 4.05158 34.0975 4.3564 34.3482 4.60466C34.4321 4.63443 34.4028 4.66167 34.4866 4.68897C34.6804 4.88269 34.9311 4.88269 35.124 4.88269H55.216C55.439 4.88269 55.7443 4.82808 55.9926 4.60466C56.2428 4.3564 56.2974 4.05158 56.2974 3.80084V1.72268C56.2974 1.69544 56.2701 1.6136 56.2428 1.41792C56.1582 1.05804 56.0219 0.946169 55.717 0.753216C55.5782 0.671375 55.4117 0.643818 55.216 0.643818H35.2632C35.0402 0.614038 34.7077 0.671371 34.4593 0.891563L34.321 1.00318C34.1273 1.1969 34.0975 1.44712 34.0703 1.64084ZM34.043 11.5615C34.0703 11.8122 34.1818 12.0053 34.3482 12.1444C34.3755 12.2262 34.4321 12.2262 34.4593 12.256C34.6804 12.4497 34.9311 12.4497 35.124 12.4497H54.9405C55.6054 12.4497 56.0219 12.0325 56.0219 11.3678V9.31699C56.0219 9.15058 56.0219 9.03895 55.9926 9.01165C55.9653 8.81845 55.7989 8.51318 55.6054 8.43127C55.4117 8.23559 55.1615 8.23559 54.9678 8.23559H35.3178C35.0695 8.20835 34.7349 8.23559 34.4866 8.45857L34.3482 8.56772C34.1818 8.76391 34.0975 8.98486 34.0975 9.17781L34.043 9.51064V11.5615Z" fill="#42BFF8"/>
<path d="M65.5078 14.8056C65.5078 18.379 67.5015 20.1524 70.9662 20.1524H80.8894L81.666 22.1491C81.805 22.5085 81.9415 22.8413 82.0526 23.1735C82.0799 23.2032 82.1371 23.2305 82.1644 23.2305H86.8768C87.0133 23.2305 87.0431 23.1735 86.986 23.0914L83.4666 14.1112C83.4393 14.1112 83.412 14.0839 83.3847 14.0839H78.6723C78.5605 14.0839 78.5332 14.1409 78.5605 14.2496C78.7542 14.694 78.9777 15.2496 79.2253 15.9143H71.6608C70.9662 15.9143 70.6069 15.7479 70.4132 15.5517C70.2202 15.4152 70.1085 15.0534 70.1085 14.5276V6.15682C70.1085 5.63104 70.2202 5.27168 70.4132 5.13276C70.6069 4.93904 70.9662 4.8007 71.6608 4.8007H83.9104C84.9917 4.8007 85.4336 5.04819 85.4336 6.15682V14.5276C85.4336 14.8324 85.379 15.1105 85.2971 15.3587C85.2672 15.386 85.2672 15.4152 85.2971 15.4425L86.986 19.6538C87.0133 19.7112 87.0431 19.7384 87.125 19.7384C87.6806 19.5448 88.0126 19.2945 88.6501 18.7416C89.6469 17.7689 90.0342 16.4674 90.0342 14.8056V5.90933C90.0342 2.3327 88.0672 0.559364 84.6025 0.559364H70.9662C67.3929 0.559364 65.5078 2.3327 65.5078 5.90933V14.8056Z" fill="#42BFF8"/>
<path d="M100.216 0.643923C99.5786 0.643923 99.1348 1.08538 99.1348 1.72278V14.6942C99.1348 18.159 100.881 20.0439 104.457 20.0439H118.341C121.89 20.0439 123.664 18.2706 123.664 14.6942V1.72278C123.664 1.50183 123.609 1.197 123.386 0.946272C123.137 0.698717 122.833 0.643923 122.582 0.643923H120.144C119.507 0.643923 119.062 1.08538 119.062 1.72278V14.4435C119.062 15.5246 118.758 15.8026 117.676 15.8026H105.149C104.067 15.8026 103.735 15.5246 103.735 14.4435V1.72278C103.735 1.50183 103.681 1.197 103.43 0.946272C103.21 0.698717 102.904 0.643923 102.657 0.643923H100.216Z" fill="#42BFF8"/>
<path d="M133.843 0.643923C133.206 0.643923 132.762 1.08538 132.762 1.72278V18.9621C132.762 19.5995 133.206 20.0439 133.843 20.0439H136.281C136.531 20.0439 136.837 19.9869 137.057 19.7386C137.305 19.4879 137.362 19.1831 137.362 18.9621V1.72278C137.362 1.50183 137.305 1.197 137.057 0.946272C136.837 0.698717 136.531 0.643923 136.281 0.643923H133.843Z" fill="#42BFF8"/>
<path d="M146.159 0.643923C145.522 0.643923 145.078 1.08538 145.078 1.72278V3.80093C145.078 4.05166 145.133 4.35649 145.384 4.60474C145.634 4.82817 145.937 4.88277 146.159 4.88277H154.835V18.9621C154.835 19.1831 154.89 19.4879 155.138 19.7386C155.361 19.9869 155.666 20.0439 155.914 20.0439H158.297C158.548 20.0439 158.853 19.9869 159.074 19.7386C159.324 19.4879 159.379 19.1831 159.379 18.9621V4.88277H168.027C168.665 4.88277 169.136 4.46811 169.136 3.80093V1.72278C169.136 1.47452 169.024 1.197 168.831 0.946272C168.58 0.726019 168.275 0.643923 168.027 0.643923H146.159Z" fill="#42BFF8"/>
<path d="M175.573 1.2243C175.489 1.41801 175.489 1.58367 175.545 1.72278C175.573 1.97357 175.712 2.13922 175.851 2.27833C175.878 2.27833 178.204 4.88277 180.645 7.4594L185.466 12.6699V18.9621C185.466 19.5995 185.91 20.0439 186.547 20.0439H188.931C189.182 20.0439 189.484 19.9869 189.707 19.7386C189.955 19.4879 190.013 19.1831 190.013 18.9621V12.6699L199.685 2.25109C199.794 2.13922 199.933 1.97357 199.961 1.72278C200.017 1.58367 200.017 1.41801 199.933 1.2243C199.851 1.03084 199.712 0.91897 199.601 0.837637C199.407 0.698717 199.214 0.643923 198.963 0.643923H196.108C195.471 0.643923 195.139 1.00329 194.918 1.2243L193.809 2.44474L191.342 5.10575L187.768 8.95768L180.588 1.25154C180.34 1.00329 180.008 0.643923 179.37 0.643923H176.515C176.098 0.643923 175.712 0.864429 175.573 1.2243Z" fill="#42BFF8"/>
</svg>
