<svg width="92" height="11" viewBox="0 0 92 11" fill="none" xmlns="http://www.w3.org/2000/svg">
<path d="M0 1.93806C0 1.9757 0.0125497 1.98826 0.0514537 1.98826H8.73332C9.03906 1.98826 9.17963 2.03937 9.24327 2.12848C9.30603 2.19236 9.37003 2.32002 9.37003 2.62589V6.3862C9.37003 6.8835 9.22983 7.01139 8.73332 7.01139H0.0514537C0.0125497 7.01139 0 7.02407 0 7.06286V8.46476C0 8.75796 0.204103 8.9624 0.497424 8.9624H9.02653C10.6581 8.9624 11.4738 8.14667 11.4738 6.50154V2.49823C11.4738 0.854241 10.6581 0.0383921 9.02653 0.0383921H0.497424C0.394857 0.0383921 0.305757 0.0635977 0.216767 0.127501L0.115343 0.216375C0.0765528 0.254022 0.0514537 0.305367 0.03879 0.344271C0.0250993 0.3568 0.0250993 0.369358 0.0250993 0.394476C0.0125497 0.484489 0 0.522136 0 0.534666V1.93806Z" fill="#42BFF8"/>
<path d="M15.6598 8.47731C15.6598 8.57895 15.6986 8.71917 15.8002 8.82195C15.8128 8.8596 15.8388 8.8596 15.8513 8.87215C15.9404 8.93615 16.0421 8.9624 16.1571 8.9624H25.4508C25.5534 8.9624 25.6802 8.94984 25.7826 8.8596L25.8203 8.82195C25.9231 8.70661 25.9483 8.56639 25.9483 8.46475V7.5088C25.9483 7.43225 25.9483 7.3809 25.9357 7.36837C25.8968 7.12652 25.6675 7.01138 25.4508 7.01138H16.1446C15.9781 7.01138 15.889 7.06284 15.7751 7.17669C15.7111 7.26694 15.6723 7.36837 15.6723 7.48257C15.6598 7.49627 15.6598 7.54644 15.6598 7.63646V8.47731ZM15.6723 0.496974C15.6723 0.548319 15.6598 0.598642 15.6598 0.649987V1.50428C15.6598 1.60591 15.6849 1.74613 15.8002 1.86033C15.8388 1.87403 15.8253 1.88656 15.8639 1.89912C15.953 1.98823 16.0683 1.98823 16.1571 1.98823H25.3994C25.502 1.98823 25.6424 1.96311 25.7566 1.86033C25.8717 1.74613 25.8968 1.60591 25.8968 1.49058V0.534621C25.8968 0.522092 25.8843 0.484445 25.8717 0.39443C25.8328 0.228889 25.7701 0.177426 25.6299 0.0886688C25.566 0.0510216 25.4894 0.0383453 25.3994 0.0383453H16.2211C16.1185 0.0246468 15.9656 0.0510197 15.8513 0.152308L15.7877 0.203652C15.6986 0.292762 15.6849 0.407865 15.6723 0.496974ZM15.6598 5.06048C15.6723 5.17582 15.7237 5.2646 15.8002 5.3286C15.8128 5.36624 15.8388 5.36624 15.8513 5.37994C15.953 5.46905 16.0683 5.46905 16.1571 5.46905H25.2727C25.5785 5.46905 25.7701 5.27713 25.7701 4.97137V4.028C25.7701 3.95145 25.7701 3.90011 25.7566 3.88755C25.7441 3.79867 25.6675 3.65825 25.5785 3.62057C25.4894 3.53056 25.3743 3.53056 25.2852 3.53056H16.2462C16.132 3.51803 15.9781 3.53056 15.8639 3.63313L15.8002 3.68334C15.7237 3.77359 15.6849 3.87522 15.6849 3.96398L15.6598 4.11708V5.06048Z" fill="#42BFF8"/>
<path d="M30.1336 6.55281C30.1336 8.19657 31.0507 9.0123 32.6445 9.0123H37.2092L37.5663 9.93081C37.6303 10.0961 37.6931 10.2492 37.7442 10.402C37.7568 10.4157 37.7831 10.4282 37.7956 10.4282H39.9633C40.0261 10.4282 40.0398 10.402 40.0136 10.3642L38.3946 6.23335C38.3821 6.23335 38.3695 6.22082 38.357 6.22082H36.1893C36.1379 6.22082 36.1253 6.24704 36.1379 6.29701C36.2269 6.50146 36.3298 6.75702 36.4437 7.06278H32.964C32.6445 7.06278 32.4792 6.98623 32.3901 6.89598C32.3013 6.83322 32.2499 6.66677 32.2499 6.42491V2.57435C32.2499 2.33249 32.3013 2.16718 32.3901 2.10328C32.4792 2.01417 32.6445 1.95053 32.964 1.95053H38.5988C39.0962 1.95053 39.2995 2.06437 39.2995 2.57435V6.42491C39.2995 6.56513 39.2743 6.69302 39.2367 6.80722C39.2229 6.81978 39.2229 6.83321 39.2367 6.84577L40.0136 8.78297C40.0261 8.80934 40.0398 8.82187 40.0775 8.82187C40.3331 8.73279 40.4858 8.61766 40.7791 8.36336C41.2376 7.91592 41.4158 7.31719 41.4158 6.55281V2.4605C41.4158 0.815249 40.5109 -0.000483513 38.9171 -0.000483513H32.6445C31.0007 -0.000483513 30.1336 0.815249 30.1336 2.4605V6.55281Z" fill="#42BFF8"/>
<path d="M46.0994 0.0383921C45.8061 0.0383921 45.602 0.241464 45.602 0.534666V6.50154C45.602 8.09533 46.4052 8.9624 48.0504 8.9624H54.4369C56.0695 8.9624 56.8853 8.14667 56.8853 6.50154V0.534666C56.8853 0.433027 56.8602 0.292809 56.7573 0.177473C56.6432 0.0635977 56.503 0.0383921 56.3876 0.0383921H55.2664C54.9731 0.0383921 54.7687 0.241464 54.7687 0.534666V6.3862C54.7687 6.8835 54.6285 7.01139 54.1311 7.01139H48.3684C47.871 7.01139 47.7183 6.8835 47.7183 6.3862V0.534666C47.7183 0.433027 47.6932 0.292809 47.5778 0.177473C47.4765 0.0635977 47.336 0.0383921 47.2221 0.0383921H46.0994Z" fill="#42BFF8"/>
<path d="M61.5678 0.0383921C61.2745 0.0383921 61.0704 0.241464 61.0704 0.534666V8.46476C61.0704 8.75796 61.2745 8.9624 61.5678 8.9624H62.6893C62.8043 8.9624 62.9448 8.93615 63.0462 8.82195C63.1604 8.70661 63.1867 8.5664 63.1867 8.46476V0.534666C63.1867 0.433027 63.1604 0.292809 63.0462 0.177473C62.9448 0.0635977 62.8043 0.0383921 62.6893 0.0383921H61.5678Z" fill="#42BFF8"/>
<path d="M67.2333 0.0383921C66.9401 0.0383921 66.7359 0.241464 66.7359 0.534666V1.49062C66.7359 1.60595 66.761 1.74617 66.8764 1.86037C66.9915 1.96314 67.1308 1.98826 67.2333 1.98826H71.224V8.46476C71.224 8.5664 71.2492 8.70661 71.3634 8.82195C71.4659 8.93615 71.6064 8.9624 71.7203 8.9624H72.8167C72.932 8.9624 73.0722 8.93615 73.1739 8.82195C73.2892 8.70661 73.3143 8.5664 73.3143 8.46476V1.98826H77.2925C77.5858 1.98826 77.8025 1.79752 77.8025 1.49062V0.534666C77.8025 0.420469 77.7511 0.292809 77.662 0.177473C77.5469 0.0761566 77.4064 0.0383921 77.2925 0.0383921H67.2333Z" fill="#42BFF8"/>
<path d="M80.7634 0.305367C80.7248 0.394475 80.7248 0.470675 80.7508 0.534666C80.7634 0.65003 80.8273 0.72623 80.8913 0.79022C80.9039 0.79022 81.974 1.98826 83.0967 3.17351L85.3143 5.57035V8.46476C85.3143 8.75796 85.5188 8.9624 85.8117 8.9624H86.9081C87.0235 8.9624 87.1628 8.93615 87.2653 8.82195C87.3795 8.70661 87.4058 8.5664 87.4058 8.46476V5.57035L91.8551 0.777691C91.9053 0.726229 91.9693 0.65003 91.9818 0.534666C92.0078 0.470675 92.0078 0.394475 91.9693 0.305367C91.9316 0.216375 91.8676 0.164915 91.8162 0.127501C91.7271 0.0635977 91.6384 0.0383921 91.523 0.0383921H90.2099C89.9166 0.0383921 89.7639 0.2037 89.6623 0.305367L89.1523 0.86677L88.0171 2.09083L86.373 3.86272L83.0704 0.317897C82.9562 0.2037 82.8034 0.0383921 82.5102 0.0383921H81.1971C81.0052 0.0383921 80.8273 0.139826 80.7634 0.305367Z" fill="#42BFF8"/>
</svg>
