<svg width="22" height="23" viewBox="0 0 22 23" fill="none" xmlns="http://www.w3.org/2000/svg">
<path d="M18.845 6.05957C18.2675 6.32207 17.645 6.49457 17 6.57707C17.66 6.17957 18.17 5.54957 18.41 4.79207C17.7875 5.16707 17.0975 5.42957 16.37 5.57957C15.7775 4.93457 14.945 4.55957 14 4.55957C12.2375 4.55957 10.7975 5.99957 10.7975 7.77707C10.7975 8.03207 10.8275 8.27957 10.88 8.51207C8.21003 8.37707 5.83253 7.09457 4.25003 5.15207C3.97253 5.62457 3.81503 6.17957 3.81503 6.76457C3.81503 7.88207 4.37753 8.87207 5.24753 9.43457C4.71503 9.43457 4.22003 9.28457 3.78503 9.05957V9.08207C3.78503 10.6421 3.03 11.7671 4.5 12.0596C4.02805 12.1887 5.3976 12.3867 4.91753 12.2921C5.12123 12.9314 5.52018 13.4909 6.05829 13.8918C6.5964 14.2927 7.24661 14.5148 7.91753 14.5271C6.78025 15.4274 5.37053 15.9141 3.92003 15.9071C3.66503 15.9071 3.41003 15.8921 3.15503 15.8621C4.58003 16.7771 12.185 17.0596 14 17.0596C19.91 17.0596 17.2475 12.4046 17.2475 8.15207C17.2475 8.00957 17.2475 7.87457 17.24 7.73207C17.87 7.28207 18.41 6.71207 18.845 6.05957Z" fill="#F3F6F9"/>
<path d="M10.7725 0.230469C4.82158 0.230469 0 5.15386 0 11.2305C0 17.3071 4.82158 22.2305 10.7725 22.2305C16.7235 22.2305 21.5451 17.3071 21.5451 11.2305C21.5451 5.15386 16.7235 0.230469 10.7725 0.230469ZM16.0632 7.76636L14.2953 16.2736C14.165 16.8768 13.8132 17.0232 13.3223 16.7393L10.6292 14.7123L9.33041 15.9897C9.18707 16.1361 9.06544 16.2603 8.78744 16.2603L8.97856 13.4615L13.9696 8.85748C14.1867 8.66232 13.9218 8.55144 13.6351 8.7466L7.46693 12.7119L4.80855 11.8647C4.23083 11.6785 4.2178 11.2748 4.93017 10.991L15.3161 6.90144C15.7983 6.72402 16.2196 7.02119 16.0632 7.76636Z" fill="#A0A4B0"/>
</svg>
