<svg width="33" height="34" viewBox="0 0 33 34" fill="none" xmlns="http://www.w3.org/2000/svg">
<path d="M16.4891 0.170898C7.38021 0.170898 0 7.55111 0 16.66C0 25.7689 7.38021 33.1492 16.4891 33.1492C25.598 33.1492 32.9783 25.7689 32.9783 16.66C32.9783 7.55111 25.598 0.170898 16.4891 0.170898ZM24.5874 11.4673L21.8813 24.2198C21.6819 25.124 21.1433 25.3434 20.392 24.9179L16.2697 21.8794L14.2817 23.7942C14.0623 24.0136 13.8761 24.1998 13.4506 24.1998L13.7432 20.0044L21.3827 13.1029C21.7151 12.8103 21.3095 12.6441 20.8707 12.9367L11.4294 18.8807L7.36027 17.6108C6.47597 17.3316 6.45603 16.7265 7.54644 16.301L23.4438 10.1708C24.1818 9.9048 24.8268 10.3503 24.5874 11.4673Z" fill="#D1D5D8"/>
</svg>
