<svg width="23" height="23" viewBox="0 0 23 23" fill="none" xmlns="http://www.w3.org/2000/svg">
<circle cx="11.3679" cy="11.2305" r="11" fill="#A0A4B0"/>
<path d="M17.7048 7.59105C17.2377 7.80335 16.7343 7.94286 16.2126 8.00958C16.7464 7.6881 17.1589 7.17859 17.353 6.56596C16.8495 6.86924 16.2915 7.08154 15.7031 7.20285C15.2239 6.68121 14.5507 6.37793 13.7864 6.37793C12.361 6.37793 11.1964 7.54253 11.1964 8.98008C11.1964 9.18631 11.2206 9.38648 11.2631 9.57451C9.10373 9.46533 7.18093 8.42811 5.90108 6.85711C5.67666 7.23925 5.54928 7.6881 5.54928 8.16122C5.54928 9.065 6.0042 9.86566 6.70781 10.3206C6.27715 10.3206 5.87682 10.1993 5.52501 10.0173V10.0355C5.52501 11.2971 6.42273 12.3526 7.61159 12.5891C7.22989 12.6936 6.82918 12.7081 6.44092 12.6316C6.60567 13.1487 6.92832 13.6011 7.36351 13.9253C7.79871 14.2496 8.32457 14.4292 8.86717 14.4391C7.9474 15.1673 6.80728 15.5609 5.6342 15.5552C5.42796 15.5552 5.22173 15.5431 5.0155 15.5188C6.16797 16.2588 7.5388 16.6895 9.00668 16.6895C13.7864 16.6895 16.4128 12.7226 16.4128 9.28336C16.4128 9.16811 16.4128 9.05893 16.4067 8.94369C16.9162 8.57975 17.353 8.11876 17.7048 7.59105Z" fill="#F3F6F9"/>
</svg>
