<svg width="34" height="33" viewBox="0 0 34 33" fill="none" xmlns="http://www.w3.org/2000/svg">
<path fill-rule="evenodd" clip-rule="evenodd" d="M17.4657 32.9773C26.5724 32.9773 33.9548 25.5948 33.9548 16.4882C33.9548 7.38146 26.5724 -0.000976562 17.4657 -0.000976562C8.359 -0.000976562 0.976562 7.38146 0.976562 16.4882C0.976562 25.5948 8.359 32.9773 17.4657 32.9773ZM24.7304 11.6583C25.5123 11.5583 26.267 11.3492 26.9671 11.031C26.4398 11.822 25.7851 12.513 25.0213 13.0586C25.0304 13.2313 25.0304 13.395 25.0304 13.5677C25.0304 18.7232 21.0934 24.6696 13.9286 24.6696C11.7282 24.6696 9.67332 24.024 7.94576 22.9148C8.2549 22.9511 8.56404 22.9693 8.87319 22.9693C10.6317 22.9778 12.3407 22.3878 13.7195 21.2963C12.9061 21.2815 12.1178 21.0121 11.4655 20.5261C10.8131 20.0401 10.3294 19.3619 10.0825 18.5868C10.6645 18.7015 11.2652 18.6797 11.8373 18.5231C10.0552 18.1685 8.70952 16.5864 8.70952 14.6952V14.6679C9.23689 14.9407 9.83699 15.1226 10.4825 15.1226C9.42783 14.4406 8.74589 13.2404 8.74589 11.8856C8.74589 11.1764 8.93683 10.5036 9.27325 9.93077C11.1918 12.2857 14.0741 13.8405 17.311 14.0042C17.2473 13.7223 17.2109 13.4223 17.2109 13.1131C17.2109 10.9582 18.9567 9.21247 21.0934 9.21247C22.2391 9.21247 23.2483 9.66709 23.9666 10.449C24.8486 10.2672 25.6851 9.94896 26.4398 9.49434C26.1488 10.4127 25.5305 11.1764 24.7304 11.6583Z" fill="#D1D5D8"/>
</svg>
