<svg width="77" height="68" viewBox="0 0 77 68" fill="none" xmlns="http://www.w3.org/2000/svg">
<path d="M6.88644 0.186317C4.46421 0.719513 2.16386 2.4562 1.03653 4.61945C-0.0603272 6.72176 0.000609366 5.18312 0.000609366 28.3695C0.000609366 48.5547 0.0158435 49.2555 0.290058 49.682C0.762316 50.3981 1.34121 50.6875 2.3162 50.6875H3.16931L7.95283 47.2903C10.5731 45.4317 13.6656 43.2228 14.8082 42.4001C18.1749 40.0084 15.9355 40.2673 33.9727 40.1759L49.4354 40.0998L50.4561 39.7037C53.2744 38.6068 55.3615 36.2303 56.0775 33.3206C56.2451 32.635 56.2908 29.5577 56.2908 17.0962C56.2908 1.98395 56.2908 1.6945 55.9861 1.19177C55.8185 0.902321 55.4834 0.536701 55.2548 0.353893L54.8283 0.0339775L31.3372 0.00350952C11.868 -0.0117264 7.67862 0.0187416 6.88644 0.186317ZM43.8749 12.9221C45.3526 13.7447 45.3984 15.5576 43.9663 16.624C43.555 16.9439 43.4484 16.9439 29.631 16.9439C15.8136 16.9439 15.707 16.9439 15.2957 16.624C14.5797 16.0908 14.275 15.5576 14.275 14.8416C14.275 14.0189 14.6559 13.3334 15.3719 12.9221C15.9203 12.6174 16.0117 12.6021 29.6158 12.6021C43.2199 12.6021 43.296 12.6021 43.8749 12.9221ZM43.8749 23.586C45.3526 24.4086 45.3984 26.2215 43.9663 27.2879C43.555 27.6078 43.4484 27.6078 29.631 27.6078C15.8136 27.6078 15.707 27.6078 15.2957 27.2879C14.5797 26.7547 14.275 26.2215 14.275 25.5055C14.275 24.6828 14.6559 23.9973 15.3719 23.586C15.9203 23.2813 16.0117 23.266 29.6158 23.266C43.2199 23.266 43.296 23.266 43.8749 23.586Z" fill="#0D6EFD"/>
<path d="M59.7396 24.338C59.6787 31.6809 59.6635 32.1532 59.3435 33.3871C58.14 38.0335 54.8342 41.5374 50.1878 43.0913L48.8929 43.5178L34.7404 43.5635L20.5879 43.6092L20.6793 46.5342C20.7707 49.8248 20.9383 50.6626 21.8066 52.3232C22.8425 54.2731 24.7925 55.8423 27.1843 56.6344C27.9612 56.8934 29.0581 56.9239 43.4086 57C58.1553 57.0762 58.8256 57.0915 59.4654 57.3657C59.831 57.5332 63.1673 59.8184 66.854 62.4539C70.5559 65.0894 73.7246 67.2983 73.9226 67.3745C74.8671 67.7401 76.0554 67.3288 76.6648 66.4452L76.9999 65.9425V45.0869C76.9999 22.0529 77.0456 23.2717 76.0402 21.4436C75.0956 19.7526 73.9074 18.5795 72.2773 17.7112C70.6168 16.8276 70.0684 16.7514 64.706 16.6753L59.8158 16.5991L59.7396 24.338Z" fill="#1269E8"/>
</svg>
