<svg width="58" height="58" viewBox="0 0 58 58" fill="none" xmlns="http://www.w3.org/2000/svg">
<path fill-rule="evenodd" clip-rule="evenodd" d="M28.9998 57.0646C44.4994 57.0646 57.0643 44.4996 57.0643 29C57.0643 13.5003 44.4994 0.935394 28.9998 0.935394C13.5002 0.935394 0.935303 13.5003 0.935303 29C0.935303 44.4996 13.5002 57.0646 28.9998 57.0646ZM27.0738 14.1711C27.0738 12.4684 27.2801 12.0678 28.3245 11.6922C29.1883 11.3917 30.2455 11.7172 30.6839 12.4309C30.9031 12.7564 30.9417 13.0694 30.9417 14.1711C30.9417 15.3855 30.9675 15.5232 31.1738 15.5232C31.6509 15.5232 32.9789 15.9239 33.8943 16.3495C37.0015 17.7642 38.7936 20.2181 38.6518 22.8472C38.6131 23.6235 38.5616 23.8238 38.2908 24.0992C37.0015 25.4388 34.9773 24.7878 34.7452 22.9474C34.5518 21.4075 33.5719 20.3558 31.6895 19.6798L30.9417 19.4043V23.0976C30.9417 26.5656 30.9546 26.7909 31.1738 26.7909C31.6509 26.7909 32.9789 27.1916 33.8943 27.6172C37.0273 29.0445 38.6776 31.3231 38.6776 34.1901C38.6776 36.1807 37.9556 37.6706 36.2537 39.2105C35.1449 40.1995 33.7009 40.9257 32.0763 41.3388L30.9417 41.6268V42.9413C30.9417 44.3811 30.7999 44.7442 30.0908 45.2074C29.588 45.5329 28.4276 45.5329 27.9248 45.2074C27.2157 44.7442 27.0738 44.3811 27.0738 42.9413V41.6268L25.9521 41.3388C22.0584 40.3623 19.338 37.4953 19.338 34.3779C19.338 32.9631 19.9826 32.2495 21.2719 32.2495C22.4323 32.2495 23.1028 32.9005 23.2704 34.1525C23.3219 34.5406 23.4638 35.0665 23.5927 35.3043C24.0569 36.1932 25.5138 37.2198 26.7257 37.4953L27.0738 37.5829V33.9772V30.3591L25.9521 30.0711C22.8707 29.3074 20.3565 27.2291 19.5958 24.8128C19.1059 23.2979 19.2864 21.3574 20.0471 19.8926C21.0657 17.9646 23.5153 16.2368 26.0682 15.686L27.0738 15.4606V14.1711ZM27.0738 26.3152V22.8598C27.0738 20.9568 27.0609 19.4043 27.048 19.4168C26.1326 19.6547 24.882 20.3183 24.3276 20.8441C23.3477 21.7705 23.0512 23.01 23.5798 24.0116C24.0569 24.9255 25.5009 25.9396 26.7257 26.2276L27.0738 26.3152ZM34.4358 35.2793C35.0933 34.0148 34.4616 32.4498 32.8886 31.4983C32.6307 31.3356 32.0892 31.0852 31.6895 30.9475L30.9417 30.672V34.1275V37.5829L31.3028 37.4953C32.5147 37.2073 33.9587 36.1932 34.4358 35.2793Z" fill="#0D6EFD"/>
</svg>