<svg width="72" height="71" viewBox="0 0 72 71" fill="none" xmlns="http://www.w3.org/2000/svg">
<path fill-rule="evenodd" clip-rule="evenodd" d="M45.1601 0L71.9997 14.2066V70.4645H45.1601H24.5119L33.704 63.2823V31.1617L24.9497 27.4053L24.5119 26.14V10.9465L45.1601 0ZM67.7294 18.185L48.8197 8.52456V15.3437L67.7294 23.8676V18.185ZM67.7294 30.1185L48.8197 22.1629V28.4137L67.7294 35.8012V30.1185ZM48.8197 35.8012L67.7294 42.6203V48.3029L48.8197 42.052V35.8012ZM67.7294 55.1221L48.8197 49.4395V55.6903L67.7294 60.8047V55.1221ZM41.5009 8.52391V15.3431L29.301 19.8892V13.6383L41.5009 8.52391ZM41.5009 22.1622V28.4131L33.704 30.9553V30.2029L29.301 28.7647V26.14L41.5009 22.1622ZM41.5009 42.0514V35.8005L33.704 37.9795L34.5537 38.2513V44.5021L33.704 44.2304L41.5009 42.0514ZM41.5009 49.4388V55.6897L33.704 57.8687L34.5537 58.1404V51.8896L33.704 51.6179L41.5009 49.4388Z" fill="#1269E8"/>
<path fill-rule="evenodd" clip-rule="evenodd" d="M15.3942 17.9297L35.4043 28.5213V70.4643H15.3942H0V26.0908L15.3942 17.9297ZM32.2205 31.4878L18.1224 24.2855V29.3695L32.2205 35.7245V31.4878ZM32.2205 40.3848L18.1224 34.4535V39.1138L32.2205 44.6214V40.3848ZM18.1224 44.6214L32.2205 49.7054V53.9421L18.1224 49.2818V44.6214ZM32.2205 59.0261L18.1224 54.7894V59.4497L32.2205 63.2627V59.0261ZM12.666 24.2853V29.3693L3.57052 32.7586V28.0983L12.666 24.2853ZM12.666 34.4533V39.1136L3.57052 42.0793V37.419L12.666 34.4533ZM12.666 49.2816V44.6213L3.57052 47.1633V51.8236L12.666 49.2816ZM12.666 54.7893V59.4496L3.57052 61.9916V57.3313L12.666 54.7893Z" fill="#0D6EFD"/>
</svg>
