<svg width="104" height="104" viewBox="0 0 104 104" fill="none" xmlns="http://www.w3.org/2000/svg">
<g filter="url(#filter0_d_6432_12864)">
<path d="M79.8442 52.0001C79.8442 67.378 67.3779 79.8443 52 79.8443C36.6221 79.8443 24.1558 67.378 24.1558 52.0001C24.1558 36.6221 36.6221 24.1558 52 24.1558C67.3779 24.1558 79.8442 36.6221 79.8442 52.0001Z" stroke="#1269E8" stroke-width="4.31164"/>
<path fill-rule="evenodd" clip-rule="evenodd" d="M51.9998 80.0646C67.4994 80.0646 80.0643 67.4996 80.0643 52C80.0643 36.5003 67.4994 23.9354 51.9998 23.9354C36.5002 23.9354 23.9353 36.5003 23.9353 52C23.9353 67.4996 36.5002 80.0646 51.9998 80.0646ZM50.0738 37.1711C50.0738 35.4684 50.2801 35.0678 51.3245 34.6922C52.1883 34.3917 53.2455 34.7172 53.6839 35.4309C53.9031 35.7564 53.9417 36.0694 53.9417 37.1711C53.9417 38.3855 53.9675 38.5232 54.1738 38.5232C54.6509 38.5232 55.9789 38.9239 56.8943 39.3495C60.0015 40.7642 61.7936 43.2181 61.6518 45.8472C61.6131 46.6235 61.5616 46.8238 61.2908 47.0992C60.0015 48.4388 57.9773 47.7878 57.7452 45.9474C57.5518 44.4075 56.5719 43.3558 54.6895 42.6798L53.9417 42.4043V46.0976C53.9417 49.5656 53.9546 49.7909 54.1738 49.7909C54.6509 49.7909 55.9789 50.1916 56.8943 50.6172C60.0273 52.0445 61.6776 54.3231 61.6776 57.1901C61.6776 59.1807 60.9556 60.6706 59.2537 62.2105C58.1449 63.1995 56.7009 63.9257 55.0763 64.3388L53.9417 64.6268V65.9413C53.9417 67.3811 53.7999 67.7442 53.0908 68.2074C52.588 68.5329 51.4276 68.5329 50.9248 68.2074C50.2157 67.7442 50.0738 67.3811 50.0738 65.9413V64.6268L48.9521 64.3388C45.0584 63.3623 42.338 60.4953 42.338 57.3779C42.338 55.9631 42.9826 55.2495 44.2719 55.2495C45.4323 55.2495 46.1028 55.9005 46.2704 57.1525C46.3219 57.5406 46.4638 58.0665 46.5927 58.3043C47.0569 59.1932 48.5138 60.2198 49.7257 60.4953L50.0738 60.5829V56.9772V53.3591L48.9521 53.0711C45.8707 52.3074 43.3565 50.2291 42.5958 47.8128C42.1059 46.2979 42.2864 44.3574 43.0471 42.8926C44.0657 40.9646 46.5153 39.2368 49.0682 38.686L50.0738 38.4606V37.1711ZM50.0738 49.3152V45.8598C50.0738 43.9568 50.0609 42.4043 50.048 42.4168C49.1326 42.6547 47.882 43.3183 47.3276 43.8441C46.3477 44.7705 46.0512 46.01 46.5798 47.0116C47.0569 47.9255 48.5009 48.9396 49.7257 49.2276L50.0738 49.3152ZM57.4358 58.2793C58.0933 57.0148 57.4616 55.4498 55.8886 54.4983C55.6307 54.3356 55.0892 54.0852 54.6895 53.9475L53.9417 53.672V57.1275V60.5829L54.3028 60.4953C55.5147 60.2073 56.9587 59.1932 57.4358 58.2793Z" fill="#0D6EFD"/>
</g>
<defs>
<filter id="filter0_d_6432_12864" x="0" y="0" width="104" height="104" filterUnits="userSpaceOnUse" color-interpolation-filters="sRGB">
<feFlood flood-opacity="0" result="BackgroundImageFix"/>
<feColorMatrix in="SourceAlpha" type="matrix" values="0 0 0 0 0 0 0 0 0 0 0 0 0 0 0 0 0 0 127 0" result="hardAlpha"/>
<feOffset/>
<feGaussianBlur stdDeviation="11"/>
<feComposite in2="hardAlpha" operator="out"/>
<feColorMatrix type="matrix" values="0 0 0 0 0.137255 0 0 0 0 0.511216 0 0 0 0 0.721569 0 0 0 0.25 0"/>
<feBlend mode="normal" in2="BackgroundImageFix" result="effect1_dropShadow_6432_12864"/>
<feBlend mode="normal" in="SourceGraphic" in2="effect1_dropShadow_6432_12864" result="shape"/>
</filter>
</defs>
</svg>
