<svg width="53" height="70" viewBox="0 0 53 70" fill="none" xmlns="http://www.w3.org/2000/svg">
<path d="M3.96469 1.26745C2.38417 1.8434 1.19209 2.91494 0.428615 4.46867L0 5.35268V35.2888V65.2248L0.428615 66.1089C1.20548 67.7028 2.41096 68.7609 4.03166 69.3101C4.80852 69.578 5.17017 69.578 26.3196 69.5512L47.8174 69.511L48.755 69.0556C49.9872 68.4528 51.0454 67.3947 51.6481 66.1624L52.1035 65.2248L52.1437 43.1512L52.1705 21.0909H45.3126C41.5355 21.0909 37.986 21.0239 37.4502 20.957C34.691 20.5953 32.5747 18.479 32.2131 15.7198C32.1461 15.184 32.0792 11.6346 32.0792 7.8574V0.999565H18.3903C5.21035 1.01296 4.66119 1.01296 3.96469 1.26745ZM39.004 29.556C39.5799 29.8775 39.9817 30.574 39.9817 31.2705C39.9817 31.967 39.6603 32.5429 39.0441 32.918L38.5753 33.2127H26.0518C13.7693 33.2127 13.5148 33.2127 13.0862 32.9448C12.4834 32.5831 12.1218 31.967 12.1218 31.2839C12.1218 30.3061 12.6843 29.623 13.6621 29.3819C13.8764 29.3283 19.5823 29.3016 26.3196 29.3016C37.6511 29.3283 38.6021 29.3417 39.004 29.556ZM39.004 37.5926C39.5799 37.914 39.9817 38.6105 39.9817 39.307C39.9817 40.0035 39.6603 40.5795 39.0441 40.9545L38.5753 41.2492H26.0518C13.7693 41.2492 13.5148 41.2492 13.0862 40.9813C12.4834 40.6197 12.1218 40.0035 12.1218 39.3204C12.1218 38.3426 12.6843 37.6595 13.6621 37.4184C13.8764 37.3649 19.5823 37.3381 26.3196 37.3381C37.6511 37.3649 38.6021 37.3783 39.004 37.5926ZM39.004 45.6291C39.5799 45.9506 39.9817 46.6471 39.9817 47.3436C39.9817 48.0401 39.6603 48.616 39.0441 48.991L38.5753 49.2857H26.0518C13.7693 49.2857 13.5148 49.2857 13.0862 49.0178C12.4834 48.6562 12.1218 48.0401 12.1218 47.357C12.1218 46.3792 12.6843 45.6961 13.6621 45.455C13.8764 45.4014 19.5823 45.3746 26.3196 45.3746C37.6511 45.4014 38.6021 45.4148 39.004 45.6291ZM30.9674 53.6656C32.2533 54.3755 32.2667 56.2775 30.9808 57.0544C30.5522 57.3089 30.2977 57.3223 22.0335 57.3223C13.7693 57.3223 13.5148 57.3089 13.0862 57.0544C12.4834 56.6927 12.1218 56.0766 12.1218 55.3935C12.1218 54.4157 12.6709 53.7326 13.6621 53.4915C13.8764 53.4379 17.7741 53.3977 22.3014 53.4111C29.8289 53.4379 30.579 53.4513 30.9674 53.6656Z" fill="#0D6EFD"/>
<path d="M35 8.23037C35 16.1405 35.0161 16.4768 35.3214 16.9731C35.9964 18.062 35.7714 18.03 44.8518 17.9819L50.5996 17.948C51.4885 17.9428 51.9293 16.8671 51.2995 16.2396L44 8.96694L36.7058 1.69954C36.0753 1.07136 35 1.51793 35 2.40795V8.23037Z" fill="#1269E8"/>
</svg>