<svg width="63" height="58" viewBox="0 0 63 58" fill="none" xmlns="http://www.w3.org/2000/svg">
<path d="M44.444 0.261871C44.2373 0.399639 43.9342 0.702728 43.7965 0.909382C43.452 1.44668 43.4383 2.68659 43.7965 3.21011C44.2649 3.9265 44.5955 4.06427 46.0696 4.13315L47.4335 4.20204L25.8866 15.7608C14.0386 22.1257 3.48553 27.7879 2.43849 28.3528C0.261759 29.5514 0 29.8269 0 31.0117C0 32.3067 0.757724 33.0645 2.03897 33.0645C2.75536 33.0645 3.52686 32.6511 26.2861 20.4449C39.2226 13.5014 50.0649 7.67379 50.3956 7.48092L50.988 7.15028L50.3542 8.39019C49.8583 9.3959 49.7343 9.78165 49.7343 10.3603C49.7343 11.6415 50.5058 12.3992 51.787 12.3992C53.1647 12.3992 53.1785 12.3855 55.7272 7.28804C57.8075 3.14122 58.0004 2.70037 58.0004 2.03908C58.0004 1.22625 57.7248 0.675175 57.0911 0.261871C56.7191 0.0138893 56.3334 0.000110626 50.7675 0.000110626C45.2017 0.000110626 44.816 0.0138893 44.444 0.261871Z" fill="#0D6EFD"/>
<path d="M50.6452 16.7936C50.4386 16.9313 50.1355 17.2344 49.9977 17.4411C49.7497 17.8268 49.736 18.4743 49.736 37.2659C49.736 56.0575 49.7497 56.705 49.9977 57.0907C50.1355 57.2974 50.4386 57.6005 50.6452 57.7382C51.0172 57.9862 51.3754 58 56.0044 58C60.6334 58 60.9916 57.9862 61.3636 57.7382C61.5702 57.6005 61.8733 57.2974 62.0111 57.0907C62.2591 56.705 62.2729 56.0575 62.2729 37.2659C62.2729 18.4743 62.2591 17.8268 62.0111 17.4411C61.8733 17.2344 61.5702 16.9313 61.3636 16.7936C60.9916 16.5456 60.6334 16.5318 56.0044 16.5318C51.3754 16.5318 51.0172 16.5456 50.6452 16.7936Z" fill="#0D6EFD"/>
<path d="M34.1108 25.0596C33.9042 25.1974 33.6011 25.5005 33.4633 25.7072C33.2153 26.0929 33.2015 26.644 33.2015 41.3989C33.2015 56.1539 33.2153 56.705 33.4633 57.0907C33.6011 57.2974 33.9042 57.6005 34.1108 57.7382C34.4828 57.9862 34.841 58 39.4011 58C43.9612 58 44.3194 57.9862 44.6914 57.7382C44.898 57.6005 45.2011 57.2974 45.3389 57.0907C45.5869 56.705 45.6007 56.1539 45.6007 41.3989C45.6007 26.644 45.5869 26.0929 45.3389 25.7072C45.2011 25.5005 44.898 25.1974 44.6914 25.0596C44.3194 24.8117 43.9612 24.7979 39.4011 24.7979C34.841 24.7979 34.4828 24.8117 34.1108 25.0596Z" fill="#1269E8"/>
<path d="M17.5782 33.3257C17.3716 33.4635 17.0685 33.7666 16.9307 33.9732C16.6827 34.359 16.6689 34.8274 16.6689 45.532C16.6689 56.2366 16.6827 56.705 16.9307 57.0907C17.0685 57.2974 17.3716 57.6005 17.5782 57.7382C17.9502 57.9862 18.3084 58 22.8685 58C27.4286 58 27.7868 57.9862 28.1588 57.7382C28.3655 57.6005 28.6685 57.2974 28.8063 57.0907C29.0543 56.705 29.0681 56.2366 29.0681 45.532C29.0681 34.8274 29.0543 34.359 28.8063 33.9732C28.6685 33.7666 28.3655 33.4635 28.1588 33.3257C27.7868 33.0777 27.4286 33.064 22.8685 33.064C18.3084 33.064 17.9502 33.0777 17.5782 33.3257Z" fill="#0D6EFD"/>
<path d="M0.909269 41.5918C0.702617 41.7296 0.399527 42.0327 0.261759 42.2393C0.0137768 42.6113 0 43.0108 0 49.665C0 56.3192 0.0137768 56.7188 0.261759 57.0907C0.399527 57.2974 0.702617 57.6005 0.909269 57.7382C1.28124 57.9862 1.63944 58 6.26845 58C10.8975 58 11.2557 57.9862 11.6276 57.7382C11.8343 57.6005 12.1374 57.2974 12.2751 57.0907C12.5231 56.7188 12.5369 56.3192 12.5369 49.665C12.5369 43.0108 12.5231 42.6113 12.2751 42.2393C12.1374 42.0327 11.8343 41.7296 11.6276 41.5918C11.2557 41.3438 10.8975 41.3301 6.26845 41.3301C1.63944 41.3301 1.28124 41.3438 0.909269 41.5918Z" fill="#1269E8"/>
</svg>