<svg width="66" height="51" viewBox="0 0 66 51" fill="none" xmlns="http://www.w3.org/2000/svg">
<path d="M8.27061 0.246239C7.66076 0.524647 7.22326 0.962147 7.02439 1.49245C6.82553 2.02275 6.82553 39.3296 7.02439 39.8599C7.21 40.377 7.91265 41.0664 8.38992 41.2122C8.6153 41.2917 9.94106 41.4111 11.3199 41.4906C19.2877 41.9546 25.3862 44.2747 30.0661 48.5967L31.0074 49.4717V30.0228C31.0074 12.2576 30.9941 10.5474 30.7953 10.1629C29.9865 8.59852 27.3615 5.77465 25.4922 4.47541C22.1911 2.15533 17.9884 0.723511 12.9771 0.193207C10.3786 -0.0852013 8.94674 -0.0586891 8.27061 0.246239Z" fill="#0D6EFD"/>
<path d="M52.6178 0.193207C47.739 0.736767 43.4701 2.20836 40.2618 4.44889C38.3659 5.77465 35.7542 8.58526 34.9322 10.1629C34.7334 10.5474 34.7201 12.2576 34.7201 30.0228V49.4717L35.6614 48.5967C40.3413 44.2747 46.4398 41.9546 54.4076 41.4906C55.7997 41.4111 57.1122 41.2917 57.3375 41.2122C57.8148 41.0664 58.5175 40.377 58.7031 39.8599C58.9019 39.3296 58.9019 2.02275 58.7031 1.49245C58.5042 0.962147 58.0667 0.524643 57.4569 0.246235C56.8205 -0.045433 55.0042 -0.0719452 52.6178 0.193207Z" fill="#0D6EFD"/>
<path d="M1.70818 7.57806C1.0453 7.76367 0.541514 8.1614 0.249847 8.75799C-0.015305 9.26178 -0.015305 9.54019 0.0112102 29.4133L0.050983 49.5649L0.329392 49.9361C0.713863 50.4399 1.37674 50.8774 1.94682 50.9834C2.27826 51.0497 3.23281 50.9171 4.95629 50.5857C9.75554 49.6709 13.2688 49.313 17.7101 49.313C21.7802 49.313 24.7499 49.6312 28.4222 50.4399C28.8067 50.5194 28.7802 50.4929 28.1173 49.8565C26.4866 48.3054 23.4506 46.6217 20.6003 45.6936C17.7234 44.7524 15.3502 44.3546 11.5851 44.1425C10.1798 44.0762 8.97334 43.9436 8.65516 43.8243C6.64001 43.1217 5.32751 41.8357 4.54531 39.8205C4.30667 39.1974 4.29341 38.455 4.25364 23.2883L4.21387 7.41898L3.19303 7.43223C2.63621 7.43223 1.96008 7.49852 1.70818 7.57806Z" fill="#1269E8"/>
<path d="M61.3412 23.1555C61.3015 38.3222 61.2882 39.0646 61.0496 39.6877C60.2674 41.7029 58.9549 42.9889 56.9397 43.6915C56.6215 43.8108 55.4151 43.9434 54.0098 44.0097C47.8715 44.3411 43.2711 45.6669 39.4795 48.1858C37.9416 49.2067 36.576 50.4396 37.1064 50.3203C40.5401 49.5381 43.881 49.1802 47.8715 49.1802C52.3261 49.1802 55.8393 49.5381 60.6386 50.4529C62.3621 50.7843 63.3166 50.9169 63.6481 50.8506C64.2181 50.7446 64.881 50.3071 65.2655 49.8033L65.5439 49.4321L65.5837 29.2805C65.6102 9.40738 65.6102 9.12897 65.345 8.62518C64.8678 7.67063 63.9928 7.28616 62.3356 7.28616H61.381L61.3412 23.1555Z" fill="#1269E8"/>
</svg>