<svg width="360" height="98" viewBox="0 0 360 98" fill="none" xmlns="http://www.w3.org/2000/svg">
<path opacity="0.3" fill-rule="evenodd" clip-rule="evenodd" d="M2.28237 26.6984H9.85827C10.8929 26.6984 11.7978 26.0018 12.0625 25.0017L17.9217 2.86347C18.3045 1.41695 17.2138 0 15.7175 0H11.2254C10.2958 0 9.45939 0.564236 9.11124 1.42608L0.168258 23.5643C-0.437178 25.063 0.665966 26.6984 2.28237 26.6984ZM17.8641 26.6984H25.4385C26.4694 26.6984 27.3721 26.0067 27.6402 25.0112L33.6021 2.87302C33.9923 1.42421 32.9009 0 31.4005 0H26.9099C25.9837 0 25.1495 0.560277 24.7992 1.41766L15.7534 23.5559C15.1405 25.0558 16.2438 26.6984 17.8641 26.6984ZM9.96733 24.9065C9.93208 24.9144 9.89556 24.9185 9.85827 24.9185H2.28237C1.92777 24.9185 1.68576 24.5598 1.81858 24.231L10.7616 2.09275C10.8245 1.93683 10.9604 1.82531 11.1204 1.791C10.9606 1.82544 10.825 1.93688 10.7621 2.09264L1.81909 24.2308C1.68627 24.5596 1.92827 24.9184 2.28288 24.9184H9.85878C9.89589 24.9184 9.93223 24.9143 9.96733 24.9065ZM25.5498 24.906C25.5139 24.9142 25.4766 24.9185 25.4385 24.9185H17.8641C17.5086 24.9185 17.2666 24.5582 17.401 24.2291L26.4468 2.0909C26.5102 1.93579 26.6458 1.825 26.8053 1.79092C26.646 1.82513 26.5106 1.93584 26.4473 2.09079L17.4015 24.229C17.2671 24.5581 17.5091 24.9184 17.8646 24.9184H25.439C25.4769 24.9184 25.514 24.9141 25.5498 24.906ZM342.526 60.8314C342.479 60.6097 342.283 60.4343 342.037 60.4343H337.545C337.341 60.4343 337.158 60.5581 337.081 60.7471L328.139 82.8831C328.117 82.9389 328.105 82.9957 328.103 83.0514C328.105 82.996 328.117 82.9396 328.139 82.8841L337.081 60.7481C337.158 60.5591 337.341 60.4353 337.545 60.4353H342.037C342.283 60.4353 342.479 60.6101 342.526 60.8314ZM358.21 60.8412C358.166 60.6154 357.968 60.4353 357.718 60.4353H353.228C353.025 60.4353 352.842 60.5582 352.765 60.7463L343.72 82.8822C343.698 82.9362 343.686 82.9911 343.683 83.045C343.686 82.9907 343.698 82.9355 343.72 82.8812L352.765 60.7453C352.842 60.5572 353.025 60.4343 353.228 60.4343H357.718C357.968 60.4343 358.167 60.6149 358.21 60.8412ZM328.603 85.3503H336.178C337.212 85.3503 338.117 84.6538 338.382 83.6537L344.241 61.5178C344.623 60.0714 343.533 58.6546 342.037 58.6546H337.545C336.616 58.6546 335.779 59.2188 335.431 60.0805L326.489 82.2165C325.884 83.7151 326.987 85.3503 328.603 85.3503ZM344.183 85.3503H351.757C352.787 85.3503 353.69 84.6586 353.958 83.6633L359.92 61.5273C360.31 60.0786 359.218 58.6546 357.718 58.6546H353.228C352.302 58.6546 351.468 59.2148 351.117 60.0721L342.073 82.208C341.46 83.7078 342.563 85.3503 344.183 85.3503Z" fill="#0D6EFD" fill-opacity="0.5"/>
<path d="M111.729 97.3281H17.4187C15.385 97.3281 13.7363 95.6795 13.7363 93.6458V33.2006M250.518 97.3281H345.255C347.289 97.3281 348.938 95.6795 348.938 93.6458V90.0219M38.899 5.99219H345.255C347.289 5.99219 348.938 7.64083 348.938 9.67452V53.4457" stroke="#0D6EFD" stroke-opacity="0.15" stroke-width="1.22745"/>
</svg>
