<svg width="1462" height="192" viewBox="0 0 1462 192" fill="none" xmlns="http://www.w3.org/2000/svg">
<path opacity="0.3" fill-rule="evenodd" clip-rule="evenodd" d="M4.94021 53.375H21.3383C23.5777 53.375 25.5363 51.9824 26.1093 49.9829L38.7916 5.72461C39.6202 2.83274 37.2594 0 34.0206 0H24.2973C22.2854 0 20.4749 1.12801 19.7213 2.85099L0.364196 47.1093C-0.946275 50.1056 1.44149 53.375 4.94021 53.375ZM38.6669 53.375H55.0618C57.2932 53.375 59.247 51.9921 59.8273 50.002L72.7321 5.7437C73.5766 2.84726 71.2142 0 67.9666 0H58.2465C56.2418 0 54.4362 1.1201 53.6779 2.83416L34.0983 47.0925C32.7717 50.0911 35.1598 53.375 38.6669 53.375ZM3.88052 49.0252C3.83716 48.8393 3.8508 48.6382 3.93645 48.4424L23.2936 4.18404C23.4589 3.80605 23.8561 3.55859 24.2975 3.55859H34.0207C34.4396 3.55859 34.7916 3.77462 34.9726 4.08196C34.7916 3.77449 34.4396 3.55833 34.0206 3.55833H24.2973C23.856 3.55833 23.4588 3.80579 23.2935 4.18378L3.93633 48.4421C3.85064 48.638 3.83708 48.8393 3.88052 49.0252ZM37.6079 49.028C37.5634 48.8401 37.5772 48.6366 37.6648 48.4387L57.2444 4.18035C57.4108 3.80432 57.8069 3.55859 58.2467 3.55859H67.9667C68.2609 3.55859 68.522 3.66505 68.7141 3.83484C68.522 3.66493 68.2609 3.55833 67.9666 3.55833H58.2465C57.8067 3.55833 57.4106 3.80406 57.2443 4.18009L37.6647 48.4384C37.5771 48.6364 37.5634 48.84 37.6079 49.028ZM1394.04 191.375H1410.43C1412.67 191.375 1414.63 189.982 1415.2 187.983L1427.89 143.725C1428.72 140.833 1426.35 138 1423.12 138H1413.39C1411.38 138 1409.57 139.128 1408.82 140.851L1389.46 185.109C1388.15 188.106 1390.54 191.375 1394.04 191.375ZM1427.76 191.375H1444.16C1446.39 191.375 1448.34 189.992 1448.92 188.002L1461.83 143.744C1462.67 140.847 1460.31 138 1457.06 138H1447.34C1445.34 138 1443.53 139.12 1442.77 140.834L1423.19 185.092C1421.87 188.091 1424.26 191.375 1427.76 191.375Z" fill="#0D6EFD" fill-opacity="0.5"/>
<path d="M556.591 185.559H42.6506C37.6801 185.559 33.6506 181.529 33.6506 176.559V83.0586M903.053 185.559H1359.41M100.236 16.5586H1420.24C1425.21 16.5586 1429.24 20.588 1429.24 25.5586V112.559" stroke="#0D6EFD" stroke-opacity="0.15" stroke-width="3"/>
</svg>
