<svg xmlns="http://www.w3.org/2000/svg" width="201" height="28" viewBox="0 0 201 28" fill="none">
    <path
        d="M0 8.95246C0 9.0343 0.0272819 9.0616 0.111856 9.0616H18.9855C19.6501 9.0616 19.9557 9.17271 20.0941 9.36643C20.2305 9.50528 20.3696 9.78281 20.3696 10.4478V18.6223C20.3696 19.7034 20.0649 19.9814 18.9855 19.9814H0.111856C0.0272819 19.9814 0 20.009 0 20.0933V23.1409C0 23.7783 0.443702 24.2228 1.08136 24.2228H19.6229C23.1698 24.2228 24.9431 22.4494 24.9431 18.8731V10.1702C24.9431 6.59634 23.1698 4.82275 19.6229 4.82275H1.08136C0.858385 4.82275 0.664689 4.87755 0.471233 5.01647L0.250745 5.20967C0.166419 5.29151 0.111856 5.40313 0.0843261 5.48771C0.0545638 5.51494 0.0545638 5.54224 0.0545638 5.59685C0.0272819 5.79253 0 5.87437 0 5.90161V8.95246Z"
        fill="#1269E8" />
    <path
        d="M34.043 23.168C34.043 23.389 34.1273 23.6938 34.3482 23.9172C34.3755 23.9991 34.4321 23.9991 34.4593 24.0264C34.6531 24.1655 34.8741 24.2226 35.124 24.2226H55.3279C55.5509 24.2226 55.8264 24.1953 56.0492 23.9991L56.131 23.9172C56.3544 23.6665 56.4092 23.3617 56.4092 23.1407V21.0625C56.4092 20.8961 56.4092 20.7845 56.382 20.7573C56.2974 20.2315 55.7989 19.9812 55.3279 19.9812H35.0968C34.7349 19.9812 34.5413 20.0931 34.2937 20.3406C34.1546 20.5368 34.0703 20.7573 34.0703 21.0055C34.043 21.0353 34.043 21.1444 34.043 21.3401V23.168Z"
        fill="#1269E8" />
    <path
        d="M34.043 15.7401C34.0703 15.9908 34.1818 16.1839 34.3482 16.323C34.3755 16.4048 34.4321 16.4048 34.4593 16.4346C34.6804 16.6283 34.9311 16.6283 35.124 16.6283H54.9405C55.6054 16.6283 56.0219 16.2111 56.0219 15.5464V13.4956C56.0219 13.3292 56.0219 13.2176 55.9926 13.1903C55.9653 12.9971 55.7989 12.6918 55.6054 12.6099C55.4117 12.4142 55.1615 12.4142 54.9678 12.4142H35.3178C35.0695 12.387 34.7349 12.4142 34.4866 12.6372L34.3482 12.7463C34.1818 12.9425 34.0975 13.1635 34.0975 13.3564L34.043 13.6892V15.7401Z"
        fill="#1269E8" />
    <path
        d="M34.0703 5.8195C34.0703 5.93112 34.043 6.04052 34.043 6.15214V8.00928C34.043 8.23024 34.0975 8.53506 34.3482 8.78332C34.4321 8.81309 34.4028 8.84033 34.4866 8.86763C34.6804 9.06135 34.9311 9.06135 35.124 9.06135H55.216C55.439 9.06135 55.7443 9.00675 55.9926 8.78332C56.2428 8.53506 56.2974 8.23024 56.2974 7.97951V5.90134C56.2974 5.8741 56.2701 5.79226 56.2428 5.59658C56.1582 5.2367 56.0219 5.12483 55.717 4.93188C55.5782 4.85004 55.4117 4.82248 55.216 4.82248H35.2632C35.0402 4.7927 34.7077 4.85003 34.4593 5.07022L34.321 5.18184C34.1273 5.37556 34.0975 5.62578 34.0703 5.8195Z"
        fill="#1269E8" />
    <path
        d="M65.5078 18.9844C65.5078 22.5578 67.5015 24.3311 70.9662 24.3311H80.8894L81.666 26.3278C81.805 26.6872 81.9415 27.02 82.0526 27.3522C82.0799 27.3819 82.1371 27.4092 82.1644 27.4092H86.8768C87.0133 27.4092 87.0431 27.3522 86.986 27.2701L83.4666 18.2899C83.4393 18.2899 83.412 18.2626 83.3847 18.2626H78.6723C78.5605 18.2626 78.5332 18.3197 78.5605 18.4283C78.7542 18.8727 78.9777 19.4283 79.2253 20.093H71.6608C70.9662 20.093 70.6069 19.9266 70.4132 19.7304C70.2202 19.5939 70.1085 19.2321 70.1085 18.7063V10.3355C70.1085 9.80971 70.2202 9.45035 70.4132 9.31143C70.6069 9.11772 70.9662 8.97937 71.6608 8.97937H83.9104C84.9917 8.97937 85.4336 9.22686 85.4336 10.3355V18.7063C85.4336 19.0112 85.379 19.2892 85.2971 19.5374C85.2672 19.5647 85.2672 19.5939 85.2971 19.6212L86.986 23.8325C87.0133 23.8899 87.0431 23.9171 87.125 23.9171C87.6806 23.7235 88.0126 23.4732 88.6501 22.9204C89.6469 21.9477 90.0342 20.6461 90.0342 18.9844V10.088C90.0342 6.51137 88.0672 4.73804 84.6025 4.73804H70.9662C67.3929 4.73804 65.5078 6.51137 65.5078 10.088V18.9844Z"
        fill="#1269E8" />
    <path
        d="M100.214 4.82275C99.5766 4.82275 99.1328 5.26421 99.1328 5.90161V18.8731C99.1328 22.3378 100.879 24.2228 104.455 24.2228H118.339C121.888 24.2228 123.662 22.4494 123.662 18.8731V5.90161C123.662 5.68066 123.607 5.37583 123.384 5.1251C123.135 4.87755 122.831 4.82275 122.58 4.82275H120.142C119.505 4.82275 119.06 5.26421 119.06 5.90161V18.6223C119.06 19.7034 118.756 19.9814 117.674 19.9814H105.147C104.066 19.9814 103.733 19.7034 103.733 18.6223V5.90161C103.733 5.68066 103.679 5.37583 103.428 5.1251C103.208 4.87755 102.902 4.82275 102.655 4.82275H100.214Z"
        fill="#1269E8" />
    <path
        d="M133.843 4.82275C133.206 4.82275 132.762 5.26421 132.762 5.90161V23.1409C132.762 23.7783 133.206 24.2228 133.843 24.2228H136.281C136.531 24.2228 136.837 24.1657 137.057 23.9174C137.305 23.6667 137.362 23.3619 137.362 23.1409V5.90161C137.362 5.68066 137.305 5.37583 137.057 5.1251C136.837 4.87755 136.531 4.82275 136.281 4.82275H133.843Z"
        fill="#1269E8" />
    <path
        d="M146.159 4.82275C145.522 4.82275 145.078 5.26421 145.078 5.90161V7.97976C145.078 8.23049 145.133 8.53532 145.384 8.78357C145.634 9.007 145.937 9.0616 146.159 9.0616H154.835V23.1409C154.835 23.3619 154.89 23.6667 155.138 23.9174C155.361 24.1657 155.666 24.2228 155.914 24.2228H158.297C158.548 24.2228 158.853 24.1657 159.074 23.9174C159.324 23.6667 159.379 23.3619 159.379 23.1409V9.0616H168.027C168.665 9.0616 169.136 8.64694 169.136 7.97976V5.90161C169.136 5.65335 169.024 5.37583 168.831 5.1251C168.58 4.90485 168.275 4.82275 168.027 4.82275H146.159Z"
        fill="#1269E8" />
    <path
        d="M175.575 5.40313C175.491 5.59685 175.491 5.7625 175.547 5.90161C175.575 6.1524 175.714 6.31805 175.853 6.45716C175.88 6.45716 178.206 9.0616 180.647 11.6382L185.468 16.8487V23.1409C185.468 23.7783 185.912 24.2228 186.549 24.2228H188.933C189.183 24.2228 189.486 24.1657 189.709 23.9174C189.957 23.6667 190.015 23.3619 190.015 23.1409V16.8487L199.687 6.42992C199.796 6.31805 199.935 6.1524 199.963 5.90161C200.019 5.7625 200.019 5.59685 199.935 5.40313C199.853 5.20967 199.714 5.0978 199.603 5.01647C199.409 4.87755 199.216 4.82275 198.965 4.82275H196.11C195.473 4.82275 195.141 5.18212 194.92 5.40313L193.811 6.62357L191.343 9.28458L187.77 13.1365L180.59 5.43037C180.342 5.18212 180.01 4.82275 179.372 4.82275H176.517C176.1 4.82275 175.714 5.04326 175.575 5.40313Z"
        fill="#1269E8" />
</svg>