<svg xmlns="http://www.w3.org/2000/svg" fill="none" viewBox="0 0 390 440">
  <g opacity=".4">
    <mask id="b" width="969" height="440" x="-300" y="0" maskUnits="userSpaceOnUse" style="mask-type:alpha">
      <path fill="url(#a)" d="M-300 0h969v439h-969z"/>
    </mask>
    <g mask="url(#b)">
      <g filter="url(#c)" opacity=".1">
        <path fill="#0D6EFD" d="M250 233c0 18-96 6-120 17-18 8-27 84-53 84-58 0-67-62-67-94 0-33 47-60 106-60 58 0 134 20 134 53Z"/>
      </g>
      <g filter="url(#d)" opacity=".2">
        <path fill="#0D6EFD" d="M530 341c0 32-156 98-214 98-59 0 73-66 73-98 0-33-34-125 24-125 59 0 117 92 117 125Z"/>
      </g>
      <path fill="#0D6EFD" fill-opacity=".4" d="M431 59c-6 0-11 1-16 4l-3 4-7 2-4 1c-1 3 3 3 4 4v1h-2l-2-1-2-1h-5l1 2h-2c-2 1 2 3 2 3h-3l-1-1 1-1v-2c-1-2-3 1-4 2l-1 2 1 1-1 3 1 3h5s2 1 0 1h-3l-1 1v1l-2 3c-1 1-1 2-3 2h-1l2-1c2-1 3-3 3-5l-1-1-1-1 1-2v-2c-1-2-2-3-1-5l1-3a1 1 0 0 0-1 0l-1-1-5-1-4 4c-1 1-4 2-3 4l2 3v2l2 1c1 1 0 1-1 1-2 1-2 0-4-1l-6-2-4-1c-1-1-1-2-3-2-1 0-2 2-1 3l2 1c1 0 3 2 1 2l-1-1h-2l-4 1-2 1h-1l-1-1a1 1 0 0 0-1-1l-4 1-3 1-3 2-2 2-3 1v-2h1a2 2 0 0 0 0-2l-1-1-4-1c-2 0-1 2-1 4v3c1 1 0 1-2 1-2-1-4 0-5 2l-1 1 1 1v1l-4-1h-3c-2 2 3 2 3 4v-1l-4-1h-1v-1l-1-2v-2l-1-1-2-1h2l7 2v-1h-1v1c3 0 6 0 8-2 1-3-1-3-3-4l-4-2-4-3h-3l-4-2-4 1h1l1-1c1-2-2-3-4-4h-4l-3 2-1-2-5 1-2 1c-1 2-4 1-5 2l-5 2 1 2-3-1-3 1v1l-1 1a1 1 0 0 0 0 1h2s3 0 1 1h-2l-4 4-1 3c0 3-2 4-4 5l-7 4c-1 1-2 1-2 3l1 3-1 5 2 1c2 2 4 2 6 1l3-2c1-1 2 0 2 1l1 2v1l1 1 1 2 1 2h3l1-1 1-1 2-2c0-1-1-3 1-4l2-1 1-4-1-1c-1-1-2-1-2-3l1-2 3-3 4-2v-3l5-3 2 2h-1l-2 2-3 3-2 4v4l1 2 2 1h4l5-1c2-1 4 0 6 1l-1-1-2 1-1 1-1 1c-1 0 0 0 0 0l-1-1c-2-1-6 0-8 1v2l1 1h1v1h-5l-1 3a1 1 0 0 0 0 1h2l-2 1c-1 1 1 1-1 2h-1l-1 1-1 1-1-1h-2l-5 2-5-2h-4 1l2-2c1-1 0-1-1-2l-1-3c-1-1-3 1-3 1-2 1-4 3-3 6l1 1-3 1-2 1-2 1-2 4-4 3-2 1-1 1-1 1-2-1c-2 1-1 2-2 3l1-1c-1 0-6 0-5 2l2 2c2 0 2 1 2 2l2 2v-1h-1v3c0 2 0 3-2 3l-5-1h-3l-2 1-1 1c-1 0-2 0-2 2 0 1 2 0 1 3l-1 3v1l1 4 1 2h3l3 2c2 0 2-1 3-2l5-1 2-1 1-1 1-1v-3l1-1 2-1 1-2 2-1c1-2-1-2 2-3h6l3-2 3 1v2l1 2 3 1 3 2c2 1 3 1 3 3l-3 2a1 1 0 0 0 0 1c0 2 3 1 4 0l2-2v-2h1a1 1 0 0 0 1-1c0-2-3-2-5-3l-2-3-2-1v-1l-2-1c-1-1 1-2 2-2l2 1 1 1 1 1 3 2 3 2v4c0 2 1 2 2 3l1 2 2 1v2l3 1a1 1 0 0 0 1-1v-1c0-2 1-1 2-2s-1-2-1-3l-1-1 1-1 4-1h5v-5l1-2 1-3 1-2 4-1v1l1 1 1 1 1 1 3-1v-2s0-1 0 0l1-1 4-1c1 0 1 0 0 0v1l-1 2v1c0 2 3 2 4 4l1 1 3 1c2 1-1 2-2 2l-5 1-4-1-2-1h-3l-2 1-4 1-4 1-4 1v5l4 3 4 2 2-1h9v2l-2 2-1 4-1 2h-4l-7 1-6-1-4-2-3-1c-1 0-3 1-3 3v1c-1 1-2 2-3 1l-3-1-3-1-2-2-5-1-2-2 1-1a3 3 0 0 0 0-2l-1-1v-3l-2-1h-4c-2 0-4 2-7 1l-7 1-4 3c-3 0-6 1-8-1a1 1 0 0 0-1 1l-5 5c-2 1-3 2-3 4v3l-3 2-3 3c-1 2-4 3-4 6l-2 2-1 2v1l-1 2v2l2 2v4l-1 2c-1 2-2 3 0 5v1l1 2 1 1 1 1h1v-1c-1 0-2 0-1 1l1 1 2 3 3 4 4 2 4 3h12l5-1 5-2h4l2 2 2 2 5 1 1 2-1 3c-1 1-3 2-2 3l2 4 3 3 2 4v2l1 1v2c1 2 3 4 1 6l-1 1-1 2-1 3-1 1v1a1 1 0 0 0 0 1v3l2 4 3 3 1 5 1 3 1 4c0 3 4 4 4 7 1 1 2 3 1 4l-1 1 2 2 3 2c3 1 6-1 9-1h4l3-2 2-3 3-3c1-1 2-1 2-3l2-3v-4c1-2 3-2 5-2 3-2 1-5 1-8v-1h-1l1-2 4-4 3-1 2-2 1-4v-4l-1-1v-2l-1-4v-1l-1-2v-2l1-2 1-3 3-2 5-6 2-3 3-2h-1 1l2-2 1-1 2-3 2-4v-3l1-3c-2-1-6 0-7 1h-9v-4l-2-1-2-3-3-2-1-1h1l-2-4c-1-1-2-1-2-3v-1l-1-3-2-3-1-2-1-2-2-3-1-3-1-1h1l2 2h1l2 2 1 1v2l2 2 2 3 2 4 1 2 1 1 1 3 2 2 1 3v2l2 3c1 1 2 2 4 1l3-1 3-1 5-2 2-2 3-2h3l2-2 3-2 1-3 1-1 1-1 1-1c0-2 0-3-2-4l-3-1-2-2v-2a1 1 0 0 0 0-1 1 1 0 0 0-1 0l-3 3-3 2c-2-1-1-2-1-3l-2-1h-1l-1-1s0 2 0 0l-1-2-2-1v-2c-1-1 0-1 1-2l4 1v2l1 1 3 2 1 1h6l3 2 5 1 5 1c2-1 5-2 6 0l2 2h2c2 1 1 1 1 3l2 2 3 1h2v4l-1 5 2 4 3 3v1l1 1 1 2 1 2 1 2 2 1c2 0 2-2 3-3l2-2v-3l1-3-1-1c0-2 1-2 3-3l1-1 2-1 2-3 3-2 2-2v-2h2l3-1 2-1 2 1 3 3 1 1v2l1 3v2l2 1 4-2a1 1 0 0 0 0-1l-1 1 1 3 1 3 1 4-1 4 1 2 2 3 1 3 2 3c0 2 2 4 4 5s4 0 3-2c0-1-2-1-1-2v-3l-2-3-2-1-2-1v-2c-1-1-3-2-2-3l1-7-1 1h2v1l2 1 1 2 2 1 1 1h1c1 1 0 0 0 0v3c1 2 3-1 4-1l2-2 3-2c1-1 2-3 1-5 0-2-2-4-4-6l-2-3v-4l2-1c1-1 2-2 3-1 1 0 1 2 3 2l1-1 1-1v-1h1l5-1v-1 1l5-2 4-5 2-2 2-3 2-2-1-2v-5l-2-4-2-1c-1-2 1-3 2-3l2-1 1-1 1-1a1 1 0 0 0-1-1h-2l-2-1-1 1c-2 1-1 0-2-1l-1-1c-1-1 1-1 2-1l5-4v1l-1 2h7v1c0 3 0 2 2 3 1 1 2 2 1 3l-1 1-1 1 2 3c1 1 3-1 4-2 2 0 3-1 3-3s0-3-2-4l-1-2-1-2 1-1 3-1v-2l2-1c1-1 1-2 3-2l2 1 5-4 3-2 1-2 2-3 1-2 1-1c-1-2 1-3 1-4l1-5v-4l-3-2h-3c-2 1-2-1-3-2h-2v-1h1l5-3v-1 1l2-2 2-2 2-3 4-1h8l5-1 2 1v1h7c1-1 0-3-1-3v1l3-3 1-1 1-1 4-2v1l1 1v1h2l3-1 2-2v-1l2-1h1v1l-1 1-2 2-3 2c-1 2-2 3-4 3l-3 3c-1 2-4 2-5 5v9l1 3v3a1 1 0 0 0 1 0h3v-1l1-1 1-3 2-1v-2h2l2-1v-1c0-1-1-2 1-3h1l1-3-1-2v-1l-2-1 2-1v-1l2-2 3-1 2 1c1-1 1-2 3-2l2 1h3a250 250 0 0 0 7-5l3-1 2-1h4v-2c-1-2-1-3-3-3l-1-1c-1 0-1 0 0 0h1l2-1 2-1 2-1v-1s-1 0 0 0c1-2 1 0 1 1a1 1 0 0 0 1 0h2l2 1 1 1 2 1h3l1-1 1-2 2-1v-2c0-2-1-3-2-3l-1-1h-2l-1 2-1 1v-1c0-2 0-3-2-3l-1 1h2l-4-2-4-1-2-2-5-3h-7c-2 0-6-2-6 1 0 2 1 1-1 2l-2-1 1-1a1 1 0 0 0 0-1h-4l-2 1h-4l-3-1-3 1s-3 0-2-1v-1l-3-2-3-1h-9l-2-2-4-1-2-1-3-1-7-1h-3l-2-1a1 1 0 0 0 0 1l-3 1v3h-12v-1h-2l-3 2c-1 1-2 1-2-1v-1c1-2 0-4-2-5l-5-1-4-1-2 1v2h-2l-2-1h-2l-2-1h-2l-6-1h-7l-5 1-3 1h-3l1 1 3-1 2-1 5-3c2-1 6-2 5-6l-2-2-3-2h-5l-2 1h-2v1c1-1 3-1 2-2 0-2-4 0-4-1l1-2h-6l-3 1-1 2-3 1-1 1-7 1v1h6l1-1h1l2-1 2-1v-1l4-2h4v-1l-1 1a1 1 0 0 0 0 1l2 1h2l-1 1h-1v1h4l1-1c2-1 4 0 6 1 1 1 3 1 3 3 1 1-1 2-2 3l-5 2-5 3-3 1a1 1 0 0 0 0 1c1 1 4 0 5-1h4l5-1 7 1 5 1 2 1h6l1-1v-2l4 1h4l1 1c1 0 2 0 2 2v1l-1 2 3 3 3-1 2-2v1h14a1 1 0 0 0 1-2h-1v-1l2-1 1-1-1 1h5l6 1 5 2 3 1 2 1 1 1h12l1 1 1 1h1l-1 2h1c1 1 2 2 4 1h9l3-1h1c1 1 1-1 0 0l-1 2 3 1 3-1 1-1-1-1h8c3 0 6 1 8 3l2 2 4 1 3 1 1 1 1-1-1-1v1c2 1 0 3 0 4h3l2-3v1h2l1 3-2 1-2 3-2-1c-2 0-2-1-3-2h-4v1c0-1 1-2-1-3l-3 2v1l-2 1-4 1a1 1 0 0 0-1 1l2 1 2 2 1 1c0 2-3 1-4 1l-4 2c-3 0-5 3-7 4 0 1-1 2-2 1l-1-1a4 4 0 0 0-3 0l-2 1h-3l-1 1-3 1-2 3-1 2 1 1h1v1l1 1c0 2-3 2-3 3v2l-2 2-2 1v1l-1 1h-1l-1 2v1l-1 1v1h-2v-4l-1-2v-7c1-3 3-3 5-5l1-2 3-1 3-2 3-3 2-3s2-1 1-2l-1-1-3 1-1 1-2 2h-1l-1 1h-1v1-1l-1-2v-1l-5 2h-1l-1 1-1 1-3 3a1 1 0 0 0 1 1c1 1-1 1-1 1h-4v1-2l-4-1h-2l-4 1-5-1a15 15 0 0 0-9 6l-1 2-2 2h1v1-1l-6 2-2 2 3 1 1 1 1 2c2 0 3-2 5-1l2 4-1 5-1 3-1 2v1l-1 2-3 4-5 4-2 1h-3c-2 0-2 1-3 2l-2 2v1l-2 1-2 1 1 4 2 2 1 2c0 2-1 3-2 3l-2 1-1 1h-1c-2-1 2-3 2-4l-2-4h-1l-1-2v-2h-7c1-1 2-1 1-2l-2-1-1 1-3 2-3 1-1 1 1 2 1 1v1h7s1 0 0 0l-1 1-2 1-2 2v3l3 2v2l1 1v4c0 1 2-1 0 3l-1 1-1 2-2 2-2 3-2 1-5 3v1-1l-4 1-3 1-1 1c-1 1-1-1-2-1l-3-1-2 2-2 2-1 2v1l1 1 2 4c2 1 4 3 4 5a5 5 0 0 1-1 4l-1 2h-2l-1 1-1 1c-1 1-3 2-2 0l1-1-3-2h-1l-2-2-2-2v1-2a1 1 0 0 0-1 0 10 10 0 0 0-2 0 1 1 0 0 0 0 1v3l-1 1-1 2 1 2 1 1 1 2 4 3 2 2v5c2 2 0 1-1 0-2-1-4-3-4-5l-1-3-2-2-1-2c-2-2-1-3 0-5s0-5-1-7c0-1 0-5-2-5l-1 1v-1 1l-3 1h-1v-5l-1-3-3-2-1-2c-1-2-4 0-5 0-2 1-5 0-6 2v1l-1 1-1 1-4 3-1 2-2 1-1 2h-1l-2 2 1 4-1 1v3l-2 2-3 2-2-4-1-2-1-3-2-2-2-3v-8l-1-4h-1l-1 1-3-1-1-2v-1c0-2-3-1-4-3l-1-2h-9l-7-1-2-1h-1v-1h-2l-5-1-2-1-2-2v-1l-1-1c-2-2-3-2-5-1s-2 2-2 3l1 2 1 1 1 1 1 2v1l1 1 2-1 1 3 4 1 2-2 3-3h-1l1 3 2 2 2 1c1 1 2 0 2 2l-2 2-1 1-1 2-1 2-2 1-2 2-4 1-3 3-4 2-3 1h-3c-1 1-3 2-4 1l-1-3-1-3-2-4-2-3-2-3-3-6-3-3v-3c-1-1-2-3-4-3l-2-1-2-1-1 2 1 1v2l2 2 3 6 2 3 1 2v3l2 3 1 3a1 1 0 0 0 1 0l1 1 1 2 2 2 1 1v1h1l1 1v3l2 1 5-1h3l3-1h3l-1 2-1 4-3 6c-1 1-3 1-3 3h1a1 1 0 0 0-1-1v1l-3 2-2 3-2 2-2 1-1 2-1 1-2 2-2 6v3l1 2 1 4v2h1v5l-2 4-4 1-3 3-2 3c-1 1 0 1 1 2v5c0 2-2 2-4 3-3 1-1 3-2 5l-2 4-2 3-2 2-3 3c-3 3-6 2-10 2l-4 1-4-2v-5l-1-3-3-4-1-4-1-2-1-2c0-3 0-5-2-7l-3-4-1-3v-1 1l1-3 1-1v-4l2-1 1-2-2-5v-3l-1-2v-1l-1-2-3-4-3-4 2-2v-6c-1-3-6-1-7-4s-6-2-9-2l-5 2h-9c-1 1-3 2-4 1l-4-1-2-2-5-4-2-3-2-2h-1v1l1-1-1-1-1-2-1-2c-1-1-2-2-1-3l2-2v-2a19 19 0 0 1 0-4l-1-3v-3l1-2 2-2c0-3 2-4 3-5l1-1 1-2 2-1 2-2 2-2-1-3 3-3 3-2 2-3h-1c3 2 4 1 7 1h3l2-2c3-2 5-2 8-1l4-1 4-1h2l2 1-1 2 2 2-1 2v1l2 2 4 1 4 2 3 1 2 1h4l1-3c1-2 4-1 6 0l6 1 6 1 4-1h4l2-2 2-4 1-2c1-2 0-4-2-4h-3l-3-1-2 1h-4l-2-1-2-2v-3l-1-1h3l3-1 4-2 4-1 4 1 6 1 4-1 3-1-1-3-3-1-2-2-3-2 1-3c1 0 2-1 1-2s-5 0-6 1l-2 2v2h-2v-1h-1v-2l-1-1-5 1c-2 0-2 2-3 4l-1 2v1l-1 2a2 2 0 0 0 1 2v1c1 0 1 0 0 0h-6l-2 1h-2v4l1 1h1l-2 1v3l1-1-2 1-1-1c0-2-1-2-2-3l-2-2v-6h-1l-2-2-2-1-2-2-1-1-1-1-2-1c-2 0-4 0-4 2v2l1 1 2 2h1l2 2 2 1 3 2c-1 0-2-1-3 1v3c-1 0-2 2-3 1l3-3c0-2-1-3-2-3l-3-2c-2-1-4-1-5-3 0-2 1-2-1-3a5 5 0 0 0-6 0l-4 1c-1 0-5 0-5 2v1l-2 1-1 2-3 2-1 1v3l-1 1v1h-1l-6 1-3 1-1-1h-4v-6l1-3-1-3v-1h1v-1h12l1-2v-4h1v-1l-1-1-1-1-1-2-3-1 4-1h1l1-1h1c2 0 1-1 3-2h1l1-2 4-2 1-3c1-2 2-1 3-2l1-1 4-1v-6l3-2v2l1 1v1h1l-3 1 1 2 4 1 3 1h2l5-2 4 1 2-2h1l1-1 1-3-2-1h1l1-2 4 1 2-2-1-2h-2v-1h1l1-1h5v1a1 1 0 0 0 1 1c2-1 1-2 2-3s3 0 3-2l-4-2-3 1-5 1h-3l-1-1-1-3v-2l2-3 3-3 3-3c1-2-2-3-3-3-3 1-6 2-6 5l-1 1-1 1-4 3c-2 2-2 5-1 7l2 1-1 2-1 2c-1 0-2 0-2 2l-1 4-3 2h-1l-1-1v-1h-1v-1l-1-1-1-4c-1-2-3-2-5 0l-2 2-5-2v-4l-1-2 1-3 4-3 4-3 4-3v-2l1-3 4-2 2-2 1-2h-4 1v-1l1-1 4 1v-1l2-2 4-2 4-1v-1h6v1l5-2 4 1 2 1-1 1c-1 0-3 0-2 1 1 2 4 1 5 1 2-1 4 1 6 1s3 2 5 3l4 1 3 2c1 1-1 2-2 3h-5v1h1v-1l-6-2h-3c-3 1 2 3 2 4v4l3 2h4a1 1 0 0 0 1 0l-1-2-2-1h2l3 1 2-1 1-1-1-1v-1l4-1h3l1-1-1-2 1-3-1-1 1-1 3 1c1 1 0 1-1 1l-1 1c-1 2 1 3 2 3l4-1v-1l3-1 2-2 3-2-1 1 4-1c0 1 0 3 2 2h2l3-1 2-1 2 1h2l1-3-2-1s-2-1-1-2l2 2 5 1 6 3h5l1-2-2-2-1-1v-1l-1-1c-1-2 0-3 1-3l2-3 4-1 4 1v1l-2 1c-1 2 1 3 1 5v5l1 1c1 1 0 3-1 4l-4 2c1 2 4 1 5 1l2-2 2-2 1-3h4c1-2-2-3-4-3h-3l1-2v-6c1 0 3-2 2 0l-1 2 6 1v-1l-1-1h-1l1-1 1-1c1-1-1-1-1-1h4c2 1 5 4 7 2 1-1-1-3-1-3l-2-1v-2a25 25 0 0 0 5-1c2 0 5-1 6-3l1-2 5-2 11-2v-1Z"/>
      <path fill="#0D6EFD" fill-opacity=".4" d="M356 79a1 1 0 0 0 1 0v-1l-1-1h-1v-1h-1a2 2 0 0 0 0-1h-1v-1l1-1 1-1 1-1h1v-1h1l1-1 1-1 1-1 1-1v-1l1-1 1-1h1a7 7 0 0 0 3-1h1l1-1h2l1-1h3l1-1h1a1 1 0 0 0 1-2v-1a1 1 0 0 0-2 0h-4l-1 1h-3v1h-5l-2 1h-1l-1 1a6 6 0 0 0-2 0h-1v1h-1v1h-2l-1 1v1c0-1 0 0 0 0h-1v2h-1l-1 1h-1v1a1 1 0 0 0 0 1h1l-1 1h-2v1h-1a1 1 0 0 0 0 2v1h-2v2l1 1 2 1h2c0 1 0 0 0 0v1h-1l2 1h4l1 1h2a1 1 0 0 0 0-1v-1a1 1 0 0 0 0-1h-1v2-1 1c0-1 0-1 0 0v-1h-6c-1 0-1 0 0 0v-1l-1-1h-1v-1h-3v-1h1a2 2 0 0 0 1-1v-2 1-1h1v-1h1l1-1 1-1a1 1 0 0 0-1-1h1v-1h1l1-1v-2h1s-1 0 0 0l1-1 1-1h1l1-1h2l1-1h2v-1h6l1-1h3l1-1h4c0 1 0 0 0 0v1c0-1 0 0 0 0h-2l-1 1h-1a41 41 0 0 0-4 1l-2 1h-1a9 9 0 0 1-2 1l-3 1v2h-1l-2 2-1 1v1c0-1 0 0 0 0h-1l-1 1-1 1-1 1-2 2 1 2 1 1c-1-1 0 0 0 0l1 1 1 1v-1 1Zm-14 5v-1h-3l-1 1v2h4l1-1a1 1 0 0 0 0-1 1 1 0 0 0-1 0l-1 1h-1v1c0-1 0 0 0 0s-1 0 0 0h-1v-2s0 1 0 0c0 0 0 1 0 0h2a2 2 0 0 0 0 1h1a1 1 0 1 0 0-1Zm42-15a2 2 0 0 0-1 0h-2a1 1 0 0 0-1 1v1h3l2-1a1 1 0 0 0-1 0 5 5 0 0 1-2 0h-1s1 0 0 0h1s-1 0 0 0h2a1 1 0 0 0 1 0l-1-1Zm-19-31h-2l-1 1h-2v2h1l1 1h1a2 2 0 0 0 1 0l1-1h1c0-1 0-3-1-2v1s0-1 0 0l-1 1h-1l-1-1h-1v1-1h4v-2Zm6-1h-1l-2 1-1 1 1 1h2l3-1v-1h-2a1 1 0 0 0 1 1h-4 3v-2Zm-14 3-2 1h-2v1a1 1 0 0 0 0 1h4l1-1v-1l-1-1a1 1 0 0 0 0 1 1 1 0 0 0 0 1v-1 1-1 1h-3a3 3 0 0 1 1 0l2-1a1 1 0 0 0 1 0 1 1 0 0 0-1-1Zm-1-3h-5l-1 1 1 1h5l1-1v-1h-1v1c0-1 0 0 0 0h-5 5l1-1a1 1 0 0 0-1 0Zm4-3h-2a3 3 0 0 0 0 1s-1 0 0 0a1 1 0 0 0-1 0l1 1a4 4 0 0 0 2 1 1 1 0 0 0 1-1v-1l-1-1a1 1 0 0 0-1 1 1 1 0 0 0 1 0c0 1 0 0 0 0v1-1 1h-1l-1-1s0 1 0 0v1h1v-1h1a1 1 0 0 0 0-1Zm-16 4h-1l-1 1h-2l-1 1h-1l-1 1a1 1 0 0 0 0 1 1 1 0 0 0 1 0h2l2-1h3v-2a1 1 0 0 0-1-1 1 1 0 0 0-1 1l1 1v-1 1s0-1 0 0h-3l-1 1h-2v1-1h1l1-1h4v-2Zm6 2h-3l-2 2 2 1h1l1-1a1 1 0 0 0 1-1 1 1 0 0 0 0-1h-1a1 1 0 0 0-1 1 1 1 0 0 0 1 0h-3v1c1 0 0 0 0 0h1v-1h3a1 1 0 0 0 0-1Zm-14-2-2 1h-2l-1 1 1 1h4v-1l1-1h-2a1 1 0 0 0 1 1v-1h-1v1h-3v1-1h1a5 5 0 0 1 1 0h2a1 1 0 0 0 0-1 1 1 0 0 0 0-1Zm-95 101h4a5 5 0 0 0 1 0l1-1a1 1 0 0 0 0-1h-1a2 2 0 0 1 0-1v1-1 1-1h1l1-1v-2h-3v-1l-1-2v-1h-1v-2l-1-1a2 2 0 0 0-1-1l-1-1h-1l2-2v-2h-3v-1s0 1 0 0l1-1v-1h-4l-1 1h-1v1h-1v1l-1 1v1h1v1l1 1a2 2 0 0 0-1 1 1 1 0 0 0 1 1l1 1v1l1 1h2l1 1a2 2 0 0 1 0 1s0-1 0 0h-3v3s1 0 0 0l-1 1a1 1 0 0 0 0 1l1 1v1h-1l-2 2 1 1h3l1-1a2 2 0 0 0 1-1h3v-1h-4v1l-1 1h-3 1v-1h1l1-2v-1h-1v-1 1l1-1 1-1-1-1s0-1 0 0v-1c0 1 0 0 0 0h-1c0 1 1 0 0 0h4v-2l-1-1-2-1c-1 0 0 0 0 0a10 10 0 0 0-1-1 1 1 0 0 0-1-1v-1h-1 1a1 1 0 0 0 0-2l-1-1-1-1 1-1 1-1h1v-1h3-1v1c0-1 0 0 0 0v2h3v1s0 1 0 0v1l-2 1a1 1 0 0 0 0 1h2a5 5 0 0 1 0 1h1c-1 0 0 0 0 0l1 1v3h1v1h1l-1 1 1 2h3v1h-1l-1 1a1 1 0 0 0 0 1l1 1v-1 1h-5v1Z"/>
      <path fill="#0D6EFD" fill-opacity=".4" d="m227 128-1 1h-1a1 1 0 0 0-1 0v4h1l-1 1v1h-1v1l1 1h4l1-1 1-1h3l1-1v-1l-1-1v-1h-1v-1 1l1-1h1v-1a1 1 0 0 0-1-1 2 2 0 0 0-1-1h-1c-1 0 0 0 0 0h-1l-1-1h-1v1a1 1 0 0 0-1 1v1h1l-1-1 1 1v-1l1-1h1v1h2l1 1h-1l-1 1a1 1 0 0 0 0 1l1 1v-1 2h1v1-1 1-1l-1 1h-1l-2 1h-1v1h-1l-1 1a1 1 0 0 1 0-1h-2c1 0 0 0 0 0v-1 1c0-1 0-1 0 0l1-1v-1 1-1l1-1-1-1v-2h2v-2Zm-18-32h1l1-1a1 1 0 0 0 1 0s0-1 0 0c0-1 0 0 0 0h3v1h1v1h1v1l-1 1h-1l-1 1-1 1h-2a6 6 0 0 0 0 1h-3v1h-3a5 5 0 0 1-1-1h-1l-2-1v1-1l1-1-2-1h-1v-1s0 1 0 0v1l1-1a1 1 0 0 0 1-1h-1v-1h-3v1l1-1h1l1-1a1 1 0 0 0 1 0h-1 1a8 8 0 0 1 1 0v1a1 1 0 0 0 0 1h3a1 1 0 0 0 0-1v-1 1a1 1 0 0 0 1 0h2v-1 1h1v-1a1 1 0 0 0-1 0v-1l-2 1h-2v2-1h-1v-1a1 1 0 0 0 0-1h-1l-2-1a1 1 0 0 0-1 1c0 1 0 1 0 0l-1 1h-1v1h-1a1 1 0 0 0 0 1h3v1h1l-1-1c1 0 1 0 0 0h1-1s1 0 0 0l-1 1 1 1 1 1s1 0 0 0v1s1-1 0 0l1 1 1 1h2l1 1h3v-1h3l1-1h2l1-1 1-1 1-1a5 5 0 0 1 0-1h1v-1l-1-1c-1 0 0 0 0 0h-1v-1l-2-1h-1l-1-1a1 1 0 0 0-1 1h-1c1 0 0 0 0 0h-1l-1 1a1 1 0 0 0 1 1Zm122 183a6 6 0 0 0-1 2v3l1 1v1h-1c0 1 0 0 0 0v1h-1v1l-1 2v1l1 1v3l1 1 1 1 1 1h2l1-1h1l1-1 1-1v-5h1v-2l1-1a5 5 0 0 1 0-1l1-1v-4l1-1v-1l-1-1c0 1 0 0 0 0h1l1-1h1a1 1 0 0 0-1-1v-3l-1-1-1-1-2-1a2 2 0 0 0-1 2v1h1-1l-1 1h-1v1a1 1 0 0 0-1 1v1-1 1h-2a6 6 0 0 0-1 1l-1 1h1l1-1a5 5 0 0 0 2 0l1-1v-1h1v-1l1-1h1l1-2s0-1 0 0v-1 1h1v1h1-1l1 1v1a2 2 0 0 0 0 1h1-1v1h1c-1 0-1 0 0 0h-1l-2 1v1l1 1s0-1 0 0v-1 1h-1v5h-1v1l-1 1v2h-1v3a6 6 0 0 1 0 2v1h-1s1 0 0 0v1h-2l-1 1-1-1-1-1a6 6 0 0 0-1 0s0-1 0 0v-1c0 1 0 0 0 0v-3h-1v-1l1-1v-1l1-1 1-2a5 5 0 0 0 0-1v-1a4 4 0 0 0-1-1l1-2v-1h-1ZM298 42h-2v-1h-9l-1-1h-2a4 4 0 0 0-2 0v1h-1l-1 1a1 1 0 0 0 0 1l1 1h4v1s0-1 0 0v-1h1-1 1v1h-1v-1a1 1 0 0 0 0 2h1l2 1h3l1-1h2l2-1 1-1 1-1h-2s1 0 0 0c0 0 1 0 0 0v1l-2 1h-2l-1 1h-2l-2-1h-1c-1 0-1 0 0 0a1 1 0 0 0 1-1 1 1 0 0 0-1 0l-2-1h-1a5 5 0 0 1-2-1h2l1-1h1l1 1h9l1 1a3 3 0 0 0 1 0h-1l2-1Zm-21 15h1l1-2h1v-3l1-1h1v-1h2v2c0 1 0 0 0 0v1a1 1 0 0 0 0 1h3l1 1h2l1-1 2-1a1 1 0 0 0-1-1l-1-1h-2v-1l-1-1h-1a6 6 0 0 1-1-1l-1-1h-1l-1-1h-1l-1-1h-1l-1-1a8 8 0 0 0 1 1l-1-1-1-1h-3a1 1 0 0 0 0 1 1 1 0 0 0 0 1h1v1h-1v-1h-1l-1-1h-3l-2-1h-2a1 1 0 0 0-1 2v1l1 1 1 1v2h2l1 1h2l1-1h2-2a5 5 0 0 0-1 1h-1l-1 1a1 1 0 0 0 1 1h1c1 0 1 0 0 0h1-1a1 1 0 0 0-1 1l1 1h1l1 1 1 1h2v1a1 1 0 0 0 1-1l-1-1h-2v-1l-1-1h-2 1a1 1 0 0 0 0-2h-2 2l1-1h2v-2h-4l-1 1h-1v-1a24 24 0 0 1-2 0v-2l-1-1h-1v-1h1s0-1 0 0h6l1 1 1 1h1a1 1 0 0 0 1-1v-1l-1-1h1l1 1s1 0 0 0h1v1h1l2 1 1 1h2v1l1 1 2 1v1h2a6 6 0 0 1 1 1h1-1a48 48 0 0 1-2 1h-1l-1-1h-2v1-4l-1-1h-3l-1 1v1l-1 1v2l-1 1-1 1 1 1a1 1 0 0 0-1-1 1 1 0 0 0 0 1Zm-76-21-1 1h-1v1h-1c-1 1-1 0 0 0l1-1 1-1 1-2v-1l-4 1-3 1h-2v1-1a1 1 0 0 0 0-1h-10 1l1-1h17l1-1v-1l-1-1-2-1h-2l-1-1h-1l-1-1h-1l-5-1h-19l-1 2h1v1h-4l-2-1h-3l-2-1-2 1-1 1v1l1 1 1 1h1s0-1 0 0h-1l-2-1h-2v1l1 1h1l1 1h-1l-1-1h-2l-2-1-3-1-2 1v1l1 1h1-3l-2-1a1 1 0 0 0 0 1c-1-1-3-2-3 0v1c0-1 0 0 0 0h-1 1v-3h-7l-1 1a1 1 0 0 0-1 1 2 2 0 0 0 0 1h1l-1-1h-4l-2 1v2h-3l-3 1-3 1-2 2v1l1 1h2v2h-3v1h-2l-3 1-1 1h-1l-2 1h-1a1 1 0 0 0-1 2l2 1 1 1 1 1h5l1 1v-1h-2l-3 1-2 1 2 1 2 2 2 1h9l3-1h2l2 1 2 1h1-1v1h1v2l2 1 1 1v1l1 1 2 2v3c-1 1-2 2-1 3l1 1h5l2 1 1 1h-6a1 1 0 0 0-1 0v4l2 1h3v-1h2l1 1-1 1-1 1h-2l-1 2-1 1h1-1v2l-1 1v3h1v1l1 1 1 1 1 2h1l1 1v3l1 2 2 1 1 1 1 1v1l1 1v-1l1 1v1h1l3 1 2 1h1l2-1 1-2 1-1v-4s-1 0 0 0h1l1-3 1-1v-1s-1 0 0 0l1-1-1-1h1l1-2h4l4-2 1-1h1l1-1 1-2 1-1 1-1v-1h1l1 1h3l1-1h3l3-1 2-1 2-2 2-1a1 1 0 0 0 0-1h-1l-2-1-2-1h-1 1l1-1v-2 1h1l1 1 1 1h4v-3l-1-2-2-1-1-1h-2l3 1 2-1v-2a3 3 0 0 0-2-1h-1l1-1 1 1h3l1-1 2-1a1 1 0 0 0-1-1h-1s0-1 0 0h3l1-2-2-1-2-1v1l2-1v-2l-1-1v-2l-1-1h3l2-1v-1l-2-1h-1v-2h-3v-1a14 14 0 0 1 0-2l2-1 1-2 1-1h1a2 2 0 0 0 2-1v-1l1-1v-2h-1v1l1-1a7 7 0 0 1 2 0l3-1v-1h2l2-1v-1c1-1-1-1-2-1l-3-1h-4l-3 1h-5l-1 1h-1c0 1 0 2 1 1h1v-1h7l2-1h3l2 1h2-1l-1 1h-1l-1 1-3 1h-1l-2 1 1 1h1l-1 1h-1v1l-2 1-2 1v2h-1l-1 1-1 1v4h3v2h3s0 1 0 0l-1 1-1-1-1 1h-2a1 1 0 0 0 0 1v1h1v2l1 1v1h-1l-1 1c0 2 2 2 3 2l1 1v-1 1h-2l-2 1 1 1-1 1h-3l-1-1-2 1v2h3v1h-4v1l1 2h2l2 1v3h-3v-1h-1v-1h-2c-2 0-1 1-1 1v1h-1l-1 1 1 1 2 1 2 1h1l1-1c-2 0-2 1-3 2l-2 1-2 1h-1l-2 1h-3l-1 1h-1l-1-1h-1l-2 1-1 1v1l-1 1-1 1-1 1-3 2-2 1h-2l-3 1v1h-2v2a1 1 0 0 0 0 1v1l-1 1v1l-2 1a1 1 0 0 0-1 0l1 2v2l-1 1-1 2a2 2 0 0 1-1 1 1 1 0 0 1-1 0h-1l-2-2h-2l-1-1a1 1 0 0 0-1 0v-1l-1-1-1-1-1-1-1-1-1-2v-4h-3v-2l-1-1-1-1v-1h-1v-2l1-1v-1l1-2 1-1 3-1 1-3-2-1h-3v2-1h-1c-1 0-3-1-2-2v-1h6l1-2-3-1-1-1h-4l-1-1 1-1v-3l-1-3-1-1-1-1v-1l-1-1-1-1h-1v-1l-1-1-1-1a1 1 0 0 0 0 1v1l1-1-2-2-3-1h-4l-1 1h-1l-1-1-2 1h-3l-2-1h-2v-1l-1-1h-2 3l3-1 1-1-1-1h-3l-3-1-2-1v-1l3-1 1-1h1l3-1h1l1-1h2l1-1v-3h-2a30 30 0 0 1-1 0v-1h1l3-2 1-1h6v-1a1 1 0 0 0 0-1v-1h7l-1-1 1-1h6l-1 1v1l2 1a1 1 0 0 0 1-1v-1h3-1l1 1h5l-1-2h-1v-1h2l2 1 1 1h1l2 1h3v-1l-1-1-1-1a4 4 0 0 0-1-1v1h2l2 1 1-1-1-1-1-1-1-1v-1 1h7l1 1h4l2-1v-1l-1-1h19l3 1h3l1 1 1 1h1l2 1h2-1l-1 1h-15l-2 1-1 1 2 1h8c0-1 0 0 0 0v1h4l1-1 3-1a9 9 0 0 1 1 1v-1 1h-1l-2 2-1 2 1 1 2-1 1-1h1v-2Zm-80 299v-1h-1v1a1 1 0 0 0 0 1h2a1 1 0 0 0 0-1v-1h-1a1 1 0 0 0 0 1h-1 1v1-1h1v-1a1 1 0 0 0-1 0v-1 2Zm4 22-1 1a1 1 0 0 0 1 1h1l1-1a1 1 0 0 0 1-1v-1a1 1 0 0 0-1 0h-2v1h1-1 2-1v1h-1 1v-1a1 1 0 0 0 0-1 1 1 0 0 0-1 1Zm4-1v1l-1 1v1a1 1 0 0 0 1 0 3 3 0 0 0 1 0c1 0 0 0 0 0h1v-1h1v-1l-1-1h-1a1 1 0 0 0-1 0v1a1 1 0 0 0 1 0v-1 1h1-1c0 1 0 0 0 0v1h-1s1 0 0 0h1v-2h-1Zm44 7h-3a1 1 0 0 0-1 0 1 1 0 0 0 1 1 35 35 0 0 0 2 1h1l1 1v-3h-1 1-1a1 1 0 0 0-1 1 1 1 0 0 0 1 0v1h1v-1c0 1 0 0 0 0h-2l-1-1h-1 1c-1 0-1 0 0 0l-1 1h3a1 1 0 0 0 1-1 1 1 0 0 0-1 0Z"/>
      <path fill="#0D6EFD" fill-opacity=".4" d="m41 87-5-1c-1 0-3 0-3 2v1h-7l-3 1-2-1c1-2-1-3-3-4l-3-1-2-1H9l-3-1-2 1-2-1-2-1a1 1 0 0 0 0 1l-2-1-2-1h-3l-1 1v1h-7l-2 1h-1l-1 1h-7l-2-1-4-1-3-1h-8l-7-2h-3l-5-2-5 1-2 1-3 1h-4l-2 2-2 2-1 1-2 1c-1 0-4 1-2 2l2 1 3 2 2 2h2v1l-3 1-1-2c-2-1-4 1-5 2-1 0-4 1-3 2h1l1 1 2 2 2 1h4l2-1h1v1l-2 2-3 1-2 2c-2 1-3 2-2 4l1 1v2l4 2h1v1l2 1 2 1h5v1l-2 2-5 3-2 2-3 1v3l2-1 3-1 3-2h2l1-2h1l1-1 2-1 1-1 2-1 2-1c1-1 3-2 2-3l-1-1v-1h1l1-1 2-2h1l-2 2c-1 1 0 3 1 3h2l2-1 2-1h1v-3l-1 1h3l3 1 3 2h6l3 2 2 1 2 1 2 1 2 1h1a2 2 0 0 1 1 1l1 2 1 1h2v2l3 4 1 2 1 1s0 1 0 0h1v1c2 0 0 4 2 5l3 2 2 1h1l2 1 1 1H2l-2 1v3l1 2v10l1 3v4l1 2 1 2 2 2v1l2 2 1 1h2l2 1 1 2v3h1l1 1 1 3 2 1 1 2 1 3 3 3 1 2 2 2h4l-1-2-1-1-2-2-1-3-1-2-1-2-1-1-2-3-1-1h2l1 2v1l1 2 2 2 1 1 2 3 1 2 2 2 3 3 2 2v3l2 2 3 2 2 1 3 1 4 2-1-1c1 2 4 2 5 2h5l4 3 2 2 4 1 1 1 2 1 1 2 1 1 3 2 2 1 2 2 3 1h1l1-1h1v-1h2v2l2 2v5c0 2-1 1-2 2l-1 2-2 2v1l-1 1v4l1 1-1-1v1l-1 1v2l1 4 2 1 1 2a9 9 0 0 0 1 3h1c0-1 0 0 0 0v4l3 3v3h1l2 2h2l2 2 2 2 2 1 1 1v6l-1 2v6l1 3-1 2v2l-2 2v10l-2 2-1 2v10a1 1 0 0 0 0 1v-1c-1 2 0 3 1 4l-1 3-1 3v3l-1 2 1 3-1 1v2l1 1-1 1 1 2v2l3 2 2 1 2-1h-1c1 1 0 1-1 2v3l2 1h9l2-1a1 1 0 0 0 0-1l-2-1h-1l-1-2-2-1h-1l1-1-1-2v-2l2-2 1-3 4-2v-1l1-1v-1l-3-1-2-2 2-1 2-1v-2l1-1 1-2v-1l-2-1c0-2 3-1 4-1l2-1v-4h4l3-1 2-1 1-2v-2l-1-3-2-1h2l2 1 3-1 3-1 2-3 1-1v-2l3-3 1-1 1-2 2-3v-3l1-1 2-2 5-2h4l2-3 1-2 1-1v-2l2-3v-5l1-2 1-3 1-1 2-3 2-4 1-1v-2l-1-4-3-2-3-2-5-1 1 1v-1l-2-1h-1c-1 0-3 0-4-2l-5-2c-1-1-4 0-4-2l-1-3-1-1-1-1v-1l-2-2-2-1-3-2c-2 0-5 1-7-2l-4-4-7-2-7-1v1-1l-6-1-3-1-2-1-4 2-3 1-1 2-1 1h-7l-4-1-2-2v-2l1-2 2-3c0-2-1-3-2-3h-7l-3-2v-2l2-2v-2l1-1c1-1 0-2-1-2h-3l-2 1-2 1-1 2c-1 3-5 2-7 1l-2-1-2-1v-2l-1-6v-2l1-1v-3l1-2 2-2 4-1h8l3-1h2v1h3l3 1v4l2 4 3 2c2 0 2-1 3-2v-7l-2-2-2-2 2-3 1-2 1-1 2-1 2-1 2-2 2-3-1-2c-1-1 0-2 1-3l2-2c0-1 0-3 2-3l2-1 2-1 2-2c0-1-1-2 1-3l3-1c1-1 3-2 4-1l-1 2 1 1 2-1 3-1v-1l-1 1v1l4-2v-1h1l2-2c1 0 2 0 1-2a2 2 0 0 0-1 0h-4l-2-1-2-1 1-1 1-1c1-2-2-2-3-2h-8l1 1 1-2 3-2 5 1h5l4-1 4-3 3-1c1-2 1-5-1-5l-1-2-1-1-4-1-2-2v-5l-3-3-1-3c-1-1-4-2-5-1v1l-2 3h-3l-2-1-1-2v-2c0-2 0-2-2-3l-2-1-1-1-4-1h-8v2l-1 3v1l1 1-1 2-2 3 3 2c2 1 2 3 2 4-1 2-2 3-4 3l-2 2v3l1 1 1 3c-1 1-2 0-3-1l-2-1v-4l-1-3-4-1h-4l-1-1-3-1-3-2-4-1h-1l-1-1 1-1-1-2c-1-1-3-1-3-3v-2l2-2 2-3 3-2 2-3h2l1-1 2-3 1-1c0-1-1-3 1-3l3 1c1 1 3 0 4-1l2-2v-3l1-2 1-1-3-2-4-1h-4v3l1 2a3 3 0 0 1-2 2h-2v-2c0-2-1-2-2-3h-3l-2-1-1-2-1-4-1-1-1-2v-2l2-1 3-2c1-3-3-3-5-3l-4 1-2 2 1 3v2l-1 3-1 2 2 3c2 1 3 1 3 3l-2 1v-2c-1-2-5-2-7-2a1 1 0 0 0 0 1l-1 1v1a1 1 0 0 0 0 1h1l1 1-1 1h-1l-6-1-5-1v1l6 2h7l1-3-1-1h-1l1-2 4 1a2 2 0 0 1 1 1v2h3l1-3-2-2-3-3c0-2 2-2 2-3v-4l-1-2 1-2h8l-3 2-2 1v5l1 1 2 2-1 2 2 2 2 3h4l1 3 1 1c2 1 4 0 5-3l-1-3 1-1h3l2 1h2v2l-1 1v1l-2 4-1 1h-3c-1-1-4-1-4 1v2l-1 1-1 2-3 1-2 1-1 2-2 1-2 2v1l-2 2-1 2 1 4 2 1 1 2-1 1 1 2 3 1c2 0 4 0 5 2l4 2h7c3 1 2 3 2 5v3l3 2h3l1-2-1-4-1-1 2-2 3-1c1-2 2-5 0-6l-1-2-2-1c-1-1 1-2 2-3v-3l-1-1 1-2v-2h9l4 3h1l1 2v2l2 3c1 1 4 2 6 1l2-3 1-1 2 1 1 1v2l2 2 1 2v5l4 1 3 1v2c1 1 2 0 2 2s-2 3-3 3l-4 3h-14l-2 1-1 2-1 1a1 1 0 0 0 0 1l3 1 3-1h3l1 1h-1l-1 3 4 2 2 1 2-1a1 1 0 0 0 1 0h-1l-1 1-1 1-1 1a3 3 0 0 1-3 2l1 1 1-1-1-1-2 1-2 1h-1l1-1c0-2 0-3-2-3l-6 3c-1 1-3 1-2 3 0 2-2 3-3 3l-2 1h-1a3 3 0 0 0-2 1v3l-2 2-1 3v1l1 2-2 1-1 1-2 2h-1l-2 2h-1l-1 2-2 4c0 2 2 3 3 4l1 4-1 1 1 1a1 1 0 0 1-1 1v1l-1-1-2-1-1-2-1-3c0-2 0-3-2-4h-4l-1-1h-5l-1 1h-5l-6 1c-2 0-3 1-4 3v4l-1 1v2l1 3v4l2 4 5 2 6-1 1-2a4 4 0 0 1 2-3h4v1l-1 1-1 3-2 2 1 2 1 1 6 1h3c2 0 2 2 1 3l-1 2-1 2a2 2 0 0 0 0 2l2 3 5 1h7c1 1 2 0 2-2l3-1 2-2h3l2 1h4l3 1v-1 1a1 1 0 0 0 1 0l5 1h4l3 2 3 2 2 2c2 2 4 2 6 2l3 1 2 1 1 1 2 1v1l1 2h1v2l1 2 4 2 3 1 2 1 1 1 3 1 4 1v-1h-1v1l5 1 2 2 1 1h2l1 5-2 4-2 3-3 3-1 4v5l-2 4-1 2-1 2-1 2-1 1h-2l-4 1-3 2-1 1h-1l-1 4-1 2-1 2-2 2-1 1c0 1-2 1-2 3v1l-1 2-2 3-4 1-4-1h-2v2l3 2v3l-3 3h-6l-1 1-1 3-4 1-1 2 1 1h1l-1 1v2l-1 2-1 1-3 1 1 3 1 1 3 1v-1l-1 1v1l-1 1-3 2-1 1-1 2-1 3v4l2 1 1 1v1h1l2 1 1 1v-1h-1l-3 1h-2l-4-1-1-1 1-1 1-3h-1l-2 1-3-1-1-2v-5l-1-1 1-2v-7l1-3 1-4-1-4 1-2-1-2v-5l1-2 1-2 1-4 1-4-1-2 1-1 1-2 1-3-1-3v-4l1-3v-1l1-3v-3l-1-2-3-2-2-1-1-2-4-2-2-1v-2l-3-3v-4l-1-1-1-1-1-3-1-1-1-1-1-2v-1l1-2v-2c1 0 0-1 0 0h-1a1 1 0 0 0 0 1 1 1 0 0 0 1 0 1 1 0 0 0 0-1v-3l1-1v-1l2-3 1-1 2-1v-3l1-5-3-2v-1l-1-1a2 2 0 0 0-2 0l-1 1h-1v1h-1l-4-3-4-2-2-2v-1l-3-2-4-2h-2l-2-2-4-3-4-1h-4a1 1 0 0 0-1 0l-4-2-2-1-2-1-4-2-1-1 1-2-1-2-1-1-1-1-5-5-1-2-2-3-3-3-1-1v-2l-2-2h-3v2l1 1 1 2 2 2 2 4 2 3 1 2 2 2v-1l-3-1-2-1v-1l-1-3-1-1-2-1v-3l-3-2-1-3h-1l-1-1-1 1h1c1-3 0-5-1-6l-3-1-2-1-2-2-1-1-1-1-1-4-1-2v-5l-1-4v-2l1-2v-3l-2-2v-2h2l1-1c1-1-1-2-2-3h-3l-1-1-2-1c-1-1-2 0-2-2v-3l-2-2a1 1 0 0 0-1 1h1a1 1 0 0 0 0-1l-2-2-1-2-1-2-1-1v-1l-2-1-1-2-2-2h-2l-1-1-2-1-2-1-2-1h-1l-1-2-6-1h-3l-2-1-2-1-4-1a1 1 0 0 0 0 1v2l-4 1-2 1c-2-1 2-2 2-3 1 0 1-2-1-2l-2 1-2 1-1 1-1 1v1l1 2-2 1-3 1-1 1-2 1-2 2-2 2h-1l-1 1-2 1-3 1-1 1v-1c-1 0-1 0 0 0l3-1 2-2 5-3 1-1 1-2c1-2 0-2-2-3l-3 1-2-1-1-1-1-1h-2l-2-1-1-2h1l-2-2c-1-1 1-2 2-3h1l2-1 3-1 1-2v-2l-3-1-2 1h-2l-3-1-1-1-1-2c-1 0-1 1 0 0h1l4-2 1 2c1 1 3 0 4-1 1 0 2-1 1-2l-2-1-4-3-2-1-1-1h1l2-1 2-2c1-1 1-2 3-2l4-1 5-2 2-1 5 1 6 1 7 2h8l3 1 4 1 2 1a21 21 0 0 0 6 1l2-1h1v-1l1-1h9v-3 1l4 1 2 2 2-2H0l2 2h10l3 2h3l1 1 1 1v2h9l3 1 2-1v-2l1-1h2l3 1c1 1 1 0 1-1Z"/>
      <path fill="#0D6EFD" fill-opacity=".4" d="M89 201h-1a22 22 0 0 1-2 0l-1-1h-2l-1 1h-2l-1 1a1 1 0 0 0 0 1h6l1 1h1l1 1h2l1 1h1v1-1 1l1 1h6a1 1 0 0 0 1-1 1 1 0 0 0 0-1l-1-1h-2l-3-1v-1h-1l-1-1a6 6 0 0 0-2 0h-1 1a1 1 0 0 0-1-1 1 1 0 0 0 0 1 1 1 0 0 0 0 1h1a6 6 0 0 1 1 0l1 1h1l1 1 2 1h2l1 1s0-1 0 0v-1c0 1 0 0 0 0v1h-1l-1-1h-2a6 6 0 0 1-2 0c0 1 0 0 0 0a1 1 0 0 0 0-1h-1l-2-1h-1l-2-1h-1l-1-1h-5c1 0 0 0 0 0v1-1s1 0 0 0h2l1-1h2l1 1a32 32 0 0 0 3 1v-2Zm18 7v-1h-5l-1 1v1l-1 1h-1a1 1 0 0 0 0 1l2 1h2l2 1v-1a2 2 0 0 0 1 0h1v-1h4v-1l-1-1h-1l-1-1h-1l-1-1a1 1 0 0 0 0 1h1v1h1l1 1h1-1 1-4l-1 1h-1v1-1h-4a2 2 0 0 1 0-1v1h1l2-2-1-1h5v-1 1Zm10 3v-1h-4a1 1 0 0 0-1 1v1h5a2 2 0 0 0 0-1 1 1 0 0 0-1-1 1 1 0 0 0 0 1h-3v1-1h1c-1 0 0 0 0 0h1c-1 0 0 0 0 0a5 5 0 0 0 2 0 1 1 0 0 0 0-1 1 1 0 0 0-1 1 1 1 0 0 0 1 0Zm-26 0h2l1 1v-1h-3c1 0 1 0 0 0h1a1 1 0 0 0-1 0h-1l2 1 1 1h1l1-1a1 1 0 0 0 0-1l-1-1h-3v1Zm46-69a1 1 0 0 0 0 1h1v1l1 1v1h1c1 0 0 0 0 0v1h-6l-1-1s-1 0 0 0h-2l-1-1h-1l1-1v-1l1-1h1l1-1v-1l1-1 1-1h1l-1 1-1 1 1 2h3v-1h-3v-1h1v-1l1-1v-1h-2l-1 1-1 1-1 1v1h-1l-1 1-1 1-1 1v2h1v1h3l1 1h5l1 1 1-1 1-2a1 1 0 0 0 0-1h-1v-1l-2-2h-1 1-1Zm-13 0-1-1h-4l1 2h1l1 1h2a1 1 0 0 0 1-1l-1-1h-1c1 0 0 0 0 0v1h1c0 1 0 0 0 0h-2l-1-1h-1c1 0 1 0 0 0h1l1 1h2a1 1 0 0 0 0-1Zm-36-40-1-1-2-1-1-1a6 6 0 0 1-2 0v-1h-2l-1-1h-1l-2-1a2 2 0 0 0-1 2v3l-1 1 1 1h2v1c0-1 0 0 0 0 0-1 0-1 0 0h1l2 1 1-1v-1h2l3 1h2a1 1 0 0 0 0-1v-2h-1a1 1 0 0 0-1 0 1 1 0 0 0 1 1 5 5 0 0 1 0 1h-1l-3-1h-2a1 1 0 0 0-1 1l-1 1c1 0 0 0 0 0v-1h-1l-1-1h-2s0 1 0 0c0 0 0 1 0 0a2 2 0 0 1 1 0v-3c-1 0-1 0 0 0v-1h1a4 4 0 0 1 1 0h1l1 1 1 1h2l1 1h1l1 1h1c-1 0 0 0 0 0h1Z"/>
      <path fill="#0D6EFD" fill-opacity=".4" d="M85 105h-1a1 1 0 0 0 0-1h-2l-1 1-1 1v2h2l2-1v-2h-2a1 1 0 0 0 1 1 1 1 0 0 0 1-1h-1v-1 1h-1l1 1v1h-1c1 0 1 0 0 0h-1v-1h1v-1h2-1a1 1 0 0 0 1 0c1 0 1 0 0 0h1Zm3 1h-1l-1 2a1 1 0 0 0 1 1l2-1v-2a1 1 0 0 0-1-1v2a5 5 0 0 0 0 1h-1a4 4 0 0 1 0-1h2v-1a1 1 0 0 0-1 0Zm15-29h1l2 1h1v1h1l1 1h1l1 1 1 1 1 1s0-1 0 0v1h-1l-1 1a1 1 0 0 0 0 1v1l1 1h2l2 1 2 1 1 1h3a7 7 0 0 1 1 1v2l-1 1v1a1 1 0 0 1-1 0l-1 1v1h-1l-1-1h-1v-1h-1l-1-2h-3l-1 1v2l2 1 1 1 1 1 2 1v1a10 10 0 0 1 0 2v1h-2l-3-2h-3a2 2 0 0 0 1 2l1 1h2l1 1h1-7l-1-1-1-1-1-1h-1v-1l-1-1h-1l-1-2h-5l-1 1-2-1h-1v-1h1l1-1h7v-2l-1-1 1-1 2-1v-2l-1-2v-1a1 1 0 0 0-1-1h-1l-1-1h-1v-1h-3v-1l-1-1-1-1-1-1h-3v2-1h-5l-1-1h-8l-2-1h-2v-1h-1l1 1 2-1v-2h-2l-1-1h-1s0 1 0 0a4 4 0 0 0 0-1v-2l2-1v-1a1 1 0 0 1 0-1h1l1-1h3l-1 1-1 1v2l1 1v1l1 1 1 1h1l2-1-1-2-1-1v-2h1l1-1h1l1-1h2l1 1v1l1 1-1 1a1 1 0 0 0 0 1h1l2 1h2l1-1h8v1l2 1 2 1a1 1 0 0 0 0-1l-1-1h-1v-1h-2l-1-1-1-1h-3l-2 1h-1l-2 1h-1a4 4 0 0 1-2-1s0 1 0 0h1v-1l-1-2-1-1-1-1h-2l-1 1h-2l-1 1-1 1v3l1 1h1a1 1 0 0 1-1 1l-1-1h-1v-2h-1v-2l1-1c1 0 2-1 1-2h-5v1h-2v2l-1 1a3 3 0 0 0-1 1v4l2 1h2s0 1 0 0h-2l-1 1 1 1 1 1 2 1h9l3 1 2 1 1-1h2v-2h-1 1l2 1 1 1v1h1v1l1 1h2l1 1 1 1h2a1 1 0 0 0 0 2l1 1v1l-1 1-1 1h-1v2h1v1h-4l-3 1h-1l-1 1v2l1 1h4l1-1a19 19 0 0 1 3 0l1 1 1 1 1 1a11 11 0 0 0 1 1l1 1 1 1h1l2 1h6l1-1a2 2 0 0 0-1-1l-1-1h-2l-1-1s-1 0 0 0h1l3 2h2a1 1 0 0 0 1-1l1-2-1-2v-1l-1-1-2-1-1-1-1-1h-1v-1h3v1l1 1 1 1 2 1 2-1v-1h2v-2s1 0 0 0h1v-3a2 2 0 0 0-1-1l-1-1h-1l-2-1-1-1h-2l-1-1h-2v-1h-1v-1h2a1 1 0 0 0 0-1v-2h-1v-2h-2l-1-1h-1v-1s-1 0 0 0c0 1 0 1 0 0h-1v-1a6 6 0 0 0-1 0h-1l-1-1h-2v1Z"/>
      <path fill="#0D6EFD" fill-opacity=".4" d="M96 88h-4l-1 2v1a1 1 0 0 0 1 1h4l1-1v-2h-1a1 1 0 0 0-1-1 1 1 0 0 0 0 1l1 1a1 1 0 0 0 0-1h-1v1h1l-1 1h-3l1-1v-1h3v-1Zm-3-20h-4a4 4 0 0 1-1 0h-1c1 0 0 0 0 0a1 1 0 0 0-1 1l1 1 1 1 1 1h5l1-1v-1l-1-1-1-1h-1 1-2a1 1 0 0 0 1 1h1l1 1v1h-5v-1l-1-1h-1 1-1v-1 1h5v-1h1Zm-15-6h1l2-1h2l3 1h1a1 1 0 0 1 0 1c0-1 0 0 0 0l-1 1h1-1c1 0 0 0 0 0h-6l-2 1h-6v-1h-7l-1-1v-4h-1l-2-1h-3l-1-1-1-1h4l1 1h1l1 1h4l2 1h-1l1 1a8 8 0 0 0 2 1l2 1h4c1 0 0 0 0 0h1l-1-1h-3a4 4 0 0 0-1 0l-2-1-1-1h-1v1h1v-1a1 1 0 0 0 0-1h-2l-1-1-1-1h-5l-1-1h-4l-1 1 1 2a4 4 0 0 0 3 1h2a5 5 0 0 1 1 1h1v4l2 1h6a1 1 0 0 0 1 1h13l1-1h1a1 1 0 0 0 1-1c0-1 0 0 0 0h-1 1a1 1 0 0 0 0-2l-1-1-2-1h-5l-1 1h-1v1Z"/>
      <path fill="#0D6EFD" fill-opacity=".4" d="M78 59h6l1-1v1a1 1 0 0 0 1 0h1l2-1h2l1-1v-1l-1-1a9 9 0 0 0-1-1v1l2-1 1-1c0-1 0 0 0 0l2-1 2-1 1-1v-2h-1a1 1 0 0 0 0-1v-1h-1v1h1a92 92 0 0 0 3-2h1v-1h2a9 9 0 0 0 2 0h2v-1h2l2-2 1-2h1l1-1h2l2-1v-1l-1-1h-1v1l2-1 3-1h2l2-2h-1l-1-1h-3l-2-1-1-1h-6l-3-1a26 26 0 0 0-2 0H95l-3 1h-4l-1 1h-2l-1 1h-1v1h-2l-2-1h-3l-2 1-1 1a6 6 0 0 1-2 0h-1v1h-4a1 1 0 0 0 0 1v1h1v1h2s0 1 0 0v1a1 1 0 0 0 0 1h1l1 1h3l1 1h11a12 12 0 0 0 1-1h2-2l-3 1h-1l-1 1a1 1 0 0 0 0 1h1v1-1h-2l-1-1h-5a1 1 0 0 0 0 1s1 1 0 0l1 1 2 1 1 1v1h-1v1h-1a8 8 0 0 0-3 2 1 1 0 0 0 0 1h1l1 1h1v1h1-1l-1-1h-4v3h-2l-1 1a1 1 0 0 0 0 1l2 1h1a55 55 0 0 0 3 1h3a1 1 0 0 0 1-1 1 1 0 0 0-1 0h-3l-1-1h-3l-1-1v1-1h3a1 1 0 0 0 0-1v-2h1l2 1h2l1-2a3 3 0 0 0-3-1l-1-1 2-1h1l1-1 1-1v-2h-1v-1h-2v-1h-1v-1 1c0-1 0 0 0 0h1a6 6 0 0 0 2 0l1 1h2l1 1 1-1v-2h-1 3a12 12 0 0 1 3-1l1-1a1 1 0 0 0-1-1h-4l-1 1h-7l-1-1h-5v-1h-1v-1l-1-1h-1l-1-1c-1 1 0 0 0 0s-1 0 0 0h4v-1h3l1-1h1l1-1h2l1 1h4v-1l1-1h3l2-1h5l3-1h10l1 1h8l3 2h3v1h1v-1l-1 1h-2l-2 1-3 1h-1v1l1 1h1s1 0 0 0v-1l-1 1h-4v1l-1 1-2 1-1 1-1 1-1 1h-5l-1 1-1 1h-2l-2 1a1 1 0 0 0 0 1h1a1 1 0 0 0 0 1l1 1v1l-2 1-2 1a1 1 0 0 0-1 0v1h-1l-1 1h-1c-1 1 0 1 1 2a6 6 0 0 1 1 1 25 25 0 0 1-4 1h-1l-1-1h-1v1h-6v1Z"/>
      <path fill="#0D6EFD" fill-opacity=".4" d="M65 38a5 5 0 0 0-1 0l-2-1h-2v2s-1 0 0 0v-1h-1v1h-1v1l-1 1v1h-1v1a1 1 0 0 0 0 1h1l1 1 1 1h4v1-1 1h-3v1a1 1 0 0 0 1 2h1l2 1h7a8 8 0 0 0 1-1l1-1v-1h2l3-2a1 1 0 0 0-1-1l-1-1h-3v-1a2 2 0 0 0 0-2h-4l-1-1-2-1h-1a1 1 0 0 0-1 0 1 1 0 0 0 0 1h2v1h2l1 1h3v1l1 2h2l1 1h1-2l-1 1-2 1v1h-1a5 5 0 0 1-3 1h-4l-1-1a8 8 0 0 1-2 0c0-1 0 0 0 0 0-1 0 0 0 0s0-1 0 0v-1c0 1 0 0 0 0h1a13 13 0 0 0 1 0l1-1c1-1 0-2-1-2h-3l-1-1h-1v-1h-1l1-1h-1 1l1-1v-1h1a1 1 0 0 0 1-1 3 3 0 0 0 0-1h2l1 1h1a1 1 0 0 0 1 0 1 1 0 0 0-1-1Zm-8 11a1 1 0 0 0 1 0l-1-1h-3l-1-1a1 1 0 0 0-1 1l1 1v2l1 1h1v1a21 21 0 0 1 3 1h2l1-2-1-1s0 1 0 0a6 6 0 0 0-1 0h-1a1 1 0 0 0 0-1 5 5 0 0 0-1-1h-1v1h1s-1 0 0 0v1c0-1 0 0 0 0l2 1v1h1-2l-1-1h-1l-1-1h-1v-2c0 1 0 0 0 0v-1l-1 1h4-1l1-1a1 1 0 0 0-1 1h1Zm-6-6a1 1 0 0 0 1-1 1 1 0 0 0-1 0h-2a1 1 0 0 0-1 2 1 1 0 0 0 1 0h1l1 1h1l1-1-1-1h-1v-1a1 1 0 0 0-1 0 1 1 0 0 0 0 1l1 1a4 4 0 0 1 1 0c-1 0 0 0 0 0h-1l-1-1c-1 0 0 0 0 0-1 0 0 0 0 0-1 0 0 0 0 0h-1s1 0 0 0h1c-1 0 0 0 0 0h1a1 1 0 0 0 1-1 1 1 0 0 0-1 0 1 1 0 0 0-1 0 1 1 0 0 0 1 1Zm-5 3h-3l-1-1h-4a1 1 0 0 0-1 1l1 1 1 1h1v2l1 1h4l1 1h2l2 1h1a1 1 0 0 0 1-1l-1-1-2-1v-2l-2-1h-1v-1h-1v1h1v1h1v1l1 1 1 1 1 1h1c-1 0 0-1 0 0l-1-1h-2c-1 0 0 0 0 0h-1l-1-1h-1a6 6 0 0 0-2 0h-2v-1s0 1 0 0v1-2l-1-1-2-1h3l1 1a10 10 0 0 1 2 0h2v-1Zm-7 7h-3v1l1 1h1l1 1h2v-2h-2v1c1 0 0 0 0 0h1s1 0 0 0h1-1l-1-1h-2v-1 1a4 4 0 0 1 1 0l1 1v-2Zm11 4h-1a11 11 0 0 1-2 0 1 1 0 0 0-1 0 1 1 0 0 0 0 1v1-1h-2l-1-1a41 41 0 0 0-2 0h-1a1 1 0 0 0-1 1 1 1 0 0 0 1 1l1 1h1l1 1a5 5 0 0 0 2 1h1l1 1a1 1 0 0 0 1 1h3l2-1h1v-1l-1-2v-1l-1-1h-1l-1-1h-1v2h3v1h1v1a6 6 0 0 0 0 2s0-1 0 0c-1 0 0 0 0 0h-4l-1-1-1-1h-2l-1-1-1-1h-2v-1h-1 3l1 1h2l1-1h3v-1Zm10 4-2-1h-1l-1 1-1 1a1 1 0 0 0 0 1h1l1 1 1 1h2a1 1 0 0 0 1 1 1 1 0 0 0 1-1v-2l-1-1-2-1h-1a1 1 0 0 0-1 0 1 1 0 0 0 1 1h2v1h1v1c0 1 0 0 0 0v1l-1-1h-1l-1-1-1-1h-1a1 1 0 0 1 1-1h2-1l1 1a1 1 0 0 0 1-1Zm-8 7v-1h-2v1h-3v2l1 1c0-1 0 0 0 0h-1l-1-1h-2a1 1 0 0 0-1 1 1 1 0 0 0 0 1l1 1h1a5 5 0 0 1 2 1l1 1 1 1h1v1h3l1-1 1-1v-3l-1-1h-1 1v-4h-1l-1-1a1 1 0 0 0-1 1h1v1h1v2h-1v1a1 1 0 0 0 0 1h2v3h-1v1s-1 0 0 0h-2l-1-1-2-1-1-1-1-1-2-1h1l1 1h2l1-2a2 2 0 0 0-1-1l3-1h2v-1a1 1 0 0 0-1 0 1 1 0 0 0 0 1Zm-17-9h-2 1-1c1 0 1 0 0 0v-1l-1-1h-3a1 1 0 0 0-1 1 1 1 0 0 0 1 1h1v1h1a1 1 0 0 1 0 1v-1h-4v-1l-2-1h-3l-1-1h-3l-2 2v1l-1 1v1l1 1h1l1 1h6v-1h-1v1h-1l-1 1 1 1h3l2 1 1-1h1l1-1h1l1-1h4a2 2 0 0 0 1-1v-2l1-1-1-1h-4v1h1v-1h-1v1h4-1v3h-5l-1 1h-1l-1 1h-6c0-1 0-1 0 0 0-1 0 0 0 0h2l1-1-1-1h-4l-1-1h-3v-1l1-1v-1a1 1 0 0 1 1-1h2l2 1h1a5 5 0 0 1 2 0l1 1 1 2h3l1-1a1 1 0 0 0 1 0 2 2 0 0 0 0-1l-1-1-1-1s-1 0 0 0c0 0-1 0 0 0-1 0 0 0 0 0 0-1 0 0 0 0v-1l1 1h1v1l1 1h2v-1Zm6 3a1 1 0 0 0-1 0h-1v2h2a1 1 0 0 0 1 0 1 1 0 0 0-1-2h-1a1 1 0 0 0-1 0 1 1 0 0 0 0 1h2v1c0-1 0 0 0 0v-1h-1s-1 0 0 0h-1 1a1 1 0 0 0 1-1ZM28 50c0 1 0 0 0 0h-4v1h-1l-1 1 1 2h7a1 1 0 0 0 1-1v-1l-1-1h-3a1 1 0 0 0 0 1v-1l1 1h-1 2l1 1h-4a4 4 0 0 1-2 0 2 2 0 0 1-1-1h1l1-1h2l1 1v-1a1 1 0 0 0 0-1Z"/>
      <path fill="#0D6EFD" fill-opacity=".4" d="M30 48h-4a1 1 0 0 0 0 1l2 1h-1 1l1 1h2v-1l-1-1a1 1 0 0 0 0 1s1 0 0 0l-2-1h-1 3v-1Zm-15 5h-2l-1 1h-1l-1 1H9l-1 1H7v1H5l-1 2 1 1h3l1 1h2v-1l1-1v-1h1l1 1a1 1 0 0 0 1 0h1l1-1v-1c0 1 0 0 0 0a1 1 0 0 0 1 0v-2h-1v1h1v-1a1 1 0 0 0 0-1 8 8 0 0 0-2-1h-2v2h3v-1 1h-1a1 1 0 0 0 0 1h1s0 1 0 0l-1 1h-1 1c-1 0 0 0 0 0h-1a3 3 0 0 1 0 1h-1s1 0 0 0v-1a1 1 0 0 0-1 0h-2v1a5 5 0 0 0 0 1l-1 1H9c1 0 0 0 0 0v-1H6l-1-1h3a1 1 0 0 0 0-1l1-1h1a10 10 0 0 0 2-1h2v-1h1v-1ZM9 66a1 1 0 0 0-1-1H1l-1 1a1 1 0 0 0 1 1l1 1c0 1 0 0 0 0v2H1l-1 1v1l-1 1a1 1 0 0 0-1 2h2l1 1a3 3 0 0 1 1 0v1h1l1 1h1a1 1 0 0 0 1 0s1 0 0 0h2l1-1a1 1 0 0 0 0-1v-1h1l1-1v-1h1a12 12 0 0 0 2-2h1l3-1 1-1-1-1-1-1h-2v-1H9v-1H8a1 1 0 0 0-1 1 1 1 0 0 0 1 0l1 1h5l1 1h1l2 1-1 1h-3l-2 1-1 1h-1v1c0 1 0 0 0 0v1c0-1 0-1 0 0 0 0-1 0 0 0H9h1-1l-1 1v1H7l-1 1H4a6 6 0 0 0-1-1v-1H2l-2-1c-1 0 0 0 0 0h-1 1v-1h1v-1l1-1 1-1v-2l-1-1-1-1s0 1 0 0v1c0-1 0 0 0 0l1-1h5l1 1v-1a1 1 0 0 0 0 1 1 1 0 0 0 1-1Z"/>
      <path fill="#0D6EFD" fill-opacity=".4" d="M41 79h1-1c1 0 0 0 0 0v-1a12 12 0 0 1-1 0h-1c1 0 0 0 0 0v-1h1v-1l-1-1v-1h-1a3 3 0 0 1 0-1h1v-3l-1-1h-4v1h-1l-1 1a1 1 0 0 0 1 1v1h1-1l1 1h-1l-1-1v-1h-1l-1-1h-2a4 4 0 0 0 0 1h-1s0-1 0 0v-1h-5s0 1 0 0c0 1 0 0 0 0l-1-1a7 7 0 0 0-2 0h-1l-2 1-2 1h-1l-1 1v1l-1 1a1 1 0 0 0 0 1l1 1 3 1v-1l-2 1c-1 1 1 2 1 2h2l1 1h6v-1h-4l-1 1h-2a1 1 0 0 0-1 1 1 1 0 0 0 1 1h1l1 1h1l1 1h2v1l2 1 1 1h5l1-1 2-1h1l1-1h3l1 1a17 17 0 0 0 3 0h4v-2h-2 1c-1 0 0 0 0 0h2a2 2 0 0 0 1-2l-1-1-1-1h-2v-1h-3a1 1 0 0 0-1 0 1 1 0 0 0 1 1h2v1h2l2 1c0 1 0 0 0 0 0 1 0 0 0 0v1h-2l-2 1a1 1 0 0 0 1 1h1-4l-3-1a3 3 0 0 0-2 0h-1l-1 1h-1l-3 1-1 1h-4a5 5 0 0 1-1-1h-1v-1l-2-1-1-1h-1l-1-1h-2 4l2-1h1a1 1 0 0 0 1-1h-2l-2-1h-6a2 2 0 0 1 0-1s0 1 0 0v1h1l1-1v-1l-1-1h-3v-1h1v-2h2l2-1 1-1h3v1l1 1 1-1h1-1 3v1h1l1-1h2l1 1a7 7 0 0 0 2 2l2-1v-1h-1v-2h-1 2a1 1 0 0 0 0-1h3v1s0 1 0 0v1l-1 2 1 1 1 1-1 1 1 2h1l2 1a1 1 0 0 0 0-1 1 1 0 0 0-1 0Z"/>
    </g>
  </g>
  <g filter="url(#e)">
    <path fill="#0D6EFD" fill-opacity=".3" d="M129 257a2 2 0 1 0 3 0 2 2 0 0 0-3 0Zm150-115a2 2 0 1 0 4 0 2 2 0 0 0-4 0ZM131 257c-2-39 22-85 53-113 16-14 34-23 50-24 17-2 33 5 47 22-13-18-30-24-47-23s-34 11-50 25c-31 28-56 74-54 113h1Z"/>
    <path fill="url(#f)" fill-opacity=".9" d="M129 257a2 2 0 1 0 3 0 2 2 0 0 0-3 0Zm150-115a2 2 0 1 0 4 0 2 2 0 0 0-4 0ZM131 257c-2-39 22-85 53-113 16-14 34-23 50-24 17-2 33 5 47 22-13-18-30-24-47-23s-34 11-50 25c-31 28-56 74-54 113h1Z"/>
  </g>
  <g filter="url(#g)">
    <path fill="#0D6EFD" fill-opacity=".3" d="M121 314a2 2 0 1 1-3 0 2 2 0 0 1 3 0ZM45 184a2 2 0 1 1-3 0 2 2 0 0 1 3 0Zm74 130c2-39-9-88-25-119-3-8-7-14-12-19-4-5-8-9-13-10-4-2-8-1-13 2-4 2-8 8-12 16h-1c4-8 9-14 13-17s9-4 14-2l13 10 12 20c15 31 26 80 24 119Z"/>
  </g>
  <g filter="url(#h)">
    <path fill="#0D6EFD" fill-opacity=".3" d="M17 130a2 2 0 1 0 3 0 2 2 0 0 0-3 0Zm238 75a2 2 0 1 0 3 0 2 2 0 0 0-3 0ZM19 131c34-42 89-38 137-16 25 11 47 26 65 42s31 33 35 48h1c-5-15-18-32-36-49-17-16-40-31-64-42-49-21-104-25-138 16v1Z"/>
  </g>
  <g filter="url(#i)">
    <path fill="url(#j)" fill-opacity=".3" d="M159 77a2 2 0 1 0 3 0 2 2 0 0 0-3 0Zm195 66a2 2 0 1 0 3 0 2 2 0 0 0-3 0ZM161 77c20-18 40-24 60-23s40 10 58 21c17 12 34 26 47 39l17 17 12 12v-1l-11-11-18-18c-13-12-29-27-47-38-18-12-38-21-58-22s-41 5-61 24h1Z"/>
  </g>
  <g filter="url(#k)">
    <path fill="#0D6EFD" fill-opacity=".3" d="M129 257a2 2 0 1 0 3 0 2 2 0 0 0-3 0Zm150-115a2 2 0 1 0 4 0 2 2 0 0 0-4 0ZM131 257c-2-39 22-85 53-113 16-14 34-23 50-24 17-2 33 5 47 22-13-18-30-24-47-23s-34 11-50 25c-31 28-56 74-54 113h1Z"/>
    <path fill="url(#l)" fill-opacity=".9" d="M129 257a2 2 0 1 0 3 0 2 2 0 0 0-3 0Zm150-115a2 2 0 1 0 4 0 2 2 0 0 0-4 0ZM131 257c-2-39 22-85 53-113 16-14 34-23 50-24 17-2 33 5 47 22-13-18-30-24-47-23s-34 11-50 25c-31 28-56 74-54 113h1Z"/>
  </g>
  <g filter="url(#m)">
    <path fill="#0D6EFD" fill-opacity=".3" d="M121 314a2 2 0 1 1-3 0 2 2 0 0 1 3 0ZM45 184a2 2 0 1 1-3 0 2 2 0 0 1 3 0Zm74 130c2-39-9-88-25-119-3-8-7-14-12-19-4-5-8-9-13-10-4-2-8-1-13 2-4 2-8 8-12 16h-1c4-8 9-14 13-17s9-4 14-2l13 10 12 20c15 31 26 80 24 119Z"/>
  </g>
  <g filter="url(#n)">
    <path fill="#0D6EFD" fill-opacity=".3" d="M17 130a2 2 0 1 0 3 0 2 2 0 0 0-3 0Zm238 75a2 2 0 1 0 3 0 2 2 0 0 0-3 0ZM19 131c34-42 89-38 137-16 25 11 47 26 65 42s31 33 35 48h1c-5-15-18-32-36-49-17-16-40-31-64-42-49-21-104-25-138 16v1Z"/>
  </g>
  <g filter="url(#o)">
    <path fill="url(#p)" fill-opacity=".3" d="M159 77a2 2 0 1 0 3 0 2 2 0 0 0-3 0Zm195 66a2 2 0 1 0 3 0 2 2 0 0 0-3 0ZM161 77c20-18 40-24 60-23s40 10 58 21c17 12 34 26 47 39l17 17 12 12v-1l-11-11-18-18c-13-12-29-27-47-38-18-12-38-21-58-22s-41 5-61 24h1Z"/>
  </g>
  <defs>
    <filter id="c" width="464.4" height="378.2" x="-102.3" y="67.7" color-interpolation-filters="sRGB" filterUnits="userSpaceOnUse">
      <feFlood flood-opacity="0" result="BackgroundImageFix"/>
      <feBlend in="SourceGraphic" in2="BackgroundImageFix" result="shape"/>
      <feGaussianBlur result="effect1_foregroundBlur_11826_41436" stdDeviation="56.2"/>
    </filter>
    <filter id="d" width="454.1" height="448.2" x="188.2" y="103.5" color-interpolation-filters="sRGB" filterUnits="userSpaceOnUse">
      <feFlood flood-opacity="0" result="BackgroundImageFix"/>
      <feBlend in="SourceGraphic" in2="BackgroundImageFix" result="shape"/>
      <feGaussianBlur result="effect1_foregroundBlur_11826_41436" stdDeviation="56.2"/>
    </filter>
    <filter id="e" width="172.3" height="158.6" x="119.6" y="110.6" color-interpolation-filters="sRGB" filterUnits="userSpaceOnUse">
      <feFlood flood-opacity="0" result="BackgroundImageFix"/>
      <feColorMatrix in="SourceAlpha" result="hardAlpha" values="0 0 0 0 0 0 0 0 0 0 0 0 0 0 0 0 0 0 127 0"/>
      <feOffset dy="1.2"/>
      <feGaussianBlur stdDeviation="4.7"/>
      <feComposite in2="hardAlpha" operator="out"/>
      <feColorMatrix values="0 0 0 0 0.109896 0 0 0 0 0.446452 0 0 0 0 0.879167 0 0 0 0.6 0"/>
      <feBlend in2="BackgroundImageFix" result="effect1_dropShadow_11826_41436"/>
      <feBlend in="SourceGraphic" in2="effect1_dropShadow_11826_41436" result="shape"/>
    </filter>
    <filter id="g" width="97.3" height="170.2" x="32.8" y="156" color-interpolation-filters="sRGB" filterUnits="userSpaceOnUse">
      <feFlood flood-opacity="0" result="BackgroundImageFix"/>
      <feColorMatrix in="SourceAlpha" result="hardAlpha" values="0 0 0 0 0 0 0 0 0 0 0 0 0 0 0 0 0 0 127 0"/>
      <feOffset dy="1.2"/>
      <feGaussianBlur stdDeviation="4.7"/>
      <feComposite in2="hardAlpha" operator="out"/>
      <feColorMatrix values="0 0 0 0 0.109896 0 0 0 0 0.446452 0 0 0 0 0.879167 0 0 0 0.6 0"/>
      <feBlend in2="BackgroundImageFix" result="effect1_dropShadow_11826_41436"/>
      <feBlend in="SourceGraphic" in2="effect1_dropShadow_11826_41436" result="shape"/>
    </filter>
    <filter id="h" width="259.9" height="126.6" x="7.8" y="90.1" color-interpolation-filters="sRGB" filterUnits="userSpaceOnUse">
      <feFlood flood-opacity="0" result="BackgroundImageFix"/>
      <feColorMatrix in="SourceAlpha" result="hardAlpha" values="0 0 0 0 0 0 0 0 0 0 0 0 0 0 0 0 0 0 127 0"/>
      <feOffset dy="1.2"/>
      <feGaussianBlur stdDeviation="4.7"/>
      <feComposite in2="hardAlpha" operator="out"/>
      <feColorMatrix values="0 0 0 0 0.109896 0 0 0 0 0.446452 0 0 0 0 0.879167 0 0 0 0.6 0"/>
      <feBlend in2="BackgroundImageFix" result="effect1_dropShadow_11826_41436"/>
      <feBlend in="SourceGraphic" in2="effect1_dropShadow_11826_41436" result="shape"/>
    </filter>
    <filter id="i" width="216.8" height="109.7" x="149.5" y="45" color-interpolation-filters="sRGB" filterUnits="userSpaceOnUse">
      <feFlood flood-opacity="0" result="BackgroundImageFix"/>
      <feColorMatrix in="SourceAlpha" result="hardAlpha" values="0 0 0 0 0 0 0 0 0 0 0 0 0 0 0 0 0 0 127 0"/>
      <feOffset dy="1.2"/>
      <feGaussianBlur stdDeviation="4.7"/>
      <feComposite in2="hardAlpha" operator="out"/>
      <feColorMatrix values="0 0 0 0 0.109896 0 0 0 0 0.446452 0 0 0 0 0.879167 0 0 0 0.6 0"/>
      <feBlend in2="BackgroundImageFix" result="effect1_dropShadow_11826_41436"/>
      <feBlend in="SourceGraphic" in2="effect1_dropShadow_11826_41436" result="shape"/>
    </filter>
    <filter id="k" width="172.3" height="158.6" x="119.6" y="110.6" color-interpolation-filters="sRGB" filterUnits="userSpaceOnUse">
      <feFlood flood-opacity="0" result="BackgroundImageFix"/>
      <feColorMatrix in="SourceAlpha" result="hardAlpha" values="0 0 0 0 0 0 0 0 0 0 0 0 0 0 0 0 0 0 127 0"/>
      <feOffset dy="1.2"/>
      <feGaussianBlur stdDeviation="4.7"/>
      <feComposite in2="hardAlpha" operator="out"/>
      <feColorMatrix values="0 0 0 0 0.109896 0 0 0 0 0.446452 0 0 0 0 0.879167 0 0 0 0.6 0"/>
      <feBlend in2="BackgroundImageFix" result="effect1_dropShadow_11826_41436"/>
      <feBlend in="SourceGraphic" in2="effect1_dropShadow_11826_41436" result="shape"/>
    </filter>
    <filter id="m" width="97.3" height="170.2" x="32.8" y="156" color-interpolation-filters="sRGB" filterUnits="userSpaceOnUse">
      <feFlood flood-opacity="0" result="BackgroundImageFix"/>
      <feColorMatrix in="SourceAlpha" result="hardAlpha" values="0 0 0 0 0 0 0 0 0 0 0 0 0 0 0 0 0 0 127 0"/>
      <feOffset dy="1.2"/>
      <feGaussianBlur stdDeviation="4.7"/>
      <feComposite in2="hardAlpha" operator="out"/>
      <feColorMatrix values="0 0 0 0 0.109896 0 0 0 0 0.446452 0 0 0 0 0.879167 0 0 0 0.6 0"/>
      <feBlend in2="BackgroundImageFix" result="effect1_dropShadow_11826_41436"/>
      <feBlend in="SourceGraphic" in2="effect1_dropShadow_11826_41436" result="shape"/>
    </filter>
    <filter id="n" width="259.9" height="126.6" x="7.8" y="90.1" color-interpolation-filters="sRGB" filterUnits="userSpaceOnUse">
      <feFlood flood-opacity="0" result="BackgroundImageFix"/>
      <feColorMatrix in="SourceAlpha" result="hardAlpha" values="0 0 0 0 0 0 0 0 0 0 0 0 0 0 0 0 0 0 127 0"/>
      <feOffset dy="1.2"/>
      <feGaussianBlur stdDeviation="4.7"/>
      <feComposite in2="hardAlpha" operator="out"/>
      <feColorMatrix values="0 0 0 0 0.109896 0 0 0 0 0.446452 0 0 0 0 0.879167 0 0 0 0.6 0"/>
      <feBlend in2="BackgroundImageFix" result="effect1_dropShadow_11826_41436"/>
      <feBlend in="SourceGraphic" in2="effect1_dropShadow_11826_41436" result="shape"/>
    </filter>
    <filter id="o" width="216.8" height="109.7" x="149.5" y="45" color-interpolation-filters="sRGB" filterUnits="userSpaceOnUse">
      <feFlood flood-opacity="0" result="BackgroundImageFix"/>
      <feColorMatrix in="SourceAlpha" result="hardAlpha" values="0 0 0 0 0 0 0 0 0 0 0 0 0 0 0 0 0 0 127 0"/>
      <feOffset dy="1.2"/>
      <feGaussianBlur stdDeviation="4.7"/>
      <feComposite in2="hardAlpha" operator="out"/>
      <feColorMatrix values="0 0 0 0 0.109896 0 0 0 0 0.446452 0 0 0 0 0.879167 0 0 0 0.6 0"/>
      <feBlend in2="BackgroundImageFix" result="effect1_dropShadow_11826_41436"/>
      <feBlend in="SourceGraphic" in2="effect1_dropShadow_11826_41436" result="shape"/>
    </filter>
    <radialGradient id="a" cx="0" cy="0" r="1" gradientTransform="matrix(540 -342 400 631 125 319)" gradientUnits="userSpaceOnUse">
      <stop stop-color="#D9D9D9" stop-opacity=".1"/>
      <stop offset=".2" stop-color="#D9D9D9"/>
      <stop offset=".5" stop-color="#D9D9D9" stop-opacity=".1"/>
      <stop offset="1" stop-color="#D9D9D9" stop-opacity=".4"/>
    </radialGradient>
    <radialGradient id="f" cx="0" cy="0" r="1" gradientTransform="matrix(-103 19 -20 -112 273 132)" gradientUnits="userSpaceOnUse">
      <stop stop-color="#022036"/>
      <stop offset="1" stop-color="#022036" stop-opacity=".1"/>
    </radialGradient>
    <radialGradient id="l" cx="0" cy="0" r="1" gradientTransform="matrix(-103 19 -20 -112 273 132)" gradientUnits="userSpaceOnUse">
      <stop stop-color="#022036" stop-opacity="0"/>
      <stop offset="1" stop-color="#022036" stop-opacity=".1"/>
    </radialGradient>
    <linearGradient id="j" x1="223.9" x2="340.2" y1="50.7" y2="144" gradientUnits="userSpaceOnUse">
      <stop stop-color="#0D6EFD"/>
      <stop offset="1" stop-color="#0D6EFD" stop-opacity="0"/>
    </linearGradient>
    <linearGradient id="p" x1="223.9" x2="340.2" y1="50.7" y2="144" gradientUnits="userSpaceOnUse">
      <stop stop-color="#0D6EFD"/>
      <stop offset="1" stop-color="#0D6EFD" stop-opacity="0"/>
    </linearGradient>
  </defs>
</svg>