<svg xmlns="http://www.w3.org/2000/svg"  fill="none" viewBox="0 0 1165 777"><g opacity=".4"><mask id="b" width="1714" height="777" x="-549" y="0" maskUnits="userSpaceOnUse" style="mask-type:alpha"><path fill="url(#a)" d="M-549 0h1713v777H-549z"/></mask><g mask="url(#b)"><g filter="url(#c)" opacity=".1"><path fill="#0D6EFD" d="M423 412c0 32-169 11-211 30-32 15-49 148-94 148C15 590-1 482-1 424s84-106 187-106 237 35 237 94Z"/></g><g filter="url(#d)" opacity=".2"><path fill="#0D6EFD" d="M919 602c0 58-276 175-379 175-104 0 129-117 129-175s-60-220 44-220c103 0 206 162 206 220Z"/></g><path fill="#0A6DFF" fill-opacity=".4" d="M828 505h-5l-4 2-9 3-1 2-2 2-2 5v5l-1 1v5l2 2 1 2 1 2 1 2v2c0 2-1 4 1 5l1 2v7l-1 2v2l3 3 2 1 2 1h5l4-1 2-2 1-1 3-1h1l2 1 3-1c2 0 3 0 4-2l2-1 2-1 2-1h5l3-1 2-1 2-1h11l2 1 2 1 1 1 2 2v2a22 22 0 0 0 2 4h3l2-1 2-2 1 1v1l1 1h1l2 1v2l2 1 1 2 1 1v2l1 2 2 1 2 1 2 1 3 2h4l2-1a3 3 0 0 1 3 0l2 1 2 1 4-2 2-1 2-1c2-1 3 0 5-2l1-1v-3l1-5 1-1 2-2 3-3v-3l1-1v-1l1-1v-1l1-2 1-5v-5a136 136 0 0 1 0-5l-1-2v-5l-1-1-1-1-1-1h-1v-1l-1-1-1-1h-1l-1-2-1-2-1-1-2-1-1-2h-1v-1l-1-3-3-3-2-1-1-1-1-3-1-2v-2l-2-2-1-1-1-3v-2l-1-2-2-1h-1l-2 1v-3l-1-3v-2l-1-1v-1l-1-2c0-1-1-2-3-1l-3 3v9l-1 2v7l-1 1v1h-4l-2-1-2-2-1-1a1 1 0 0 0-1 0h-1 1l-1-1-1-1h-2l-1-1a3 3 0 0 1-1-2v-1l1-1v-2a3 3 0 0 0 2-2l1-2-1-2h-9l-3-1-2-2-2 1-1 1v1l-2 1h-3l-1 2v1l-2 1-2 1v3l1 1-3 1h-1l-1-1-2-2-2-1-4 2-3 2-1 1-1 1-1 1-2 2 1 2h1v1-1h-1l-2-1h-3a3 3 0 0 0-1 3v2l-2 2-3 2-2 1-1 1 2 1-1 1v-1 1-2l-1 1a1 1 0 0 0 0 1 1 1 0 0 0 1 0l1-1 1-1 3-2c2-1 4-2 4-4v-3a1 1 0 0 1 1 0h1l2 1h1l2-1-1-2-1-1 3-1v-1l1-1c1-2 2-3 4-3l2-1 1 1 2 2a4 4 0 0 0 3 1l3-1 2-1-1-3h-1 1v-1h2l1-1 1-3h2l2-1 2-1v-1l1-1s-1 0 0 0l2 2 2 1h9v-1 2a1 1 0 0 1-1 1h-1l-1 2v2l-1 1v3l2 2 3 1 1 1 1 1a1 1 0 0 0 2 0h-1l-1-1 2 2 2 2 2 1h5l1-1 1-1c2-1 1-3 1-4v-3l1-3v-8a2 2 0 0 1 0-2 8 8 0 0 1 2-2c1 0 0 0 0 0l1 1v3l1 1v3l1 3c0 1 1 3 3 3l1-1 1 1h1v1l1 3v3l2 1 1 1v1l1 2 1 3 1 2 2 2 2 1 2 2v2l2 2 2 2h1v1l2 2 1 2 1 1v1h1l1 1 1 1 1 1 1 1v4l1 3v11l-1 2-1 3-1 2v1l-1 1-1 3-1 2-2 1-2 2-1 6v2l-2 1-3 1-2 1-2 2-3 1-2-1-2-1h-3l-2 1h-3l-2-1-1-1h-2l-1-1-1-1-2-1v-2l-1-1v-1l-1-1-1-1-1-1h-1 1v-1l-1-1-2-1-1-1h-1 1v1-2l-1-1h-4l-1 1-2 1h-1v-2l-1-2-1-2-1-1-1-2-2-1h-2l-2-1a13 13 0 0 0-4 0h-7l-2 1-2 1h-1l-3 1h-4l-4 1-2 1-1 2-1 1h-2l-2 1h-2v-1h-3l-2 1-2 1c-1 1-1 2-3 2l-3 1h-4l-1-1-2-1-2-2v-1l1-2v-4l-1-4-1-2v-8l-1-1-1-2-2-2-1-1v-4l1-2v-4l1-1v-2l1-2 1-2 7-4h2l2-1 1-1h2a9 9 0 0 1 3 0h1l1-1a1 1 0 0 0-1-2v1Zm97 79-1 1h-6l-2-1h-1a3 3 0 0 0-2 0 2 2 0 0 0-2 1l1 3 1 1v1a2 2 0 0 1 1 1v2l1 1 1 1 1 1 2 1h2l3-1 1-2 1-2v-1l1-1v-2l-1-3a1 1 0 0 0-1 0v2c1 0 0 0 0 0v-1c0 1 0 0 0 0v1c0-1 0 0 0 0v2l-1 1-1 3v1l-2 1s-1 0 0 0h-1l-2-1-1-1-1-1v-1a4 4 0 0 0-1-3l-1-1h-1c0-1 0-1 0 0 0 0 0-1 0 0v-1s0 1 0 0c0 0 0-1 0 0 0-1 0-1 0 0 0-1 0-1 0 0 0 0 1-1 0 0l1-1c-1 0 0 0 0 0v1h1l1 1h9l1-1a1 1 0 0 0 0-1 1 1 0 0 0-1-1Zm86 0h-2c0-1 1 0 0 0 1 0 0 0 0 0l-1 1-2 2-1 2v1l-1 1-1 1-2 2h-1v1l-2 1-2 1h-2c-2 0-2 2-3 3l-1 1v1l-1 2-1 1a2 2 0 0 0 0 2l4 2h5l1 1h2l2-1a9 9 0 0 0 1-2h1v-1h1l1-1v-5s1 0 0 0l1-1h2l1-2h1l1-1 1-2v-1l2-2v-1c0-1 0 0 0 0s0-1 0 0l1-2-1-2-2-1h-2v-1 1-1h-1c-1-1-2 1-1 2h1l-1-1v1h1l1 1h3a3 3 0 0 0 0 1v1-1l-1 2-2 1v4h-1l-1 1-2 1-1 1-1 1-1 2v3h-1l-1 1-1 2h-1v1h-1c1 0 0 0 0 0s-1 0 0 0h-1 1-1l-2-2-2 1-4-1v-1l2-2v-2l1-1 1-1h1s-1 0 0 0h1l3-1 1-1 1-1h1l2-2 1-1a7 7 0 0 0 2-3v-1l2-1 1-2 1-1v-2a1 1 0 0 0-2 1v1h2a1 1 0 0 0 0-1Zm18-13h-4a2 2 0 0 1-2 0l-1-2-1-1h-1l-1-1v-2l-2-2-1-1-2-1-5 1v2l2 2 1 1 1 1 1 1 1 1 1 2v1l1 1v2h-1l-2 1c-1 0-2 1-1 3l2 1 1 1s1 0 0 0h1v5h6l1-2 1-2 2-2-1-2c0-1 0 0 0 0h1l2-1 1-1v-4l-1-1c-2 0-1 2 0 2h1l-2-1v3l-1 1h-2l-1 1v2l1 1h-1l-1 2a13 13 0 0 0-1 2h-4l1 1v-2l-1-3v-1l-2-1h-2 1c-1-1-1-1 0 0l1-1h1l1-1 1-1v-2l-1-1v-2l-2-3-1-1-1-1-2-2h-1v-1h2l2 1 2 2v2l2 1v1h1l1 1 1 1 2 1h5c2 0 2-2 0-2ZM891 443l4 1 4 1 4 2 3 2 4 1 2 1 1 1h1l1 1 1 1v1l1 1 1 1 1 1v1l1 1 1 1h1v1l2 1h1s0 1 0 0v1c0-1 0 0 0 0s0-1 0 0c0 0 0-1 0 0v1l1 2a4 4 0 0 0 2 0v1h1l1 1v-1 1a2 2 0 0 0 1 1l1 1 1 1c1 0 0 0 0 0h1v-1h-3l-4-1h-2l-2-1a31 31 0 0 1-1 0 3 3 0 0 1-1-1l-1-2v-1l-1-2-1-1h-8l-2 1v3c0-1 1 0 0 0h-3l-2 1h-4s0-1 0 0l-1-1-1-1-1-1h-2a12 12 0 0 0-3 0h-2 1l1-1 2-1v-2l-1-2-1-1c0-2-1-2-3-3l-1-1-2-1-4-1h-1l-2-1-1-2a2 2 0 0 0-2 0l-2 1v-1l-1-1h-1a4 4 0 0 0-2-3v2h6a2 2 0 0 0 1-2l-2-1-2-1-2-1-1-1-1-1h-1s-1 0 0 0v1h2l2-1h4l1 1c0-1 0 0 0 0l1 2 1 3 1 1 1 1h3l3-1a18 18 0 0 0 2-2h4v-2 2c2 0 2-2 0-2h-5l-2 2a2 2 0 0 1-2 1h-3l-1-2v-1l-1-2a3 3 0 0 0-1-2l-3-1h-2l-2 1h-2l-3 1a1 1 0 0 0 0 1l1 1 2 1 1 1 3 1a10 10 0 0 1 2 1v-1 1l-2-1h-3l-1 2 1 1 1 1v1a4 4 0 0 0 1 0l1 1a2 2 0 0 0 1 1l2-1h1c-1 0 0 0 0 0l1 2a5 5 0 0 0 4 1l4 1 1 1a17 17 0 0 1 3 2l1 2 1 1-1 1-1 1a2 2 0 0 0-1 2l1 2a1 1 0 0 0 1 0h5l2 1 1 1 2 1h4l4-1h1l1-1v-2l1-1h7v2l1 2 2 2 2 1 2 1h4l4 1h1a1 1 0 0 0 1-1l-1-2-1-1h-1s0-1 0 0v-1a2 2 0 0 0-1-1l-1-1c-1 0 0 0 0 0h-1l-1-1-1-1v-2l-3-1-2-2-1-1c0 1 0 0 0 0v-1l-2-2-1-1-1-1-1-2h-1l-1-1-1-1-2-1-4-1-4-2-1-1-2-1-4-1-5-1v2Zm96 68a1 1 0 0 0 1-1 1 1 0 0 0-1-1l-3-2h-2l-2-1h-2a1 1 0 0 0 0 2l2 2 2 1 2 1 1 1 4 2h2l1-1-1-2-2-1-1-1h-1s0-1 0 0v-1h-1l-1 1a1 1 0 0 0 1 1s-1 0 0 0l1 1 1 1h1v1c0-1 0 0 0 0a2 2 0 0 1 1 0c-1 0 0 0 0 0h1l-2-1-2-1-1-1-2-1a149 149 0 0 0-3-2h-1v-1s0 1 0 0l-1 1h1s1 0 0 0l1 1h1l4 2v-2 2a1 1 0 0 0 1 0Zm44-14-2-1h-2l-1 1-2 1a2 2 0 0 0 1 2l2 1h2l2-1v-4h-1a1 1 0 0 0-1 1v1s0 1 0 0v1c-1 0 0 0 0 0h-1s1 0 0 0h-2c1 0 0 0 0 0h1v-1 1-1h2c1 0 0 0 0 0h1s-1 0 0 0h-1a1 1 0 0 0 2 0v-1Zm-90-45h-1v-1c-1 0 0 0 0 0h-1l-2 1-1 1-1 1h-5l-1-1-1 1h-1a2 2 0 0 0-1 1 2 2 0 0 0 0 2h2a16 16 0 0 0 3 1h2l1 1 4-1 2-1 1-1v-1l1-2-1-2h-2a1 1 0 0 0 1 2 1 1 0 0 0 1-2l-2 1 1 1-1 1v1l-1 1h-1l-3 1-2-1h-4c1 0 0 0 0 0v-1h-1v1h1c-1 0 0 0 0 0l1-1s-1 0 0 0l1 1h4l3-2h1v-1c0 1 0 0 0 0h2l1-1a1 1 0 0 0 1-1 1 1 0 0 0-1-1l-2 1a1 1 0 0 0 2 1Zm12 6-1-1-1-1-2-2-3-1-1 3 1 2 1 1c-1-1 0 0 0 0l1 1 1 1h4a2 2 0 0 0 1-1 2 2 0 0 0-1-2l-1-1s-1 0 0 0l-1-1a1 1 0 0 0-2 1 1 1 0 0 0 1 1v1h1s1 0 0 0h1v1c0-1 0 0 0 0v-1h-3s0-1 0 0v-1l-1-1-1-1v-1l1 1a13 13 0 0 1 2 1v1c1 0 1 0 0 0v-1s1 1 0 0v1a1 1 0 0 0 1 1 1 1 0 0 0 1-1h1Zm-155 0h-5a3 3 0 0 1-2 0h-2v-1l-4-1h-5v1l-1 1a2 2 0 0 0 0 2 2 2 0 0 0 1 1h1a12 12 0 0 1 3 1l2 2h1l2 1h2a14 14 0 0 0 4 0h4l2 1h1l2 1 3 1 1-1a3 3 0 0 0 1-3l-1-1-1-1-2-1-2-1h-1l-1-1-1-1h-2 1a1 1 0 0 0-2 1l2 1c-1 0 0 0 0 0h1v1l2 1 1 1h2l1 1h1v1s1 0 0 0c0 0 0-1 0 0 0 0 0-1 0 0v1h-1l-1-1-3-1-3-1h-10l-2-1-1-1-3-2h-3s1 0 0 0c0 0 1 0 0 0h1l1-1c0-1 0-1 0 0h1a51 51 0 0 1 4 0l2 2h1l2 1 2-1h4c2 0 2-2 0-2Zm23 6h-6l-2 1v2c0 2 2 2 3 2a9 9 0 0 0 1 0h3c2-1 1-4 0-4a1 1 0 0 0-2 0 1 1 0 0 0 1 1s0 1 0 0v1s0-1 0 0h-4 1-1c-1 0 0 0 0 0v-1h6a1 1 0 0 0 1-1h-1v-1Zm8 1c0 1 0 0 0 0l-1-1h-1l-3 1 1 3h8a2 2 0 0 0 1-2l-2-2h-3c-2 0-2 2 0 2h3v1-1a6 6 0 0 0-1 0h-5c-1 0 0 0 0 0h-1 1c0 1 0 1 0 0v1-1h1l2 1 2-1a1 1 0 0 0-1-1h-1Zm1 6s-1 0 0 0h-1l-1-1h-2a1 1 0 0 0-2 0v3l3 2h2c-1 0 0 0 0 0h3a2 2 0 0 0 0-1l-1-2a2 2 0 0 0-2-1 1 1 0 0 0-1 1 1 1 0 0 0 1 1l1 1h1l-1-1h-4v-1h-1 2c1 0 0 0 0 0h1c1 1 0 0 0 0l1 1h1a1 1 0 0 0 1-1 1 1 0 0 0-1-1Zm13-4-1 1s1-1 0 0h-1a3 3 0 0 0-2 1v1l1 2 1 1a4 4 0 0 0 3-1l1-2v-1h1v-1l-1-1-1 1-1 1v1l-1 1c-1 0 0 0 0 0h-1c0-1 0 0 0 0 0-1 0 0 0 0 0-1 0-1 0 0v-1h1l3-2a1 1 0 0 0-1-1 1 1 0 0 0-1 0Zm-25-53-1-1h-2l-1 1-2 1-1 1-3 2v1l-1 1-1 1-1 1-1 1-2 1-1 1a25 25 0 0 0-2 0l-2 1a5 5 0 0 0 0 1h-1v1a8 8 0 0 0 0 1h-1l-2 1-1-1h-2a2 2 0 0 0-1 1h1-1v7l1 1v1l1 1 1 1v1l-1 2 2 1 3 2h2a1 1 0 0 0 1 1 12 12 0 0 0 2 1h7s0 1 0 0v1h1-1 1v1h6v-1l2-2v-5h1v-1h1l1-1 1-1v-2l-1-1v-1l2-1h1c1 0 2-1 2-3a2 2 0 0 0-1-1h-1l-1-1v-3a11 11 0 0 0-1-2v-2h1l1-1 2-1v-4s-1 0 0 0h-1l-1-1h-1c-1 0 0 0 0 0l-1-1v-1l-3-1c-2 0-2 2 0 2h1l1 1v1l1 1h1l2 1c0-1 0-1 0 0v1c-1 0 0 0 0 0h-1l-1 1h-2l-1 2v3c1 0 0 0 0 0l1 2v3l3 1v1a1 1 0 0 1 0-1v1h-1l-2 1-2 2v2h1s0 1 0 0v1c-1 0 0 0 0 0l-1 1a5 5 0 0 0-2 2l-1 2a5 5 0 0 0 0 2v2a1 1 0 0 1-1 1h-1a6 6 0 0 1-3 0l1 1-1-1-1-2h-7l-1-1h-2 1l-2-1h-1l-1-1-2-1h-1 1v-3l-1-1h-1v-1l-1-1c0-1 0 0 0 0v-6h-1v1l1-1-1 1 1-1c-1 0 0 0 0 0h1l1 1 2-1h1a2 2 0 0 0 2-2v-1s1-1 0 0l1-1h2l2-1 1-1h1v-1h1c-1 0-1 0 0 0v-1l1-1h1v-1h1l1-1v-1l1-1 2-1 2-1 1-1 2-1a1 1 0 0 0 0-1 1 1 0 0 0-1 0v-1c-1 1-1 3 1 2Zm8 34-1-1s0 1 0 0v3h1v5a1 1 0 0 0 1 1l2-1a3 3 0 0 0 2-2v-4a8 8 0 0 1-1-1h1a3 3 0 0 0 1 0h-1l1 2v2l2 1 2-1h1l1-1 1-1-1-1-1-1v-1l-1-1v-2l-1-1v1l1-1 2-1 1-1 1-2-1-1h-5l-2 1h-1s0 1 0 0c0 1 0 0 0 0v-2h7l1-1h3l1-1 3-1 1-1a2 2 0 0 0-1-2h-6l-1 1h-7a6 6 0 0 0-3 0l-2 2-1 1-1 1v3a9 9 0 0 0-1 3l-1 2a3 3 0 0 0 1 2l2 2a1 1 0 0 0 1-1 1 1 0 0 0-1-1 1 1 0 0 0-1 1l1-1-1-2v-1h1v-3l1-1v-2l1-1v-1h1l2-1h5a27 27 0 0 0 4 0l1-1h4v-1l-1 1h-1l-2 1h-1l-3 1h-6l-2 2v3c1 2 2 2 4 2l1-1 2-1h2v-1 1h-1l-2 1v1l-1 1v3l1 2 1 1v1h1-1 1c-1 0 0 0 0 0h-1 1-1l-1 1c-1 0 0 0 0 0h-2c1 0 0 0 0 0h1v-2l-1-2-1-1h-3l-1 2a7 7 0 0 0 1 3v1a6 6 0 0 1 0 1v1h-2l1 1v-2a7 7 0 0 0 0-2 12 12 0 0 0-1-2v-1l-1-2a1 1 0 0 0-1 1 1 1 0 0 0 1 1Zm37-3h-2l-4-1-1 1h-1a2 2 0 0 0-1 3l3 1h5l3 1c1 0 2-2 1-3v-1h-1l-1-1a1 1 0 0 0-1 1c-1 2 1 2 1 1h1-2l1 1s1 0 0 0h1l-2-1h-6l-1-1s0 1 0 0v1h1l1-1 3 1h2c2 0 2-2 0-2Zm5 15h-2l-1 1-1 1a2 2 0 0 0 0 1v-1l-1 1a1 1 0 0 0 0 2h1v1a1 1 0 0 0 1 0h3l1-2 1-2-1-2a1 1 0 0 0-1 1 1 1 0 0 0 0 1 1 1 0 0 0 1 0 1 1 0 0 1-1 0v-1s0 1 0 0v1s0 1 0 0v1a2 2 0 0 1-1 0s0 1 0 0v1h-1c-1 0 0 0 0 0-1 0 0 0 0 0v1-1l-1-1v1a1 1 0 0 1-1 0h1v-1 1-1h1l1-1h1a1 1 0 0 0 1-1 1 1 0 0 0-1-1Zm-10-26s1 0 0 0v-1s0 1 0 0h1l-1-3c-1 0 0 0 0 0h-4l-1 2v4s0-1 0 0l1 1a2 2 0 0 0 1 1l2-2c0-1 0 0 0 0h1a1 1 0 0 0 1-1 1 1 0 0 0-1-1 1 1 0 0 0-1 0 1 1 0 0 0 0 1 1 1 0 0 0 1 1v-2h-2l-1 2h1-1v-5 1-1c0 1 0 1 0 0v1h1v-1 1-1 1h1v-1c0 1 0 0 0 0v1l-1 1v1a2 2 0 0 0 1 2 1 1 0 0 0 2 0 1 1 0 0 0 0-2h-1Zm-108-14v-2h-3l-1-1h-2l-2 1a2 2 0 0 0 0 2l1 1a7 7 0 0 0 1 1l2 1a10 10 0 0 0 2 2v1l1 1 1 1 1 1 1 1a3 3 0 0 1 1 1v1l1 2 2 3a31 31 0 0 1 3 3v1h1v1c1 1 1 1 0 0v1l1 1 1 2 1 1 1 1h1v1l1 1 1 1 1 2 3 2h1l1 1 3 1 3-1h1a2 2 0 0 0 1-1v-4l-1-3v-2l-1-1v-1h-1l-1-1-1-2-1-1-1-1-1-1v-3l-1-1h-2l-1-1-1-1-1-1-1-1-1-1-2-1-2-1-1-1-2-2-2-1-2-1-1-1-1-1-2-2a1 1 0 0 0-1 1 1 1 0 0 0 0 1h1v1l1 1h1l1 2 3 1 1 1a11 11 0 0 1 1 2l1 1 3 1 1 1h1l1 1 1 1 1 1 2 1h1a5 5 0 0 1 1 1v2l1 1v1s1 0 0 0l1 1 1 1s0-1 0 0l1 2 1 1h1v1h1c0 1 0 1 0 0v3l1 1v5a1 1 0 0 1 0-1h-1l-3 1-1-1-3-1-2-2-1-1s0-1 0 0v-1l-1-1-1-1-1-1-2-1-1-2v-2c0 1 0 0 0 0a4 4 0 0 0 0-1l-1-1-1-1-3-2-1-3-1-1v-2h-1a6 6 0 0 0-1-2l-1-1-1-1-1-1-1-1-1-1-1-1a17 17 0 0 0-2-2l-1-1h-1 1-1 1l3 1h3v-2 2Zm37 24s0 1 0 0c0 0 0 1 0 0h-1l-2-1h-3v3-1 1h1l1 1 2 1h1a2 2 0 0 0 1 0v-2a1 1 0 0 0-1-1 1 1 0 0 0-1 1v1-1c0 1 0 0 0 0s0 1 0 0h1-1c-1 0-1 0 0 0h-1a2 2 0 0 0 0-1h-1v-1l-1 1h1s1 0 0 0h2v1c1 0 1 0 0 0h1a1 1 0 0 0 2 0l-1-2Zm60-41-2 1-1 1-2 1v1h-2l-1-1-1 1-2 1a2 2 0 0 0-1 1l1 2h2l2 1h1v4l2 1a2 2 0 0 0 2 0l1-1h-1 1c0 1 0 0 0 0v1h3a3 3 0 0 0 1-3h-1v-1s0 1 0 0h1l2-1-1-3v-1h-1v-2l-1-2h-1v-1 1a1 1 0 0 0-1-1 1 1 0 0 0-1 1 1 1 0 0 0 1 1v1h1v2l1 2 1 1v1-1h-1a1 1 0 0 0-2 1v2l1 1h-1 1-5v-4l-1-1-3-1a63 63 0 0 0-2 0v1-1h5a2 2 0 0 0 2-1v-1c0 1 0 0 0 0h1l1-1 1-1h1-1a1 1 0 0 0 1-1l-1-1Zm-8-6-2-2-2 2-1 1a2 2 0 0 0 1 2l1 1a19 19 0 0 1 1 0v3h2l2 1 2-2 1-1a2 2 0 0 0 0-2h-1l-1-1-1-1-1-1-1-1c-1-1-2 1-1 2h1v1l1 1 1 1h1v1h-1l-1 1-1-1v1-2a2 2 0 0 0-1-2h-1l-1-1s0 1 0 0v1-1h1v-1 1h1l-1-1h2Z"/><path fill="#0A6DFF" fill-opacity=".4" d="m846 395-2-1h-1l-2 1v1a2 2 0 0 0 0 2h1a5 5 0 0 0 1 1c-1-1 0 0 0 0h1-1l1 1h1v1a2 2 0 0 0 2-2v-3 1-1a1 1 0 0 0-1-1 1 1 0 0 0-1 1v1s0 1 0 0v1s0 1 0 0v1h1l-1-1a3 3 0 0 0-1-1s0 1 0 0h-1v-1h1l1 1h1a1 1 0 0 0 1-1 1 1 0 0 0 0-1 1 1 0 0 0-1 0Zm-12-21h1a1 1 0 0 0 0-1 1 1 0 0 0 0-1h-4l-1 1h-1v3l-1 1a2 2 0 0 0 1 1h-1s1 0 0 0v1h-1l-1 1v3h1v2l1 1v1-1 3l1 2 1 1c0 1 1 2 3 2l1-1a9 9 0 0 0 0-3s-1 0 0 0h2l1 1 1 2h2l2-1 1-2a3 3 0 0 0-1-2h-1v-1l-2-1-2-1v-1h-1l-1-1v-2h1l2-2v-2l-1-1v-1l-1-1 1 1v-1l-1-1-2-1v2c1 0 0 0 0 0h1v1l1 2v1c0 1 0 1 0 0l-1 1-1 1-1 2v2l1 1 1 1h1l2 2h1l1 1 1 1v1h-2v-1l-1-1-3-1h-1l-1 1a2 2 0 0 0-1 1v1a10 10 0 0 1 0 2l1-1h-1a1 1 0 0 1 0-1l-1-1-1-1v-2a2 2 0 0 0 0-2h-1v-1h-1c1 0 1 0 0 0h1l-1-2a6 6 0 0 0 0-1l2-1c0-1 0 0 0 0v-1h1a1 1 0 0 0 0-1v-4h1a9 9 0 0 1 2 0v-2a1 1 0 0 0-1 1 1 1 0 0 0 2 1h-1Zm-8 23h-2l-1 1-1 1v1h-1l-1 1a2 2 0 0 0 0 2l3 1 1-1h1l1-1a4 4 0 0 0 1-2h-1 1v-1a1 1 0 0 0 0-1 1 1 0 0 0-1-1 1 1 0 0 0-1 1v1s0-1 0 0v1h-1v1s0-1 0 0h-1v1s0-1 0 0h-1l1-1 1-1 1-1h1a1 1 0 0 0 1-1 1 1 0 0 0-1-1Zm-33-30h-2l-3 1v2l1 2 1 1h1l2 1 1-1s-1 0 0 0l1-1h1a2 2 0 0 0 1-3l-1-1-3-1a1 1 0 0 0-1 1 1 1 0 0 0 1 1h1a7 7 0 0 1 1 1l-1 1a7 7 0 0 0-1 0s0 1 0 0a3 3 0 0 0 0 1h-1l-1-1-1-1s0-1 0 0v-1a23 23 0 0 0 2 0h1v-2Z"/><path fill="#0A6DFF" fill-opacity=".4" d="M744 105c-10 0-19 2-28 6-4 2-3 5-6 7l-12 4c-2 0-7 0-8 3-1 5 5 3 7 7h1l-3 1-4-2-4-2c-2-1-8-2-9 1l2 2h-1l-2 1c-3 2 2 4 4 6v-2h-6s-2 0-1-1l1-1v-4c-2-3-5 1-7 3l-2 4 1 3c2 2 1 2 0 4-2 2-2 5 2 5l7 1 2 1h-6l-2 2-1 2-2 5c-2 2-3 3-6 3h-2l4-2c2-1 6-5 4-8l-1-1-2-3 1-3v-5c-1-2-3-4-1-7l2-5a1 1 0 0 0-1-1l-3-1-8-2c-3 1-6 4-7 7-2 2-7 4-6 7 1 2 3 2 3 5l1 3 3 2h1c1 3-1 3-2 3l-7-2-10-4-7-2-6-3c-2 0-3 3-2 5l4 1c1 1 5 4 1 4l-2-1h-4l-6 1-3 1h-1c-1 2-1 2-2 1l-2-2a1 1 0 0 0 0-1h-1l-7 1a1 1 0 0 0-1 0l-4 3-6 3c-2 0-2 1-3 2s-4 3-5 2c-2 0-3-1-2-2l3-1a4 4 0 0 0 1-4l-3-2-7-1c-3 0-1 4-2 6v4l1 2c2 3-1 2-3 2-4-1-7 1-10 3l-1 3 1 1v2c-3 1-5-2-8-2h-3c-5 4 4 5 3 7l1-1-7-2h-2l-1-2v-6l-3-3-3-2h3l13 5v-2h-1v2c4 0 11-1 13-4 3-5-1-7-4-8l-7-3-7-5-6-1-7-2h-8 2l2-2c1-3-4-5-7-5-2-1-5-2-8-1-1 0-3 4-4 3l-2-2c-2-1-6 1-8 1-3 0-3 1-4 2-3 2-7 1-10 2s-6 3-7 5c-2 2-1 3 0 4v-2c-1 1-3 0-4-1-2 0-4 0-6 2l-1 2-1 2a1 1 0 0 0 0 1l3 1c2 0 5-1 3 1l-3 1c-4 2-6 3-8 7-1 2-3 3-3 5 0 4-3 6-6 8l-13 8-3 4c-1 3 0 4 1 6v9l3 2c3 3 7 4 11 2l4-4c2-1 4 0 5 2v4l1 1v1l1 1 2 3c0 2 0 3 2 4h5l2-2 2-1 3-4c1-2-1-5 2-7l4-3 2-6c-1-2-1-2-3-2-1-1-2-2-2-5l1-4 6-5 6-4 1-4c1-4 6-6 9-5l3 1-1 2-4 3-5 6c-2 2-4 2-4 5v9l2 2 3 3c2 1 5 0 7-1l8-2c4-1 8 0 11 2l-1-1-4 1-2 3-1 1h-1l-1-2c-4-2-10 0-13 3-1 0-3 2-2 3l2 1h3c1 1 1 2-1 2h-9l-2 6a1 1 0 0 0 1 1l2 1v-2l-3 4c0 2 3 1-1 3h-1l-2 1-2 1h-3l-3-1c-3 0-5 2-8 3s-6-2-9-2h-5l-2-1h1l4-3c1-2-1-2-2-3-2-1 0-5-2-6s-4 1-6 2c-3 2-5 6-4 10 0 1 2 1 1 3l-5 1c-2 1-1 2-3 2l-4 2-3 6-7 5-1 2-3 1-2 2-2 1c-2 1-2-1-4-1s-2 3-2 4l1-1c-2 0-11 0-9 4 0 2 3 2 4 3 3 1 3 2 4 4l2 3 1-1h-1a1 1 0 0 0 0 1l-1 4c0 3 0 4-3 5l-9-1h-10l-2 2c-1 1-3 2-2 4 0 3 3 0 2 6l-2 4v3l2 6c0 2-1 4 1 4h6l5 3c2 1 3-2 5-2 4-1 7 0 10-2l2-2 1-3 2-1v-2c0-2-2-2 1-4l2-1 3-2 2-3 3-2c2-3-1-4 4-5 4 0 7 1 11-1l5-3c1 0 4 0 5 2l1 3 2 4 5 3c2 0 3 2 5 3s5 1 5 4c-1 2-3 4-5 4a1 1 0 0 0 0 1c0 5 6 2 7 0 2-1 3-1 3-3v-4l2 1a1 1 0 0 0 1-1c1-4-5-5-7-7l-5-4-3-2-1-2-3-2c-1-1 3-4 4-4l3 1 3 3v1l6 4 5 5c2 2 2 2 1 4v3c0 2 1 2 3 4l2 4 3 1v4c2 3 5 1 6 1a1 1 0 0 0 1 0l1-3c0-3 2-2 3-3 2-2-1-4-3-5l-1-3 3-1 6-3 5 1h5c2-1 0-3-1-4v-3l1-2v-4l3-4 2-4c1-2 4-2 6-2 2 1 1 1 1 3l1 2 2 1 1 2c2 1 5 0 6-2l1-3-1-1 1-1 8-2c1-1 2-1 0 0l-1 1v4l-1 2c1 3 6 4 8 6l2 2 4 2c4 2-1 3-3 4-3 1-6 2-8 1l-8-1-4-2-5-1-4 2-6 2-7 3c-3 0-6 0-8 2v2l1 2v3c0 3 4 5 6 6 3 1 4 4 8 4l3-2 5-1 1 1h5c1 0 4-1 5 1v3l-3 3-1 6c-1 2-1 4-3 5l-8-1c-4 0-8 3-12 2l-11-2c-3 0-4-2-6-3l-5-1c-3 0-6 1-6 4l-1 2c0 2-2 3-4 3l-5-3-5-2-5-3c-2-1-5 0-7-2l-5-3 2-2a5 5 0 0 0-1-4l-1-2 1-2-1-2-3-2-6-1c-5 0-8 3-13 3-4 0-8-1-12 1s-5 4-9 5c-5 0-9 2-14-1a1 1 0 0 0-1 1c-2 4-7 5-10 9-2 2-5 4-4 7l1 2-2 3-5 5c-2 2-4 2-6 5-1 4-5 6-7 10l-2 4-2 2-1 3-1 3 1 3 2 4v8l-1 4c-2 3-4 5-1 8l1 2 1 3 2 2 2 3 2-2h-1c0-1-2 0-1 1l1 2 4 5 7 7c1 2 4 3 6 4l7 5h9c4-2 8 0 12-1h9c3-1 5-4 8-4h8c2 0 2 1 3 3s2 3 4 3c2 1 7 0 9 2l1 5-2 5c-1 2-4 2-3 5 0 2 3 4 4 6l4 6 4 7 1 4 1 1 1 5c0 3 5 7 2 10l-3 1-2 4-1 5-1 3-1 1a1 1 0 0 0 0 2v5l4 6 5 6 1 10c0 2 1 2 2 3 2 3 1 6 2 8 1 5 7 7 8 12 1 2 2 5 1 7 0 1-2 1-2 3l4 4 5 3c5 2 10-2 15-2l8-1 5-2 4-6 6-4 3-6 4-6v-7c1-3 5-3 8-4 5-3 2-9 2-13l-1-2v-1c-1-1 0-2 1-3 1-2 4-5 7-6l6-3 4-4 1-6v-8l-1-2v-2c0-3-3-5-3-7l-1-3-1-4 1-2v-4c1-2 2-5 4-6l4-4 8-9 5-5 5-4-2-1c0 2 2 2 2 0l3-3 3-2 3-6 3-6 1-5c0-2 3-5 0-7-3-1-9 2-12 2l-6 1-7 1c-2 0-3 0-3-2l1-2c1-2 0-2-1-3l-3-2-4-5-5-5-1-2 1 1-4-7-2-5-1-3-2-5-3-4-2-4-2-5-3-5-2-4-1-2c-1-2 0-1 1 0l4 3h1l5 3 1 3v3c0 2 1 2 3 4l4 4 3 7 1 4 2 2 3 4 4 4 1 6v4l3 5c2 2 4 3 8 2l5-2 5-2c3-1 7-1 10-3l3-4 5-3 6-1 2-3c2-1 4-1 5-3s0-4 2-5l3-2 1-3 1-1c2-4 1-5-2-6l-6-4-3-3v-4a1 1 0 0 0-1 0c-3 1-5 3-6 5-2 1-4 3-6 2-3-1-2-3-2-5l-3-2-2 2-1-2c-1-1-1 2-1-1l-1-4-3-2-2-3c0-2 1-2 3-3l1-1c2 0 5 1 6 3v3l2 2 5 3 2 2h9l1-1 1 2c1 2 3 3 5 3l8 2h10c3 0 8-3 11 1l2 4 4 1c4 1 1 1 1 4 0 2 3 3 4 4 2 1 4 2 6 1h3v7l-1 9 4 7 4 5 1 2 1 2 1 4 2 3 2 3c1 2 2 3 4 3 3-1 4-4 5-6 1-1 3-1 3-3l1-5 2-5-2-3c0-4 2-3 4-4l2-2 4-3 3-4 6-4 3-3 2-3-1-1 4-1 5-1 4-1c2-1 2-1 3 1l4 5 2 2 2 3 1 5-1 3v1c1 2 3 2 5 2 3 0 4-2 6-3a1 1 0 0 0 1-2h-1l-1 1c2 0 2 5 2 6l1 5c1 3 2 5 1 8l-1 7 2 4c2 1 2 3 3 5l3 5 2 5c1 4 5 7 8 8 3 2 6 1 5-3-1-2-3-1-2-4 1-2 2-4 1-6l-4-3-3-3-4-2-1-3c-1-2-5-3-4-6 2-4 3-6 3-11l-1 1h2v2a1 1 0 0 0 1 1l4 1 1 3 3 2 2 1h2v5c1 4 5 0 7-1 1-1 2-3 4-3l4-3c3-3 4-6 3-11-1-3-4-7-7-9l-3-5-2-2v-3c1-1 0-2 2-3l2-2c2-1 4-3 7-2 2 1 1 3 4 4l3-2v-3h3l8-2v-2 2l9-4c4-2 6-4 8-8l3-5 4-5c1-1 2-1 2-3 1-2 0-2-1-3l1-5-1-3c-1-3-1-6-4-8l-3-3c-1-3 2-3 4-5l3-2h2l1-3a1 1 0 0 0 0-1l-5-1-2-1-3 1c-4 2-2 1-3-1l-2-1c-1-2 2-2 3-3s7-7 9-6v1h-1l-1 3c1 2 5 2 6 1l5-1h1c2 2 0 2 0 3 0 4 1 3 4 5 2 1 4 3 2 6l-2 1-1 2c0 2 1 5 3 5 2 1 5-3 8-4 2 0 4-1 5-4 0-4-1-6-4-8l-2-3-2-5 2-1c2-1 5 0 6-2v-3l3-2c2-2 2-3 4-3h4c3 0 7-3 9-5l5-4 4-4 2-4 3-6a1 1 0 0 0 0-1c-1-2 2-4 2-7l3-9v-2l-1-4-4-5c-3-1-4 1-7 1-3 1-3-2-5-3h-3v-2h2l9-5v-2h-1l1 1 3-3 3-5 5-3 6-3c5-2 10 1 15 0l8-1 4 1-1 2a1 1 0 0 0 1 1l7-1 5-1c2-1 0-4-2-5l1 2 4-5 2-1 2-3c1-1 6-3 7-2l1 1 1 1v3h3l6-3 3-3 1-1 2-2h2v1l-2 2-3 4-5 4c-2 2-3 4-6 5l-6 4c-3 4-8 5-9 10-1 4-2 10-1 15l2 6 1 5a1 1 0 0 0 1 1l5-1v-1l2-3c1-1 0-3 2-4s3 0 3-3l1-3 3-1 3-1 1-2c0-2-2-3 1-5h2c1-1 3-2 3-4l-2-4-1-2c-1-1-2 0-2-2l2-3v-1l4-3 5-2c1 0 1 2 3 1 2 0 3-3 5-3 3 0 3 1 5 3a417 417 0 0 0 17-10l6-1 2-2h8c2-1 2-3 1-4-2-3-2-5-5-6l-3-1c-1 0-1 0 0 0l2-1h4l4-3 2-1v-3c2-2 3 1 3 2a1 1 0 0 0 1 1h4l4 1 1 2 3 1c2 1 3 2 5 1l3-1 2-4 3-3v-3c0-3-2-5-4-5l-2-1-1-1h-1l-2 4-2 2c-2-1-1-2-1-3 0-2 0-4-3-5-1 0-2 1-1 2l1 1 1-2-7-2-6-2-4-4c-2-2-5-3-9-4l-12-1c-3 0-11-4-10 2 0 2 1 2-2 3-1 0-5 1-4-1l1-2a2 2 0 0 0 0-1c-2-2-5-2-6-2l-3 2h-13l-5 1c-1 0-5 0-5-2 1-1 2 0 2-2-1-2-5-3-6-4l-7-2-12 1-3-1-4-2c-2 0-5-1-7-3l-4-1-5-2-11-2h-5l-4-1a1 1 0 0 0-1 1c0 2-2 1-4 2-1 0-2 1-2 3 1 1 2 0 1 2h-2l-4 1h-12l-3-1v-1h-4l-5 3c-2 1-3 1-4-1v-2c2-3 1-8-3-10l-8-1-8-2c-1 0-3 0-3 2v3h-11l-4-2-3-1-11-1-11-1-9 2-5 1c-2 1-4 2-6 1l1 1 5-2 4-2 9-5c4-2 11-3 9-9-1-2-1-4-3-5l-6-3-9-1c-1 1-1 2-3 2l-3 1v1c1-1 4-1 3-3-1-3-7-1-7-2l-1 1 2-4a1 1 0 0 0 0-1h-5l-6 1-4 2-3 3c-1 2-3 1-5 2l-2 1c-2 3-8 2-11 2-2 0-2 2 0 2h10l2-1 1-1c1-2 2-1 3-1l3-1 2-3c1-2 5-3 7-3l7-1-1-1-1 2a1 1 0 0 0 0 1c0 2 2 2 3 2h2l1 1h-2a1 1 0 0 0 0 2l3 1 3-1 3-1c2-2 7 0 9 1l6 5c1 3-2 5-4 6l-9 4-8 4c-2 1-5 1-6 3a1 1 0 0 0 0 2c3 2 7-1 10-1l6-2h9l13 1c3 0 5-1 8 1l4 2h11l2-1v-3c0-2 5 0 6 1h7l3 1 3 3v3l-2 3a1 1 0 0 0 0 1c1 1 3 4 5 4 2 1 3-1 5-2 1 0 3-3 4-2l1 1c2 3 5 0 8 1h8l6-1 3-1a2 2 0 0 0 0-2v-1l-1-1 4-1 1-2h-1l4 1h4l11 2 9 3 5 3 4 1 2 1h9l11 1 3 2 2 1 1 1c-1 1-2 1-1 2v1c2 2 5 3 7 2 4-2 8-1 12 0l5-1 5-2 3 1c0 1 0-2-1 0l-1 3c0 2 3 2 5 2l6-1v-5h2l12 1c5 0 9 2 13 5l4 3 6 3 6 2h2c1 1 2-1 1-1l-1-1-1 1c4 1 0 5 2 7h5l3-5 1 1 2 1c2 1 3 3 2 5l-3 3c-1 1-2 4-4 4l-4-1-5-4h-7l1 1c-1-2 0-3-2-4s-4 0-6 2a1 1 0 0 0 0 1v2l-3 1c-3 2-6 1-8 3h-1v1l3 2c2 1 3 1 4 4l2 2c0 2-5 1-7 1l-8 3c-5 1-8 5-12 8l-4 2-1-2a8 8 0 0 0-6-1l-3 2h-6l-2 1-4 3c-3 1-2 3-4 5l-2 3 1 2 2 1 1 1 1 3c1 2-4 2-5 4l-1 3c1 2 1 3-2 4-1 0-3 0-4 2l-1 1v2l-2 1-3 3v1l-1 3-1 1h-2l-1-1v-6l-2-4v-5l1-7c1-5 5-5 8-8l3-3 4-3 5-3 6-6 3-4c1-1 3-2 3-4l-2-2-6 2-2 1v1l-3 2-2 2-2 1h-1v1-2l-1-2c-1-1 0-2-2-2-2-1-6 1-8 2l-1 1-2 2-2 2-5 5a1 1 0 0 0 1 1c2 2-1 2-2 2l-7 1 1 1c-1-2 1-3-1-4l-7-1h-4l-6 1-9-1c-5 1-10 4-14 7l-2 3-1 3-4 4a1 1 0 0 0 1 1v-1l-10 5c-2 0-4 1-3 3s3 2 4 2l2 1 2 3c3 1 6-3 9-2l4 8-2 9-2 5-1 3-1 2-1 3-5 7-9 8-4 2h-5c-4 0-4 2-6 4-1 0-3 1-3 3v2l-4 1c-2 0-3 0-4 2l3 8 3 3 2 3c0 4-2 5-4 6l-3 1-2 2c-3 2-1 1-2 0-3-2 3-6 3-8s-2-4-3-5l-1-1h-1c-1-1-2-3-1-4v-2c-1-2-3-2-4-2h-4c-1 1-4 3-4 1s3-2 2-4l-5-1-2 1-5 4-4 2-2 2c-1 1 0 3 1 3l2 2v1l2 1c2 1 3 0 5-1s3 0 5 1c1 0 1 0 0 0l-2 1-4 3-3 2c-1 2 0 4 1 6l4 3 1 4 1 2 1 3-1 2v2c1 2 4-1 0 4l-2 2-2 4c-1 1-3 2-3 4l-3 5-4 3-9 4c-2 0-1 2 0 2v-2l-7 1-6 2v3c-2 2-2-2-4-3h-5c-2 0-3 2-5 3l-3 3-2 3v2c0 2 1 2 2 3 2 1 2 4 4 6 3 2 6 5 7 9a8 8 0 0 1-1 7l-3 3-4 1-1 1-2 3c-2 1-5 4-3 0 1-1 2-2 1-3-1-2-3-2-5-2l-2-1-3-4c-1-2-3-2-4-2v1-3a1 1 0 0 0-1-1 19 19 0 0 0-4 0 1 1 0 0 0 0 1v5l-2 4-1 2c-1 2 0 3 1 4l2 2 1 3 7 5 4 4c2 2-1 4 0 7l1 2c3 3-1 1-3 0-3-2-6-5-7-9l-1-4-3-5-2-4c-3-3-1-5 0-8 1-4-1-8-2-12-1-3-1-9-4-10-1 0-2 1-1 2v-1l-1 1c-2 2-3 2-5 2h-2l1-1v-3l-1-5-2-4-4-4-2-5c-3-3-7 1-10 1-3 1-9 0-10 4v1l-2 2-1 1-7 6-3 4-3 2-2 2-2 1c-2 0-3 2-3 4s2 4 1 6l-1 3-1 4c0 2-2 3-3 4s-2 4-4 4c-2-1-3-5-4-6l-2-5-2-5a1 1 0 0 0-1 0l-2-4-4-4v-15c0-2 0-6-2-7h-2l-2 2-4-2c-2-1-2-2-2-3v-2c-1-4-5-3-7-5l-3-4-3-1-5 1h-8l-11-1-4-2-2-1v-2c-2-2-3-1-4 0-2 1-6 1-8-1l-5-3c-1-1-2-1-2-3v-2l-2-2c-4-2-5-2-9-1-3 2-3 3-2 5v4l2 1 3 2v4l2 1 1 2 3-1c2 1 0 3 1 4 1 3 6 3 8 2l3-2 6-5-2-1 1 6 4 2 3 3c2 1 4 0 4 3l-2 4-2 2h-2l-1 3-2 4-3 1-4 4-6 1c-3 1-4 3-6 6l-7 3-5 1-5 2c-3 1-5 2-7 0l-3-4-1-5c-1-3-1-6-4-8l-3-5c-2-3-4-4-4-6-1-4-2-7-5-10l-5-5v-6c-1-2-4-4-7-5l-4-2-4-2c-2 0-2 2-1 4l2 2v3c0 2 2 3 3 5l5 10 3 5 2 3 1 5c0 2 2 4 3 5l3 6h1l1 3 2 2 3 4 3 3c2 0 3 1 3 3l-1 4c1 2 3 2 5 2l8-1 3-1h3l5-1c1 0 4-2 5 0l-1 3-2 8c-1 4-3 7-5 9-3 2-6 3-6 7h2v-1a1 1 0 0 0-1-1l-1 1-4 3-6 6-3 3-3 3-1 3-3 2-3 3-4 11v4l1 1 1 4c1 3 3 5 3 8v6l1 5-4 8-6 2-6 4-4 6 1 4 1 3 1 5c-1 5-5 3-8 5-4 2-2 5-3 9 0 3-2 5-3 7l-4 6-4 3-6 6c-4 5-11 2-16 4l-7 2c-3 0-5-2-7-4-1-1-2-1-2-3l1-1v-5l-2-6-6-6c-2-3-1-6-2-9l-1-2-1-5c-1-4-1-9-5-12l-5-7v-5l-1-2v1l2-4 1-2c0-2-1-5 1-7l2-1c3-2 3-2 3-5s-3-5-3-8l-1-5-1-3-1-2-2-4-5-7-5-7c-1-2 2-3 3-4l1-3v-8c-2-5-12 0-13-6-2-6-11-5-15-4s-6 4-9 4h-17l-7 2c-3 0-4-2-6-3l-5-3c-3-3-6-4-8-8l-4-5c0-1-3-2-3-4l-2 1v1c1 1 3-1 2-1l-1-3-3-3-2-3c-2-2-2-3-1-6l3-3v-4a33 33 0 0 1 0-7l-2-4c-1-2 0-4 1-6l2-4 2-4c1-4 5-5 7-9v-1c1-2 2-2 3-2l4-3 3-3 3-4c1-2-1-3-1-5s3-4 4-5l6-5 4-4h-1c3 3 7 2 11 2l6-1 4-3c4-3 8-3 14-3h6c3-1 4-3 7-3l4 1 3 1c1 1-1 3-1 4 1 1 3 2 3 4l-2 2 1 3 4 3 6 2 7 3c2 1 4 1 5 3l4 2c2 0 7 0 8-2l1-5c2-3 7-2 10 0 3 3 7 2 11 3s7 2 11 1c2-1 4-2 6-1h7c3 0 4-2 5-4l2-7 3-4c1-4 1-6-3-7h-6l-6-1h-4c-2 2-3 4-6 2l-4-3-4-2v-7l-1-1 6-1 5-2 7-2 6-2 7 1 12 3 6-2 5-2c2-2 1-5-1-6l-5-1-4-4-5-4 2-4c1-1 4-3 2-4-3-2-8 0-11 1l-4 3v4l-1 1h-2v-2l-2-1v-2l-2-2h-8c-4 2-3 5-5 8l-2 4v1l-2 4a4 4 0 0 0 1 4l1 1c1 0 1 0 0 0h-12l-3 2h-2l-2 2 1 5 2 2c1 0 2 0 1 1l-3 1v5l1-1h-3l-1 1-1-2c0-3-1-3-3-5l-3-4-1-2v-8l-2-1-3-3-4-2-4-3-1-2c-1-2-2-2-3-2l-3-2c-3 0-6 1-7 4v3l3 2 3 4 2 1 3 2 4 3c1 1 5 2 4 4l1-1c-2 0-4-2-4 1l-1 5-1 1-4 2 5-5c0-3-2-5-5-7l-5-2c-3-2-6-2-7-6-1-2 0-4-2-5a10 10 0 0 0-11 1c-3 2-5 2-8 2-2-1-8-1-9 2v2l-2 3-3 3-5 3-1 3v4l-2 1v2l-2 1c-4 2-7 1-11 2-2 1-3 2-4 1l-2-1-7-1v-5l-1-1-1-4 2-6c1-2 0-3-1-4-1-2-2-1 0-3h1l1-1 2-1h4l9 1h6l2-3v-7a1 1 0 0 0 1-1v-1l-2-2v-2l-3-4c-1 0-5 0-4-2l6-1h1v-1c0-2 0-1 2-1h3c2 0 2-2 4-3l3-1 2-3 6-4c2-1 2-2 2-4 2-4 4-2 6-4l2-2c2-1 5 0 6-2v-4c-1-3-1-5 1-7l4-3c2 1 1 3 1 4l1 1 1 1v1c-1 2-3 1-4 2l2 4h6l5 2h4l9-3c2 0 6 3 8 2l2-3h4l1-3 2-4a1 1 0 0 0 0-1c-1-2-3-2-4-2l1 1c0-1 1-4 3-4l5 1c2 0 4-1 5-3l-2-4h-4c-1 0 0 0 0 0l2-1 1-1c2-1 8-3 9 0l1 2a2 2 0 0 0 2 0c2 0 2-4 4-5s4 0 5-3a1 1 0 0 0 0-1l-7-2c-2-1-4 0-7 1l-8 2h-5l-1-2-1-1-1-3v-5c0-2 2-4 4-5 1-2 2-4 5-6l5-5c2-4-4-5-7-4-3 0-9 3-9 7 0 2 0 2-2 3l-3 2-6 5c-3 3-4 8-2 11l1 2 3 1-1 4c-1 1-1 2-3 2l-4 4c0 3 1 5-2 8l-4 2-1 2-2-1-1-2-1-2-1-2-1-1-2-7c-1-4-6-3-8 0l-5 3c-2 0-8-1-9-4-1-1 1-5 1-7l-2-3c-1-3 0-4 2-6l7-5 7-4c2-1 5-3 6-6l1-4 2-4 6-5 5-2v-4h-6 1l1-1c0-1 0-2 2-2h7v-1c-1-1 3-4 4-4l6-2 7-2 1-2h4l5-1 1 2c4 0 6-3 9-3l6 1 4 2-2 1c-2 1-4 2-3 4 2 2 6 0 8 0 4-1 7 2 11 2l10 5 6 3 5 2c2 3-1 5-3 5-2 2-5 2-8 2v2h2v-2l-11-4c-2-1-4-2-6-1-6 2 3 6 4 7v8c1 2 4 2 5 3l8 1a1 1 0 0 0 0-1v-3l-4-1c0-2 3-1 3-1l5 2 5-1v-2l-1-2v-2c2-1 4-3 7-2h5l2-2-2-4 1-4-1-2c0-2 2-1 3-1l4 1c1 1 0 1-1 2l-2 2c-2 2 1 4 3 4 2 1 5 0 7-1l1-2c1-2 3-2 5-3l4-2 4-3-1 1 8-1-2-1c1 3 1 5 4 4l4-1 6-2h3l4 1h2c3-1 3-3 2-5l-3-2c-1 0-3-2-2-3l3 2c3 2 6 2 10 3l11 5c2 1 5 2 7 0 2 0 3-3 2-5l-3-2-2-2v-2l-2-2c-2-3 1-4 3-5l3-5c1-2 4-2 7-2l7 2v1l-2 3c-2 3 0 5 1 7v10c0 2 1 2 2 2 1 2-1 5-3 6s-7 2-6 5c1 2 6 1 8 1l3-2 4-5 1-4c2-2 6 0 8-1a1 1 0 0 0 1-1c1-3-5-5-7-5h-5c-2-2 0-2 1-3v-5c-2-1-1-3 0-5l2-1-1 3c2 3 9 3 11 2v-1l-1-2h-2l1-2 3-1c0-2-2-2-2-2l7 1c3 1 8 5 12 3 2-2-1-5-3-6l-2-2c-3-1-3-3-1-3a44 44 0 0 0 9-2c3-1 9-2 11-5 1-2 0-3 2-4l9-3c6-3 12-3 19-3v-2Z"/><path fill="#0A6DFF" fill-opacity=".4" d="M909 242v-5l1-1v-3l-2-1a3 3 0 0 0-3 1h-1l-1 2 1 1-1 1-1 2v2l1 1v2l1 2v1l-1 1v2l-1 1v3l1 1v4l-1 1v4l2 2 2-1v-1h2v-1h1v-2l-1-2v-5l1-1-1 1h1v-1h2v1l2-2v-2l-1-1v-1l-1-2v-1l-1-1-1-2-1-1a1 1 0 0 0-1 1l1 1h-1v-1 1a4 4 0 0 0 1 1l1 2v1l1 1v1a4 4 0 0 0 1 1v2h1-1v-1h-1l-2 1h-1v1l-1 1-1 2 1 2a4 4 0 0 0 1 3v1h-1l-1 1v1h-1c1 0 1 0 0 0h1l-1-1v-3l1-1v-4l-1-1v-2l1-1v-2l1-1v-2l-1-1v-4l-1-1v-1h1v-5 1l1-1h2s0 1 0 0v2h-1v6h2Zm-5 27-1 1-1 1-1 1v2a13 13 0 0 1-2 1h1-2l-1 2v2-1l-1 1v1l-1 1v2l1 1 2 1h2l1-1v-1l1-1h4l1 1h3l2-1 1-1c-1 0 0 0 0 0l4-1v-4h-1v-1a2 2 0 0 0-1-2h-5l-1-1a4 4 0 0 0-3-3h-1 1c-1-1-3 0-2 1a1 1 0 0 0 0 1h1l2 1v1a4 4 0 0 0 4 3l2-1h2-1v2l2 1c-1 0 0-1 0 0h-2l-2 1-1 1h-1v1h-3l-1-1h-5l-1 1-1 1v1a4 4 0 0 0-1 1l1-1h-1s-1 0 0 0h-1c0-1 0-1 0 0 0-1 0-1 0 0v-1c0 1 0 0 0 0v-1a3 3 0 0 0 0-1h1a2 2 0 0 0 1-2l1-1 2-1 1-2v-2c1 0 0 0 0 0h1v-1h1v-1a1 1 0 0 0 0-1 1 1 0 0 0-1 0Zm-7 18v1h-1l-1 2v1a5 5 0 0 1 0 3l-1 1-2 3-1 1-1 2a6 6 0 0 1 0 1v-1l-1 1-1-1-2 1-2 2-1 1-1 1h-1l-1 1h-2l-1 1h-7v1l-1 1-1 1-1 1-2 2c1 2 2 2 3 2l2-1h5l1-1a11 11 0 0 1 2 0c1 0 0 0 0 0s0-1 0 0v1l2 1h1l2 1a4 4 0 0 0 3-1l1-1 1-1h1l2-1 2-2h1l1 1h3l2-2v-2l1-1v-3l1-1v-4l1-1 1-1v-1a3 3 0 0 0 2-2 2 2 0 0 0-1-2l-1-1-1-2v-1s-1 0 0 0a2 2 0 0 0-2-1 3 3 0 0 0-2 0 1 1 0 0 0-1 1 1 1 0 0 0 1 1h2l1 2v1l1 1 1 1c-1 0 0 0 0 0h-1c1 0 0 0 0 0h-1v3h-1l-1 3v2l-1 1v3l-1 1v2l-1 1h-1l-1-1-4 1-1 1v1h-2l-1 1h-2l-1 1a3 3 0 0 1-2 1l-1-1a12 12 0 0 0-1 0c-1 0 0 0 0 0l-1-2h-3l-2 1h-4l-2 1h-1 1v-1l2-1v-1h1v-1h7l1-1 3-1 2-1 1-1v-1l1-1a11 11 0 0 1 1-1h1-1a2 2 0 0 0 2 1h1v-1a2 2 0 0 0 2 0v-2l1-1 1-2v-1l2-1 1-1v-6h2v-2a1 1 0 0 0-2 0Z"/><path fill="#0A6DFF" fill-opacity=".4" d="M878 316h-2l-1 1h-2a3 3 0 0 0-2 0v1l-1 1a3 3 0 0 0 0 1v1h3l2-1h1v-1h1l1-1a1 1 0 0 0 1-1 1 1 0 0 0-1 0 1 1 0 0 0-1 0h-1v1h-2v1s-1 0 0 0h-3 1v1-1 1s0-1 0 0l1-1h2l1-1h2a1 1 0 0 0 1-1 1 1 0 0 0-1-1Zm-14 0-2 1h-1v1l-1 1a2 2 0 0 0 1 2c0 1 0 1 0 0v1a4 4 0 0 0 0 2 2 2 0 0 0 2 2c2 0 2-1 3-2l2-1v-5a2 2 0 0 0 0-1 11 11 0 0 0-4-1v2h3-1v4h-1l-1 1v1l-1 1 1-1h-1v-3l-1-1v-1h1v-1h1c2 0 2-2 0-2Zm-33 33a13 13 0 0 0-2 2v1l-1 1-1 1v2l1 1v2l1 1a2 2 0 0 0 2 0l1-2 1-1 1-2v-1l1-1a4 4 0 0 0 0-3c0-2-1-2-3-2v2h1v1s0-1 0 0v1l-1 1v1l-1 1a8 8 0 0 0-1 3v1-2l-1-1v-2l1-1h1l1-2 1-2a1 1 0 0 0-1-1 1 1 0 0 0-1 1Zm207-214-1-1-2 1h-2l-1 1-1 1-1 1v1a1 1 0 0 0 0 1l3 1 1-1h6l3-1h1l1-1v-1a2 2 0 0 0-1-1c-1 0-1 0 0 0h-1v-1h-2l-1-1a4 4 0 0 0-1 0h-3v1a1 1 0 0 0 1 1 1 1 0 0 0 1-1l-1 1h1a4 4 0 0 1 2 0l1 1 1 1h2-1l1-1h-2l-2 1h-6l-2 1h-1c1 0 1 0 0 0h1s0-1 0 0v-1h1l1-1h2v-1h1-1 1a1 1 0 0 0 1-1Zm-129-14h-1l-1-1-3-1h-3v1h-1l-1 1 1 2 2 1h7a1 1 0 0 0 0-1c1-1 0-2-1-2a1 1 0 0 0-1 1 1 1 0 0 0 1 1c-1 0-1 0 0 0-1 0 0 0 0 0v-1h-4a15 15 0 0 0-2-1h-1v1-1 1l1-1h2l2 1h1l1 1a1 1 0 0 0 1-1 1 1 0 0 0 0-1Z"/><path fill="#0A6DFF" fill-opacity=".4" d="M901 118a1 1 0 0 0 0-1 1 1 0 0 0-1-1h-2l-1 1-2 1a2 2 0 0 0 1 1v1h4l1-1v-2a1 1 0 0 0-2 0v1c-1 0 0 0 0 0h-1s1 0 0 0h-1 1-1s1 0 0 0c1 0 0 0 0 0v1c0-1 0 0 0 0h1v-1h2-1 1-1 1l-1-2v2h2Zm33-8h-1a8 8 0 0 0-2 0h-4 1v1-1l-1-1h-5c-1 0 0 0 0 0a1 1 0 0 0-1-1h-2l-1 1-1 1c0 2 2 2 3 3h2s0 1 0 0l1 1 1 1h6l2-1h2l2-1v-1a1 1 0 0 0-1-1 1 1 0 0 0-1 0v2-1h-1l-2 1h-1c1 0 0 0 0 0h-5l-1-1h-1v-1h-1l-2-1h-1s0 1 0 0h1v-1a2 2 0 0 0 1 2h1l2-1-1 1h3l1 1h3s0-1 0 0h4c2 0 2-2 0-2Zm-35-5v1h-1a7 7 0 0 1-2-1l-1-1-3-1-1 1h-2l-2 2-1 1v5l1 1h1l2 1c0-1 0-1 0 0h1v1h4l1-1h2l1 1 3-1h4v1h2l1-1a3 3 0 0 0 1-1c0 1 0 0 0 0h3l1-2h1v-1l-1 1s1-1 0 0l1-1h1a1 1 0 0 0 0-2l-2-1h-2l-1-1h-3a14 14 0 0 1-3-1v-1l-3-1h-2v2h3a1 1 0 0 1 0 1 2 2 0 0 0 1 1l3 1h4l1 1h3c-1 0-1 0 0 0l-1-1v1h-1a1 1 0 0 0 0 1v1h-2l-2 1h-1l-1 1h-1l-1-1h-2a14 14 0 0 0-2 1l-3-1h-2a4 4 0 0 0-2 1h-2l-1-1-1-1h-1l-1-1v-2c0-1 0 0 0 0v-1c0 1 0 1 0 0v1l1-1 1-1 2-1h2v1l2 1v1h3a2 2 0 0 0 2-1v-2h-2ZM774 83l-3-1h-2c0-1 0 0 0 0s0-1 0 0a1 1 0 0 0 0-1h-3l-3 1-2 1-1 1v1l-1 1a7 7 0 0 1-1 1l-1 1-1 2c1 2 3 2 4 1h3l1-1h4l3-1h5v-1h2a2 2 0 0 0 0-3l-2-1h-2c0-1 0 0 0 0v-1h-1l1 1a1 1 0 0 0-1-1 1 1 0 0 0-1 1 1 1 0 0 0 1 1l2 1h1l1 1c-1-1 0 0 0 0-1-1 0 0 0 0s0-1 0 0v-1l-1 1h-7l-1 1h-5l-2 1h-3c1 0 0 0 0 0v1l1-1 1-1 1-1 1-1v-1h1c0-1 0 0 0 0v-1h2l1-1h2l-1-1 1 1a2 2 0 0 0 1 1h1a4 4 0 0 1 2 0 1 1 0 0 0 1 1 1 1 0 0 0 1-2Zm-18-8h-5v-1h-2l-1 1h-4l-2 1-2 1-2 1-1 1a1 1 0 0 0 0 1l2 1 1 1 1 1h2l3 1 3 1h7l2-1v-4l1-1v-1a1 1 0 0 0-1-1h-1l-1-1h-1v2c1 0 0 0 0 0h1l1 1v-1 1h-1v4h-7l-3-1-2-1h-2l-1-1h-1v-1h-2l1 1s-1 0 0 0l2-1 2-1 1-1h4l2-1h1v1-1s0 1 0 0l1 1h3a1 1 0 0 0 2 0 1 1 0 0 0-1-2Z"/><path fill="#0A6DFF" fill-opacity=".4" d="M746 66h-8v1h-2l-2 1-1 1-1 1v4l1-1h-2l-3 2-1 1a2 2 0 0 0 1 2l3 1 4-1h1l2-1 3-1 3-1h2l2-1h1a2 2 0 0 0 2-1l-1-2a1 1 0 0 1 0 1l1-1a2 2 0 0 0 1-1 2 2 0 0 0-1-2h-1c1 0 0 0 0 0l-2-1-2-1a1 1 0 0 0-1 1 1 1 0 0 0 0 1l2 1h1l2 1h-1a2 2 0 0 0-1 2l1 1c-1-1 0 0 0 0a1 1 0 0 1 0-1l-1 1h-5l-1 1-3 1h-2v1h-1l-3 1a8 8 0 0 1-3-1h-1s0 1 0 0h1l1-1h3a1 1 0 0 0 0-1v-3c-1-1 0 0 0 0s0-1 0 0v-1h1l1-1h2l1-1h7v-2Zm-134 75a1 1 0 0 0 1-2l-1-1-1-1-1-1-1-1v-1a3 3 0 0 0-2-1h-1v-2l2-1 2-2 2-2 1-1 1-1 1-1 1-1 2-2 1-1 1-1 1-1 2-1 1-2v-1l1-1 2-1h1a12 12 0 0 0 4-1l2-1 2-1 3-1h2l3-1h2l3-1 2-1a2 2 0 0 0 1-3l-1-2a3 3 0 0 0-2-1h-3l-2 1h-2l-1 1h-2l-2 1h-2l-1 1h-9l-3 1-2 1-2 1a11 11 0 0 0-2 1l-3 1-1 1h-1v1h-1l-1 1h-1l-2 2h-1l-1 2v2h-1v1l-2 1-1 1h-1a1 1 0 0 0-1 2h1l1 1s0 1 0 0c0 0 0 1 0 0 0 1 0 0 0 0v1h-2l-2 1-1 1a2 2 0 0 0 0 1h-1a1 1 0 0 0 0 3v1h-2l-2 1v4l2 2h4l1 1h1v2l2 1 1 1h9l2 1a2 2 0 0 0 2-2v-1h-1v-1a1 1 0 0 0-1-1 1 1 0 0 0-1 1v2h1s0-1 0 0h-1l-2-1h-8l-1-1v1-2l-2-2h-1l-1-1h-2l-1-1-1-1c0-1 0 0 0 0v-1h2a3 3 0 0 0 2-1v-2l-1-2v1c0 1 0 0 0 0l2-1v-1c0-1 0 0 0 0s0-1 0 0v-1h2l2-1 1-2a2 2 0 0 0-1-2h-1v1h1v-1h1v-1h2l1-2 1-1v-2h1v-1 1l1-1v-1h2l2-2h1l1-1h1l1-1 1-1h3l2-1 1-1h1l2-1h9v-1h3l1-1h2l2-1h1l1-1h4l1 1c0-1 0 0 0 0v1s0-1 0 0h-1l-2 1-2 1h-1l-1 1h-3l-5 1-2 1-2 1a17 17 0 0 1-4 1h-1c-1 1-3 1-3 3l-1 2h-1l-1 1-3 3-2 2-1 1c1 0 0 0 0 0v1h-1l-1 1-1 1-1 1-2 2-3 3v4l1 1h1l1 2 2 1a4 4 0 0 0 1 2v-1l1 2Zm-25 7h-1c1 0 0 0 0 0v-1h-3c-1 0 0 0 0 0h-2l-2 1v3l1 1c1 2 3 2 4 1l1-1c1 0 0 0 0 0h1l2-2a1 1 0 0 0 0-1 1 1 0 0 0-2 0l-1 1h-1l-1 1h-1v1-1s0 1 0 0h-1s0-1 0 0a6 6 0 0 0 0-1v-1s0 1 0 0c0 0 0 1 0 0 1 0 0 0 0 0h1c-1 0 0 0 0 0h3a4 4 0 0 0 0 1h1a1 1 0 0 0 2-1 1 1 0 0 0-1-1Zm75-25c-1 0 0 0 0 0l-1-1a4 4 0 0 0-3 0h-2l-1 1a2 2 0 0 0-1 1v1l1 1h4l4-2a1 1 0 0 0-1-1 1 1 0 0 0-1 0s-1 1 0 0l-1 1a8 8 0 0 1-2 0h-2c1 0 1 0 0 0 0 1 0 0 0 0h4l1 1a1 1 0 0 0 1-1v-1Zm-35-55h-3l-3 1h-1l-1 1c-1 0-2 1-1 2l1 1h1l2 1h1a4 4 0 0 0 3-1h1l1-1c1-1 1-4-1-4a1 1 0 0 0-1 2 1 1 0 0 0 2 0h-1v1l-2 1h-2l-2-1h-2s1 0 0 0l1 1 1-1h1l1-1h4v-2Zm11-2h-3l-2 1-2 2 1 2h5c1 0 4 0 5-2l-1-2-1-1-2 1a1 1 0 0 0 0 1 1 1 0 0 0 1 0l1 1v-1l-1 1h-7a1 1 0 0 1 1 0c-1 0-1 0 0 0l3-1h2v-2Zm-24 5-5 1-2 1-2 1a1 1 0 0 0 2 2h5l2-1 1-1v-2l-2-1a1 1 0 0 0-1 1 1 1 0 0 0 1 1h1-1v1-1h-1v1h-5a1 1 0 0 1 0 1v-1c1 0 0 1 0 0h3l3-1a1 1 0 0 0 1 0 1 1 0 0 0 0-2Zm-3-6h-9c-1 1-2 2-1 3l2 1h3l1 1h2l3-1 2-2-1-1-2-1v2h1c-1-1 0-1 0 0 0 0-1 0 0 0h-1l-1 1-2-1h-6 1-1 1c-1 0 0 0 0 0h8l1-1a1 1 0 0 0-1-1Zm8-4a2 2 0 0 0-1-1h-2v1a24 24 0 0 1-2 0 1 1 0 0 0-1 1l1 2a7 7 0 0 0 5 1 2 2 0 0 0 1-1v-1l-1-2h-1a1 1 0 0 0-1 1 1 1 0 0 0 0 1h2s-1 0 0 0h-1 1c-1 0-1 0 0 0h-1c1 0 0 0 0 0h-3s1 0 0 0v-1s0 1 0 0v1c0-1 0-1 0 0h-1a4 4 0 0 0 1 0h1l1-1h1-1a1 1 0 0 0 2 0 1 1 0 0 0 0-1Zm-29 7h-4l-2 1h-1l-1 1-1 1h-1l-2 1a1 1 0 0 0 0 2 2 2 0 0 0 1 1h4l3-2h4l1-1 1-2-1-1a2 2 0 0 0-1-1 1 1 0 0 0-1 1l1 1s0-1 0 0-1 0 0 0h-1l-1 1-3 1-2 1h-4a1 1 0 0 1 0 1h1c-1 0 0 0 0 0v-1h1l3-2h1l1-1h4v-2Zm10 3h-5c-1 0-3 1-3 3l3 1h4a3 3 0 0 0 2-3 2 2 0 0 0-1-1h-1a1 1 0 0 0-1 1 1 1 0 0 0 1 1h-1c1 0 0 0 0 0h-4a1 1 0 0 1 0 1c1-1 0 0 0 0l1-1h5a1 1 0 0 0 1-1 1 1 0 0 0-1-1Zm-25-3h-3l-1 1-2 1-2 1 1 1 3 1 4-1 1-1h1v-1l-1-1c-1-1-1 0-1 1l1 1-1-1v-1 1h-1l-1 1h-3l-1-1v2l1-1a9 9 0 0 1 3-1h3v-1a1 1 0 0 0-1-1ZM408 246h7a10 10 0 0 0 2-1h1v-1a2 2 0 0 0 0-2h-1a4 4 0 0 1-1-1s1 0 0 0v1-1h2l1-1 2-1v-2l-1-1-1-1h-5s1 0 0 0c0 0 0-1 0 0v-5l-1-1-1-1c0 1 0 0 0 0l-1-1v-3l-1-2a4 4 0 0 0-1-1c-1 0-1 0 0 0h-1l-1-1-2-1c0 1 0 0 0 0 0 1-1 1 0 0-1 1 0 0 0 0l3-2v-4l-2-1h-4v-1s0 1 0 0h1a5 5 0 0 0 0-1h1v-3l-2-1-5 1-1 1-1 1h-1l-1 1v1l-2 2-1 1 1 2 1 1v1l1 1v1a3 3 0 0 0-1 2l1 1 2 1v1l1 2 2 1h3l1 2a3 3 0 0 1 1 1c-1 0 0 0 0 0l-1 1h-5l-1 2 1 2 1 1v1-1l-1 1-2 1a2 2 0 0 0 1 2l1 1s0 1 0 0v1l-2 2c-1 0-2 1-2 3l1 1h5l2-1a4 4 0 0 0 1-2s0 1 0 0h6v-2h-6l-1 1h-1v2h-6 1v1s0-1 0 0v-1l1-1 2-1 1-2v-2l-1-1h-1c0-1 0 0 0 0h1v-1h1l1-1v-2l-1-1h-1v-1c1 0 0 0 0 0h3l3-1v-4l-1-1c-1-2-2-2-3-2h-2a17 17 0 0 0-1-1v-1a2 2 0 0 0-1-2h-2v-1s0 1 0 0l1-1a3 3 0 0 0 0-2l-1-2h-1v-1l-1-1c1 1 0 0 0 0v1s0-1 0 0v-1l2-2 1-1 2-1v-1h1l2-1h3-1v1-1l-1 1v1h-1v2l1 2h6c-1 0-1 0 0 0h-1v3l-3 2a2 2 0 0 0 0 2l2 1a10 10 0 0 1 2 0v1c0-1 0 0 0 0h1l1 2v2l1 2 1 1 1 1v2l1 3 3 1h3v1a6 6 0 0 1-1 1h-2l-1 1a2 2 0 0 0 0 3h1l1 1v-1h-1l-2 1h-6c-2 0-2 2 0 2Z"/><path fill="#0A6DFF" fill-opacity=".4" d="M384 227h-2l-2 1a2 2 0 0 0-2 1v1l-1 3 1 2h1v1h-1v2h-1v3l1 1 1 1h4l2-1 1-1 3-2h2l2-1h2v-2l-1-2v-1h-1v-2h-1 1l2-1v-2a2 2 0 0 0-1-2 4 4 0 0 0-1-1l-1-1h-3 1-1l-2-1-1 1h-1l-1 1a2 2 0 0 0-1 1v1c-1 1 0 2 1 1 1 0 1-2-1-2l1 2h1v-2l1-1h2v1h3l1 1 1 1-1 1h-1a2 2 0 0 0-1 2l1 1v1c1 0 0 0 0 0v-1 1h1v2l1 1h1-2l-2 1-3 1-2 1-1 1-1 1h-1a1 1 0 0 1-1 0h-1l-1-1s-1-1 0 0c-1 0-1 0 0 0l1-1v-1h-1 1l1-2v-1l-1-1v-1l-1-1v1-2h1v-1h1l1-1h2v-2Zm-33-58h4a2 2 0 0 0 1-1v-1h2l1 1h1l2 1v1h1v1h1l1 1s0-1 0 0v1l-1 1-1 1-1 1-2 1-1 1-1 1h-3a7 7 0 0 0-1 1h-3l-1 1h-1l-1 1h-2l-1-1a9 9 0 0 1-2 0l-1-1h-2l-3-1v1l1-1v-2l-2-2-1-1h-1l-1 1 1-1c-1 1 0 0 0 0h1a2 2 0 0 0 1-2v-1l-1-1h-5v1h1l1-1v-1h4a2 2 0 0 0 0-2h1a15 15 0 0 1 2 0v1-1 1-1h-1v1h1l-1 1a2 2 0 0 0 1 2l1 1h4a2 2 0 0 0 0-1v-2s-1 0 0 0v1a2 2 0 0 0 2 0l2-1h2-1l1-2c-2 1-1 3 0 2l1-1a2 2 0 0 0-1-1h-1l-3 1-2-1h-1l-1 2v2l1-1h-3v-1h1v-1a2 2 0 0 0 0-2l-2-1h-3a2 2 0 0 0-2 1v1h-2l-1 1-1 1-1 1a2 2 0 0 0 0 2h5v1-1h1-1s1 0 0 0l-2 2 1 2 2 1h1v1s1 0 0 0a2 2 0 0 0-1 1c0 2 1 2 2 2h2l1 1h1l1 1h2l1 1h4l1-1 1-1h3l2-1 4-1 2-2 2-2 1-1h1v-1l1-1v-1l-2-2v-1l-1-1-3-2-3-1h-2a3 3 0 0 0-2 1v1h-4l-1 2a1 1 0 0 0 1 0 1 1 0 0 0 1 0Zm216 324c0 1 0 0 0 0v1c0-1 0 0 0 0a11 11 0 0 0-2 4v1l1 1v7h-1l-1 1-1 2-1 2v3l1 1 1 1c0-1 0 0 0 0v1l-1 1s1 0 0 0v3l2 1v1l2 2 3 1h1l1-1h3l3-2 1-2v-3l1-3v-2l1-2v-1l1-2v-1a10 10 0 0 1 1-1v-1h1v-3l1-3v-3l1-1v-3l-1-1c0 1 0 0 0 0v1-1h1l3-1v-2a2 2 0 0 0 0-1l-1-1v-3l-1-1v-1l-1-1 1 1-1-1-2-2c0-1-1-2-2-1a3 3 0 0 0-2 2v3l1-1h-1l-1 1-2 1-1 1v1h-1v1a2 2 0 0 0-1 1v1l-2 1h-2a11 11 0 0 0-2 1s1 0 0 0l-1 2a1 1 0 0 0 2 0h1l1-1a9 9 0 0 0 3-1h1a2 2 0 0 0 1-2v-1l1-1 1-1 1-1h1l1-1c2 0 1-2 1-3v-1h1c-1 0-1 0 0 0l1 2 1 1h1-1v1l1 1v1a4 4 0 0 0 1 3v1-1h-1l-3 2v1l1 2 1 1s0-1 0 0a1 1 0 0 1 0-1l-2 2v1l-1 2v6l-1 1-1 2v1c0 1 0 0 0 0v1l-1 1-1 1v3l-1 2a11 11 0 0 1 0 2v3l-1 1-2 1h-1l-2 1h-1l-2-1-1-2a10 10 0 0 0-2-1v-1s0 1 0 0l1-1v-2l-1-1-1-2v-2l1-1 1-1 1-2 1-1v-3a8 8 0 0 0 0-2v-1a6 6 0 0 0-1-2v-1l1-2 1-1v-2h-2Zm124-91-2 3v1a5 5 0 0 0-1 2s1-1 0 0a3 3 0 0 0 0 3v2l1 1v2h2a4 4 0 0 0 3-1l2-1v-5l-1-2-1-1h-1v-2l-2-1a1 1 0 0 0-1 1 1 1 0 0 0 1 1s-1 0 0 0l1 2v1l1 1 1 1v2a1 1 0 0 1 0 1l-1 1h-2l-1-2v-1l-1-1a1 1 0 0 1 0-1h1v-1l1-1v-1a8 8 0 0 0 0-1l1-1h-1l1-1-1-1ZM508 75l-2-1-1-1-4-1h-5l-2 1h-3l-2-1-2-1h-2l-1-1a6 6 0 0 0-3 1l-1 1h-1v1l-2 1a2 2 0 0 0 0 2l2 1 1 1h5l1 1v-1h1-1a1 1 0 0 1 1 1 1 1 0 0 1-1-1l-1 1a2 2 0 0 0 0 2l3 1 3 1h2l2 1 2-1 1-1h1l1-1 1 1 4-2 1-1 2-2v-1c0-2-2-2-2 0l-2 1-2 2h-3l-2 1-1 1-1 1-2-1-3-1h-3c-1 0 0 0 0 0a2 2 0 0 0 1-2 2 2 0 0 0-1-1l-3-1h-2a8 8 0 0 1-3-1l1-1h1l1-1 2-1 1 1h1l1 1 4 1h3l4-1 3 1h2l2 1a6 6 0 0 0 1 0v-1c0 2 2 1 2 0Zm-37 26h2l3-3v-1l1-1v-3h1l1-2v-1c0 1 0 1 0 0 0 1 0 0 0 0l1-1h1l2-1 1 1v4c0-1 0 0 0 0 1 0 0 0 0 0s1 0 0 0v1a1 1 0 0 0 0 2h5l1 1h2l2-1h3l2-2a2 2 0 0 0 0-2l-2-1-2-1h-2l-1-2-2-1-1-1h-1v-1l-1-1-1-1h-2l-1-1h-1l-2-1-2-1-2-1v-1h-1l-2-1-1-1h-3a2 2 0 0 0-1 2 2 2 0 0 0 0 2h1c0 1 0 0 0 0v1l-1-1h-1l-1-1-2-1-1-1h-2a2 2 0 0 0-1 1h-2l-2-1h-4a3 3 0 0 0-2 2v2l2 2a4 4 0 0 1 1 1l1 2 1 2h1l1 1 2 1h3l1-1h2l1-1h3c0 1 0 1 0 0h-1a34 34 0 0 0-2 1h-2a9 9 0 0 0-2 0l-1 1h-1l-1 2a2 2 0 0 0 2 1 7 7 0 0 0 1 1h1s1 0 0 0c1 0 1 0 0 0l1-1h-1l-1 1a2 2 0 0 0-1 2l2 1 2 1 1 1 2 2h2l1 1h1a1 1 0 0 0 1-1l-1-1-1-1h-2l-2-1-2-2-1-1h-1 2a1 1 0 0 0 0-2l-2-1-2-1v1h1l1-1h4l2-1 2-2-2-2h-4l-1 1h-1l-2 1h-1l-1-1a42 42 0 0 1-3-1h-1v-2l-1-2-2-1v-1c0 1 0 0 0 0v-1h2s-1 0 0 0h3l2 1 2-1s1 0 0 0h2v1h1l2 1 2 2h2a2 2 0 0 0 1-2v-2l-1-1h-1 3l1 1h1s0 1 0 0l1 1 1 1 1 1 3 1 1 1h2l1 1h1l1 1 1 2 4 2 1 1 2 1a11 11 0 0 1 3 1l-1 1h-2l-2 1h-1l-1-1h-5v1l1-1v-6l-2-2h-3l-2 1-1 2s-1 0 0 0h-1v2s0-1 0 0h-1v1l-1 1v3l-1 1-3 3h2a1 1 0 0 0-1-1 1 1 0 0 0-1 1 1 1 0 0 0 0 1ZM337 64l-1 1-2 1-1 1-2 1c-1 1 0 0 0 0l2-2 3-3 2-2-2-2-6 1-5 1-4 1v1l1-2a1 1 0 0 0-1-1l-3-1h-15l1 1h1l2-1 4-1h9l2 1h8l2-1 4-1h2l1-2c1-1 0-1-1-2l-5-1h-2l-2-1-1-1-1-1-2-1h-2l-9-2h-4l-4-1h-5l-2 1h-7l-5-1-1 1h-2l-3 1-2 2 1 1h1v1h-2l-2 1-3-1-4-1-4-1h-9c-1 0-2 1-1 2v1l1 2 3 2 1 1v-1h-1l-4-2h-4l1 3 1 1 1 1c1 0 3 1 2 2l1-1h-2l-3-1-3-1-4-2-4-1c-1 0-4-1-4 1v3l2 1h1-5c-1-1-3-2-4-1a1 1 0 0 0 0 1l2-1c-2-1-7-2-7 1v1c0 1 0 1 0 0 1 0 0 0 0 0h-1 1v-4l-4-1-6 1h-2l-2 1a3 3 0 0 0-1 2 3 3 0 0 0 0 1h1-1l-1-1h-7c-1 0-2 0-3 2v2a1 1 0 0 1 0 1l-1 1s1 0 0 0h-4l-5 1-5 2-4 3c-1 1-2 2-1 3l2 1h4v3l-3 1h-3v1h-3l-5 2-2 1-3 1-2 1-3 1a3 3 0 0 0-1 4l4 2 2 1 2 1 5 1h3l1 1h1v-1h-4l-5 1c-2 0-3 0-3 2l3 2 3 3 5 2 5 1 2-1 3-1h3l3 1 5-1h5l4 4 2-2-1 2c-1 0 0 0 0 0l1 1 1 1v2l2 1 2 1v2l1 1 1 1v1l1 1c1 2 3 1 4 4v2l-2 3c-1 1-2 2-1 4l2 2 2 1h2l2-1h1l3 1 2 1 2 2c0-1 0 0 0 0h-5l-1-1h-4a2 2 0 0 0-1 1l-1 1v1c-2 1-2 4-1 5l5 2c1 0 4 1 4-1v-1c1 0 0 0 0 0v-1 1h2l1-1 2 2-1 3-1 1h-1l-3 1-2 2-1 3 1-1-2 1v2l-1 3v4l1 1 1 1 2 2 1 3c0 1 0 3 2 3h2l2 1-1 2v3l1 2 2 2 2 3 2 2 1 1 1 1 2 2-1-1 2 2 1 1h1l6 2 3 2 2 1c2-1 4-2 4-4l1-3 1-2 1-2v-5h2l2-5 2-2-1-1s-1 0 0 0h1v-3l-1-1h2l2-3h1l2-1h5l6-3 1-1 2-1 3-2 2-3 2-2v-3h2l2 1h5l2-1h3l3-1 4-2 4-1 4-3 4-2a1 1 0 0 0 0-1l-2-1-4-1-2-3h-3v1h1l1-1 1-1v-3h2l1 2 3 3h4l3-1v-4l-1-4-5-2-2-1-1-2-1 2h5l3-1 1-3a5 5 0 0 0-4-2l-2-1h3l5 1 1-1 2-1 2-2a2 2 0 0 0-1-2h-1v1h2l2-1c2 0 3-1 3-3l-4-1-3-2-1 1 4-1 1-4-2-2-1-1c1 1 0 0 0 0v-2l-1-2h-1l5-1 4-1v-2c-1-2-3-1-4-2h-1l-1-2-3-2h-1l-1 1v-2a25 25 0 0 1 0-3h1l4-3c1 0 2-1 1-3h1l1-1h2a4 4 0 0 0 3-3v-1l2-1c1-1 2-2 1-3l-2-1h-1s0-1 0 0v1l1-1h5c2 0 4 0 5-2v-1h1l3-1 2-2 2-1c0-2-3-3-4-3l-7-1h-6l-5 2h-6l-2-1-1 1-1 1-1 1h-2c-1 1 1 3 2 2l2-1v-1h1l1-1 1 1h6l4-1 3-1 5 1h6l2 1v-1l-2 1-3 1-2 1-1 2-5 1h-3l-2 1a1 1 0 0 0-1 2l2 1h1l-1 1-2 1v2l-3 1-3 1-1 2v2l-2 1-2 1-2 2v4l1 2 2 1h2l1 1v1l4 2h1-5l-4 2a2 2 0 0 0 0 1l1 2h1v3l3 2-1 2h-1l-1 1h-1c-1 4 3 4 6 5h1c0-1 0-1 0 0h-2l-3 1-2 1a1 1 0 0 0 0 1l1 1h1s0-1 0 0l-2 1-2 1h-3l-2-1c-2-1-4 0-4 1-1 1 0 3 1 3l2 1h2l1 1v1h-7l-1 1 3 3 3 2 2 1 1 1v2l1 2h-5l-2-1v-2l-2-1-3-1c-2 0-2 2-2 3v1l-1 1-1 1a1 1 0 0 0 0 1l2 1 2 2 3 1 2 1h2v-2l-6 3-2 2-4 1-1 1-1 1-4 1h-4l-1 1h-5l-2-1c-1 0-3 0-4 2v2l-1 1-1 1-2 3-3 2-5 3-3 1h-4l-5 2-1 2-3 1 1 2v1s1 0 0 0v1a1 1 0 0 0-1 1l1 1-1 1-1 1-1 3h-2a2 2 0 0 0-2 1l1 3v3l-2 3-1 3a3 3 0 0 1-2 3 2 2 0 0 1-2-1l-1-1-4-2-3-1h-1l-2-1a1 1 0 0 0 0-1l-1-1-2-2-2-2-2-2-1-2-2-2v-2l1-2c0-1 0-3-2-4h-4v-1l-1-3-1-1-2-2v-1l-1-1v-4l1-1v-2h-1 1a1 1 0 0 0 1 0l1-3 2-2 4-1c1-2 3-4 2-6 0-2-2-3-4-3l-2 1-2 1-1 2 1-1h-3c-1 0-4-1-3-3l1-1v-2h3l2 1h6l1-3c-1-2-3-3-5-3l-2-1-3-1-3 1h-1l-1-1s-2 0-1-1l2-3 1-5c0-2-2-4-4-4l-1-2v-1l-1-1-1-2-1-1-1-1-1-1-1-1-1-2-1-1-2-1a1 1 0 0 0-1 0 1 1 0 0 0 0 2c1 1 3-1 2-2l-4-3-5-1h-7l-1 1-2-1h-5l-2 1h-3l-5-1-2-1-1-2-2-1h-2 1l3-1h5c1 0 3 0 3-2l-2-2h-5l-5-1-2-1-2-1c-1-1-3-2-1-2l5-2 2-1 2-2 5-1h2l1-1h3l3-1 1-1v-2l-1-3-2-1a52 52 0 0 1-4 0h1v-1l2-1 5-3 2-1h8a2 2 0 0 0 2-1v-1h1a2 2 0 0 0 0-2v-2h6l3 1c1 0 3 0 3-2l-1-1 2-1 5-1h4v4l2 1a2 2 0 0 0 2 0v-2c0-2 2-1 3 0l2-1-1 1h2l3 1h2l3-1c1-1-1-2-2-3h-1v-1h-1 5l3 1 2 2h1l1 1 3 1h5v-2l-1-2-2-2a6 6 0 0 0-2-1v1h-1 2l2 1 4 1 2-2-2-2-2-1-1-2v-1l-1 1h11l2 1 2 1h2l2 1h1l2-1 3-1v-3h-1c0-1 0 0 0 0l2-1h13l4-1h5l2 1h7l5 1 4 1h2l1 1 2 1 1 1 5 1 2 1h1l-2 1h-2l-4 1h-7l-1-1h-10l-4 1-4 1c-1 1-2 2-1 3h16l2 1v-1c-1-1 0 0 0 0l-1 1v1a1 1 0 0 0 1 1h4l2-1 2-1 5-1a16 16 0 0 1 3 0s0 1 0 0h-1l-1 1-3 3-2 3c0 1 0 2 2 2l3-2 2-1 1-1v-2ZM196 592h-1v-1h-1v1l-1 1a1 1 0 0 0 0 1 1 1 0 0 0 1 1h2l1-1h1a2 2 0 0 0 0-2l-1-1v-1h-1a1 1 0 0 0-1 2h1v1-1 1-1 1-1 1h-1v1-1h1l1-1v-1a1 1 0 0 0-1-1 1 1 0 0 0-1 1v1h1Zm7 39v1s0-1 0 0l-2 1a1 1 0 0 0 1 1h4v-1 1c0-1 0 0 0 0l1-1a2 2 0 0 0 1-1v-1a2 2 0 0 0-1-1l-1-1h-3l-1 1v1a1 1 0 0 0 1 0h3l1 1-1-1v1l1-1c-1 0 0 0 0 0h-1l-1 1h-2v2h1l1-1v-2a1 1 0 0 0-1-1 1 1 0 0 0-1 1Zm7-1v1c0 1 0 0 0 0l-1 1-1 2a1 1 0 0 0 1 1 5 5 0 0 0 3-1v1-1 1l1-1 1-1v-3a1 1 0 0 0-1 0h-1v-1a1 1 0 0 0-2 1v1a1 1 0 0 0 2 1 1 1 0 0 0 0-2v1h-1v1h2-1v-1s0 1 0 0v1-1 2-1a2 2 0 0 0-1 1c-1 0 0 0 0 0h-1v1s0-1 0 0v-1s0 1 0 0c0 0 0 1 0 0h1l1-1v-3h-1l-1 1Zm78 12h-1l-2-1h-3a1 1 0 0 0-1 1 1 1 0 0 0 1 2h1a59 59 0 0 0 3 1l1 1h1l1 1 1-1v-2l-1-1h-1s1 0 0 0a1 1 0 0 0-1-1 1 1 0 0 0-1 1 1 1 0 0 0 1 1l1 1c0 1 0 0 0 0h1l-1-1-2-1-2-1h-1a1 1 0 0 1 0 1h1a8 8 0 0 1 1 0h1l2 1a1 1 0 0 0 1-1 1 1 0 0 0-1-1Z"/><path fill="#0A6DFF" fill-opacity=".4" d="M54 155c-2-2-6-3-8-3s-6 0-6 3v2c-1 1-2 2-3 1l-5-1-5 1h-8a1 1 0 0 0 1-1c0-3-4-6-6-7l-5-1-5-2-6-1-6-1-3 1-3-1-4-1a1 1 0 0 0-1 1c0 2-2-1-3-2l-3-1-7-1v2c1 1 0 1-1 2l-3-1h-5l-1 1-3 1h-4l-1 1-1 2h-8l-6-1-4-2-5-1-7-2h-13c-4 0-8-3-13-3l-6-1c-3 0-5-2-7-3-4-1-7-1-10 1l-3 2-6 2-7 1-4 2-3 5-2 2h-4c-1 1-6 2-3 4 1 2 3 1 4 2l4 4 5 3 3 1v2l-5 1-2-3c-4-2-7 1-9 3-2 0-7 2-5 4h2l1 2 4 3 4 1h6l4-1h1l1 2c0 2-1 3-3 4l-5 1c-2 0-3 2-5 3s-4 4-3 7l3 2-1 1v2c1 3 4 3 7 4h1l2 2 2 1 3 2h10c1 1 0 2-1 3l-2 3c-3 2-7 3-9 6-1 1-3 3-5 3l-5 2c-2 1-1 5 1 5 2 1 3 0 4-1l5-3 4-2c2-1 3 0 4-2l1-2 3-1 2-2 3-1 1-2 4-2 4-2c2-1 6-3 4-5l-2-1v-2l2-1 1-2 4-2 2-1c1 1-4 3-5 4-1 2 0 5 2 5l4-1 3-1 4-1 2-1v-5l-1 1 5 1 4 2 6 3h11l5 4 3 2 4 1 4 2 3 2h2a3 3 0 0 1 2 1l2 4 2 2 2 1 1 2 5 8 1 4 2 1 1 1 2-1-1 1c4 0 1 8 3 10l6 3 3 2h3l3 1 2 2h-2l-3 1v6l2 4c1 2-1 4-1 6v12l2 5v5l1 2 1 4 2 4 3 3 1 2 3 2 2 2 3 1 3 2c2 1 2 1 2 3l1 3-1 2 1 1c2 0 2 1 3 2l2 5 3 2c2 1 2 2 2 4l2 4c2 1 4 2 4 5l2 5 5 2c2 1 4 2 6 1a1 1 0 0 0 0-1c1-2 0-2-2-3l-2-2-2-4-3-6-1-2-1-3-4-3-3-5-1-2 1 1h2l2 3v2c0 2 1 3 3 3l3 4 2 2 3 5 2 4 3 3c3 2 5 2 6 5l3 3c2 3 1 4 1 6s0 2 2 3 3 4 6 5l4 1 4 2 7 3v-1c0 3 6 2 9 2l7 1 7 5 4 3 7 3 3 1 3 1 2 4 1 3 5 3 4 2 3 3 5 2h3l1-1 2-1 1-1h3v3c1 2 4 2 4 4v9c-1 2-2 2-4 2l-1 2c-1 1 0 2-2 3l-2 2v3l-2 2v6l1 2h1l-2-1v1l-1 3-1 3c0 2-1 5 1 6l3 2c2 2 1 3 2 5a16 16 0 0 0 3 4h1v3l1 4 5 7v3l2 2 4 2 3 2 3 3 3 2 4 3c2 0 3 0 3 2v5l-1 5-1 3v3l-1 2 1 3v13l-2 2-2 3v3l1 7-1 4-1 5-2 4-2 3c-2 2-1 5-1 7l1 6-1 5a1 1 0 0 0 1 1v-1 13l-2 4-1 5-1 4c1 2 2 3 1 5l-1 3 1 3 1 1-1 1v4l1 5c1 2 3 2 5 3l3 1 4-1-1-1c1 3-1 2-2 4l-1 2 1 3 4 2h15l3-1a1 1 0 0 0 0-2l-2-2-2-1-2-2c-1-2-3-1-4-2l-1-1v-9l2-3c2-1 1-3 3-5l6-4 1-1 1-2a1 1 0 0 0 0-1c-1-2-4-2-5-2-2-1-4-3-3-5l3-1 4-2v-2l2-3 1-3v-2c0-2-3-1-3-3s5-2 7-2l3-1v-6l1-1h7l5-1 2-3 3-2v-4l-2-5-3-2-1-1 1 1h3l3 1 6-1c2 0 4 0 5-2 2-1 2-3 3-5l2-2v-3l5-6 2-2 3-4 3-4v-7l2-1 3-3 9-4 6-1c2 0 3-2 4-3l2-5 2-2 1-2 3-7v-8l1-4c0-2 0-4 2-5l3-2 2-4 4-7 1-3v-4l-1-6c-1-2-4-2-6-4l-4-3-9-2 1 2h1l-1-2-2-1-3-1c-2 0-5-1-7-3l-8-4c-3-1-8-1-9-4v-5l-2-2-2-1v-2l-3-3-4-3-5-2c-4-2-10 0-13-4-2-3-5-6-8-7-3-2-7-4-11-4l-13-2 1 2v-1a1 1 0 0 0-1-1c-3-2-6-3-10-2l-5-1-4-2c-3 0-5 3-8 4l-4 1-2 4-2 2-3-1h-5l-5 1-6-2-4-5v-3l1-3c1-2 4-3 4-6s-1-5-4-5h-12c-2-1-4-1-4-3-1-1-2-2-1-4l3-3 1-3 2-3c1-1 0-3-2-3h-5l-4 1-4 3-1 3c-2 5-9 3-13 2l-4-3-3-1v-4l-2-10 1-4 1-1v-2l-1-2 1-1v-1l1-3c2-2 2-3 5-4l6-1h14l1-1 4-1h4l1 1 4 1c2 0 5 0 5 2l1 6 4 7 5 4c2 0 4-2 5-4v-12l-4-3c-1-1-3-2-2-5 0-2 0-4 2-5l3-2 1-2 3-2 3-2 4-4c2-1 4-2 4-5l-1-3c-2-2 0-5 2-6l3-3c0-2-1-5 2-6l4-1 5-2 2-3c1-2-1-4 2-6l6-2c1-1 5-3 6-2v3l1 2h3l6-2v-2l-2 1 1 2 6-4v-1h1l1-1c1-1 1-2 3-2 2-1 4-1 2-4a4 4 0 0 0-2-1c-2-1-2 0-4 1h-3v-1l-3-1c-1-1-4-1-4-3l2-1 2-2c1-3-3-4-5-4-5 0-9 2-14 1l1 1 3-3c1-2 2-3 4-3l10 1h7l7-2 7-4 6-3c3-2 1-7-2-9l-1-3-1-2c-2-2-5-1-7-2l-5-2 1-4-1-6c-1-2-4-3-5-6 0-2 0-3-2-4-1-2-6-5-8-2l-1 2c0 2-1 3-3 4h-5l-3-2-2-2-1-5c0-2 0-3-2-4l-4-2-3-2c-2-2-4-2-6-1h-15l-1 3v7l1 2-2 4c-1 1-3 3-2 4 0 2 2 4 4 4 3 2 4 5 3 8 0 3-2 5-6 5l-4 3 1 5 1 3c1 1 2 3 1 4-2 2-3 0-5 0l-3-3v-7l-1-6-7-1h-7l-3-1-4-2-7-5-6-1h-2l-1-1 1-3c0-2 0-3-2-4s-5-2-5-5v-4l4-3 3-5 4-3c2-2 2-5 5-5l3-1 2-1 4-6 1-1c0-2-1-5 1-6 3 0 4 2 7 3l6-2 1-2 2-3c2-1 2-2 2-4-1-2 0-3 1-4l1-2-5-4-7-2h-3l-3 1-1 5 1 3a4 4 0 0 1-3 4h-4v-4c0-2-1-3-3-4h-5c-2 0-2-1-3-3-1-1-3-2-3-4l-1-5-2-2-1-5-2-3 5-2c2 0 4-2 5-4 2-5-6-4-8-4l-8 1c-2 0-2 2-3 4s0 3 1 5l1 4-3 4c-1 2-2 3-1 5 0 2 2 4 4 5s5 2 4 5c0 1-2 3-3 2v-4c-2-4-8-3-11-3a1 1 0 0 0-1 1l-1 3-1 1a2 2 0 0 0 0 2h2c1 1 2 0 2 2l-3 1H59c-2-2-5-3-8-3v2c4 0 7 3 11 3h12c2-1 2-4 1-6h-2l-1-1h1l1-4-1 1 7 1a4 4 0 0 1 2 3v2a1 1 0 0 0 1 1c1 0 3 1 5-1l1-4-2-5c-2-1-7-2-6-5l3-6 1-5-2-4 2-4c2-2 6-1 9-1 1 0 4-1 4 2l-4 3c-2 0-4 0-5 2v4l1 4 2 2 2 4v3c0 2 1 2 3 4 1 1 1 4 3 5 3 1 4-2 7-1s1 4 1 7l3 2c4 0 7-2 8-6l-1-6c0-2 0-2 2-2l5 1 3 1 3 1 1 3-1 1v3c0 3-3 3-4 6 0 1-1 2-3 2-2 1-3 0-4-1-3-1-7-1-8 2v4l-2 3-1 2-5 3-4 2-1 2-3 3-4 3-1 3-4 3-1 3 1 7 4 3c1 0 2 0 2 2l-1 3 1 3 6 1c4 0 6 1 8 4l7 3 6 1h7c5 1 3 5 3 8v6l6 3c2 1 3 2 5 1l2-5c0-2-2-3-3-5v-4c0-2 1-2 3-2l5-2c2-3 3-9 0-12l-2-2-3-2c-3-2 2-4 2-6l1-5-1-1 1-4v-3h-1 18l6 4 2 1 1 3v3l4 6c3 2 8 3 10 1l4-4c0-1 0-3 2-3l3 2c1 1 2 1 2 3l1 2c0 2 3 3 4 5l1 2-1 5 1 4 7 3c2 0 4 0 5 2v2c1 2 4 1 4 5 0 3-3 4-6 5l-6 4-8 2c-5 0-11-2-17-1l-4 2-3 3-1 3a1 1 0 0 0 1 1l5 1 5-1h6l1 1h-1l-1 1c-2 1-2 3-1 4 1 3 5 2 6 4s3 2 5 1l3-1a2 2 0 0 0 2 0l-2 1-3 1-1 2-2 1a6 6 0 0 1-4 4v2l2-1c1 0 1-2-1-2l-4 1-3 1h-1v-2c2-2 1-3-2-3-4 0-8 2-11 4-3 1-5 2-5 6 1 3-2 4-5 5l-3 1-2 1a4 4 0 0 0-3 2l-1 5-3 3-2 5 1 2c1 1 2 2 1 3l-3 3-2 2-3 2-3 2-3 2-1 1-2 2c-3 2-4 6-4 9s4 4 6 6c1 2 2 5 1 7l-1 2 1 2a3 3 0 0 1-1 2h-3l-2-3-3-4-1-5c0-3-1-5-4-6h-7l-2-2c-2-1-6-1-8 1l-3 1h-8l-11 1c-3 1-5 3-7 6v8l-1 1-1 4 1 5 1 7c-1 3 1 5 4 6l9 4c4 0 6 1 10-2l1-3a7 7 0 0 1 5-5h6c2 0 1 0 1 1l-2 2c-1 2-1 4-3 5l-2 4 2 3c0 1 0 2 2 3h9l6 1c3 0 3 3 2 5l-3 3-1 5a4 4 0 0 0 0 3l4 5c2 2 6 3 9 3l6-1 5 1c3 0 4-1 5-4 1-2 3-3 5-3l4-2c2-2 3-2 5 0l3 1h6l7 2v-1a1 1 0 0 0 1 1l9 2h7l6 3 5 3 4 5c2 2 6 3 9 3l6 1 4 2 2 2 3 2v2l2 2 1 1c2 1 1 2 1 4l1 3c1 2 4 2 7 3l6 2 3 2 2 2 5 2 7 2v-2h-1c-1 1 0 2 1 2l7 2 4 3 2 1 3 1c2 2 2 6 2 8l-3 7-4 6c-1 3-4 3-5 6l-1 6-1 9-3 8-3 3v3l-3 3-2 2h-3l-8 2-5 4-2 2h-2l-1 6-1 4-3 4-2 2-2 3-4 4-1 4-2 2c-1 2-1 5-3 5l-6 2-7-1h-5c-1 1 0 2 1 3l5 4v2c1 2 1 2-1 3-1 2-3 5-5 5h-9c-1 0-3 0-3 2 0 1 1 6-1 6l-7 1c-2 0-2 2-2 4l1 1 2 2-1 1v1l-1 3-1 3-2 1c-1 0-4 1-5 3-1 1 0 3 1 5l2 1 5 2v-1 1l-1 2-2 1-6 4v2l-3 3-2 6 1 3v4c0 2 1 2 3 2l2 1v1l2 2 2 1 3 1v-1l-2 1h-15l-3-3 1-1c2-2 2-3 2-5a1 1 0 0 0-1-1l-3 1-5-2-2-2-1-4v-3l1-1-1-1-1-3 1-2 1-2-1-3v-6l1-2 1-5c1-2 2-5 1-8v-6a1 1 0 0 0-1-1h-1l1 1 1-5v-3l-1-5 1-4 1-3 2-3 2-7 1-8-1-4 1-2 2-3 2-5-1-5v-5l-1-3 1-4 1-3 1-5v-8l-2-1-4-3c-2 0-3-1-4-3l-3-2c-1-2-4-2-5-3l-4-3v-3l-5-6c-2-3 0-5-1-7l-1-2-2-2-2-4-2-3-2-1-1-4v-1l1-3 1-4-1-1h-1a1 1 0 1 0 1 2 1 1 0 0 0 1-1v-5l1-2 1-3c0-2 3-2 3-4l2-3 3-2 1-5v-8c-1-2-3-1-4-4v-1l-2-2a4 4 0 0 0-4 0l-2 2c1 0 1 0 0 0h-2v1h-2l-7-5-6-3-3-4-1-3c-2-1-3-3-5-3l-7-2-3-2c-2 0-2-1-3-2l-8-5c-2-2-4-2-7-2h-8a1 1 0 0 0-1-1l-7-3-4-2-4-1-6-4-1-3v-2l-1-4-2-2-2-2c-2-4-7-4-8-8l-2-4-5-6-4-4c-1-1-2-1-2-3v-3l-4-3h-4l-1 2 2 3 2 3 3 3 4 8 3 6 2 3c1 0 4 2 3 3l1-1c-2 1-4-1-6-1-1-1-3-1-3-3l-1-2-2-4-1-2c-2-1-3-1-3-3v-4c-1-2-3-2-5-3l-3-6-1-1-2-1-1 1h1c1-4 1-8-2-10l-5-3-3-1-4-3-1-2-2-3c-2-1-1-4-2-6-1-1-2-1-2-3v-4c1-2 0-3-1-5l-1-7v-3l1-5v-4l-2-4v-4c-1 1 0 0 0 0h2l3-1c2-3-3-5-5-6h-4l-3-1-2-2c-2-1-3-1-4-4v-6l-4-2a1 1 0 0 0-1 1h2a1 1 0 0 0-1-1l-3-3-2-5-2-3-1-2-1-2-2-2c-2 0-2-1-2-3-1-2-2-4-4-4h-3l-1-1-2-1-4-2-3-1-3-1-2-2-2-2-10-1-6-1-4-3-3-1-6-1a1 1 0 0 0-1 1v4l-6 1-2 1-2 1c-3-1 2-4 3-4 1-2 2-5-1-5l-4 1-4 3-1 2-2 2-1 2 3 2c0 2-4 3-5 3l-5 2-1 2-3 2-5 2-3 3-1 1-2 1-4 3-4 1-2 2-1-1c-1 0-1 0 0 0v-1l5-1 5-4 8-5 2-3c1-1 2-1 2-3 1-2-1-4-4-4h-8l-2-2h-1l-1-2-3-1-4-1-2-3 1-1c0-2-2-2-2-3-2-2 1-4 3-5l1-1 4-2 4-1 3-3v-4c0-3-4-2-6-2l-4 2-3-1-4-1-2-2-3-3c-1 0-1 1 0 0l3-1c1-1 4-3 6-2l2 2c2 2 6 0 8-1 1 0 3-2 1-4l-4-2-6-4-4-3-2-1h-1 2l5-2 4-3c1-2 1-4 5-5l6-1c3 0 6-1 8-3l5-2c2-1 5 0 8 2l12 2c4 1 7 3 11 3h14l7 2 6 2 3 2a38 38 0 0 0 12 0l2-1h2l1-1c1-2 1-1 2-1l5-1 2-1 4 1c1 1 3 0 4-1 2-1 2-3 0-4v1c2 0 5 0 7 2 2 0 2 2 4 3s3-1 3-3l-1 1c2 0 2 1 3 2h12l6 1 5 2 5 1 3 2 2 2h-1v3c2 2 7 1 9 1l6-1c3 0 4 2 6 1l4-1v-4c-1 0 0 0 0 0h2l2-1 6 2c1 1 3-1 2-1Z"/><path fill="#0A6DFF" fill-opacity=".4" d="M140 356h-2a38 38 0 0 1-5-1l-1-1h-3l-2 1h-2l-2 1-1 1a1 1 0 0 0 0 2l1 1c1 0 0 0 0 0h8s1 0 0 0h1l1 1 2 1h4l2 1 2 1v1h2-1l1 1 2 1h9a2 2 0 0 0 2 0 2 2 0 0 0 0-2l-2-2h-1l-1-1h-1l-4-2h-2l-2-1-1-2a10 10 0 0 0-3 0l-1-1v1a1 1 0 0 0 0-1 1 1 0 0 0-1 0 1 1 0 0 0-1 1 1 1 0 0 0 1 1h1a11 11 0 0 1 3 1v1l2 1 1 1h2l4 2h1l1 1h2c-1 0 0 0 0 0 0 1 0 1 0 0v1c0-1 0 0 0 0v-1h-7a11 11 0 0 1-3 0 2 2 0 0 0-1-2l-1-1-4-1-2-1h-2l-2-1a4 4 0 0 1-1 0l-1-1h-8s-1-1 0 0l-1-1s0 1 0 0v1h2l2-1 1-1h4l2 1a57 57 0 0 0 6 1v-2Zm30 12c2 0 2-2 0-2h-7l-2 2v2l-2 1h-2a2 2 0 0 0-1 2l1 1 3 1h2l2 1h3l1-1a4 4 0 0 0 1-1h6l2-1v-3h-2v-1h-1l-1-1-1-1h-2a1 1 0 0 0-1 1 1 1 0 0 0 1 1h1l1 1h1l1 1h1v1c0-1 0-1 0 0 0 0 0-1 0 0h1-7l-1 1h-1l-1 1h-1l-1-1h-3l-1-1h-1a3 3 0 0 1-1 0v1h1l1-1c2 0 3-1 3-3v-1h-1 8c2 0 2-2 0-2v2Zm18 5v-2h-6a3 3 0 0 0-2 2v2l2 1c1 0 0 0 0 0h5l1-1a2 2 0 0 0 1-1 4 4 0 0 0 0-1 1 1 0 0 0-1-1 1 1 0 0 0-1 1v1s0-1 0 0l1-1-1 1h-5s-1 0 0 0v-1s1 0 0 0h2a9 9 0 0 0 4 0 1 1 0 0 0 1-1 1 1 0 0 0-1-1 1 1 0 0 0-1 1 1 1 0 0 0 1 1Zm-46 1h2l2-1 2 1h1-1c1 0 0 0 0 0h-4v-1h-1a1 1 0 0 0-1-1l-1 1 3 3h6a2 2 0 0 0 0-2l-1-2h-7c-2 0-2 2 0 2Zm81-122a1 1 0 0 0 1 0l2 1v2l1 2h1c-1 0 0 0 0 0v1h1l1 1s0-1 0 0l-1 1v1h-1l-1-1-4-1-2 1h-3l-1-1-1-1h-1l-2-1h-4v-1l2-1 1-2 2-1 1-2 2-1v-2l1-1 1-1 1-1h2c1 0 0 0 0 0a1 1 0 0 1 0 1h-1l-2 3c-1 2 0 2 1 3h2l2 1h1c2 0 2-2 0-2l-1-1h-3c-1 0 0 0 0 0-1 0 0 0 0 0v-2l2-1 1-1v-2l-2-1h-2l-2 2-2 1-1 2v1l-1 1-1 1-2 2-2 1v1h-1v1l-1 3 2 1h1c-1 0 0 0 0 0h1l2 1h2c-1 0 0 0 0 0l1 1h1l1 1h4l1-1 1 1h2l2 1 2-1 2-3a2 2 0 0 0-1-2l-1-1h-1l1 1v-1l-1-1v-1c0-1-1-3-3-3h-1a1 1 0 0 0-1-1 1 1 0 0 0-1 2Zm-23-1-1-1h-4l-1-1a1 1 0 0 0-1 1c-1 1 0 2 1 3h2l2 1 2 1a2 2 0 0 0 2-1 1 1 0 0 0 0-1l-1-2h-1c-1-1-2 0-1 1a9 9 0 0 0 1 1v1-1s1 0 0 0c1 0 1 0 0 0h1-1l-1-1h-1l-2-1h-2c-1 0 0 0 0 0v1h5l1 1a1 1 0 0 0 1-1 1 1 0 0 0-1-1Zm-63-71-2-2-3-2h-2a11 11 0 0 1-3-1l-1-1-2-1-2-1h-1l-1-1h-3a4 4 0 0 0-3 2v4h1-1l1 1-1 1-2 1c0 1 0 2 2 3h4l1 1 3 1 2-1 1-1v-1h1l2 1 5 1h4a2 2 0 0 0 1-2v-2l-2-1h-1a1 1 0 0 0-1 0 1 1 0 0 0 0 2 1 1 0 0 0 1 0c1 0 0 0 0 0a10 10 0 0 1 1 1s0-1 0 0v-1 1h-3l-4-1-4-1a2 2 0 0 0-1 1l-1 1v1h-2l-1-1-2-1h-4 1v-1h1v-3l-1-2 1-1v-1h2a7 7 0 0 1 2 0l1 1h1l1 1 2 1 1 1h1l2 1h2l1 1 2 1h1c-1 0 0 0 0 0 0 2 2 2 2 0Z"/><path fill="#0A6DFF" fill-opacity=".4" d="M131 185a1 1 0 0 0-1 0l-2-1-2 1-2 1-1 2v2l2 1h2l2-2 1-2v-1l-1-1v1h-2a1 1 0 0 0 2 1 1 1 0 0 0 0-1 1 1 0 0 0-1-1 1 1 0 0 0-1 1l1 1v1h-1c1 0 1 0 0 0v1c0-1 0 0 0 0l-1-1-1 1h-1s1 0 0 0c0 0 0-1 0 0 0-1 0-1 0 0h1v-1s0-1 0 0l1-1h1l1-1h2v1l-1-1a1 1 0 0 0 1 1 1 1 0 0 0 1-2Zm7 2h-2l-1 1-2 3a2 2 0 0 0 2 2c2 1 3 0 3-1l1-1v-4a1 1 0 0 0-1-1l-1 1v3a8 8 0 0 0 0 1h-1c0 1 0 0 0 0 0 1 0 0 0 0s0 1 0 0c-1 0 0 1 0 0-1 0 0 0 0 0h-1c1 0 0 0 0 0s1 0 0 0l1-1v1-2h1s-1 0 0 0h1a1 1 0 0 0 1-1 1 1 0 0 0-1-1Zm25-51 1 1h2l2 1h3l1 1v1l2 1 2 1 2 1h1l1 2 1 1v3l1-1h-3l-2 2a3 3 0 0 0 1 3l1 1 1 1 1 1h2l3 1 4 2 2 1 2 1h1l2 1a12 12 0 0 1 2 0v4l-1 2-1 2a1 1 0 0 1-1 0l-2 1-1 1v1s1 0 0 0h-2l-1-1h-1l-1-2-1-1-2-2c-1-1-3-2-5-1l-2 2 1 3 2 2 1 1h1l3 2 2 2 1 2a17 17 0 0 1 0 4v1c-1 0 0 0 0 0h-3l-6-3-3-1-2 2a3 3 0 0 0 1 2l2 2 3 1 2 1 1 1h1-8l-4-1-1-1-2-1-1-1-2-1v-1h-1l-1-2-1-1-1-1-3-3-3-1-4 1h-2l-1 1h-4l-1-1h-1v-1l1-1h1l2-1 4-1h7l1-4-1-1h-1v-1 1l1-1h2l2-3 1-4-2-3v-1a2 2 0 0 0-1-1l-1-1-2-1h-2v-1l-1-1h-2l-2-1h-1l-1-1v-2l-3-2-2-2c-2-1-6-2-6 1l1 2v-1l-2 1-4-1-4-1h-3l-2-1h-10l-4-1-2-1h-1l-1-1v1h1l3-1v-3l-1-1-2-1h-3a7 7 0 0 0 0-2v-4l3-2v-2a1 1 0 0 1 1-1l1-1h2l2-1h4v-1l-1 1-1 1-1 2-1 1v4l1 1v1l2 3h2l2 1 3-2-1-3-3-3v-1l1-1 1-1 1-1h2l2-1h3l3 1 1 1v3l-1 1a2 2 0 0 0 0 2l1 1h8l2-1 1-1h9l2 1 1 1 1 1 3 2 3 1 1-1h1l-2-1-1-1-1-1h-1l-2-1-1-1-2-1-2-1h-9l-2 1-2 1h-3a7 7 0 0 1-3 0c0-1 0 0 0 0l1-1v-1l-1-5-2-1-2-1h-6l-2 1-3 2-1 1v1l-1 2 1 2h1l1 2 1 1a1 1 0 0 1-2 1l-2-1-1-1v-3l-1-1v-2l2-2c1-1 2-2 1-4h-5l-2 1h-3l-2 1-1 3v1l-1 1a6 6 0 0 0-2 3v6l3 1h1l1 1 2 1h-3l-2 1 1 2 3 1 2 1 3 1h11l2 1h1l5 1 3 1 3-1h3v-3h-1s0-1 0 0v-1 1h1l4 2v1l1 1h1v1l2 2 1 1h1l1 1h2v1l2 1 3 1h1a2 2 0 0 0 1 2l1 2v3l-2 1-1 1-3 2 1 2 1 2c1 0 1 0 0 0 1 0 0 0 0 0h-6l-6 1-1 1h-1l-2 2 1 4 2 1h6l2-1a34 34 0 0 1 5-1l2 2 1 1 1 1 1 1a20 20 0 0 0 3 3l1 1 1 1h1l2 2 3 1 5 1h6l1-3a3 3 0 0 0-2-2l-2-1-2-1h-2l-1-1v-1 1l1-1 1 1 1 1 5 2h4a2 2 0 0 0 1-1l1-4v-3l-1-2-2-2-2-1-2-2-2-1-2-2 1-1h3l2 2 1 2 1 1 1 1 3 1c1 0 3 0 3-2l1-1h1l2-1 1-2v-1l1-1v-5a3 3 0 0 0-2-1l-2-1-1-1h-1l-3-1-2-2h-3l-3-1-2-1-1-1-1-1-1-1s0 1 0 0l1-1h3a1 1 0 0 0 0-1v-4h-1l-1-3h-1l-1-1h-2l-1-1-1-1h-1s-1 0 0 0v-1h-1l-1-1a11 11 0 0 0-1-1h-1l-2-1h-3l-2-1v2Z"/><path fill="#0A6DFF" fill-opacity=".4" d="M151 156h-6l-2 2v3a2 2 0 0 0 1 2h5l2-1 2-1v-3l-1-1h-1a1 1 0 0 0-1-1 1 1 0 0 0 0 2h1a1 1 0 0 0 0-1l-1 1v1h2c0 1 0 0 0 0l-1 1c1-1 0 0 0 0h-1l-1 1h-4v-2l1-1h5v-2Zm-6-36h-6a8 8 0 0 1-2 0h-1c1 0 0 0 0 0a1 1 0 0 0-1 0 1 1 0 0 0-1 2l1 1h1v2l1 1 1 1 4 1 2-1h4l2-1v-2l-2-2-1-1h-1l-1-1v1h-2a1 1 0 0 0 1 1 1 1 0 0 0 1 0v1h1l1 1h1s0 1 0 0v1c0-1 0 0 0 0s1 0 0 0h-7l-1 1h-1c0-1 0 0 0 0v-1a1 1 0 0 1-1-1v-1l-1-2h-1l-1 1h10c2 0 2-2 0-2Zm-25-11h5l1-1h3l4 2h2a1 1 0 0 1 0 1h1-1l-1 2h1-2l-1 1h-22l-1 1v-1h-1l-2-1H96l-1-1s0-1 0 0v-4l-1-1v-2l-2-1-2-1-1-1h-5l-2-1-1-1a12 12 0 0 1 0-1h-1 6l1 1h1l1 1h2l3 1h5l2 1 2 1 1 1v-1l-1 1v2a14 14 0 0 0 5 1l2 1h6l2 1h1l-1-1h2l-2-1h-1l-1-1h-3a8 8 0 0 0-2 0l-3-1-3-1h-1a1 1 0 0 1 0 1h1l1-1a1 1 0 0 0 0-2h-1l-1-1h-2l-1-1-3-1h-4l-2-1h-2l-1-1h-2l-2-1h-5l-1 1v2l2 3a7 7 0 0 0 5 1h2l2 1a10 10 0 0 1 2 1v1l1 2-1 1 1 3 3 2h11a2 2 0 0 0 1 2h2l2-1h21l1-1h1a2 2 0 0 0 1-1v-2 1h1a2 2 0 0 0 1-3h-1l-1-1-1-1-4-1-4-1-2 1h-5c-2 0-2 2 0 2Z"/><path fill="#0A6DFF" fill-opacity=".4" d="M120 104h11v-1c1 0 0 0 0 0h1v1a2 2 0 0 0 2 0h1l4-1h2l1-1 2-1v-3l-2-1a16 16 0 0 0-1-1h-1v1h1l3-1 2-2v-1 1l1-1h3l3-2 2-3-1-3v-1 1-1a2 2 0 0 0 0-1l-1-1-1-1-1 2 2-1a161 161 0 0 0 6-2h1v-1h1v-1h2a15 15 0 0 0 5 0h2l2-1 2-2 3-3 3-3 1-1h2l2-1h2l3-2 1-2h-5 1l4-1 4-1 2-1h2c1-1 4-1 3-3l-1-1-2-1-2-1h-3l-3-2h-2l-2-1h-10l-5-1a46 46 0 0 0-3 0h-1l-5-1-5 1h-9l-4 1-5 1h-4l-1 1h-3l-2 1-1 1-1 1c0 1 0 0 0 0h-3l-4-1a9 9 0 0 0-4 0l-4 2-2 1a10 10 0 0 1-3 1h-4l-2 1h-1s-1 0 0 0l-3 1a2 2 0 0 0-1 1l1 1 2 1 1 1h1l1 1v2a2 2 0 0 0 1 1l2 1 2 1h4l3 1h18a21 21 0 0 0 3-1h1l1-1h1-1v1h-3l-4 1h-2l-2 2a2 2 0 0 0 0 1l1 1s1 0 0 0h1v1h-3l-2-1-1-1-2-1h-5l-2 1a1 1 0 0 0 1 2l1 1 4 2v1h1l1 2v1c0-1 0 0 0 0h-3l-1 1a13 13 0 0 0-6 3 2 2 0 0 0 0 2l1 1h2l2 1 2 1v1h-1l-2-1-5-1h-1l-2 1v4h1-2l-1 1h-2a2 2 0 0 0 0 2c0 2 2 2 3 3h3a93 93 0 0 0 4 1h6a1 1 0 0 0 1-1 1 1 0 0 0-1-1 1 1 0 0 0-1 1l1-1h-8l-2-1h-2l-2-1h-1c1 0 0 0 0 0h1l1-1h1l2-1a2 2 0 0 0 0-1v-2c0 1 0 0 0 0v-1h1-1 3l3 1 4 1 1-3a5 5 0 0 0-5-4h-2l1-1 3-1 2-1h2l2-3c0-1 0-3-2-3l-1-1-3-2-1-1-1-1v1c0-2 0 0 0 0h2a10 10 0 0 0 3 0l1 1h1l2 1 2 1h2l1-1 1-2-2-2c0 1 0 0 0 0h5a22 22 0 0 1 4-1l2-1 1-2a2 2 0 0 0-2-2l-2 1h-3l-1 1h-19l-1-1h-4l-2-1h-1v-1c0 1 0 0 0 0l-1-1-1-2-1-1h-2l-1-1h-1c1 0 1 0 0 0v1l1-1h4l1-1h4l3-1h1l1-1 2-1 2-1h3l3 1h5l1-1 1-1 1-1h3l1-1h4l3-1h3l1-1h11l2-1 6 1h9l2 1h6l3 1h3l5 2h2l3 1s1 0 0 0l1 1v-1h-1l-1 1h-2l-1 1-3 1-5 1-1 1c-1 0-2 1-1 2l2 1h2v-2l-3 2h-2l-2 1h-2l-1 1-1 1-3 3-2 2-2 2-1 1h-2l-3 1-2-1h-2l-2 1-1 1-1 1-2 1h-2l-3 1a1 1 0 0 0 0 1l2 2a2 2 0 0 0 0 2h1s0 1 0 0v2l-1 1-2 2h-4c0 1 0 0 0 0l-1 1a2 2 0 0 0-1 1v1h-1l-2 1-2 1c-1 1 0 2 1 2l1 1a10 10 0 0 1 1 1h1-1a45 45 0 0 1-7 2h-1s-1 0 0 0h-1l-1-1h-1l-2 1h-9v2Z"/><path fill="#0A6DFF" fill-opacity=".4" d="M97 67a10 10 0 0 0-3-1h-6l-1 1v1h-1l-1 1-2 2v1l-1 1h1-1v1h-1v2a2 2 0 0 0 0 1l1 1h1v1l1 1 1 1h5v1h4-1v1h-3l-2 1v1a2 2 0 0 0 1 3 6 6 0 0 0 1 0l1 1h3l3 1h9a14 14 0 0 0 3-2h1l1-1v-1l1-1h1l1-1c2 0 4 0 5-2a2 2 0 0 0-1-2l-2-1-1-1h-3l-1-1v-2a3 3 0 0 0-1-2l-3-1h-3l-3-1-2-1-1-1h-2a1 1 0 0 0-1 0 1 1 0 0 0 0 1l1 1h1l1 1h1l2 1 2 1h3l2 1h1v2l1 2 2 1h2l2 1a5 5 0 0 1 1 0s0 1 0 0v1h-2l-2 1-3 2-1 1-1 1h-1a8 8 0 0 1-5 1h-6l-3-1a14 14 0 0 1-3-1v-1h1a23 23 0 0 0 3-1l1-1c1-2 0-3-2-3h-3l-1-1h-2l-2-1v-1h-1l-1-1v-1l1-1-1 1 1-1v-1l1-1 1-1 1-1a2 2 0 0 0 2-1v-1s0 1 0 0a5 5 0 0 0 1 0h2l3 1h2a1 1 0 0 0 1-1 1 1 0 0 0-1-1ZM83 87a1 1 0 0 0 0-1l-1-1h-2l-1-1h-4a1 1 0 0 0-1 1l1 2v1l1 1v1l1 1 2 2c1 0 0 0 0 0h1a38 38 0 0 1 3 2h5l2-3-3-1s1 0 0 0a11 11 0 0 0-1-1h-1c-1 0 0 0 0 0a2 2 0 0 0-1-2 8 8 0 0 0-2-2c0-1-2-1-2 1l1 1h1s-1 0 0 0v1h1s0 1 0 0v2l2 1 2 1h1-4l-1-1-2-1-2-1h-1l-1-2v-1c0 1 0 0 0 0v-1h-1v-1l-1 1h4l2 1h1l-1-1 1-1v1a1 1 0 0 0-1 1h2ZM72 76a1 1 0 0 0 1-1 1 1 0 0 0-1-1h-4a2 2 0 0 0-1 3 2 2 0 0 0 2 2h1c-1 0 0 0 0 0h3l2-1-1-1-1-1-1-1-1-1a1 1 0 0 0-1 0 1 1 0 0 0 0 2l1 1 1 1a8 8 0 0 1 1 0 1 1 0 0 1 0-1h1-5c0-1 0 0 0 0 0-1 0 0 0 0v-1s0 1 0 0h1c-1 0-1 0 0 0h2a1 1 0 0 0 1-1 1 1 0 0 0-1-1 1 1 0 0 0-1 1 1 1 0 0 0 1 1Zm-9 6h-2l-2-1h-1l-2-1h-7a2 2 0 0 0-2 2l2 2 1 1h1v1h1v2a2 2 0 0 0 0 1l2 1h3l3 1h4v1h1l1 1h5a2 2 0 0 0 2-1l-1-2-3-2-1-1-1-1-2-3-1-1h-2l-1 1a1 1 0 0 0 1 1h1l1 1h1l1 1 1 3 2 2h1l1 1v-1h-5v-1c0 1 0 1 0 0h-1l-2-1h-1l-1-1a11 11 0 0 0-4 0h-3c-1-1 0 0 0 0s0-1 0 0v-2l-1-1-1-2-2-1h-1s0-1 0 0h7a18 18 0 0 1 3 1l2 1h2v-2ZM51 95l-1-1h-1l-2-1h-2l1 3 1 1h1l1 1h1l3 1 2-1c1-1 0-2-1-2l-1-1h-2a1 1 0 0 0-1 1l1 1c1 0 0 0 0 0h1a4 4 0 0 0 1 1v-1h1c-1 0 0 0 0 0h-2l-1-1h-2l-2-1v-1c0 1 0 0 0 0v1h-1 1a7 7 0 0 1 1 0l1 1 2 1c2 0 2-2 0-2Zm19 6h-2a20 20 0 0 1-4 0 2 2 0 0 0-1 1 2 2 0 0 0 0 1v1-1h-2l-2-1-1-1a71 71 0 0 0-4 0h-2a2 2 0 0 0-1 2 2 2 0 0 0 1 1l2 2h1l2 1 2 1a9 9 0 0 0 1 2h1l2 1h2a2 2 0 0 0 1 1l2 1h4l4-1 1-1v-2l-1-3v-1l-1-1-1-1-2-1h-3c-2 0-2 2 0 2h4v1l1 1v1h1v1a10 10 0 0 0 0 3h-1 1-7l-1-1v1-1l-3-1h-1l-2-1v-1l-1-1-2-1h-2l-1-1-1-1h-1s0-1 0 0c0-1 1-1 0 0h4l3 2h4l1-2c0-1 0-1 0 0 0-1 0 0 0 0h-1 6c2 0 2-2 0-2Zm17 7-2-1h-5l-1 2a2 2 0 0 0 1 2l1 1h1v1l2 1 2 1h1l1 1a2 2 0 0 0 1 0 2 2 0 0 0 2-1v-3l-2-3-2-1-3-1a1 1 0 0 0-1 2 1 1 0 0 0 1 1h2l1 1h1l1 1v2s1 0 0 0l-1-1h-2l-2-2-2-1h-1v-1 1-1h4c1 0 0 0 0 0h1l-1-1 1 1a1 1 0 0 0 1-1Zm-13 12v-2h-1l-2 1h-1l-1 1h-2l-3 1v2l1 1h1v1c0 1 0 0 0 0v1s0-1 0 0c0-1 0-1 0 0v-1h-1l-2-1h-4a2 2 0 0 0-2 2l1 1 2 1 2 1a9 9 0 0 1 2 2h1l2 2 1 1 1 1h1l1 1 2 1 3-1 1-1 1-1 1-2v-2l-1-3-2-1v-1 1s0-1 0 0v-1s-1 0 0 0l2-2v-2l-1-2h-1v-1l-2-1a1 1 0 0 0-1 1 1 1 0 0 0-1 0c0 2 2 2 2 1v1l2 1v1a5 5 0 0 1 0 1s-1 0 0 0l-2 1v1a2 2 0 0 0 0 2l2 1h1v5h-1l-1 2s-1 0 0 0h-2l-1-1-1-1h-1l-1-1-2-2-2-1-2-1-4-2s0-1 0 0v-1c0 1 0 0 0 0h1l2 1 1 1h4l1-3a3 3 0 0 0-2-2c0 1 0 1 0 0s0-1 0 0h1l4-1v-1h4v-2a1 1 0 0 0-2 1 1 1 0 0 0 1 1Zm-31-15h-3 1l-1-2-1-2-2-1c-2-1-4-1-5 1a3 3 0 0 0 0 2 3 3 0 0 0 1 2h1l1 1 1 1h1-7l-1-2-3-2-2-1h-3l-3-1h-5l-3 3 1 1h-1v1H9l-1 1v3l1 1 2 1h3l6 1h3v-1h1-2l-1 1h-1l-1 2 2 1 2 1h2l1 1h3l2-1h1l1-1 1-1h1l1-1h6l1-1h2a3 3 0 0 0 2-2v-2l1-2-1-2-2-1h-4v2-2 2h4l1 1c1 0 0 0 0 0v-1 1l-1 2v2h-2l-1 1h-5l-3 1-1 1h-1l-2 2h-2l-3-1h-3l-1-1v1h1l1-1 2-1-1-2h-7l-3-1h-2l-2-1c-1 0 0 0 0 0H9h1v-1 1s-1 0 0 0c-1 0 0 0 0 0l1-1v-1h1v-2l1-1a1 1 0 0 1 0-1h4l3 1h2a9 9 0 0 1 4 1l1 1 2 3h8a1 1 0 0 0 1-1 3 3 0 0 0-1-3l-1-1-2-1v-1h2l2 1 1 2 1 2h3v-2Zm11 5a1 1 0 0 0-1-1h-2l-1 1v3l1 1h4a2 2 0 0 0 1-2 2 2 0 0 0-1-1v-1h-1l-2-1a1 1 0 0 0-1 0 1 1 0 0 0 0 2h1l1 1h1s1 0 0 0h-2v-1h-1c1 0 1 0 0 0h1a1 1 0 0 0 2-1ZM31 89c-1 0 0 0 0 0h-7l-1 1h-1l-1 2c-1 1 0 2 2 3l4 1h8a2 2 0 0 0 2-3l-1-1-2-1-2-1h-3a1 1 0 0 0 0 1h1v-2 3h1l2 1h2v1h-8a6 6 0 0 1-3-1 4 4 0 0 1-1-1h-1 2v-1h8a1 1 0 0 0 0-2 1 1 0 0 0-1 0Z"/><path fill="#0A6DFF" fill-opacity=".4" d="m35 85-4-1-3 1a2 2 0 0 0 0 2l3 2-1-1 1 1h1l1 1h3l1-2-2-2a1 1 0 0 0-1 1 1 1 0 0 0 1 1c-1 0 0 0 0 0v1-1s1 0 0 0h1-1s1 0 0 0h-1l-3-1h1-1l-1-1h-1c1 0 0 0 0 0h1c-1 0-1 0 0 0-1 0-1 0 0 0 0 0-1 0 0 0 0 0-1 0 0 0h1l3 1c1 1 2-1 1-2ZM8 94l-3 1-1 1H2l-2 1h-2l-2 1-1 1-1 1-1 1h-3c-1 1-2 3-1 4l2 1h4l1 1 2 1h1l2-1 1-1 1-2v-1h2l1 1a2 2 0 0 0 2 0h1l2-2v-1c0 1 0 1 0 0v1-1h1a2 2 0 0 0 2-1l-1-2h-1v1l1-1 1-1a2 2 0 0 0-1-2 14 14 0 0 0-4-1H7v3h5v-1 1h-1a1 1 0 0 0 0 2l1 1v-1c-1 0-3 0-3 2 0 0 0 1 0 0 0 1 0 0 0 0a6 6 0 0 1-2 1s0 1 0 0H6a2 2 0 0 0-1-1H2l-1 2a8 8 0 0 0 0 1l-1 2c0-1 0 0 0 0h-2l-1-1-2-1h-3l-1-1c-1 0 0 0 0 0h-1 1c-1 0 0 0 0 0h3s0-1 0 0v-1h1a2 2 0 0 0 1-1c0-1 0 0 0 0v-1h2l1-1a17 17 0 0 0 4-1l1-1 2-1h2v-2Zm-11 23a1 1 0 0 0-1-1l-3-1h-9l-2 2a2 2 0 0 0 1 2l2 1v1h1v1c0-1 0 0 0 0s-1 0 0 0a4 4 0 0 1-1 1l-2 1-1 1v1l-1 1v1l-1 1-1 1a2 2 0 0 0 0 2l2 1 3 1a5 5 0 0 1 1 1l1 1 1 1 2 1 1 1a2 2 0 0 0 2-1h1c0-1 0 0 0 0v-1h1c-1 0 0 0 0 0h1l2-1a2 2 0 0 0 0-2l1-1v-1h1l1-1 1-1v-1s0 1 0 0l1-1a22 22 0 0 0 4-2h2l5-2 2-1c1-1 0-2-1-3h-1l-2-1h-1l-1-1-1-1H7l-1-1H4l-3 1-1-1h-5v1a1 1 0 0 0 1 1h3l2 1h1l2-1h1l1 1h1l1 1 2 1 3 1h1c-1 0 0 0 0 0s-1 0 0 0c0 0-1 0 0 0 0 0-1 0 0 0l-3 1-3 1H6l-3 2-2 1-2 1v2h-1 1l-1 1-2 1-1 1v2s1 0 0 0h-2l-2 1v1h-1v-1l-2-1a10 10 0 0 0-1 0v-1l-2-2h-3l-1-1s-1 0 0 0a2 2 0 0 0 0-1h1-1 1l1-1v-1l1-1h-1 1l1-2 2-1v-4l-2-2h-1v-1 1c0-1 0-1 0 0 0-1 0-1 0 0 0-1 0 0 0 0 0-1 0-1 0 0 0-1 0 0 0 0l1-1h8l1 1h2l-1-1a1 1 0 0 0 1 1 1 1 0 0 0 1 0 1 1 0 0 0 0-1Z"/><path fill="#0A6DFF" fill-opacity=".4" d="M55 139h-1a22 22 0 0 1-2-1h-1c1 0 0 0 0 0v-1l1-1v-2l-1-2-1-1v-1h-1a6 6 0 0 1 0-1s1 0 0 0h1v-1l1-1v-2l-1-1-1-2h-2l-1-1-3 1h-1v3-2h-1l-2 2a3 3 0 0 0 1 3v1h1v2s-1 0 0 0h-1l-1-1-1-1-1-2h-1l-2-1h-2a8 8 0 0 0-1 0c-1 1-1 1 0 0l-1 1h-1v-1c0 1 0 0 0 0l-3-1h-4l-1 1h-1s0 1 0 0c0 1 0 0 0 0v-1l-2-1a13 13 0 0 0-4 0h-1l-2 1-5 2-2 1-1 1v2l-2 1a2 2 0 0 0 0 3l2 1 5 1c1 0 0 0 0 0s1-1 0 0H7l-2 1c-1 2 1 3 2 3l1 1h3l3 1h7a7 7 0 0 1 1 0v-1h-7l-2 1h-3a2 2 0 0 0-2 1 2 2 0 0 0 1 3h2l1 1h1l2 1 3 1h2v1h1s-1-1 0 0v2l2 1 3 1h9l2-1 2-1 3-1 2-2h3l1 1 3 1a29 29 0 0 0 5 0h4l3-1-1-2-2-1s-1 0 0 0h1c-1 0 0 0 0 0h4a3 3 0 0 0 2-3l-2-2-2-1-2-1h-2v-1h-3l-2-1a1 1 0 0 0-1 1 1 1 0 0 0 1 1l1 1h3v1h2l2 1 2 1h1a1 1 0 0 1-1 1h-3c-2 0-3 0-3 2a2 2 0 0 0 1 2h2-6a23 23 0 0 1-7-1 5 5 0 0 0-3-1l-2 1-1 1s-1 0 0 0h-1v1h-1l-5 2h-9a8 8 0 0 1-3-1v-2l-4-2-2-1h-2l-1-1h-1l-1-1h-2s1 0 0 0h2l2-1h9a1 1 0 0 0 1-2l-2-1h-2l-3-1H9l-2-1a3 3 0 0 1-1 0s1 0 0 0c0 0 1 0 0 0h1l2-1 1-1-1-2-5-1H3v-1l2-1v-2l1-1 2-1 3-1 2-1h5s0-1 0 0v2h4l1-1h2l2 1h1l2 1 2-1 1-1c0 1 0 0 0 0l1 1 2 1v1a13 13 0 0 0 3 3c2 0 4 0 4-2v-3h-1s1 0 0 0v-1l-1-1v-1c0 1 0 0 0 0h3a1 1 0 0 0 0-1v-1l-1 1 1-1h2a4 4 0 0 1 1 1h1v1h1v1c0-1 0 0 0 0s0 1 0 0v1l-1 1-1 3 1 1 1 1 1 1v5l1 1 2 1h3a1 1 0 0 0 0-2 1 1 0 0 0-1 0Z"/></g></g><g filter="url(#e)"><path fill="#4590FF" fill-opacity=".3" d="M210 455a3 3 0 1 0 5 0 3 3 0 0 0-5 0Zm266-204a3 3 0 1 0 5 0 3 3 0 0 0-5 0ZM213 455c-3-69 39-151 95-200 28-25 58-41 88-44 30-2 59 10 82 41l1-1c-24-31-53-43-83-41-30 3-61 19-89 44-55 49-98 132-95 201h1Z"/></g><g filter="url(#f)"><path fill="#4590FF" fill-opacity=".3" d="M195 556a3 3 0 1 1-6 0 3 3 0 0 1 6 0ZM62 325a3 3 0 1 1-6 0 3 3 0 0 1 6 0Zm130 230c3-68-16-155-43-210-7-14-14-26-22-34-7-9-15-16-23-18-7-3-15-2-23 3-7 5-15 15-22 30l-1-1c7-15 15-24 23-30 8-5 16-6 24-3s15 9 23 18c7 9 15 21 22 34 27 56 46 143 43 212l-1-1Z"/></g><g filter="url(#g)"><path fill="#4590FF" fill-opacity=".3" d="M12 230a3 3 0 1 0 6 0 3 3 0 0 0-6 0Zm421 132a3 3 0 1 0 5 0 3 3 0 0 0-5 0ZM15 231c61-73 158-66 243-28 43 19 83 46 115 75 31 28 54 58 62 84h1c-8-26-31-57-63-85-31-29-71-56-114-75-86-38-183-45-245 28l1 1Z"/></g><g filter="url(#h)"><path fill="url(#i)" fill-opacity=".3" d="M263 136a3 3 0 1 0 5 0 3 3 0 0 0-5 0Zm344 116a3 3 0 1 0 6 0 3 3 0 0 0-6 0ZM266 137c35-33 71-44 107-42 35 2 70 17 101 38 32 20 60 46 84 68l30 31a351 351 0 0 1 1-1l-31-31c-23-22-51-48-83-68s-67-36-102-38c-36-2-73 9-108 42l1 1Z"/></g><defs><filter id="c" width="821.3" height="668.9" x="-199.4" y="119.8" color-interpolation-filters="sRGB" filterUnits="userSpaceOnUse"><feFlood flood-opacity="0" result="BackgroundImageFix"/><feBlend in="SourceGraphic" in2="BackgroundImageFix" result="shape"/><feGaussianBlur result="effect1_foregroundBlur_11826_41898" stdDeviation="99.3"/></filter><filter id="d" width="803.1" height="792.7" x="314.5" y="183.1" color-interpolation-filters="sRGB" filterUnits="userSpaceOnUse"><feFlood flood-opacity="0" result="BackgroundImageFix"/><feBlend in="SourceGraphic" in2="BackgroundImageFix" result="shape"/><feGaussianBlur result="effect1_foregroundBlur_11826_41898" stdDeviation="99.3"/></filter><filter id="e" width="304.8" height="280.5" x="193.1" y="195.6" color-interpolation-filters="sRGB" filterUnits="userSpaceOnUse"><feFlood flood-opacity="0" result="BackgroundImageFix"/><feColorMatrix in="SourceAlpha" result="hardAlpha" values="0 0 0 0 0 0 0 0 0 0 0 0 0 0 0 0 0 0 127 0"/><feOffset dy="2.1"/><feGaussianBlur stdDeviation="8.3"/><feComposite in2="hardAlpha" operator="out"/><feColorMatrix values="0 0 0 0 0.109896 0 0 0 0 0.446452 0 0 0 0 0.879167 0 0 0 0.6 0"/><feBlend in2="BackgroundImageFix" result="effect1_dropShadow_11826_41898"/><feBlend in="SourceGraphic" in2="effect1_dropShadow_11826_41898" result="shape"/></filter><filter id="f" width="172" height="301.1" x="39.5" y="275.9" color-interpolation-filters="sRGB" filterUnits="userSpaceOnUse"><feFlood flood-opacity="0" result="BackgroundImageFix"/><feColorMatrix in="SourceAlpha" result="hardAlpha" values="0 0 0 0 0 0 0 0 0 0 0 0 0 0 0 0 0 0 127 0"/><feOffset dy="2.1"/><feGaussianBlur stdDeviation="8.3"/><feComposite in2="hardAlpha" operator="out"/><feColorMatrix values="0 0 0 0 0.109896 0 0 0 0 0.446452 0 0 0 0 0.879167 0 0 0 0.6 0"/><feBlend in2="BackgroundImageFix" result="effect1_dropShadow_11826_41898"/><feBlend in="SourceGraphic" in2="effect1_dropShadow_11826_41898" result="shape"/></filter><filter id="g" width="459.6" height="224.3" x="-4.5" y="159.3" color-interpolation-filters="sRGB" filterUnits="userSpaceOnUse"><feFlood flood-opacity="0" result="BackgroundImageFix"/><feColorMatrix in="SourceAlpha" result="hardAlpha" values="0 0 0 0 0 0 0 0 0 0 0 0 0 0 0 0 0 0 127 0"/><feOffset dy="2.1"/><feGaussianBlur stdDeviation="8.3"/><feComposite in2="hardAlpha" operator="out"/><feColorMatrix values="0 0 0 0 0.109896 0 0 0 0 0.446452 0 0 0 0 0.879167 0 0 0 0.6 0"/><feBlend in2="BackgroundImageFix" result="effect1_dropShadow_11826_41898"/><feBlend in="SourceGraphic" in2="effect1_dropShadow_11826_41898" result="shape"/></filter><filter id="h" width="383.4" height="194" x="246" y="79.5" color-interpolation-filters="sRGB" filterUnits="userSpaceOnUse"><feFlood flood-opacity="0" result="BackgroundImageFix"/><feColorMatrix in="SourceAlpha" result="hardAlpha" values="0 0 0 0 0 0 0 0 0 0 0 0 0 0 0 0 0 0 127 0"/><feOffset dy="2.1"/><feGaussianBlur stdDeviation="8.3"/><feComposite in2="hardAlpha" operator="out"/><feColorMatrix values="0 0 0 0 0.109896 0 0 0 0 0.446452 0 0 0 0 0.879167 0 0 0 0.6 0"/><feBlend in2="BackgroundImageFix" result="effect1_dropShadow_11826_41898"/><feBlend in="SourceGraphic" in2="effect1_dropShadow_11826_41898" result="shape"/></filter><radialGradient id="a" cx="0" cy="0" r="1" gradientTransform="matrix(799 -411 480 932 219 429)" gradientUnits="userSpaceOnUse"><stop stop-color="#D9D9D9"/><stop offset=".5" stop-color="#D9D9D9" stop-opacity=".1"/><stop offset="1" stop-color="#D9D9D9" stop-opacity=".3"/></radialGradient><linearGradient id="i" x1="377.6" x2="564.9" y1="89.7" y2="203.1" gradientUnits="userSpaceOnUse"><stop stop-color="#4590FF"/><stop offset="1" stop-color="#4590FF" stop-opacity="0"/></linearGradient></defs></svg>