 <svg xmlns="http://www.w3.org/2000/svg" fill="none" viewBox="0 0 390 440">
  <g opacity=".4">
    <mask id="b" width="971" height="440" x="-301" y="0" maskUnits="userSpaceOnUse" style="mask-type:alpha">
      <path fill="url(#a)" d="M-301 0h970v440h-970z"/>
    </mask>
    <g mask="url(#b)">
      <g filter="url(#c)" opacity=".1">
        <path fill="#0D6EFD" d="M250 233c0 19-96 7-120 17-18 9-28 84-53 84-59 0-68-61-68-94s48-60 106-60c59 0 135 20 135 53Z"/>
      </g>
      <g filter="url(#d)" opacity=".2">
        <path fill="#0D6EFD" d="M530 341c0 33-156 99-215 99-58 0 74-66 74-99s-34-125 24-125c59 0 117 92 117 125Z"/>
      </g>
      <path fill="#0A6DFF" fill-opacity=".4" d="M431 59c-5 0-11 2-16 4l-3 4-7 2c-1 0-4 0-4 2-1 2 3 2 4 4h-1l-3-1-2-1c-1 0-5-1-5 1l1 1h-2c-2 2 2 3 2 4v-1h-3l-1-1h1v-3c-1-1-3 1-4 2l-1 2 1 2-1 2c0 1 0 3 2 3h4l1 1h-3l-2 1v2l-2 2c-1 1-1 2-3 2h-1l2-1c2-1 4-3 3-5l-1-1-1-1 1-1v-3c-1-2-2-3-1-5l1-2a1 1 0 0 0 0-1l-2-1h-5c-2 0-3 2-4 3s-4 2-3 4c0 2 2 2 2 3v2l2 1c1 2 0 1-1 2l-4-2-5-2-5-1c0-1-1-2-3-2-1 0-2 2-1 3l2 1c1 0 3 2 1 2l-1-1h-2l-4 1-2 1h-1l-1-1a1 1 0 0 0-1-1l-4 1-3 2-3 1-2 2-3 1v-1l1-1a2 2 0 0 0 0-2l-1-1-4-1c-2 0-1 2-1 4v3c1 2 0 1-2 1-2-1-4 1-5 2l-1 1 1 1v1l-4-1h-3c-2 2 3 3 3 4v-1c-2 1-3 0-4-1h-1v-1l-1-2v-2l-1-1-2-1h2l7 2v-1h-1v2c3 0 6-1 8-3 1-2-1-3-3-4l-4-2-4-3h-3l-4-2-4 1h1l1-1c1-2-2-3-4-3l-4-1-3 2-1-1h-5l-2 1c-1 2-4 1-6 2l-4 2 1 3v-1l-3-1-3 1v1l-1 2h2s3 0 1 1h-2l-4 4-1 3c-1 3-2 4-4 5l-7 4-2 3v8l2 2c2 1 4 2 6 0l3-2 2 1 1 2v2h1l1 2 1 2h2l2-1h1l2-3c0-1-1-3 1-4l2-1 1-4-1-1-2-2 1-3 3-3 4-2v-3l5-2 2 1h-1l-2 2-3 3-2 4v4l1 2 2 1h4l5-1c2-1 4 0 5 1v-1l-2 1-1 1-1 1c-1 0 0 0 0 0l-1-1c-2-1-6 0-8 1l-1 3h3v1h-5l-1 4h1l-1 1c-1 2 1 1-1 2l-1 1h-1l-1 1-1-1h-2l-5 2-5-1h-3l-1-1h1l2-1c1-2-1-2-1-2l-1-4c-1-1-3 1-4 1-1 1-3 3-2 6l1 2h-3l-2 2-2 1-2 3-4 3v1h-2l-1 1-1 1h-3l-1 2 1-1c-1 0-6 0-5 3l2 1c1 1 2 1 2 3l1 1h1a1 1 0 0 0-1 0v3c0 1 0 2-2 2h-11l-1 1c0 1-2 1-1 2 0 2 2 0 1 3l-1 3v2l1 3 1 2h3l3 2 3-2h5l2-2v-1l2-1v-1c-1-1-2-1 0-2l1-1 2-1 1-1 2-2c1-2-1-2 2-2l6-1 3-2 3 1v2l1 2 3 2 3 1c1 1 3 1 3 3l-3 2a1 1 0 0 0 0 1c0 2 3 1 4 0l2-2v-2h1a1 1 0 0 0 1 0c0-3-3-3-5-4l-2-2-2-2-1-1-1-1 2-2 2 1 1 1 1 1 3 2 3 3v4l2 2 1 2 2 1v2c1 2 2 1 3 1a1 1 0 0 0 1 0v-2c0-2 1-1 2-2s-1-2-2-2v-2l1-1 4-1h5v-5l1-2 1-2 1-3 4-1v2l1 1h1v1h4v-3h1l4-2v1l-1 2v1c0 2 3 3 4 4l1 1 3 1c2 1-1 2-2 2l-5 1-4-1-2-1h-3l-2 1-4 1-4 2c-1 0-3-1-4 1v4c0 2 2 2 4 3 1 1 2 3 4 2l2-1h6l3 1v1l-2 2-1 4-1 2h-4l-7 1-6-1-4-2h-3c-2 0-3 0-3 2l-1 1-2 2-3-2-3-1-3-2-4-1-2-2 1-1a3 3 0 0 0-1-2v-3l-2-1-4-1-7 2h-7l-4 3h-8a1 1 0 0 0-1 0l-6 5-2 4v1c1 1 0 1-1 2l-2 3-4 3-4 5-1 3-1 1-1 1v4l1 2v2l1 2-1 2c-1 2-2 4-1 6h1l1 2 1 1 1 2 1-1h-2l2 1 2 3 3 4 4 3 4 3 5-1h12l5-3h4l2 2c0 2 1 2 2 2l5 1v3l-1 3c0 1-2 1-1 3l2 3 2 4 3 3v2l1 1v3c0 2 3 4 1 5l-1 1-1 2-1 3-1 2v1a1 1 0 0 0 0 1v2l2 4c1 1 3 2 3 4l1 5 1 2 1 4c0 3 4 4 4 7 1 1 2 3 1 4l-1 2 2 2 3 2c3 1 6-2 8-1l5-1 3-1 2-3 3-3 2-3 2-4v-4l5-2c3-1 1-5 1-7v-1l-1-1 1-2c1-1 2-3 4-3l3-1 2-3 1-3v-5l-1-1v-1l-1-4v-2l-1-2v-1l1-2 1-4 3-2 5-5 2-3 3-2-1-1h1l2-2 1-1 2-3 2-4v-3c1-1 2-2 1-3-2-1-6 1-7 1h-4l-4 1-1-1v-3l-2-1-2-3-3-3-1-1 1 1-3-5-1-2v-2l-1-2-2-3-1-2-1-3-2-3-1-2-1-2 1 1 2 1h1l2 2 1 2v2l2 2 2 2 2 4 1 2 1 1 1 3 2 2 1 3v3l2 2c1 2 2 2 4 2l3-2 3-1c2 0 4 0 5-2l2-2 3-1 3-1 2-2 3-1 1-3 1-1 1-2 1-1c0-2 0-3-2-3l-3-2-2-2v-2l-4 3-3 1c-2-1-1-2-1-3l-2-1-1 1-1-1v-1l-1-2-2-1v-2c-1-1 0-1 1-2 1 0 3 0 4 2v1l1 2 3 1 1 1h6v1l3 2 5 1h5c2 0 5-2 6 0l2 2 2 1c2 0 1 1 1 2l2 2c1 1 2 2 3 1h2v4l-1 5 3 4 2 3v1l1 1 1 2 1 2 1 2c0 1 1 2 2 1 2 0 2-2 3-3l2-1v-3l1-3-1-2c0-2 2-2 3-2l1-1 2-2 2-2 3-2 2-2 1-2h-1l2-1h3l2-1h2l3 3 1 1 1 2v5l2 1 4-2v-1 1l1 3v3l1 5-1 4 1 2 2 3 2 3 1 3 5 4c1 1 3 1 2-1l-1-3 1-3-3-2-2-2-2-1v-1c-1-2-3-2-2-4l1-6h-1 2v1a1 1 0 0 0 0 1l2 1 1 1 2 2h2v3c1 2 3 0 4-1l2-2 3-1c1-2 2-4 1-6l-3-6-2-2-1-1v-2l1-2 1-1c1 0 2-2 4-1l2 2 2-1v-1l1-1 5-1v-1 1l5-2 5-4 2-3 2-3 1-2-1-2 1-2-1-2-2-5-2-1c-1-2 2-2 3-3l1-1h1l1-2-3-1h-3c-2 1-1 0-2-1h-1c0-2 2-2 2-2 1 0 4-4 5-3 1 0 0 0 0 0l-1 2 3 1 3-1h1v2c0 2 0 2 2 3 1 0 2 1 1 3l-1 1v1c-1 1 0 2 1 3 2 0 3-2 5-3l2-2c1-2 0-4-2-5l-1-2-1-2 1-1 4-1v-1l1-2c1-1 1-2 3-1h2l5-3 3-3 2-2 1-2 2-3a1 1 0 0 0 0-1c-1-1 1-3 1-4l2-5v-1l-1-2-2-3c-2-1-3 0-4 1-2 0-2-2-3-2l-2-1 1-1 6-2v-1h-1 1l1-1 2-3 3-2 3-2h9l4-1 2 1v1a1 1 0 0 0 1 1l3-1h3c2-1 0-2-1-3l1 1 2-3h1l1-2 4-1h1v3l2-1 3-1 2-2v-1h2l1-1v1l-1 1-2 2-2 3-4 2-3 3-6 5v9l1 3 1 3h3l1-2 1-2 2-2v-2h2l2-1v-1c0-1-1-2 1-3h1l2-2-2-2v-2h-1l1-2v-1l2-1 3-2 2 1 3-2c2 0 2 1 3 2l2-1a252 252 0 0 0 7-5l3-1h5l1-1 1-2-3-3-1-1h-1 1l3-1 2-1h1v-2c1-2 2 1 2 1a1 1 0 0 0 0 1l3-1 2 1v1l2 1h3l2-1 1-2 1-1 1-2c0-1-1-3-3-3h-1v-1h-1l-1 2s-1 2-2 1v-1c0-2 0-3-2-3v2l1-1-4-2-3-1-2-2-5-2-7-1c-2 0-7-2-6 1l-1 2-3-1 1-1a1 1 0 0 0 0-1h-4l-1 1h-10l-3-1 1-1-3-2-4-1h-9l-2-1-4-2-2-1-3-1-6-1h-3l-2-1a1 1 0 0 0-1 1l-2 1c-1 0-2 1-1 2v1h-8l-2 1-2-1-2-1-3 2h-2v-2c1-2 0-4-2-5l-4-1-5-1-2 1 1 2h-7l-2-2h-2l-6-1h-6l-6 1-2 1h-3v1l3-1 2-1 5-3c2-1 6-2 5-5 0-2 0-2-2-3l-3-2h-5l-1 1h-2l-1 1c1-1 3-1 2-2l-4-1 1-2h-6l-3 2-1 1-3 1-1 1c-1 2-5 1-7 1v1h6l2-1 2-1h2v-2l4-2h4v-1l-1 1a1 1 0 0 0 0 1l2 1h2l-1 1a1 1 0 0 0 0 1h3l1-1c2-1 5 0 6 1s3 1 3 3c1 1-1 2-2 3l-5 2-5 3-3 1a1 1 0 0 0 0 1h5l4-1 5-1 8 1 4 1 2 1h6l2-1-1-2c1-1 4 1 4 1h4l1 1c2 0 2 1 2 2v1l-1 2 3 3 3-1 2-2 1 1c1 2 3 0 4 0l5 1 3-1h2a1 1 0 0 0 0-1v-1l-1-1h3v-2 1h4l6 1 5 2 3 1 3 1 1 1h11l2 1 1 1v2c1 2 3 2 4 1h10l2-1h2v1l-1 1 2 1 4-1v-2h8c3 0 5 1 8 3l2 2 3 1 3 1 2 1v-2l-1 1c2 1 0 3 1 4h3l1-3 1 1h1c1 1 2 2 1 3l-1 2-2 2h-3l-3-3h-4l1 1-1-2c-1-1-3 0-3 1l-1 1-2 1-4 2 1 1 3 2 1 2-4 1-5 1-7 4-2 2-1-1a4 4 0 0 0-3-1l-1 1h-4l-1 1-3 1-1 3c-1 1-2 1-1 2v1h1v1l1 2-3 2v2l-1 2-3 1v2l-1 1-2 1v1l-1 1v1h-1l-1-1v-3l-1-2v-3l1-4c0-3 2-3 4-4l2-2 2-2 3-2 3-3 2-2c1-1 2-1 2-3l-2-1-3 1-1 1-2 2-1 1h-1l-1 1v-2l-1-2-5 2-1 1-2 2-2 2a1 1 0 0 0 0 1c1 1 0 1-1 1h-4v1-2l-4-1-2 1h-9c-3 0-5 2-7 3l-2 2v2l-2 2c-1 0-1 0 0 0v1-1l-6 3c-1 0-2 1-1 2l2 1h1l1 2c2 1 4-2 5-1 2 1 2 3 2 5 1 1-1 3-1 4l-1 3v2l-1 1-1 2-3 4-4 4-3 1h-3l-3 2-2 2v1l-2 1-2 1 2 5 1 1 1 2c1 2-1 3-2 3l-2 1-1 1h-1c-1-1 2-3 2-4l-2-3v-1h-1v-3l-3-1h-4l1-2-3-1-1 1-3 3-2 1h-1v3h2v1l1 1 2-1h3v1h-1l-2 2-2 1 1 3 2 2 1 2v6c0 1 2-1 0 2l-1 1-1 2-2 2-2 3-2 2-5 2v1-1l-4 1-3 1-1 2-1-2h-4l-2 2-2 1-1 2v1l1 2 2 3c2 1 4 3 4 5a5 5 0 0 1 0 4l-2 2-2 1h-1l-1 2c-1 0-3 2-2 0l1-2-3-1-1-1-2-2-2-1v-1a1 1 0 0 0 0-1 11 11 0 0 0-3 0 1 1 0 0 0 0 1v3l-1 2-1 1 1 2 1 1 1 2 4 3 2 2v4l1 1c1 2-1 1-2 0-2-1-4-3-4-5l-1-2-1-3-2-2v-5c1-2 0-4-1-7 0-1 0-5-2-5l-1 1 1-1-1 1-3 1h-1l1-1v-1l-1-3-1-2-3-3-1-2c-1-2-4 0-5 1-2 0-5-1-6 1v1l-1 1-1 1-4 3-1 2-2 2-1 1h-1l-2 2 1 4-1 2v2l-2 2c-1 1-1 3-3 2l-2-3-1-3-1-2a1 1 0 0 0 0-1l-2-2-2-2v-8l-1-5-1 1h-1c-1 1-2 0-3-1l-1-1v-2c0-2-3-1-4-2l-1-2-2-1h-3l-4 1-7-1-2-1-1-1v-1h-7l-2-2-2-2v-1l-1-1h-5c-2 0-2 1-2 2l1 2 1 1 1 1 1 2v1l1 1h2l1 2 4 1 2-1 3-3-1-1 1 4 2 1 2 2 2 1-2 2v2h-1l-1 1-1 3h-2l-2 2-4 1-3 3-4 2-3 1-3 1h-4l-1-2-1-3-2-5-2-3-2-3-3-6-3-3v-3l-4-3-2-1-2-1-1 2 1 1v2l2 3c1 1 1 4 3 5l2 4 1 1v3l2 3 1 3a1 1 0 0 0 1 0l1 2 1 1 2 2 1 2a1 1 0 0 0 1 0l1 1v3l2 1h5l1-1h5c1-1 2-2 3-1l-1 2-1 5c-1 2-1 4-3 5l-3 3h1a1 1 0 0 0-1 0l-3 2-2 3-2 2-2 2-1 1-1 1-2 2-2 6v3l1 3 1 4v1l1 1v4l-2 5-4 1-3 2-2 3c-1 1 0 2 1 3v4c0 3-2 2-4 3-3 2-2 3-2 5l-2 4-2 3-2 2-3 4c-3 2-6 1-10 2l-4 1-4-2v-5l-1-4-3-3-1-5-1-1-1-3c0-3 0-5-2-7-2-1-3-2-3-4l-1-3v-1 1l1-2v-2l1-3 2-1 1-3-2-4v-3l-1-2v-1l-1-2-3-5-3-3 2-3v-6c-1-3-6 0-7-3-1-4-6-3-9-2l-5 2h-9l-5 1-3-2-2-2-5-4-2-3-2-2-1 1 1-1-1-1-1-2-1-2c-1-1-2-2-1-3l1-2 1-2a19 19 0 0 1 0-4l-1-2v-4l1-2 1-2 4-5 1-1 1-1 2-2 2-2 2-2-1-2 3-4 3-2 2-3-1 1h10l2-2 8-1h4l4-2 2 1h2l-1 2 2 3-1 1v1l2 2 4 1 4 2 3 2 2 1 4-1 1-3c1-2 4-1 6 0 1 2 4 1 6 2h6l4-1 4 1c1-1 2-1 2-3l2-4 1-2c1-2 0-3-2-4h-3l-3-1-2 1c-2 1-2 2-4 0l-2-1-2-1v-4l-1-1h3l3-1 4-2 4-1 4 1c1 1 4 2 6 1l4-1 3-1-1-3-3-1-2-2-3-2 1-2c1-1 2-2 1-3s-5 1-6 1l-2 2v2h-2v-1h-1v-1l-1-2-5 1-3 4-1 2v1l-1 2a2 2 0 0 0 1 2v1c1 0 1 0 0 0h-6l-2 1h-2v4l1 1 1 1-2 1v2h1-2l-1-1c0-2-1-2-2-3l-2-2v-5l-1-1-2-2-2-1-2-2-1-1-2-1-1-1c-2 0-4 0-4 2v2l1 1 2 2 1 1 2 1 2 2 3 2v-1c-1 0-2-1-3 1v3l-3 1 3-3c0-1-1-3-3-3l-2-2c-2-1-4-1-5-3 0-1 1-2-1-3a5 5 0 0 0-6 1l-4 1c-2 0-5-1-5 1v1l-2 2-1 2-3 1-1 2v2l-1 1v1l-1 1-6 1h-3l-1-1h-4v-4l-1-2 2-3-1-2v-2h1l1-1h11l1-1v-4a1 1 0 0 0 1-1l-1-1v-1h-1l-1-3-3-1h4a1 1 0 0 0 0-1l2-1 1 1c2-1 1-2 2-3h2l1-2 4-2 1-2c1-2 2-2 3-2l1-2 4-1v-6l3-2v3h1v2l-2 1 1 1 3 1 4 1h2l5-2c1 0 3 2 4 1l1-1 2-1 1-1 1-2a1 1 0 0 0 0-1l-2-1 1 1 1-3 3 1c2 0 2-1 3-2l-1-2h-2c-1 0-1 0 0 0l1-1c2-1 5-2 6-1v2a1 1 0 0 0 1 0c2 0 1-2 2-3s3 0 3-2l-4-2-4 1-4 1h-3l-1-1-1-2v-3l2-3 3-3 3-3c1-2-2-3-4-2-2 0-5 1-5 4l-1 2-2 1-3 3c-2 1-3 4-2 6l1 1h2l-1 3-1 1-2 2-1 4-3 2h-1l-1-1v-1h-1v-1l-1-1-1-4c-1-2-3-1-5 0-1 1-1 2-3 2l-4-2v-4l-1-2 1-3 4-3 4-3 4-3v-2l1-2c1-2 2-3 4-3l2-2 1-2h-4c-1 0 0 1 0 0h1l1-2 4 1v-1l2-2 4-1 4-1v-1l3-1h3v1l5-2 4 1 2 1-2 1s-2 0-1 2h5c2-1 4 1 6 1s3 2 5 3l4 1 3 2c1 1-1 2-2 3h-5v2l1-1v-1l-6-2h-3c-3 1 2 3 2 4v4l3 2h4a1 1 0 0 0 1 0l-1-2h-2c0-2 2-1 2-1l3 1h2l1-2-1-1 4-2h3l1-1-1-2 1-3-1-1h4c1 1 0 1-1 2h-1c-1 2 1 3 2 3l4-1v-1l3-1 2-2 3-1h-1 4v-1c0 2 0 3 2 3l2-1 3-1h6l1-3-2-1-1-1 2 1 5 2 6 2h5l1-2-2-2-1-1v-1l-1-1c-1-2 0-3 1-3l2-3 4-1 4 1v1l-1 1v10l1 1c1 2 0 3-1 4l-4 2c1 2 4 1 5 1l2-1 2-3 1-2 4-1a1 1 0 0 0 1 0c0-2-3-3-5-3h-2v-8c1 0 3-2 2 0l-1 2c1 1 5 2 6 1v-1l-1-1v-1l1-1c1-1-1-1-1-1l5 1c1 0 4 3 6 1 1-1 0-2-1-3l-2-1v-2a25 25 0 0 0 5-1c2 0 5-1 6-3l2-2 4-2 11-2v-1Z"/>
      <path fill="#0A6DFF" fill-opacity=".4" d="M356 80a1 1 0 0 0 1-1v-1l-1-1h-1v-1h-1v-1h-1v-1l1-1 1-1 1-1h1l1-1 1-1 1-1 1-1 1-1 1-2h1l1-1a7 7 0 0 0 3-1h1l1-1h2l1-1h3l1-1h1a1 1 0 0 0 1-2v-1a1 1 0 0 0-2 0h-4l-1 1h-3v1h-5l-2 1h-1l-1 1a6 6 0 0 0-2 0l-1 1h-1v1h-2v1h-1v1h-1v2h-1l-1 1h-1v1a1 1 0 0 0 0 1h1l-1 1h-2v1l-1 1a1 1 0 0 0 0 1v1c0-1 0 0 0 0v-1 1h-2v2l1 1 2 1h2c0 1 0 1 0 0v1h-1l2 1h4l1 1h2a1 1 0 0 0 0-1v-1a1 1 0 0 0 0-1l-1 1v1s0-1 0 0l-1-1h-5c-1 0-1 0 0 0v-1l-1-1h-1l-2-1h-1v-1h1a2 2 0 0 0 1-1v-2 1l1-1v-1h1l1-1 1-1a1 1 0 0 0-1-1s0 1 0 0h1l1-1 1-1v-2h1s-1 0 0 0l1-1 1-1h2v-1h2l1-1h2v-1h7v-1h3l1-1h4v1s0-1 0 0h-2l-1 1h-1a42 42 0 0 0-4 1l-2 1h-1a9 9 0 0 1-2 1l-3 1v2h-1l-2 2-1 1v1h-1l-1 1-1 1-1 1-2 2 1 2v1h1v1h1l1 1v-1 2Zm-14 4v-1h-3l-1 1v2h4l1-1a1 1 0 0 0 0-1 1 1 0 0 0-1 0l-1 1h-1v1s-1 0 0 0h-1v-2h2a2 2 0 0 0 0 1h1a1 1 0 0 0 1-1 1 1 0 0 0-1 0Zm43-15c-1 0 0 0 0 0h-1a2 2 0 0 0-1 0h-1l-1 1a1 1 0 0 0-1 0v1h3l2-1a1 1 0 0 0 0-1 1 1 0 0 0-1 1 5 5 0 0 1-2 0h-1 1c0 1 0 0 0 0h2v1a1 1 0 0 0 1-1v-1Zm-20-31-2 1h-2l-1 1v1h1l1 1h1a2 2 0 0 0 1 0l1-1h1c0-1 0-3-1-2a1 1 0 0 0 0 1l-1 1h-1l-1-1h-1v1-1h4v-2Zm6-1h-1l-2 1-1 1 1 1h2l3-1v-1h-2a1 1 0 0 0 0 1 1 1 0 0 0 1 0h-4 3v-2Zm-14 3-2 1h-1l-1 1a1 1 0 0 0 0 1h4l1-1v-1l-1-1a1 1 0 0 0 0 1v1-1 1-1 1h-3 3a1 1 0 0 0 1-1 1 1 0 0 0-1-1Zm-1-3h-5l-1 1 1 1h5l1-1v-1h-1v1h-5 5l1-1a1 1 0 0 0-1 0Zm4-3h-1a14 14 0 0 1-1 1s-1 0 0 0a1 1 0 0 0-1 0l1 1a4 4 0 0 0 2 1 1 1 0 0 0 1-1v-1l-1-1a1 1 0 0 0-1 1 1 1 0 0 0 1 1s0-1 0 0h-1l-1-1s0 1 0 0v1h1v-1h1a1 1 0 0 0 0-1Zm-16 4h-1l-1 1h-2l-1 1h-1l-1 1a1 1 0 0 0 0 1 1 1 0 0 0 1 0l1 1 1-1h2l2-1h1v-2a1 1 0 0 0-1 0 1 1 0 0 0-1 0l1 1v-1 1h-1l-2 1h-3v1l1-1 1-1h4v-2Zm6 2h-3l-2 2 2 1h1l1-1a1 1 0 0 0 1-1 1 1 0 0 0 0-1h-1a1 1 0 0 0-1 1 1 1 0 0 0 1 0h-3s0 1 0 0v1c1 0 0 0 0 0h1v-1l3 1a1 1 0 0 0 0-1 1 1 0 0 0 0-1Zm-14-1h-4l-1 1 1 1h4v-1l1-1h-2l1 1v-1h-1v1h-3v1l1-1a5 5 0 0 1 1 0h2a1 1 0 0 0 0-1Zm-95 100 1 1h1l2-1a5 5 0 0 0 1 0l1-1a1 1 0 0 0 0-1h-1c-1-1 0 0 0 0l1-1 1-1v-1l-1-1h-3c1 0 0 0 0 0s1 0 0 0c1 0 0 0 0 0v-3l-1-1v-1c0 1 0 0 0 0v-1l-1-1a2 2 0 0 0-1-1h-1l-1-1 2-1v-3h-3c-1 0 0 0 0 0 0-1-1 0 0 0v-1h1v-2h-4l-1 1-1 1h-1l-1 1v2l1 1v1c1 0 0 0 0 0a2 2 0 0 0 0 2l1 1h1v1l1 1h2l1 1a2 2 0 0 1 0 1h-1l-1 1h-1l-1 1 1 1c0 1 0 1 0 0v1h-1a1 1 0 0 0 0 2h1v1s0-1 0 0h-1l-2 2 1 1h4a2 2 0 0 0 1-2v1-1h3v-1h-3l-1 1h-1v1h-3 1c-1 0 0 0 0 0v-1h1l1-1v-1l-1-1 1-1v-2s-1 0 0 0h-1v-1 1h2l2-1v-2l-1-1-2-1h-1 1a10 10 0 0 0-1-1 1 1 0 0 0-1-1l-1-1a1 1 0 0 0 1-2l-1-1h-1v-1c0 1 0 0 0 0v1s0-1 0 0v-1l1-1h1l1-1v-1h3s-1 0 0 0h-1v3h3v2l-2 1a1 1 0 0 0 0 1l1 1a5 5 0 0 1 1 0h1v3l1 1h1v2l1 2h3v1s-1 0 0 0h-1l-1 1a1 1 0 0 0 0 1l1 1h-5v1Z"/>
      <path fill="#0A6DFF" fill-opacity=".4" d="M227 129h-2a1 1 0 0 0-1 0v6h-1v1l1 1 1 1h2l1-1h1l1-2h3l1-2h-1v-1l-1-1h1l1-1v-1a1 1 0 0 0-1-1 2 2 0 0 0-1-1h-2 1-3a1 1 0 0 0-1 1v1-1 1h1v-1h4l1 1h-1v1h-1a1 1 0 0 0 0 1v1c1 0 0 0 0 0h1v2h1s0-1 0 0h-2l-2 1h-1v1h-1l-1 1a1 1 0 0 1-1 0v-1h-1l1-1v-1a2 2 0 0 0 0-1v-3h2v-1Zm-18-33h2a1 1 0 0 0 0-1h3l1 1v1h2s-1 0 0 0v1h-1v1h-1l-1 1-1 1h-1a1 1 0 0 0-1 1h-3v1h-3a5 5 0 0 1-1-1h-2l-1-1v1-2l-1-1h-1 1a1 1 0 0 0 0-2h-3l1-1h1l1-1c0-1 0 0 0 0h1a8 8 0 0 1 1 0h-1 1v1a1 1 0 0 0 0 1l1 1h1l1-1v-2l-1 1h1a1 1 0 0 0 1 0h2v-1 1l1-1a1 1 0 0 0-1 0h-4v2-1h-1v-1a1 1 0 0 0 0-1h-3a1 1 0 0 0-1 0v1h-2v1h-1a1 1 0 0 0 0 1l2 1h1-1v2h2v1s1 0 0 0a1 1 0 0 0 0 1l1 1h2l1 1h4l1-1h2v-1h3l1-1 1-1 1-1v-1h1v-1l-1-1h-1v-1l-2-1h-2s0-1 0 0a1 1 0 0 0-2 0v1c0-1 0 0 0 0 0-1 0 0 0 0v-1l-1 1h-1v1a1 1 0 0 0 1 0Zm122 183c0 1 0 0 0 0v1h-1v4l1 1v1s0 1 0 0l-1 1-1 1v1l-1 1v2h1v4h1v1l1 1h5l1-1 1-1v-5l1-1v-2h1a6 6 0 0 1 0-1v-1c0 1 0 1 0 0h1v-5h1v-2h-1v-1h2l1-1a1 1 0 0 0-1-1v-3h-1v-1l-1-1h-2a2 2 0 0 0-1 1v1c0 1 0 0 0 0h1-1l-1 1-1 1v1a1 1 0 0 0-1 1h-1l-1 1a6 6 0 0 0-1 0l-1 1a1 1 0 0 0 1 1 1 1 0 0 0 0-1h1a5 5 0 0 0 2-1h1a1 1 0 0 0 0-1v-1c0 1 0 0 0 0h1v-1h1v-1h1l1-1v-1l1 1 1 1h-1l1 1a2 2 0 0 0 0 2h1c-1 0-1 0 0 0h-1 1c-1 0-1 0 0 0h-1l-2 1v2h1l-1 1v4l-1 1v1h-1v1c0 1 0 0 0 0v1l-1 1v3a6 6 0 0 1 0 1v2h-1s1 0 0 0l-1 1h-3l-1-1a6 6 0 0 0-1-1v-1s0 1 0 0v-2l-1-1v-1l1-1 1-1v-1s0 1 0 0l1-1a5 5 0 0 0 0-2 4 4 0 0 0-1-2l1-1v-2h-1ZM297 42h-1c1 0 1 0 0 0l-3-1h-6l-1-1h-2a4 4 0 0 0-2 0v1h-1l-1 1a1 1 0 0 0 0 1l1 1h3l1 1v-1l1 1h-1v-1 1a1 1 0 0 0-1 1h2l2 1h3l1-1h2l2-1 1-1 1-1h-2v1l-2 1h-3v1h-2l-2-1h-1c-1 0 0 0 0 0h-1 1a1 1 0 0 0 0-1l-2-1h-1a5 5 0 0 1-2-1v1-1h2l1-1h1l1 1h2l1 1 1-1h5l1 1a3 3 0 0 0 1 0h-1c1 0 2 0 1-1Zm-20 15h1l1-2h1v-3l1-1 1-1h2v2s0 1 0 0v1s0-1 0 0a1 1 0 0 0 0 1h3v1h3l1-1 1-1a1 1 0 0 0 0-1l-1-1h-2v-1l-1-1h-1l-1-1-1-1h-1l-1-1h-1l-1-1h-2v-1l-1-1h-3a1 1 0 0 0 0 1 1 1 0 0 0 0 1l1 1c0-1 0 0 0 0s0-1 0 0h-1l-1-1-1-1h-2a1 1 0 0 0-1 0c1 0 0 0 0 0h-2l-1-1h-1a1 1 0 0 0-1 2v1l1 1v1l1 1v1h2l1 1h2l1-1h2a20 20 0 0 0-1 0h-1a5 5 0 0 0-1 1h-2v1a1 1 0 0 0 1 1h1-1a1 1 0 0 0 0 1l1 1 1 1h1l1 1h1s1 0 0 0l1 1 1-1h-1v-1h-2v-1l-2-1h-1 1a1 1 0 0 0 0-1v-1h-2 2l1-1h2v-2h-4l-1 1h-1v-1a24 24 0 0 1-2 0v-2l-1-1h-1s0-1 0 0v-1h6l1 1h1l1 1h1a1 1 0 0 0 1-1v-1l-1-1h1l1 1h1v1h1l2 1 1 1h2v1l1 1 2 1v1h2a6 6 0 0 1 1 1h1-1a48 48 0 0 1-2 1h-1l-1-1h-2s-1 0 0 0v1-4l-1-1h-3l-1 1v1l-1 1v2l-1 1-1 2h1a1 1 0 0 0 0-1 1 1 0 0 0-1 1Zm-76-21-1 1h-1l-1 1-1 1v-1l1-1 2-1 1-2-1-1-3 1-3 1h-3l1 1v-2h-10 2l2-1h14l1-1 1-1-1-1-2-1h-3v-1h-1l-1-1h-1l-5-1h-19l-1 2 1 1h-4l-2-1h-8v2l1 1 1 1h1-1l-2-1h-2v1l1 1h1l1 2v-1h-3l-2-1-2-1-2-1-3 1 1 1 1 1h-2l-3-1a1 1 0 0 0 0 1h1c-1-1-3-2-4 0v1h1-1v-1l1-1-1-1h-5l-2 1h-1a1 1 0 0 0 0 1 2 2 0 0 0 0 1v-1h-4l-2 1v2h-3l-3 1-3 1-2 2-1 1 1 1h3v2h-2l-1 1c-1 0 0 0 0 0h-3l-2 1-1 1h-2l-1 1h-2a1 1 0 0 0 0 2l2 2h1l1 1h5l1 1v-1h-1l-1 1h-3l-2 1 2 1 1 2 3 1h9l3-1h2l1 1 2 2 1-1v2h1v1l1 1h1v1l1 1v1l1 1s2 0 2 2v1l-1 1-1 3 1 1h2l1 1 1-1h1l1 1h2l1 1h-6a1 1 0 0 0-1 1v1l-1 2 3 1h3v-1c-1 0-1 0 0 0h1l1 1-1 2h-1l-1 1-1 1-1 1-1 2v4h1v1l1 1v1l2 2h1l1 1-1 1v2l1 1 1 1 1 1 2 2 1 1 1 1h-1l1 1h2l3 2h1l2 1 2-2v-2l1-1 1-1v-2l-1-1h2l1-3 1-1v-1s-1 1 0 0v-2h-1 2l1-2h4l4-2h1v-1l2-1 1-2 1-1v-1l1-1v1h6l1-1h2l2-1 3-1 2-2 2-1a1 1 0 0 0 0-1h-1l-2-1-2-1h-1 1v-1l1-2-1 1h2v1l2 1h4v-3l-1-2-2-1-2-1h-1l3 1 2-1v-2a3 3 0 0 0-2-1h-1l1-1 1 1h3l1-1 1-1a1 1 0 0 0 0-1h-1 2l2-2-2-1-2-1-1 1 3-1v-2l-1-1v-2l-1-1h-1 3l2-1 1-1-2-1h-1l-1-1-2-1v-1a14 14 0 0 1 0-2l2-1 1-2h1l1-1a2 2 0 0 0 2-1v-1l1-1v-1l-1-1v1-1a7 7 0 0 1 3 0l3-1v-1h2l1-1 1-1c1-1-1-1-2-1l-4-1h-3l-3 1h-6v1l-1 1h2v-1h7l2-1h3l2 1h2-1l-1 1h-1l-1 1-3 1h-1l-2 1a1 1 0 0 0 0 1h1v1l-1 1-2 1-2 1v2h-1l-1 1-2 1 1 2v2h2v1l1 1h3v1h-5a1 1 0 0 0-1 1l1 1h1v2l1 1v1h-1l-1 1c0 2 2 2 3 3h1c0-1 0-1 0 0h-3l-1 1 1 1-1 1h-3l-1-1-2 1v2h1l1 1h1l-1 1-3-1v1l1 2 2 1h1l1 1v2h-3l-1-1-1-1h-2l-1 1v1l-1 1 1 1 2 1 1 1h2l1-1-4 2-1 1-2 1h-1l-1 1h-4l-1 1h-2l-1-1-3 1v2l-1 1-1 1-2 1c-1 1-1 2-3 2l-1 1h-2l-3 1-1 1-2 1 1 1v1a1 1 0 0 0-1 0l1 1h-1v1l-1 1-1 1a1 1 0 0 0-1 1l1 1v2l-2 1v2a2 2 0 0 1-1 2 1 1 0 0 1-1-1h-1l-2-1-2-1h-1v-1a1 1 0 0 0-1 0v-1l-1-1-1-1-1-1-1-1-1-1v-3l-1-2h-2v-1l-1-1v-1l-1-1-1-1v-3l1-1h-1a1 1 0 0 0 1 0l1-2 1-1 2-1c1-1 2-2 1-3l-2-1h-2l-1 2 1-1h-2l-2-1 1-1v-1h6l1-1-3-2-1-1h-5l-1-1 2-1v-3l-2-3-1-1v-1l-1-1-1-1-1-1-1-1v-1h-1a1 1 0 0 0-1 0v1l1-1-2-2-2-1h-3l-2 1h-7l-3-1h-1l-1-1-1-1h-1 3l2-1 2-1-1-1h-6l-1-1-1-1-1-1 3-1h1l1-1 3-1h3l1-1h1l1-1v-1l-1-2h-1a30 30 0 0 1-2 0h1l1-1 2-2h6a1 1 0 0 0 1-1l1-1a1 1 0 0 0 0-1v-1h6v-1h1l3-1h2c1 0 0 0 0 0v2l2 1a1 1 0 0 0 0-1v-1h3l1 1h4v-2h-1l-1-1h3l2 1 1 1h1l2 1h2l1-1-1-1-1-1a4 4 0 0 0-1-1v1h-1 3l1 1 2-1-1-1-2-1v-1c0-1 0 0 0 0h7l1 1h2l1 1 1-1 2-1-1-1v-1 1l1-1h18l2 1h4l1 1 1 1 3 1h2l-1 1h-16l-2 1-1 1 2 1h8c0-1 0 0 0 0v1h3l2-1 2-1a9 9 0 0 1 2 1v-1 1h-1l-2 2-1 2 1 1 2-1 1-1h1v-2Zm-80 299h-1v-1 1-1 2-1l-1 1a1 1 0 0 0 1 1h1l1-1a1 1 0 0 0 0-1l-1-1a1 1 0 0 0-1 1 1 1 0 0 0 1 0v1-1 1-1 1-1 1h-1 1v-1a1 1 0 0 0 0-1 1 1 0 0 0-1 0 1 1 0 0 0 0 1h1Zm4 22v1h-1a1 1 0 0 0 0 1h3a1 1 0 0 0 1-1v-1a1 1 0 0 0-1 0l-1-1h-1l-1 1a1 1 0 0 0 1 0h1l1 1v-1c0 1 0 0 0 0v1-1c0 1 0 0 0 0v1h-2c1 0 1 0 0 0h1-1v1l1-1v-1a1 1 0 0 0-1-1 1 1 0 0 0 0 1Z"/>
      <path fill="#0A6DFF" fill-opacity=".4" d="M129 357a3 3 0 0 1 0 1s0-1 0 0h-1v1a1 1 0 0 0 0 1 3 3 0 0 0 2-1h1v-2h-1s1 0 0 0v-1a1 1 0 0 0-1 1 1 1 0 0 0 1 1 1 1 0 0 0 0-1l-1 1s0-1 0 0h1c0-1 0 0 0 0 0-1 0 0 0 0a1 1 0 0 0-1 0h1-1v1l1-1v-2h-1v1Zm44 6h-1a25 25 0 0 0-2 0 1 1 0 0 0-1 1 1 1 0 0 0 1 0v1a35 35 0 0 0 2 0v1h2v-1l-1-1a1 1 0 0 0-1 0 1 1 0 0 0 1 1h-1 1c0 1 0 1 0 0h1-1c1 0 0 0 0 0l-1-1h-2v-1s0 1 0 0v1h2l1 1a1 1 0 0 0 0-1 1 1 0 0 0 0-1ZM40 88l-4-2c-1 0-4 0-4 2v1h-7l-2 1-2-1c0-2-2-3-3-4h-3l-3-2H9l-4-1-1 1-2-1-2-1a1 1 0 0 0-1 1l-1-1-2-1h-4v1l-1 1h-7l-2 1-1 1-5 1-3-1-2-1-3-1-4-1h-7l-8-2h-3l-4-2-6 1-2 1-3 1-4 1-2 1-1 2-2 1-2 1c-1 0-3 1-2 2l2 1c2 0 2 2 3 2l3 2 1 1c1 0 1 0 0 0l-3 1-1-2c-2-1-3 1-5 2-1 0-4 1-2 2v1h1l2 2 3 1h3l2-1h1v1c0 1 0 2-2 3h-2l-3 2-2 4 2 1v2l3 2h1l1 1 1 1 2 1h5v1l-1 2-5 3-3 2-3 1c-1 1 0 3 1 3h2l3-2 2-1 2-1 1-2h2l1-1 1-1 1-1 2-1 3-1c1 0 3-2 2-3h-1l-1-1h1l1-1v-1l2-1 2-1-3 2c-1 1 0 3 1 3h2l2-1h2l2-1-1-3v1h3l2 1 3 2h7l2 2 2 1 2 1 3 1 1 1h1a2 2 0 0 1 2 1l1 2 1 1 1 1 1 1 2 4 1 2 1 1v1l2-1-1 1c2 0 1 4 2 5l3 2 2 1h2l1 1c1 0 2 0 1 1H1l-1 1v3l1 2-1 4v3l1 3v6l1 1 1 2 1 3 1 1 1 2 2 1 1 1h2l1 1 2 2v2l-1 1 1 1 1 1 2 3 2 1 1 2c-1 1 0 1 1 2l2 3 1 3 3 1 3 1a1 1 0 0 0 0-1c1-1 0-1-1-2l-1-1-1-2-2-3v-2l-1-1-2-2-2-3v-1c-1 0-1 0 0 0l1 1 1 1v2l2 1 2 2 1 2 2 2 1 3 2 1 3 3 2 2v3l1 2 4 3h2l2 1 4 2v-1c0 3 3 2 5 2l4 1 4 2 2 2 4 2h2l2 1 1 2 1 1 2 2 3 1 1 2 3 1h2l2-1h2v1l2 2v6l-2 1-1 1-1 2-1 1v1l-1 2v4h1l-1-1v1l-1 2v5l2 1 1 3a9 9 0 0 0 2 2v2l1 2 3 4v2l1 1 2 1 2 1 2 2 1 1 3 2 1 1v5l-1 2v2l-1 1 1 2v7l-1 1-1 2v8l-1 3-1 2-1 2v7l-1 3a1 1 0 0 0 1 0v7l-1 2-1 3v5l-1 2 1 2h1l-1 1v2l1 3 3 2h4l-1-1-1 2v3l2 1 5 1 4-1h1a1 1 0 0 0 1-1l-2-1-1-1-1-1-3-1v-6l2-2 1-2 3-3h1v-1a1 1 0 0 0 0-1l-3-1c0-1-2-2-1-3l2-1 2-1v-1l1-2 1-1v-1l-2-2 4-1 1-1 1-2v-2h7l1-2 2-1v-2l-1-3-2-1-1-1 1 1h7l3-1 1-3 1-2 1-1c0-2 2-2 3-3v-2l2-2 2-2v-4h1l2-2 4-3h4l2-2 2-3 1-1v-1l2-4v-7l2-3 1-1 1-2 3-4 1-2v-2l-1-4-4-1-2-2-5-1v1l1-1v-1h-3l-4-2-5-3c-1 0-4 0-5-2v-2l-1-2-1-1v-1l-2-1-2-2-3-1c-3-1-5 0-7-2l-5-4-6-3h-8 1c-2-2-4-2-6-2l-3-1h-2l-5 2-2 1-1 1-1 2-2-1h-3l-3 1-3-1-2-3v-3l2-4c0-2 0-3-2-3h-7l-2-1v-3l1-2 1-1 1-2c1-1 0-1-1-2h-3l-2 1-2 2-1 1c-1 3-5 2-7 1l-3-1-1-1-1-2v-8h1v-2l-1-1v-1l1-2 3-2h3l2-1h1l3 1 2-1h1l2-1 2 1h4l2 2 1 3 2 4 3 2 2-2v-2l1-1v-1l-1-2-1-2-2-3 1-3 2-1 1-2h1l2-1 2-3c2 0 3-1 3-3l-1-1c-1-2 0-3 1-4l2-1c0-2-1-4 1-4h2l3-2 1-1 1-3 4-2s2-2 3-1v3h2l4-1v-1h-1v1l4-2v-1 1-1l2-1c1-1 3-1 2-2a2 2 0 0 0-2-1h-2l-1 1-1-1-1-1-2-1 1-1 1-1c0-2-2-2-3-2h-8l1 1 1-2 2-1h10l4-1 4-2 3-2c2-1 1-4 0-5l-1-2-1-1-4-1-3-1 1-3v-3l-3-3-1-3c-1-1-4-2-5-1l-1 2-1 2h-3l-2-1-1-1v-3c0-2-1-2-2-3l-2-1-2-1-3-1h-9v7l-1 3-1 2 2 2c2 1 3 3 2 5l-3 3-2 1v3l1 2v2h-2l-3-2v-1l1-3-1-3-4-1h-5l-3-2-4-2-3-1h-2l1-2-1-2c-2-1-3-1-3-3v-2l2-2 2-3 2-2 3-3h1l2-1 2-3v-1l1-3 4 2 3-1 1-1 1-2 1-3 1-2v-1l-2-2-4-1h-4v5a3 3 0 0 1-1 2h-3v-2l-2-3-3 1-1-2-2-2v-4l-1-1-1-2-1-2 3-1 2-2c2-3-3-2-4-3l-4 1-2 2v3l1 3-2 2-1 2 3 3c1 1 3 1 2 3 0 1-1 2-2 1v-2c-1-2-4-2-6-2a1 1 0 0 0 0 1l-1 1v1a1 1 0 0 0 0 1h1l1 1-2 1h-6l-5-2v1l6 2h7v-3l-1-1 1-2-1 1h4a2 2 0 0 1 1 1v2a1 1 0 0 0 1 0h3v-3l-1-2c-1-1-4-1-4-3l3-3v-4l-1-2 1-2h7l-2 2-3 1v3l1 2 1 1 1 3v1l2 2 2 3h3c2 0 1 2 1 3l2 2c2 0 4-1 4-4v-3l1-1h3l2 1 1 1v4l-2 3-2 1h-2c-2-1-4-1-5 1v2l-1 1-1 2-2 1-2 1-1 2-2 1-2 2-1 2-2 1v6l2 2c1 0 2 0 1 1v2l1 1 3 1 5 2 4 2 3 1h4c2 0 1 2 1 4l1 3 3 2h2l2-2-2-3v-2l2-1 2-2c2-1 2-4 1-6l-1-2h-2c-2-2 1-3 1-4v-8h10l3 3 2 1v1l1 2 2 3c1 1 4 2 5 1l2-3 2-1 1 1 2 1v2l2 2 1 2-1 2 1 3 4 1c1 1 2 0 2 2l1 1 2 2c0 2-2 3-3 4l-4 2-4 1-10-1-3 2-1 1-1 2a1 1 0 0 0 1 0l3 1 3-1h3l1 1h-2v3l3 2 3 1 2-1a1 1 0 0 0 1 0l-1 1h-2l-1 1v1a3 3 0 0 1-3 2v1h1v-1h-3l-1 1h-1v-1c1-2 1-2-1-2l-6 2c-2 1-3 1-3 3s-1 3-3 3l-1 1h-2a3 3 0 0 0-1 2l-1 3-2 1-1 3 1 1v2l-1 1-2 2-1 1-2 1-2 1v1l-1 1c-2 1-2 3-2 5s2 2 3 3l1 4-1 1v2a1 1 0 0 1 0 1h-1l-1-1-1-1-2-2v-3c0-2-1-3-3-4h-4l-1-1-4 1h-6l-6 1-4 3-1 2v2l1 1-1 1-1 2 1 3v3c0 2 1 3 3 4l5 2c2 0 3 1 5-1l1-2a4 4 0 0 1 3-2l4-1v1l-1 1-2 3-1 2 1 2 1 1 5 1h4l1 3-2 2-1 3a2 2 0 0 0 1 1l2 3 5 2 3-1 3 1c2 0 2-1 3-2s1-2 3-2l2-1h8l4 1a1 1 0 0 0 0 1h6l3 1 4 1 3 2 2 3 5 1 4 1 2 1 1 1 1 1 1 2 1 1h1v4c1 2 3 2 5 2l3 1 2 1 1 1 3 1 3 2v-2 2l4 1 3 1 1 1 1 1c2 1 2 3 1 4l-1 4-2 4c-1 1-3 1-3 3l-1 3v5l-2 5-1 2-1 1-1 2-1 1h-2l-5 1-3 3h-1l-1 1v3l-1 3-2 1-1 2-1 1-2 3-1 2-1 1c0 1 0 3-2 3l-3 1h-7l1 1 2 2 1 2-1 2c-1 0-1 2-3 2h-5l-1 1-1 4h-4l-1 2v1l2 1-1 1-1 2v2h-1l-3 2v3l2 1h2v2h-1l-4 3v1l-1 1-1 4v4l2 1h1v1l1 1 1 1h2-10l-1-1v-1l1-3h-2l-3-1-1-1-1-2v-2l1-1-1-2v-1l1-1-1-2 1-3v-2l1-2v-9h-1l1 1v-5l-1-3 1-2 1-2 1-1 1-4v-8l2-2 1-3-1-2v-7l1-2v-7l-1-1-2-1-3-2-1-2-3-1-2-2v-1l-3-4v-4l-1-1-1-1-1-2-1-2-2-1v-4l1-2-1-1a1 1 0 0 0 0 1 1 1 0 0 0 1 0v-4h1v-2c0-1 2-1 2-3l1-1 1-1 1-3v-4c0-2-2-1-2-3v-1l-1-1a2 2 0 0 0-2 0l-1 1v1h-3l-4-3-3-1-2-3-1-1-2-2-4-1-2-1-2-2-4-2-4-1-5-1-4-2-3-1h-2l-3-3-1-1v-4l-1-1-1-1c-2-2-5-2-5-5l-1-2-3-3-2-2-2-2v-2l-2-1-2-1v3l2 2 1 2 3 4 1 4 2 1 1 2h1l-4-1-1-2-1-1-1-2-1-1-1-2v-2l-3-2-2-3-1-1-1-1v1a1 1 0 0 0 1 0c0-2 0-4-2-6l-3-1-1-1-2-1-1-2-1-1-1-4-2-1 1-3-1-2-1-4v-2l1-3v-2l-1-3v-2c-1 1 0 0 0 0h3c1-2-2-3-3-4h-2l-2-1-1-1c-1 0-2 0-3-2v-3l-2-1a1 1 0 0 0-1 0h2a1 1 0 0 0-1 0l-2-2-1-3-1-2v-1l-1-1-1-1-1-2-2-2h-3l-1-1-2-1-2-1-1-1h-2l-1-1-5-1-4-1-2-1-2-1h-3a1 1 0 0 0-1 0v2c1 0 1 0 0 0l-3 1-1 1h-2c-1-1 2-2 2-2v-3l-3 1-2 1-1 1-1 1v2l2 1-3 2-3 1h-1l-1 2-3 1-2 2-2 1-2 1-2 1-1 1h-1v-1l3-1 3-2 4-3 2-1 1-2c0-1-1-2-3-2h-3l-1-1h-2v-2h-2l-2-1-1-1v-1l-1-2c-1-1 1-2 2-3l3-1 2-1 1-1 1-2v-1l-4-1-2 1h-2l-2-1-1-1-2-1v-1h2l3-2 1 2c1 1 3 0 5-1 1 0 2-1 1-2l-3-1-3-3-2-1-2-1h1l3-1 2-1c1-2 1-3 3-3l3-1 5-2 2-1 5 1 7 1 6 2h8l4 1 4 1 1 1a21 21 0 0 0 7 1l1-1h1l1-1h1l3-1h5c2-1 1-2 1-3l-1 1 4 1 3 2 1-2v1c1-1 1 0 2 1h6l4 1 2 1h3l2 1 1 1v2l4 1 4-1 4 1 1-1 1-1v-1c-1 0-1 0 0 0h1l1-1 4 1v-1 1Z"/>
      <path fill="#0A6DFF" fill-opacity=".4" d="M89 202h-1a22 22 0 0 1-3-1h-1l-1-1-1 1h-1l-1 1h-1a1 1 0 0 0 0 1l1 1h5l1 1h3l1 1h1l1 1 1 1h5a1 1 0 0 0 1 0 1 1 0 0 0 0-1l-1-1c0-1 0-1 0 0v-1h-2l-2-1h-1l-1-1-1-1a6 6 0 0 0-1 0h-1a1 1 0 0 0-1 0 1 1 0 0 0 1 1 6 6 0 0 1 2 0v1h1l1 1h1l2 1h1l1 1h-4a6 6 0 0 1-1 0 1 1 0 0 0-1-1l-1-1-2-1h-3a2 2 0 0 1-1-1l-2-1h-3v1l2-1h4a32 32 0 0 0 3 1v-1Zm17 6v-1h-3v1l-1-1-1 1v1l-1 1h-1a1 1 0 0 0-1 1 1 1 0 0 0 1 1h3l1 1h2v-1a2 2 0 0 0 1 0h3l1-1v-1l-1-1h-1v-1h-2a1 1 0 0 0-1 0l1 1h1l1 1h1c0 1 0 0 0 0v1h-5v1h-1v-1h-3a2 2 0 0 1-1 0c1 0 0 0 0 0h2l1-2v-1 1h1l1-1h2v-1 1Zm10 3v-1h-3a1 1 0 0 0-1 1v1l1 1h3l1-1v-1a1 1 0 0 0-1 0v1s0-1 0 0v-1 1h-2a2 2 0 0 0-1 0v-1h1a5 5 0 0 0 2 0h1a1 1 0 0 0-1-1v1Zm-26 1h2l1-1 1 1h-2l-1-1h-1l1 2h4a1 1 0 0 0 0-1l-1-1-1-1h-3v2Zm46-70v1a1 1 0 0 0 1 0h1v1l1 1v1h1c-1 0-1 0 0 0v1-1 1l-1 1-1-1h-4l-1-1h-5s0-1 0 0v-1s0 1 0 0l1-1 1-1h1l1-1 1-1v-1l1-1v-1h2v1h-1l-1 2 1 1h2s-1 0 0 0v1-2h-2v-1h1l1-1-1-2h-2l-1 1-1 1v1h-1v1l-1 1-1 1h-1v1l-1 2 1 1h4v1h2l1 1 1-1 2 1h2l1-2a1 1 0 0 0 0-1h-1v-1l-1-1-1-2h-1a1 1 0 0 0-1 0Zm-13 0h-2v-1h-1a1 1 0 0 0-1 1l1 1 1 1h2a1 1 0 0 0 1 0 1 1 0 0 0 0-1v-1h-1l-1 1h1v1-1c1 0 1 0 0 0h-1l-1-1h-1c-1 0 0 0 0 0v1h3a1 1 0 0 0 1-1 1 1 0 0 0-1 0Zm-35-40-2-1-2-1h-1a6 6 0 0 1-1-1h-1l-1-1-1-1h-3a2 2 0 0 0-2 1v2h1v1h-1v3h3l2 1 1-1h1v-1l2 1h5a1 1 0 0 0 0-1v-1h-1l-1-1a1 1 0 0 0 0 1l1 1h-2l-2-1h-2a1 1 0 0 0-1 1h-1v1h-1v-1l-1-1h-3s1 0 0 0c0 0 1 0 0 0l1 1c0-1 0 0 0 0v-1l1-2-1-1v-1h2a4 4 0 0 1 1 0l1 1h1l1 1h1l1 1h2l1 1h2Z"/>
      <path fill="#0A6DFF" fill-opacity=".4" d="M84 105a1 1 0 0 0 0-1h-2l-1 1h-1l-1 1v1l1 1h2l1-1 1-1-1-1h-1a1 1 0 1 0 1 0v-1a1 1 0 0 0-1 1v1c0 1 0 0 0 0v1s0-1 0 0c0 0 0-1 0 0h-2 1v-1h2v-1a1 1 0 0 0 1 1 1 1 0 0 0 0-1Zm4 1h-1l-1 1-1 1a1 1 0 0 0 2 2l1-1v-1l1-1v-1a1 1 0 0 0-1 0 1 1 0 0 0-1 0v1a4 4 0 0 0 0 1 3 3 0 0 1 0-1c0 1 0 0 0 0h1a1 1 0 0 0 0-1Zm14-29h1l1 1h3v1l1 1 2 1h1l1 1v1l1 1h-2l-1 1a1 1 0 0 0 1 2l1 1h1v1h2l2 1 2 1h1l1 1a6 6 0 0 1 1 0l1 1v1h-1v1l-1 1-1 1h-1v1h-1l-1-1v-1h-1l-1-2h-3l-1 1v2l1 1h1l1 1 1 1 1 1 1 1a10 10 0 0 1 0 2v1h-2l-3-2h-2l-1 1a2 2 0 0 0 0 1l2 1h1l2 1v1-1c1 0 1 0 0 0h-6l-1-1h-1v-1h-1l-1-1-1-1v-1h-1l-1-2h-6v1h-3v-1s-1 0 0 0c-1 0-1 0 0 0v-1h2l2-1h4v-3h-1 1l1-1 1-1 1-2-1-2a1 1 0 0 0-1-1l-1-1h-2v-1h-1v-1l-1 1v-1h-1l-1-1s0 1 0 0v-1l-1-1-2-1h-3l1 2v-1h-6l-1-1h-8l-2-1h-2v-1 1l2-1v-2h-3v-1 1-1a4 4 0 0 0 0-1v-2l1-1 1-1a1 1 0 0 1 0-1h2l1-1h2l-1 1-1 1v2l1 1v1l1 1 1 1h1l1-1v-2l-2-1v-1h1v-1l1-1h3v-1l1 1h2v3a1 1 0 0 0 0 1v1h5l1-1h7l1 1 2 1 1 1a1 1 0 0 0 1-1h-1l-1-1h-1v-1h-1l-1-1h-8l-1 1h-1a4 4 0 0 1-2-1v1c0-1 0 0 0 0v-4l-1-1-2-1h-1l-2 1h-1l-2 1v1h-1v2l1 1 1 1v1l-2-1-1-2v-2l1-1c1 0 2-1 1-2h-4l-1 1h-2l-1 2v1a3 3 0 0 0-2 1v3h1v1l1 1h3v1-1l-1 1-1-1-1 1 1 2h1l1 1h9l1 1h3l1 1h2l2-1v-1l-1-1h1l2 2 1 1v1l1 1h1l1 1h1l1 1h2v1h1l-1-1v1a1 1 0 0 0 1 1l1 1-1 1v1l-1 1h-2l1 2v1h1s-1 0 0 0h-4l-3 1h-2l-1 1 1 2 1 1h3l2-1a19 19 0 0 1 2 0l2 1v1h1v1a11 11 0 0 0 2 1v1h1l1 1 1 1h1l4 1h2l1-1v-1a2 2 0 0 0-1-1h-1l-1-1h-1l-1-1h1l1 1 3 1h2a1 1 0 0 0 1 0v-5l-1-1-1-1-1-1-1-1h-1l-1-1v-1h2l1 1 1 2 1 1h1l2-1h1l1-1 1-2h1v-3a2 2 0 0 0-1-1l-1-1h-2l-1-1h-2l-1-1h-2l-1-1h-1v-1h-1v-1h2a1 1 0 0 0 1-1v-1h-1v-1l-1-1v-1h-2v-1h-2s0-1 0 0v-1a6 6 0 0 0-1-1h-2l-1-1h-2v1Z"/>
      <path fill="#0A6DFF" fill-opacity=".4" d="M95 88h-3l-1 2v1a1 1 0 0 0 1 1h3l2-1v-2h-1a1 1 0 0 0-1 0v1a1 1 0 0 0 1-1h-1v1h1l-1 1h-3v-1s0-1 0 0v-1h3v-1Zm-3-20h-4a4 4 0 0 1-1 0 1 1 0 0 0-1 0 1 1 0 0 0 0 1l1 1v1l1 1h6l1-1v-1l-1-1-1-1h-1v1h-1a1 1 0 0 0 1 0l1 1h1v1c0-1 0 0 0 0h-6v-2h-2 6v-1Zm-14-6h2l1-1h2l2 1 1 1a1 1 0 0 1 1 0l-1 1h-1l-1 1H71c1 0 0 0 0 0v-1h-6l-1-1h-1v-3l-1-1-1-1h-4l-1-1v-1h-1 4l1 1h1l2 1h3l1 1h2-1v1a8 8 0 0 0 3 1l1 1h6l-1-1h-3a4 4 0 0 0-1 0l-2-1-2-1v1l1-1-1-1h-1l-1-1h-2l-2-1h-3l-1-1h-4l-1 1 1 1v1a4 4 0 0 0 3 1h3a5 5 0 0 1 1 1v3l1 1 1 1h6a1 1 0 0 0 1 1h14l1-1a1 1 0 0 0 1 0v-1a1 1 0 0 0 1-2h-1l-1-1-2-1h-4l-1 1h-1v1Z"/>
      <path fill="#0A6DFF" fill-opacity=".4" d="M78 59h6c0-1 0 0 0 0h1c-1-1 0 0 0 0a1 1 0 0 0 1 0h3l1-1 2-1-1-1v-1a9 9 0 0 0-2 0v-1 1h1l1-1 2-1h-1 1l2-1 2-1 1-1-1-2a1 1 0 0 0 0-1l-1-1v1h1a94 94 0 0 0 3-2h1v-1h1a9 9 0 0 0 3 0h1l1-1h1l2-2 2-2h1v-1h3l1-1 1-1-1-1h-2l1 1 2-1 2-1h3s2-1 1-2l-1-1h-3l-2-1-1-1h-7l-2-1a26 26 0 0 0-2 0H94l-2 1h-4l-1 1h-3l-1 1-1 1h-1l-2-1a5 5 0 0 0-3 0l-2 1-1 1a6 6 0 0 1-2 0h-1l-1 1h-3a1 1 0 0 0-1 1l1 1 1 1h1v1-1 1a1 1 0 0 0 1 1l1 1h3l2 1h10a12 12 0 0 0 2-1h2s-1 0 0 0h-3l-2 1h-1l-1 1a1 1 0 0 0 0 1h1v1-1c0 1 0 1 0 0h-3l-1-1h-4a1 1 0 0 0 0 1v1h1l2 2h1v1l-1 1h-1a8 8 0 0 0-4 2 1 1 0 0 0 0 1h1l1 1h1l1 1h-1l-3-1h-1l-1 1v2h-1l-1 1a1 1 0 0 0 0 1l2 1h1a54 54 0 0 0 2 1h4v-1a1 1 0 0 0-1 0h1-5l-1-1h-2v-1 1-1h2a1 1 0 0 0 0-1v-2h1-1 2l2 1h2v-1a3 3 0 0 0-2-2h-1v-1h-1 1l2-1h1l1-1 1-1-1-2-1-1h-1l-1-1-1-1 1 1c-1-1 0 0 0 0h1a6 6 0 0 0 1 0h1v1h2l1 1h1l1-1v-1l-1-1h3a12 12 0 0 1 2-1h1l1-1a1 1 0 0 0-1-1h-3l-1 1H75v-1h-4l-1-1v-1l-1-1h-2v-1h-1c0 1 0 0 0 0h5v-1h3v-1h2l1-1 2 1h4v-1h1v-1h4l1-1h8l2-1h8l2 1h8l3 2h3s0 1 0 0v1-1 1h-3l-1 1-3 1h-1v1l1 1h1v-1l-2 1h-2l-1 1h-1v1l-2 1-1 1-1 1-1 1h-5l-1 1h-1v1h-3l-1 1a1 1 0 0 0 0 1h1a1 1 0 0 0 0 1l1 1v1h-1l-1 1-2 1c-1 0 0 0 0 0h-1a1 1 0 0 0-1 0v1l-1 1h-2l1 2h1a6 6 0 0 1 1 1c-1 0 0 0 0 0a25 25 0 0 1-5 1s-1 0 0 0h-1v-1h-1l-1 1h-5v1Z"/>
      <path fill="#0A6DFF" fill-opacity=".4" d="M65 38a5 5 0 0 0-2 0l-1-1h-2l-1 1v1-1 1h-1l-1 1v1h-1v2a1 1 0 0 0 0 1h1v1h1v1h4a3 3 0 0 1 1 0v1s0-1 0 0c0-1 0-1 0 0h-3v1a1 1 0 0 0 0 2 3 3 0 0 0 1 0l2 1h7a8 8 0 0 0 2-1l1-1v-1h2l2-1a1 1 0 0 0 0-2h-2v-1h-2v-1a2 2 0 0 0-1-2h-3l-2-1-1-1h-1a1 1 0 0 0-1 0 1 1 0 0 0 0 1h1v1h2l1 1h4v3h2l2 1h-1l-1 1-2 1v1h-1a5 5 0 0 1-3 1h-4l-1-1a8 8 0 0 1-2 0v-1c0 1 0 0 0 0a13 13 0 0 0 2 0l1-1-1-2h-4l-1-1-1-1v-1h1v-1l1-1a1 1 0 0 0 1-1 3 3 0 0 0 1-1l1 1h3a1 1 0 0 0 0-1Zm-8 11-1-1h-3a1 1 0 0 0-1 0v2l1 1v-1 2l2 1s0-1 0 0a22 22 0 0 1 2 1h3l1-2h-2v-1h-1a1 1 0 0 0-1-1 5 5 0 0 0-1-1s1 0 0 0h-1l1 1h1v2h1l1 1h1-3v-1h-1l-2-1v-1l-1-1v-1 1h3v-1a1 1 0 0 0 0 1h1Zm-6-6a1 1 0 0 0 0-1h-3a1 1 0 0 0 0 2 1 1 0 0 0 1 0v1h2l1-1v-1h-1s0-1 0 0l-1-1a1 1 0 0 0-1 0 1 1 0 0 0 0 1l1 1h2-2v-1h-1s1 0 0 0h2a1 1 0 0 0 0-1 1 1 0 0 0-1 0 1 1 0 0 0 1 1Zm-6 3h-2l-1-1h-4a1 1 0 0 0-1 1l1 2h1v1c0-1 0-1 0 0v-1 2a1 1 0 0 0 1 0v1h5l1 1h1l2 1h1a1 1 0 0 0 1-1l-1-1-1-1-1-1-1-2h-1v-1h-1l-1 1a1 1 0 0 0 1 0v1h2v1l1 1 1 1 1 1-2-1h-2l-1-1h-1a6 6 0 0 0-2 0h-2c0-1 0 0 0 0s0-1 0 0v-2l-1-1-1-1h2l1 1a10 10 0 0 1 2 0h2v-1Zm-6 8-1-1h-2v2h2v1h3l-1-2h-1a1 1 0 0 0-1 0l1 1a2 2 0 0 0 1 0l-1-1h-2v-1h-1v1a4 4 0 0 1 1 0h1l1 1v-1Zm11 3h-2a11 11 0 0 1-2 0 1 1 0 0 0-1 1l1 1v-1h-3l-1-1a41 41 0 0 0-1 0h-2a1 1 0 0 0 0 1 1 1 0 0 0 0 1l1 1h1l1 1h1a5 5 0 0 0 1 1h1l1 1h1a1 1 0 0 0 0 1h6v-5h-1v-1h-3v1h2l1 1v1a6 6 0 0 0 0 2h-4v-1l-2-1h-2v-1h-1l-1-1h-1l-1-1h1l1 1h2l2 1 1-2h-1s1 0 0 0c0 0 1 0 0 0h4v-1Zm9 4-1-1h-2l-1 1v1a1 1 0 0 0 0 1h1v1h1l1 1h2a1 1 0 0 0 1 1 1 1 0 0 0 0-1l1-2-2-1-1-1h-1a1 1 0 0 0-1 0 1 1 0 0 0 1 1l1 1h1v2c1 0 0 0 0 0h1c-1 0 0 0 0 0h-1v-1h-1l-2-1-1-1h2v-1l1 1a1 1 0 0 0 0-1Zm-7 7v-1h-3v1h-1l-2 1v1h1v1l-1-1h-3a1 1 0 0 0-1 2h1l1 1h1a5 5 0 0 1 1 1h1l1 1v1h1v1h4v-1h1l1-1v-1l-1-2-1-1 1-1v-1l-1-1v-1h-1a1 1 0 0 0-1 0h1v1h1v1-1 1a3 3 0 0 1 0 1c0-1 0 0 0 0h-1v1a1 1 0 0 0 0 1h1v1h1v1l-1 1-1 1h-2v-1h-1l-1-1-1-1-1-1-2-1h-1 1c-1 0 0 0 0 0h1l1 1h2v-2a2 2 0 0 0-1-1h1l2-1h2v-1a1 1 0 0 0-1 0 1 1 0 0 0 1 1Zm-18-9h-1l-1-2h-4a1 1 0 0 0 0 1 1 1 0 0 0 1 1l1 1a1 1 0 0 1 0 1l1-1-4 1v-1l-1-1-1-1h-3l-2-1h-3l-1 2v1h-1c1 0 0 0 0 0s1 0 0 0l-1 1v1l1 1h1l2 1h5v-1c0 1 0 0 0 0v1h-2v1l1 1h1l1 1h2l1-1h1l1-1h1l2-1h3a2 2 0 0 0 1-1l1-1v-2l-1-1h-3v1-1 1h3v2h-1v1h-3l-1 1h-3v1h-6 1l1-1v-1h-4l-2-1h-3v-1 1-1h1v-1h1v-1l1-1h2l1 1h2a5 5 0 0 1 2 0v1l2 2h4a1 1 0 0 0 0-1 2 2 0 0 0 0-1v-1h-1l-1-1h1s-1 0 0 0h1l1 2h2v-1Zm6 3h-2v2h1l1 1 1-1a1 1 0 0 0 1 0 1 1 0 0 0-1-1v-1h-2a1 1 0 0 0 0 1h1v1h1v-1c-1 0 0 0 0 0h-1s1 0 0 0h-1s0 1 0 0c0 0 1 0 0 0h1-1a1 1 0 0 0 1-1ZM27 50c0 1 0 0 0 0 0 1 0 0 0 0h-3v1h-2v1c-1 1 0 1 1 2h7a1 1 0 0 0 1-1l-1-1h-1l-1-1h-2a1 1 0 0 0 1 1v-1 1h1l1 1h1-5a4 4 0 0 1-2 0 2 2 0 0 1 0-1h1l1-1 1 1h1l1-1a1 1 0 0 0 0-1 1 1 0 0 0-1 0Z"/>
      <path fill="#0A6DFF" fill-opacity=".4" d="M30 48h-4a1 1 0 0 0 0 1v1h1l1 1h2l1-1-1-1a1 1 0 0 0-1 0 1 1 0 0 0 0 1h1-1l-1-1h-1 2c1 1 1 0 1-1Zm-16 5-1 1h-2l-1 1H9l-1 1H7l-1 1H4v2l1 1h3l1 1h1l1-1v-1l1-1h-1 2v1a1 1 0 0 0 1 0h1l1-1v-1c0 1 0 0 0 0v1-1h1a1 1 0 0 0 1 0l-1-1v-1 1l1-1a1 1 0 0 0-1-1 8 8 0 0 0-2-1l-1 1v1h3-1a1 1 0 0 0 0 1h1s0 1 0 0l-2 1a3 3 0 0 1-1 1 1 1 0 0 0-1-1h-2l-1 1a5 5 0 0 0 0 1v1H9l-1-1H5v-1c-1 0 0 0 0 0s-1 0 0 0v1c-1 0 0 0 0 0v-1h1s1 0 0 0h1a1 1 0 0 0 1-1c-1 0-1 0 0 0l1-1h1a10 10 0 0 0 1-1h2s0-1 0 0h1v-2ZM8 66l-2-1H1l-1 1a1 1 0 0 0 0 1l1 1h1c0 1 0 0 0 0v1s0-1 0 0a3 3 0 0 1-1 1s1 0 0 0H0v2h-1v1h-1a1 1 0 0 0 0 2h1l2 1c1 0 0 0 0 0h1v2h2v1a1 1 0 0 0 1-1h2l1-1a1 1 0 0 0 0-1l1-1h1v-2h1a12 12 0 0 0 3-1v-1l3-1 2-1-1-1h-1l-1-1h-2v-1H8v-1a1 1 0 0 0-1 1 1 1 0 0 0 1 1h6v1h2l1 1h1s-1 0 0 0l-2 1h-3l-1 1-2 1-1 1v1l-2 1v1s0 1 0 0v1H3a6 6 0 0 0 0-1H2l-1-1-1-1h-1 1v-1l1-1s-1 0 0 0l1-1 1-1v-2l-1-1H1c0-1 0 0 0 0 0-1 0-1 0 0v-1h5l1 1v-1a1 1 0 0 0 1 1 1 1 0 0 0 0-1Z"/>
      <path fill="#0A6DFF" fill-opacity=".4" d="M41 79a12 12 0 0 1-2-1v-3l-1-1a3 3 0 0 1 0-1l1-1v-1l-1-1v-1h-4v2-1h-1l-1 1a1 1 0 0 0 1 1c0 1 0 1 0 0v2h-1l-1-1v-1h-1l-1-1h-1a4 4 0 0 0-1 1h-1c1 0 0 0 0 0v-1h-4v1s0-1 0 0h-1v-1 1-1c0 1 0 0 0 0l-1-1a7 7 0 0 0-2 0h-1l-1 1-3 1h-1v2l-1 1a1 1 0 0 0 0 1l1 1 2 1h1v-1s-1 0 0 0h-1v1h-2l2 2h1l1 1h6l1-1h-2l-1 1h-4a1 1 0 0 0-1 1 1 1 0 0 0 0 1h1l1 1h1l2 1h2s-1 0 0 0c0 1 0 1 0 0v2h1l2 1h5l1-1h1l2-1 1-1h2l2 1a17 17 0 0 0 3 0h3v-2h-1 3a2 2 0 0 0 1-2l-1-1-2-1h-2l-1-1h-1a1 1 0 0 0-1 0 1 1 0 0 0 0 1h2l1 1h2l1 1a1 1 0 0 1 0 1h-2l-1 1a1 1 0 0 0 0 1h2s-1 0 0 0h-1c1 0 0 0 0 0s1 0 0 0h-4l-3-1a3 3 0 0 0-1 0h-2v1h-2l-2 1-2 1h-3a5 5 0 0 1-2-1v-1l-2-1-2-1h-2l-1-1h4l1-1h2l-1-1h-4l-2-1h-2c-1 0 0 0 0 0h-1 1l1-1 1-1h-1l-3-1c-1 0 0 0 0 0v-1l1-1c0-1 0-1 0 0 0 0 0-1 0 0v-1h2l1-1 1-1h3v1l2 1v-1h3l1 1h1l1-1h1l1 1a7 7 0 0 0 2 2l2-1v-2 1-1l-1-1h2a1 1 0 0 0 0-1h-1 2a2 2 0 0 1 1 0v1h1v1h-1v3h1v4h1l1 1h2a1 1 0 0 0 0-1 1 1 0 0 0-1 0Z"/>
    </g>
  </g>
  <g filter="url(#e)">
    <path fill="#4590FF" fill-opacity=".3" d="M129 257a2 2 0 1 0 3 0 2 2 0 0 0-3 0Zm150-115a2 2 0 1 0 3 0 2 2 0 0 0-3 0ZM130 257c-1-38 23-85 54-113 16-14 33-23 50-24 17-2 33 5 47 22a52 52 0 0 0-47-23c-17 2-34 11-50 25-32 28-56 74-54 113Z"/>
  </g>
  <g filter="url(#f)">
    <path fill="#4590FF" fill-opacity=".3" d="M120 315a2 2 0 1 1-3 0 2 2 0 0 1 3 0ZM45 184a2 2 0 1 1-3 0 2 2 0 0 1 3 0Zm73 131c2-39-9-89-24-120l-12-19c-4-5-9-9-13-10-4-2-9-1-13 2s-9 8-12 16h-1c4-8 8-14 13-17 4-3 9-3 13-2 5 2 9 5 13 10 5 6 9 12 13 20 15 31 26 81 24 120h-1Z"/>
  </g>
  <g filter="url(#g)">
    <path fill="#4590FF" fill-opacity=".3" d="M17 130a2 2 0 1 0 3 0 2 2 0 0 0-3 0Zm238 75a2 2 0 1 0 3 0 2 2 0 0 0-3 0ZM19 131c34-42 89-38 137-16 24 11 47 26 65 42s31 34 35 48h1c-5-15-18-32-36-48s-40-32-65-43C108 93 53 89 18 130l1 1Z"/>
  </g>
  <g filter="url(#h)">
    <path fill="url(#i)" fill-opacity=".3" d="M159 77a2 2 0 1 0 3 0 2 2 0 0 0-3 0Zm195 66a2 2 0 1 0 3 0 2 2 0 0 0-3 0ZM160 77c20-18 41-24 61-23s40 10 58 21c17 12 34 26 47 39l17 17 12 12h1l-12-12-18-17c-13-13-29-28-47-39-18-12-38-20-58-22-20-1-41 6-61 24Z"/>
  </g>
  <defs>
    <filter id="c" width="465.1" height="378.8" x="-103" y="67.9" color-interpolation-filters="sRGB" filterUnits="userSpaceOnUse">
      <feFlood flood-opacity="0" result="BackgroundImageFix"/>
      <feBlend in="SourceGraphic" in2="BackgroundImageFix" result="shape"/>
      <feGaussianBlur result="effect1_foregroundBlur_11826_42244" stdDeviation="56.2"/>
    </filter>
    <filter id="d" width="454.8" height="448.9" x="188" y="103.7" color-interpolation-filters="sRGB" filterUnits="userSpaceOnUse">
      <feFlood flood-opacity="0" result="BackgroundImageFix"/>
      <feBlend in="SourceGraphic" in2="BackgroundImageFix" result="shape"/>
      <feGaussianBlur result="effect1_foregroundBlur_11826_42244" stdDeviation="56.2"/>
    </filter>
    <filter id="e" width="172.6" height="158.8" x="119.2" y="110.8" color-interpolation-filters="sRGB" filterUnits="userSpaceOnUse">
      <feFlood flood-opacity="0" result="BackgroundImageFix"/>
      <feColorMatrix in="SourceAlpha" result="hardAlpha" values="0 0 0 0 0 0 0 0 0 0 0 0 0 0 0 0 0 0 127 0"/>
      <feOffset dy="1.2"/>
      <feGaussianBlur stdDeviation="4.7"/>
      <feComposite in2="hardAlpha" operator="out"/>
      <feColorMatrix values="0 0 0 0 0.109896 0 0 0 0 0.446452 0 0 0 0 0.879167 0 0 0 0.6 0"/>
      <feBlend in2="BackgroundImageFix" result="effect1_dropShadow_11826_42244"/>
      <feBlend in="SourceGraphic" in2="effect1_dropShadow_11826_42244" result="shape"/>
    </filter>
    <filter id="f" width="97.4" height="170.5" x="32.3" y="156.2" color-interpolation-filters="sRGB" filterUnits="userSpaceOnUse">
      <feFlood flood-opacity="0" result="BackgroundImageFix"/>
      <feColorMatrix in="SourceAlpha" result="hardAlpha" values="0 0 0 0 0 0 0 0 0 0 0 0 0 0 0 0 0 0 127 0"/>
      <feOffset dy="1.2"/>
      <feGaussianBlur stdDeviation="4.7"/>
      <feComposite in2="hardAlpha" operator="out"/>
      <feColorMatrix values="0 0 0 0 0.109896 0 0 0 0 0.446452 0 0 0 0 0.879167 0 0 0 0.6 0"/>
      <feBlend in2="BackgroundImageFix" result="effect1_dropShadow_11826_42244"/>
      <feBlend in="SourceGraphic" in2="effect1_dropShadow_11826_42244" result="shape"/>
    </filter>
    <filter id="g" width="260.2" height="127" x="7.3" y="90.2" color-interpolation-filters="sRGB" filterUnits="userSpaceOnUse">
      <feFlood flood-opacity="0" result="BackgroundImageFix"/>
      <feColorMatrix in="SourceAlpha" result="hardAlpha" values="0 0 0 0 0 0 0 0 0 0 0 0 0 0 0 0 0 0 127 0"/>
      <feOffset dy="1.2"/>
      <feGaussianBlur stdDeviation="4.7"/>
      <feComposite in2="hardAlpha" operator="out"/>
      <feColorMatrix values="0 0 0 0 0.109896 0 0 0 0 0.446452 0 0 0 0 0.879167 0 0 0 0.6 0"/>
      <feBlend in2="BackgroundImageFix" result="effect1_dropShadow_11826_42244"/>
      <feBlend in="SourceGraphic" in2="effect1_dropShadow_11826_42244" result="shape"/>
    </filter>
    <filter id="h" width="217.1" height="109.9" x="149.2" y="45" color-interpolation-filters="sRGB" filterUnits="userSpaceOnUse">
      <feFlood flood-opacity="0" result="BackgroundImageFix"/>
      <feColorMatrix in="SourceAlpha" result="hardAlpha" values="0 0 0 0 0 0 0 0 0 0 0 0 0 0 0 0 0 0 127 0"/>
      <feOffset dy="1.2"/>
      <feGaussianBlur stdDeviation="4.7"/>
      <feComposite in2="hardAlpha" operator="out"/>
      <feColorMatrix values="0 0 0 0 0.109896 0 0 0 0 0.446452 0 0 0 0 0.879167 0 0 0 0.6 0"/>
      <feBlend in2="BackgroundImageFix" result="effect1_dropShadow_11826_42244"/>
      <feBlend in="SourceGraphic" in2="effect1_dropShadow_11826_42244" result="shape"/>
    </filter>
    <radialGradient id="a" cx="0" cy="0" r="1" gradientTransform="matrix(468 -330 386 546 119 341)" gradientUnits="userSpaceOnUse">
      <stop stop-color="#D9D9D9" stop-opacity="0"/>
      <stop offset=".3" stop-color="#D9D9D9"/>
      <stop offset=".6" stop-color="#D9D9D9" stop-opacity=".1"/>
      <stop offset="1" stop-color="#D9D9D9" stop-opacity=".3"/>
    </radialGradient>
    <linearGradient id="i" x1="223.7" x2="329.8" y1="50.8" y2="115" gradientUnits="userSpaceOnUse">
      <stop stop-color="#4590FF"/>
      <stop offset="1" stop-color="#4590FF" stop-opacity="0"/>
    </linearGradient>
  </defs>
</svg>