<svg width="1440" height="519" viewBox="0 0 1440 519" fill="none" xmlns="http://www.w3.org/2000/svg">
<path d="M-148 191.209C-148 172.592 -133.805 157.046 -115.264 155.358L1481.07 10.0048C1511.53 7.23114 1531.35 41.3062 1513.88 66.4155L1216.05 494.523C1208.93 504.765 1197.01 510.588 1184.55 509.911L-113.953 439.378C-133.048 438.341 -148 422.555 -148 403.431V191.209Z" fill="#0D6EFD" fill-opacity="0.15"/>
<mask id="mask0_6432_13037" style="mask-type:alpha" maskUnits="userSpaceOnUse" x="-180" y="0" width="1732" height="519">
<path d="M-180 188.211C-180 168.891 -165.264 152.758 -146.017 151.006L1511.15 0.165125C1542.78 -2.71327 1563.35 32.6483 1545.22 58.7055L1236.04 502.976C1228.64 513.605 1216.27 519.647 1203.34 518.945L-144.655 445.749C-164.478 444.673 -180 428.29 -180 408.445V188.211Z" fill="url(#paint0_linear_6432_13037)"/>
</mask>
<g mask="url(#mask0_6432_13037)">
<g filter="url(#filter0_d_6432_13037)">
<path fill-rule="evenodd" clip-rule="evenodd" d="M1481.25 11.9966L-115.083 157.35C-132.594 158.944 -146 173.626 -146 191.209V403.431C-146 421.492 -131.879 436.401 -113.844 437.381L1184.66 507.914C1196.42 508.553 1207.68 503.054 1214.41 493.381L1512.24 65.2733C1528.74 41.559 1510.02 9.377 1481.25 11.9966ZM-115.264 155.358C-133.805 157.046 -148 172.592 -148 191.209V403.431C-148 422.555 -133.048 438.341 -113.953 439.378L1184.55 509.911C1197.01 510.588 1208.93 504.765 1216.05 494.523L1513.88 66.4155C1531.35 41.3062 1511.53 7.23114 1481.07 10.0048L-115.264 155.358Z" fill="#0D6EFD" fill-opacity="0.9" shape-rendering="crispEdges"/>
</g>
</g>
<g filter="url(#filter1_d_6432_13037)">
<path fill-rule="evenodd" clip-rule="evenodd" d="M1481.25 11.9966L-115.083 157.35C-132.594 158.944 -146 173.626 -146 191.209V403.431C-146 421.492 -131.879 436.401 -113.844 437.381L1184.66 507.914C1196.42 508.553 1207.68 503.054 1214.41 493.381L1512.24 65.2733C1528.74 41.559 1510.02 9.377 1481.25 11.9966ZM-115.264 155.358C-133.805 157.046 -148 172.592 -148 191.209V403.431C-148 422.555 -133.048 438.341 -113.953 439.378L1184.55 509.911C1197.01 510.588 1208.93 504.765 1216.05 494.523L1513.88 66.4155C1531.35 41.3062 1511.53 7.23114 1481.07 10.0048L-115.264 155.358Z" fill="#0D6EFD" fill-opacity="0.9" shape-rendering="crispEdges"/>
</g>
<defs>
<filter id="filter0_d_6432_13037" x="-160" y="-2.1543" width="1692.41" height="524.119" filterUnits="userSpaceOnUse" color-interpolation-filters="sRGB">
<feFlood flood-opacity="0" result="BackgroundImageFix"/>
<feColorMatrix in="SourceAlpha" type="matrix" values="0 0 0 0 0 0 0 0 0 0 0 0 0 0 0 0 0 0 127 0" result="hardAlpha"/>
<feOffset/>
<feGaussianBlur stdDeviation="6"/>
<feComposite in2="hardAlpha" operator="out"/>
<feColorMatrix type="matrix" values="0 0 0 0 0.0627451 0 0 0 0 0.603922 0 0 0 0 0.913725 0 0 0 1 0"/>
<feBlend mode="normal" in2="BackgroundImageFix" result="effect1_dropShadow_6432_13037"/>
<feBlend mode="normal" in="SourceGraphic" in2="effect1_dropShadow_6432_13037" result="shape"/>
</filter>
<filter id="filter1_d_6432_13037" x="-152" y="9.8457" width="1676.41" height="508.119" filterUnits="userSpaceOnUse" color-interpolation-filters="sRGB">
<feFlood flood-opacity="0" result="BackgroundImageFix"/>
<feColorMatrix in="SourceAlpha" type="matrix" values="0 0 0 0 0 0 0 0 0 0 0 0 0 0 0 0 0 0 127 0" result="hardAlpha"/>
<feOffset dy="4"/>
<feGaussianBlur stdDeviation="2"/>
<feComposite in2="hardAlpha" operator="out"/>
<feColorMatrix type="matrix" values="0 0 0 0 0 0 0 0 0 0 0 0 0 0 0 0 0 0 0.25 0"/>
<feBlend mode="normal" in2="BackgroundImageFix" result="effect1_dropShadow_6432_13037"/>
<feBlend mode="normal" in="SourceGraphic" in2="effect1_dropShadow_6432_13037" result="shape"/>
</filter>
<linearGradient id="paint0_linear_6432_13037" x1="228" y1="362" x2="1416.95" y2="113.685" gradientUnits="userSpaceOnUse">
<stop stop-color="#233F54" stop-opacity="0"/>
<stop offset="1" stop-color="#233F54" stop-opacity="0.64"/>
</linearGradient>
</defs>
</svg>
