<svg width="1440" height="519" viewBox="0 0 1440 519" fill="none" xmlns="http://www.w3.org/2000/svg">
<path d="M-148 191.21C-148 172.593 -133.805 157.046 -115.264 155.358L1481.07 10.0053C1511.53 7.23163 1531.35 41.3067 1513.88 66.416L1216.05 494.523C1208.93 504.766 1197.01 510.588 1184.55 509.911L-113.953 439.378C-133.048 438.341 -148 422.555 -148 403.431V191.21Z" fill="url(#paint0_linear_6603_11394)"/>
<mask id="mask0_6603_11394" style="mask-type:alpha" maskUnits="userSpaceOnUse" x="-180" y="0" width="1732" height="519">
<path d="M-180 188.211C-180 168.891 -165.264 152.758 -146.017 151.006L1511.15 0.165125C1542.78 -2.71327 1563.35 32.6483 1545.22 58.7055L1236.04 502.976C1228.64 513.605 1216.27 519.647 1203.34 518.945L-144.655 445.749C-164.478 444.673 -180 428.29 -180 408.445V188.211Z" fill="url(#paint1_linear_6603_11394)"/>
</mask>
<g mask="url(#mask0_6603_11394)">
<path fill-rule="evenodd" clip-rule="evenodd" d="M1481.25 11.9971L-115.083 157.35C-132.594 158.944 -146 173.627 -146 191.21V403.431C-146 421.493 -131.879 436.402 -113.844 437.381L1184.66 507.914C1196.42 508.554 1207.68 503.055 1214.41 493.381L1512.24 65.2738C1528.74 41.5595 1510.02 9.37749 1481.25 11.9971ZM-115.264 155.358C-133.805 157.046 -148 172.593 -148 191.21V403.431C-148 422.555 -133.048 438.341 -113.953 439.378L1184.55 509.911C1197.01 510.588 1208.93 504.766 1216.05 494.523L1513.88 66.416C1531.35 41.3067 1511.53 7.23163 1481.07 10.0053L-115.264 155.358Z" fill="url(#paint2_linear_6603_11394)"/>
</g>
<path fill-rule="evenodd" clip-rule="evenodd" d="M1481.25 11.9971L-115.083 157.35C-132.594 158.944 -146 173.627 -146 191.21V403.431C-146 421.493 -131.879 436.402 -113.844 437.381L1184.66 507.914C1196.42 508.554 1207.68 503.055 1214.41 493.381L1512.24 65.2738C1528.74 41.5595 1510.02 9.37749 1481.25 11.9971ZM-115.264 155.358C-133.805 157.046 -148 172.593 -148 191.21V403.431C-148 422.555 -133.048 438.341 -113.953 439.378L1184.55 509.911C1197.01 510.588 1208.93 504.766 1216.05 494.523L1513.88 66.416C1531.35 41.3067 1511.53 7.23163 1481.07 10.0053L-115.264 155.358Z" fill="url(#paint3_linear_6603_11394)"/>
<defs>
<linearGradient id="paint0_linear_6603_11394" x1="-58.7602" y1="437.529" x2="1319.6" y2="122.737" gradientUnits="userSpaceOnUse">
<stop stop-color="#0D6EFD" stop-opacity="0.02"/>
<stop offset="1" stop-color="#0D6EFD" stop-opacity="0.06"/>
</linearGradient>
<linearGradient id="paint1_linear_6603_11394" x1="228" y1="362" x2="1416.95" y2="113.685" gradientUnits="userSpaceOnUse">
<stop stop-color="#233F54" stop-opacity="0"/>
<stop offset="1" stop-color="#233F54" stop-opacity="0.64"/>
</linearGradient>
<linearGradient id="paint2_linear_6603_11394" x1="1051" y1="106" x2="279.5" y2="433" gradientUnits="userSpaceOnUse">
<stop stop-color="#0D6EFD"/>
<stop offset="1" stop-color="#0D6EFD" stop-opacity="0"/>
</linearGradient>
<linearGradient id="paint3_linear_6603_11394" x1="1051" y1="106" x2="279.5" y2="433" gradientUnits="userSpaceOnUse">
<stop stop-color="#0D6EFD"/>
<stop offset="1" stop-color="#0D6EFD" stop-opacity="0"/>
</linearGradient>
</defs>
</svg>
