<svg width="390" height="448" viewBox="0 0 390 448" fill="none" xmlns="http://www.w3.org/2000/svg">
<path d="M-298.174 247.447C-299.34 237.386 -293.48 227.951 -284.658 225.688L474.867 30.8397C489.361 27.1215 501.041 44.0916 494.203 58.9333L377.624 311.981C374.835 318.035 369.46 322.05 363.419 322.592L-266.23 379.077C-275.489 379.908 -283.678 372.466 -284.876 362.132L-298.174 247.447Z" fill="url(#paint0_linear_6598_17899)"/>
<mask id="mask0_6598_17899" style="mask-type:alpha" maskUnits="userSpaceOnUse" x="-316" y="23" width="831" height="364">
<path d="M-314.993 255.863C-316.068 245.876 -309.841 236.362 -300.633 233.921L492.226 23.7855C507.356 19.7756 519.273 36.4123 511.955 51.3272L387.188 305.624C384.203 311.708 378.556 315.818 372.263 316.486L-283.572 386.162C-293.217 387.186 -301.634 379.957 -302.738 369.699L-314.993 255.863Z" fill="url(#paint1_linear_6598_17899)"/>
</mask>
<g mask="url(#mask0_6598_17899)">
<g filter="url(#filter0_d_6598_17899)">
<path fill-rule="evenodd" clip-rule="evenodd" d="M479.645 30.2541L-285.523 229.264C-293.916 231.447 -299.616 240.447 -298.667 250.019L-287.214 365.546C-286.24 375.378 -278.597 382.434 -269.811 381.613L362.786 322.491C368.519 321.956 373.674 318.117 376.41 312.345L497.529 56.9289C504.238 42.7805 493.435 26.6675 479.645 30.2541ZM-285.718 228.194C-294.605 230.505 -300.64 240.034 -299.636 250.169L-288.183 365.696C-287.151 376.107 -279.059 383.577 -269.756 382.708L362.841 323.587C368.911 323.019 374.369 318.955 377.267 312.844L498.386 57.4273C505.489 42.4467 494.051 25.3859 479.45 29.1835L-285.718 228.194Z" fill="url(#paint2_linear_6598_17899)" shape-rendering="crispEdges"/>
</g>
</g>
<g filter="url(#filter1_d_6598_17899)">
<path fill-rule="evenodd" clip-rule="evenodd" d="M475.079 31.9028L-284.446 226.751C-292.777 228.888 -298.313 237.799 -297.211 247.301L-283.913 361.986C-282.781 371.746 -275.048 378.774 -266.302 377.99L363.346 321.505C369.052 320.993 374.128 317.201 376.762 311.484L493.341 58.4357C499.799 44.4185 488.768 28.3912 475.079 31.9028ZM-284.658 225.688C-293.48 227.951 -299.34 237.386 -298.174 247.447L-284.876 362.132C-283.678 372.466 -275.489 379.908 -266.23 379.077L363.419 322.592C369.46 322.05 374.835 318.035 377.624 311.981L494.203 58.9333C501.041 44.0916 489.361 27.1215 474.867 30.8397L-284.658 225.688Z" fill="url(#paint3_linear_6598_17899)" shape-rendering="crispEdges"/>
</g>
<defs>
<filter id="filter0_d_6598_17899" x="-305.169" y="23.2222" width="811.143" height="364.978" filterUnits="userSpaceOnUse" color-interpolation-filters="sRGB">
<feFlood flood-opacity="0" result="BackgroundImageFix"/>
<feColorMatrix in="SourceAlpha" type="matrix" values="0 0 0 0 0 0 0 0 0 0 0 0 0 0 0 0 0 0 127 0" result="hardAlpha"/>
<feOffset/>
<feGaussianBlur stdDeviation="2.7119"/>
<feComposite in2="hardAlpha" operator="out"/>
<feColorMatrix type="matrix" values="0 0 0 0 0.0627451 0 0 0 0 0.603922 0 0 0 0 0.913725 0 0 0 1 0"/>
<feBlend mode="normal" in2="BackgroundImageFix" result="effect1_dropShadow_6598_17899"/>
<feBlend mode="normal" in="SourceGraphic" in2="effect1_dropShadow_6598_17899" result="shape"/>
</filter>
<filter id="filter1_d_6598_17899" x="-300.129" y="30.3208" width="798.146" height="352.435" filterUnits="userSpaceOnUse" color-interpolation-filters="sRGB">
<feFlood flood-opacity="0" result="BackgroundImageFix"/>
<feColorMatrix in="SourceAlpha" type="matrix" values="0 0 0 0 0 0 0 0 0 0 0 0 0 0 0 0 0 0 127 0" result="hardAlpha"/>
<feOffset dy="1.80794"/>
<feGaussianBlur stdDeviation="0.903968"/>
<feComposite in2="hardAlpha" operator="out"/>
<feColorMatrix type="matrix" values="0 0 0 0 0.0509804 0 0 0 0 0.431373 0 0 0 0 0.992157 0 0 0 0.1 0"/>
<feBlend mode="normal" in2="BackgroundImageFix" result="effect1_dropShadow_6598_17899"/>
<feBlend mode="normal" in="SourceGraphic" in2="effect1_dropShadow_6598_17899" result="shape"/>
</filter>
<linearGradient id="paint0_linear_6598_17899" x1="-52.046" y1="275.967" x2="427.198" y2="146.288" gradientUnits="userSpaceOnUse">
<stop stop-color="#0D6EFD" stop-opacity="0.02"/>
<stop offset="1" stop-color="#0D6EFD" stop-opacity="0.06"/>
</linearGradient>
<linearGradient id="paint1_linear_6598_17899" x1="-108.052" y1="313.152" x2="466.54" y2="133.239" gradientUnits="userSpaceOnUse">
<stop stop-color="#233F54" stop-opacity="0"/>
<stop offset="1" stop-color="#233F54" stop-opacity="0.64"/>
</linearGradient>
<linearGradient id="paint2_linear_6598_17899" x1="276.374" y1="113.738" x2="-102.099" y2="305.147" gradientUnits="userSpaceOnUse">
<stop stop-color="#0D6EFD"/>
<stop offset="1" stop-color="#0D6EFD" stop-opacity="0"/>
</linearGradient>
<linearGradient id="paint3_linear_6598_17899" x1="273.806" y1="114.047" x2="-97.3858" y2="308.373" gradientUnits="userSpaceOnUse">
<stop stop-color="#0D6EFD"/>
<stop offset="1" stop-color="#0D6EFD" stop-opacity="0"/>
</linearGradient>
</defs>
</svg>
