<svg width="336" height="363" viewBox="0 0 336 363" fill="none" xmlns="http://www.w3.org/2000/svg">
<mask id="path-1-inside-1_6598_10585" fill="white">
<path d="M173.66 56.8128C173.523 45.6365 173.66 56.4403 173.523 34.6465C179.159 34.6249 280.529 78.2739 284.918 81.8207C289.308 85.3674 289.48 89.9635 290.115 95.7715C290.115 98.0947 290.227 97.9011 290.115 98.8433C290.233 100.09 290.227 101.287 290.227 102.502V177.112C290.242 177.615 290.205 178.119 290.115 178.614C289.926 179.45 289.47 180.2 288.816 180.75C288.162 181.301 287.347 181.621 286.494 181.662H285.544H257.727C257.331 181.657 256.934 181.68 256.541 181.731C255.783 181.803 255.063 182.102 254.475 182.589C253.887 183.075 253.458 183.728 253.243 184.461C253.026 185.204 253.026 185.994 253.243 186.736C253.614 188.288 253.799 189.878 253.796 191.474C253.813 194.785 252.956 198.041 251.312 200.911C248.875 205.308 244.827 208.577 240.027 210.025C238.458 210.513 236.831 210.785 235.189 210.835C231.731 211.013 220.84 210.225 217.801 208.56C215.321 207.245 213.16 205.399 211.47 203.153C209.779 200.908 208.601 198.316 208.019 195.563C207.617 193.773 207.477 191.933 207.603 190.103C207.68 188.963 207.855 187.833 208.125 186.724C208.402 185.739 208.289 184.685 207.808 183.782C207.528 183.221 207.113 182.74 206.599 182.383C206.086 182.026 205.491 181.804 204.87 181.737C204.458 181.691 204.043 181.666 203.628 181.662H175.685H174.648C173.673 181.621 172.749 181.214 172.059 180.521C171.369 179.829 170.963 178.901 170.922 177.922C170.922 177.629 170.922 177.336 170.922 177.043V148.411C170.896 147.78 170.719 147.164 170.405 146.615C170.092 146.067 169.652 145.602 169.122 145.261C168.592 144.919 167.988 144.71 167.361 144.652C166.734 144.594 166.102 144.688 165.519 144.927C164.318 145.428 163.069 145.804 161.792 146.049C160.026 146.396 158.221 146.5 156.426 146.36C154.872 146.238 147.038 143.435 146.344 142.528C144.66 140.329 143.468 137.791 142.849 135.088C142.371 133.121 142.222 133.324 142.408 131.308C141.636 127.187 143.279 123.284 145.982 120.163C148.686 117.041 152.308 114.865 156.326 113.948C160.173 113.066 164.197 113.384 167.859 114.858C168.126 114.964 168.406 115.057 168.685 115.138C169.252 115.281 169.843 115.293 170.415 115.175C170.987 115.057 171.525 114.812 171.989 114.457C172.454 114.102 172.833 113.647 173.098 113.125C173.364 112.603 173.509 112.028 173.523 111.442C173.523 111.124 173.523 110.819 173.523 110.488V77.4881C173.507 76.9836 173.66 76.9302 173.66 75.9858C173.66 74.6949 173.66 77.4881 173.66 73.9499C173.66 71.7146 173.66 74.5087 173.66 71.1558V62.2147V56.8128Z"/>
</mask>
<path d="M173.66 56.8128C173.523 45.6365 173.66 56.4403 173.523 34.6465C179.159 34.6249 280.529 78.2739 284.918 81.8207C289.308 85.3674 289.48 89.9635 290.115 95.7715C290.115 98.0947 290.227 97.9011 290.115 98.8433C290.233 100.09 290.227 101.287 290.227 102.502V177.112C290.242 177.615 290.205 178.119 290.115 178.614C289.926 179.45 289.47 180.2 288.816 180.75C288.162 181.301 287.347 181.621 286.494 181.662H285.544H257.727C257.331 181.657 256.934 181.68 256.541 181.731C255.783 181.803 255.063 182.102 254.475 182.589C253.887 183.075 253.458 183.728 253.243 184.461C253.026 185.204 253.026 185.994 253.243 186.736C253.614 188.288 253.799 189.878 253.796 191.474C253.813 194.785 252.956 198.041 251.312 200.911C248.875 205.308 244.827 208.577 240.027 210.025C238.458 210.513 236.831 210.785 235.189 210.835C231.731 211.013 220.84 210.225 217.801 208.56C215.321 207.245 213.16 205.399 211.47 203.153C209.779 200.908 208.601 198.316 208.019 195.563C207.617 193.773 207.477 191.933 207.603 190.103C207.68 188.963 207.855 187.833 208.125 186.724C208.402 185.739 208.289 184.685 207.808 183.782C207.528 183.221 207.113 182.74 206.599 182.383C206.086 182.026 205.491 181.804 204.87 181.737C204.458 181.691 204.043 181.666 203.628 181.662H175.685H174.648C173.673 181.621 172.749 181.214 172.059 180.521C171.369 179.829 170.963 178.901 170.922 177.922C170.922 177.629 170.922 177.336 170.922 177.043V148.411C170.896 147.78 170.719 147.164 170.405 146.615C170.092 146.067 169.652 145.602 169.122 145.261C168.592 144.919 167.988 144.71 167.361 144.652C166.734 144.594 166.102 144.688 165.519 144.927C164.318 145.428 163.069 145.804 161.792 146.049C160.026 146.396 158.221 146.5 156.426 146.36C154.872 146.238 147.038 143.435 146.344 142.528C144.66 140.329 143.468 137.791 142.849 135.088C142.371 133.121 142.222 133.324 142.408 131.308C141.636 127.187 143.279 123.284 145.982 120.163C148.686 117.041 152.308 114.865 156.326 113.948C160.173 113.066 164.197 113.384 167.859 114.858C168.126 114.964 168.406 115.057 168.685 115.138C169.252 115.281 169.843 115.293 170.415 115.175C170.987 115.057 171.525 114.812 171.989 114.457C172.454 114.102 172.833 113.647 173.098 113.125C173.364 112.603 173.509 112.028 173.523 111.442C173.523 111.124 173.523 110.819 173.523 110.488V77.4881C173.507 76.9836 173.66 76.9302 173.66 75.9858C173.66 74.6949 173.66 77.4881 173.66 73.9499C173.66 71.7146 173.66 74.5087 173.66 71.1558V62.2147V56.8128Z" fill="#0D2B40"/>
<mask id="path-3-inside-2_6598_10585" fill="white">
<path d="M220.391 305.849H172.402C171.929 305.864 171.455 305.833 170.987 305.757C170.076 305.566 169.255 305.075 168.656 304.363C168.056 303.651 167.713 302.758 167.68 301.828C167.68 301.605 167.68 301.382 167.68 301.173V266.155C167.662 265.652 167.704 265.149 167.804 264.655C167.931 264.111 168.167 263.598 168.498 263.147C168.828 262.695 169.246 262.316 169.727 262.03C170.208 261.744 170.741 261.559 171.295 261.484C171.85 261.41 172.413 261.448 172.952 261.597C173.273 261.689 173.607 261.82 173.895 261.938C177.466 263.331 181.358 263.69 185.123 262.972C188.888 262.253 192.375 260.488 195.181 257.877C197.951 255.314 199.957 252.035 200.976 248.402C201.996 244.769 201.99 240.925 200.958 237.295C199.926 233.666 197.91 230.393 195.132 227.839C192.354 225.285 188.923 223.55 185.219 222.827C181.389 222.064 177.419 222.438 173.797 223.901C173.173 224.163 172.508 224.312 171.832 224.34C170.757 224.349 169.721 223.939 168.943 223.197C168.165 222.455 167.708 221.439 167.667 220.365C167.667 220.142 167.667 219.919 167.667 219.71C167.667 208.013 167.667 196.317 167.667 184.62C167.655 184.257 167.672 183.893 167.719 183.533C167.857 182.556 168.336 181.659 169.072 181.002C169.809 180.345 170.754 179.97 171.741 179.944C171.989 179.944 172.245 179.944 172.494 179.944H206.165C206.638 179.934 207.112 179.967 207.58 180.042C208.633 180.245 209.566 180.848 210.183 181.726C210.8 182.603 211.052 183.685 210.887 184.745C210.822 185.131 210.73 185.511 210.658 185.891C209.309 192.741 210.953 198.792 215.603 203.979C218.633 207.402 222.768 209.655 227.287 210.345C230.621 210.9 234.041 210.62 237.24 209.53C240.439 208.439 243.317 206.571 245.617 204.095C247.917 201.618 249.566 198.609 250.417 195.338C251.268 192.068 251.294 188.637 250.492 185.354C250.283 184.568 250.283 183.742 250.492 182.957C250.731 182.113 251.231 181.366 251.92 180.823C252.61 180.281 253.454 179.971 254.33 179.938C254.586 179.938 254.835 179.938 255.083 179.938H292.186C292.625 179.927 293.063 179.958 293.496 180.029C294.438 180.197 295.294 180.684 295.92 181.407C296.546 182.131 296.904 183.048 296.934 184.004C296.934 184.175 296.934 184.345 296.934 184.509C296.934 216.333 296.934 248.154 296.934 279.974C296.993 285.869 294.976 291.598 291.236 296.156C287.41 300.993 281.957 304.275 275.891 305.39C274.272 305.702 272.627 305.858 270.979 305.855L220.391 305.849Z"/>
</mask>
<path d="M220.391 305.849H172.402C171.929 305.864 171.455 305.833 170.987 305.757C170.076 305.566 169.255 305.075 168.656 304.363C168.056 303.651 167.713 302.758 167.68 301.828C167.68 301.605 167.68 301.382 167.68 301.173V266.155C167.662 265.652 167.704 265.149 167.804 264.655C167.931 264.111 168.167 263.598 168.498 263.147C168.828 262.695 169.246 262.316 169.727 262.03C170.208 261.744 170.741 261.559 171.295 261.484C171.85 261.41 172.413 261.448 172.952 261.597C173.273 261.689 173.607 261.82 173.895 261.938C177.466 263.331 181.358 263.69 185.123 262.972C188.888 262.253 192.375 260.488 195.181 257.877C197.951 255.314 199.957 252.035 200.976 248.402C201.996 244.769 201.99 240.925 200.958 237.295C199.926 233.666 197.91 230.393 195.132 227.839C192.354 225.285 188.923 223.55 185.219 222.827C181.389 222.064 177.419 222.438 173.797 223.901C173.173 224.163 172.508 224.312 171.832 224.34C170.757 224.349 169.721 223.939 168.943 223.197C168.165 222.455 167.708 221.439 167.667 220.365C167.667 220.142 167.667 219.919 167.667 219.71C167.667 208.013 167.667 196.317 167.667 184.62C167.655 184.257 167.672 183.893 167.719 183.533C167.857 182.556 168.336 181.659 169.072 181.002C169.809 180.345 170.754 179.97 171.741 179.944C171.989 179.944 172.245 179.944 172.494 179.944H206.165C206.638 179.934 207.112 179.967 207.58 180.042C208.633 180.245 209.566 180.848 210.183 181.726C210.8 182.603 211.052 183.685 210.887 184.745C210.822 185.131 210.73 185.511 210.658 185.891C209.309 192.741 210.953 198.792 215.603 203.979C218.633 207.402 222.768 209.655 227.287 210.345C230.621 210.9 234.041 210.62 237.24 209.53C240.439 208.439 243.317 206.571 245.617 204.095C247.917 201.618 249.566 198.609 250.417 195.338C251.268 192.068 251.294 188.637 250.492 185.354C250.283 184.568 250.283 183.742 250.492 182.957C250.731 182.113 251.231 181.366 251.92 180.823C252.61 180.281 253.454 179.971 254.33 179.938C254.586 179.938 254.835 179.938 255.083 179.938H292.186C292.625 179.927 293.063 179.958 293.496 180.029C294.438 180.197 295.294 180.684 295.92 181.407C296.546 182.131 296.904 183.048 296.934 184.004C296.934 184.175 296.934 184.345 296.934 184.509C296.934 216.333 296.934 248.154 296.934 279.974C296.993 285.869 294.976 291.598 291.236 296.156C287.41 300.993 281.957 304.275 275.891 305.39C274.272 305.702 272.627 305.858 270.979 305.855L220.391 305.849Z" fill="#0D2B40"/>
<mask id="path-5-outside-3_6598_10585" maskUnits="userSpaceOnUse" x="47.875" y="27.6367" width="127" height="160" fill="black">
<rect fill="white" x="47.875" y="27.6367" width="127" height="160"/>
<path d="M53.8771 140.414C53.8771 126.2 53.8771 111.984 53.8771 97.7658C53.8228 93.7307 54.8279 89.7519 56.7919 86.2265C58.4444 83.1654 60.7577 80.5105 63.5637 78.4544C66.3698 76.3984 165.589 35.29 169.006 34.6367C169.191 39.8524 169 48.9799 169.186 55.4992V68.7245C169.186 72.6362 169.186 71.146 169.186 74.4989C169.186 77.1067 169.157 76.5977 169.186 77.5661C169.186 77.722 169.186 77.872 169.186 78.0279C169.186 88.8235 169.186 99.619 169.186 110.415C169.2 110.772 169.178 111.129 169.12 111.482C169.013 112.023 168.79 112.534 168.465 112.981C168.141 113.427 167.724 113.797 167.242 114.066C166.761 114.334 166.227 114.495 165.677 114.537C165.127 114.579 164.574 114.5 164.058 114.307C163.229 113.972 162.382 113.683 161.521 113.443C157.509 112.373 153.254 112.668 149.429 114.283C145.603 115.898 142.077 119 140.392 122.362C138.706 125.723 137.658 129.541 138.064 133.361C138.444 137.273 140.047 140.965 142.647 143.912C145.246 146.859 148.709 148.911 152.543 149.776C156.177 150.622 159.982 150.348 163.458 148.991C163.858 148.824 164.272 148.689 164.694 148.589C165.236 148.489 165.793 148.509 166.326 148.647C166.86 148.785 167.357 149.038 167.782 149.389C168.208 149.739 168.552 150.178 168.79 150.674C169.341 151.823 169.162 153.177 169.162 154.409C169.162 165.205 169.162 166.789 169.162 177.585C169.182 178.07 169.129 178.555 169.006 179.024C168.796 179.74 168.38 180.377 167.809 180.856C167.238 181.335 166.538 181.635 165.797 181.717C165.437 181.717 165.083 181.771 164.724 181.771H137.724C137.388 181.771 137.058 181.741 136.728 181.723C136.191 181.677 135.669 181.516 135.2 181.251C134.73 180.986 134.323 180.623 134.006 180.187C133.688 179.75 133.468 179.251 133.361 178.723C133.253 178.194 133.26 177.649 133.381 177.123C133.543 176.344 133.723 175.576 133.819 174.79C134.423 170.02 129.446 165.199 126.598 161.325C123.749 157.451 119.522 154.819 114.788 153.973C110.064 153.123 105.194 154.125 101.19 156.772C97.1858 159.419 94.3555 163.507 93.2869 168.187C92.627 170.985 88.9138 173.899 89.5974 176.691C89.7859 177.357 89.8168 178.057 89.6874 178.737C89.5238 179.519 89.1144 180.23 88.5189 180.764C87.9234 181.298 87.1729 181.628 86.3768 181.705C85.9989 181.705 85.6151 181.753 85.2312 181.753H58.3692C57.9854 181.753 57.6016 181.753 57.2237 181.693C56.4178 181.598 55.6644 181.245 55.0762 180.686C54.488 180.127 54.0968 179.393 53.9611 178.593C53.8992 178.164 53.8732 177.73 53.8831 177.297L53.8771 140.414Z"/>
</mask>
<path d="M53.8771 140.414C53.8771 126.2 53.8771 111.984 53.8771 97.7658C53.8228 93.7307 54.8279 89.7519 56.7919 86.2265C58.4444 83.1654 60.7577 80.5105 63.5637 78.4544C66.3698 76.3984 165.589 35.29 169.006 34.6367C169.191 39.8524 169 48.9799 169.186 55.4992V68.7245C169.186 72.6362 169.186 71.146 169.186 74.4989C169.186 77.1067 169.157 76.5977 169.186 77.5661C169.186 77.722 169.186 77.872 169.186 78.0279C169.186 88.8235 169.186 99.619 169.186 110.415C169.2 110.772 169.178 111.129 169.12 111.482C169.013 112.023 168.79 112.534 168.465 112.981C168.141 113.427 167.724 113.797 167.242 114.066C166.761 114.334 166.227 114.495 165.677 114.537C165.127 114.579 164.574 114.5 164.058 114.307C163.229 113.972 162.382 113.683 161.521 113.443C157.509 112.373 153.254 112.668 149.429 114.283C145.603 115.898 142.077 119 140.392 122.362C138.706 125.723 137.658 129.541 138.064 133.361C138.444 137.273 140.047 140.965 142.647 143.912C145.246 146.859 148.709 148.911 152.543 149.776C156.177 150.622 159.982 150.348 163.458 148.991C163.858 148.824 164.272 148.689 164.694 148.589C165.236 148.489 165.793 148.509 166.326 148.647C166.86 148.785 167.357 149.038 167.782 149.389C168.208 149.739 168.552 150.178 168.79 150.674C169.341 151.823 169.162 153.177 169.162 154.409C169.162 165.205 169.162 166.789 169.162 177.585C169.182 178.07 169.129 178.555 169.006 179.024C168.796 179.74 168.38 180.377 167.809 180.856C167.238 181.335 166.538 181.635 165.797 181.717C165.437 181.717 165.083 181.771 164.724 181.771H137.724C137.388 181.771 137.058 181.741 136.728 181.723C136.191 181.677 135.669 181.516 135.2 181.251C134.73 180.986 134.323 180.623 134.006 180.187C133.688 179.75 133.468 179.251 133.361 178.723C133.253 178.194 133.26 177.649 133.381 177.123C133.543 176.344 133.723 175.576 133.819 174.79C134.423 170.02 129.446 165.199 126.598 161.325C123.749 157.451 119.522 154.819 114.788 153.973C110.064 153.123 105.194 154.125 101.19 156.772C97.1858 159.419 94.3555 163.507 93.2869 168.187C92.627 170.985 88.9138 173.899 89.5974 176.691C89.7859 177.357 89.8168 178.057 89.6874 178.737C89.5238 179.519 89.1144 180.23 88.5189 180.764C87.9234 181.298 87.1729 181.628 86.3768 181.705C85.9989 181.705 85.6151 181.753 85.2312 181.753H58.3692C57.9854 181.753 57.6016 181.753 57.2237 181.693C56.4178 181.598 55.6644 181.245 55.0762 180.686C54.488 180.127 54.0968 179.393 53.9611 178.593C53.8992 178.164 53.8732 177.73 53.8831 177.297L53.8771 140.414Z" fill="#0D2B40"/>
<path fill-rule="evenodd" clip-rule="evenodd" d="M54.0374 275.606L54.0554 190.118C54.0471 189.658 54.0812 189.198 54.1573 188.744C54.3002 188.026 54.6482 187.364 55.1591 186.84C55.67 186.315 56.3219 185.949 57.0361 185.787C57.4887 185.702 57.949 185.663 58.4096 185.673H90.0046C90.9735 185.645 91.8955 185.25 92.5837 184.567C93.272 183.884 93.675 182.966 93.7111 181.997C93.7021 181.591 93.6416 181.188 93.5311 180.797C93.1542 179.257 92.9728 177.675 92.9914 176.089C93.063 171.91 94.5235 167.873 97.1427 164.615C99.7619 161.358 103.391 159.064 107.457 158.097C109.124 157.688 110.841 157.522 112.555 157.605C116.635 157.791 120.542 159.305 123.681 161.917C126.821 164.528 129.022 168.094 129.948 172.071C130.617 174.997 130.59 178.039 129.87 180.953C129.708 181.628 129.727 182.333 129.924 182.999C130.157 183.761 130.626 184.43 131.263 184.909C131.899 185.389 132.672 185.654 133.469 185.667H164.992C165.452 185.65 165.913 185.685 166.365 185.769C167.197 185.944 167.946 186.394 168.491 187.047C169.035 187.7 169.343 188.518 169.364 189.368V222.036C169.349 222.522 169.391 223.007 169.49 223.482C169.617 223.972 169.842 224.431 170.15 224.833C170.458 225.235 170.843 225.571 171.283 225.821C171.723 226.072 172.209 226.232 172.711 226.291C173.214 226.351 173.724 226.309 174.21 226.169C174.457 226.099 174.699 226.015 174.936 225.917C177.481 224.887 180.228 224.452 182.966 224.645C186.612 224.87 190.114 226.152 193.042 228.336C195.97 230.52 198.199 233.51 199.454 236.94C200.099 238.694 200.465 240.537 200.539 242.404C200.644 244.526 200.392 246.651 199.795 248.69C198.539 252.909 195.836 256.551 192.16 258.974C188.484 261.398 184.071 262.447 179.698 261.938C177.971 261.74 176.279 261.304 174.672 260.643C173.949 260.337 173.15 260.261 172.383 260.425C171.616 260.589 170.918 260.985 170.384 261.56C169.783 262.201 169.428 263.034 169.382 263.911V296.736C169.403 297.196 169.367 297.658 169.274 298.109C169.073 298.918 168.612 299.638 167.962 300.16C167.312 300.681 166.509 300.974 165.675 300.994H77.8776C73.8168 301.03 69.8182 299.996 66.2843 297.995C63.5715 296.513 61.1793 294.509 59.246 292.097C57.3127 289.685 55.8767 286.913 55.021 283.943C54.4779 282.13 54.1656 280.256 54.0913 278.365C54.0554 277.448 54.0374 276.53 54.0374 275.606ZM49.6595 285.519C48.9868 283.265 48.5998 280.935 48.5075 278.585C48.4686 277.594 48.4492 276.603 48.4492 275.606L48.4672 190.161C48.4565 189.377 48.5164 188.593 48.6462 187.82L48.6601 187.736L48.6766 187.654C49.0302 185.876 49.8911 184.24 51.1552 182.941C52.4193 181.643 54.0325 180.739 55.7996 180.338L55.8969 180.316L55.9949 180.297C56.8078 180.143 57.6342 180.072 58.4613 180.085H87.6949C87.4854 178.743 87.3877 177.385 87.4036 176.024L87.4038 176.009L87.404 175.994C87.4969 170.574 89.3909 165.339 92.7876 161.114C96.1802 156.894 100.879 153.922 106.145 152.665C108.327 152.131 110.574 151.915 112.818 152.023C118.111 152.266 123.181 154.232 127.255 157.62C131.331 161.011 134.188 165.64 135.391 170.803L135.393 170.814L135.396 170.826C136.091 173.868 136.204 177.007 135.737 180.079H164.905C165.739 180.057 166.574 180.123 167.395 180.277L167.452 180.288L167.51 180.3C169.575 180.732 172.46 181.849 173.81 183.469C175.161 185.09 174.898 187.12 174.95 189.229L174.952 189.298V219.996C177.662 219.189 180.502 218.873 183.335 219.069C188.057 219.365 192.59 221.028 196.383 223.856C200.182 226.689 203.072 230.568 204.701 235.018C205.543 237.309 206.022 239.717 206.122 242.156C206.253 244.892 205.928 247.63 205.159 250.259L205.155 250.271L205.151 250.284C203.52 255.764 200.009 260.493 195.235 263.64C190.464 266.785 184.736 268.148 179.059 267.49C177.674 267.331 176.306 267.054 174.97 266.662V296.63C174.998 297.503 174.924 298.377 174.748 299.233L174.725 299.345L174.697 299.456C174.201 301.453 173.063 303.232 171.457 304.52C169.852 305.807 167.868 306.531 165.81 306.581L165.743 306.582H77.9018C72.8822 306.622 67.9399 305.346 63.5681 302.879C60.2225 301.045 57.272 298.569 54.8857 295.592C52.4967 292.611 50.7206 289.188 49.6595 285.519Z" fill="#002036"/>
<g opacity="0.75" filter="url(#filter0_d_6598_10585)">
<path d="M54.0551 234.499V190.117C54.0468 189.657 54.0809 189.198 54.1571 188.744C54.3 188.026 54.6479 187.364 55.1588 186.839C55.6697 186.315 56.3217 185.949 57.0359 185.787C57.4885 185.701 57.9488 185.663 58.4093 185.673H89.1647C89.4466 185.673 89.7284 185.673 90.0043 185.673C90.9733 185.645 91.8953 185.249 92.5835 184.567C93.2717 183.884 93.6747 182.965 93.7108 181.997C93.7018 181.591 93.6414 181.188 93.5309 180.797C93.1539 179.257 92.9726 177.675 92.9911 176.089C93.0627 171.91 94.5232 167.873 97.1424 164.615C99.7617 161.357 103.391 159.064 107.457 158.097C109.124 157.688 110.841 157.522 112.555 157.605C116.635 157.791 120.541 159.305 123.681 161.916C126.821 164.528 129.021 168.094 129.948 172.071C130.617 174.997 130.59 178.039 129.87 180.953C129.708 181.628 129.726 182.333 129.924 182.998C130.157 183.761 130.626 184.429 131.262 184.909C131.899 185.388 132.671 185.654 133.468 185.667H164.992C165.452 185.65 165.912 185.684 166.365 185.769C167.197 185.943 167.946 186.393 168.491 187.047C169.035 187.7 169.343 188.518 169.364 189.368C169.364 189.674 169.364 189.967 169.364 190.285V222.036C169.349 222.521 169.391 223.006 169.49 223.482C169.617 223.972 169.842 224.431 170.149 224.833C170.457 225.235 170.843 225.571 171.283 225.821C171.723 226.072 172.208 226.231 172.711 226.291C173.214 226.351 173.723 226.309 174.21 226.169C174.456 226.099 174.699 226.015 174.935 225.917C177.481 224.887 180.227 224.452 182.966 224.645C186.612 224.869 190.114 226.152 193.042 228.336C195.97 230.519 198.198 233.51 199.453 236.94C200.099 238.693 200.465 240.537 200.539 242.404C200.643 244.526 200.392 246.65 199.795 248.689C198.539 252.909 195.835 256.551 192.159 258.974C188.483 261.397 184.071 262.447 179.697 261.938C177.97 261.74 176.279 261.304 174.672 260.642C173.949 260.336 173.15 260.26 172.383 260.425C171.615 260.589 170.917 260.985 170.383 261.56C169.783 262.201 169.428 263.034 169.382 263.911C169.382 264.217 169.382 264.511 169.382 264.829V296.736C169.403 297.196 169.366 297.657 169.274 298.109C169.073 298.918 168.612 299.638 167.962 300.159C167.312 300.68 166.508 300.974 165.675 300.994H77.8773C73.8166 301.03 69.818 299.996 66.2841 297.995C63.5713 296.513 61.1791 294.508 59.2458 292.096C57.3125 289.684 55.8765 286.913 55.0207 283.943C54.4777 282.13 54.1653 280.256 54.0911 278.365C54.0551 277.447 54.0371 276.53 54.0371 275.606L54.0551 234.499Z" fill="#0D6EFD"/>
</g>
<path d="M188.541 8.02824L314.204 67.182C319.245 69.5547 317.554 77.1165 311.983 77.1165H308.937C305.979 77.1165 303.055 76.4988 300.35 75.3029L181.31 22.6708C175.047 19.9014 167.912 19.8699 161.624 22.5839L39.3094 75.378C36.6522 76.5249 33.7885 77.1165 30.8943 77.1165H26.9273C21.3257 77.1165 19.6632 69.4897 24.7566 67.1585L154.346 7.84498C165.216 2.86994 177.725 2.93698 188.541 8.02824Z" fill="#0D2B40" stroke="#002036" stroke-width="0.372544"/>
<defs>
<filter id="filter0_d_6598_10585" x="-6.97619" y="96.5707" width="268.551" height="265.437" filterUnits="userSpaceOnUse" color-interpolation-filters="sRGB">
<feFlood flood-opacity="0" result="BackgroundImageFix"/>
<feColorMatrix in="SourceAlpha" type="matrix" values="0 0 0 0 0 0 0 0 0 0 0 0 0 0 0 0 0 0 127 0" result="hardAlpha"/>
<feOffset/>
<feGaussianBlur stdDeviation="30.5066"/>
<feComposite in2="hardAlpha" operator="out"/>
<feColorMatrix type="matrix" values="0 0 0 0 0.0509804 0 0 0 0 0.431373 0 0 0 0 0.992157 0 0 0 0.5 0"/>
<feBlend mode="normal" in2="BackgroundImageFix" result="effect1_dropShadow_6598_10585"/>
<feBlend mode="normal" in="SourceGraphic" in2="effect1_dropShadow_6598_10585" result="shape"/>
</filter>
</defs>
</svg>
