<svg width="155" height="100" viewBox="0 0 155 100" fill="none" xmlns="http://www.w3.org/2000/svg">
<g filter="url(#filter0_b_6603_13037)">
<path d="M0.0966797 0.540039L11.8138 2.88347C12.4945 3.0196 13.187 3.08817 13.8811 3.08817H143.74C149.562 3.08817 154.281 7.80762 154.281 13.6293V89.1665C154.281 94.9883 149.562 99.7077 143.74 99.7077H13.186C7.36426 99.7077 2.64481 94.9883 2.64481 89.1665V14.9127C2.64481 14.2509 2.58248 13.5905 2.45864 12.9403L0.0966797 0.540039Z" fill="white" fill-opacity="0.6"/>
<path d="M2.71383 12.8917L0.424065 0.870442L11.7629 3.13821C12.4603 3.2777 13.1699 3.34795 13.8811 3.34795H143.74C149.418 3.34795 154.021 7.95109 154.021 13.6293V89.1665C154.021 94.8448 149.418 99.4479 143.74 99.4479H13.186C7.50773 99.4479 2.90459 94.8448 2.90459 89.1665V14.9127C2.90459 14.2346 2.84072 13.5579 2.71383 12.8917Z" stroke="#0D6EFD" stroke-opacity="0.5" stroke-width="0.519562"/>
</g>
<path opacity="0.75" d="M73.4392 63.3865L71.5771 66.9361V69.1973H70.9952V66.9361L69.1165 63.3865H69.7732L71.2862 66.4041L72.7908 63.3865H73.4392ZM74.5819 63.8021C74.4655 63.8021 74.3657 63.7606 74.2826 63.6774C74.1995 63.5943 74.1579 63.4918 74.1579 63.3699C74.1579 63.2479 74.1995 63.1482 74.2826 63.0706C74.3657 62.9875 74.4655 62.9459 74.5819 62.9459C74.6983 62.9459 74.798 62.9875 74.8811 63.0706C74.9643 63.1482 75.0058 63.2479 75.0058 63.3699C75.0058 63.4918 74.9643 63.5943 74.8811 63.6774C74.798 63.7606 74.6983 63.8021 74.5819 63.8021ZM74.8728 64.6584V69.1973H74.2909V64.6584H74.8728ZM80.2972 66.6951C80.2972 66.8946 80.2916 67.047 80.2806 67.1523H76.5148C76.5314 67.4959 76.6145 67.7896 76.7642 68.0334C76.9138 68.2773 77.1105 68.463 77.3544 68.5904C77.5982 68.7123 77.8643 68.7733 78.1524 68.7733C78.5293 68.7733 78.8452 68.6819 79.1001 68.499C79.3606 68.3161 79.5324 68.0695 79.6155 67.7591H80.2307C80.1198 68.2025 79.8815 68.5655 79.5158 68.8481C79.1555 69.1252 78.7011 69.2638 78.1524 69.2638C77.7257 69.2638 77.3433 69.1696 77.0052 68.9811C76.6672 68.7872 76.4012 68.5156 76.2072 68.1665C76.0188 67.8118 75.9246 67.3989 75.9246 66.9278C75.9246 66.4568 76.0188 66.0439 76.2072 65.6892C76.3956 65.3345 76.6589 65.0629 76.9969 64.8745C77.335 64.6861 77.7202 64.5919 78.1524 64.5919C78.5847 64.5919 78.9616 64.6861 79.283 64.8745C79.61 65.0629 79.8594 65.3179 80.0312 65.6393C80.2085 65.9552 80.2972 66.3071 80.2972 66.6951ZM79.707 66.6784C79.7125 66.3404 79.6432 66.0522 79.4991 65.8139C79.3606 65.5756 79.1694 65.3955 78.9255 65.2735C78.6817 65.1516 78.4157 65.0906 78.1275 65.0906C77.6952 65.0906 77.3267 65.2292 77.0219 65.5063C76.7171 65.7834 76.548 66.1741 76.5148 66.6784H79.707ZM81.9437 63.0457V69.1973H81.3618V63.0457H81.9437ZM82.9955 66.9195C82.9955 66.454 83.0897 66.0466 83.2781 65.6975C83.4665 65.3428 83.7242 65.0713 84.0512 64.8828C84.3837 64.6889 84.7578 64.5919 85.1735 64.5919C85.5725 64.5919 85.9327 64.6889 86.2542 64.8828C86.5756 65.0768 86.8111 65.329 86.9608 65.6393V63.0457H87.5427V69.1973H86.9608V68.1831C86.8222 68.499 86.595 68.7594 86.2791 68.9645C85.9632 69.164 85.5919 69.2638 85.1652 69.2638C84.7495 69.2638 84.3754 69.1668 84.0429 68.9728C83.7159 68.7788 83.4582 68.5045 83.2698 68.1498C83.0869 67.7951 82.9955 67.385 82.9955 66.9195ZM86.9608 66.9278C86.9608 66.562 86.8859 66.2406 86.7363 65.9635C86.5867 65.6864 86.3816 65.473 86.1212 65.3234C85.8662 65.1738 85.5836 65.099 85.2732 65.099C84.9518 65.099 84.6636 65.171 84.4087 65.3151C84.1537 65.4592 83.9515 65.6698 83.8018 65.9469C83.6577 66.2184 83.5857 66.5427 83.5857 66.9195C83.5857 67.2908 83.6577 67.6178 83.8018 67.9004C83.9515 68.1775 84.1537 68.3909 84.4087 68.5405C84.6636 68.6846 84.9518 68.7567 85.2732 68.7567C85.5836 68.7567 85.8662 68.6819 86.1212 68.5322C86.3816 68.3826 86.5867 68.1692 86.7363 67.8921C86.8859 67.615 86.9608 67.2936 86.9608 66.9278Z" fill="#4D6372"/>
<path d="M69.4573 80.5077V78.631H72.9633V89.2363H70.8684V80.5077H69.4573ZM75.6154 86.9378C76.5465 86.1619 77.2884 85.517 77.8412 85.0029C78.3941 84.4792 78.8547 83.9361 79.2233 83.3736C79.5918 82.8111 79.7761 82.2583 79.7761 81.7152C79.7761 81.2205 79.6597 80.8326 79.4269 80.5513C79.1942 80.2701 78.8353 80.1294 78.3504 80.1294C77.8655 80.1294 77.4921 80.2943 77.2302 80.6241C76.9684 80.9441 76.8326 81.3854 76.8229 81.9479H74.8444C74.8832 80.7841 75.2275 79.9015 75.8773 79.3002C76.5368 78.6989 77.3709 78.3983 78.3795 78.3983C79.4851 78.3983 80.3337 78.6941 80.9254 79.2857C81.517 79.8676 81.8128 80.6386 81.8128 81.5988C81.8128 82.3553 81.6091 83.0778 81.2018 83.7664C80.7944 84.455 80.3289 85.0563 79.8052 85.5703C79.2815 86.0746 78.5977 86.6856 77.754 87.4033H82.0455V89.0909H74.859V87.5779L75.6154 86.9378ZM84.4636 89.3382C84.0951 89.3382 83.7896 89.2266 83.5471 89.0036C83.3144 88.7708 83.198 88.4847 83.198 88.1452C83.198 87.8058 83.3144 87.5245 83.5471 87.3015C83.7896 87.0687 84.0951 86.9523 84.4636 86.9523C84.8225 86.9523 85.1183 87.0687 85.3511 87.3015C85.5838 87.5245 85.7002 87.8058 85.7002 88.1452C85.7002 88.4847 85.5838 88.7708 85.3511 89.0036C85.1183 89.2266 84.8225 89.3382 84.4636 89.3382ZM94.2363 80.3913H89.5228V82.879C89.7265 82.6268 90.0175 82.4231 90.3957 82.268C90.7739 82.1031 91.1764 82.0207 91.6032 82.0207C92.379 82.0207 93.0143 82.1904 93.5089 82.5298C94.0035 82.8693 94.3624 83.3057 94.5854 83.8391C94.8085 84.3628 94.92 84.9254 94.92 85.5267C94.92 86.642 94.6 87.5391 93.9599 88.218C93.3295 88.8969 92.4275 89.2363 91.254 89.2363C90.1484 89.2363 89.2658 88.9599 88.6063 88.4071C87.9468 87.8543 87.5734 87.1318 87.4862 86.2395H89.4646C89.5519 86.6274 89.7459 86.9378 90.0466 87.1706C90.3569 87.4033 90.7497 87.5197 91.2249 87.5197C91.7971 87.5197 92.2287 87.3403 92.5197 86.9814C92.8106 86.6226 92.9561 86.1474 92.9561 85.5558C92.9561 84.9544 92.8058 84.4986 92.5051 84.1883C92.2142 83.8682 91.7826 83.7082 91.2104 83.7082C90.803 83.7082 90.4636 83.81 90.192 84.0137C89.9205 84.2174 89.7265 84.4889 89.6101 84.8284H87.6607V78.6019H94.2363V80.3913ZM96.2374 81.2351C96.2374 80.498 96.4508 79.9209 96.8775 79.5039C97.3139 79.0869 97.8716 78.8783 98.5505 78.8783C99.2294 78.8783 99.7822 79.0869 100.209 79.5039C100.645 79.9209 100.864 80.498 100.864 81.2351C100.864 81.9819 100.645 82.5638 100.209 82.9808C99.7822 83.3978 99.2294 83.6064 98.5505 83.6064C97.8716 83.6064 97.3139 83.3978 96.8775 82.9808C96.4508 82.5638 96.2374 81.9819 96.2374 81.2351ZM105.577 79.0529L99.8598 89.2363H97.8813L103.584 79.0529H105.577ZM98.536 80.1004C98.0025 80.1004 97.7358 80.4786 97.7358 81.2351C97.7358 82.0013 98.0025 82.3843 98.536 82.3843C98.7978 82.3843 99.0015 82.2922 99.147 82.1079C99.2924 81.914 99.3652 81.623 99.3652 81.2351C99.3652 80.4786 99.0888 80.1004 98.536 80.1004ZM102.624 87.0396C102.624 86.2928 102.837 85.7158 103.264 85.3084C103.7 84.8914 104.258 84.6829 104.937 84.6829C105.616 84.6829 106.164 84.8914 106.581 85.3084C107.008 85.7158 107.221 86.2928 107.221 87.0396C107.221 87.7864 107.008 88.3683 106.581 88.7853C106.164 89.2024 105.616 89.4109 104.937 89.4109C104.248 89.4109 103.691 89.2024 103.264 88.7853C102.837 88.3683 102.624 87.7864 102.624 87.0396ZM104.922 85.9049C104.37 85.9049 104.093 86.2831 104.093 87.0396C104.093 87.8058 104.37 88.1889 104.922 88.1889C105.466 88.1889 105.737 87.8058 105.737 87.0396C105.737 86.2831 105.466 85.9049 104.922 85.9049Z" fill="#0D6EFD"/>
<path opacity="0.75" d="M17.68 63.062V66.7197C17.68 67.2961 17.8158 67.7228 18.0874 67.9999C18.3645 68.277 18.7413 68.4156 19.2179 68.4156C19.6945 68.4156 20.0658 68.2798 20.3319 68.0083C20.6034 67.7312 20.7392 67.3016 20.7392 66.7197V63.062H21.3211V66.7114C21.3211 67.4485 21.1244 68.0027 20.7309 68.374C20.3429 68.7453 19.8359 68.931 19.2096 68.931C18.5834 68.931 18.0735 68.7453 17.68 68.374C17.2921 68.0027 17.0981 67.4485 17.0981 66.7114V63.062H17.68ZM24.7472 64.2508C25.2903 64.2508 25.7336 64.4198 26.0772 64.7579C26.4208 65.0904 26.5926 65.5753 26.5926 66.2126V68.8728H26.019V66.2792C26.019 65.7859 25.8944 65.4091 25.645 65.1486C25.4011 64.8881 25.0658 64.7579 24.6391 64.7579C24.2013 64.7579 23.8521 64.8964 23.5917 65.1735C23.3312 65.4506 23.2009 65.858 23.2009 66.3955V68.8728H22.619V64.3339H23.2009V65.107C23.345 64.8299 23.5529 64.6193 23.8244 64.4752C24.096 64.3256 24.4036 64.2508 24.7472 64.2508ZM28.1706 63.4777C28.0542 63.4777 27.9544 63.4361 27.8713 63.353C27.7882 63.2698 27.7466 63.1673 27.7466 63.0454C27.7466 62.9235 27.7882 62.8237 27.8713 62.7461C27.9544 62.663 28.0542 62.6214 28.1706 62.6214C28.2869 62.6214 28.3867 62.663 28.4698 62.7461C28.553 62.8237 28.5945 62.9235 28.5945 63.0454C28.5945 63.1673 28.553 63.2698 28.4698 63.353C28.3867 63.4361 28.2869 63.4777 28.1706 63.4777ZM28.4615 64.3339V68.8728H27.8796V64.3339H28.4615ZM30.5357 64.8244V67.6425C30.5357 67.9196 30.5884 68.1108 30.6937 68.2161C30.799 68.3214 30.9846 68.374 31.2506 68.374H31.7827V68.8728H31.1592C30.7491 68.8728 30.4443 68.7786 30.2448 68.5902C30.0453 68.3962 29.9455 68.0803 29.9455 67.6425V64.8244H29.3137V64.3339H29.9455V63.195H30.5357V64.3339H31.7827V64.8244H30.5357ZM35.5972 65.3315C35.7413 65.0267 35.9685 64.7745 36.2788 64.575C36.5947 64.3699 36.9688 64.2674 37.4011 64.2674C37.8112 64.2674 38.1797 64.3644 38.5067 64.5584C38.8392 64.7468 39.0969 65.0183 39.2798 65.373C39.4683 65.7222 39.5625 66.1295 39.5625 66.595C39.5625 67.0606 39.4683 67.4707 39.2798 67.8254C39.0969 68.1801 38.8392 68.4544 38.5067 68.6484C38.1797 68.8423 37.8112 68.9393 37.4011 68.9393C36.9744 68.9393 36.603 68.8396 36.2871 68.64C35.9713 68.435 35.7413 68.1801 35.5972 67.8752V71.0176H35.0236V64.3339H35.5972V65.3315ZM38.9722 66.595C38.9722 66.2182 38.8974 65.894 38.7478 65.6224C38.6037 65.3453 38.4042 65.1347 38.1493 64.9906C37.8943 64.8465 37.6061 64.7745 37.2847 64.7745C36.9744 64.7745 36.6889 64.8493 36.4285 64.9989C36.1735 65.1486 35.9713 65.362 35.8216 65.639C35.672 65.9161 35.5972 66.2376 35.5972 66.6034C35.5972 66.9691 35.672 67.2906 35.8216 67.5677C35.9713 67.8448 36.1735 68.0581 36.4285 68.2078C36.6889 68.3574 36.9744 68.4322 37.2847 68.4322C37.6061 68.4322 37.8943 68.3602 38.1493 68.2161C38.4042 68.0664 38.6037 67.8531 38.7478 67.576C38.8974 67.2933 38.9722 66.9664 38.9722 66.595ZM41.2151 65.1403C41.3426 64.8576 41.5366 64.6387 41.797 64.4835C42.0631 64.3284 42.3873 64.2508 42.7697 64.2508V64.8576H42.6117C42.1905 64.8576 41.8525 64.9712 41.5975 65.1985C41.3426 65.4257 41.2151 65.8053 41.2151 66.3373V68.8728H40.6332V64.3339H41.2151V65.1403ZM43.936 63.4777C43.8196 63.4777 43.7199 63.4361 43.6367 63.353C43.5536 63.2698 43.512 63.1673 43.512 63.0454C43.512 62.9235 43.5536 62.8237 43.6367 62.7461C43.7199 62.663 43.8196 62.6214 43.936 62.6214C44.0524 62.6214 44.1521 62.663 44.2353 62.7461C44.3184 62.8237 44.36 62.9235 44.36 63.0454C44.36 63.1673 44.3184 63.2698 44.2353 63.353C44.1521 63.4361 44.0524 63.4777 43.936 63.4777ZM44.227 64.3339V68.8728H43.6451V64.3339H44.227ZM45.2787 66.6034C45.2787 66.1323 45.3729 65.7222 45.5613 65.373C45.7498 65.0183 46.0102 64.7468 46.3427 64.5584C46.6753 64.3644 47.0549 64.2674 47.4816 64.2674C48.0414 64.2674 48.5014 64.406 48.8616 64.6831C49.2274 64.9602 49.4629 65.337 49.5682 65.8136H48.9447C48.8671 65.4866 48.6981 65.2317 48.4376 65.0488C48.1827 64.8604 47.864 64.7662 47.4816 64.7662C47.1768 64.7662 46.9025 64.8355 46.6586 64.974C46.4148 65.1126 46.2208 65.3204 46.0767 65.5975C45.9382 65.869 45.8689 66.2043 45.8689 66.6034C45.8689 67.0024 45.9382 67.3404 46.0767 67.6175C46.2208 67.8946 46.4148 68.1025 46.6586 68.241C46.9025 68.3796 47.1768 68.4488 47.4816 68.4488C47.864 68.4488 48.1827 68.3574 48.4376 68.1745C48.6981 67.9861 48.8671 67.7256 48.9447 67.3931H49.5682C49.4629 67.8586 49.2274 68.2327 48.8616 68.5153C48.4958 68.798 48.0358 68.9393 47.4816 68.9393C47.0549 68.9393 46.6753 68.8451 46.3427 68.6567C46.0102 68.4627 45.7498 68.1911 45.5613 67.842C45.3729 67.4873 45.2787 67.0744 45.2787 66.6034ZM54.7495 66.3706C54.7495 66.5701 54.744 66.7225 54.7329 66.8278H50.9671C50.9837 67.1714 51.0669 67.4651 51.2165 67.709C51.3661 67.9528 51.5629 68.1385 51.8067 68.266C52.0506 68.3879 52.3166 68.4488 52.6048 68.4488C52.9816 68.4488 53.2975 68.3574 53.5524 68.1745C53.8129 67.9916 53.9847 67.745 54.0679 67.4347H54.683C54.5722 67.878 54.3339 68.241 53.9681 68.5237C53.6079 68.8008 53.1534 68.9393 52.6048 68.9393C52.178 68.9393 51.7956 68.8451 51.4576 68.6567C51.1195 68.4627 50.8535 68.1911 50.6595 67.842C50.4711 67.4873 50.3769 67.0744 50.3769 66.6034C50.3769 66.1323 50.4711 65.7194 50.6595 65.3647C50.848 65.01 51.1112 64.7385 51.4493 64.55C51.7873 64.3616 52.1725 64.2674 52.6048 64.2674C53.037 64.2674 53.4139 64.3616 53.7353 64.55C54.0623 64.7385 54.3117 64.9934 54.4835 65.3148C54.6608 65.6307 54.7495 65.9827 54.7495 66.3706ZM54.1593 66.354C54.1648 66.0159 54.0956 65.7277 53.9515 65.4894C53.8129 65.2511 53.6217 65.071 53.3779 64.9491C53.134 64.8271 52.868 64.7662 52.5798 64.7662C52.1476 64.7662 51.779 64.9047 51.4742 65.1818C51.1694 65.4589 51.0004 65.8496 50.9671 66.354H54.1593Z" fill="#4D6372"/>
<path d="M24.081 83.0605C24.081 83.8946 23.8143 84.5832 23.2809 85.1263C22.7475 85.6597 22.0346 85.9798 21.1424 86.0864V87.3666H20.1677V86.101C19.353 86.0428 18.6547 85.8149 18.0728 85.4172C17.4909 85.0196 17.0739 84.4813 16.8217 83.8024L18.5529 82.7987C18.8632 83.5842 19.4015 84.0255 20.1677 84.1225V81.6057H20.1531L20.124 81.5912C19.5324 81.3778 19.0039 81.1257 18.5383 80.8347C17.7528 80.3401 17.3309 79.5545 17.2727 78.478C17.2727 77.6148 17.5491 76.9311 18.1019 76.4267C18.6838 75.903 19.3724 75.6072 20.1677 75.5393V74.2737H21.1424V75.5684C22.4614 75.7333 23.3924 76.417 23.9355 77.6197L22.248 78.6089C22.0152 78.027 21.6467 77.673 21.1424 77.5469V79.9764C22.0831 80.3546 22.6893 80.6407 22.9608 80.8347C23.7076 81.3778 24.081 82.1198 24.081 83.0605ZM19.2657 78.4925C19.2657 78.7059 19.3336 78.895 19.4694 79.0599C19.6052 79.2151 19.8379 79.3751 20.1677 79.54V77.5033C19.5664 77.6197 19.2657 77.9494 19.2657 78.4925ZM21.1424 81.9985V84.0934C21.7631 83.9673 22.0734 83.6279 22.0734 83.0751C22.0734 82.6386 21.7631 82.2798 21.1424 81.9985ZM24.6022 76.6741L27.279 75.7285H29.0247V85.9119H27.0172V77.8524L25.0969 78.3907L24.6022 76.6741ZM34.6506 86.1155C33.3801 86.1155 32.3812 85.6355 31.6538 84.6753C30.9361 83.6958 30.5773 82.4107 30.5773 80.8202C30.5773 79.2296 30.9361 77.9494 31.6538 76.9796C32.3812 76.0097 33.3801 75.5248 34.6506 75.5248C35.9405 75.5248 36.9395 76.0097 37.6475 76.9796C38.3651 77.9494 38.724 79.2296 38.724 80.8202C38.724 82.4107 38.3651 83.6958 37.6475 84.6753C36.9395 85.6355 35.9405 86.1155 34.6506 86.1155ZM36.731 80.8202C36.731 79.7339 36.5515 78.9047 36.1927 78.3325C35.8435 77.7603 35.3295 77.4742 34.6506 77.4742C33.9717 77.4742 33.4577 77.7603 33.1086 78.3325C32.7594 78.9047 32.5848 79.7339 32.5848 80.8202C32.5848 81.9064 32.7594 82.7356 33.1086 83.3078C33.4577 83.8703 33.9717 84.1516 34.6506 84.1516C35.3295 84.1516 35.8435 83.8655 36.1927 83.2933C36.5515 82.7211 36.731 81.8967 36.731 80.8202ZM43.814 86.1155C42.5435 86.1155 41.5445 85.6355 40.8172 84.6753C40.0995 83.6958 39.7406 82.4107 39.7406 80.8202C39.7406 79.2296 40.0995 77.9494 40.8172 76.9796C41.5445 76.0097 42.5435 75.5248 43.814 75.5248C45.1039 75.5248 46.1028 76.0097 46.8108 76.9796C47.5285 77.9494 47.8874 79.2296 47.8874 80.8202C47.8874 82.4107 47.5285 83.6958 46.8108 84.6753C46.1028 85.6355 45.1039 86.1155 43.814 86.1155ZM45.8943 80.8202C45.8943 79.7339 45.7149 78.9047 45.3561 78.3325C45.0069 77.7603 44.4929 77.4742 43.814 77.4742C43.1351 77.4742 42.6211 77.7603 42.2719 78.3325C41.9228 78.9047 41.7482 79.7339 41.7482 80.8202C41.7482 81.9064 41.9228 82.7356 42.2719 83.3078C42.6211 83.8703 43.1351 84.1516 43.814 84.1516C44.4929 84.1516 45.0069 83.8655 45.3561 83.2933C45.7149 82.7211 45.8943 81.8967 45.8943 80.8202Z" fill="#0D6EFD"/>
<path opacity="0.15" fill-rule="evenodd" clip-rule="evenodd" d="M16.207 52.3394C16.207 52.1959 16.3202 52.0796 16.4599 52.0796H139.61C139.75 52.0796 139.863 52.1959 139.863 52.3394C139.863 52.4828 139.75 52.5992 139.61 52.5992H16.4599C16.3202 52.5992 16.207 52.4828 16.207 52.3394Z" fill="#4D6372"/>
<path d="M22.9717 36.3346C23.5439 36.4413 24.0143 36.7274 24.3829 37.193C24.7514 37.6585 24.9357 38.1919 24.9357 38.7932C24.9357 39.3363 24.7999 39.8164 24.5283 40.2334C24.2665 40.6408 23.8834 40.9608 23.3791 41.1936C22.8747 41.4263 22.2783 41.5427 21.5897 41.5427H17.2108V31.3884H21.4006C22.0892 31.3884 22.6808 31.4999 23.1754 31.723C23.6797 31.9461 24.058 32.2564 24.3101 32.6541C24.572 33.0517 24.7029 33.5027 24.7029 34.007C24.7029 34.5986 24.5429 35.0932 24.2228 35.4909C23.9125 35.8885 23.4954 36.1698 22.9717 36.3346ZM19.2475 35.5782H21.1096C21.5945 35.5782 21.9679 35.4715 22.2298 35.2581C22.4917 35.035 22.6226 34.7198 22.6226 34.3125C22.6226 33.9052 22.4917 33.59 22.2298 33.3669C21.9679 33.1438 21.5945 33.0323 21.1096 33.0323H19.2475V35.5782ZM21.2987 39.8843C21.7934 39.8843 22.1765 39.7679 22.448 39.5351C22.7293 39.3024 22.8699 38.9726 22.8699 38.5459C22.8699 38.1095 22.7244 37.77 22.4335 37.5276C22.1425 37.2754 21.7497 37.1493 21.2551 37.1493H19.2475V39.8843H21.2987ZM27.5918 32.5231C27.2329 32.5231 26.9323 32.4116 26.6898 32.1885C26.457 31.9558 26.3407 31.6697 26.3407 31.3302C26.3407 30.9908 26.457 30.7095 26.6898 30.4864C26.9323 30.2537 27.2329 30.1373 27.5918 30.1373C27.9506 30.1373 28.2464 30.2537 28.4792 30.4864C28.7216 30.7095 28.8429 30.9908 28.8429 31.3302C28.8429 31.6697 28.7216 31.9558 28.4792 32.1885C28.2464 32.4116 27.9506 32.5231 27.5918 32.5231ZM28.5956 33.4833V41.5427H26.5589V33.4833H28.5956ZM33.6919 41.6737C33.0324 41.6737 32.4408 41.5573 31.9171 41.3245C31.3934 41.082 30.9764 40.7571 30.666 40.3498C30.3653 39.9425 30.2005 39.4915 30.1714 38.9969H32.2226C32.2614 39.3072 32.4117 39.5642 32.6736 39.7679C32.9451 39.9716 33.2797 40.0734 33.6774 40.0734C34.0653 40.0734 34.366 39.9958 34.5793 39.8406C34.8024 39.6855 34.9139 39.4866 34.9139 39.2442C34.9139 38.9823 34.7782 38.7884 34.5066 38.6623C34.2447 38.5265 33.8229 38.381 33.2409 38.2258C32.6396 38.0804 32.145 37.93 31.7571 37.7749C31.3788 37.6197 31.0491 37.3821 30.7678 37.062C30.4963 36.742 30.3605 36.3104 30.3605 35.7673C30.3605 35.3211 30.4866 34.9138 30.7387 34.5453C31.0006 34.1767 31.3691 33.8858 31.8444 33.6724C32.3293 33.459 32.8967 33.3524 33.5465 33.3524C34.5066 33.3524 35.2728 33.5948 35.845 34.0797C36.4172 34.555 36.7324 35.1999 36.7906 36.0146H34.8412C34.8121 35.6945 34.6763 35.4424 34.4339 35.2581C34.2011 35.0641 33.8859 34.9671 33.4883 34.9671C33.1197 34.9671 32.8336 35.035 32.6299 35.1708C32.436 35.3066 32.339 35.4957 32.339 35.7382C32.339 36.0097 32.4748 36.2183 32.7463 36.3637C33.0179 36.4995 33.4398 36.6401 34.012 36.7856C34.5939 36.9311 35.074 37.0814 35.4522 37.2366C35.8304 37.3918 36.1553 37.6342 36.4269 37.964C36.7082 38.284 36.8536 38.7108 36.8633 39.2442C36.8633 39.7097 36.7324 40.1267 36.4705 40.4953C36.2184 40.8638 35.8498 41.1548 35.3649 41.3682C34.8897 41.5718 34.332 41.6737 33.6919 41.6737ZM38.0115 37.513C38.0115 36.6789 38.1812 35.9515 38.5206 35.3308C38.8601 34.7004 39.3305 34.2155 39.9318 33.8761C40.5331 33.5269 41.2217 33.3524 41.9975 33.3524C42.9965 33.3524 43.8209 33.6045 44.4707 34.1088C45.1302 34.6035 45.5714 35.3017 45.7945 36.2037H43.5978C43.4814 35.8546 43.2826 35.583 43.0013 35.389C42.7298 35.1854 42.3903 35.0835 41.983 35.0835C41.4011 35.0835 40.9404 35.2969 40.601 35.7236C40.2615 36.1407 40.0918 36.7371 40.0918 37.513C40.0918 38.2792 40.2615 38.8756 40.601 39.3024C40.9404 39.7194 41.4011 39.9279 41.983 39.9279C42.8074 39.9279 43.3456 39.5594 43.5978 38.8223H45.7945C45.5714 39.6952 45.1302 40.3886 44.4707 40.9026C43.8112 41.4166 42.9868 41.6737 41.9975 41.6737C41.2217 41.6737 40.5331 41.5039 39.9318 41.1645C39.3305 40.8153 38.8601 40.3304 38.5206 39.7097C38.1812 39.0793 38.0115 38.3471 38.0115 37.513ZM46.7628 37.4839C46.7628 36.6692 46.9229 35.9467 47.2429 35.3163C47.5727 34.6859 48.0139 34.201 48.5668 33.8615C49.1293 33.5221 49.7548 33.3524 50.4434 33.3524C51.0447 33.3524 51.5684 33.4736 52.0146 33.716C52.4704 33.9585 52.8341 34.264 53.1056 34.6326V33.4833H55.1569V41.5427H53.1056V40.3644C52.8438 40.7426 52.4801 41.0578 52.0146 41.31C51.5587 41.5524 51.0302 41.6737 50.4289 41.6737C49.75 41.6737 49.1293 41.4991 48.5668 41.1499C48.0139 40.8008 47.5727 40.311 47.2429 39.6806C46.9229 39.0405 46.7628 38.3083 46.7628 37.4839ZM53.1056 37.513C53.1056 37.0184 53.0087 36.5965 52.8147 36.2474C52.6207 35.8885 52.3589 35.6169 52.0291 35.4327C51.6994 35.2387 51.3454 35.1417 50.9671 35.1417C50.5889 35.1417 50.2397 35.2339 49.9197 35.4181C49.5996 35.6024 49.3378 35.874 49.1341 36.2328C48.9401 36.5819 48.8432 36.999 48.8432 37.4839C48.8432 37.9688 48.9401 38.3956 49.1341 38.7641C49.3378 39.123 49.5996 39.3994 49.9197 39.5933C50.2494 39.7873 50.5986 39.8843 50.9671 39.8843C51.3454 39.8843 51.6994 39.7921 52.0291 39.6079C52.3589 39.4139 52.6207 39.1423 52.8147 38.7932C53.0087 38.4344 53.1056 38.0076 53.1056 37.513ZM64.8563 33.4833L59.8665 45.3542H57.6989L59.4446 41.3391L56.215 33.4833H58.499L60.5793 39.1133L62.6887 33.4833H64.8563ZM70.4204 33.3669C71.3806 33.3669 72.1564 33.6724 72.748 34.2834C73.3396 34.8847 73.6355 35.7285 73.6355 36.8147V41.5427H71.5988V37.0911C71.5988 36.451 71.4387 35.9612 71.1187 35.6218C70.7986 35.2727 70.3622 35.0981 69.8094 35.0981C69.2469 35.0981 68.8008 35.2727 68.471 35.6218C68.151 35.9612 67.9909 36.451 67.9909 37.0911V41.5427H65.9542V33.4833H67.9909V34.4871C68.2625 34.1379 68.6068 33.8664 69.0238 33.6724C69.4506 33.4687 69.9161 33.3669 70.4204 33.3669ZM83.0643 37.3384C83.0643 37.6294 83.0449 37.8912 83.0061 38.124H77.1143C77.1628 38.7059 77.3665 39.1617 77.7253 39.4915C78.0841 39.8212 78.5254 39.9861 79.0491 39.9861C79.8056 39.9861 80.3439 39.6612 80.6639 39.0114H82.8606C82.6279 39.7873 82.1818 40.4274 81.5223 40.9317C80.8628 41.4263 80.0529 41.6737 79.0928 41.6737C78.3169 41.6737 77.6186 41.5039 76.9979 41.1645C76.3869 40.8153 75.9068 40.3256 75.5577 39.6952C75.2182 39.0648 75.0485 38.3374 75.0485 37.513C75.0485 36.6789 75.2182 35.9467 75.5577 35.3163C75.8971 34.6859 76.3724 34.201 76.9834 33.8615C77.5944 33.5221 78.2975 33.3524 79.0928 33.3524C79.859 33.3524 80.5427 33.5172 81.144 33.847C81.755 34.1767 82.2254 34.6471 82.5551 35.2581C82.8946 35.8594 83.0643 36.5529 83.0643 37.3384ZM80.9549 36.7565C80.9452 36.2328 80.7561 35.8158 80.3875 35.5054C80.019 35.1854 79.568 35.0253 79.0346 35.0253C78.5303 35.0253 78.1035 35.1805 77.7544 35.4909C77.4149 35.7915 77.2064 36.2134 77.1288 36.7565H80.9549ZM93.7783 36.3346C94.3505 36.4413 94.8208 36.7274 95.1894 37.193C95.5579 37.6585 95.7422 38.1919 95.7422 38.7932C95.7422 39.3363 95.6064 39.8164 95.3349 40.2334C95.073 40.6408 94.6899 40.9608 94.1856 41.1936C93.6813 41.4263 93.0848 41.5427 92.3962 41.5427H88.0174V31.3884H92.2071C92.8957 31.3884 93.4873 31.4999 93.9819 31.723C94.4863 31.9461 94.8645 32.2564 95.1167 32.6541C95.3785 33.0517 95.5094 33.5027 95.5094 34.007C95.5094 34.5986 95.3494 35.0932 95.0294 35.4909C94.719 35.8885 94.302 36.1698 93.7783 36.3346ZM90.054 35.5782H91.9162C92.4011 35.5782 92.7745 35.4715 93.0363 35.2581C93.2982 35.035 93.4291 34.7198 93.4291 34.3125C93.4291 33.9052 93.2982 33.59 93.0363 33.3669C92.7745 33.1438 92.4011 33.0323 91.9162 33.0323H90.054V35.5782ZM92.1053 39.8843C92.5999 39.8843 92.983 39.7679 93.2545 39.5351C93.5358 39.3024 93.6764 38.9726 93.6764 38.5459C93.6764 38.1095 93.5309 37.77 93.24 37.5276C92.949 37.2754 92.5563 37.1493 92.0616 37.1493H90.054V39.8843H92.1053ZM99.4021 30.7774V41.5427H97.3654V30.7774H99.4021ZM104.775 39.6661L106.812 33.4833H108.979L105.997 41.5427H103.524L100.556 33.4833H102.738L104.775 39.6661ZM109.599 37.4839C109.599 36.6692 109.759 35.9467 110.079 35.3163C110.409 34.6859 110.855 34.201 111.418 33.8615C111.98 33.5221 112.606 33.3524 113.294 33.3524C113.818 33.3524 114.318 33.4687 114.793 33.7015C115.268 33.9246 115.646 34.2252 115.928 34.6035V30.7774H117.993V41.5427H115.928V40.3498C115.675 40.7474 115.321 41.0675 114.866 41.31C114.41 41.5524 113.881 41.6737 113.28 41.6737C112.601 41.6737 111.98 41.4991 111.418 41.1499C110.855 40.8008 110.409 40.311 110.079 39.6806C109.759 39.0405 109.599 38.3083 109.599 37.4839ZM115.942 37.513C115.942 37.0184 115.845 36.5965 115.651 36.2474C115.457 35.8885 115.195 35.6169 114.866 35.4327C114.536 35.2387 114.182 35.1417 113.804 35.1417C113.425 35.1417 113.076 35.2339 112.756 35.4181C112.436 35.6024 112.174 35.874 111.971 36.2328C111.777 36.5819 111.68 36.999 111.68 37.4839C111.68 37.9688 111.777 38.3956 111.971 38.7641C112.174 39.123 112.436 39.3994 112.756 39.5933C113.086 39.7873 113.435 39.8843 113.804 39.8843C114.182 39.8843 114.536 39.7921 114.866 39.6079C115.195 39.4139 115.457 39.1423 115.651 38.7932C115.845 38.4344 115.942 38.0076 115.942 37.513Z" fill="#002036"/>
<path opacity="0.75" d="M22.6963 16.3761V22.1121H22.1144V17.5316L20.0694 22.1121H19.6455L17.6005 17.5482V22.1121H17.0186V16.3761H17.6337L19.8533 21.3473L22.0729 16.3761H22.6963ZM24.3074 16.7169C24.191 16.7169 24.0912 16.6754 24.0081 16.5922C23.925 16.5091 23.8834 16.4066 23.8834 16.2847C23.8834 16.1627 23.925 16.063 24.0081 15.9854C24.0912 15.9023 24.191 15.8607 24.3074 15.8607C24.4237 15.8607 24.5235 15.9023 24.6066 15.9854C24.6898 16.063 24.7313 16.1627 24.7313 16.2847C24.7313 16.4066 24.6898 16.5091 24.6066 16.5922C24.5235 16.6754 24.4237 16.7169 24.3074 16.7169ZM24.5983 17.5732V22.1121H24.0164V17.5732H24.5983ZM25.65 19.8343C25.65 19.3688 25.7415 18.9614 25.9244 18.6123C26.1128 18.2576 26.3705 17.986 26.6975 17.7976C27.03 17.6036 27.4041 17.5067 27.8197 17.5067C28.252 17.5067 28.6233 17.6064 28.9337 17.8059C29.2496 18.0054 29.4768 18.2604 29.6153 18.5707V17.5732H30.1972V22.1121H29.6153V21.1062C29.4712 21.4165 29.2412 21.6742 28.9254 21.8793C28.615 22.0788 28.2437 22.1786 27.8114 22.1786C27.4013 22.1786 27.03 22.0816 26.6975 21.8876C26.3705 21.6936 26.1128 21.4193 25.9244 21.0646C25.7415 20.7099 25.65 20.2998 25.65 19.8343ZM29.6153 19.8426C29.6153 19.4768 29.5405 19.1554 29.3909 18.8783C29.2412 18.6012 29.0362 18.3878 28.7757 18.2382C28.5208 18.0886 28.2381 18.0138 27.9278 18.0138C27.6064 18.0138 27.3182 18.0858 27.0632 18.2299C26.8083 18.374 26.606 18.5846 26.4564 18.8617C26.3123 19.1332 26.2403 19.4574 26.2403 19.8343C26.2403 20.2056 26.3123 20.5326 26.4564 20.8152C26.606 21.0923 26.8083 21.3057 27.0632 21.4553C27.3182 21.5994 27.6064 21.6715 27.9278 21.6715C28.2381 21.6715 28.5208 21.5967 28.7757 21.447C29.0362 21.2974 29.2412 21.084 29.3909 20.8069C29.5405 20.5298 29.6153 20.2084 29.6153 19.8426ZM36.9291 17.49C37.4612 17.49 37.8934 17.6591 38.226 17.9971C38.564 18.3297 38.7331 18.8146 38.7331 19.4519V22.1121H38.1595V19.5184C38.1595 19.0252 38.0403 18.6483 37.802 18.3878C37.5637 18.1274 37.2395 17.9971 36.8294 17.9971C36.4026 17.9971 36.0618 18.1385 35.8069 18.4211C35.552 18.7037 35.4245 19.1138 35.4245 19.6514V22.1121H34.8509V19.5184C34.8509 19.0252 34.7317 18.6483 34.4934 18.3878C34.2551 18.1274 33.9281 17.9971 33.5125 17.9971C33.0858 17.9971 32.7449 18.1385 32.49 18.4211C32.2351 18.7037 32.1076 19.1138 32.1076 19.6514V22.1121H31.5257V17.5732H32.1076V18.3546C32.2517 18.0719 32.4567 17.8586 32.7228 17.7145C32.9888 17.5649 33.2853 17.49 33.6123 17.49C34.0057 17.49 34.3493 17.5843 34.6431 17.7727C34.9423 17.9611 35.1585 18.2382 35.2915 18.604C35.4134 18.2437 35.6212 17.9694 35.915 17.781C36.2142 17.587 36.5523 17.49 36.9291 17.49ZM40.3164 16.7169C40.2 16.7169 40.1002 16.6754 40.0171 16.5922C39.934 16.5091 39.8924 16.4066 39.8924 16.2847C39.8924 16.1627 39.934 16.063 40.0171 15.9854C40.1002 15.9023 40.2 15.8607 40.3164 15.8607C40.4327 15.8607 40.5325 15.9023 40.6156 15.9854C40.6988 16.063 40.7403 16.1627 40.7403 16.2847C40.7403 16.4066 40.6988 16.5091 40.6156 16.5922C40.5325 16.6754 40.4327 16.7169 40.3164 16.7169ZM40.6073 17.5732V22.1121H40.0254V17.5732H40.6073ZM42.4571 21.1478L41.5925 23.3258H41.1935L41.8087 21.1478H42.4571ZM48.7855 16.3013V16.7834H46.2251V18.9531H48.3865V19.4353H46.2251V22.1121H45.6432V16.3013H48.7855ZM50.3247 21.6382H52.4113V22.1121H49.7428V16.3013H50.3247V21.6382Z" fill="#4D6372"/>
<defs>
<filter id="filter0_b_6603_13037" x="-18.088" y="-17.6446" width="190.554" height="135.537" filterUnits="userSpaceOnUse" color-interpolation-filters="sRGB">
<feFlood flood-opacity="0" result="BackgroundImageFix"/>
<feGaussianBlur in="BackgroundImageFix" stdDeviation="9.09233"/>
<feComposite in2="SourceAlpha" operator="in" result="effect1_backgroundBlur_6603_13037"/>
<feBlend mode="normal" in="SourceGraphic" in2="effect1_backgroundBlur_6603_13037" result="shape"/>
</filter>
</defs>
</svg>
