<svg width="254" height="163" viewBox="0 0 254 163" fill="none" xmlns="http://www.w3.org/2000/svg">
<g filter="url(#filter0_b_6603_11479)">
<path d="M0.300842 0.314453L19.5229 4.15887C20.6396 4.38221 21.7756 4.49469 22.9144 4.49469H235.949C245.5 4.49469 253.242 12.237 253.242 21.7876V145.707C253.242 155.258 245.5 163 235.949 163H21.774C12.2234 163 4.48108 155.258 4.48108 145.707V23.893C4.48108 22.8072 4.37882 21.7238 4.17566 20.6573L0.300842 0.314453Z" fill="white" fill-opacity="0.6"/>
<path d="M4.59431 20.5775L0.837921 0.856482L19.4394 4.57677C20.5835 4.80561 21.7475 4.92086 22.9144 4.92086H235.949C245.264 4.92086 252.816 12.4724 252.816 21.7876V145.707C252.816 155.022 245.264 162.574 235.949 162.574H21.774C12.4588 162.574 4.90725 155.022 4.90725 145.707V23.893C4.90725 22.7804 4.80247 21.6704 4.59431 20.5775Z" stroke="#0D6EFD" stroke-opacity="0.5" stroke-width="0.852346"/>
</g>
<path opacity="0.75" d="M120.619 103.651L117.564 109.474V113.183H116.609V109.474L113.527 103.651H114.605L117.087 108.601L119.555 103.651H120.619ZM122.493 104.333C122.303 104.333 122.139 104.264 122.002 104.128C121.866 103.992 121.798 103.823 121.798 103.623C121.798 103.423 121.866 103.26 122.002 103.132C122.139 102.996 122.303 102.928 122.493 102.928C122.684 102.928 122.848 102.996 122.984 103.132C123.121 103.26 123.189 103.423 123.189 103.623C123.189 103.823 123.121 103.992 122.984 104.128C122.848 104.264 122.684 104.333 122.493 104.333ZM122.971 105.737V113.183H122.016V105.737H122.971ZM131.869 109.078C131.869 109.406 131.86 109.656 131.842 109.829H125.664C125.692 110.392 125.828 110.874 126.073 111.274C126.319 111.674 126.642 111.979 127.042 112.188C127.442 112.388 127.878 112.488 128.351 112.488C128.969 112.488 129.487 112.338 129.906 112.038C130.333 111.738 130.615 111.333 130.751 110.824H131.76C131.579 111.551 131.188 112.147 130.588 112.611C129.997 113.065 129.251 113.292 128.351 113.292C127.651 113.292 127.024 113.138 126.469 112.829C125.914 112.511 125.478 112.065 125.16 111.492C124.851 110.91 124.696 110.233 124.696 109.46C124.696 108.688 124.851 108.01 125.16 107.428C125.469 106.846 125.901 106.401 126.455 106.092C127.01 105.783 127.642 105.628 128.351 105.628C129.06 105.628 129.678 105.783 130.206 106.092C130.742 106.401 131.151 106.819 131.433 107.346C131.724 107.865 131.869 108.442 131.869 109.078ZM130.901 109.051C130.91 108.497 130.797 108.024 130.56 107.633C130.333 107.242 130.019 106.946 129.619 106.746C129.219 106.546 128.783 106.446 128.31 106.446C127.601 106.446 126.996 106.674 126.496 107.128C125.996 107.583 125.719 108.224 125.664 109.051H130.901ZM134.571 103.092V113.183H133.616V103.092H134.571ZM136.296 109.447C136.296 108.683 136.451 108.015 136.76 107.442C137.069 106.86 137.492 106.415 138.028 106.105C138.573 105.787 139.187 105.628 139.869 105.628C140.524 105.628 141.115 105.787 141.642 106.105C142.169 106.424 142.556 106.837 142.801 107.346V103.092H143.756V113.183H142.801V111.52C142.574 112.038 142.201 112.465 141.683 112.801C141.165 113.129 140.555 113.292 139.855 113.292C139.174 113.292 138.56 113.133 138.014 112.815C137.478 112.497 137.055 112.047 136.746 111.465C136.446 110.883 136.296 110.21 136.296 109.447ZM142.801 109.46C142.801 108.86 142.678 108.333 142.433 107.878C142.187 107.424 141.851 107.074 141.424 106.828C141.006 106.583 140.542 106.46 140.033 106.46C139.505 106.46 139.033 106.578 138.614 106.815C138.196 107.051 137.864 107.396 137.619 107.851C137.382 108.297 137.264 108.828 137.264 109.447C137.264 110.056 137.382 110.592 137.619 111.056C137.864 111.51 138.196 111.861 138.614 112.106C139.033 112.342 139.505 112.461 140.033 112.461C140.542 112.461 141.006 112.338 141.424 112.092C141.851 111.847 142.187 111.497 142.433 111.042C142.678 110.588 142.801 110.06 142.801 109.46Z" fill="#4D6372"/>
<path d="M114.087 131.569V128.49H119.838V145.888H116.401V131.569H114.087ZM124.189 142.117C125.716 140.844 126.934 139.786 127.84 138.943C128.747 138.084 129.503 137.193 130.108 136.27C130.712 135.347 131.015 134.44 131.015 133.549C131.015 132.738 130.824 132.102 130.442 131.64C130.06 131.179 129.471 130.948 128.676 130.948C127.88 130.948 127.268 131.218 126.838 131.759C126.408 132.284 126.186 133.008 126.17 133.931H122.924C122.988 132.022 123.553 130.574 124.619 129.588C125.7 128.601 127.069 128.108 128.723 128.108C130.537 128.108 131.929 128.593 132.9 129.564C133.871 130.518 134.356 131.783 134.356 133.358C134.356 134.599 134.022 135.785 133.353 136.914C132.685 138.044 131.921 139.031 131.062 139.874C130.203 140.701 129.081 141.703 127.697 142.881H134.738V145.649H122.948V143.167L124.189 142.117ZM138.705 146.055C138.1 146.055 137.599 145.872 137.201 145.506C136.819 145.124 136.628 144.655 136.628 144.098C136.628 143.541 136.819 143.08 137.201 142.714C137.599 142.332 138.1 142.141 138.705 142.141C139.293 142.141 139.779 142.332 140.16 142.714C140.542 143.08 140.733 143.541 140.733 144.098C140.733 144.655 140.542 145.124 140.16 145.506C139.779 145.872 139.293 146.055 138.705 146.055ZM154.737 131.378H147.004V135.459C147.338 135.045 147.816 134.711 148.436 134.456C149.057 134.186 149.717 134.051 150.417 134.051C151.69 134.051 152.732 134.329 153.543 134.886C154.355 135.443 154.944 136.159 155.309 137.034C155.675 137.893 155.858 138.816 155.858 139.802C155.858 141.632 155.333 143.104 154.283 144.217C153.249 145.331 151.769 145.888 149.844 145.888C148.03 145.888 146.583 145.434 145.501 144.528C144.419 143.621 143.806 142.435 143.663 140.972H146.909C147.052 141.608 147.37 142.117 147.863 142.499C148.373 142.881 149.017 143.072 149.797 143.072C150.735 143.072 151.443 142.777 151.921 142.189C152.398 141.6 152.637 140.82 152.637 139.85C152.637 138.863 152.39 138.116 151.897 137.607C151.419 137.081 150.711 136.819 149.773 136.819C149.104 136.819 148.548 136.986 148.102 137.32C147.657 137.654 147.338 138.1 147.147 138.657H143.949V128.442H154.737V131.378ZM158.02 132.762C158.02 131.553 158.37 130.606 159.07 129.922C159.786 129.238 160.7 128.896 161.814 128.896C162.928 128.896 163.835 129.238 164.535 129.922C165.251 130.606 165.609 131.553 165.609 132.762C165.609 133.987 165.251 134.942 164.535 135.626C163.835 136.31 162.928 136.652 161.814 136.652C160.7 136.652 159.786 136.31 159.07 135.626C158.37 134.942 158.02 133.987 158.02 132.762ZM173.341 129.182L163.962 145.888H160.716L170.072 129.182H173.341ZM161.79 130.9C160.915 130.9 160.478 131.521 160.478 132.762C160.478 134.019 160.915 134.647 161.79 134.647C162.22 134.647 162.554 134.496 162.793 134.194C163.031 133.876 163.151 133.398 163.151 132.762C163.151 131.521 162.697 130.9 161.79 130.9ZM168.497 142.284C168.497 141.059 168.847 140.112 169.547 139.444C170.263 138.76 171.178 138.418 172.291 138.418C173.405 138.418 174.304 138.76 174.988 139.444C175.688 140.112 176.038 141.059 176.038 142.284C176.038 143.509 175.688 144.464 174.988 145.148C174.304 145.832 173.405 146.174 172.291 146.174C171.162 146.174 170.247 145.832 169.547 145.148C168.847 144.464 168.497 143.509 168.497 142.284ZM172.267 140.423C171.36 140.423 170.907 141.043 170.907 142.284C170.907 143.541 171.36 144.17 172.267 144.17C173.158 144.17 173.604 143.541 173.604 142.284C173.604 141.043 173.158 140.423 172.267 140.423Z" fill="#0D6EFD"/>
<path opacity="0.75" d="M29.1451 103.118V109.119C29.1451 110.064 29.3678 110.764 29.8133 111.219C30.2679 111.674 30.8862 111.901 31.668 111.901C32.4499 111.901 33.0591 111.678 33.4955 111.233C33.941 110.778 34.1637 110.073 34.1637 109.119V103.118H35.1183V109.105C35.1183 110.314 34.7956 111.223 34.1501 111.833C33.5137 112.442 32.6818 112.746 31.6544 112.746C30.627 112.746 29.7906 112.442 29.1451 111.833C28.5087 111.223 28.1905 110.314 28.1905 109.105V103.118H29.1451ZM40.7388 105.068C41.6298 105.068 42.3571 105.346 42.9208 105.9C43.4845 106.446 43.7664 107.241 43.7664 108.287V112.651H42.8254V108.396C42.8254 107.587 42.6208 106.969 42.2117 106.541C41.8116 106.114 41.2616 105.9 40.5615 105.9C39.8433 105.9 39.2705 106.128 38.8432 106.582C38.4159 107.037 38.2022 107.705 38.2022 108.587V112.651H37.2476V105.205H38.2022V106.473C38.4386 106.018 38.7796 105.673 39.2251 105.437C39.6705 105.191 40.1751 105.068 40.7388 105.068ZM46.3549 103.8C46.164 103.8 46.0004 103.732 45.864 103.596C45.7276 103.459 45.6594 103.291 45.6594 103.091C45.6594 102.891 45.7276 102.727 45.864 102.6C46.0004 102.464 46.164 102.395 46.3549 102.395C46.5459 102.395 46.7095 102.464 46.8459 102.6C46.9823 102.727 47.0504 102.891 47.0504 103.091C47.0504 103.291 46.9823 103.459 46.8459 103.596C46.7095 103.732 46.5459 103.8 46.3549 103.8ZM46.8322 105.205V112.651H45.8776V105.205H46.8322ZM50.235 106.009V110.633C50.235 111.087 50.3214 111.401 50.4941 111.574C50.6669 111.746 50.9715 111.833 51.4079 111.833H52.2807V112.651H51.2578C50.5851 112.651 50.085 112.496 49.7577 112.187C49.4304 111.869 49.2668 111.351 49.2668 110.633V106.009H48.2303V105.205H49.2668V103.336H50.235V105.205H52.2807V106.009H50.235ZM58.5384 106.841C58.7748 106.341 59.1475 105.928 59.6567 105.6C60.1749 105.264 60.7886 105.096 61.4977 105.096C62.1705 105.096 62.7751 105.255 63.3115 105.573C63.857 105.882 64.2798 106.328 64.5798 106.909C64.8889 107.482 65.0435 108.15 65.0435 108.914C65.0435 109.678 64.8889 110.351 64.5798 110.933C64.2798 111.514 63.857 111.964 63.3115 112.283C62.7751 112.601 62.1705 112.76 61.4977 112.76C60.7977 112.76 60.1885 112.596 59.6703 112.269C59.1521 111.933 58.7748 111.514 58.5384 111.014V116.169H57.5974V105.205H58.5384V106.841ZM64.0752 108.914C64.0752 108.296 63.9525 107.764 63.707 107.319C63.4706 106.864 63.1433 106.519 62.7251 106.282C62.3069 106.046 61.8341 105.928 61.3068 105.928C60.7977 105.928 60.3294 106.05 59.9021 106.296C59.4839 106.541 59.1521 106.891 58.9066 107.346C58.6611 107.8 58.5384 108.328 58.5384 108.928C58.5384 109.528 58.6611 110.055 58.9066 110.51C59.1521 110.964 59.4839 111.314 59.9021 111.56C60.3294 111.805 60.7977 111.928 61.3068 111.928C61.8341 111.928 62.3069 111.81 62.7251 111.574C63.1433 111.328 63.4706 110.978 63.707 110.523C63.9525 110.06 64.0752 109.523 64.0752 108.914ZM67.7547 106.528C67.9638 106.064 68.282 105.705 68.7093 105.45C69.1457 105.196 69.6776 105.068 70.3049 105.068V106.064H70.0458C69.3548 106.064 68.8002 106.25 68.382 106.623C67.9638 106.996 67.7547 107.619 67.7547 108.491V112.651H66.8001V105.205H67.7547V106.528ZM72.2183 103.8C72.0274 103.8 71.8637 103.732 71.7274 103.596C71.591 103.459 71.5228 103.291 71.5228 103.091C71.5228 102.891 71.591 102.727 71.7274 102.6C71.8637 102.464 72.0274 102.395 72.2183 102.395C72.4092 102.395 72.5729 102.464 72.7093 102.6C72.8456 102.727 72.9138 102.891 72.9138 103.091C72.9138 103.291 72.8456 103.459 72.7093 103.596C72.5729 103.732 72.4092 103.8 72.2183 103.8ZM72.6956 105.205V112.651H71.741V105.205H72.6956ZM74.421 108.928C74.421 108.155 74.5756 107.482 74.8847 106.909C75.1938 106.328 75.6211 105.882 76.1666 105.573C76.7121 105.255 77.3349 105.096 78.0349 105.096C78.9532 105.096 79.7078 105.323 80.2988 105.778C80.8988 106.232 81.2852 106.85 81.458 107.632H80.4352C80.3079 107.096 80.0306 106.678 79.6033 106.378C79.185 106.068 78.6623 105.914 78.0349 105.914C77.5349 105.914 77.0849 106.028 76.6848 106.255C76.2848 106.482 75.9666 106.823 75.7302 107.278C75.5029 107.723 75.3893 108.273 75.3893 108.928C75.3893 109.582 75.5029 110.137 75.7302 110.592C75.9666 111.046 76.2848 111.387 76.6848 111.614C77.0849 111.842 77.5349 111.955 78.0349 111.955C78.6623 111.955 79.185 111.805 79.6033 111.505C80.0306 111.196 80.3079 110.769 80.4352 110.223H81.458C81.2852 110.987 80.8988 111.601 80.2988 112.064C79.6987 112.528 78.9441 112.76 78.0349 112.76C77.3349 112.76 76.7121 112.605 76.1666 112.296C75.6211 111.978 75.1938 111.533 74.8847 110.96C74.5756 110.378 74.421 109.701 74.421 108.928ZM89.958 108.546C89.958 108.873 89.9489 109.123 89.9307 109.296H83.7529C83.7802 109.86 83.9166 110.342 84.162 110.742C84.4075 111.142 84.7303 111.446 85.1303 111.655C85.5303 111.855 85.9667 111.955 86.4395 111.955C87.0577 111.955 87.576 111.805 87.9942 111.505C88.4215 111.205 88.7033 110.801 88.8397 110.292H89.8489C89.6671 111.019 89.2761 111.614 88.6761 112.078C88.0851 112.533 87.3396 112.76 86.4395 112.76C85.7395 112.76 85.1121 112.605 84.5575 112.296C84.0029 111.978 83.5665 111.533 83.2483 110.96C82.9392 110.378 82.7846 109.701 82.7846 108.928C82.7846 108.155 82.9392 107.478 83.2483 106.896C83.5574 106.314 83.9893 105.868 84.5439 105.559C85.0985 105.25 85.7304 105.096 86.4395 105.096C87.1487 105.096 87.7669 105.25 88.2942 105.559C88.8306 105.868 89.2398 106.287 89.5216 106.814C89.8125 107.332 89.958 107.91 89.958 108.546ZM88.9897 108.519C88.9988 107.964 88.8852 107.491 88.6488 107.1C88.4215 106.709 88.1078 106.414 87.7078 106.214C87.3078 106.014 86.8714 105.914 86.3986 105.914C85.6894 105.914 85.0848 106.141 84.5848 106.596C84.0848 107.05 83.8075 107.691 83.7529 108.519H88.9897Z" fill="#4D6372"/>
<path d="M39.646 136.678C39.646 138.046 39.2085 139.176 38.3334 140.067C37.4583 140.942 36.2889 141.467 34.8251 141.642V143.742H33.2261V141.666C31.8897 141.57 30.7441 141.196 29.7895 140.544C28.8348 139.892 28.1507 139.009 27.737 137.895L30.577 136.248C31.0862 137.537 31.9692 138.261 33.2261 138.42V134.291H33.2023L33.1545 134.267C32.184 133.917 31.3169 133.504 30.5532 133.026C29.2644 132.215 28.5723 130.926 28.4769 129.16C28.4769 127.744 28.9303 126.622 29.8372 125.795C30.7918 124.936 31.9215 124.451 33.2261 124.339V122.263H34.8251V124.387C36.989 124.657 38.5164 125.779 39.4074 127.752L36.6389 129.375C36.2571 128.42 35.6525 127.84 34.8251 127.633V131.618C36.3685 132.239 37.3629 132.708 37.8084 133.026C39.0335 133.917 39.646 135.134 39.646 136.678ZM31.7465 129.184C31.7465 129.534 31.8578 129.844 32.0806 130.115C32.3033 130.369 32.6852 130.632 33.2261 130.902V127.561C32.2397 127.752 31.7465 128.293 31.7465 129.184ZM34.8251 134.936V138.372C35.8434 138.165 36.3525 137.609 36.3525 136.702C36.3525 135.986 35.8434 135.397 34.8251 134.936ZM40.5011 126.201L44.8924 124.649H47.7562V141.355H44.4628V128.134L41.3125 129.017L40.5011 126.201ZM56.9856 141.69C54.9013 141.69 53.2625 140.902 52.0692 139.327C50.8918 137.72 50.3032 135.612 50.3032 133.002C50.3032 130.393 50.8918 128.293 52.0692 126.702C53.2625 125.111 54.9013 124.315 56.9856 124.315C59.1017 124.315 60.7404 125.111 61.9019 126.702C63.0793 128.293 63.668 130.393 63.668 133.002C63.668 135.612 63.0793 137.72 61.9019 139.327C60.7404 140.902 59.1017 141.69 56.9856 141.69ZM60.3984 133.002C60.3984 131.221 60.104 129.86 59.5153 128.921C58.9425 127.983 58.0993 127.513 56.9856 127.513C55.8718 127.513 55.0286 127.983 54.4558 128.921C53.883 129.86 53.5966 131.221 53.5966 133.002C53.5966 134.784 53.883 136.145 54.4558 137.084C55.0286 138.006 55.8718 138.468 56.9856 138.468C58.0993 138.468 58.9425 137.998 59.5153 137.06C60.104 136.121 60.3984 134.769 60.3984 133.002ZM72.0182 141.69C69.9339 141.69 68.2951 140.902 67.1018 139.327C65.9244 137.72 65.3358 135.612 65.3358 133.002C65.3358 130.393 65.9244 128.293 67.1018 126.702C68.2951 125.111 69.9339 124.315 72.0182 124.315C74.1342 124.315 75.773 125.111 76.9345 126.702C78.1119 128.293 78.7006 130.393 78.7006 133.002C78.7006 135.612 78.1119 137.72 76.9345 139.327C75.773 140.902 74.1342 141.69 72.0182 141.69ZM75.4309 133.002C75.4309 131.221 75.1366 129.86 74.5479 128.921C73.9751 127.983 73.1319 127.513 72.0182 127.513C70.9044 127.513 70.0612 127.983 69.4884 128.921C68.9156 129.86 68.6292 131.221 68.6292 133.002C68.6292 134.784 68.9156 136.145 69.4884 137.084C70.0612 138.006 70.9044 138.468 72.0182 138.468C73.1319 138.468 73.9751 137.998 74.5479 137.06C75.1366 136.121 75.4309 134.769 75.4309 133.002Z" fill="#0D6EFD"/>
<path opacity="0.15" fill-rule="evenodd" clip-rule="evenodd" d="M26.7291 85.2919C26.7291 85.0565 26.9149 84.8657 27.144 84.8657H229.173C229.402 84.8657 229.588 85.0565 229.588 85.2919C229.588 85.5273 229.402 85.7181 229.173 85.7181H27.144C26.9149 85.7181 26.7291 85.5273 26.7291 85.2919Z" fill="#4D6372"/>
<path d="M37.8264 59.1472C38.7651 59.3223 39.5367 59.7916 40.1413 60.5553C40.7459 61.319 41.0482 62.1941 41.0482 63.1805C41.0482 64.0715 40.8255 64.8591 40.38 65.5432C39.9504 66.2115 39.322 66.7365 38.4946 67.1184C37.6673 67.5002 36.6888 67.6912 35.5591 67.6912H28.3756V51.0329H35.2489C36.3785 51.0329 37.3491 51.2159 38.1605 51.5818C38.9878 51.9478 39.6083 52.4569 40.022 53.1092C40.4516 53.7615 40.6664 54.5014 40.6664 55.3287C40.6664 56.2993 40.4039 57.1107 39.8788 57.763C39.3697 58.4154 38.6855 58.8768 37.8264 59.1472ZM31.7168 57.9062H34.7716C35.5671 57.9062 36.1796 57.7312 36.6092 57.3812C37.0388 57.0152 37.2536 56.4981 37.2536 55.8299C37.2536 55.1617 37.0388 54.6446 36.6092 54.2786C36.1796 53.9127 35.5671 53.7297 34.7716 53.7297H31.7168V57.9062ZM35.0818 64.9705C35.8933 64.9705 36.5217 64.7795 36.9672 64.3977C37.4286 64.0158 37.6593 63.4749 37.6593 62.7748C37.6593 62.0589 37.4207 61.502 36.9433 61.1042C36.466 60.6906 35.8217 60.4837 35.0102 60.4837H31.7168V64.9705H35.0818ZM45.4056 52.8944C44.8169 52.8944 44.3237 52.7115 43.9259 52.3455C43.5441 51.9637 43.3531 51.4943 43.3531 50.9374C43.3531 50.3806 43.5441 49.9192 43.9259 49.5532C44.3237 49.1714 44.8169 48.9805 45.4056 48.9805C45.9943 48.9805 46.4796 49.1714 46.8614 49.5532C47.2592 49.9192 47.458 50.3806 47.458 50.9374C47.458 51.4943 47.2592 51.9637 46.8614 52.3455C46.4796 52.7115 45.9943 52.8944 45.4056 52.8944ZM47.0523 54.4696V67.6912H43.7111V54.4696H47.0523ZM55.413 67.906C54.3311 67.906 53.3605 67.715 52.5014 67.3332C51.6422 66.9354 50.958 66.4024 50.4489 65.7342C49.9557 65.0659 49.6852 64.3261 49.6375 63.5147H53.0025C53.0662 64.0238 53.3128 64.4454 53.7424 64.7795C54.1879 65.1137 54.7368 65.2807 55.3891 65.2807C56.0255 65.2807 56.5187 65.1534 56.8688 64.8989C57.2347 64.6443 57.4177 64.3181 57.4177 63.9204C57.4177 63.4908 57.1949 63.1726 56.7495 62.9658C56.3199 62.743 55.6278 62.5043 54.6731 62.2498C53.6867 62.0111 52.8753 61.7645 52.2388 61.5099C51.6183 61.2554 51.0774 60.8656 50.616 60.3405C50.1705 59.8155 49.9477 59.1075 49.9477 58.2165C49.9477 57.4846 50.1546 56.8164 50.5682 56.2118C50.9978 55.6072 51.6024 55.1298 52.382 54.7798C53.1776 54.4298 54.1083 54.2548 55.1743 54.2548C56.7495 54.2548 58.0064 54.6525 58.9451 55.4481C59.8838 56.2277 60.4009 57.2857 60.4964 58.6222H57.2984C57.2506 58.0971 57.0279 57.6835 56.6301 57.3812C56.2483 57.063 55.7312 56.9039 55.0789 56.9039C54.4743 56.9039 54.0049 57.0152 53.6708 57.238C53.3526 57.4607 53.1935 57.771 53.1935 58.1687C53.1935 58.6142 53.4162 58.9563 53.8617 59.195C54.3072 59.4177 54.9993 59.6484 55.938 59.8871C56.8926 60.1257 57.6802 60.3723 58.3007 60.6269C58.9212 60.8815 59.4542 61.2792 59.8997 61.8202C60.3611 62.3452 60.5998 63.0453 60.6157 63.9204C60.6157 64.6841 60.4009 65.3682 59.9713 65.9728C59.5576 66.5774 58.9531 67.0547 58.1575 67.4048C57.3779 67.7389 56.4631 67.906 55.413 67.906ZM62.4992 61.0804C62.4992 59.7121 62.7777 58.5188 63.3345 57.5005C63.8914 56.4663 64.663 55.6708 65.6495 55.1139C66.6359 54.5412 67.7656 54.2548 69.0384 54.2548C70.6772 54.2548 72.0296 54.6684 73.0956 55.4958C74.1775 56.3072 74.9014 57.4528 75.2674 58.9324H71.6636C71.4727 58.3597 71.1466 57.9142 70.6852 57.596C70.2397 57.2618 69.6828 57.0948 69.0146 57.0948C68.0599 57.0948 67.3042 57.4448 66.7473 58.1449C66.1904 58.829 65.912 59.8075 65.912 61.0804C65.912 62.3373 66.1904 63.3158 66.7473 64.0158C67.3042 64.7 68.0599 65.0421 69.0146 65.0421C70.3669 65.0421 71.25 64.4375 71.6636 63.2283H75.2674C74.9014 64.6602 74.1775 65.7978 73.0956 66.6411C72.0137 67.4843 70.6613 67.906 69.0384 67.906C67.7656 67.906 66.6359 67.6275 65.6495 67.0707C64.663 66.4979 63.8914 65.7024 63.3345 64.6841C62.7777 63.6499 62.4992 62.4487 62.4992 61.0804ZM76.8559 61.0326C76.8559 59.6962 77.1185 58.5108 77.6435 57.4766C78.1845 56.4425 78.9084 55.6469 79.8153 55.0901C80.7381 54.5332 81.7643 54.2548 82.894 54.2548C83.8804 54.2548 84.7396 54.4537 85.4715 54.8514C86.2192 55.2492 86.8159 55.7504 87.2614 56.355V54.4696H90.6264V67.6912H87.2614V65.758C86.8318 66.3785 86.2352 66.8956 85.4715 67.3093C84.7237 67.7071 83.8565 67.906 82.8701 67.906C81.7564 67.906 80.7381 67.6196 79.8153 67.0468C78.9084 66.474 78.1845 65.6705 77.6435 64.6364C77.1185 63.5863 76.8559 62.385 76.8559 61.0326ZM87.2614 61.0804C87.2614 60.2689 87.1023 59.5768 86.7841 59.004C86.4659 58.4154 86.0363 57.9699 85.4953 57.6676C84.9544 57.3494 84.3736 57.1903 83.7531 57.1903C83.1326 57.1903 82.5598 57.3414 82.0348 57.6437C81.5097 57.946 81.0802 58.3915 80.746 58.9802C80.4278 59.553 80.2687 60.2371 80.2687 61.0326C80.2687 61.8282 80.4278 62.5282 80.746 63.1328C81.0802 63.7215 81.5097 64.1749 82.0348 64.4932C82.5757 64.8114 83.1485 64.9705 83.7531 64.9705C84.3736 64.9705 84.9544 64.8193 85.4953 64.517C86.0363 64.1988 86.4659 63.7533 86.7841 63.1805C87.1023 62.5919 87.2614 61.8918 87.2614 61.0804ZM106.539 54.4696L98.3526 73.944H94.7966L97.6605 67.357L92.3623 54.4696H96.1092L99.522 63.7056L102.983 54.4696H106.539ZM115.666 54.2786C117.242 54.2786 118.514 54.7798 119.485 55.7822C120.455 56.7686 120.941 58.1528 120.941 59.9348V67.6912H117.6V60.3883C117.6 59.3382 117.337 58.5347 116.812 57.9778C116.287 57.405 115.571 57.1187 114.664 57.1187C113.741 57.1187 113.009 57.405 112.468 57.9778C111.943 58.5347 111.681 59.3382 111.681 60.3883V67.6912H108.34V54.4696H111.681V56.1163C112.126 55.5435 112.691 55.098 113.375 54.7798C114.075 54.4457 114.839 54.2786 115.666 54.2786ZM136.409 60.794C136.409 61.2713 136.377 61.7009 136.313 62.0827H126.648C126.727 63.0373 127.061 63.7851 127.65 64.3261C128.239 64.8671 128.963 65.1375 129.822 65.1375C131.063 65.1375 131.946 64.6045 132.471 63.5385H136.075C135.693 64.8114 134.961 65.8615 133.879 66.6888C132.797 67.5002 131.469 67.906 129.894 67.906C128.621 67.906 127.475 67.6275 126.457 67.0707C125.455 66.4979 124.667 65.6944 124.094 64.6602C123.537 63.626 123.259 62.4328 123.259 61.0804C123.259 59.7121 123.537 58.5108 124.094 57.4766C124.651 56.4425 125.431 55.6469 126.433 55.0901C127.435 54.5332 128.589 54.2548 129.894 54.2548C131.15 54.2548 132.272 54.5252 133.259 55.0662C134.261 55.6072 135.033 56.3788 135.574 57.3812C136.13 58.3676 136.409 59.5052 136.409 60.794ZM132.948 59.8393C132.932 58.9802 132.622 58.296 132.018 57.7869C131.413 57.2619 130.673 56.9993 129.798 56.9993C128.971 56.9993 128.271 57.2539 127.698 57.763C127.141 58.2563 126.799 58.9484 126.672 59.8393H132.948ZM153.985 59.1472C154.924 59.3223 155.696 59.7916 156.3 60.5553C156.905 61.319 157.207 62.1941 157.207 63.1805C157.207 64.0715 156.984 64.8591 156.539 65.5432C156.109 66.2115 155.481 66.7365 154.653 67.1184C153.826 67.5002 152.848 67.6912 151.718 67.6912H144.534V51.0329H151.408C152.537 51.0329 153.508 51.2159 154.319 51.5818C155.147 51.9478 155.767 52.4569 156.181 53.1092C156.61 53.7615 156.825 54.5014 156.825 55.3287C156.825 56.2993 156.563 57.1107 156.038 57.763C155.529 58.4154 154.844 58.8768 153.985 59.1472ZM147.876 57.9062H150.93C151.726 57.9062 152.338 57.7312 152.768 57.3812C153.198 57.0152 153.412 56.4981 153.412 55.8299C153.412 55.1617 153.198 54.6446 152.768 54.2786C152.338 53.9127 151.726 53.7297 150.93 53.7297H147.876V57.9062ZM151.241 64.9705C152.052 64.9705 152.681 64.7795 153.126 64.3977C153.587 64.0158 153.818 63.4749 153.818 62.7748C153.818 62.0589 153.579 61.502 153.102 61.1042C152.625 60.6906 151.98 60.4837 151.169 60.4837H147.876V64.9705H151.241ZM163.211 50.0305V67.6912H159.87V50.0305H163.211ZM172.025 64.6125L175.366 54.4696H178.922L174.03 67.6912H169.973L165.104 54.4696H168.684L172.025 64.6125ZM179.94 61.0326C179.94 59.6962 180.202 58.5108 180.727 57.4766C181.268 56.4425 182 55.6469 182.923 55.0901C183.846 54.5332 184.872 54.2548 186.002 54.2548C186.861 54.2548 187.68 54.4457 188.46 54.8275C189.24 55.1935 189.86 55.6867 190.321 56.3072V50.0305H193.71V67.6912H190.321V65.7342C189.908 66.3865 189.327 66.9115 188.579 67.3093C187.832 67.7071 186.964 67.906 185.978 67.906C184.864 67.906 183.846 67.6196 182.923 67.0468C182 66.474 181.268 65.6705 180.727 64.6364C180.202 63.5863 179.94 62.385 179.94 61.0326ZM190.345 61.0804C190.345 60.2689 190.186 59.5768 189.868 59.004C189.55 58.4154 189.12 57.9699 188.579 57.6676C188.038 57.3494 187.458 57.1903 186.837 57.1903C186.217 57.1903 185.644 57.3414 185.119 57.6437C184.594 57.946 184.164 58.3915 183.83 58.9802C183.512 59.553 183.353 60.2371 183.353 61.0326C183.353 61.8282 183.512 62.5282 183.83 63.1328C184.164 63.7215 184.594 64.1749 185.119 64.4932C185.66 64.8114 186.233 64.9705 186.837 64.9705C187.458 64.9705 188.038 64.8193 188.579 64.517C189.12 64.1988 189.55 63.7533 189.868 63.1805C190.186 62.5919 190.345 61.8918 190.345 61.0804Z" fill="#002036"/>
<path opacity="0.75" d="M37.3756 26.5295V35.9395H36.421V28.4252L33.0661 35.9395H32.3706L29.0158 28.4524V35.9395H28.0612V26.5295H29.0703L32.7116 34.6848L36.3528 26.5295H37.3756ZM40.0185 27.0887C39.8276 27.0887 39.6639 27.0205 39.5276 26.8841C39.3912 26.7477 39.323 26.5796 39.323 26.3795C39.323 26.1795 39.3912 26.0159 39.5276 25.8886C39.6639 25.7522 39.8276 25.684 40.0185 25.684C40.2094 25.684 40.3731 25.7522 40.5095 25.8886C40.6458 26.0159 40.714 26.1795 40.714 26.3795C40.714 26.5796 40.6458 26.7477 40.5095 26.8841C40.3731 27.0205 40.2094 27.0887 40.0185 27.0887ZM40.4958 28.4934V35.9395H39.5412V28.4934H40.4958ZM42.2212 32.2028C42.2212 31.4391 42.3712 30.7708 42.6712 30.198C42.9803 29.6162 43.4031 29.1707 43.9395 28.8616C44.485 28.5434 45.0987 28.3843 45.7806 28.3843C46.4897 28.3843 47.0989 28.5479 47.608 28.8752C48.1262 29.2025 48.499 29.6207 48.7263 30.1299V28.4934H49.6809V35.9395H48.7263V34.2893C48.4899 34.7984 48.1126 35.2212 47.5944 35.5576C47.0852 35.8849 46.4761 36.0486 45.767 36.0486C45.0942 36.0486 44.485 35.8894 43.9395 35.5712C43.4031 35.253 42.9803 34.803 42.6712 34.2211C42.3712 33.6393 42.2212 32.9665 42.2212 32.2028ZM48.7263 32.2164C48.7263 31.6164 48.6036 31.089 48.3581 30.6344C48.1126 30.1799 47.7762 29.8298 47.3489 29.5844C46.9307 29.3389 46.467 29.2161 45.9579 29.2161C45.4306 29.2161 44.9578 29.3343 44.5396 29.5707C44.1214 29.8071 43.7895 30.1526 43.544 30.6072C43.3076 31.0527 43.1895 31.5845 43.1895 32.2028C43.1895 32.8119 43.3076 33.3483 43.544 33.812C43.7895 34.2666 44.1214 34.6166 44.5396 34.8621C44.9578 35.0985 45.4306 35.2167 45.9579 35.2167C46.467 35.2167 46.9307 35.0939 47.3489 34.8484C47.7762 34.603 48.1126 34.2529 48.3581 33.7984C48.6036 33.3438 48.7263 32.8165 48.7263 32.2164ZM60.7247 28.357C61.5975 28.357 62.3066 28.6343 62.8521 29.1889C63.4067 29.7344 63.684 30.5299 63.684 31.5754V35.9395H62.743V31.6845C62.743 30.8754 62.5476 30.2571 62.1566 29.8298C61.7657 29.4025 61.2338 29.1889 60.561 29.1889C59.861 29.1889 59.3018 29.4207 58.8836 29.8844C58.4654 30.3481 58.2563 31.0208 58.2563 31.9027V35.9395H57.3153V31.6845C57.3153 30.8754 57.1198 30.2571 56.7289 29.8298C56.3379 29.4025 55.8015 29.1889 55.1196 29.1889C54.4196 29.1889 53.8604 29.4207 53.4422 29.8844C53.024 30.3481 52.8149 31.0208 52.8149 31.9027V35.9395H51.8603V28.4934H52.8149V29.7753C53.0513 29.3116 53.3877 28.9616 53.8241 28.7252C54.2605 28.4797 54.7469 28.357 55.2833 28.357C55.9288 28.357 56.4925 28.5115 56.9743 28.8207C57.4653 29.1298 57.8199 29.5844 58.0381 30.1844C58.2381 29.5934 58.579 29.1434 59.0609 28.8343C59.5518 28.5161 60.1064 28.357 60.7247 28.357ZM66.2814 27.0887C66.0905 27.0887 65.9269 27.0205 65.7905 26.8841C65.6541 26.7477 65.5859 26.5796 65.5859 26.3795C65.5859 26.1795 65.6541 26.0159 65.7905 25.8886C65.9269 25.7522 66.0905 25.684 66.2814 25.684C66.4724 25.684 66.636 25.7522 66.7724 25.8886C66.9088 26.0159 66.977 26.1795 66.977 26.3795C66.977 26.5796 66.9088 26.7477 66.7724 26.8841C66.636 27.0205 66.4724 27.0887 66.2814 27.0887ZM66.7588 28.4934V35.9395H65.8041V28.4934H66.7588ZM69.7933 34.3575L68.375 37.9305H67.7204L68.7296 34.3575H69.7933ZM80.1751 26.4068V27.1978H75.9748V30.7572H79.5205V31.5482H75.9748V35.9395H75.0201V26.4068H80.1751ZM82.7003 35.1621H86.1233V35.9395H81.7457V26.4068H82.7003V35.1621Z" fill="#4D6372"/>
<defs>
<filter id="filter0_b_6603_11479" x="-29.5313" y="-29.5177" width="312.605" height="222.35" filterUnits="userSpaceOnUse" color-interpolation-filters="sRGB">
<feFlood flood-opacity="0" result="BackgroundImageFix"/>
<feGaussianBlur in="BackgroundImageFix" stdDeviation="14.9161"/>
<feComposite in2="SourceAlpha" operator="in" result="effect1_backgroundBlur_6603_11479"/>
<feBlend mode="normal" in="SourceGraphic" in2="effect1_backgroundBlur_6603_11479" result="shape"/>
</filter>
</defs>
</svg>
