<svg viewBox="0 0 558 684" fill="none" xmlns="http://www.w3.org/2000/svg">
<g opacity="0.6">
<g filter="url(#filter0_b_11519_3284)">
<path d="M1 58.3291L103.616 0L206.952 58.6891V167.426L103.976 226.835L1 167.426V58.3291Z" fill="url(#paint0_linear_11519_3284)" fill-opacity="0.2"/>
</g>
<g filter="url(#filter1_b_11519_3284)">
<path d="M13.5946 51.17L91.317 6.99099C98.9437 2.65578 108.289 2.6541 115.917 6.98656L194.35 51.5317C202.139 55.9558 206.952 64.2237 206.952 73.1822V153.045C206.952 161.944 202.203 170.166 194.496 174.612L116.418 219.657C108.718 224.099 99.2337 224.099 91.5335 219.657L13.4563 174.612C5.74869 170.166 1 161.944 1 153.045V72.8162C1 63.8609 5.80918 55.5954 13.5946 51.17Z" stroke="#4B88FF" stroke-opacity="0.3" stroke-width="1.14736"/>
</g>
</g>
<g opacity="0.02" filter="url(#filter2_b_11519_3284)">
<path d="M77.4256 140.887L207.677 66.8852C217.77 61.1509 230.135 61.1487 240.23 66.8793L371.613 141.461C381.929 147.317 388.302 158.263 388.302 170.125V304.748C388.302 316.53 382.013 327.416 371.807 333.302L240.99 408.736C230.799 414.612 218.25 414.612 208.06 408.736L77.2425 333.302C67.036 327.416 60.7472 316.53 60.7472 304.748V169.545C60.7472 157.687 67.1161 146.744 77.4256 140.887Z" stroke="#FCFDFD" stroke-width="2.10872"/>
</g>
<g opacity="0.015" filter="url(#filter3_b_11519_3284)">
<path d="M39.4665 120.221L207.542 24.7141C217.636 18.9783 230.004 18.976 240.1 24.7082L409.573 120.928C419.887 126.784 426.259 137.731 426.259 149.591V324.315C426.259 336.096 419.971 346.981 409.766 352.867L240.992 450.205C230.8 456.083 218.249 456.083 208.058 450.205L39.2834 352.867C29.0781 346.981 22.7902 336.096 22.7902 324.315V148.878C22.7902 137.022 29.1581 126.079 39.4665 120.221Z" stroke="#FCFDFD" stroke-width="2.10872"/>
</g>
<g opacity="0.05" filter="url(#filter4_b_11519_3284)">
<path d="M121.015 164.052L208 114.671C218.088 108.944 230.444 108.942 240.534 114.665L328.346 164.475C338.667 170.329 345.045 181.279 345.045 193.144V281.828C345.045 293.614 338.752 304.503 328.54 310.387L241.141 360.745C230.956 366.614 218.416 366.614 208.231 360.745L120.832 310.387C110.62 304.503 104.327 293.614 104.327 281.828V192.716C104.327 180.855 110.701 169.908 121.015 164.052Z" stroke="#FCFDFD" stroke-width="2.10872"/>
</g>
<g opacity="0.05" filter="url(#filter5_b_11519_3284)">
<path d="M203.621 359.814V358.76H201.512V359.814H203.621ZM459.763 338.497L459.242 339.414L459.763 338.497ZM323.062 561.777L322.536 562.691L323.062 561.777ZM355.968 561.777L356.494 562.691L355.968 561.777ZM218.548 502.787L322.536 562.691L323.589 560.864L219.6 500.96L218.548 502.787ZM356.494 562.691L460.482 502.787L459.43 500.96L355.441 560.864L356.494 562.691ZM477.518 473.313V367.168H475.409V473.313H477.518ZM460.283 337.58L339.556 269.116L338.516 270.95L459.242 339.414L460.283 337.58ZM201.512 359.814V473.313H203.621V359.814H201.512ZM477.518 367.168C477.518 354.922 470.935 343.621 460.283 337.58L459.242 339.414C469.234 345.081 475.409 355.681 475.409 367.168H477.518ZM460.482 502.787C471.022 496.715 477.518 485.477 477.518 473.313H475.409C475.409 484.723 469.316 495.264 459.43 500.96L460.482 502.787ZM322.536 562.691C333.046 568.745 345.984 568.745 356.494 562.691L355.441 560.864C345.583 566.543 333.447 566.543 323.589 560.864L322.536 562.691ZM219.6 500.96C209.713 495.264 203.621 484.723 203.621 473.313H201.512C201.512 485.477 208.007 496.715 218.548 502.787L219.6 500.96Z" fill="#FCFDFD"/>
</g>
<g opacity="0.02" filter="url(#filter6_b_11519_3284)">
<path d="M172.861 351.298V350.243H170.752V351.298H172.861ZM490.426 327.28L490.947 326.363L490.426 327.28ZM490.619 523.509L490.092 522.596L490.619 523.509ZM322.964 601.305L323.492 600.392L322.964 601.305ZM355.936 601.305L355.409 600.392L355.936 601.305ZM187.754 524.422L322.437 602.218L323.492 600.392L188.808 522.596L187.754 524.422ZM356.463 602.218L491.147 524.422L490.092 522.596L355.409 600.392L356.463 602.218ZM508.148 494.968V355.932H506.039V494.968H508.148ZM490.947 326.363L339.385 240.181L338.343 242.014L489.905 328.197L490.947 326.363ZM170.752 351.298V494.968H172.861V351.298H170.752ZM508.148 355.932C508.148 343.7 501.58 332.41 490.947 326.363L489.905 328.197C499.879 333.868 506.039 344.458 506.039 355.932H508.148ZM491.147 524.422C501.667 518.345 508.148 507.118 508.148 494.968H506.039C506.039 506.365 499.961 516.896 490.092 522.596L491.147 524.422ZM322.437 602.218C332.964 608.298 345.936 608.298 356.463 602.218L355.409 600.392C345.534 606.095 333.366 606.095 323.492 600.392L322.437 602.218ZM188.808 522.596C178.94 516.896 172.861 506.365 172.861 494.968H170.752C170.752 507.118 177.233 518.345 187.754 524.422L188.808 522.596Z" fill="#FCFDFD"/>
</g>
<g opacity="0.02" filter="url(#filter7_b_11519_3284)">
<path d="M76.6988 461.283L160.723 413.647C174.166 406.026 190.622 406.023 204.068 413.639L288.972 461.734C302.748 469.538 311.263 484.148 311.263 499.981V584.192C311.263 599.919 302.861 614.448 289.23 622.291L204.765 670.894C191.193 678.703 174.491 678.703 160.919 670.894L76.4547 622.291C62.8233 614.448 54.421 599.919 54.421 584.192V499.522C54.421 483.695 62.93 469.089 76.6988 461.283Z" stroke="#FCFDFD" stroke-width="2.44631"/>
</g>
<g opacity="0.5">
<g filter="url(#filter8_b_11519_3284)">
<path d="M86.3785 490.679L183.408 435.525L281.118 491.019V593.836L183.748 650.011L86.3785 593.836V490.679Z" fill="url(#paint1_linear_11519_3284)" fill-opacity="0.2"/>
</g>
<g filter="url(#filter9_b_11519_3284)">
<path d="M99.539 483.198L170.556 442.83C178.526 438.3 188.291 438.299 196.262 442.826L267.949 483.54C276.089 488.163 281.118 496.803 281.118 506.164V578.809C281.118 588.108 276.156 596.699 268.102 601.345L196.75 642.51C188.703 647.152 178.793 647.152 170.747 642.51L99.3944 601.345C91.3405 596.699 86.3785 588.107 86.3785 578.809V505.817C86.3785 496.459 91.4037 487.822 99.539 483.198Z" stroke="#4B88FF" stroke-opacity="0.3" stroke-width="1.63088"/>
</g>
</g>
<path d="M175.616 495.614C174.782 496.08 174.042 499.041 173.369 504.469C172.872 508.457 172.844 508.54 172.011 508.756C171.594 508.864 170.399 509.3 169.342 509.765C167.952 510.365 167.286 510.527 166.982 510.331C166.734 510.164 164.692 508.598 162.402 506.782C157.547 502.954 157.381 502.897 154.902 504.738C153.341 505.892 147.538 511.565 145.638 513.797C144.186 515.479 144.345 516.533 146.463 519.18C147.398 520.377 148.966 522.383 149.9 523.664L151.632 525.976L150.675 528.242C150.14 529.486 149.633 530.73 149.548 530.979C149.436 531.255 149.268 531.476 149.157 531.475C149.046 531.475 146.326 531.873 143.134 532.379C138.056 533.15 137.25 533.339 136.803 533.89C136.356 534.442 136.296 535.162 136.25 542.34C136.204 549.408 136.254 550.24 136.667 550.769C137.08 551.243 138.021 551.498 142.563 552.22C145.527 552.71 148.214 553.143 148.518 553.229C148.933 553.314 149.372 554.066 150.109 555.927C150.682 557.344 151.2 558.706 151.282 558.928C151.363 559.206 150.187 560.944 148.287 563.344C146.581 565.55 145.015 567.702 144.818 568.172C144.171 569.609 144.939 570.778 149.732 575.797C153.863 580.065 155.794 581.685 156.792 581.691C157.374 581.695 158.794 580.789 162.276 578.262C164.978 576.256 167.122 574.856 167.371 574.941C167.952 575.111 172.183 576.884 172.321 576.996C172.376 577.052 172.83 579.715 173.281 582.961C174.077 588.482 174.185 588.87 174.875 589.485C175.619 590.127 175.675 590.127 183.382 590.177C192.725 590.237 192.142 590.482 192.917 586.33C193.32 584.087 194.247 577.774 194.251 577.192C194.252 577.081 194.919 576.781 195.725 576.509C196.503 576.264 197.754 575.773 198.449 575.418L199.756 574.788L204.115 578.253C206.542 580.154 208.833 581.804 209.249 581.889C209.691 582.003 210.413 581.869 211.053 581.596C212.415 580.967 221.456 572.073 222.13 570.664C222.805 569.227 222.586 568.699 219.671 565.022C218.324 563.295 216.839 561.373 216.372 560.704L215.492 559.479L216.59 556.992C217.181 555.61 217.715 554.394 217.772 554.256C217.8 554.145 220.521 553.636 223.768 553.158C228.68 552.413 229.791 552.171 230.293 551.703C230.851 551.124 230.881 550.82 231.011 543.476C231.147 535.217 231.094 534.829 229.657 534.182C229.325 534.041 226.638 533.553 223.675 533.063C220.739 532.6 218.246 532.169 218.164 532.085C218.081 531.974 217.535 530.751 216.961 529.333C216.36 527.944 215.842 526.638 215.76 526.499C215.705 526.332 217.16 524.29 219.005 521.946C220.85 519.602 222.445 517.367 222.53 517.008C222.644 516.648 222.564 516.01 222.346 515.565C221.716 514.286 218.055 510.188 214.61 506.923C211.771 504.272 211.247 503.881 210.415 503.875C209.611 503.87 208.637 504.474 204.765 507.304C202.202 509.2 199.974 510.682 199.808 510.625C199.67 510.541 198.509 510.063 197.264 509.556C196.02 509.021 194.914 508.543 194.831 508.459C194.721 508.32 193.098 497.805 193.102 497.112C193.103 496.946 192.801 496.501 192.415 496.138L191.754 495.441L183.908 495.39C179.5 495.362 175.867 495.477 175.616 495.614ZM188.766 524.69C195.158 526.643 200.171 531.831 201.711 538.077C202.441 540.964 202.416 544.872 201.649 547.749C200.029 553.92 194.477 559.344 188.117 560.966C185.839 561.561 181.126 561.531 178.829 560.907C175.48 560.026 173.132 558.625 170.377 555.863C168.338 553.827 167.651 552.908 166.721 550.99C162.863 542.982 164.889 534.043 171.886 528.129C173.754 526.534 177.258 524.865 179.757 524.327C182.145 523.844 186.58 524.011 188.766 524.69Z" fill="url(#paint2_linear_11519_3284)" fill-opacity="0.18"/>
<g filter="url(#filter10_b_11519_3284)">
<path d="M226.266 359.432L339.43 295.107L453.388 359.829V479.743L339.827 545.259L226.266 479.743V359.432Z" fill="#192C48" fill-opacity="0.2"/>
</g>
<g filter="url(#filter11_b_11519_3284)">
<path d="M236.134 353.823L329.793 300.585C335.769 297.188 343.091 297.187 349.068 300.582L443.514 354.221C449.617 357.688 453.388 364.166 453.388 371.185V468.476C453.388 475.448 449.667 481.89 443.628 485.374L349.576 539.635C343.543 543.116 336.111 543.116 330.078 539.635L236.026 485.374C229.987 481.89 226.266 475.448 226.266 468.476V370.783C226.266 363.767 230.034 357.29 236.134 353.823Z" fill="#192C48" fill-opacity="0.2"/>
<path d="M236.134 353.823L329.793 300.585C335.769 297.188 343.091 297.187 349.068 300.582L443.514 354.221C449.617 357.688 453.388 364.166 453.388 371.185V468.476C453.388 475.448 449.667 481.89 443.628 485.374L349.576 539.635C343.543 543.116 336.111 543.116 330.078 539.635L236.026 485.374C229.987 481.89 226.266 475.448 226.266 468.476V370.783C226.266 363.767 230.034 357.29 236.134 353.823Z" stroke="#4B88FF" stroke-opacity="0.1" stroke-width="1.40582"/>
</g>
<path d="M487.497 171.926L487.011 171.783L486.999 171.276L486.925 168.147L486.866 165.695H480.739H474.603V168.105V171.21V171.788L474.035 171.893L473.374 172.015C467.586 173.257 463.055 176.013 460.626 179.643C458.408 182.984 457.618 185.965 457.787 190.558L457.787 190.559C457.872 192.956 458.205 194.848 458.845 196.492C459.483 198.13 460.439 199.557 461.817 201.007C464.681 203.966 468.296 205.691 476.717 207.895L476.718 207.895C482.551 209.427 483.953 209.844 485.672 210.729C487.203 211.489 488.275 212.627 488.733 213.975C489.194 215.334 489.002 216.82 488.162 218.193C487.505 219.268 486.286 220.09 484.905 220.611C483.51 221.137 481.867 221.388 480.259 221.256L480.257 221.255C476.592 220.939 473.829 218.951 473.178 215.785L473.178 215.784L472.993 214.874H464.793H456.771L456.865 215.772L456.865 215.772L456.865 215.78C457.565 223.357 461.258 228.87 467.627 231.934L467.627 231.934L467.633 231.937C468.496 232.363 469.938 232.91 471.282 233.354C471.95 233.574 472.582 233.766 473.092 233.901C473.637 234.045 473.958 234.101 474.057 234.101C474.25 234.101 474.44 234.166 474.596 234.297C474.737 234.415 474.817 234.557 474.864 234.666C474.954 234.874 474.997 235.132 475.024 235.394C475.082 235.939 475.099 236.814 475.099 238.149V240.808H481.236H487.372V238.174V234.845V234.255L487.954 234.16L489.016 233.987C490.718 233.679 493.528 232.666 495.817 231.473L495.817 231.472L495.824 231.469C497.51 230.614 498.42 229.942 500.143 228.219L500.146 228.216C501.127 227.248 501.701 226.641 502.151 226.036C502.594 225.438 502.932 224.822 503.41 223.817L503.41 223.817C504.853 220.785 505.329 218.679 505.305 215.054V215.049C505.305 212.395 504.994 210.334 504.285 208.536C503.578 206.742 502.457 205.163 500.768 203.497L500.764 203.494C499.076 201.806 498.264 201.227 496.318 200.218C493.307 198.688 490.906 197.859 484.288 196.099C480.264 195.046 477.633 194.181 476.006 193.189C475.177 192.683 474.568 192.122 474.17 191.449C473.77 190.773 473.619 190.04 473.611 189.251C473.598 188.342 473.781 187.542 474.247 186.845C474.707 186.156 475.399 185.634 476.28 185.194C476.823 184.923 477.279 184.751 477.91 184.656C478.509 184.567 479.255 184.549 480.366 184.549C481.564 184.549 482.31 184.559 482.91 184.669C483.551 184.787 484.006 185.014 484.626 185.356L484.626 185.356L484.634 185.36C486.238 186.273 487.32 187.708 487.632 189.518C487.632 189.52 487.632 189.521 487.633 189.522L487.7 189.889H495.542H503.268V189.019C503.268 188.246 503.056 186.665 502.79 185.529C501.216 179.068 496.726 174.574 489.614 172.549L489.609 172.547L487.497 171.926Z" fill="url(#paint3_linear_11519_3284)" fill-opacity="0.3" stroke="#042341" stroke-width="1.38889"/>
<g filter="url(#filter12_b_11519_3284)">
<path d="M405.418 162.597L480.944 119.666L557 162.862V242.893L481.209 286.619L405.418 242.893V162.597Z" fill="#050A15" fill-opacity="0.2"/>
</g>
<g filter="url(#filter13_b_11519_3284)">
<path d="M415.286 156.987L471.307 125.144C477.283 121.747 484.605 121.746 490.582 125.14L547.126 157.254C553.229 160.72 557 167.198 557 174.217V231.626C557 238.598 553.279 245.04 547.24 248.524L490.958 280.994C484.924 284.475 477.493 284.475 471.46 280.994L415.177 248.524C409.138 245.04 405.418 238.598 405.418 231.626V173.948C405.418 166.931 409.186 160.455 415.286 156.987Z" stroke="#4B88FF" stroke-opacity="0.1" stroke-width="1.40582"/>
</g>
<g filter="url(#filter14_b_11519_3284)">
<path d="M307.746 226.091L380.304 184.848L453.371 226.346V303.231L380.558 345.238L307.746 303.231V226.091Z" fill="url(#paint4_linear_11519_3284)" fill-opacity="0.2"/>
</g>
<g filter="url(#filter15_b_11519_3284)">
<path d="M317.614 220.482L370.667 190.325C376.643 186.929 383.965 186.927 389.942 190.322L443.496 220.738C449.6 224.204 453.371 230.682 453.371 237.701V291.964C453.371 298.936 449.65 305.378 443.611 308.862L390.307 339.614C384.274 343.095 376.842 343.095 370.809 339.614L317.506 308.862C311.467 305.378 307.746 298.936 307.746 291.964V237.442C307.746 230.425 311.514 223.949 317.614 220.482Z" stroke="#4B88FF" stroke-opacity="0.25" stroke-width="1.40582"/>
</g>
<g filter="url(#filter16_b_11519_3284)">
<path d="M142.21 174.759L208.028 137.346C218.124 131.607 230.495 131.605 240.593 137.34L307.091 175.107C317.402 180.964 323.773 191.909 323.773 203.768V270.209C323.773 281.988 317.487 292.872 307.284 298.758L241.126 336.926C230.933 342.807 218.378 342.807 208.184 336.926L142.027 298.758C131.823 292.872 125.537 281.988 125.537 270.209V203.413C125.537 191.558 131.904 180.617 142.21 174.759Z" fill="url(#paint5_linear_11519_3284)" fill-opacity="0.2"/>
<path d="M142.21 174.759L208.028 137.346C218.124 131.607 230.495 131.605 240.593 137.34L307.091 175.107C317.402 180.964 323.773 191.909 323.773 203.768V270.209C323.773 281.988 317.487 292.872 307.284 298.758L241.126 336.926C230.933 342.807 218.378 342.807 208.184 336.926L142.027 298.758C131.823 292.872 125.537 281.988 125.537 270.209V203.413C125.537 191.558 131.904 180.617 142.21 174.759Z" stroke="#4B88FF" stroke-opacity="0.25" stroke-width="1.40582"/>
</g>
<g opacity="0.5">
<circle cx="42.8229" cy="140.229" r="5.97472" fill="url(#paint6_linear_11519_3284)"/>
<circle cx="83.5915" cy="93.838" r="5.97472" fill="#2265C2"/>
<circle cx="125.063" cy="111.41" r="5.97472" fill="#1D5DB7"/>
<circle cx="125.063" cy="111.41" r="5.97472" fill="url(#paint7_linear_11519_3284)"/>
<circle cx="166.535" cy="78.3732" r="5.97472" fill="#1B58AD"/>
<path d="M161.605 70.5152C157.498 72.5508 155.284 77.6578 156.57 82.0863C156.914 83.3163 156.605 84.3862 155.63 85.2119C153.533 86.9883 149.362 90.4376 144.57 94.3359C132.249 104.371 132.071 104.514 131.356 103.871C128.178 100.943 121.464 101.05 118.285 104.086C117.727 104.622 116.894 104.756 116.196 104.421L105.607 99.3357L95.3174 94.3628C94.4061 93.9224 93.7771 93.0535 93.6433 92.0502C92.9648 87.3361 88.9292 83.8719 84.0722 83.8719C81.0009 83.8719 79.2867 84.4433 77.4296 86.0861C73.894 89.1932 73.0726 92.6931 74.5725 98.0143C74.7511 98.5857 72.0012 101.836 60.6087 114.621L48.5415 128.083C47.1808 129.601 45.218 130.438 43.1807 130.37C40.1808 130.263 39.7879 130.335 37.9666 131.263C33.181 133.799 31.2525 139.834 33.681 144.727C36.0738 149.477 42.145 151.477 47.0377 149.084C49.1448 148.048 50.3947 146.798 51.6447 144.441C52.7518 142.334 52.7518 137.87 51.609 135.763C51.1365 134.861 51.2738 133.761 51.9535 133.002L65.0371 118.407L78.3838 103.48C78.8799 102.925 79.6762 102.752 80.3581 103.05C81.0009 103.3 82.608 103.514 83.9294 103.514C86.8578 103.514 89.3935 102.478 91.0363 100.586C91.6896 99.827 92.7705 99.6007 93.6732 100.034L103.536 104.764L112.823 109.219C114.132 109.846 115.023 111.106 115.178 112.55C115.714 117.835 119.5 121.371 124.714 121.371C127.857 121.371 129.535 120.799 131.535 118.978C133.713 117.014 134.785 114.764 134.928 111.871C134.973 110.442 135.637 109.103 136.746 108.202L148.142 98.9429L160.292 89.0378C160.902 88.5403 161.738 88.4214 162.463 88.7289C164.034 89.4074 168.355 89.3717 169.962 88.6932C172.034 87.8361 173.819 86.1933 174.962 84.1576C175.855 82.5148 175.998 81.9077 175.998 79.4078C175.998 77.1578 175.819 76.2293 175.212 75.0865C173.141 71.2295 170.462 69.5866 166.177 69.5866C163.963 69.5866 163.105 69.7652 161.605 70.5152ZM168.32 75.8364C169.462 76.4436 170.462 78.015 170.462 79.2292C170.462 80.5149 169.355 82.4434 168.284 82.9791C164.498 84.9433 160.498 81.1577 162.427 77.4435C163.463 75.4793 166.177 74.7293 168.32 75.8364ZM86.5007 90.5145C88.3935 92.0859 88.4292 94.9073 86.5364 96.7644C83.608 99.6928 78.2867 96.1572 79.8581 92.3716C81.0366 89.586 84.3222 88.6575 86.5007 90.5145ZM127.428 108.228C128.892 109.371 129.535 111.121 129.035 112.657C128.428 114.478 126.821 115.657 124.857 115.657C123.5 115.657 123.071 115.478 122.035 114.442C121 113.407 120.821 112.978 120.821 111.55C120.821 110.121 121 109.693 122.035 108.657C123.071 107.621 123.5 107.443 124.857 107.443C125.928 107.443 126.749 107.693 127.428 108.228ZM44.7521 136.549C45.8949 137.156 46.8948 138.727 46.8948 139.942C46.8948 141.227 45.7877 143.156 44.7163 143.691C40.9307 145.656 36.9309 141.87 38.8594 138.156C39.8951 136.192 42.6093 135.442 44.7521 136.549Z" fill="#1F66C9"/>
<path d="M161.605 70.5152C157.498 72.5508 155.284 77.6578 156.57 82.0863C156.914 83.3163 156.605 84.3862 155.63 85.2119C153.533 86.9883 149.362 90.4376 144.57 94.3359C132.249 104.371 132.071 104.514 131.356 103.871C128.178 100.943 121.464 101.05 118.285 104.086C117.727 104.622 116.894 104.756 116.196 104.421L105.607 99.3357L95.3174 94.3628C94.4061 93.9224 93.7771 93.0535 93.6433 92.0502C92.9648 87.3361 88.9292 83.8719 84.0722 83.8719C81.0009 83.8719 79.2867 84.4433 77.4296 86.0861C73.894 89.1932 73.0726 92.6931 74.5725 98.0143C74.7511 98.5857 72.0012 101.836 60.6087 114.621L48.5415 128.083C47.1808 129.601 45.218 130.438 43.1807 130.37C40.1808 130.263 39.7879 130.335 37.9666 131.263C33.181 133.799 31.2525 139.834 33.681 144.727C36.0738 149.477 42.145 151.477 47.0377 149.084C49.1448 148.048 50.3947 146.798 51.6447 144.441C52.7518 142.334 52.7518 137.87 51.609 135.763C51.1365 134.861 51.2738 133.761 51.9535 133.002L65.0371 118.407L78.3838 103.48C78.8799 102.925 79.6762 102.752 80.3581 103.05C81.0009 103.3 82.608 103.514 83.9294 103.514C86.8578 103.514 89.3935 102.478 91.0363 100.586C91.6896 99.827 92.7705 99.6007 93.6732 100.034L103.536 104.764L112.823 109.219C114.132 109.846 115.023 111.106 115.178 112.55C115.714 117.835 119.5 121.371 124.714 121.371C127.857 121.371 129.535 120.799 131.535 118.978C133.713 117.014 134.785 114.764 134.928 111.871C134.973 110.442 135.637 109.103 136.746 108.202L148.142 98.9429L160.292 89.0378C160.902 88.5403 161.738 88.4214 162.463 88.7289C164.034 89.4074 168.355 89.3717 169.962 88.6932C172.034 87.8361 173.819 86.1933 174.962 84.1576C175.855 82.5148 175.998 81.9077 175.998 79.4078C175.998 77.1578 175.819 76.2293 175.212 75.0865C173.141 71.2295 170.462 69.5866 166.177 69.5866C163.963 69.5866 163.105 69.7652 161.605 70.5152ZM168.32 75.8364C169.462 76.4436 170.462 78.015 170.462 79.2292C170.462 80.5149 169.355 82.4434 168.284 82.9791C164.498 84.9433 160.498 81.1577 162.427 77.4435C163.463 75.4793 166.177 74.7293 168.32 75.8364ZM86.5007 90.5145C88.3935 92.0859 88.4292 94.9073 86.5364 96.7644C83.608 99.6928 78.2867 96.1572 79.8581 92.3716C81.0366 89.586 84.3222 88.6575 86.5007 90.5145ZM127.428 108.228C128.892 109.371 129.535 111.121 129.035 112.657C128.428 114.478 126.821 115.657 124.857 115.657C123.5 115.657 123.071 115.478 122.035 114.442C121 113.407 120.821 112.978 120.821 111.55C120.821 110.121 121 109.693 122.035 108.657C123.071 107.621 123.5 107.443 124.857 107.443C125.928 107.443 126.749 107.693 127.428 108.228ZM44.7521 136.549C45.8949 137.156 46.8948 138.727 46.8948 139.942C46.8948 141.227 45.7877 143.156 44.7163 143.691C40.9307 145.656 36.9309 141.87 38.8594 138.156C39.8951 136.192 42.6093 135.442 44.7521 136.549Z" fill="url(#paint8_radial_11519_3284)" fill-opacity="0.2"/>
<path d="M161.605 70.5152C157.498 72.5508 155.284 77.6578 156.57 82.0863C156.914 83.3163 156.605 84.3862 155.63 85.2119C153.533 86.9883 149.362 90.4376 144.57 94.3359C132.249 104.371 132.071 104.514 131.356 103.871C128.178 100.943 121.464 101.05 118.285 104.086C117.727 104.622 116.894 104.756 116.196 104.421L105.607 99.3357L95.3174 94.3628C94.4061 93.9224 93.7771 93.0535 93.6433 92.0502C92.9648 87.3361 88.9292 83.8719 84.0722 83.8719C81.0009 83.8719 79.2867 84.4433 77.4296 86.0861C73.894 89.1932 73.0726 92.6931 74.5725 98.0143C74.7511 98.5857 72.0012 101.836 60.6087 114.621L48.5415 128.083C47.1808 129.601 45.218 130.438 43.1807 130.37C40.1808 130.263 39.7879 130.335 37.9666 131.263C33.181 133.799 31.2525 139.834 33.681 144.727C36.0738 149.477 42.145 151.477 47.0377 149.084C49.1448 148.048 50.3947 146.798 51.6447 144.441C52.7518 142.334 52.7518 137.87 51.609 135.763C51.1365 134.861 51.2738 133.761 51.9535 133.002L65.0371 118.407L78.3838 103.48C78.8799 102.925 79.6762 102.752 80.3581 103.05C81.0009 103.3 82.608 103.514 83.9294 103.514C86.8578 103.514 89.3935 102.478 91.0363 100.586C91.6896 99.827 92.7705 99.6007 93.6732 100.034L103.536 104.764L112.823 109.219C114.132 109.846 115.023 111.106 115.178 112.55C115.714 117.835 119.5 121.371 124.714 121.371C127.857 121.371 129.535 120.799 131.535 118.978C133.713 117.014 134.785 114.764 134.928 111.871C134.973 110.442 135.637 109.103 136.746 108.202L148.142 98.9429L160.292 89.0378C160.902 88.5403 161.738 88.4214 162.463 88.7289C164.034 89.4074 168.355 89.3717 169.962 88.6932C172.034 87.8361 173.819 86.1933 174.962 84.1576C175.855 82.5148 175.998 81.9077 175.998 79.4078C175.998 77.1578 175.819 76.2293 175.212 75.0865C173.141 71.2295 170.462 69.5866 166.177 69.5866C163.963 69.5866 163.105 69.7652 161.605 70.5152ZM168.32 75.8364C169.462 76.4436 170.462 78.015 170.462 79.2292C170.462 80.5149 169.355 82.4434 168.284 82.9791C164.498 84.9433 160.498 81.1577 162.427 77.4435C163.463 75.4793 166.177 74.7293 168.32 75.8364ZM86.5007 90.5145C88.3935 92.0859 88.4292 94.9073 86.5364 96.7644C83.608 99.6928 78.2867 96.1572 79.8581 92.3716C81.0366 89.586 84.3222 88.6575 86.5007 90.5145ZM127.428 108.228C128.892 109.371 129.535 111.121 129.035 112.657C128.428 114.478 126.821 115.657 124.857 115.657C123.5 115.657 123.071 115.478 122.035 114.442C121 113.407 120.821 112.978 120.821 111.55C120.821 110.121 121 109.693 122.035 108.657C123.071 107.621 123.5 107.443 124.857 107.443C125.928 107.443 126.749 107.693 127.428 108.228ZM44.7521 136.549C45.8949 137.156 46.8948 138.727 46.8948 139.942C46.8948 141.227 45.7877 143.156 44.7163 143.691C40.9307 145.656 36.9309 141.87 38.8594 138.156C39.8951 136.192 42.6093 135.442 44.7521 136.549Z" fill="url(#paint9_radial_11519_3284)" fill-opacity="0.2"/>
</g>
<path d="M282.866 391.162C282.866 391.587 283.009 391.728 283.45 391.728H365.153C368.625 391.728 370.221 392.305 370.943 393.31C371.656 394.031 372.382 395.471 372.382 398.922V441.345C372.382 446.955 370.791 448.398 365.153 448.398H283.45C283.009 448.398 282.866 448.541 282.866 448.978V464.794C282.866 468.102 285.183 470.409 288.514 470.409H368.482C387.007 470.409 396.269 461.206 396.269 442.646V397.482C396.269 378.935 387.007 369.73 368.482 369.73H288.514C287.349 369.73 286.338 370.015 285.327 370.736L284.176 371.738C283.735 372.163 283.45 372.742 283.306 373.181C283.151 373.323 283.151 373.464 283.151 373.748C283.009 374.763 282.866 375.188 282.866 375.329V391.162Z" fill="url(#paint10_linear_11519_3284)" fill-opacity="0.3"/>
<path d="M282.866 391.162C282.866 391.587 283.009 391.728 283.45 391.728H365.153C368.625 391.728 370.221 392.305 370.943 393.31C371.656 394.031 372.382 395.471 372.382 398.922V441.345C372.382 446.955 370.791 448.398 365.153 448.398H283.45C283.009 448.398 282.866 448.541 282.866 448.978V464.794C282.866 468.102 285.183 470.409 288.514 470.409H368.482C387.007 470.409 396.269 461.206 396.269 442.646V397.482C396.269 378.935 387.007 369.73 368.482 369.73H288.514C287.349 369.73 286.338 370.015 285.327 370.736L284.176 371.738C283.735 372.163 283.45 372.742 283.306 373.181C283.151 373.323 283.151 373.464 283.151 373.748C283.009 374.763 282.866 375.188 282.866 375.329V391.162Z" fill="url(#paint11_linear_11519_3284)" fill-opacity="0.3"/>
<g opacity="0.9" filter="url(#filter17_d_11519_3284)">
<path fill-rule="evenodd" clip-rule="evenodd" d="M195.686 256.662C198.892 250.151 205.055 245.404 212.237 243.888C214.35 243.441 215.592 243.391 224.912 243.391C236.219 243.366 237.462 243.466 241.314 244.833C247.353 246.97 253.193 252.686 255.38 258.625C255.742 259.61 256.01 260.328 256.21 261.065C256.792 263.211 256.797 265.513 256.871 275.003L256.97 286.857L255.281 287.627C250.459 289.814 243.973 291.405 235.946 292.349C232.069 292.822 220.985 292.747 216.686 292.25C208.783 291.281 202.545 289.988 195.512 287.826L193.076 287.081V277.09C193.076 263.745 193.399 261.334 195.686 256.662ZM247.998 224.902C247.998 226.492 247.104 230.22 246.259 232.233C245.314 234.519 243.923 236.731 242.233 238.719C241.537 239.515 241.015 240.21 241.065 240.235C241.115 240.285 242.084 240.683 243.202 241.13C250.608 244.038 256.548 250.101 259.356 257.557C260.723 261.185 260.946 262.652 261.095 268.293L261.22 273.487L263.879 273.313C271.856 272.816 279.809 271.076 285.724 268.542L287.786 267.647L287.687 255.569C287.684 255.187 287.681 254.816 287.679 254.457C287.613 245.666 287.596 243.449 286.988 241.408C286.782 240.72 286.509 240.052 286.144 239.158C286.113 239.08 286.08 239 286.047 238.918C283.338 232.233 277.299 226.89 270.34 224.976C267.482 224.206 264.401 223.982 255.901 223.982H247.998V224.902ZM162.235 238.918C165.491 230.916 173.17 225.175 181.818 224.256C184.179 224.007 200.656 223.957 201.526 224.206C202.097 224.355 202.172 224.529 202.346 226.343C202.743 230.419 204.98 235.364 207.788 238.496C208.608 239.415 209.255 240.21 209.205 240.26C209.155 240.31 208.335 240.633 207.366 241.006C198.867 244.187 192.281 251.419 189.97 260.067C189.224 262.85 188.876 266.205 188.851 270.405C188.851 273.214 188.802 273.462 188.429 273.363C188.18 273.288 186.913 273.164 185.62 273.065C180.203 272.692 171.679 271.076 164.67 269.088C162.508 268.467 160.669 267.97 160.62 267.97C160.545 267.97 160.545 262.453 160.595 255.718L160.603 254.594C160.669 245.664 160.685 243.439 161.298 241.392C161.502 240.713 161.771 240.053 162.13 239.175L162.13 239.175L162.235 238.918ZM220.413 203.961C211.019 206.372 204.93 215.716 206.595 225.21C208.061 233.634 214.448 239.698 222.948 240.742C231.745 241.811 240.17 236.393 242.928 227.918C243.724 225.483 243.997 221.333 243.55 218.698C242.282 211.442 236.368 205.328 229.136 203.787C226.75 203.29 222.674 203.365 220.413 203.961ZM174.164 198.197C176.003 191.039 181.868 185.622 189.15 184.305C190.939 184.006 195.338 184.205 197.177 184.677C199.389 185.274 202.47 186.864 204.31 188.405C208.311 191.686 210.821 196.755 211.02 201.9L211.094 203.838L209.205 205.702C206.074 208.759 203.937 212.462 202.893 216.587L202.346 218.724L200.507 219.669C191.337 224.316 179.582 220.191 175.307 210.846C173.642 207.168 173.17 202.024 174.164 198.197ZM241.413 190.965C243.998 187.685 248.422 185.1 252.771 184.305C254.56 184.007 258.959 184.205 260.798 184.678C263.01 185.274 266.091 186.865 267.93 188.405C273.845 193.276 276.131 201.279 273.721 208.834C272.155 213.754 268.154 218.078 263.233 220.166C259.307 221.831 254.212 222.03 250.236 220.688L250.091 220.639L249.861 220.561L249.861 220.561C249.06 220.292 248.613 220.142 248.316 219.843C247.942 219.465 247.807 218.85 247.503 217.457C247.465 217.28 247.423 217.09 247.378 216.886C246.259 211.965 242.855 206.796 238.705 203.764L237.213 202.695L237.288 201.303C237.437 198.023 239.077 193.922 241.413 190.965Z" fill="#1269E8"/>
<path fill-rule="evenodd" clip-rule="evenodd" d="M195.686 256.662C198.892 250.151 205.055 245.404 212.237 243.888C214.35 243.441 215.592 243.391 224.912 243.391C236.219 243.366 237.462 243.466 241.314 244.833C247.353 246.97 253.193 252.686 255.38 258.625C255.742 259.61 256.01 260.328 256.21 261.065C256.792 263.211 256.797 265.513 256.871 275.003L256.97 286.857L255.281 287.627C250.459 289.814 243.973 291.405 235.946 292.349C232.069 292.822 220.985 292.747 216.686 292.25C208.783 291.281 202.545 289.988 195.512 287.826L193.076 287.081V277.09C193.076 263.745 193.399 261.334 195.686 256.662ZM247.998 224.902C247.998 226.492 247.104 230.22 246.259 232.233C245.314 234.519 243.923 236.731 242.233 238.719C241.537 239.515 241.015 240.21 241.065 240.235C241.115 240.285 242.084 240.683 243.202 241.13C250.608 244.038 256.548 250.101 259.356 257.557C260.723 261.185 260.946 262.652 261.095 268.293L261.22 273.487L263.879 273.313C271.856 272.816 279.809 271.076 285.724 268.542L287.786 267.647L287.687 255.569C287.684 255.187 287.681 254.816 287.679 254.457C287.613 245.666 287.596 243.449 286.988 241.408C286.782 240.72 286.509 240.052 286.144 239.158C286.113 239.08 286.08 239 286.047 238.918C283.338 232.233 277.299 226.89 270.34 224.976C267.482 224.206 264.401 223.982 255.901 223.982H247.998V224.902ZM162.235 238.918C165.491 230.916 173.17 225.175 181.818 224.256C184.179 224.007 200.656 223.957 201.526 224.206C202.097 224.355 202.172 224.529 202.346 226.343C202.743 230.419 204.98 235.364 207.788 238.496C208.608 239.415 209.255 240.21 209.205 240.26C209.155 240.31 208.335 240.633 207.366 241.006C198.867 244.187 192.281 251.419 189.97 260.067C189.224 262.85 188.876 266.205 188.851 270.405C188.851 273.214 188.802 273.462 188.429 273.363C188.18 273.288 186.913 273.164 185.62 273.065C180.203 272.692 171.679 271.076 164.67 269.088C162.508 268.467 160.669 267.97 160.62 267.97C160.545 267.97 160.545 262.453 160.595 255.718L160.603 254.594C160.669 245.664 160.685 243.439 161.298 241.392C161.502 240.713 161.771 240.053 162.13 239.175L162.13 239.175L162.235 238.918ZM220.413 203.961C211.019 206.372 204.93 215.716 206.595 225.21C208.061 233.634 214.448 239.698 222.948 240.742C231.745 241.811 240.17 236.393 242.928 227.918C243.724 225.483 243.997 221.333 243.55 218.698C242.282 211.442 236.368 205.328 229.136 203.787C226.75 203.29 222.674 203.365 220.413 203.961ZM174.164 198.197C176.003 191.039 181.868 185.622 189.15 184.305C190.939 184.006 195.338 184.205 197.177 184.677C199.389 185.274 202.47 186.864 204.31 188.405C208.311 191.686 210.821 196.755 211.02 201.9L211.094 203.838L209.205 205.702C206.074 208.759 203.937 212.462 202.893 216.587L202.346 218.724L200.507 219.669C191.337 224.316 179.582 220.191 175.307 210.846C173.642 207.168 173.17 202.024 174.164 198.197ZM241.413 190.965C243.998 187.685 248.422 185.1 252.771 184.305C254.56 184.007 258.959 184.205 260.798 184.678C263.01 185.274 266.091 186.865 267.93 188.405C273.845 193.276 276.131 201.279 273.721 208.834C272.155 213.754 268.154 218.078 263.233 220.166C259.307 221.831 254.212 222.03 250.236 220.688L250.091 220.639L249.861 220.561L249.861 220.561C249.06 220.292 248.613 220.142 248.316 219.843C247.942 219.465 247.807 218.85 247.503 217.457C247.465 217.28 247.423 217.09 247.378 216.886C246.259 211.965 242.855 206.796 238.705 203.764L237.213 202.695L237.288 201.303C237.437 198.023 239.077 193.922 241.413 190.965Z" fill="url(#paint12_radial_11519_3284)" fill-opacity="0.2"/>
<path fill-rule="evenodd" clip-rule="evenodd" d="M195.686 256.662C198.892 250.151 205.055 245.404 212.237 243.888C214.35 243.441 215.592 243.391 224.912 243.391C236.219 243.366 237.462 243.466 241.314 244.833C247.353 246.97 253.193 252.686 255.38 258.625C255.742 259.61 256.01 260.328 256.21 261.065C256.792 263.211 256.797 265.513 256.871 275.003L256.97 286.857L255.281 287.627C250.459 289.814 243.973 291.405 235.946 292.349C232.069 292.822 220.985 292.747 216.686 292.25C208.783 291.281 202.545 289.988 195.512 287.826L193.076 287.081V277.09C193.076 263.745 193.399 261.334 195.686 256.662ZM247.998 224.902C247.998 226.492 247.104 230.22 246.259 232.233C245.314 234.519 243.923 236.731 242.233 238.719C241.537 239.515 241.015 240.21 241.065 240.235C241.115 240.285 242.084 240.683 243.202 241.13C250.608 244.038 256.548 250.101 259.356 257.557C260.723 261.185 260.946 262.652 261.095 268.293L261.22 273.487L263.879 273.313C271.856 272.816 279.809 271.076 285.724 268.542L287.786 267.647L287.687 255.569C287.684 255.187 287.681 254.816 287.679 254.457C287.613 245.666 287.596 243.449 286.988 241.408C286.782 240.72 286.509 240.052 286.144 239.158C286.113 239.08 286.08 239 286.047 238.918C283.338 232.233 277.299 226.89 270.34 224.976C267.482 224.206 264.401 223.982 255.901 223.982H247.998V224.902ZM162.235 238.918C165.491 230.916 173.17 225.175 181.818 224.256C184.179 224.007 200.656 223.957 201.526 224.206C202.097 224.355 202.172 224.529 202.346 226.343C202.743 230.419 204.98 235.364 207.788 238.496C208.608 239.415 209.255 240.21 209.205 240.26C209.155 240.31 208.335 240.633 207.366 241.006C198.867 244.187 192.281 251.419 189.97 260.067C189.224 262.85 188.876 266.205 188.851 270.405C188.851 273.214 188.802 273.462 188.429 273.363C188.18 273.288 186.913 273.164 185.62 273.065C180.203 272.692 171.679 271.076 164.67 269.088C162.508 268.467 160.669 267.97 160.62 267.97C160.545 267.97 160.545 262.453 160.595 255.718L160.603 254.594C160.669 245.664 160.685 243.439 161.298 241.392C161.502 240.713 161.771 240.053 162.13 239.175L162.13 239.175L162.235 238.918ZM220.413 203.961C211.019 206.372 204.93 215.716 206.595 225.21C208.061 233.634 214.448 239.698 222.948 240.742C231.745 241.811 240.17 236.393 242.928 227.918C243.724 225.483 243.997 221.333 243.55 218.698C242.282 211.442 236.368 205.328 229.136 203.787C226.75 203.29 222.674 203.365 220.413 203.961ZM174.164 198.197C176.003 191.039 181.868 185.622 189.15 184.305C190.939 184.006 195.338 184.205 197.177 184.677C199.389 185.274 202.47 186.864 204.31 188.405C208.311 191.686 210.821 196.755 211.02 201.9L211.094 203.838L209.205 205.702C206.074 208.759 203.937 212.462 202.893 216.587L202.346 218.724L200.507 219.669C191.337 224.316 179.582 220.191 175.307 210.846C173.642 207.168 173.17 202.024 174.164 198.197ZM241.413 190.965C243.998 187.685 248.422 185.1 252.771 184.305C254.56 184.007 258.959 184.205 260.798 184.678C263.01 185.274 266.091 186.865 267.93 188.405C273.845 193.276 276.131 201.279 273.721 208.834C272.155 213.754 268.154 218.078 263.233 220.166C259.307 221.831 254.212 222.03 250.236 220.688L250.091 220.639L249.861 220.561L249.861 220.561C249.06 220.292 248.613 220.142 248.316 219.843C247.942 219.465 247.807 218.85 247.503 217.457C247.465 217.28 247.423 217.09 247.378 216.886C246.259 211.965 242.855 206.796 238.705 203.764L237.213 202.695L237.288 201.303C237.437 198.023 239.077 193.922 241.413 190.965Z" fill="url(#paint13_radial_11519_3284)" fill-opacity="0.2"/>
</g>
<g opacity="0.9">
<path d="M378.465 227.194C376.813 227.74 377.132 227.433 362.035 242.504C354.093 250.433 347.404 257.229 347.15 257.602C346.138 259.108 345.845 261.4 346.418 263.132C347.284 265.704 349.336 267.223 352.281 267.463L353.333 267.556L353.373 278.429C353.413 289.089 353.427 289.316 353.693 290.036C354.693 292.674 356.358 294.3 358.797 295.019C359.423 295.206 360.422 295.232 365.926 295.232C372.082 295.232 372.349 295.219 372.775 294.966C373.015 294.819 373.321 294.513 373.468 294.273C373.721 293.847 373.734 293.58 373.734 285.372C373.734 279.602 373.788 276.737 373.881 276.377C374.107 275.578 374.734 274.765 375.44 274.352L376.066 273.979H380.277H384.488L385.141 274.378C385.874 274.831 386.567 275.857 386.713 276.67C386.753 276.95 386.793 280.908 386.793 285.478C386.793 294.473 386.766 294.126 387.526 294.833L387.886 295.166L394.295 295.206C398.586 295.232 400.945 295.192 401.411 295.099C403.25 294.713 405.382 293.087 406.221 291.435C407.154 289.569 407.101 290.329 407.154 278.363L407.194 267.543L408.287 267.449C410.965 267.223 412.724 266.05 413.83 263.785C414.296 262.799 414.31 262.759 414.31 261.12C414.31 259.467 414.31 259.441 413.803 258.388C413.297 257.322 413.284 257.309 398.679 242.704C384.061 228.086 384.061 228.086 382.995 227.58C381.983 227.1 381.849 227.074 380.464 227.047C379.518 227.02 378.811 227.074 378.465 227.194Z" fill="#1269E8"/>
<path d="M378.465 227.194C376.813 227.74 377.132 227.433 362.035 242.504C354.093 250.433 347.404 257.229 347.15 257.602C346.138 259.108 345.845 261.4 346.418 263.132C347.284 265.704 349.336 267.223 352.281 267.463L353.333 267.556L353.373 278.429C353.413 289.089 353.427 289.316 353.693 290.036C354.693 292.674 356.358 294.3 358.797 295.019C359.423 295.206 360.422 295.232 365.926 295.232C372.082 295.232 372.349 295.219 372.775 294.966C373.015 294.819 373.321 294.513 373.468 294.273C373.721 293.847 373.734 293.58 373.734 285.372C373.734 279.602 373.788 276.737 373.881 276.377C374.107 275.578 374.734 274.765 375.44 274.352L376.066 273.979H380.277H384.488L385.141 274.378C385.874 274.831 386.567 275.857 386.713 276.67C386.753 276.95 386.793 280.908 386.793 285.478C386.793 294.473 386.766 294.126 387.526 294.833L387.886 295.166L394.295 295.206C398.586 295.232 400.945 295.192 401.411 295.099C403.25 294.713 405.382 293.087 406.221 291.435C407.154 289.569 407.101 290.329 407.154 278.363L407.194 267.543L408.287 267.449C410.965 267.223 412.724 266.05 413.83 263.785C414.296 262.799 414.31 262.759 414.31 261.12C414.31 259.467 414.31 259.441 413.803 258.388C413.297 257.322 413.284 257.309 398.679 242.704C384.061 228.086 384.061 228.086 382.995 227.58C381.983 227.1 381.849 227.074 380.464 227.047C379.518 227.02 378.811 227.074 378.465 227.194Z" fill="url(#paint14_radial_11519_3284)" fill-opacity="0.2"/>
<path d="M378.465 227.194C376.813 227.74 377.132 227.433 362.035 242.504C354.093 250.433 347.404 257.229 347.15 257.602C346.138 259.108 345.845 261.4 346.418 263.132C347.284 265.704 349.336 267.223 352.281 267.463L353.333 267.556L353.373 278.429C353.413 289.089 353.427 289.316 353.693 290.036C354.693 292.674 356.358 294.3 358.797 295.019C359.423 295.206 360.422 295.232 365.926 295.232C372.082 295.232 372.349 295.219 372.775 294.966C373.015 294.819 373.321 294.513 373.468 294.273C373.721 293.847 373.734 293.58 373.734 285.372C373.734 279.602 373.788 276.737 373.881 276.377C374.107 275.578 374.734 274.765 375.44 274.352L376.066 273.979H380.277H384.488L385.141 274.378C385.874 274.831 386.567 275.857 386.713 276.67C386.753 276.95 386.793 280.908 386.793 285.478C386.793 294.473 386.766 294.126 387.526 294.833L387.886 295.166L394.295 295.206C398.586 295.232 400.945 295.192 401.411 295.099C403.25 294.713 405.382 293.087 406.221 291.435C407.154 289.569 407.101 290.329 407.154 278.363L407.194 267.543L408.287 267.449C410.965 267.223 412.724 266.05 413.83 263.785C414.296 262.799 414.31 262.759 414.31 261.12C414.31 259.467 414.31 259.441 413.803 258.388C413.297 257.322 413.284 257.309 398.679 242.704C384.061 228.086 384.061 228.086 382.995 227.58C381.983 227.1 381.849 227.074 380.464 227.047C379.518 227.02 378.811 227.074 378.465 227.194Z" fill="url(#paint15_radial_11519_3284)" fill-opacity="0.2"/>
</g>
<defs>
<filter id="filter0_b_11519_3284" x="-22.6538" y="-23.6538" width="253.26" height="274.144" filterUnits="userSpaceOnUse" color-interpolation-filters="sRGB">
<feFlood flood-opacity="0" result="BackgroundImageFix"/>
<feGaussianBlur in="BackgroundImageFix" stdDeviation="11.8269"/>
<feComposite in2="SourceAlpha" operator="in" result="effect1_backgroundBlur_11519_3284"/>
<feBlend mode="normal" in="SourceGraphic" in2="effect1_backgroundBlur_11519_3284" result="shape"/>
</filter>
<filter id="filter1_b_11519_3284" x="-23.2275" y="-20.4897" width="254.407" height="267.706" filterUnits="userSpaceOnUse" color-interpolation-filters="sRGB">
<feFlood flood-opacity="0" result="BackgroundImageFix"/>
<feGaussianBlur in="BackgroundImageFix" stdDeviation="11.8269"/>
<feComposite in2="SourceAlpha" operator="in" result="effect1_backgroundBlur_11519_3284"/>
<feBlend mode="normal" in="SourceGraphic" in2="effect1_backgroundBlur_11519_3284" result="shape"/>
</filter>
<filter id="filter2_b_11519_3284" x="41.1595" y="42.996" width="366.73" height="389.735" filterUnits="userSpaceOnUse" color-interpolation-filters="sRGB">
<feFlood flood-opacity="0" result="BackgroundImageFix"/>
<feGaussianBlur in="BackgroundImageFix" stdDeviation="9.26663"/>
<feComposite in2="SourceAlpha" operator="in" result="effect1_backgroundBlur_11519_3284"/>
<feBlend mode="normal" in="SourceGraphic" in2="effect1_backgroundBlur_11519_3284" result="shape"/>
</filter>
<filter id="filter3_b_11519_3284" x="3.20251" y="0.822203" width="442.644" height="473.379" filterUnits="userSpaceOnUse" color-interpolation-filters="sRGB">
<feFlood flood-opacity="0" result="BackgroundImageFix"/>
<feGaussianBlur in="BackgroundImageFix" stdDeviation="9.26663"/>
<feComposite in2="SourceAlpha" operator="in" result="effect1_backgroundBlur_11519_3284"/>
<feBlend mode="normal" in="SourceGraphic" in2="effect1_backgroundBlur_11519_3284" result="shape"/>
</filter>
<filter id="filter4_b_11519_3284" x="84.7398" y="90.787" width="279.893" height="293.947" filterUnits="userSpaceOnUse" color-interpolation-filters="sRGB">
<feFlood flood-opacity="0" result="BackgroundImageFix"/>
<feGaussianBlur in="BackgroundImageFix" stdDeviation="9.26663"/>
<feComposite in2="SourceAlpha" operator="in" result="effect1_backgroundBlur_11519_3284"/>
<feBlend mode="normal" in="SourceGraphic" in2="effect1_backgroundBlur_11519_3284" result="shape"/>
</filter>
<filter id="filter5_b_11519_3284" x="182.979" y="250.582" width="313.073" height="335.184" filterUnits="userSpaceOnUse" color-interpolation-filters="sRGB">
<feFlood flood-opacity="0" result="BackgroundImageFix"/>
<feGaussianBlur in="BackgroundImageFix" stdDeviation="9.26663"/>
<feComposite in2="SourceAlpha" operator="in" result="effect1_backgroundBlur_11519_3284"/>
<feBlend mode="normal" in="SourceGraphic" in2="effect1_backgroundBlur_11519_3284" result="shape"/>
</filter>
<filter id="filter6_b_11519_3284" x="152.219" y="221.648" width="374.462" height="403.662" filterUnits="userSpaceOnUse" color-interpolation-filters="sRGB">
<feFlood flood-opacity="0" result="BackgroundImageFix"/>
<feGaussianBlur in="BackgroundImageFix" stdDeviation="9.26663"/>
<feComposite in2="SourceAlpha" operator="in" result="effect1_backgroundBlur_11519_3284"/>
<feBlend mode="normal" in="SourceGraphic" in2="effect1_backgroundBlur_11519_3284" result="shape"/>
</filter>
<filter id="filter7_b_11519_3284" x="28.4813" y="381.989" width="308.722" height="320.703" filterUnits="userSpaceOnUse" color-interpolation-filters="sRGB">
<feFlood flood-opacity="0" result="BackgroundImageFix"/>
<feGaussianBlur in="BackgroundImageFix" stdDeviation="12.3583"/>
<feComposite in2="SourceAlpha" operator="in" result="effect1_backgroundBlur_11519_3284"/>
<feBlend mode="normal" in="SourceGraphic" in2="effect1_backgroundBlur_11519_3284" result="shape"/>
</filter>
<filter id="filter8_b_11519_3284" x="61.6619" y="410.809" width="244.172" height="263.919" filterUnits="userSpaceOnUse" color-interpolation-filters="sRGB">
<feFlood flood-opacity="0" result="BackgroundImageFix"/>
<feGaussianBlur in="BackgroundImageFix" stdDeviation="12.3583"/>
<feComposite in2="SourceAlpha" operator="in" result="effect1_backgroundBlur_11519_3284"/>
<feBlend mode="normal" in="SourceGraphic" in2="effect1_backgroundBlur_11519_3284" result="shape"/>
</filter>
<filter id="filter9_b_11519_3284" x="60.8465" y="413.901" width="245.803" height="257.623" filterUnits="userSpaceOnUse" color-interpolation-filters="sRGB">
<feFlood flood-opacity="0" result="BackgroundImageFix"/>
<feGaussianBlur in="BackgroundImageFix" stdDeviation="12.3583"/>
<feComposite in2="SourceAlpha" operator="in" result="effect1_backgroundBlur_11519_3284"/>
<feBlend mode="normal" in="SourceGraphic" in2="effect1_backgroundBlur_11519_3284" result="shape"/>
</filter>
<filter id="filter10_b_11519_3284" x="207.733" y="276.574" width="264.189" height="287.219" filterUnits="userSpaceOnUse" color-interpolation-filters="sRGB">
<feFlood flood-opacity="0" result="BackgroundImageFix"/>
<feGaussianBlur in="BackgroundImageFix" stdDeviation="9.26663"/>
<feComposite in2="SourceAlpha" operator="in" result="effect1_backgroundBlur_11519_3284"/>
<feBlend mode="normal" in="SourceGraphic" in2="effect1_backgroundBlur_11519_3284" result="shape"/>
</filter>
<filter id="filter11_b_11519_3284" x="207.03" y="278.801" width="265.594" height="282.682" filterUnits="userSpaceOnUse" color-interpolation-filters="sRGB">
<feFlood flood-opacity="0" result="BackgroundImageFix"/>
<feGaussianBlur in="BackgroundImageFix" stdDeviation="9.26663"/>
<feComposite in2="SourceAlpha" operator="in" result="effect1_backgroundBlur_11519_3284"/>
<feBlend mode="normal" in="SourceGraphic" in2="effect1_backgroundBlur_11519_3284" result="shape"/>
</filter>
<filter id="filter12_b_11519_3284" x="386.884" y="101.133" width="188.649" height="204.02" filterUnits="userSpaceOnUse" color-interpolation-filters="sRGB">
<feFlood flood-opacity="0" result="BackgroundImageFix"/>
<feGaussianBlur in="BackgroundImageFix" stdDeviation="9.26663"/>
<feComposite in2="SourceAlpha" operator="in" result="effect1_backgroundBlur_11519_3284"/>
<feBlend mode="normal" in="SourceGraphic" in2="effect1_backgroundBlur_11519_3284" result="shape"/>
</filter>
<filter id="filter13_b_11519_3284" x="386.181" y="103.359" width="190.055" height="199.483" filterUnits="userSpaceOnUse" color-interpolation-filters="sRGB">
<feFlood flood-opacity="0" result="BackgroundImageFix"/>
<feGaussianBlur in="BackgroundImageFix" stdDeviation="9.26663"/>
<feComposite in2="SourceAlpha" operator="in" result="effect1_backgroundBlur_11519_3284"/>
<feBlend mode="normal" in="SourceGraphic" in2="effect1_backgroundBlur_11519_3284" result="shape"/>
</filter>
<filter id="filter14_b_11519_3284" x="289.213" y="166.314" width="182.691" height="197.457" filterUnits="userSpaceOnUse" color-interpolation-filters="sRGB">
<feFlood flood-opacity="0" result="BackgroundImageFix"/>
<feGaussianBlur in="BackgroundImageFix" stdDeviation="9.26663"/>
<feComposite in2="SourceAlpha" operator="in" result="effect1_backgroundBlur_11519_3284"/>
<feBlend mode="normal" in="SourceGraphic" in2="effect1_backgroundBlur_11519_3284" result="shape"/>
</filter>
<filter id="filter15_b_11519_3284" x="288.51" y="168.541" width="184.097" height="192.92" filterUnits="userSpaceOnUse" color-interpolation-filters="sRGB">
<feFlood flood-opacity="0" result="BackgroundImageFix"/>
<feGaussianBlur in="BackgroundImageFix" stdDeviation="9.26663"/>
<feComposite in2="SourceAlpha" operator="in" result="effect1_backgroundBlur_11519_3284"/>
<feBlend mode="normal" in="SourceGraphic" in2="effect1_backgroundBlur_11519_3284" result="shape"/>
</filter>
<filter id="filter16_b_11519_3284" x="106.301" y="113.805" width="236.708" height="246.768" filterUnits="userSpaceOnUse" color-interpolation-filters="sRGB">
<feFlood flood-opacity="0" result="BackgroundImageFix"/>
<feGaussianBlur in="BackgroundImageFix" stdDeviation="9.26663"/>
<feComposite in2="SourceAlpha" operator="in" result="effect1_backgroundBlur_11519_3284"/>
<feBlend mode="normal" in="SourceGraphic" in2="effect1_backgroundBlur_11519_3284" result="shape"/>
</filter>
<filter id="filter17_d_11519_3284" x="145.096" y="172.918" width="158.154" height="139.43" filterUnits="userSpaceOnUse" color-interpolation-filters="sRGB">
<feFlood flood-opacity="0" result="BackgroundImageFix"/>
<feColorMatrix in="SourceAlpha" type="matrix" values="0 0 0 0 0 0 0 0 0 0 0 0 0 0 0 0 0 0 127 0" result="hardAlpha"/>
<feOffset dy="4.21745"/>
<feGaussianBlur stdDeviation="7.73199"/>
<feComposite in2="hardAlpha" operator="out"/>
<feColorMatrix type="matrix" values="0 0 0 0 0.425 0 0 0 0 0.660655 0 0 0 0 1 0 0 0 0.25 0"/>
<feBlend mode="normal" in2="BackgroundImageFix" result="effect1_dropShadow_11519_3284"/>
<feBlend mode="normal" in="SourceGraphic" in2="effect1_dropShadow_11519_3284" result="shape"/>
</filter>
<linearGradient id="paint0_linear_11519_3284" x1="103.976" y1="0" x2="103.976" y2="226.835" gradientUnits="userSpaceOnUse">
<stop stop-color="#0D6EFD"/>
<stop offset="1" stop-color="#6CA7FF"/>
</linearGradient>
<linearGradient id="paint1_linear_11519_3284" x1="183.748" y1="435.525" x2="183.748" y2="650.011" gradientUnits="userSpaceOnUse">
<stop stop-color="#0D6EFD"/>
<stop offset="1" stop-color="#6CA7FF"/>
</linearGradient>
<linearGradient id="paint2_linear_11519_3284" x1="183.756" y1="508.204" x2="205.898" y2="624.885" gradientUnits="userSpaceOnUse">
<stop stop-color="#0D6EFD"/>
<stop offset="1" stop-color="#0D6EFD" stop-opacity="0"/>
</linearGradient>
<linearGradient id="paint3_linear_11519_3284" x1="481" y1="172.987" x2="492.806" y2="268.125" gradientUnits="userSpaceOnUse">
<stop stop-color="#0D6EFD"/>
<stop offset="1" stop-color="#0D6EFD" stop-opacity="0"/>
</linearGradient>
<linearGradient id="paint4_linear_11519_3284" x1="380.558" y1="184.848" x2="380.558" y2="345.238" gradientUnits="userSpaceOnUse">
<stop stop-color="#0D6EFD"/>
<stop offset="1" stop-color="#6BA7FF"/>
</linearGradient>
<linearGradient id="paint5_linear_11519_3284" x1="224.655" y1="128.092" x2="224.655" y2="346.429" gradientUnits="userSpaceOnUse">
<stop stop-color="#0D6EFD"/>
<stop offset="1" stop-color="#6CA7FF"/>
</linearGradient>
<linearGradient id="paint6_linear_11519_3284" x1="40.0113" y1="142.337" x2="46.3375" y2="136.714" gradientUnits="userSpaceOnUse">
<stop stop-color="#2D6BC3"/>
<stop offset="1" stop-color="#3673C7"/>
</linearGradient>
<linearGradient id="paint7_linear_11519_3284" x1="119.088" y1="110.707" x2="129.632" y2="114.573" gradientUnits="userSpaceOnUse">
<stop stop-color="#1F63C2"/>
<stop offset="1" stop-color="#1F63C2" stop-opacity="0"/>
</linearGradient>
<radialGradient id="paint8_radial_11519_3284" cx="0" cy="0" r="1" gradientUnits="userSpaceOnUse" gradientTransform="translate(158.451 100.866) rotate(-169.38) scale(45.77 81.5034)">
<stop/>
<stop offset="1" stop-opacity="0"/>
</radialGradient>
<radialGradient id="paint9_radial_11519_3284" cx="0" cy="0" r="1" gradientUnits="userSpaceOnUse" gradientTransform="translate(58.9898 127.576) rotate(-43.2938) scale(58.427 104.042)">
<stop stop-color="white"/>
<stop offset="1" stop-opacity="0"/>
</radialGradient>
<linearGradient id="paint10_linear_11519_3284" x1="335.367" y1="446.154" x2="349.488" y2="338.291" gradientUnits="userSpaceOnUse">
<stop stop-color="#0D6EFD"/>
<stop offset="1" stop-color="#0D6EFD" stop-opacity="0"/>
</linearGradient>
<linearGradient id="paint11_linear_11519_3284" x1="335.367" y1="446.154" x2="349.488" y2="338.291" gradientUnits="userSpaceOnUse">
<stop stop-color="#0D6EFD"/>
<stop offset="1" stop-color="#0D6EFD" stop-opacity="0"/>
</linearGradient>
<radialGradient id="paint12_radial_11519_3284" cx="0" cy="0" r="1" gradientUnits="userSpaceOnUse" gradientTransform="translate(184.107 196.112) rotate(32.4948) scale(65.4205 79.3777)">
<stop stop-color="white"/>
<stop offset="1" stop-color="white" stop-opacity="0"/>
</radialGradient>
<radialGradient id="paint13_radial_11519_3284" cx="0" cy="0" r="1" gradientUnits="userSpaceOnUse" gradientTransform="translate(267.754 273.784) rotate(-125.34) scale(47.3929 56.3008)">
<stop/>
<stop offset="1" stop-opacity="0"/>
</radialGradient>
<radialGradient id="paint14_radial_11519_3284" cx="0" cy="0" r="1" gradientUnits="userSpaceOnUse" gradientTransform="translate(366.864 249.884) rotate(-70.8664) scale(36.4565 36.4511)">
<stop stop-color="white"/>
<stop offset="1" stop-color="white" stop-opacity="0"/>
</radialGradient>
<radialGradient id="paint15_radial_11519_3284" cx="0" cy="0" r="1" gradientUnits="userSpaceOnUse" gradientTransform="translate(396.034 286.084) rotate(-103.191) scale(46.2052 46.1984)">
<stop/>
<stop offset="1" stop-opacity="0"/>
</radialGradient>
</defs>
</svg>