<svg width="562" height="594" viewBox="0 0 562 594" fill="none" xmlns="http://www.w3.org/2000/svg">
<path d="M297.015 93.1155L297.015 93.1118C296.903 83.9536 296.903 83.8022 296.903 81.4771C296.903 79.1656 296.903 74.7056 296.793 57.1108C297.033 57.1387 297.346 57.1958 297.733 57.2849C298.309 57.4172 299.031 57.6153 299.891 57.876C301.609 58.3972 303.865 59.1647 306.584 60.146C312.02 62.1084 319.292 64.9213 327.784 68.3172C344.769 75.1087 366.625 84.2286 388.419 93.5318C410.212 102.835 431.942 112.32 448.672 119.843C457.037 123.605 464.15 126.875 469.397 129.386C472.02 130.641 474.175 131.706 475.785 132.547C477.406 133.394 478.447 134 478.869 134.34C485.443 139.653 486.155 146.402 487.06 154.997C487.129 155.649 487.199 156.312 487.272 156.985C487.273 158.667 487.309 159.545 487.333 160.133C487.336 160.208 487.339 160.279 487.341 160.346C487.364 160.922 487.364 161.213 487.275 161.967L487.271 161.999L487.274 162.032C487.457 163.963 487.456 165.821 487.456 167.719L487.456 168L487.455 290.284L487.456 290.294C487.48 291.095 487.421 291.897 487.278 292.686C486.983 293.987 486.271 295.156 485.252 296.014C484.233 296.871 482.963 297.371 481.636 297.437H480.086H434.497C433.835 297.428 433.173 297.467 432.516 297.551C431.214 297.677 429.979 298.19 428.97 299.025C427.959 299.862 427.222 300.983 426.852 302.244C426.48 303.515 426.479 304.866 426.85 306.137C427.45 308.654 427.751 311.234 427.746 313.823L427.746 313.825C427.774 319.198 426.383 324.482 423.715 329.139L423.713 329.143C419.758 336.279 413.187 341.586 405.396 343.936L405.394 343.936C402.848 344.728 400.208 345.17 397.545 345.251L397.539 345.251C394.728 345.396 388.867 345.148 383.081 344.521C380.19 344.208 377.324 343.801 374.874 343.303C372.415 342.803 370.405 342.218 369.203 341.559L369.199 341.557C365.175 339.423 361.667 336.428 358.923 332.782C356.18 329.137 354.268 324.931 353.322 320.462L353.322 320.459C352.669 317.553 352.442 314.568 352.646 311.597L352.646 311.596C352.772 309.749 353.055 307.915 353.492 306.116C353.966 304.428 353.771 302.623 352.949 301.076C352.468 300.113 351.753 299.287 350.871 298.673C349.988 298.058 348.965 297.676 347.897 297.562C347.21 297.485 346.52 297.444 345.83 297.437H345.827H300.029H298.336C296.817 297.371 295.377 296.736 294.302 295.656C293.226 294.577 292.593 293.132 292.527 291.606V290.172V243.244H292.527L292.527 243.231C292.482 242.148 292.178 241.09 291.64 240.149C291.102 239.208 290.347 238.41 289.437 237.824C288.527 237.237 287.49 236.879 286.414 236.779C285.337 236.679 284.252 236.841 283.25 237.25L283.248 237.251C281.3 238.064 279.273 238.674 277.201 239.072L277.2 239.072C274.332 239.635 271.401 239.806 268.487 239.578C267.889 239.531 266.642 239.218 265.056 238.734C263.483 238.254 261.609 237.617 259.779 236.939C257.947 236.261 256.164 235.544 254.77 234.905C254.072 234.586 253.477 234.288 253.024 234.026C252.555 233.756 252.282 233.548 252.181 233.417C249.448 229.846 247.513 225.727 246.508 221.339L246.507 221.336C246.336 220.63 246.19 220.093 246.07 219.654C246.053 219.589 246.035 219.526 246.019 219.465C245.89 218.99 245.8 218.64 245.742 218.29C245.628 217.6 245.639 216.892 245.792 215.24L245.795 215.198L245.788 215.156C244.545 208.522 247.186 202.215 251.577 197.145C255.965 192.078 261.846 188.545 268.368 187.057L268.368 187.057C274.612 185.626 281.143 186.141 287.088 188.534L287.09 188.534C287.538 188.712 288.005 188.868 288.471 189.004L288.471 189.004L288.482 189.006C289.455 189.251 290.47 189.272 291.452 189.07C292.434 188.867 293.359 188.445 294.156 187.836C294.954 187.226 295.605 186.444 296.061 185.548C296.517 184.652 296.767 183.665 296.791 182.659H296.791V182.652V181.089V127.002H296.791L296.791 126.992C296.78 126.662 296.816 126.471 296.867 126.207C296.873 126.172 296.88 126.135 296.888 126.097C296.95 125.762 297.015 125.334 297.015 124.54V124.527V124.515V124.503V124.491V124.48V124.468V124.457V124.445V124.434V124.423V124.413V124.402V124.391V124.381V124.371V124.361V124.351V124.341V124.331V124.321V124.312V124.303V124.294V124.285V124.285V124.285V124.285V124.285V124.285V124.285V124.284V124.284V124.284V124.284V124.283V124.283V124.283V124.282V124.282V124.281V124.281V124.28V124.28V124.28V124.279V124.279V124.278V124.278V124.277V124.277V124.276V124.276V124.275V124.275V124.274V124.272V124.272V124.271V124.271V124.27V124.269V124.269V124.268V124.267V124.267V124.266V124.266V124.264V124.264V124.263V124.262V124.261V124.26V124.26V124.258V124.258V124.258V124.256V124.254V124.254V124.253V124.252V124.251V124.25V124.249V124.249V124.247V124.247V124.245V124.244V124.243V124.242V124.242V124.241V124.239V124.239V124.237V124.236V124.235V124.233V124.233V124.232V124.23V124.23V124.228V124.227V124.226V124.225V124.224V124.223V124.221V124.22V124.219V124.217V124.217V124.216V124.214V124.213V124.211V124.21V124.209V124.206V124.206V124.204V124.202V124.202V124.201V124.199V124.198V124.196V124.194V124.194V124.193V124.191V124.19V124.188V124.187V124.186V124.185V124.183V124.181V124.18V124.18V124.177V124.177V124.174V124.172V124.172V124.171V124.169V124.167V124.166V124.165V124.163V124.163V124.16V124.158V124.158V124.157V124.154V124.153V124.152V124.151V124.149V124.148V124.146V124.145V124.143V124.142V124.14V124.138V124.137V124.137V124.134V124.132V124.132V124.131V124.128V124.126V124.125V124.125V124.122V124.12V124.119V124.119V124.116V124.115V124.113V124.113V124.11V124.109V124.107V124.107V124.104V124.103V124.101V124.101V124.098V124.096V124.096V124.095V124.092V124.09V124.09V124.089V124.086V124.084V124.084V124.083V124.08V124.079V124.077V124.077V124.074V124.074V124.072V124.071V124.069V124.069V124.066V124.064V124.063V124.063V124.06V124.059V124.057V124.057V124.054V124.054V124.051V124.05V124.049V124.049V124.046V124.044V124.043V124.043V124.04V124.04V124.037V124.036V124.035V124.035V124.032V124.031V124.029V124.028V124.027V124.027V124.024V124.023V124.021V124.021V124.019V124.016V124.015V124.014V124.013V124.011V124.008V124.007V124.006V124.005V124.004V124.004V124.001V124V123.999V123.998V123.997V123.996V123.994V123.994V123.992V123.99V123.989V123.987V123.985V123.984V123.983V123.981V123.981V123.979V123.979V123.977V123.976V123.975V123.973V123.973V123.973V123.971V123.969V123.968V123.967V123.966V123.965V123.965V123.964V123.963V123.962V123.961V123.96V123.959V123.958V123.957V123.957V123.956V123.955V123.955V123.954V123.952V123.952V123.951V123.95V123.949V123.949V123.948V123.947V123.947V123.947V123.946V123.946V123.944V123.944V123.943V123.943V123.942V123.942V123.941V123.941V123.94V123.94V123.94V123.939V123.939V123.938V123.938V123.937V123.937V123.937V123.936V123.935V123.935V123.935V123.935V123.934V123.934V123.934V123.934V123.934V123.93V123.921V123.911V123.902V123.893V123.883V123.873V123.863V123.853V123.843V123.833V123.822V123.812V123.801V123.79V123.779V123.768V123.757V123.745V123.733V123.722V123.71V123.698V123.685V123.673V123.66V123.648V123.635V123.622V123.609V123.595V123.582V123.568V123.554V123.54V123.526V123.512V123.498V123.483V123.468V123.453V123.438V123.423V123.407V123.392V123.376V123.36V123.344V123.328V123.311V123.295V123.278V123.261V123.244V123.226V123.209V123.191V123.173V123.155V123.137V123.119V123.1V123.081V123.062V123.043V123.024V123.004V122.985V122.965V122.945V122.924V122.904V122.883V122.863V122.842V122.82V122.799V122.777V122.756V122.734V122.711V122.689V122.667V122.644V122.621V122.598V122.574V122.551V122.527V122.503V122.479V122.455V122.43V122.405V122.38V122.355V122.33V122.304V122.278V122.252V122.226V122.199V122.173V122.146V122.119V122.091V122.064V122.036V122.008V121.98V121.952V121.923V121.894V121.865V121.836V121.806V121.777V121.747V121.717V121.686V121.656V121.625V121.594V121.562V121.531V121.499V121.467V121.435V121.402V121.37V121.337V121.304V121.27V121.237V121.203V121.181V121.16V121.139V121.118V121.098V121.077V121.057V121.037V121.017V120.997V120.978V120.959V120.939V120.92V120.902V120.883V120.865V120.846V120.828V120.81V120.792V120.775V120.757V120.74V120.723V120.706V120.689V120.673V120.656V120.64V120.624V120.608V120.592V120.577V120.561V120.546V120.531V120.516V120.501V120.486V120.472V120.458V120.443V120.429V120.415V120.402V120.388V120.375V120.361V120.348V120.335V120.323V120.31V120.297V120.285V120.273V120.261V120.249V120.237V120.225V120.213V120.202V120.191V120.18V120.169V120.158V120.147V120.136V120.126V120.116V120.105V120.095V120.085V120.076V120.066V120.056V120.047V120.038V120.028V120.019V120.01V120.002V119.993V119.984V119.976V119.968V119.959V119.951V119.943V119.936V119.928V119.92V119.913V119.905V119.898V119.891V119.884V119.877V119.87V119.863V119.856V119.85V119.844V119.837V119.831V119.825V119.819V119.813V119.807V119.801V119.796V119.79V119.785V119.779V119.774V119.769V119.764V119.759V119.754V119.749V119.745V119.74V119.736V119.731V119.727V119.723V119.719V119.715V119.711V119.707V119.703V119.699V119.695V119.692V119.688V119.685V119.682V119.678V119.675V119.672V119.669V119.666V119.663V119.66V119.658V119.655V119.652V119.65V119.647V119.645V119.642V119.64V119.638V119.636V119.634V119.632V119.63V119.628V119.626V119.624V119.622V119.621V119.619V119.618V119.616V119.615V119.613V119.612V119.611V119.609V119.608V119.607V119.606V119.605V119.604V119.603V119.602V119.601V119.6V119.6V119.6V119.6V119.6V119.6V119.6V119.6V119.6V119.6V119.599V119.599V119.599V119.599V119.599V119.599V119.599V119.599V119.599V119.599V119.599V119.598V119.598V119.598V119.598V119.598V119.598V119.598V119.597V119.597V119.597V119.597V119.597V119.597V119.597V119.596V119.596V119.596V119.596V119.596V119.596V119.596V119.596V119.595V119.595V119.595V119.595V119.595V119.595V119.595V119.595V119.594V119.594V119.594V119.594V119.594V119.594V119.593V119.593V119.593V119.593V119.593V119.593V119.593V119.592V119.592V119.592V119.592V119.592V119.592V119.592V119.592V119.592V119.592V119.591V119.591V119.591V119.591V119.591V119.591V119.591V119.591V119.59V119.589V119.588V119.587V119.586V119.585V119.584V119.583V119.581V119.58V119.579V119.577V119.576V119.575V119.573V119.571V119.57V119.568V119.566V119.565V119.563V119.561V119.559V119.557V119.555V119.553V119.55V119.548V119.546V119.543V119.541V119.538V119.536V119.533V119.53V119.527V119.524V119.521V119.518V119.515V119.512V119.509V119.505V119.502V119.498V119.495V119.491V119.487V119.484V119.48V119.476V119.472V119.467V119.463V119.459V119.454V119.45V119.445V119.441V119.436V119.431V119.426V119.421V119.416V119.41V119.405V119.4V119.394V119.388V119.383V119.377V119.371V119.365V119.359V119.353V119.346V119.34V119.333V119.327V119.32V119.313V119.306V119.299V119.292V119.284V119.277V119.269V119.262V119.254V119.246V119.238V119.23V119.222V119.213V119.205V119.196V119.188V119.179V119.17V119.161V119.151V119.142V119.133V119.123V119.113V119.104V119.094V119.083V119.073V119.063V119.052V119.042V119.031V119.02V119.009V118.998V118.987V118.975V118.964V118.952V118.94V118.928V118.916V118.904V118.891V118.879V118.866V118.853V118.84V118.827V118.814V118.8V118.786V118.773V118.759V118.745V118.731V118.716V118.702V118.687V118.672V118.657V118.642V118.627V118.611V118.596V118.58V118.564V118.548V118.531V118.515V118.498V118.481V118.465V118.447V118.43V118.413V118.395V118.377V118.359V118.341V118.323V118.304V118.286V118.267V118.248V118.228V118.209V118.19V118.17V118.15V118.13V118.109V118.089V118.068V118.047V118.026V118.005V117.984V117.962V117.94V117.918V117.896V117.874V117.851V117.829V117.806V117.783V117.759V117.736V117.712V117.688V117.664V117.64V117.615V117.59V117.565V117.54V117.515V117.489V117.464V117.438V117.411V117.385V117.358V117.332V117.305V117.277V117.25V117.222V117.195V117.166V117.138V117.11V117.081V117.052V117.023V116.993V116.964V116.934V116.904V116.874V116.843V116.812V116.782V116.75V116.719V116.687V116.655V116.623V101.969L297.015 93.1155ZM287.202 188.251L287.202 188.251L287.202 188.251Z" fill="#0D2B40" stroke="#0D2B40" stroke-width="0.610594"/>
<mask id="path-2-inside-1_6598_10583" fill="white">
<path d="M373.301 501.286H294.649C293.873 501.311 293.096 501.261 292.33 501.136C290.837 500.822 289.491 500.018 288.509 498.851C287.526 497.683 286.963 496.22 286.909 494.696C286.909 494.331 286.909 493.966 286.909 493.622V436.229C286.88 435.404 286.949 434.579 287.113 433.771C287.321 432.878 287.708 432.037 288.249 431.298C288.791 430.558 289.476 429.936 290.264 429.468C291.052 429 291.926 428.696 292.835 428.574C293.743 428.452 294.667 428.514 295.55 428.758C296.076 428.908 296.624 429.123 297.096 429.316C302.949 431.601 309.327 432.188 315.498 431.011C321.669 429.834 327.383 426.94 331.984 422.661C336.523 418.461 339.81 413.086 341.481 407.131C343.153 401.177 343.142 394.876 341.451 388.928C339.761 382.979 336.456 377.614 331.903 373.429C327.35 369.243 321.726 366.4 315.656 365.214C309.378 363.965 302.871 364.576 296.935 366.975C295.913 367.404 294.822 367.648 293.715 367.694C291.953 367.709 290.254 367.037 288.98 365.821C287.705 364.604 286.955 362.939 286.888 361.179C286.888 360.814 286.888 360.449 286.888 360.105C286.888 340.935 286.888 321.764 286.888 302.594C286.868 301.999 286.897 301.403 286.973 300.812C287.199 299.211 287.985 297.741 289.191 296.664C290.398 295.587 291.948 294.973 293.564 294.93C293.972 294.93 294.391 294.93 294.799 294.93H349.986C350.762 294.914 351.538 294.968 352.304 295.091C354.03 295.423 355.56 296.412 356.571 297.85C357.582 299.287 357.996 301.061 357.725 302.798C357.618 303.431 357.468 304.054 357.35 304.676C355.138 315.904 357.833 325.822 365.454 334.323C370.421 339.933 377.197 343.625 384.605 344.756C390.069 345.667 395.674 345.208 400.917 343.42C406.16 341.632 410.878 338.572 414.647 334.512C418.416 330.453 421.119 325.522 422.514 320.161C423.908 314.8 423.951 309.177 422.637 303.796C422.294 302.509 422.294 301.155 422.637 299.868C423.029 298.484 423.848 297.26 424.978 296.371C426.108 295.482 427.491 294.974 428.928 294.919C429.347 294.919 429.754 294.919 430.162 294.919H490.973C491.692 294.902 492.411 294.952 493.12 295.07C494.664 295.345 496.067 296.142 497.093 297.328C498.119 298.514 498.706 300.017 498.756 301.585C498.756 301.864 498.756 302.143 498.756 302.411C498.756 354.57 498.756 406.725 498.756 458.877C498.852 468.54 495.546 477.929 489.417 485.4C483.146 493.328 474.207 498.706 464.265 500.535C461.612 501.046 458.916 501.301 456.214 501.297L373.301 501.286Z"/>
</mask>
<path d="M373.301 501.286H294.649C293.873 501.311 293.096 501.261 292.33 501.136C290.837 500.822 289.491 500.018 288.509 498.851C287.526 497.683 286.963 496.22 286.909 494.696C286.909 494.331 286.909 493.966 286.909 493.622V436.229C286.88 435.404 286.949 434.579 287.113 433.771C287.321 432.878 287.708 432.037 288.249 431.298C288.791 430.558 289.476 429.936 290.264 429.468C291.052 429 291.926 428.696 292.835 428.574C293.743 428.452 294.667 428.514 295.55 428.758C296.076 428.908 296.624 429.123 297.096 429.316C302.949 431.601 309.327 432.188 315.498 431.011C321.669 429.834 327.383 426.94 331.984 422.661C336.523 418.461 339.81 413.086 341.481 407.131C343.153 401.177 343.142 394.876 341.451 388.928C339.761 382.979 336.456 377.614 331.903 373.429C327.35 369.243 321.726 366.4 315.656 365.214C309.378 363.965 302.871 364.576 296.935 366.975C295.913 367.404 294.822 367.648 293.715 367.694C291.953 367.709 290.254 367.037 288.98 365.821C287.705 364.604 286.955 362.939 286.888 361.179C286.888 360.814 286.888 360.449 286.888 360.105C286.888 340.935 286.888 321.764 286.888 302.594C286.868 301.999 286.897 301.403 286.973 300.812C287.199 299.211 287.985 297.741 289.191 296.664C290.398 295.587 291.948 294.973 293.564 294.93C293.972 294.93 294.391 294.93 294.799 294.93H349.986C350.762 294.914 351.538 294.968 352.304 295.091C354.03 295.423 355.56 296.412 356.571 297.85C357.582 299.287 357.996 301.061 357.725 302.798C357.618 303.431 357.468 304.054 357.35 304.676C355.138 315.904 357.833 325.822 365.454 334.323C370.421 339.933 377.197 343.625 384.605 344.756C390.069 345.667 395.674 345.208 400.917 343.42C406.16 341.632 410.878 338.572 414.647 334.512C418.416 330.453 421.119 325.522 422.514 320.161C423.908 314.8 423.951 309.177 422.637 303.796C422.294 302.509 422.294 301.155 422.637 299.868C423.029 298.484 423.848 297.26 424.978 296.371C426.108 295.482 427.491 294.974 428.928 294.919C429.347 294.919 429.754 294.919 430.162 294.919H490.973C491.692 294.902 492.411 294.952 493.12 295.07C494.664 295.345 496.067 296.142 497.093 297.328C498.119 298.514 498.706 300.017 498.756 301.585C498.756 301.864 498.756 302.143 498.756 302.411C498.756 354.57 498.756 406.725 498.756 458.877C498.852 468.54 495.546 477.929 489.417 485.4C483.146 493.328 474.207 498.706 464.265 500.535C461.612 501.046 458.916 501.301 456.214 501.297L373.301 501.286Z" fill="#0D2B40"/>
<mask id="path-4-outside-2_6598_10583" maskUnits="userSpaceOnUse" x="90.3824" y="44.7715" width="209" height="263" fill="black">
<rect fill="white" x="90.3824" y="44.7715" width="209" height="263"/>
<path d="M100.386 230.139C100.386 206.843 100.386 183.543 100.386 160.239C100.297 153.626 101.944 147.104 105.163 141.327C107.872 136.309 111.663 131.958 116.262 128.588C120.861 125.218 283.48 57.8422 289.08 56.7715C289.384 65.32 289.071 80.2797 289.375 90.9648V112.641C289.375 119.052 289.375 116.61 289.375 122.105C289.375 126.379 289.328 125.545 289.375 127.132C289.375 127.388 289.375 127.634 289.375 127.889C289.375 145.583 289.375 163.277 289.375 180.97C289.398 181.556 289.362 182.142 289.267 182.72C289.092 183.607 288.726 184.445 288.195 185.176C287.663 185.907 286.979 186.514 286.19 186.955C285.401 187.395 284.525 187.659 283.624 187.727C282.723 187.795 281.817 187.667 280.971 187.35C279.612 186.801 278.224 186.328 276.812 185.935C270.237 184.18 263.264 184.664 256.993 187.311C250.723 189.958 244.945 195.042 242.182 200.552C239.419 206.062 237.702 212.318 238.368 218.579C238.99 224.99 241.618 231.042 245.878 235.872C250.139 240.703 255.814 244.066 262.097 245.484C268.054 246.87 274.291 246.421 279.988 244.196C280.644 243.922 281.321 243.702 282.013 243.538C282.901 243.374 283.814 243.407 284.688 243.633C285.563 243.86 286.377 244.274 287.075 244.848C287.772 245.422 288.336 246.142 288.726 246.956C289.629 248.838 289.336 251.058 289.336 253.077C289.336 270.771 289.336 273.368 289.336 291.062C289.369 291.857 289.283 292.652 289.08 293.421C288.737 294.593 288.054 295.638 287.118 296.423C286.183 297.209 285.035 297.7 283.821 297.835C283.231 297.835 282.651 297.923 282.062 297.923H237.809C237.259 297.923 236.718 297.874 236.177 297.844C235.297 297.769 234.442 297.504 233.673 297.07C232.903 296.635 232.235 296.041 231.715 295.326C231.195 294.611 230.835 293.793 230.658 292.926C230.482 292.06 230.493 291.166 230.692 290.305C230.958 289.027 231.253 287.769 231.41 286.481C232.4 278.662 224.243 270.762 219.574 264.412C214.906 258.062 207.976 253.748 200.218 252.362C192.475 250.968 184.494 252.612 177.931 256.95C171.368 261.289 166.729 267.989 164.978 275.658C163.896 280.244 157.811 285.021 158.931 289.597C159.24 290.688 159.29 291.836 159.078 292.949C158.81 294.232 158.139 295.397 157.163 296.272C156.187 297.147 154.957 297.688 153.652 297.815C153.033 297.815 152.404 297.894 151.775 297.894H107.748C107.119 297.894 106.49 297.894 105.871 297.795C104.55 297.64 103.315 297.061 102.351 296.144C101.387 295.228 100.746 294.024 100.523 292.713C100.422 292.01 100.379 291.3 100.396 290.59L100.386 230.139Z"/>
</mask>
<path d="M100.386 230.139C100.386 206.843 100.386 183.543 100.386 160.239C100.297 153.626 101.944 147.104 105.163 141.327C107.872 136.309 111.663 131.958 116.262 128.588C120.861 125.218 283.48 57.8422 289.08 56.7715C289.384 65.32 289.071 80.2797 289.375 90.9648V112.641C289.375 119.052 289.375 116.61 289.375 122.105C289.375 126.379 289.328 125.545 289.375 127.132C289.375 127.388 289.375 127.634 289.375 127.889C289.375 145.583 289.375 163.277 289.375 180.97C289.398 181.556 289.362 182.142 289.267 182.72C289.092 183.607 288.726 184.445 288.195 185.176C287.663 185.907 286.979 186.514 286.19 186.955C285.401 187.395 284.525 187.659 283.624 187.727C282.723 187.795 281.817 187.667 280.971 187.35C279.612 186.801 278.224 186.328 276.812 185.935C270.237 184.18 263.264 184.664 256.993 187.311C250.723 189.958 244.945 195.042 242.182 200.552C239.419 206.062 237.702 212.318 238.368 218.579C238.99 224.99 241.618 231.042 245.878 235.872C250.139 240.703 255.814 244.066 262.097 245.484C268.054 246.87 274.291 246.421 279.988 244.196C280.644 243.922 281.321 243.702 282.013 243.538C282.901 243.374 283.814 243.407 284.688 243.633C285.563 243.86 286.377 244.274 287.075 244.848C287.772 245.422 288.336 246.142 288.726 246.956C289.629 248.838 289.336 251.058 289.336 253.077C289.336 270.771 289.336 273.368 289.336 291.062C289.369 291.857 289.283 292.652 289.08 293.421C288.737 294.593 288.054 295.638 287.118 296.423C286.183 297.209 285.035 297.7 283.821 297.835C283.231 297.835 282.651 297.923 282.062 297.923H237.809C237.259 297.923 236.718 297.874 236.177 297.844C235.297 297.769 234.442 297.504 233.673 297.07C232.903 296.635 232.235 296.041 231.715 295.326C231.195 294.611 230.835 293.793 230.658 292.926C230.482 292.06 230.493 291.166 230.692 290.305C230.958 289.027 231.253 287.769 231.41 286.481C232.4 278.662 224.243 270.762 219.574 264.412C214.906 258.062 207.976 253.748 200.218 252.362C192.475 250.968 184.494 252.612 177.931 256.95C171.368 261.289 166.729 267.989 164.978 275.658C163.896 280.244 157.811 285.021 158.931 289.597C159.24 290.688 159.29 291.836 159.078 292.949C158.81 294.232 158.139 295.397 157.163 296.272C156.187 297.147 154.957 297.688 153.652 297.815C153.033 297.815 152.404 297.894 151.775 297.894H107.748C107.119 297.894 106.49 297.894 105.871 297.795C104.55 297.64 103.315 297.061 102.351 296.144C101.387 295.228 100.746 294.024 100.523 292.713C100.422 292.01 100.379 291.3 100.396 290.59L100.386 230.139Z" fill="#0D2B40"/>
<path fill-rule="evenodd" clip-rule="evenodd" d="M100.65 451.719L100.679 311.604C100.666 310.85 100.722 310.096 100.847 309.353C101.081 308.175 101.651 307.091 102.488 306.231C103.326 305.371 104.394 304.772 105.565 304.507C106.307 304.366 107.061 304.303 107.816 304.32H159.6C161.188 304.273 162.699 303.625 163.827 302.506C164.955 301.388 165.615 299.882 165.675 298.294C165.66 297.629 165.561 296.968 165.38 296.328C164.762 293.803 164.465 291.211 164.495 288.612C164.612 281.762 167.006 275.145 171.299 269.806C175.592 264.467 181.54 260.708 188.205 259.122C190.936 258.452 193.751 258.18 196.56 258.316C203.246 258.621 209.65 261.103 214.796 265.383C219.942 269.663 223.548 275.507 225.067 282.026C226.163 286.822 226.119 291.808 224.939 296.584C224.673 297.689 224.704 298.846 225.027 299.936C225.409 301.185 226.177 302.281 227.221 303.067C228.265 303.853 229.531 304.288 230.837 304.31H282.503C283.257 304.282 284.012 304.338 284.754 304.477C286.118 304.762 287.345 305.5 288.238 306.571C289.13 307.641 289.634 308.982 289.669 310.375V363.918C289.644 364.713 289.713 365.509 289.875 366.287C290.084 367.09 290.452 367.843 290.957 368.502C291.461 369.16 292.093 369.711 292.814 370.122C293.535 370.532 294.331 370.794 295.155 370.892C295.979 370.99 296.814 370.921 297.611 370.691C298.016 370.577 298.413 370.439 298.801 370.278C302.972 368.59 307.474 367.878 311.963 368.194C317.939 368.562 323.678 370.664 328.477 374.243C333.276 377.822 336.928 382.723 338.985 388.346C340.043 391.219 340.643 394.241 340.764 397.301C340.935 400.778 340.524 404.26 339.546 407.602C337.487 414.519 333.055 420.487 327.031 424.459C321.006 428.431 313.773 430.151 306.606 429.317C303.775 428.992 301.003 428.277 298.368 427.193C297.184 426.692 295.874 426.567 294.617 426.836C293.359 427.106 292.215 427.755 291.34 428.697C290.355 429.748 289.774 431.113 289.698 432.551V486.35C289.733 487.104 289.673 487.86 289.521 488.601C289.192 489.926 288.437 491.107 287.371 491.961C286.305 492.815 284.989 493.296 283.623 493.329H139.724C133.068 493.388 126.515 491.693 120.723 488.414C116.276 485.985 112.355 482.699 109.187 478.746C106.018 474.793 103.665 470.251 102.262 465.382C101.372 462.411 100.86 459.34 100.738 456.241C100.679 454.737 100.65 453.233 100.65 451.719ZM93.4746 467.965C92.3721 464.27 91.7378 460.452 91.5865 456.6C91.5229 454.976 91.491 453.352 91.491 451.719L91.5205 311.675C91.503 310.389 91.6011 309.105 91.8139 307.837L91.8367 307.701L91.8637 307.565C92.4433 304.653 93.8543 301.97 95.9261 299.842C97.998 297.714 100.642 296.232 103.538 295.575L103.698 295.538L103.858 295.508C105.191 295.255 106.545 295.139 107.901 295.161H155.814C155.471 292.961 155.311 290.735 155.337 288.505L155.337 288.48L155.337 288.455C155.49 279.571 158.594 270.991 164.161 264.067C169.721 257.151 177.423 252.28 186.053 250.219C189.63 249.345 193.313 248.991 196.99 249.167C205.666 249.566 213.975 252.787 220.652 258.341C227.333 263.898 232.015 271.485 233.987 279.948L233.991 279.966L233.995 279.984C235.135 284.971 235.321 290.116 234.554 295.151H282.36C283.728 295.114 285.096 295.223 286.441 295.475L286.535 295.493L286.629 295.512C290.014 296.22 294.742 298.051 296.956 300.707C299.17 303.364 298.739 306.69 298.825 310.147L298.828 310.261V360.575C303.27 359.251 307.923 358.733 312.567 359.055C320.306 359.54 327.736 362.265 333.952 366.901C340.178 371.544 344.916 377.901 347.585 385.194C348.965 388.949 349.751 392.897 349.914 396.894C350.13 401.378 349.597 405.866 348.336 410.175L348.33 410.195L348.324 410.215C345.65 419.197 339.896 426.948 332.071 432.106C324.251 437.261 314.864 439.495 305.56 438.416C303.288 438.155 301.046 437.701 298.857 437.059V486.177C298.903 487.608 298.781 489.04 298.493 490.443L298.455 490.626L298.41 490.808C297.597 494.082 295.731 496.997 293.1 499.107C290.468 501.217 287.216 502.404 283.845 502.485L283.734 502.488H139.763C131.536 502.554 123.436 500.461 116.271 496.418C110.787 493.413 105.951 489.354 102.04 484.474C98.1249 479.589 95.2139 473.979 93.4746 467.965Z" fill="#002036"/>
<g opacity="0.75" filter="url(#filter0_d_6598_10583)">
<path d="M100.679 384.342V311.601C100.665 310.847 100.721 310.094 100.846 309.35C101.08 308.173 101.65 307.089 102.488 306.229C103.325 305.369 104.393 304.769 105.564 304.504C106.306 304.363 107.06 304.301 107.815 304.317H158.223C158.685 304.317 159.147 304.317 159.599 304.317C161.187 304.271 162.698 303.623 163.826 302.504C164.954 301.385 165.615 299.879 165.674 298.291C165.659 297.626 165.56 296.966 165.379 296.325C164.761 293.801 164.464 291.208 164.494 288.609C164.612 281.759 167.005 275.143 171.298 269.803C175.591 264.464 181.539 260.705 188.204 259.119C190.936 258.449 193.75 258.178 196.559 258.313C203.246 258.619 209.649 261.1 214.795 265.38C219.941 269.66 223.547 275.504 225.066 282.023C226.162 286.819 226.119 291.805 224.938 296.581C224.672 297.687 224.703 298.843 225.027 299.933C225.409 301.182 226.177 302.279 227.22 303.065C228.264 303.85 229.53 304.285 230.836 304.307H282.502C283.256 304.279 284.011 304.335 284.753 304.474C286.117 304.76 287.345 305.498 288.237 306.568C289.129 307.639 289.633 308.979 289.668 310.372C289.668 310.874 289.668 311.355 289.668 311.876V363.916C289.643 364.711 289.713 365.506 289.874 366.285C290.083 367.088 290.451 367.841 290.956 368.499C291.461 369.158 292.092 369.709 292.813 370.119C293.534 370.529 294.33 370.791 295.154 370.889C295.978 370.987 296.813 370.919 297.61 370.688C298.015 370.574 298.412 370.437 298.8 370.276C302.971 368.588 307.473 367.875 311.962 368.192C317.938 368.559 323.677 370.661 328.476 374.24C333.276 377.82 336.927 382.72 338.984 388.343C340.042 391.217 340.642 394.238 340.764 397.298C340.935 400.776 340.523 404.258 339.545 407.6C337.486 414.516 333.055 420.485 327.03 424.456C321.005 428.428 313.773 430.148 306.605 429.314C303.774 428.989 301.002 428.275 298.367 427.191C297.183 426.689 295.873 426.565 294.616 426.834C293.358 427.103 292.214 427.753 291.339 428.695C290.354 429.745 289.773 431.11 289.697 432.548C289.697 433.049 289.697 433.531 289.697 434.052V486.347C289.732 487.102 289.672 487.858 289.52 488.598C289.191 489.923 288.436 491.104 287.37 491.958C286.305 492.813 284.988 493.293 283.623 493.326H139.723C133.067 493.385 126.514 491.69 120.722 488.411C116.275 485.982 112.355 482.697 109.186 478.743C106.017 474.79 103.664 470.248 102.261 465.38C101.371 462.409 100.859 459.337 100.738 456.238C100.679 454.734 100.649 453.23 100.649 451.716L100.679 384.342Z" fill="#0D6EFD"/>
</g>
<path d="M321.099 13.1582L527.06 110.11C535.321 113.999 532.55 126.393 523.419 126.393H518.426C513.579 126.393 508.786 125.381 504.352 123.42L309.248 37.1572C298.982 32.6181 287.288 32.5665 276.982 37.0147L76.5107 123.543C72.1555 125.423 67.4619 126.393 62.7183 126.393H56.2165C47.0355 126.393 44.3107 113.893 52.6588 110.072L265.054 12.8578C282.869 4.70379 303.372 4.81368 321.099 13.1582Z" fill="#0D2B40" stroke="#002036" stroke-width="0.610594"/>
<g filter="url(#filter1_b_6598_10583)">
<path d="M217.301 350.314L236.523 354.159C237.64 354.382 238.776 354.495 239.915 354.495H452.95C462.5 354.495 470.242 362.237 470.242 371.788V495.707C470.242 505.258 462.5 513 452.95 513H238.774C229.224 513 221.481 505.258 221.481 495.707V373.893C221.481 372.807 221.379 371.724 221.176 370.657L217.301 350.314Z" fill="#052034" fill-opacity="0.25"/>
<path d="M469.816 371.788V495.707C469.816 505.023 462.265 512.574 452.95 512.574H238.774C229.459 512.574 221.908 505.023 221.908 495.707V373.893C221.908 372.78 221.803 371.67 221.595 370.578L217.838 350.856L236.44 354.577C237.584 354.806 238.748 354.921 239.915 354.921H452.95C462.265 354.921 469.816 362.472 469.816 371.788Z" stroke="#0D6EFD" stroke-opacity="0.5" stroke-width="0.852347"/>
</g>
<path opacity="0.75" d="M337.619 453.651L334.564 459.474V463.184H333.61V459.474L330.528 453.651H331.605L334.087 458.601L336.556 453.651H337.619ZM339.494 454.333C339.303 454.333 339.139 454.265 339.003 454.128C338.866 453.992 338.798 453.824 338.798 453.624C338.798 453.424 338.866 453.26 339.003 453.133C339.139 452.996 339.303 452.928 339.494 452.928C339.685 452.928 339.848 452.996 339.985 453.133C340.121 453.26 340.189 453.424 340.189 453.624C340.189 453.824 340.121 453.992 339.985 454.128C339.848 454.265 339.685 454.333 339.494 454.333ZM339.971 455.737V463.184H339.016V455.737H339.971ZM348.87 459.079C348.87 459.406 348.861 459.656 348.843 459.829H342.665C342.692 460.392 342.828 460.874 343.074 461.274C343.319 461.674 343.642 461.979 344.042 462.188C344.442 462.388 344.879 462.488 345.351 462.488C345.97 462.488 346.488 462.338 346.906 462.038C347.333 461.738 347.615 461.333 347.752 460.824H348.761C348.579 461.552 348.188 462.147 347.588 462.611C346.997 463.065 346.251 463.293 345.351 463.293C344.651 463.293 344.024 463.138 343.469 462.829C342.915 462.511 342.478 462.065 342.16 461.493C341.851 460.911 341.696 460.233 341.696 459.461C341.696 458.688 341.851 458.01 342.16 457.429C342.469 456.847 342.901 456.401 343.456 456.092C344.01 455.783 344.642 455.628 345.351 455.628C346.061 455.628 346.679 455.783 347.206 456.092C347.742 456.401 348.152 456.819 348.433 457.347C348.724 457.865 348.87 458.442 348.87 459.079ZM347.902 459.051C347.911 458.497 347.797 458.024 347.561 457.633C347.333 457.242 347.02 456.947 346.62 456.747C346.22 456.547 345.783 456.447 345.31 456.447C344.601 456.447 343.997 456.674 343.497 457.129C342.997 457.583 342.719 458.224 342.665 459.051H347.902ZM351.571 453.092V463.184H350.616V453.092H351.571ZM353.296 459.447C353.296 458.683 353.451 458.015 353.76 457.442C354.069 456.86 354.492 456.415 355.028 456.106C355.574 455.787 356.188 455.628 356.869 455.628C357.524 455.628 358.115 455.787 358.642 456.106C359.17 456.424 359.556 456.838 359.802 457.347V453.092H360.756V463.184H359.802V461.52C359.574 462.038 359.201 462.465 358.683 462.802C358.165 463.129 357.556 463.293 356.856 463.293C356.174 463.293 355.56 463.134 355.015 462.815C354.478 462.497 354.056 462.047 353.746 461.465C353.446 460.883 353.296 460.211 353.296 459.447ZM359.802 459.461C359.802 458.86 359.679 458.333 359.433 457.879C359.188 457.424 358.851 457.074 358.424 456.828C358.006 456.583 357.542 456.46 357.033 456.46C356.506 456.46 356.033 456.578 355.615 456.815C355.197 457.051 354.865 457.397 354.619 457.851C354.383 458.297 354.265 458.829 354.265 459.447C354.265 460.056 354.383 460.592 354.619 461.056C354.865 461.511 355.197 461.861 355.615 462.106C356.033 462.343 356.506 462.461 357.033 462.461C357.542 462.461 358.006 462.338 358.424 462.093C358.851 461.847 359.188 461.497 359.433 461.042C359.679 460.588 359.802 460.061 359.802 459.461Z" fill="#CCD2D7"/>
<path d="M331.087 481.569V478.491H336.839V495.889H333.402V481.569H331.087ZM341.189 492.118C342.717 490.845 343.934 489.787 344.841 488.944C345.748 488.085 346.503 487.194 347.108 486.271C347.713 485.348 348.015 484.441 348.015 483.55C348.015 482.739 347.824 482.102 347.442 481.641C347.06 481.179 346.472 480.949 345.676 480.949C344.881 480.949 344.268 481.219 343.838 481.76C343.409 482.285 343.186 483.009 343.17 483.932H339.924C339.988 482.023 340.553 480.575 341.619 479.588C342.701 478.602 344.069 478.109 345.724 478.109C347.538 478.109 348.93 478.594 349.9 479.565C350.871 480.519 351.356 481.784 351.356 483.359C351.356 484.6 351.022 485.786 350.354 486.915C349.686 488.045 348.922 489.031 348.063 489.875C347.204 490.702 346.082 491.704 344.698 492.882H351.738V495.65H339.948V493.168L341.189 492.118ZM355.705 496.056C355.1 496.056 354.599 495.873 354.201 495.507C353.82 495.125 353.629 494.656 353.629 494.099C353.629 493.542 353.82 493.08 354.201 492.715C354.599 492.333 355.1 492.142 355.705 492.142C356.294 492.142 356.779 492.333 357.161 492.715C357.543 493.08 357.734 493.542 357.734 494.099C357.734 494.656 357.543 495.125 357.161 495.507C356.779 495.873 356.294 496.056 355.705 496.056ZM371.737 481.378H364.005V485.459C364.339 485.046 364.816 484.712 365.437 484.457C366.057 484.187 366.717 484.051 367.417 484.051C368.69 484.051 369.732 484.33 370.544 484.887C371.355 485.443 371.944 486.159 372.31 487.034C372.676 487.894 372.859 488.816 372.859 489.803C372.859 491.633 372.334 493.104 371.284 494.218C370.249 495.332 368.77 495.889 366.845 495.889C365.031 495.889 363.583 495.435 362.501 494.528C361.419 493.621 360.807 492.436 360.663 490.972H363.909C364.052 491.609 364.371 492.118 364.864 492.5C365.373 492.882 366.017 493.073 366.797 493.073C367.736 493.073 368.444 492.778 368.921 492.189C369.398 491.601 369.637 490.821 369.637 489.851C369.637 488.864 369.39 488.116 368.897 487.607C368.42 487.082 367.712 486.82 366.773 486.82C366.105 486.82 365.548 486.987 365.102 487.321C364.657 487.655 364.339 488.1 364.148 488.657H360.95V478.443H371.737V481.378ZM375.02 482.763C375.02 481.553 375.37 480.607 376.07 479.922C376.786 479.238 377.701 478.896 378.815 478.896C379.928 478.896 380.835 479.238 381.535 479.922C382.251 480.607 382.609 481.553 382.609 482.763C382.609 483.988 382.251 484.942 381.535 485.626C380.835 486.311 379.928 486.653 378.815 486.653C377.701 486.653 376.786 486.311 376.07 485.626C375.37 484.942 375.02 483.988 375.02 482.763ZM390.342 479.183L380.963 495.889H377.717L387.072 479.183H390.342ZM378.791 480.901C377.916 480.901 377.478 481.522 377.478 482.763C377.478 484.019 377.916 484.648 378.791 484.648C379.22 484.648 379.554 484.497 379.793 484.194C380.032 483.876 380.151 483.399 380.151 482.763C380.151 481.522 379.698 480.901 378.791 480.901ZM385.497 492.285C385.497 491.06 385.847 490.113 386.547 489.445C387.263 488.761 388.178 488.419 389.292 488.419C390.405 488.419 391.304 488.761 391.989 489.445C392.689 490.113 393.039 491.06 393.039 492.285C393.039 493.51 392.689 494.465 391.989 495.149C391.304 495.833 390.405 496.175 389.292 496.175C388.162 496.175 387.247 495.833 386.547 495.149C385.847 494.465 385.497 493.51 385.497 492.285ZM389.268 490.423C388.361 490.423 387.907 491.044 387.907 492.285C387.907 493.542 388.361 494.17 389.268 494.17C390.159 494.17 390.604 493.542 390.604 492.285C390.604 491.044 390.159 490.423 389.268 490.423Z" fill="#0D6EFD"/>
<path opacity="0.75" d="M246.145 453.118V459.118C246.145 460.064 246.368 460.764 246.814 461.218C247.268 461.673 247.886 461.9 248.668 461.9C249.45 461.9 250.059 461.678 250.496 461.232C250.941 460.777 251.164 460.073 251.164 459.118V453.118H252.119V459.105C252.119 460.314 251.796 461.223 251.15 461.832C250.514 462.441 249.682 462.746 248.655 462.746C247.627 462.746 246.791 462.441 246.145 461.832C245.509 461.223 245.191 460.314 245.191 459.105V453.118H246.145ZM257.739 455.068C258.63 455.068 259.357 455.345 259.921 455.9C260.485 456.445 260.767 457.241 260.767 458.286V462.65H259.826V458.395C259.826 457.586 259.621 456.968 259.212 456.541C258.812 456.113 258.262 455.9 257.562 455.9C256.844 455.9 256.271 456.127 255.843 456.582C255.416 457.036 255.202 457.705 255.202 458.586V462.65H254.248V455.204H255.202V456.473C255.439 456.018 255.78 455.673 256.225 455.436C256.671 455.191 257.175 455.068 257.739 455.068ZM263.355 453.8C263.164 453.8 263.001 453.731 262.864 453.595C262.728 453.459 262.66 453.29 262.66 453.09C262.66 452.89 262.728 452.727 262.864 452.6C263.001 452.463 263.164 452.395 263.355 452.395C263.546 452.395 263.71 452.463 263.846 452.6C263.983 452.727 264.051 452.89 264.051 453.09C264.051 453.29 263.983 453.459 263.846 453.595C263.71 453.731 263.546 453.8 263.355 453.8ZM263.833 455.204V462.65H262.878V455.204H263.833ZM267.235 456.009V460.632C267.235 461.087 267.322 461.4 267.494 461.573C267.667 461.746 267.972 461.832 268.408 461.832H269.281V462.65H268.258C267.585 462.65 267.085 462.496 266.758 462.187C266.431 461.869 266.267 461.35 266.267 460.632V456.009H265.231V455.204H266.267V453.336H267.235V455.204H269.281V456.009H267.235ZM275.539 456.841C275.775 456.341 276.148 455.927 276.657 455.6C277.175 455.263 277.789 455.095 278.498 455.095C279.171 455.095 279.775 455.254 280.312 455.572C280.857 455.882 281.28 456.327 281.58 456.909C281.889 457.482 282.044 458.15 282.044 458.914C282.044 459.677 281.889 460.35 281.58 460.932C281.28 461.514 280.857 461.964 280.312 462.282C279.775 462.6 279.171 462.759 278.498 462.759C277.798 462.759 277.189 462.596 276.671 462.269C276.152 461.932 275.775 461.514 275.539 461.014V466.169H274.598V455.204H275.539V456.841ZM281.076 458.914C281.076 458.295 280.953 457.764 280.707 457.318C280.471 456.864 280.144 456.518 279.725 456.282C279.307 456.045 278.834 455.927 278.307 455.927C277.798 455.927 277.33 456.05 276.902 456.295C276.484 456.541 276.152 456.891 275.907 457.345C275.661 457.8 275.539 458.327 275.539 458.927C275.539 459.527 275.661 460.055 275.907 460.509C276.152 460.964 276.484 461.314 276.902 461.559C277.33 461.805 277.798 461.928 278.307 461.928C278.834 461.928 279.307 461.809 279.725 461.573C280.144 461.328 280.471 460.978 280.707 460.523C280.953 460.059 281.076 459.523 281.076 458.914ZM284.755 456.527C284.964 456.063 285.282 455.704 285.71 455.45C286.146 455.195 286.678 455.068 287.305 455.068V456.063H287.046C286.355 456.063 285.801 456.25 285.382 456.623C284.964 456.995 284.755 457.618 284.755 458.491V462.65H283.8V455.204H284.755V456.527ZM289.219 453.8C289.028 453.8 288.864 453.731 288.728 453.595C288.591 453.459 288.523 453.29 288.523 453.09C288.523 452.89 288.591 452.727 288.728 452.6C288.864 452.463 289.028 452.395 289.219 452.395C289.41 452.395 289.573 452.463 289.71 452.6C289.846 452.727 289.914 452.89 289.914 453.09C289.914 453.29 289.846 453.459 289.71 453.595C289.573 453.731 289.41 453.8 289.219 453.8ZM289.696 455.204V462.65H288.741V455.204H289.696ZM291.421 458.927C291.421 458.155 291.576 457.482 291.885 456.909C292.194 456.327 292.621 455.882 293.167 455.572C293.712 455.254 294.335 455.095 295.035 455.095C295.954 455.095 296.708 455.322 297.299 455.777C297.899 456.232 298.286 456.85 298.458 457.632H297.435C297.308 457.095 297.031 456.677 296.604 456.377C296.185 456.068 295.663 455.913 295.035 455.913C294.535 455.913 294.085 456.027 293.685 456.254C293.285 456.482 292.967 456.823 292.731 457.277C292.503 457.723 292.39 458.273 292.39 458.927C292.39 459.582 292.503 460.137 292.731 460.591C292.967 461.046 293.285 461.387 293.685 461.614C294.085 461.841 294.535 461.955 295.035 461.955C295.663 461.955 296.185 461.805 296.604 461.505C297.031 461.196 297.308 460.768 297.435 460.223H298.458C298.286 460.987 297.899 461.6 297.299 462.064C296.699 462.528 295.944 462.759 295.035 462.759C294.335 462.759 293.712 462.605 293.167 462.296C292.621 461.978 292.194 461.532 291.885 460.959C291.576 460.377 291.421 459.7 291.421 458.927ZM306.958 458.545C306.958 458.873 306.949 459.123 306.931 459.296H300.753C300.781 459.859 300.917 460.341 301.162 460.741C301.408 461.141 301.731 461.446 302.131 461.655C302.531 461.855 302.967 461.955 303.44 461.955C304.058 461.955 304.576 461.805 304.995 461.505C305.422 461.205 305.704 460.8 305.84 460.291H306.849C306.667 461.018 306.276 461.614 305.676 462.078C305.085 462.532 304.34 462.759 303.44 462.759C302.74 462.759 302.112 462.605 301.558 462.296C301.003 461.978 300.567 461.532 300.249 460.959C299.94 460.377 299.785 459.7 299.785 458.927C299.785 458.155 299.94 457.477 300.249 456.895C300.558 456.313 300.99 455.868 301.544 455.559C302.099 455.25 302.731 455.095 303.44 455.095C304.149 455.095 304.767 455.25 305.295 455.559C305.831 455.868 306.24 456.286 306.522 456.814C306.813 457.332 306.958 457.909 306.958 458.545ZM305.99 458.518C305.999 457.964 305.885 457.491 305.649 457.1C305.422 456.709 305.108 456.413 304.708 456.213C304.308 456.013 303.872 455.913 303.399 455.913C302.69 455.913 302.085 456.141 301.585 456.595C301.085 457.05 300.808 457.691 300.753 458.518H305.99Z" fill="#CCD2D7"/>
<path d="M256.646 486.678C256.646 488.046 256.209 489.176 255.334 490.067C254.459 490.942 253.289 491.467 251.825 491.642V493.742H250.226V491.666C248.89 491.57 247.744 491.196 246.79 490.544C245.835 489.892 245.151 489.009 244.737 487.895L247.577 486.248C248.086 487.537 248.969 488.261 250.226 488.42V484.291H250.203L250.155 484.267C249.184 483.917 248.317 483.504 247.553 483.026C246.265 482.215 245.573 480.926 245.477 479.16C245.477 477.744 245.931 476.622 246.837 475.795C247.792 474.936 248.922 474.451 250.226 474.339V472.263H251.825V474.387C253.989 474.657 255.517 475.779 256.408 477.752L253.639 479.375C253.257 478.42 252.653 477.84 251.825 477.633V481.618C253.369 482.239 254.363 482.708 254.809 483.026C256.034 483.917 256.646 485.134 256.646 486.678ZM248.747 479.184C248.747 479.534 248.858 479.844 249.081 480.115C249.304 480.369 249.685 480.632 250.226 480.902V477.561C249.24 477.752 248.747 478.293 248.747 479.184ZM251.825 484.936V488.372C252.844 488.165 253.353 487.609 253.353 486.702C253.353 485.986 252.844 485.397 251.825 484.936ZM257.501 476.201L261.893 474.649H264.757V491.355H261.463V478.134L258.313 479.017L257.501 476.201ZM273.986 491.69C271.902 491.69 270.263 490.902 269.069 489.327C267.892 487.72 267.303 485.612 267.303 483.002C267.303 480.393 267.892 478.293 269.069 476.702C270.263 475.111 271.902 474.315 273.986 474.315C276.102 474.315 277.741 475.111 278.902 476.702C280.08 478.293 280.668 480.393 280.668 483.002C280.668 485.612 280.08 487.72 278.902 489.327C277.741 490.902 276.102 491.69 273.986 491.69ZM277.399 483.002C277.399 481.22 277.104 479.86 276.516 478.921C275.943 477.983 275.1 477.513 273.986 477.513C272.872 477.513 272.029 477.983 271.456 478.921C270.883 479.86 270.597 481.22 270.597 483.002C270.597 484.784 270.883 486.145 271.456 487.084C272.029 488.006 272.872 488.468 273.986 488.468C275.1 488.468 275.943 487.998 276.516 487.06C277.104 486.121 277.399 484.769 277.399 483.002ZM289.018 491.69C286.934 491.69 285.295 490.902 284.102 489.327C282.925 487.72 282.336 485.612 282.336 483.002C282.336 480.393 282.925 478.293 284.102 476.702C285.295 475.111 286.934 474.315 289.018 474.315C291.135 474.315 292.773 475.111 293.935 476.702C295.112 478.293 295.701 480.393 295.701 483.002C295.701 485.612 295.112 487.72 293.935 489.327C292.773 490.902 291.135 491.69 289.018 491.69ZM292.431 483.002C292.431 481.22 292.137 479.86 291.548 478.921C290.975 477.983 290.132 477.513 289.018 477.513C287.905 477.513 287.061 477.983 286.489 478.921C285.916 479.86 285.63 481.22 285.63 483.002C285.63 484.784 285.916 486.145 286.489 487.084C287.061 488.006 287.905 488.468 289.018 488.468C290.132 488.468 290.975 487.998 291.548 487.06C292.137 486.121 292.431 484.769 292.431 483.002Z" fill="#0D6EFD"/>
<path opacity="0.15" fill-rule="evenodd" clip-rule="evenodd" d="M243.729 435.291C243.729 435.056 243.915 434.865 244.144 434.865H446.173C446.402 434.865 446.588 435.056 446.588 435.291C446.588 435.527 446.402 435.718 446.173 435.718H244.144C243.915 435.718 243.729 435.527 243.729 435.291Z" fill="#99A6AF" stroke="#0D6EFD" stroke-opacity="0.5" stroke-width="0.852347" stroke-linecap="round"/>
<path d="M254.827 409.147C255.765 409.322 256.537 409.792 257.142 410.556C257.746 411.319 258.049 412.194 258.049 413.181C258.049 414.072 257.826 414.859 257.38 415.543C256.951 416.212 256.322 416.737 255.495 417.119C254.668 417.5 253.689 417.691 252.559 417.691H245.376V401.033H252.249C253.379 401.033 254.349 401.216 255.161 401.582C255.988 401.948 256.609 402.457 257.022 403.109C257.452 403.762 257.667 404.502 257.667 405.329C257.667 406.299 257.404 407.111 256.879 407.763C256.37 408.416 255.686 408.877 254.827 409.147ZM248.717 407.906H251.772C252.567 407.906 253.18 407.731 253.609 407.381C254.039 407.015 254.254 406.498 254.254 405.83C254.254 405.162 254.039 404.645 253.609 404.279C253.18 403.913 252.567 403.73 251.772 403.73H248.717V407.906ZM252.082 414.971C252.894 414.971 253.522 414.78 253.967 414.398C254.429 414.016 254.66 413.475 254.66 412.775C254.66 412.059 254.421 411.502 253.944 411.104C253.466 410.691 252.822 410.484 252.01 410.484H248.717V414.971H252.082ZM262.406 402.895C261.817 402.895 261.324 402.712 260.926 402.346C260.544 401.964 260.353 401.495 260.353 400.938C260.353 400.381 260.544 399.919 260.926 399.553C261.324 399.172 261.817 398.981 262.406 398.981C262.995 398.981 263.48 399.172 263.862 399.553C264.259 399.919 264.458 400.381 264.458 400.938C264.458 401.495 264.259 401.964 263.862 402.346C263.48 402.712 262.995 402.895 262.406 402.895ZM264.053 404.47V417.691H260.711V404.47H264.053ZM272.413 417.906C271.331 417.906 270.361 417.715 269.502 417.333C268.642 416.936 267.958 416.403 267.449 415.734C266.956 415.066 266.685 414.326 266.638 413.515H270.003C270.066 414.024 270.313 414.446 270.743 414.78C271.188 415.114 271.737 415.281 272.389 415.281C273.026 415.281 273.519 415.154 273.869 414.899C274.235 414.645 274.418 414.318 274.418 413.921C274.418 413.491 274.195 413.173 273.75 412.966C273.32 412.743 272.628 412.505 271.673 412.25C270.687 412.011 269.876 411.765 269.239 411.51C268.619 411.256 268.078 410.866 267.616 410.341C267.171 409.816 266.948 409.108 266.948 408.217C266.948 407.485 267.155 406.817 267.569 406.212C267.998 405.607 268.603 405.13 269.382 404.78C270.178 404.43 271.109 404.255 272.175 404.255C273.75 404.255 275.007 404.653 275.945 405.448C276.884 406.228 277.401 407.286 277.497 408.622H274.299C274.251 408.097 274.028 407.684 273.63 407.381C273.249 407.063 272.731 406.904 272.079 406.904C271.475 406.904 271.005 407.015 270.671 407.238C270.353 407.461 270.194 407.771 270.194 408.169C270.194 408.614 270.416 408.957 270.862 409.195C271.307 409.418 272 409.649 272.938 409.887C273.893 410.126 274.68 410.373 275.301 410.627C275.922 410.882 276.455 411.279 276.9 411.82C277.361 412.345 277.6 413.046 277.616 413.921C277.616 414.684 277.401 415.368 276.972 415.973C276.558 416.578 275.953 417.055 275.158 417.405C274.378 417.739 273.463 417.906 272.413 417.906ZM279.5 411.081C279.5 409.712 279.778 408.519 280.335 407.501C280.892 406.467 281.663 405.671 282.65 405.114C283.636 404.541 284.766 404.255 286.039 404.255C287.677 404.255 289.03 404.669 290.096 405.496C291.178 406.307 291.902 407.453 292.268 408.933H288.664C288.473 408.36 288.147 407.914 287.685 407.596C287.24 407.262 286.683 407.095 286.015 407.095C285.06 407.095 284.304 407.445 283.748 408.145C283.191 408.829 282.912 409.808 282.912 411.081C282.912 412.338 283.191 413.316 283.748 414.016C284.304 414.7 285.06 415.042 286.015 415.042C287.367 415.042 288.25 414.438 288.664 413.229H292.268C291.902 414.66 291.178 415.798 290.096 416.641C289.014 417.485 287.662 417.906 286.039 417.906C284.766 417.906 283.636 417.628 282.65 417.071C281.663 416.498 280.892 415.703 280.335 414.684C279.778 413.65 279.5 412.449 279.5 411.081ZM293.856 411.033C293.856 409.696 294.119 408.511 294.644 407.477C295.185 406.443 295.909 405.647 296.816 405.09C297.738 404.533 298.765 404.255 299.894 404.255C300.881 404.255 301.74 404.454 302.472 404.852C303.22 405.249 303.816 405.751 304.262 406.355V404.47H307.627V417.691H304.262V415.758C303.832 416.379 303.235 416.896 302.472 417.31C301.724 417.707 300.857 417.906 299.87 417.906C298.757 417.906 297.738 417.62 296.816 417.047C295.909 416.474 295.185 415.671 294.644 414.637C294.119 413.587 293.856 412.385 293.856 411.033ZM304.262 411.081C304.262 410.269 304.103 409.577 303.784 409.004C303.466 408.416 303.037 407.97 302.496 407.668C301.955 407.35 301.374 407.19 300.753 407.19C300.133 407.19 299.56 407.342 299.035 407.644C298.51 407.946 298.08 408.392 297.746 408.98C297.428 409.553 297.269 410.237 297.269 411.033C297.269 411.828 297.428 412.528 297.746 413.133C298.08 413.722 298.51 414.175 299.035 414.493C299.576 414.812 300.149 414.971 300.753 414.971C301.374 414.971 301.955 414.82 302.496 414.517C303.037 414.199 303.466 413.754 303.784 413.181C304.103 412.592 304.262 411.892 304.262 411.081ZM323.539 404.47L315.353 423.944H311.797L314.661 417.357L309.363 404.47H313.11L316.522 413.706L319.983 404.47H323.539ZM332.667 404.279C334.242 404.279 335.515 404.78 336.485 405.782C337.456 406.769 337.941 408.153 337.941 409.935V417.691H334.6V410.388C334.6 409.338 334.337 408.535 333.812 407.978C333.287 407.405 332.571 407.119 331.664 407.119C330.742 407.119 330.01 407.405 329.469 407.978C328.944 408.535 328.681 409.338 328.681 410.388V417.691H325.34V404.47H328.681V406.117C329.127 405.544 329.691 405.098 330.376 404.78C331.076 404.446 331.839 404.279 332.667 404.279ZM353.409 410.794C353.409 411.272 353.377 411.701 353.314 412.083H343.648C343.728 413.038 344.062 413.785 344.651 414.326C345.239 414.867 345.963 415.138 346.822 415.138C348.063 415.138 348.946 414.605 349.471 413.539H353.075C352.693 414.812 351.961 415.862 350.879 416.689C349.798 417.5 348.469 417.906 346.894 417.906C345.621 417.906 344.476 417.628 343.457 417.071C342.455 416.498 341.667 415.695 341.095 414.66C340.538 413.626 340.259 412.433 340.259 411.081C340.259 409.712 340.538 408.511 341.095 407.477C341.651 406.443 342.431 405.647 343.433 405.09C344.436 404.533 345.589 404.255 346.894 404.255C348.151 404.255 349.273 404.525 350.259 405.066C351.261 405.607 352.033 406.379 352.574 407.381C353.131 408.368 353.409 409.505 353.409 410.794ZM349.949 409.84C349.933 408.98 349.623 408.296 349.018 407.787C348.413 407.262 347.674 407 346.798 407C345.971 407 345.271 407.254 344.698 407.763C344.141 408.256 343.799 408.949 343.672 409.84H349.949ZM370.986 409.147C371.924 409.322 372.696 409.792 373.301 410.556C373.905 411.319 374.207 412.194 374.207 413.181C374.207 414.072 373.985 414.859 373.539 415.543C373.11 416.212 372.481 416.737 371.654 417.119C370.827 417.5 369.848 417.691 368.718 417.691H361.535V401.033H368.408C369.538 401.033 370.508 401.216 371.32 401.582C372.147 401.948 372.768 402.457 373.181 403.109C373.611 403.762 373.826 404.502 373.826 405.329C373.826 406.299 373.563 407.111 373.038 407.763C372.529 408.416 371.845 408.877 370.986 409.147ZM364.876 407.906H367.931C368.726 407.906 369.339 407.731 369.768 407.381C370.198 407.015 370.413 406.498 370.413 405.83C370.413 405.162 370.198 404.645 369.768 404.279C369.339 403.913 368.726 403.73 367.931 403.73H364.876V407.906ZM368.241 414.971C369.052 414.971 369.681 414.78 370.126 414.398C370.588 414.016 370.819 413.475 370.819 412.775C370.819 412.059 370.58 411.502 370.103 411.104C369.625 410.691 368.981 410.484 368.169 410.484H364.876V414.971H368.241ZM380.212 400.031V417.691H376.87V400.031H380.212ZM389.026 414.613L392.367 404.47H395.923L391.03 417.691H386.973L382.105 404.47H385.684L389.026 414.613ZM396.94 411.033C396.94 409.696 397.203 408.511 397.728 407.477C398.269 406.443 399.001 405.647 399.924 405.09C400.846 404.533 401.873 404.255 403.002 404.255C403.861 404.255 404.681 404.446 405.46 404.828C406.24 405.194 406.861 405.687 407.322 406.307V400.031H410.711V417.691H407.322V415.734C406.908 416.387 406.328 416.912 405.58 417.31C404.832 417.707 403.965 417.906 402.978 417.906C401.865 417.906 400.846 417.62 399.924 417.047C399.001 416.474 398.269 415.671 397.728 414.637C397.203 413.587 396.94 412.385 396.94 411.033ZM407.346 411.081C407.346 410.269 407.187 409.577 406.868 409.004C406.55 408.416 406.121 407.97 405.58 407.668C405.039 407.35 404.458 407.19 403.838 407.19C403.217 407.19 402.644 407.342 402.119 407.644C401.594 407.946 401.165 408.392 400.83 408.98C400.512 409.553 400.353 410.237 400.353 411.033C400.353 411.828 400.512 412.528 400.83 413.133C401.165 413.722 401.594 414.175 402.119 414.493C402.66 414.812 403.233 414.971 403.838 414.971C404.458 414.971 405.039 414.82 405.58 414.517C406.121 414.199 406.55 413.754 406.868 413.181C407.187 412.592 407.346 411.892 407.346 411.081Z" fill="#FCFDFD" stroke="#0D6EFD"/>

<g opacity="0.75">
<path  d="M254.376 376.53V385.939H253.421V378.425L250.066 385.939H249.371L246.016 378.452V385.939H245.061V376.53H246.071L249.712 384.685L253.353 376.53H254.376ZM257.019 377.089C256.828 377.089 256.664 377.02 256.528 376.884C256.392 376.748 256.323 376.58 256.323 376.38C256.323 376.18 256.392 376.016 256.528 375.889C256.664 375.752 256.828 375.684 257.019 375.684C257.21 375.684 257.373 375.752 257.51 375.889C257.646 376.016 257.714 376.18 257.714 376.38C257.714 376.58 257.646 376.748 257.51 376.884C257.373 377.02 257.21 377.089 257.019 377.089ZM257.496 378.493V385.939H256.542V378.493H257.496ZM259.222 382.203C259.222 381.439 259.372 380.771 259.672 380.198C259.981 379.616 260.403 379.171 260.94 378.862C261.485 378.543 262.099 378.384 262.781 378.384C263.49 378.384 264.099 378.548 264.608 378.875C265.127 379.202 265.499 379.621 265.727 380.13V378.493H266.681V385.939H265.727V384.289C265.49 384.798 265.113 385.221 264.595 385.558C264.086 385.885 263.476 386.049 262.767 386.049C262.094 386.049 261.485 385.889 260.94 385.571C260.403 385.253 259.981 384.803 259.672 384.221C259.372 383.639 259.222 382.966 259.222 382.203ZM265.727 382.216C265.727 381.616 265.604 381.089 265.358 380.634C265.113 380.18 264.777 379.83 264.349 379.584C263.931 379.339 263.467 379.216 262.958 379.216C262.431 379.216 261.958 379.334 261.54 379.571C261.122 379.807 260.79 380.153 260.544 380.607C260.308 381.053 260.19 381.585 260.19 382.203C260.19 382.812 260.308 383.348 260.544 383.812C260.79 384.267 261.122 384.617 261.54 384.862C261.958 385.098 262.431 385.217 262.958 385.217C263.467 385.217 263.931 385.094 264.349 384.848C264.777 384.603 265.113 384.253 265.358 383.798C265.604 383.344 265.727 382.816 265.727 382.216ZM277.725 378.357C278.598 378.357 279.307 378.634 279.852 379.189C280.407 379.734 280.684 380.53 280.684 381.575V385.939H279.743V381.685C279.743 380.875 279.548 380.257 279.157 379.83C278.766 379.403 278.234 379.189 277.561 379.189C276.861 379.189 276.302 379.421 275.884 379.884C275.466 380.348 275.257 381.021 275.257 381.903V385.939H274.316V381.685C274.316 380.875 274.12 380.257 273.729 379.83C273.338 379.403 272.802 379.189 272.12 379.189C271.42 379.189 270.861 379.421 270.443 379.884C270.024 380.348 269.815 381.021 269.815 381.903V385.939H268.861V378.493H269.815V379.775C270.052 379.312 270.388 378.962 270.824 378.725C271.261 378.48 271.747 378.357 272.284 378.357C272.929 378.357 273.493 378.512 273.975 378.821C274.466 379.13 274.82 379.584 275.038 380.184C275.238 379.593 275.579 379.143 276.061 378.834C276.552 378.516 277.107 378.357 277.725 378.357ZM283.282 377.089C283.091 377.089 282.927 377.02 282.791 376.884C282.654 376.748 282.586 376.58 282.586 376.38C282.586 376.18 282.654 376.016 282.791 375.889C282.927 375.752 283.091 375.684 283.282 375.684C283.473 375.684 283.636 375.752 283.773 375.889C283.909 376.016 283.977 376.18 283.977 376.38C283.977 376.58 283.909 376.748 283.773 376.884C283.636 377.02 283.473 377.089 283.282 377.089ZM283.759 378.493V385.939H282.804V378.493H283.759ZM286.794 384.357L285.375 387.931H284.721L285.73 384.357H286.794ZM297.175 376.407V377.198H292.975V380.757H296.521V381.548H292.975V385.939H292.02V376.407H297.175ZM299.701 385.162H303.124V385.939H298.746V376.407H299.701V385.162Z" fill="#CCD2D7"/>
<path d="M254.376 376.53H255.345V375.56H254.376V376.53ZM254.376 385.939V386.909H255.345V385.939H254.376ZM253.421 385.939H252.452V386.909H253.421V385.939ZM253.421 378.425H254.391L252.536 378.03L253.421 378.425ZM250.066 385.939V386.909H250.695L250.952 386.335L250.066 385.939ZM249.371 385.939L248.486 386.336L248.743 386.909H249.371V385.939ZM246.016 378.452L246.901 378.056L245.047 378.452H246.016ZM246.016 385.939V386.909H246.985V385.939H246.016ZM245.061 385.939H244.092V386.909H245.061V385.939ZM245.061 376.53V375.56H244.092V376.53H245.061ZM246.071 376.53L246.956 376.134L246.699 375.56H246.071V376.53ZM249.712 384.685L248.827 385.08L249.712 387.062L250.597 385.08L249.712 384.685ZM253.353 376.53V375.56H252.724L252.468 376.134L253.353 376.53ZM253.407 376.53V385.939H255.345V376.53H253.407ZM254.376 384.97H253.421V386.909H254.376V384.97ZM254.391 385.939V378.425H252.452V385.939H254.391ZM252.536 378.03L249.181 385.544L250.952 386.335L254.306 378.82L252.536 378.03ZM250.066 384.97H249.371V386.909H250.066V384.97ZM250.255 385.543L246.901 378.056L245.132 378.849L248.486 386.336L250.255 385.543ZM245.047 378.452V385.939H246.985V378.452H245.047ZM246.016 384.97H245.061V386.909H246.016V384.97ZM246.031 385.939V376.53H244.092V385.939H246.031ZM245.061 377.499H246.071V375.56H245.061V377.499ZM245.186 376.925L248.827 385.08L250.597 384.29L246.956 376.134L245.186 376.925ZM250.597 385.08L254.238 376.925L252.468 376.134L248.827 384.29L250.597 385.08ZM253.353 377.499H254.376V375.56H253.353V377.499ZM256.528 376.884L255.842 377.57L256.528 376.884ZM256.528 375.889L257.189 376.597L257.201 376.586L257.213 376.574L256.528 375.889ZM257.51 375.889L256.824 376.574L256.836 376.586L256.848 376.597L257.51 375.889ZM257.496 378.493H258.465V377.524H257.496V378.493ZM257.496 385.939V386.909H258.465V385.939H257.496ZM256.542 385.939H255.572V386.909H256.542V385.939ZM256.542 378.493V377.524H255.572V378.493H256.542ZM257.019 376.119C257.041 376.119 257.081 376.124 257.126 376.143C257.171 376.162 257.2 376.185 257.213 376.199L255.842 377.57C256.159 377.886 256.568 378.058 257.019 378.058V376.119ZM257.213 376.199C257.231 376.216 257.255 376.248 257.273 376.292C257.29 376.334 257.293 376.367 257.293 376.38H255.354C255.354 376.826 255.517 377.244 255.842 377.57L257.213 376.199ZM257.293 376.38C257.293 376.391 257.29 376.429 257.269 376.48C257.248 376.532 257.216 376.572 257.189 376.597L255.867 375.18C255.518 375.505 255.354 375.933 255.354 376.38H257.293ZM257.213 376.574C257.2 376.587 257.171 376.611 257.126 376.63C257.081 376.649 257.041 376.653 257.019 376.653V374.715C256.568 374.715 256.159 374.887 255.842 375.203L257.213 376.574ZM257.019 376.653C256.996 376.653 256.957 376.649 256.912 376.63C256.867 376.611 256.838 376.587 256.824 376.574L258.195 375.203C257.879 374.887 257.47 374.715 257.019 374.715V376.653ZM256.848 376.597C256.821 376.572 256.79 376.532 256.768 376.48C256.747 376.429 256.745 376.391 256.745 376.38H258.684C258.684 375.933 258.519 375.505 258.171 375.18L256.848 376.597ZM256.745 376.38C256.745 376.367 256.748 376.334 256.765 376.292C256.783 376.248 256.807 376.216 256.824 376.199L258.195 377.57C258.521 377.244 258.684 376.826 258.684 376.38H256.745ZM256.824 376.199C256.838 376.185 256.867 376.162 256.912 376.143C256.957 376.124 256.996 376.119 257.019 376.119V378.058C257.47 378.058 257.879 377.886 258.195 377.57L256.824 376.199ZM256.527 378.493V385.939H258.465V378.493H256.527ZM257.496 384.97H256.542V386.909H257.496V384.97ZM257.511 385.939V378.493H255.572V385.939H257.511ZM256.542 379.463H257.496V377.524H256.542V379.463ZM259.672 380.198L258.816 379.743L258.813 379.748L259.672 380.198ZM260.94 378.862L261.424 379.701L261.428 379.699L260.94 378.862ZM264.608 378.875L264.084 379.691L264.091 379.695L264.608 378.875ZM265.727 380.13L264.842 380.525L266.696 380.13H265.727ZM265.727 378.493V377.524H264.757V378.493H265.727ZM266.681 378.493H267.651V377.524H266.681V378.493ZM266.681 385.939V386.909H267.651V385.939H266.681ZM265.727 385.939H264.757V386.909H265.727V385.939ZM265.727 384.289H266.696L264.847 383.881L265.727 384.289ZM264.595 385.558L265.119 386.373L265.122 386.371L264.595 385.558ZM260.94 385.571L260.445 386.405L260.451 386.409L260.94 385.571ZM259.672 384.221L258.81 384.665L258.816 384.676L259.672 384.221ZM265.358 380.634L266.211 380.174V380.174L265.358 380.634ZM264.349 379.584L263.859 380.42L263.866 380.425L264.349 379.584ZM261.54 379.571L262.017 380.415L261.54 379.571ZM260.544 380.607L259.691 380.147L259.688 380.153L260.544 380.607ZM260.544 383.812L259.681 384.252L259.686 384.262L259.691 384.273L260.544 383.812ZM261.54 384.862L261.049 385.698L261.056 385.702L261.063 385.706L261.54 384.862ZM264.349 384.848L263.866 384.008L263.859 384.013L264.349 384.848ZM265.358 383.798L266.211 384.259L265.358 383.798ZM260.191 382.203C260.191 381.567 260.315 381.059 260.53 380.648L258.813 379.748C258.428 380.483 258.252 381.311 258.252 382.203H260.191ZM260.528 380.653C260.757 380.221 261.055 379.914 261.424 379.701L260.456 378.022C259.751 378.428 259.204 379.011 258.816 379.743L260.528 380.653ZM261.428 379.699C261.814 379.474 262.257 379.354 262.781 379.354V377.415C261.942 377.415 261.157 377.613 260.451 378.024L261.428 379.699ZM262.781 379.354C263.337 379.354 263.757 379.48 264.084 379.691L265.133 378.06C264.442 377.616 263.643 377.415 262.781 377.415V379.354ZM264.091 379.695C264.464 379.93 264.7 380.208 264.842 380.525L266.612 379.735C266.299 379.034 265.789 378.475 265.126 378.056L264.091 379.695ZM266.696 380.13V378.493H264.757V380.13H266.696ZM265.727 379.463H266.681V377.524H265.727V379.463ZM265.712 378.493V385.939H267.651V378.493H265.712ZM266.681 384.97H265.727V386.909H266.681V384.97ZM266.696 385.939V384.289H264.757V385.939H266.696ZM264.847 383.881C264.695 384.209 264.448 384.497 264.067 384.745L265.122 386.371C265.778 385.945 266.285 385.388 266.606 384.697L264.847 383.881ZM264.071 384.742C263.743 384.953 263.323 385.079 262.767 385.079V387.018C263.63 387.018 264.428 386.817 265.119 386.373L264.071 384.742ZM262.767 385.079C262.254 385.079 261.816 384.96 261.428 384.734L260.451 386.409C261.155 386.819 261.935 387.018 262.767 387.018V385.079ZM261.434 384.738C261.06 384.515 260.758 384.2 260.528 383.766L258.816 384.676C259.203 385.406 259.747 385.991 260.445 386.405L261.434 384.738ZM260.533 383.777C260.315 383.354 260.191 382.838 260.191 382.203H258.252C258.252 383.095 258.428 383.925 258.81 384.665L260.533 383.777ZM266.696 382.216C266.696 381.482 266.545 380.791 266.211 380.174L264.506 381.095C264.663 381.387 264.757 381.751 264.757 382.216H266.696ZM266.211 380.174C265.885 379.569 265.423 379.084 264.832 378.744L263.866 380.425C264.13 380.576 264.341 380.791 264.506 381.095L266.211 380.174ZM264.84 378.748C264.265 378.411 263.631 378.247 262.958 378.247V380.185C263.304 380.185 263.597 380.267 263.859 380.42L264.84 378.748ZM262.958 378.247C262.28 378.247 261.641 378.4 261.063 378.727L262.017 380.415C262.276 380.268 262.581 380.185 262.958 380.185V378.247ZM261.063 378.727C260.474 379.06 260.017 379.544 259.691 380.147L261.397 381.068C261.563 380.761 261.77 380.554 262.017 380.415L261.063 378.727ZM259.688 380.153C259.363 380.766 259.22 381.461 259.22 382.203H261.159C261.159 381.708 261.253 381.339 261.401 381.061L259.688 380.153ZM259.22 382.203C259.22 382.939 259.364 383.631 259.681 384.252L261.408 383.372C261.252 383.066 261.159 382.685 261.159 382.203H259.22ZM259.691 384.273C260.015 384.872 260.468 385.357 261.049 385.698L262.031 384.026C261.775 383.876 261.564 383.661 261.397 383.351L259.691 384.273ZM261.063 385.706C261.641 386.032 262.28 386.186 262.958 386.186V384.247C262.581 384.247 262.276 384.165 262.017 384.018L261.063 385.706ZM262.958 386.186C263.631 386.186 264.265 386.022 264.84 385.684L263.859 384.013C263.597 384.166 263.304 384.247 262.958 384.247V386.186ZM264.832 385.689C265.423 385.349 265.885 384.864 266.211 384.259L264.506 383.338C264.341 383.642 264.13 383.857 263.866 384.008L264.832 385.689ZM266.211 384.259C266.545 383.642 266.696 382.951 266.696 382.216H264.757C264.757 382.682 264.663 383.046 264.506 383.338L266.211 384.259ZM279.852 379.189L279.161 379.869L279.167 379.874L279.173 379.88L279.852 379.189ZM280.684 385.939V386.909H281.654V385.939H280.684ZM279.743 385.939H278.774V386.909H279.743V385.939ZM279.157 379.83L278.442 380.484L279.157 379.83ZM275.884 379.884L275.164 379.235L275.164 379.235L275.884 379.884ZM275.257 385.939V386.909H276.226V385.939H275.257ZM274.316 385.939H273.346V386.909H274.316V385.939ZM273.729 379.83L273.014 380.484V380.484L273.729 379.83ZM270.443 379.884L269.723 379.235V379.235L270.443 379.884ZM269.815 385.939V386.909H270.785V385.939H269.815ZM268.861 385.939H267.891V386.909H268.861V385.939ZM268.861 378.493V377.524H267.891V378.493H268.861ZM269.815 378.493H270.785V377.524H269.815V378.493ZM269.815 379.775H268.846L270.679 380.216L269.815 379.775ZM270.824 378.725L271.286 379.577L271.293 379.574L271.3 379.57L270.824 378.725ZM273.975 378.821L273.451 379.637L273.458 379.641L273.975 378.821ZM275.038 380.184L274.127 380.516L275.071 383.111L275.957 380.495L275.038 380.184ZM276.061 378.834L276.585 379.65L276.588 379.648L276.061 378.834ZM277.725 379.326C278.373 379.326 278.821 379.523 279.161 379.869L280.544 378.509C279.793 377.746 278.823 377.388 277.725 377.388V379.326ZM279.173 379.88C279.485 380.187 279.715 380.697 279.715 381.575H281.654C281.654 380.362 281.329 379.281 280.532 378.498L279.173 379.88ZM279.715 381.575V385.939H281.654V381.575H279.715ZM280.684 384.97H279.743V386.909H280.684V384.97ZM280.713 385.939V381.685H278.774V385.939H280.713ZM280.713 381.685C280.713 380.73 280.482 379.842 279.872 379.176L278.442 380.484C278.614 380.672 278.774 381.021 278.774 381.685H280.713ZM279.872 379.176C279.267 378.515 278.458 378.22 277.561 378.22V380.158C278.01 380.158 278.265 380.291 278.442 380.484L279.872 379.176ZM277.561 378.22C276.624 378.22 275.79 378.542 275.164 379.235L276.604 380.534C276.815 380.3 277.099 380.158 277.561 380.158V378.22ZM275.164 379.235C274.53 379.939 274.287 380.88 274.287 381.903H276.226C276.226 381.162 276.402 380.758 276.604 380.534L275.164 379.235ZM274.287 381.903V385.939H276.226V381.903H274.287ZM275.257 384.97H274.316V386.909H275.257V384.97ZM275.285 385.939V381.685H273.346V385.939H275.285ZM275.285 381.685C275.285 380.73 275.054 379.842 274.444 379.176L273.014 380.484C273.186 380.672 273.346 381.021 273.346 381.685H275.285ZM274.444 379.176C273.837 378.512 273.021 378.22 272.12 378.22V380.158C272.583 380.158 272.84 380.293 273.014 380.484L274.444 379.176ZM272.12 378.22C271.182 378.22 270.348 378.542 269.723 379.235L271.162 380.534C271.373 380.3 271.657 380.158 272.12 380.158V378.22ZM269.723 379.235C269.088 379.939 268.846 380.88 268.846 381.903H270.785C270.785 381.162 270.96 380.758 271.162 380.534L269.723 379.235ZM268.846 381.903V385.939H270.785V381.903H268.846ZM269.815 384.97H268.861V386.909H269.815V384.97ZM269.83 385.939V378.493H267.891V385.939H269.83ZM268.861 379.463H269.815V377.524H268.861V379.463ZM268.846 378.493V379.775H270.785V378.493H268.846ZM270.679 380.216C270.831 379.918 271.031 379.716 271.286 379.577L270.363 377.873C269.745 378.207 269.273 378.705 268.952 379.335L270.679 380.216ZM271.3 379.57C271.581 379.412 271.901 379.326 272.284 379.326V377.388C271.593 377.388 270.941 377.547 270.349 377.88L271.3 379.57ZM272.284 379.326C272.768 379.326 273.145 379.44 273.451 379.637L274.498 378.005C273.841 377.583 273.09 377.388 272.284 377.388V379.326ZM273.458 379.641C273.749 379.824 273.975 380.096 274.127 380.516L275.949 379.853C275.665 379.072 275.183 378.436 274.491 378L273.458 379.641ZM275.957 380.495C276.093 380.093 276.305 379.83 276.585 379.65L275.538 378.018C274.854 378.457 274.384 379.094 274.12 379.874L275.957 380.495ZM276.588 379.648C276.913 379.437 277.283 379.326 277.725 379.326V377.388C276.931 377.388 276.191 377.595 275.534 378.021L276.588 379.648ZM282.791 376.884L282.105 377.57L282.791 376.884ZM282.791 375.889L283.452 376.597L283.464 376.586L283.476 376.574L282.791 375.889ZM283.773 375.889L283.087 376.574L283.099 376.586L283.111 376.597L283.773 375.889ZM283.759 378.493H284.728V377.524H283.759V378.493ZM283.759 385.939V386.909H284.728V385.939H283.759ZM282.804 385.939H281.835V386.909H282.804V385.939ZM282.804 378.493V377.524H281.835V378.493H282.804ZM283.282 376.119C283.304 376.119 283.344 376.124 283.389 376.143C283.434 376.162 283.463 376.185 283.476 376.199L282.105 377.57C282.422 377.886 282.831 378.058 283.282 378.058V376.119ZM283.476 376.199C283.494 376.216 283.518 376.248 283.536 376.292C283.553 376.334 283.556 376.367 283.556 376.38H281.617C281.617 376.826 281.78 377.244 282.105 377.57L283.476 376.199ZM283.556 376.38C283.556 376.391 283.553 376.429 283.532 376.48C283.51 376.532 283.479 376.572 283.452 376.597L282.129 375.18C281.781 375.505 281.617 375.933 281.617 376.38H283.556ZM283.476 376.574C283.463 376.587 283.434 376.611 283.389 376.63C283.344 376.649 283.304 376.653 283.282 376.653V374.715C282.831 374.715 282.422 374.887 282.105 375.203L283.476 376.574ZM283.282 376.653C283.259 376.653 283.22 376.649 283.175 376.63C283.13 376.611 283.101 376.587 283.087 376.574L284.458 375.203C284.142 374.887 283.733 374.715 283.282 374.715V376.653ZM283.111 376.597C283.084 376.572 283.053 376.532 283.031 376.48C283.01 376.429 283.008 376.391 283.008 376.38H284.947C284.947 375.933 284.782 375.505 284.434 375.18L283.111 376.597ZM283.008 376.38C283.008 376.367 283.01 376.334 283.028 376.292C283.046 376.248 283.07 376.216 283.087 376.199L284.458 377.57C284.784 377.244 284.947 376.826 284.947 376.38H283.008ZM283.087 376.199C283.101 376.185 283.13 376.162 283.175 376.143C283.22 376.124 283.259 376.119 283.282 376.119V378.058C283.733 378.058 284.142 377.886 284.458 377.57L283.087 376.199ZM282.79 378.493V385.939H284.728V378.493H282.79ZM283.759 384.97H282.804V386.909H283.759V384.97ZM283.774 385.939V378.493H281.835V385.939H283.774ZM282.804 379.463H283.759V377.524H282.804V379.463ZM286.794 384.357L287.695 384.715L288.221 383.388H286.794V384.357ZM285.375 387.931V388.9H286.033L286.276 388.288L285.375 387.931ZM284.721 387.931L283.788 387.667L283.44 388.9H284.721V387.931ZM285.73 384.357V383.388H284.996L284.797 384.094L285.73 384.357ZM285.893 384L284.474 387.573L286.276 388.288L287.695 384.715L285.893 384ZM285.375 386.961H284.721V388.9H285.375V386.961ZM285.654 388.194L286.663 384.621L284.797 384.094L283.788 387.667L285.654 388.194ZM285.73 385.327H286.794V383.388H285.73V385.327ZM297.175 376.407H298.145V375.437H297.175V376.407ZM297.175 377.198V378.167H298.145V377.198H297.175ZM292.975 377.198V376.228H292.006V377.198H292.975ZM292.975 380.757H292.006V381.726H292.975V380.757ZM296.521 380.757H297.49V379.788H296.521V380.757ZM296.521 381.548V382.517H297.49V381.548H296.521ZM292.975 381.548V380.579H292.006V381.548H292.975ZM292.975 385.939V386.909H293.944V385.939H292.975ZM292.02 385.939H291.051V386.909H292.02V385.939ZM292.02 376.407V375.437H291.051V376.407H292.02ZM296.206 376.407V377.198H298.145V376.407H296.206ZM297.175 376.228H292.975V378.167H297.175V376.228ZM292.006 377.198V380.757H293.944V377.198H292.006ZM292.975 381.726H296.521V379.788H292.975V381.726ZM295.552 380.757V381.548H297.49V380.757H295.552ZM296.521 380.579H292.975V382.517H296.521V380.579ZM292.006 381.548V385.939H293.944V381.548H292.006ZM292.975 384.97H292.02V386.909H292.975V384.97ZM292.99 385.939V376.407H291.051V385.939H292.99ZM292.02 377.376H297.175V375.437H292.02V377.376ZM299.701 385.162H298.731V386.131H299.701V385.162ZM303.124 385.162H304.093V384.193H303.124V385.162ZM303.124 385.939V386.909H304.093V385.939H303.124ZM298.746 385.939H297.777V386.909H298.746V385.939ZM298.746 376.407V375.437H297.777V376.407H298.746ZM299.701 376.407H300.67V375.437H299.701V376.407ZM299.701 386.131H303.124V384.193H299.701V386.131ZM302.154 385.162V385.939H304.093V385.162H302.154ZM303.124 384.97H298.746V386.909H303.124V384.97ZM299.715 385.939V376.407H297.777V385.939H299.715ZM298.746 377.376H299.701V375.437H298.746V377.376ZM298.731 376.407V385.162H300.67V376.407H298.731Z" fill="#0D6EFD" fill-opacity="0.5"/>
</g>
<defs>
<filter id="filter0_d_6598_10583" x="0.649109" y="158.279" width="440.152" height="435.049" filterUnits="userSpaceOnUse" color-interpolation-filters="sRGB">
<feFlood flood-opacity="0" result="BackgroundImageFix"/>
<feColorMatrix in="SourceAlpha" type="matrix" values="0 0 0 0 0 0 0 0 0 0 0 0 0 0 0 0 0 0 127 0" result="hardAlpha"/>
<feOffset/>
<feGaussianBlur stdDeviation="50"/>
<feComposite in2="hardAlpha" operator="out"/>
<feColorMatrix type="matrix" values="0 0 0 0 0.0509804 0 0 0 0 0.431373 0 0 0 0 0.992157 0 0 0 0.5 0"/>
<feBlend mode="normal" in2="BackgroundImageFix" result="effect1_dropShadow_6598_10583"/>
<feBlend mode="normal" in="SourceGraphic" in2="effect1_dropShadow_6598_10583" result="shape"/>
</filter>
<filter id="filter1_b_6598_10583" x="187.469" y="320.482" width="312.606" height="222.35" filterUnits="userSpaceOnUse" color-interpolation-filters="sRGB">
<feFlood flood-opacity="0" result="BackgroundImageFix"/>
<feGaussianBlur in="BackgroundImageFix" stdDeviation="14.9161"/>
<feComposite in2="SourceAlpha" operator="in" result="effect1_backgroundBlur_6598_10583"/>
<feBlend mode="normal" in="SourceGraphic" in2="effect1_backgroundBlur_6598_10583" result="shape"/>
</filter>
</defs>
</svg>
