<svg width="545" height="503" viewBox="0 0 545 503" fill="none" xmlns="http://www.w3.org/2000/svg">
<path d="M279.709 93.1157C279.485 74.7979 279.709 92.5051 279.485 56.7854C288.722 56.7501 454.865 128.29 462.06 134.103C469.255 139.916 469.536 147.449 470.577 156.968C470.577 160.776 470.76 160.459 470.577 162.003C470.771 164.046 470.76 166.008 470.76 168V290.284C470.786 291.109 470.724 291.934 470.577 292.746C470.267 294.115 469.52 295.345 468.448 296.247C467.376 297.149 466.04 297.675 464.643 297.742H463.085H417.494C416.844 297.734 416.195 297.771 415.55 297.855C414.307 297.973 413.127 298.463 412.164 299.26C411.201 300.058 410.497 301.127 410.145 302.33C409.788 303.547 409.788 304.841 410.145 306.059C410.752 308.602 411.056 311.208 411.051 313.823C411.079 319.25 409.674 324.587 406.979 329.291C402.986 336.497 396.351 341.855 388.484 344.228C385.912 345.027 383.245 345.474 380.554 345.556C374.886 345.847 357.037 344.556 352.056 341.827C347.992 339.672 344.449 336.647 341.679 332.966C338.908 329.285 336.978 325.038 336.023 320.525C335.365 317.591 335.135 314.576 335.341 311.576C335.468 309.709 335.754 307.856 336.196 306.038C336.651 304.424 336.465 302.696 335.677 301.216C335.219 300.297 334.538 299.509 333.696 298.923C332.855 298.338 331.881 297.974 330.862 297.865C330.186 297.79 329.507 297.749 328.827 297.742H283.029H281.329C279.731 297.675 278.216 297.007 277.085 295.872C275.954 294.737 275.289 293.216 275.222 291.612C275.222 291.132 275.222 290.652 275.222 290.172V243.244C275.179 242.209 274.888 241.199 274.375 240.301C273.861 239.402 273.14 238.64 272.271 238.08C271.403 237.52 270.413 237.178 269.385 237.083C268.357 236.988 267.322 237.142 266.366 237.533C264.398 238.354 262.351 238.97 260.258 239.372C257.363 239.94 254.404 240.112 251.463 239.883C248.916 239.683 236.076 235.089 234.939 233.602C232.179 229.997 230.225 225.838 229.21 221.408C228.427 218.184 228.183 218.516 228.487 215.212C227.222 208.458 229.916 202.06 234.346 196.945C238.777 191.83 244.714 188.262 251.299 186.759C257.605 185.314 264.199 185.834 270.202 188.251C270.64 188.424 271.098 188.578 271.556 188.71C272.484 188.944 273.453 188.964 274.39 188.771C275.327 188.577 276.209 188.175 276.971 187.593C277.732 187.011 278.354 186.265 278.789 185.41C279.224 184.555 279.462 183.612 279.485 182.652C279.485 182.131 279.485 181.63 279.485 181.089V127.002C279.458 126.175 279.709 126.088 279.709 124.54C279.709 122.424 279.709 127.002 279.709 121.203C279.709 117.539 279.709 122.119 279.709 116.624V101.969V93.1157Z" fill="#0D6EFD" fill-opacity="0.15"/>
<mask id="path-2-inside-1_6603_11471" fill="white">
<path d="M356.301 501.286H277.648C276.872 501.311 276.096 501.261 275.33 501.136C273.836 500.822 272.491 500.018 271.508 498.851C270.526 497.683 269.963 496.22 269.909 494.696C269.909 494.331 269.909 493.966 269.909 493.622V436.229C269.88 435.404 269.949 434.579 270.113 433.771C270.321 432.878 270.708 432.037 271.249 431.298C271.791 430.559 272.476 429.936 273.264 429.468C274.052 429 274.926 428.696 275.835 428.574C276.743 428.452 277.667 428.515 278.55 428.758C279.076 428.909 279.624 429.123 280.096 429.316C285.948 431.601 292.326 432.188 298.498 431.011C304.669 429.834 310.383 426.94 314.983 422.662C319.523 418.461 322.81 413.086 324.481 407.131C326.152 401.177 326.142 394.877 324.451 388.928C322.76 382.979 319.455 377.615 314.902 373.429C310.349 369.243 304.726 366.4 298.656 365.215C292.377 363.965 285.87 364.577 279.935 366.975C278.913 367.405 277.822 367.648 276.714 367.694C274.952 367.709 273.254 367.037 271.979 365.821C270.705 364.605 269.954 362.939 269.887 361.179C269.887 360.814 269.887 360.449 269.887 360.105C269.887 340.935 269.887 321.765 269.887 302.594C269.868 301.999 269.896 301.403 269.973 300.812C270.199 299.211 270.984 297.741 272.191 296.664C273.398 295.587 274.947 294.973 276.564 294.93C276.972 294.93 277.391 294.93 277.799 294.93H332.985C333.761 294.914 334.537 294.968 335.304 295.091C337.03 295.423 338.56 296.413 339.571 297.85C340.582 299.288 340.996 301.062 340.725 302.798C340.618 303.431 340.467 304.054 340.349 304.676C338.138 315.904 340.832 325.822 348.454 334.323C353.42 339.933 360.197 343.625 367.604 344.756C373.068 345.667 378.673 345.208 383.917 343.42C389.16 341.633 393.877 338.572 397.647 334.513C401.416 330.453 404.119 325.522 405.513 320.161C406.908 314.801 406.95 309.178 405.637 303.796C405.294 302.509 405.294 301.155 405.637 299.868C406.028 298.484 406.848 297.26 407.978 296.371C409.108 295.482 410.491 294.974 411.927 294.92C412.346 294.92 412.754 294.92 413.162 294.92H473.973C474.691 294.902 475.41 294.953 476.12 295.07C477.664 295.345 479.066 296.142 480.093 297.328C481.119 298.515 481.706 300.018 481.755 301.585C481.755 301.864 481.755 302.143 481.755 302.412C481.755 354.57 481.755 406.726 481.755 458.877C481.851 468.54 478.545 477.929 472.416 485.4C466.145 493.328 457.207 498.706 447.265 500.535C444.612 501.046 441.916 501.301 439.214 501.297L356.301 501.286Z"/>
</mask>
<path d="M356.301 501.286H277.648C276.872 501.311 276.096 501.261 275.33 501.136C273.836 500.822 272.491 500.018 271.508 498.851C270.526 497.683 269.963 496.22 269.909 494.696C269.909 494.331 269.909 493.966 269.909 493.622V436.229C269.88 435.404 269.949 434.579 270.113 433.771C270.321 432.878 270.708 432.037 271.249 431.298C271.791 430.559 272.476 429.936 273.264 429.468C274.052 429 274.926 428.696 275.835 428.574C276.743 428.452 277.667 428.515 278.55 428.758C279.076 428.909 279.624 429.123 280.096 429.316C285.948 431.601 292.326 432.188 298.498 431.011C304.669 429.834 310.383 426.94 314.983 422.662C319.523 418.461 322.81 413.086 324.481 407.131C326.152 401.177 326.142 394.877 324.451 388.928C322.76 382.979 319.455 377.615 314.902 373.429C310.349 369.243 304.726 366.4 298.656 365.215C292.377 363.965 285.87 364.577 279.935 366.975C278.913 367.405 277.822 367.648 276.714 367.694C274.952 367.709 273.254 367.037 271.979 365.821C270.705 364.605 269.954 362.939 269.887 361.179C269.887 360.814 269.887 360.449 269.887 360.105C269.887 340.935 269.887 321.765 269.887 302.594C269.868 301.999 269.896 301.403 269.973 300.812C270.199 299.211 270.984 297.741 272.191 296.664C273.398 295.587 274.947 294.973 276.564 294.93C276.972 294.93 277.391 294.93 277.799 294.93H332.985C333.761 294.914 334.537 294.968 335.304 295.091C337.03 295.423 338.56 296.413 339.571 297.85C340.582 299.288 340.996 301.062 340.725 302.798C340.618 303.431 340.467 304.054 340.349 304.676C338.138 315.904 340.832 325.822 348.454 334.323C353.42 339.933 360.197 343.625 367.604 344.756C373.068 345.667 378.673 345.208 383.917 343.42C389.16 341.633 393.877 338.572 397.647 334.513C401.416 330.453 404.119 325.522 405.513 320.161C406.908 314.801 406.95 309.178 405.637 303.796C405.294 302.509 405.294 301.155 405.637 299.868C406.028 298.484 406.848 297.26 407.978 296.371C409.108 295.482 410.491 294.974 411.927 294.92C412.346 294.92 412.754 294.92 413.162 294.92H473.973C474.691 294.902 475.41 294.953 476.12 295.07C477.664 295.345 479.066 296.142 480.093 297.328C481.119 298.515 481.706 300.018 481.755 301.585C481.755 301.864 481.755 302.143 481.755 302.412C481.755 354.57 481.755 406.726 481.755 458.877C481.851 468.54 478.545 477.929 472.416 485.4C466.145 493.328 457.207 498.706 447.265 500.535C444.612 501.046 441.916 501.301 439.214 501.297L356.301 501.286Z" fill="#0D6EFD" fill-opacity="0.15"/>
<mask id="path-4-outside-2_6603_11471" maskUnits="userSpaceOnUse" x="73.3823" y="44.7715" width="209" height="263" fill="black">
<rect fill="white" x="73.3823" y="44.7715" width="209" height="263"/>
<path d="M83.3857 230.139C83.3857 206.842 83.3857 183.542 83.3857 160.239C83.2968 153.626 84.944 147.104 88.163 141.326C90.8715 136.309 94.6628 131.958 99.262 128.588C103.861 125.218 266.48 57.8422 272.08 56.7715C272.384 65.3199 272.071 80.2797 272.375 90.9647V112.641C272.375 119.052 272.375 116.61 272.375 122.105C272.375 126.379 272.327 125.545 272.375 127.132C272.375 127.388 272.375 127.633 272.375 127.889C272.375 145.583 272.375 163.277 272.375 180.97C272.398 181.556 272.362 182.142 272.267 182.72C272.091 183.607 271.726 184.445 271.194 185.176C270.663 185.907 269.979 186.514 269.19 186.954C268.4 187.395 267.525 187.658 266.623 187.727C265.722 187.795 264.817 187.666 263.97 187.35C262.612 186.8 261.224 186.328 259.812 185.934C253.236 184.18 246.263 184.664 239.993 187.311C233.723 189.957 227.945 195.041 225.182 200.551C222.419 206.061 220.702 212.318 221.368 218.579C221.989 224.99 224.618 231.041 228.878 235.872C233.138 240.702 238.814 244.066 245.097 245.484C251.054 246.87 257.29 246.421 262.987 244.196C263.643 243.922 264.32 243.702 265.012 243.537C265.9 243.374 266.814 243.407 267.688 243.633C268.562 243.86 269.377 244.274 270.074 244.848C270.772 245.422 271.335 246.141 271.726 246.956C272.629 248.838 272.335 251.057 272.335 253.077C272.335 270.771 272.335 273.368 272.335 291.062C272.368 291.856 272.282 292.651 272.08 293.421C271.736 294.593 271.054 295.638 270.118 296.423C269.182 297.208 268.035 297.699 266.821 297.834C266.231 297.834 265.651 297.923 265.061 297.923H220.809C220.258 297.923 219.718 297.874 219.177 297.844C218.296 297.768 217.442 297.504 216.672 297.07C215.903 296.635 215.235 296.04 214.715 295.325C214.195 294.611 213.834 293.792 213.658 292.926C213.481 292.06 213.493 291.166 213.692 290.305C213.957 289.027 214.252 287.769 214.41 286.481C215.4 278.662 207.242 270.762 202.574 264.412C197.905 258.062 190.976 253.748 183.218 252.361C175.475 250.968 167.493 252.612 160.931 256.95C154.368 261.288 149.729 267.989 147.978 275.658C146.896 280.244 140.81 285.021 141.931 289.597C142.24 290.688 142.29 291.835 142.078 292.949C141.81 294.232 141.139 295.396 140.163 296.272C139.187 297.147 137.957 297.687 136.652 297.815C136.033 297.815 135.404 297.893 134.775 297.893H90.7483C90.1191 297.893 89.49 297.893 88.8708 297.795C87.5499 297.64 86.315 297.06 85.351 296.144C84.387 295.228 83.7457 294.024 83.5233 292.713C83.422 292.01 83.3793 291.3 83.3955 290.59L83.3857 230.139Z"/>
</mask>
<path d="M83.3857 230.139C83.3857 206.842 83.3857 183.542 83.3857 160.239C83.2968 153.626 84.944 147.104 88.163 141.326C90.8715 136.309 94.6628 131.958 99.262 128.588C103.861 125.218 266.48 57.8422 272.08 56.7715C272.384 65.3199 272.071 80.2797 272.375 90.9647V112.641C272.375 119.052 272.375 116.61 272.375 122.105C272.375 126.379 272.327 125.545 272.375 127.132C272.375 127.388 272.375 127.633 272.375 127.889C272.375 145.583 272.375 163.277 272.375 180.97C272.398 181.556 272.362 182.142 272.267 182.72C272.091 183.607 271.726 184.445 271.194 185.176C270.663 185.907 269.979 186.514 269.19 186.954C268.4 187.395 267.525 187.658 266.623 187.727C265.722 187.795 264.817 187.666 263.97 187.35C262.612 186.8 261.224 186.328 259.812 185.934C253.236 184.18 246.263 184.664 239.993 187.311C233.723 189.957 227.945 195.041 225.182 200.551C222.419 206.061 220.702 212.318 221.368 218.579C221.989 224.99 224.618 231.041 228.878 235.872C233.138 240.702 238.814 244.066 245.097 245.484C251.054 246.87 257.29 246.421 262.987 244.196C263.643 243.922 264.32 243.702 265.012 243.537C265.9 243.374 266.814 243.407 267.688 243.633C268.562 243.86 269.377 244.274 270.074 244.848C270.772 245.422 271.335 246.141 271.726 246.956C272.629 248.838 272.335 251.057 272.335 253.077C272.335 270.771 272.335 273.368 272.335 291.062C272.368 291.856 272.282 292.651 272.08 293.421C271.736 294.593 271.054 295.638 270.118 296.423C269.182 297.208 268.035 297.699 266.821 297.834C266.231 297.834 265.651 297.923 265.061 297.923H220.809C220.258 297.923 219.718 297.874 219.177 297.844C218.296 297.768 217.442 297.504 216.672 297.07C215.903 296.635 215.235 296.04 214.715 295.325C214.195 294.611 213.834 293.792 213.658 292.926C213.481 292.06 213.493 291.166 213.692 290.305C213.957 289.027 214.252 287.769 214.41 286.481C215.4 278.662 207.242 270.762 202.574 264.412C197.905 258.062 190.976 253.748 183.218 252.361C175.475 250.968 167.493 252.612 160.931 256.95C154.368 261.288 149.729 267.989 147.978 275.658C146.896 280.244 140.81 285.021 141.931 289.597C142.24 290.688 142.29 291.835 142.078 292.949C141.81 294.232 141.139 295.396 140.163 296.272C139.187 297.147 137.957 297.687 136.652 297.815C136.033 297.815 135.404 297.893 134.775 297.893H90.7483C90.1191 297.893 89.49 297.893 88.8708 297.795C87.5499 297.64 86.315 297.06 85.351 296.144C84.387 295.228 83.7457 294.024 83.5233 292.713C83.422 292.01 83.3793 291.3 83.3955 290.59L83.3857 230.139Z" fill="#0D6EFD" fill-opacity="0.15"/>
<path fill-rule="evenodd" clip-rule="evenodd" d="M83.6499 451.718L83.6794 311.603C83.6658 310.849 83.7217 310.095 83.8465 309.352C84.0807 308.174 84.651 307.09 85.4883 306.23C86.3257 305.37 87.3942 304.771 88.5648 304.505C89.3066 304.365 90.061 304.302 90.8158 304.319H142.6C144.188 304.272 145.699 303.624 146.827 302.505C147.955 301.386 148.615 299.881 148.674 298.293C148.66 297.628 148.561 296.967 148.38 296.327C147.762 293.802 147.465 291.21 147.495 288.611C147.612 281.761 150.006 275.144 154.299 269.805C158.592 264.466 164.539 260.707 171.205 259.121C173.936 258.451 176.75 258.179 179.56 258.315C186.246 258.62 192.65 261.102 197.795 265.382C202.941 269.662 206.548 275.506 208.067 282.025C209.163 286.82 209.119 291.807 207.939 296.583C207.673 297.688 207.704 298.844 208.027 299.935C208.409 301.184 209.177 302.28 210.221 303.066C211.265 303.852 212.53 304.287 213.837 304.309H265.502C266.257 304.281 267.012 304.337 267.754 304.476C269.118 304.761 270.345 305.499 271.237 306.57C272.129 307.64 272.634 308.981 272.668 310.374V363.917C272.644 364.712 272.713 365.507 272.875 366.286C273.084 367.089 273.452 367.842 273.956 368.501C274.461 369.159 275.093 369.71 275.814 370.12C276.535 370.531 277.331 370.793 278.155 370.891C278.979 370.988 279.814 370.92 280.611 370.69C281.015 370.576 281.412 370.438 281.8 370.277C285.972 368.589 290.474 367.877 294.963 368.193C300.938 368.561 306.677 370.663 311.477 374.242C316.276 377.821 319.928 382.722 321.985 388.344C323.042 391.218 323.643 394.24 323.764 397.299C323.935 400.777 323.523 404.259 322.545 407.601C320.487 414.517 316.055 420.486 310.03 424.458C304.005 428.429 296.773 430.149 289.605 429.315C286.775 428.991 284.003 428.276 281.368 427.192C280.184 426.691 278.874 426.566 277.616 426.835C276.359 427.104 275.215 427.754 274.339 428.696C273.355 429.747 272.774 431.112 272.698 432.549V486.348C272.732 487.103 272.673 487.859 272.521 488.599C272.192 489.925 271.436 491.105 270.371 491.96C269.305 492.814 267.988 493.294 266.623 493.327H122.724C116.068 493.387 109.514 491.691 103.722 488.412C99.2762 485.984 95.3554 482.698 92.1868 478.745C89.0182 474.791 86.6645 470.249 85.262 465.381C84.3719 462.41 83.86 459.339 83.7383 456.239C83.6794 454.735 83.6499 453.231 83.6499 451.718ZM76.4746 467.964C75.3721 464.269 74.7377 460.451 74.5865 456.599C74.5228 454.975 74.491 453.351 74.491 451.718L74.5205 311.674C74.5029 310.388 74.6011 309.104 74.8138 307.836L74.8367 307.7L74.8636 307.564C75.4432 304.652 76.8542 301.969 78.9261 299.841C80.9979 297.713 83.6418 296.231 86.5381 295.574L86.6976 295.537L86.8583 295.507C88.1905 295.254 89.545 295.138 90.9006 295.16H138.814C138.471 292.96 138.311 290.734 138.337 288.504L138.337 288.479L138.337 288.454C138.489 279.57 141.594 270.99 147.161 264.066C152.721 257.15 160.423 252.279 169.053 250.218C172.629 249.344 176.313 248.99 179.99 249.166C188.666 249.565 196.975 252.786 203.652 258.34C210.333 263.897 215.015 271.484 216.987 279.947L216.991 279.965L216.995 279.983C218.135 284.97 218.32 290.115 217.554 295.15H265.36C266.727 295.113 268.095 295.222 269.441 295.474L269.535 295.492L269.629 295.511C273.014 296.219 277.742 298.05 279.956 300.706C282.169 303.363 281.738 306.689 281.825 310.146L281.827 310.26V360.574C286.269 359.25 290.923 358.731 295.567 359.054C303.305 359.538 310.736 362.264 316.952 366.9C323.178 371.543 327.915 377.9 330.585 385.193C331.965 388.948 332.751 392.896 332.914 396.893C333.13 401.377 332.596 405.865 331.335 410.174L331.33 410.194L331.323 410.214C328.65 419.196 322.895 426.947 315.071 432.105C307.251 437.26 297.863 439.494 288.559 438.414C286.288 438.154 284.046 437.699 281.857 437.058V486.175C281.903 487.606 281.781 489.038 281.493 490.442L281.455 490.625L281.41 490.807C280.597 494.08 278.731 496.996 276.1 499.106C273.468 501.215 270.216 502.402 266.844 502.484L266.734 502.486H122.763C114.536 502.552 106.436 500.459 99.2706 496.417C93.7873 493.411 88.9513 489.352 85.0402 484.473C81.1248 479.588 78.2138 473.977 76.4746 467.964Z" fill="#FCFDFD"/>
<path opacity="0.8" d="M83.6785 384.343V311.602C83.6649 310.848 83.7209 310.095 83.8456 309.351C84.0799 308.174 84.6502 307.089 85.4875 306.229C86.3248 305.369 87.3934 304.77 88.564 304.505C89.3058 304.364 90.0602 304.302 90.815 304.318H141.223C141.685 304.318 142.147 304.318 142.599 304.318C144.187 304.272 145.698 303.624 146.826 302.505C147.954 301.386 148.614 299.88 148.674 298.292C148.659 297.627 148.56 296.967 148.379 296.326C147.761 293.802 147.464 291.209 147.494 288.61C147.611 281.76 150.005 275.144 154.298 269.804C158.591 264.465 164.539 260.706 171.204 259.12C173.935 258.45 176.75 258.178 179.559 258.314C186.245 258.62 192.649 261.101 197.795 265.381C202.941 269.661 206.547 275.505 208.066 282.024C209.162 286.82 209.118 291.806 207.938 296.582C207.672 297.688 207.703 298.844 208.026 299.934C208.408 301.183 209.176 302.28 210.22 303.065C211.264 303.851 212.53 304.286 213.836 304.308H265.502C266.256 304.28 267.011 304.336 267.753 304.475C269.117 304.761 270.344 305.498 271.236 306.569C272.129 307.64 272.633 308.98 272.668 310.373C272.668 310.875 272.668 311.356 272.668 311.877V363.917C272.643 364.712 272.712 365.507 272.874 366.286C273.083 367.089 273.451 367.841 273.955 368.5C274.46 369.159 275.092 369.709 275.813 370.12C276.534 370.53 277.33 370.792 278.154 370.89C278.978 370.988 279.813 370.92 280.61 370.689C281.014 370.575 281.412 370.437 281.8 370.276C285.971 368.589 290.473 367.876 294.962 368.193C300.938 368.56 306.676 370.662 311.476 374.241C316.275 377.82 319.927 382.721 321.984 388.344C323.042 391.217 323.642 394.239 323.763 397.299C323.934 400.777 323.522 404.259 322.544 407.601C320.486 414.517 316.054 420.486 310.029 424.457C304.005 428.429 296.772 430.149 289.604 429.315C286.774 428.99 284.002 428.276 281.367 427.191C280.183 426.69 278.873 426.566 277.616 426.835C276.358 427.104 275.214 427.753 274.339 428.695C273.354 429.746 272.773 431.111 272.697 432.549C272.697 433.05 272.697 433.532 272.697 434.053V486.348C272.732 487.102 272.672 487.858 272.52 488.599C272.191 489.924 271.435 491.105 270.37 491.959C269.304 492.813 267.988 493.294 266.622 493.327H122.723C116.067 493.386 109.514 491.691 103.722 488.412C99.2754 485.983 95.3546 482.697 92.186 478.744C89.0173 474.791 86.6637 470.249 85.2611 465.38C84.3711 462.409 83.8592 459.338 83.7375 456.239C83.6785 454.735 83.649 453.231 83.649 451.717L83.6785 384.343Z" fill="#0D6EFD"/>
<path d="M304.099 13.1582L510.059 110.11C518.321 113.999 515.549 126.393 506.419 126.393H501.426C496.579 126.393 491.785 125.38 487.352 123.42L292.248 37.1571C281.982 32.618 270.288 32.5664 259.982 37.0147L59.5106 123.543C55.1554 125.423 50.4619 126.393 45.7183 126.393H39.2164C30.0355 126.393 27.3108 113.893 35.6588 110.072L248.054 12.8578C265.869 4.70378 286.372 4.81367 304.099 13.1582Z" fill="#0D6EFD" fill-opacity="0.15"/>
</svg>
