<svg width="254" height="163" viewBox="0 0 254 163" fill="none" xmlns="http://www.w3.org/2000/svg">
<g filter="url(#filter0_b_6467_10548)">
<path d="M0.301086 0.314453L19.5232 4.15888C20.6399 4.38221 21.7759 4.4947 22.9146 4.4947H235.95C245.5 4.4947 253.242 12.237 253.242 21.7876V145.707C253.242 155.258 245.5 163 235.95 163H21.7742C12.2236 163 4.48133 155.258 4.48133 145.707V23.893C4.48133 22.8072 4.37907 21.7239 4.17591 20.6573L0.301086 0.314453Z" fill="#052034" fill-opacity="0.25"/>
<path d="M4.59456 20.5775L0.838166 0.856483L19.4396 4.57678C20.5838 4.80561 21.7478 4.92087 22.9146 4.92087H235.95C245.265 4.92087 252.816 12.4724 252.816 21.7876V145.707C252.816 155.023 245.265 162.574 235.95 162.574H21.7742C12.459 162.574 4.9075 155.023 4.9075 145.707V23.893C4.9075 22.7805 4.80272 21.6704 4.59456 20.5775Z" stroke="#0D6EFD" stroke-opacity="0.5" stroke-width="0.852347"/>
</g>
<path opacity="0.75" d="M120.619 103.651L117.564 109.474V113.184H116.61V109.474L113.528 103.651H114.605L117.087 108.601L119.556 103.651H120.619ZM122.494 104.333C122.303 104.333 122.139 104.265 122.003 104.128C121.866 103.992 121.798 103.824 121.798 103.624C121.798 103.424 121.866 103.26 122.003 103.133C122.139 102.996 122.303 102.928 122.494 102.928C122.685 102.928 122.848 102.996 122.985 103.133C123.121 103.26 123.189 103.424 123.189 103.624C123.189 103.824 123.121 103.992 122.985 104.128C122.848 104.265 122.685 104.333 122.494 104.333ZM122.971 105.737V113.184H122.016V105.737H122.971ZM131.87 109.079C131.87 109.406 131.861 109.656 131.843 109.829H125.665C125.692 110.392 125.828 110.874 126.074 111.274C126.319 111.674 126.642 111.979 127.042 112.188C127.442 112.388 127.879 112.488 128.351 112.488C128.97 112.488 129.488 112.338 129.906 112.038C130.333 111.738 130.615 111.333 130.752 110.824H131.761C131.579 111.552 131.188 112.147 130.588 112.611C129.997 113.065 129.251 113.293 128.351 113.293C127.651 113.293 127.024 113.138 126.469 112.829C125.915 112.511 125.478 112.065 125.16 111.493C124.851 110.911 124.696 110.233 124.696 109.461C124.696 108.688 124.851 108.01 125.16 107.429C125.469 106.847 125.901 106.401 126.456 106.092C127.01 105.783 127.642 105.628 128.351 105.628C129.061 105.628 129.679 105.783 130.206 106.092C130.742 106.401 131.152 106.819 131.433 107.347C131.724 107.865 131.87 108.442 131.87 109.079ZM130.902 109.051C130.911 108.497 130.797 108.024 130.561 107.633C130.333 107.242 130.02 106.947 129.62 106.747C129.22 106.547 128.783 106.447 128.31 106.447C127.601 106.447 126.997 106.674 126.497 107.129C125.997 107.583 125.719 108.224 125.665 109.051H130.902ZM134.571 103.092V113.184H133.616V103.092H134.571ZM136.296 109.447C136.296 108.683 136.451 108.015 136.76 107.442C137.069 106.86 137.492 106.415 138.028 106.106C138.574 105.787 139.188 105.628 139.869 105.628C140.524 105.628 141.115 105.787 141.642 106.106C142.17 106.424 142.556 106.838 142.802 107.347V103.092H143.756V113.184H142.802V111.52C142.574 112.038 142.201 112.465 141.683 112.802C141.165 113.129 140.556 113.293 139.856 113.293C139.174 113.293 138.56 113.134 138.015 112.815C137.478 112.497 137.056 112.047 136.746 111.465C136.446 110.883 136.296 110.211 136.296 109.447ZM142.802 109.461C142.802 108.86 142.679 108.333 142.433 107.879C142.188 107.424 141.851 107.074 141.424 106.828C141.006 106.583 140.542 106.46 140.033 106.46C139.506 106.46 139.033 106.578 138.615 106.815C138.197 107.051 137.865 107.397 137.619 107.851C137.383 108.297 137.265 108.829 137.265 109.447C137.265 110.056 137.383 110.592 137.619 111.056C137.865 111.511 138.197 111.861 138.615 112.106C139.033 112.343 139.506 112.461 140.033 112.461C140.542 112.461 141.006 112.338 141.424 112.093C141.851 111.847 142.188 111.497 142.433 111.042C142.679 110.588 142.802 110.061 142.802 109.461Z" fill="#CCD2D7"/>
<path d="M114.087 131.569V128.491H119.839V145.889H116.402V131.569H114.087ZM124.189 142.118C125.717 140.845 126.934 139.787 127.841 138.944C128.748 138.085 129.503 137.194 130.108 136.271C130.713 135.348 131.015 134.441 131.015 133.55C131.015 132.739 130.824 132.102 130.442 131.641C130.06 131.179 129.472 130.949 128.676 130.949C127.881 130.949 127.268 131.219 126.838 131.76C126.409 132.285 126.186 133.009 126.17 133.932H122.924C122.988 132.023 123.553 130.575 124.619 129.588C125.701 128.602 127.069 128.109 128.724 128.109C130.538 128.109 131.93 128.594 132.9 129.565C133.871 130.519 134.356 131.784 134.356 133.359C134.356 134.6 134.022 135.786 133.354 136.915C132.686 138.045 131.922 139.031 131.063 139.875C130.204 140.702 129.082 141.704 127.698 142.882H134.738V145.65H122.948V143.168L124.189 142.118ZM138.705 146.056C138.1 146.056 137.599 145.873 137.201 145.507C136.82 145.125 136.629 144.656 136.629 144.099C136.629 143.542 136.82 143.08 137.201 142.715C137.599 142.333 138.1 142.142 138.705 142.142C139.294 142.142 139.779 142.333 140.161 142.715C140.543 143.08 140.734 143.542 140.734 144.099C140.734 144.656 140.543 145.125 140.161 145.507C139.779 145.873 139.294 146.056 138.705 146.056ZM154.737 131.378H147.005V135.459C147.339 135.046 147.816 134.712 148.437 134.457C149.057 134.187 149.717 134.051 150.417 134.051C151.69 134.051 152.732 134.33 153.544 134.887C154.355 135.443 154.944 136.159 155.31 137.034C155.676 137.894 155.859 138.816 155.859 139.803C155.859 141.633 155.334 143.104 154.284 144.218C153.249 145.332 151.77 145.889 149.845 145.889C148.031 145.889 146.583 145.435 145.501 144.528C144.419 143.621 143.807 142.436 143.663 140.972H146.909C147.052 141.609 147.371 142.118 147.864 142.5C148.373 142.882 149.017 143.073 149.797 143.073C150.736 143.073 151.444 142.778 151.921 142.189C152.398 141.601 152.637 140.821 152.637 139.851C152.637 138.864 152.39 138.116 151.897 137.607C151.42 137.082 150.712 136.82 149.773 136.82C149.105 136.82 148.548 136.987 148.102 137.321C147.657 137.655 147.339 138.1 147.148 138.657H143.95V128.443H154.737V131.378ZM158.02 132.763C158.02 131.553 158.37 130.607 159.07 129.922C159.786 129.238 160.701 128.896 161.815 128.896C162.928 128.896 163.835 129.238 164.535 129.922C165.251 130.607 165.609 131.553 165.609 132.763C165.609 133.988 165.251 134.942 164.535 135.626C163.835 136.311 162.928 136.653 161.815 136.653C160.701 136.653 159.786 136.311 159.07 135.626C158.37 134.942 158.02 133.988 158.02 132.763ZM173.342 129.183L163.963 145.889H160.717L170.072 129.183H173.342ZM161.791 130.901C160.916 130.901 160.478 131.522 160.478 132.763C160.478 134.019 160.916 134.648 161.791 134.648C162.22 134.648 162.554 134.497 162.793 134.194C163.032 133.876 163.151 133.399 163.151 132.763C163.151 131.522 162.698 130.901 161.791 130.901ZM168.497 142.285C168.497 141.06 168.847 140.113 169.547 139.445C170.263 138.761 171.178 138.419 172.292 138.419C173.405 138.419 174.304 138.761 174.989 139.445C175.689 140.113 176.039 141.06 176.039 142.285C176.039 143.51 175.689 144.465 174.989 145.149C174.304 145.833 173.405 146.175 172.292 146.175C171.162 146.175 170.247 145.833 169.547 145.149C168.847 144.465 168.497 143.51 168.497 142.285ZM172.268 140.423C171.361 140.423 170.907 141.044 170.907 142.285C170.907 143.542 171.361 144.17 172.268 144.17C173.159 144.17 173.604 143.542 173.604 142.285C173.604 141.044 173.159 140.423 172.268 140.423Z" fill="#0D6EFD"/>
<path opacity="0.75" d="M29.1453 103.118V109.118C29.1453 110.064 29.3681 110.764 29.8136 111.218C30.2682 111.673 30.8864 111.9 31.6683 111.9C32.4502 111.9 33.0593 111.678 33.4957 111.232C33.9412 110.777 34.164 110.073 34.164 109.118V103.118H35.1186V109.105C35.1186 110.314 34.7958 111.223 34.1503 111.832C33.5139 112.441 32.682 112.746 31.6547 112.746C30.6273 112.746 29.7909 112.441 29.1453 111.832C28.5089 111.223 28.1907 110.314 28.1907 109.105V103.118H29.1453ZM40.7391 105.068C41.6301 105.068 42.3574 105.345 42.9211 105.9C43.4848 106.445 43.7666 107.241 43.7666 108.286V112.65H42.8256V108.395C42.8256 107.586 42.6211 106.968 42.2119 106.541C41.8119 106.113 41.2619 105.9 40.5618 105.9C39.8436 105.9 39.2708 106.127 38.8435 106.582C38.4162 107.036 38.2025 107.705 38.2025 108.586V112.65H37.2479V105.204H38.2025V106.473C38.4389 106.018 38.7798 105.673 39.2253 105.436C39.6708 105.191 40.1754 105.068 40.7391 105.068ZM46.3552 103.8C46.1643 103.8 46.0006 103.731 45.8642 103.595C45.7279 103.459 45.6597 103.29 45.6597 103.09C45.6597 102.89 45.7279 102.727 45.8642 102.6C46.0006 102.463 46.1643 102.395 46.3552 102.395C46.5461 102.395 46.7098 102.463 46.8462 102.6C46.9825 102.727 47.0507 102.89 47.0507 103.09C47.0507 103.29 46.9825 103.459 46.8462 103.595C46.7098 103.731 46.5461 103.8 46.3552 103.8ZM46.8325 105.204V112.65H45.8779V105.204H46.8325ZM50.2353 106.009V110.632C50.2353 111.087 50.3217 111.4 50.4944 111.573C50.6672 111.746 50.9717 111.832 51.4081 111.832H52.2809V112.65H51.2581C50.5853 112.65 50.0853 112.496 49.758 112.187C49.4307 111.869 49.267 111.35 49.267 110.632V106.009H48.2306V105.204H49.267V103.336H50.2353V105.204H52.2809V106.009H50.2353ZM58.5387 106.841C58.775 106.341 59.1478 105.927 59.6569 105.6C60.1752 105.263 60.7889 105.095 61.498 105.095C62.1708 105.095 62.7754 105.254 63.3118 105.572C63.8573 105.882 64.2801 106.327 64.5801 106.909C64.8892 107.482 65.0438 108.15 65.0438 108.914C65.0438 109.677 64.8892 110.35 64.5801 110.932C64.2801 111.514 63.8573 111.964 63.3118 112.282C62.7754 112.6 62.1708 112.759 61.498 112.759C60.7979 112.759 60.1888 112.596 59.6706 112.269C59.1523 111.932 58.775 111.514 58.5387 111.014V116.169H57.5977V105.204H58.5387V106.841ZM64.0755 108.914C64.0755 108.295 63.9528 107.764 63.7073 107.318C63.4709 106.864 63.1436 106.518 62.7254 106.282C62.3072 106.045 61.8344 105.927 61.3071 105.927C60.7979 105.927 60.3297 106.05 59.9024 106.295C59.4842 106.541 59.1523 106.891 58.9069 107.345C58.6614 107.8 58.5387 108.327 58.5387 108.927C58.5387 109.527 58.6614 110.055 58.9069 110.509C59.1523 110.964 59.4842 111.314 59.9024 111.559C60.3297 111.805 60.7979 111.928 61.3071 111.928C61.8344 111.928 62.3072 111.809 62.7254 111.573C63.1436 111.328 63.4709 110.978 63.7073 110.523C63.9528 110.059 64.0755 109.523 64.0755 108.914ZM67.755 106.527C67.9641 106.063 68.2823 105.704 68.7096 105.45C69.146 105.195 69.6779 105.068 70.3052 105.068V106.063H70.0461C69.3551 106.063 68.8005 106.25 68.3823 106.623C67.9641 106.995 67.755 107.618 67.755 108.491V112.65H66.8004V105.204H67.755V106.527ZM72.2186 103.8C72.0277 103.8 71.864 103.731 71.7277 103.595C71.5913 103.459 71.5231 103.29 71.5231 103.09C71.5231 102.89 71.5913 102.727 71.7277 102.6C71.864 102.463 72.0277 102.395 72.2186 102.395C72.4095 102.395 72.5732 102.463 72.7096 102.6C72.8459 102.727 72.9141 102.89 72.9141 103.09C72.9141 103.29 72.8459 103.459 72.7096 103.595C72.5732 103.731 72.4095 103.8 72.2186 103.8ZM72.6959 105.204V112.65H71.7413V105.204H72.6959ZM74.4213 108.927C74.4213 108.155 74.5759 107.482 74.885 106.909C75.1941 106.327 75.6214 105.882 76.1669 105.572C76.7124 105.254 77.3352 105.095 78.0353 105.095C78.9535 105.095 79.7081 105.322 80.2991 105.777C80.8991 106.232 81.2855 106.85 81.4583 107.632H80.4355C80.3082 107.095 80.0309 106.677 79.6036 106.377C79.1854 106.068 78.6626 105.913 78.0353 105.913C77.5352 105.913 77.0852 106.027 76.6851 106.254C76.2851 106.482 75.9669 106.823 75.7305 107.277C75.5032 107.723 75.3896 108.273 75.3896 108.927C75.3896 109.582 75.5032 110.137 75.7305 110.591C75.9669 111.046 76.2851 111.387 76.6851 111.614C77.0852 111.841 77.5352 111.955 78.0353 111.955C78.6626 111.955 79.1854 111.805 79.6036 111.505C80.0309 111.196 80.3082 110.768 80.4355 110.223H81.4583C81.2855 110.987 80.8991 111.6 80.2991 112.064C79.699 112.528 78.9444 112.759 78.0353 112.759C77.3352 112.759 76.7124 112.605 76.1669 112.296C75.6214 111.978 75.1941 111.532 74.885 110.959C74.5759 110.377 74.4213 109.7 74.4213 108.927ZM89.9583 108.545C89.9583 108.873 89.9492 109.123 89.931 109.296H83.7532C83.7805 109.859 83.9169 110.341 84.1624 110.741C84.4078 111.141 84.7306 111.446 85.1306 111.655C85.5307 111.855 85.9671 111.955 86.4398 111.955C87.0581 111.955 87.5763 111.805 87.9945 111.505C88.4218 111.205 88.7037 110.8 88.84 110.291H89.8492C89.6674 111.018 89.2764 111.614 88.6764 112.078C88.0854 112.532 87.3399 112.759 86.4398 112.759C85.7398 112.759 85.1124 112.605 84.5578 112.296C84.0032 111.978 83.5668 111.532 83.2486 110.959C82.9395 110.377 82.785 109.7 82.785 108.927C82.785 108.155 82.9395 107.477 83.2486 106.895C83.5578 106.313 83.9896 105.868 84.5442 105.559C85.0988 105.25 85.7307 105.095 86.4398 105.095C87.149 105.095 87.7672 105.25 88.2945 105.559C88.8309 105.868 89.2401 106.286 89.5219 106.814C89.8128 107.332 89.9583 107.909 89.9583 108.545ZM88.99 108.518C88.9991 107.964 88.8855 107.491 88.6491 107.1C88.4218 106.709 88.1082 106.413 87.7081 106.213C87.3081 106.013 86.8717 105.913 86.3989 105.913C85.6898 105.913 85.0852 106.141 84.5851 106.595C84.0851 107.05 83.8078 107.691 83.7532 108.518H88.99Z" fill="#CCD2D7"/>
<path d="M39.6463 136.678C39.6463 138.046 39.2087 139.176 38.3337 140.067C37.4586 140.942 36.2892 141.467 34.8254 141.642V143.742H33.2264V141.666C31.8899 141.57 30.7444 141.196 29.7897 140.544C28.8351 139.892 28.1509 139.009 27.7373 137.895L30.5773 136.248C31.0864 137.537 31.9695 138.261 33.2264 138.42V134.291H33.2025L33.1548 134.267C32.1842 133.917 31.3171 133.504 30.5534 133.026C29.2647 132.215 28.5726 130.926 28.4771 129.16C28.4771 127.744 28.9306 126.622 29.8375 125.795C30.7921 124.936 31.9217 124.451 33.2264 124.339V122.263H34.8254V124.387C36.9892 124.657 38.5166 125.779 39.4076 127.752L36.6392 129.375C36.2573 128.42 35.6527 127.84 34.8254 127.633V131.618C36.3687 132.239 37.3631 132.708 37.8086 133.026C39.0337 133.917 39.6463 135.134 39.6463 136.678ZM31.7467 129.184C31.7467 129.534 31.8581 129.844 32.0808 130.115C32.3036 130.369 32.6854 130.632 33.2264 130.902V127.561C32.2399 127.752 31.7467 128.293 31.7467 129.184ZM34.8254 134.936V138.372C35.8437 138.165 36.3528 137.609 36.3528 136.702C36.3528 135.986 35.8437 135.397 34.8254 134.936ZM40.5013 126.201L44.8926 124.649H47.7565V141.355H44.463V128.134L41.3128 129.017L40.5013 126.201ZM56.9858 141.69C54.9016 141.69 53.2628 140.902 52.0695 139.327C50.8921 137.72 50.3034 135.612 50.3034 133.002C50.3034 130.393 50.8921 128.293 52.0695 126.702C53.2628 125.111 54.9016 124.315 56.9858 124.315C59.1019 124.315 60.7407 125.111 61.9022 126.702C63.0796 128.293 63.6682 130.393 63.6682 133.002C63.6682 135.612 63.0796 137.72 61.9022 139.327C60.7407 140.902 59.1019 141.69 56.9858 141.69ZM60.3986 133.002C60.3986 131.22 60.1043 129.86 59.5156 128.921C58.9428 127.983 58.0996 127.513 56.9858 127.513C55.8721 127.513 55.0288 127.983 54.4561 128.921C53.8833 129.86 53.5969 131.22 53.5969 133.002C53.5969 134.784 53.8833 136.145 54.4561 137.084C55.0288 138.006 55.8721 138.468 56.9858 138.468C58.0996 138.468 58.9428 137.998 59.5156 137.06C60.1043 136.121 60.3986 134.769 60.3986 133.002ZM72.0185 141.69C69.9342 141.69 68.2954 140.902 67.1021 139.327C65.9247 137.72 65.336 135.612 65.336 133.002C65.336 130.393 65.9247 128.293 67.1021 126.702C68.2954 125.111 69.9342 124.315 72.0185 124.315C74.1345 124.315 75.7733 125.111 76.9348 126.702C78.1122 128.293 78.7009 130.393 78.7009 133.002C78.7009 135.612 78.1122 137.72 76.9348 139.327C75.7733 140.902 74.1345 141.69 72.0185 141.69ZM75.4313 133.002C75.4313 131.22 75.1369 129.86 74.5482 128.921C73.9754 127.983 73.1322 127.513 72.0185 127.513C70.9047 127.513 70.0615 127.983 69.4887 128.921C68.9159 129.86 68.6295 131.22 68.6295 133.002C68.6295 134.784 68.9159 136.145 69.4887 137.084C70.0615 138.006 70.9047 138.468 72.0185 138.468C73.1322 138.468 73.9754 137.998 74.5482 137.06C75.1369 136.121 75.4313 134.769 75.4313 133.002Z" fill="#0D6EFD"/>
<path opacity="0.15" fill-rule="evenodd" clip-rule="evenodd" d="M26.7294 85.2914C26.7294 85.056 26.9152 84.8652 27.1443 84.8652H229.173C229.402 84.8652 229.588 85.056 229.588 85.2914C229.588 85.5268 229.402 85.7176 229.173 85.7176H27.1443C26.9152 85.7176 26.7294 85.5268 26.7294 85.2914Z" fill="#99A6AF" stroke="#0D6EFD" stroke-opacity="0.5" stroke-width="0.852347" stroke-linecap="round"/>
<path d="M37.8266 59.1475C38.7653 59.3225 39.537 59.7918 40.1416 60.5556C40.7462 61.3193 41.0485 62.1943 41.0485 63.1808C41.0485 64.0718 40.8258 64.8593 40.3803 65.5435C39.9507 66.2117 39.3222 66.7368 38.4949 67.1186C37.6675 67.5005 36.689 67.6914 35.5594 67.6914H28.3758V51.0331H35.2491C36.3788 51.0331 37.3493 51.2161 38.1608 51.582C38.9881 51.948 39.6086 52.4571 40.0223 53.1094C40.4519 53.7618 40.6667 54.5016 40.6667 55.329C40.6667 56.2995 40.4041 57.1109 39.8791 57.7633C39.3699 58.4156 38.6858 58.877 37.8266 59.1475ZM31.717 57.9065H34.7718C35.5673 57.9065 36.1799 57.7314 36.6095 57.3814C37.0391 57.0155 37.2539 56.4984 37.2539 55.8301C37.2539 55.1619 37.0391 54.6448 36.6095 54.2789C36.1799 53.9129 35.5673 53.73 34.7718 53.73H31.717V57.9065ZM35.0821 64.9707C35.8935 64.9707 36.522 64.7798 36.9675 64.3979C37.4289 64.0161 37.6596 63.4751 37.6596 62.7751C37.6596 62.0591 37.4209 61.5022 36.9436 61.1045C36.4663 60.6908 35.8219 60.484 35.0105 60.484H31.717V64.9707H35.0821ZM45.4059 52.8947C44.8172 52.8947 44.324 52.7117 43.9262 52.3457C43.5443 51.9639 43.3534 51.4945 43.3534 50.9377C43.3534 50.3808 43.5443 49.9194 43.9262 49.5535C44.324 49.1716 44.8172 48.9807 45.4059 48.9807C45.9946 48.9807 46.4798 49.1716 46.8617 49.5535C47.2594 49.9194 47.4583 50.3808 47.4583 50.9377C47.4583 51.4945 47.2594 51.9639 46.8617 52.3457C46.4798 52.7117 45.9946 52.8947 45.4059 52.8947ZM47.0526 54.4698V67.6914H43.7114V54.4698H47.0526ZM55.4132 67.9062C54.3313 67.9062 53.3608 67.7153 52.5016 67.3334C51.6425 66.9357 50.9583 66.4027 50.4492 65.7344C49.956 65.0662 49.6855 64.3263 49.6377 63.5149H53.0028C53.0665 64.024 53.3131 64.4457 53.7426 64.7798C54.1881 65.1139 54.7371 65.281 55.3894 65.281C56.0258 65.281 56.519 65.1537 56.8691 64.8991C57.235 64.6445 57.418 64.3184 57.418 63.9206C57.418 63.491 57.1952 63.1728 56.7497 62.966C56.3201 62.7432 55.628 62.5046 54.6734 62.25C53.687 62.0114 52.8755 61.7647 52.2391 61.5102C51.6186 61.2556 51.0776 60.8658 50.6162 60.3408C50.1707 59.8157 49.948 59.1077 49.948 58.2167C49.948 57.4848 50.1548 56.8166 50.5685 56.212C50.9981 55.6074 51.6027 55.1301 52.3823 54.78C53.1778 54.43 54.1086 54.255 55.1746 54.255C56.7497 54.255 58.0067 54.6528 58.9454 55.4483C59.8841 56.2279 60.4012 57.2859 60.4966 58.6224H57.2986C57.2509 58.0974 57.0282 57.6837 56.6304 57.3814C56.2485 57.0632 55.7315 56.9041 55.0791 56.9041C54.4745 56.9041 54.0052 57.0155 53.671 57.2382C53.3528 57.461 53.1937 57.7712 53.1937 58.169C53.1937 58.6145 53.4165 58.9565 53.862 59.1952C54.3075 59.418 54.9996 59.6487 55.9383 59.8873C56.8929 60.126 57.6805 60.3726 58.301 60.6271C58.9215 60.8817 59.4545 61.2795 59.9 61.8204C60.3614 62.3455 60.6001 63.0455 60.616 63.9206C60.616 64.6843 60.4012 65.3685 59.9716 65.9731C59.5579 66.5777 58.9533 67.055 58.1578 67.405C57.3782 67.7391 56.4633 67.9062 55.4132 67.9062ZM62.4995 61.0806C62.4995 59.7123 62.7779 58.519 63.3348 57.5007C63.8917 56.4666 64.6633 55.671 65.6498 55.1142C66.6362 54.5414 67.7659 54.255 69.0387 54.255C70.6775 54.255 72.0299 54.6687 73.0959 55.496C74.1778 56.3075 74.9017 57.453 75.2677 58.9327H71.6639C71.473 58.3599 71.1469 57.9144 70.6855 57.5962C70.24 57.2621 69.6831 57.095 69.0149 57.095C68.0602 57.095 67.3045 57.4451 66.7476 58.1451C66.1907 58.8293 65.9123 59.8078 65.9123 61.0806C65.9123 62.3375 66.1907 63.316 66.7476 64.0161C67.3045 64.7002 68.0602 65.0423 69.0149 65.0423C70.3672 65.0423 71.2503 64.4377 71.6639 63.2285H75.2677C74.9017 64.6605 74.1778 65.7981 73.0959 66.6413C72.014 67.4846 70.6616 67.9062 69.0387 67.9062C67.7659 67.9062 66.6362 67.6278 65.6498 67.0709C64.6633 66.4981 63.8917 65.7026 63.3348 64.6843C62.7779 63.6501 62.4995 62.4489 62.4995 61.0806ZM76.8562 61.0329C76.8562 59.6964 77.1188 58.5111 77.6438 57.4769C78.1848 56.4427 78.9087 55.6472 79.8156 55.0903C80.7384 54.5334 81.7646 54.255 82.8943 54.255C83.8807 54.255 84.7399 54.4539 85.4718 54.8516C86.2196 55.2494 86.8162 55.7506 87.2617 56.3552V54.4698H90.6268V67.6914H87.2617V65.7583C86.8321 66.3788 86.2355 66.8959 85.4718 67.3096C84.724 67.7073 83.8568 67.9062 82.8704 67.9062C81.7567 67.9062 80.7384 67.6198 79.8156 67.047C78.9087 66.4743 78.1848 65.6708 77.6438 64.6366C77.1188 63.5865 76.8562 62.3853 76.8562 61.0329ZM87.2617 61.0806C87.2617 60.2692 87.1026 59.5771 86.7844 59.0043C86.4662 58.4156 86.0366 57.9701 85.4956 57.6678C84.9547 57.3496 84.3739 57.1905 83.7534 57.1905C83.1329 57.1905 82.5601 57.3416 82.0351 57.6439C81.5101 57.9462 81.0805 58.3917 80.7463 58.9804C80.4281 59.5532 80.269 60.2373 80.269 61.0329C80.269 61.8284 80.4281 62.5285 80.7463 63.1331C81.0805 63.7217 81.5101 64.1752 82.0351 64.4934C82.5761 64.8116 83.1488 64.9707 83.7534 64.9707C84.3739 64.9707 84.9547 64.8196 85.4956 64.5173C86.0366 64.1991 86.4662 63.7536 86.7844 63.1808C87.1026 62.5921 87.2617 61.892 87.2617 61.0806ZM106.539 54.4698L98.3529 73.9442H94.7969L97.6608 67.3573L92.3626 54.4698H96.1095L99.5223 63.7058L102.983 54.4698H106.539ZM115.667 54.2789C117.242 54.2789 118.515 54.78 119.485 55.7824C120.456 56.7689 120.941 58.1531 120.941 59.935V67.6914H117.6V60.3885C117.6 59.3384 117.337 58.5349 116.812 57.9781C116.287 57.4053 115.571 57.1189 114.664 57.1189C113.742 57.1189 113.01 57.4053 112.469 57.9781C111.944 58.5349 111.681 59.3384 111.681 60.3885V67.6914H108.34V54.4698H111.681V56.1165C112.127 55.5437 112.691 55.0983 113.376 54.78C114.076 54.4459 114.839 54.2789 115.667 54.2789ZM136.409 60.7942C136.409 61.2715 136.377 61.7011 136.314 62.083H126.648C126.728 63.0376 127.062 63.7854 127.651 64.3263C128.239 64.8673 128.963 65.1378 129.822 65.1378C131.063 65.1378 131.946 64.6048 132.471 63.5388H136.075C135.693 64.8116 134.961 65.8617 133.879 66.689C132.798 67.5005 131.469 67.9062 129.894 67.9062C128.621 67.9062 127.476 67.6278 126.457 67.0709C125.455 66.4981 124.667 65.6946 124.095 64.6605C123.538 63.6263 123.259 62.433 123.259 61.0806C123.259 59.7123 123.538 58.5111 124.095 57.4769C124.651 56.4427 125.431 55.6472 126.433 55.0903C127.436 54.5334 128.589 54.255 129.894 54.255C131.151 54.255 132.273 54.5255 133.259 55.0664C134.261 55.6074 135.033 56.379 135.574 57.3814C136.131 58.3679 136.409 59.5055 136.409 60.7942ZM132.949 59.8396C132.933 58.9804 132.623 58.2963 132.018 57.7871C131.413 57.2621 130.674 56.9996 129.798 56.9996C128.971 56.9996 128.271 57.2541 127.698 57.7633C127.141 58.2565 126.799 58.9486 126.672 59.8396H132.949ZM153.986 59.1475C154.924 59.3225 155.696 59.7918 156.301 60.5556C156.905 61.3193 157.207 62.1943 157.207 63.1808C157.207 64.0718 156.985 64.8593 156.539 65.5435C156.11 66.2117 155.481 66.7368 154.654 67.1186C153.827 67.5005 152.848 67.6914 151.718 67.6914H144.535V51.0331H151.408C152.538 51.0331 153.508 51.2161 154.32 51.582C155.147 51.948 155.768 52.4571 156.181 53.1094C156.611 53.7618 156.826 54.5016 156.826 55.329C156.826 56.2995 156.563 57.1109 156.038 57.7633C155.529 58.4156 154.845 58.877 153.986 59.1475ZM147.876 57.9065H150.931C151.726 57.9065 152.339 57.7314 152.768 57.3814C153.198 57.0155 153.413 56.4984 153.413 55.8301C153.413 55.1619 153.198 54.6448 152.768 54.2789C152.339 53.9129 151.726 53.73 150.931 53.73H147.876V57.9065ZM151.241 64.9707C152.052 64.9707 152.681 64.7798 153.126 64.3979C153.588 64.0161 153.819 63.4751 153.819 62.7751C153.819 62.0591 153.58 61.5022 153.103 61.1045C152.625 60.6908 151.981 60.484 151.169 60.484H147.876V64.9707H151.241ZM163.212 50.0308V67.6914H159.87V50.0308H163.212ZM172.026 64.6127L175.367 54.4698H178.923L174.03 67.6914H169.973L165.105 54.4698H168.684L172.026 64.6127ZM179.94 61.0329C179.94 59.6964 180.203 58.5111 180.728 57.4769C181.269 56.4427 182.001 55.6472 182.924 55.0903C183.846 54.5334 184.873 54.255 186.002 54.255C186.861 54.255 187.681 54.4459 188.46 54.8278C189.24 55.1937 189.861 55.6869 190.322 56.3075V50.0308H193.711V67.6914H190.322V65.7344C189.908 66.3867 189.328 66.9118 188.58 67.3096C187.832 67.7073 186.965 67.9062 185.978 67.9062C184.865 67.9062 183.846 67.6198 182.924 67.047C182.001 66.4743 181.269 65.6708 180.728 64.6366C180.203 63.5865 179.94 62.3853 179.94 61.0329ZM190.346 61.0806C190.346 60.2692 190.187 59.5771 189.868 59.0043C189.55 58.4156 189.121 57.9701 188.58 57.6678C188.039 57.3496 187.458 57.1905 186.838 57.1905C186.217 57.1905 185.644 57.3416 185.119 57.6439C184.594 57.9462 184.165 58.3917 183.83 58.9804C183.512 59.5532 183.353 60.2373 183.353 61.0329C183.353 61.8284 183.512 62.5285 183.83 63.1331C184.165 63.7217 184.594 64.1752 185.119 64.4934C185.66 64.8116 186.233 64.9707 186.838 64.9707C187.458 64.9707 188.039 64.8196 188.58 64.5173C189.121 64.1991 189.55 63.7536 189.868 63.1808C190.187 62.5921 190.346 61.892 190.346 61.0806Z" fill="#FCFDFD"/>
<g opacity="0.75">
<path d="M37.3759 26.5295V35.9395H36.4213V28.4252L33.0664 35.9395H32.3709L29.0161 28.4524V35.9395H28.0615V26.5295H29.0706L32.7119 34.6848L36.3531 26.5295H37.3759ZM40.0188 27.0887C39.8279 27.0887 39.6643 27.0205 39.5279 26.8841C39.3915 26.7477 39.3233 26.5795 39.3233 26.3795C39.3233 26.1795 39.3915 26.0159 39.5279 25.8886C39.6643 25.7522 39.8279 25.684 40.0188 25.684C40.2098 25.684 40.3734 25.7522 40.5098 25.8886C40.6462 26.0159 40.7143 26.1795 40.7143 26.3795C40.7143 26.5795 40.6462 26.7477 40.5098 26.8841C40.3734 27.0205 40.2098 27.0887 40.0188 27.0887ZM40.4961 28.4933V35.9395H39.5415V28.4933H40.4961ZM42.2215 32.2028C42.2215 31.4391 42.3715 30.7708 42.6716 30.198C42.9807 29.6162 43.4034 29.1707 43.9398 28.8616C44.4853 28.5433 45.099 28.3842 45.7809 28.3842C46.4901 28.3842 47.0992 28.5479 47.6083 28.8752C48.1266 29.2025 48.4993 29.6207 48.7266 30.1299V28.4933H49.6813V35.9395H48.7266V34.2893C48.4902 34.7984 48.1129 35.2212 47.5947 35.5576C47.0856 35.8849 46.4764 36.0486 45.7673 36.0486C45.0945 36.0486 44.4853 35.8894 43.9398 35.5712C43.4034 35.253 42.9807 34.803 42.6716 34.2211C42.3715 33.6393 42.2215 32.9665 42.2215 32.2028ZM48.7266 32.2164C48.7266 31.6163 48.6039 31.089 48.3584 30.6344C48.1129 30.1799 47.7765 29.8298 47.3492 29.5843C46.931 29.3389 46.4673 29.2161 45.9582 29.2161C45.4309 29.2161 44.9581 29.3343 44.5399 29.5707C44.1217 29.8071 43.7898 30.1526 43.5444 30.6072C43.308 31.0527 43.1898 31.5845 43.1898 32.2028C43.1898 32.8119 43.308 33.3483 43.5444 33.812C43.7898 34.2666 44.1217 34.6166 44.5399 34.8621C44.9581 35.0985 45.4309 35.2167 45.9582 35.2167C46.4673 35.2167 46.931 35.0939 47.3492 34.8484C47.7765 34.603 48.1129 34.2529 48.3584 33.7984C48.6039 33.3438 48.7266 32.8165 48.7266 32.2164ZM60.725 28.357C61.5978 28.357 62.307 28.6343 62.8525 29.1889C63.4071 29.7344 63.6844 30.5299 63.6844 31.5754V35.9395H62.7434V31.6845C62.7434 30.8754 62.5479 30.2571 62.157 29.8298C61.766 29.4025 61.2342 29.1889 60.5614 29.1889C59.8613 29.1889 59.3022 29.4207 58.8839 29.8844C58.4657 30.3481 58.2566 31.0208 58.2566 31.9027V35.9395H57.3156V31.6845C57.3156 30.8754 57.1202 30.2571 56.7292 29.8298C56.3383 29.4025 55.8019 29.1889 55.12 29.1889C54.4199 29.1889 53.8608 29.4207 53.4426 29.8844C53.0243 30.3481 52.8152 31.0208 52.8152 31.9027V35.9395H51.8606V28.4933H52.8152V29.7753C53.0516 29.3116 53.388 28.9616 53.8244 28.7252C54.2608 28.4797 54.7472 28.357 55.2836 28.357C55.9291 28.357 56.4928 28.5115 56.9747 28.8206C57.4656 29.1298 57.8202 29.5843 58.0384 30.1844C58.2384 29.5934 58.5794 29.1434 59.0612 28.8343C59.5522 28.5161 60.1068 28.357 60.725 28.357ZM66.2818 27.0887C66.0909 27.0887 65.9272 27.0205 65.7908 26.8841C65.6545 26.7477 65.5863 26.5795 65.5863 26.3795C65.5863 26.1795 65.6545 26.0159 65.7908 25.8886C65.9272 25.7522 66.0909 25.684 66.2818 25.684C66.4727 25.684 66.6364 25.7522 66.7727 25.8886C66.9091 26.0159 66.9773 26.1795 66.9773 26.3795C66.9773 26.5795 66.9091 26.7477 66.7727 26.8841C66.6364 27.0205 66.4727 27.0887 66.2818 27.0887ZM66.7591 28.4933V35.9395H65.8045V28.4933H66.7591ZM69.7937 34.3575L68.3754 37.9305H67.7208L68.7299 34.3575H69.7937ZM80.1755 26.4068V27.1978H75.9751V30.7572H79.5209V31.5482H75.9751V35.9395H75.0205V26.4068H80.1755ZM82.7007 35.1621H86.1237V35.9395H81.746V26.4068H82.7007V35.1621Z" fill="#CCD2D7"/>
<path d="M37.3759 26.5295H38.3452V25.5602H37.3759V26.5295ZM37.3759 35.9395V36.9088H38.3452V35.9395H37.3759ZM36.4213 35.9395H35.452V36.9088H36.4213V35.9395ZM36.4213 28.4252H37.3906L35.5362 28.03L36.4213 28.4252ZM33.0664 35.9395V36.9088H33.6952L33.9515 36.3346L33.0664 35.9395ZM32.3709 35.9395L31.4864 36.3358L31.7431 36.9088H32.3709V35.9395ZM29.0161 28.4524L29.9007 28.0561L28.0468 28.4524H29.0161ZM29.0161 35.9395V36.9088H29.9854V35.9395H29.0161ZM28.0615 35.9395H27.0922V36.9088H28.0615V35.9395ZM28.0615 26.5295V25.5602H27.0922V26.5295H28.0615ZM29.0706 26.5295L29.9557 26.1344L29.6994 25.5602H29.0706V26.5295ZM32.7119 34.6848L31.8268 35.08L32.7119 37.0623L33.597 35.08L32.7119 34.6848ZM36.3531 26.5295V25.5602H35.7244L35.468 26.1344L36.3531 26.5295ZM36.4066 26.5295V35.9395H38.3452V26.5295H36.4066ZM37.3759 34.9702H36.4213V36.9088H37.3759V34.9702ZM37.3906 35.9395V28.4252H35.452V35.9395H37.3906ZM35.5362 28.03L32.1814 35.5443L33.9515 36.3346L37.3064 28.8203L35.5362 28.03ZM33.0664 34.9702H32.3709V36.9088H33.0664V34.9702ZM33.2555 35.5431L29.9007 28.0561L28.1315 28.8488L31.4864 36.3358L33.2555 35.5431ZM28.0468 28.4524V35.9395H29.9854V28.4524H28.0468ZM29.0161 34.9702H28.0615V36.9088H29.0161V34.9702ZM29.0308 35.9395V26.5295H27.0922V35.9395H29.0308ZM28.0615 27.4988H29.0706V25.5602H28.0615V27.4988ZM28.1856 26.9247L31.8268 35.08L33.597 34.2896L29.9557 26.1344L28.1856 26.9247ZM33.597 35.08L37.2382 26.9247L35.468 26.1344L31.8268 34.2896L33.597 35.08ZM36.3531 27.4988H37.3759V25.5602H36.3531V27.4988ZM39.5279 26.8841L38.8425 27.5695L39.5279 26.8841ZM39.5279 25.8886L40.1893 26.5972L40.2015 26.5858L40.2133 26.574L39.5279 25.8886ZM40.5098 25.8886L39.8244 26.574L39.8362 26.5858L39.8484 26.5972L40.5098 25.8886ZM40.4961 28.4933H41.4654V27.524H40.4961V28.4933ZM40.4961 35.9395V36.9088H41.4654V35.9395H40.4961ZM39.5415 35.9395H38.5722V36.9088H39.5415V35.9395ZM39.5415 28.4933V27.524H38.5722V28.4933H39.5415ZM40.0188 26.1194C40.0414 26.1194 40.0806 26.124 40.1257 26.1428C40.1707 26.1615 40.1999 26.1853 40.2133 26.1987L38.8425 27.5695C39.1586 27.8856 39.5679 28.058 40.0188 28.058V26.1194ZM40.2133 26.1987C40.231 26.2164 40.2551 26.2479 40.2727 26.2915C40.2901 26.3344 40.2926 26.3675 40.2926 26.3795H38.354C38.354 26.826 38.5169 27.244 38.8425 27.5695L40.2133 26.1987ZM40.2926 26.3795C40.2926 26.3911 40.2902 26.4291 40.2692 26.4796C40.2475 26.5316 40.2165 26.5718 40.1893 26.5972L38.8665 25.18C38.5184 25.5049 38.354 25.9325 38.354 26.3795H40.2926ZM40.2133 26.574C40.1999 26.5874 40.1707 26.6112 40.1257 26.6299C40.0806 26.6487 40.0414 26.6533 40.0188 26.6533V24.7147C39.5679 24.7147 39.1586 24.8871 38.8425 25.2032L40.2133 26.574ZM40.0188 26.6533C39.9963 26.6533 39.9571 26.6487 39.912 26.6299C39.867 26.6112 39.8378 26.5874 39.8244 26.574L41.1952 25.2032C40.8791 24.8871 40.4698 24.7147 40.0188 24.7147V26.6533ZM39.8484 26.5972C39.8212 26.5718 39.7902 26.5316 39.7685 26.4796C39.7474 26.4291 39.745 26.3911 39.745 26.3795H41.6837C41.6837 25.9325 41.5193 25.5049 41.1712 25.18L39.8484 26.5972ZM39.745 26.3795C39.745 26.3675 39.7475 26.3344 39.7649 26.2915C39.7826 26.2479 39.8067 26.2164 39.8244 26.1987L41.1952 27.5695C41.5207 27.244 41.6837 26.826 41.6837 26.3795H39.745ZM39.8244 26.1987C39.8378 26.1853 39.867 26.1615 39.912 26.1428C39.9571 26.124 39.9963 26.1194 40.0188 26.1194V28.058C40.4698 28.058 40.8791 27.8856 41.1952 27.5695L39.8244 26.1987ZM39.5268 28.4933V35.9395H41.4654V28.4933H39.5268ZM40.4961 34.9702H39.5415V36.9088H40.4961V34.9702ZM40.5108 35.9395V28.4933H38.5722V35.9395H40.5108ZM39.5415 29.4626H40.4961V27.524H39.5415V29.4626ZM42.6716 30.198L41.8155 29.7433L41.8129 29.7483L42.6716 30.198ZM43.9398 28.8616L44.4238 29.7014L44.4282 29.6988L43.9398 28.8616ZM47.6083 28.8752L47.0842 29.6906L47.0907 29.6947L47.6083 28.8752ZM48.7266 30.1299L47.8415 30.525L49.6959 30.1299H48.7266ZM48.7266 28.4933V27.524H47.7573V28.4933H48.7266ZM49.6813 28.4933H50.6506V27.524H49.6813V28.4933ZM49.6813 35.9395V36.9088H50.6506V35.9395H49.6813ZM48.7266 35.9395H47.7573V36.9088H48.7266V35.9395ZM48.7266 34.2893H49.6959L47.8475 33.8811L48.7266 34.2893ZM47.5947 35.5576L48.1189 36.373L48.1225 36.3706L47.5947 35.5576ZM43.9398 35.5712L43.4453 36.4049L43.4514 36.4085L43.9398 35.5712ZM42.6716 34.2211L41.81 34.6654L41.8155 34.6759L42.6716 34.2211ZM48.3584 30.6344L49.2113 30.1739V30.1739L48.3584 30.6344ZM47.3492 29.5843L46.8586 30.4203L46.8664 30.4248L47.3492 29.5843ZM44.5399 29.5707L45.0168 30.4146L44.5399 29.5707ZM43.5444 30.6072L42.6914 30.1466L42.6881 30.1528L43.5444 30.6072ZM43.5444 33.812L42.6808 34.2522L42.686 34.2625L42.6915 34.2726L43.5444 33.812ZM44.5399 34.8621L44.0492 35.698L44.0561 35.702L44.0629 35.7059L44.5399 34.8621ZM47.3492 34.8484L46.8664 34.0079L46.8586 34.0125L47.3492 34.8484ZM48.3584 33.7984L49.2113 34.2589L48.3584 33.7984ZM43.1908 32.2028C43.1908 31.5674 43.3149 31.0587 43.5302 30.6478L41.8129 29.7483C41.4281 30.4829 41.2522 31.3107 41.2522 32.2028H43.1908ZM43.5276 30.6528C43.757 30.2209 44.0554 29.9137 44.4238 29.7014L43.4559 28.0217C42.7515 28.4276 42.2043 29.0115 41.8155 29.7433L43.5276 30.6528ZM44.4282 29.6988C44.8138 29.4739 45.2565 29.3535 45.7809 29.3535V27.4149C44.9416 27.4149 44.1569 27.6128 43.4514 28.0243L44.4282 29.6988ZM45.7809 29.3535C46.3367 29.3535 46.7567 29.48 47.0842 29.6906L48.1325 28.0598C47.4418 27.6158 46.6434 27.4149 45.7809 27.4149V29.3535ZM47.0907 29.6947C47.464 29.9305 47.6999 30.2077 47.8415 30.525L49.6117 29.7347C49.2988 29.0337 48.7891 28.4745 48.1259 28.0557L47.0907 29.6947ZM49.6959 30.1299V28.4933H47.7573V30.1299H49.6959ZM48.7266 29.4626H49.6813V27.524H48.7266V29.4626ZM48.712 28.4933V35.9395H50.6506V28.4933H48.712ZM49.6813 34.9702H48.7266V36.9088H49.6813V34.9702ZM49.6959 35.9395V34.2893H47.7573V35.9395H49.6959ZM47.8475 33.8811C47.6954 34.2085 47.4482 34.4971 47.067 34.7446L48.1225 36.3706C48.7776 35.9453 49.285 35.3883 49.6058 34.6975L47.8475 33.8811ZM47.0706 34.7422C46.743 34.9528 46.3231 35.0793 45.7673 35.0793V37.0179C46.6298 37.0179 47.4281 36.817 48.1189 36.373L47.0706 34.7422ZM45.7673 35.0793C45.2545 35.0793 44.8158 34.96 44.4282 34.734L43.4514 36.4085C44.1549 36.8189 44.9345 37.0179 45.7673 37.0179V35.0793ZM44.4344 34.7376C44.0597 34.5153 43.7581 34.2004 43.5276 33.7664L41.8155 34.6759C42.2032 35.4056 42.7472 35.9907 43.4453 36.4049L44.4344 34.7376ZM43.5331 33.7769C43.3148 33.3536 43.1908 32.8377 43.1908 32.2028H41.2522C41.2522 33.0953 41.4282 33.9249 41.81 34.6653L43.5331 33.7769ZM49.6959 32.2164C49.6959 31.4817 49.5447 30.7913 49.2113 30.1739L47.5055 31.095C47.6631 31.3868 47.7573 31.751 47.7573 32.2164H49.6959ZM49.2113 30.1739C48.8845 29.5687 48.4234 29.0836 47.8321 28.7439L46.8664 30.4248C47.1297 30.5761 47.3413 30.791 47.5055 31.095L49.2113 30.1739ZM47.8399 28.7484C47.2654 28.4112 46.6309 28.2468 45.9582 28.2468V30.1854C46.3038 30.1854 46.5967 30.2666 46.8586 30.4203L47.8399 28.7484ZM45.9582 28.2468C45.2805 28.2468 44.6406 28.4004 44.0629 28.7269L45.0168 30.4146C45.2756 30.2683 45.5813 30.1854 45.9582 30.1854V28.2468ZM44.0629 28.7269C43.4738 29.0599 43.0169 29.544 42.6915 30.1466L44.3972 31.0677C44.5628 30.7611 44.7696 30.5543 45.0168 30.4146L44.0629 28.7269ZM42.6881 30.1528C42.3625 30.7665 42.2205 31.4614 42.2205 32.2028H44.1591C44.1591 31.7076 44.2534 31.3389 44.4006 31.0615L42.6881 30.1528ZM42.2205 32.2028C42.2205 32.9389 42.364 33.6308 42.6808 34.2522L44.4079 33.3717C44.252 33.0659 44.1591 32.6849 44.1591 32.2028H42.2205ZM42.6915 34.2726C43.0154 34.8724 43.4682 35.357 44.0492 35.698L45.0306 34.0261C44.7752 33.8763 44.5643 33.6607 44.3972 33.3514L42.6915 34.2726ZM44.0629 35.7059C44.6406 36.0324 45.2805 36.186 45.9582 36.186V34.2474C45.5813 34.2474 45.2756 34.1645 45.0168 34.0182L44.0629 35.7059ZM45.9582 36.186C46.6309 36.186 47.2654 36.0216 47.8399 35.6844L46.8586 34.0125C46.5967 34.1662 46.3038 34.2474 45.9582 34.2474V36.186ZM47.8321 35.6889C48.4234 35.3492 48.8845 34.8641 49.2113 34.2589L47.5055 33.3378C47.3413 33.6418 47.1297 33.8567 46.8664 34.008L47.8321 35.6889ZM49.2113 34.2589C49.5447 33.6415 49.6959 32.9511 49.6959 32.2164H47.7573C47.7573 32.6818 47.6631 33.046 47.5055 33.3378L49.2113 34.2589ZM62.8525 29.1889L62.1614 29.8686L62.1671 29.8743L62.1728 29.8799L62.8525 29.1889ZM63.6844 35.9395V36.9088H64.6537V35.9395H63.6844ZM62.7434 35.9395H61.7741V36.9088H62.7434V35.9395ZM62.157 29.8298L61.4418 30.4841L62.157 29.8298ZM58.8839 29.8844L58.1642 29.2352L58.1642 29.2352L58.8839 29.8844ZM58.2566 35.9395V36.9088H59.2259V35.9395H58.2566ZM57.3156 35.9395H56.3463V36.9088H57.3156V35.9395ZM56.7292 29.8298L56.0141 30.4841V30.4841L56.7292 29.8298ZM53.4426 29.8844L52.7228 29.2352V29.2352L53.4426 29.8844ZM52.8152 35.9395V36.9088H53.7845V35.9395H52.8152ZM51.8606 35.9395H50.8913V36.9088H51.8606V35.9395ZM51.8606 28.4933V27.524H50.8913V28.4933H51.8606ZM52.8152 28.4933H53.7845V27.524H52.8152V28.4933ZM52.8152 29.7753H51.8459L53.6788 30.2155L52.8152 29.7753ZM53.8244 28.7252L54.2861 29.5775L54.2929 29.5738L54.2996 29.57L53.8244 28.7252ZM56.9747 28.8206L56.4513 29.6365L56.4582 29.6409L56.9747 28.8206ZM58.0384 30.1844L57.1275 30.5157L58.0712 33.1109L58.9566 30.4952L58.0384 30.1844ZM59.0612 28.8343L59.5846 29.6501L59.5884 29.6477L59.0612 28.8343ZM60.725 29.3263C61.3727 29.3263 61.8211 29.5226 62.1614 29.8686L63.5435 28.5091C62.7928 27.7459 61.823 27.3877 60.725 27.3877V29.3263ZM62.1728 29.8799C62.4853 30.1873 62.7151 30.6974 62.7151 31.5754H64.6537C64.6537 30.3624 64.3289 29.2814 63.5322 28.4978L62.1728 29.8799ZM62.7151 31.5754V35.9395H64.6537V31.5754H62.7151ZM63.6844 34.9702H62.7434V36.9088H63.6844V34.9702ZM63.7127 35.9395V31.6845H61.7741V35.9395H63.7127ZM63.7127 31.6845C63.7127 30.7296 63.4817 29.8418 62.8721 29.1755L61.4418 30.4841C61.6141 30.6725 61.7741 31.0212 61.7741 31.6845H63.7127ZM62.8721 29.1755C62.2673 28.5145 61.458 28.2196 60.5614 28.2196V30.1582C61.0104 30.1582 61.2647 30.2905 61.4418 30.4841L62.8721 29.1755ZM60.5614 28.2196C59.6238 28.2196 58.7896 28.5418 58.1642 29.2352L59.6037 30.5336C59.8148 30.2996 60.0988 30.1582 60.5614 30.1582V28.2196ZM58.1642 29.2352C57.5297 29.9386 57.2873 30.8795 57.2873 31.9027H59.2259C59.2259 31.1621 59.4017 30.7575 59.6037 30.5336L58.1642 29.2352ZM57.2873 31.9027V35.9395H59.2259V31.9027H57.2873ZM58.2566 34.9702H57.3156V36.9088H58.2566V34.9702ZM58.2849 35.9395V31.6845H56.3463V35.9395H58.2849ZM58.2849 31.6845C58.2849 30.7296 58.0539 29.8418 57.4444 29.1755L56.0141 30.4841C56.1864 30.6725 56.3463 31.0212 56.3463 31.6845H58.2849ZM57.4444 29.1755C56.837 28.5117 56.0212 28.2196 55.12 28.2196V30.1582C55.5825 30.1582 55.8395 30.2933 56.0141 30.4841L57.4444 29.1755ZM55.12 28.2196C54.1824 28.2196 53.3482 28.5418 52.7228 29.2352L54.1623 30.5336C54.3734 30.2996 54.6574 30.1582 55.12 30.1582V28.2196ZM52.7228 29.2352C52.0883 29.9386 51.8459 30.8795 51.8459 31.9027H53.7845C53.7845 31.1621 53.9603 30.7575 54.1623 30.5336L52.7228 29.2352ZM51.8459 31.9027V35.9395H53.7845V31.9027H51.8459ZM52.8152 34.9702H51.8606V36.9088H52.8152V34.9702ZM52.8299 35.9395V28.4933H50.8913V35.9395H52.8299ZM51.8606 29.4626H52.8152V27.524H51.8606V29.4626ZM51.8459 28.4933V29.7753H53.7845V28.4933H51.8459ZM53.6788 30.2155C53.8306 29.9177 54.031 29.7157 54.2861 29.5775L53.3627 27.8729C52.7451 28.2075 52.2726 28.7055 51.9517 29.335L53.6788 30.2155ZM54.2996 29.57C54.5806 29.4119 54.9014 29.3263 55.2836 29.3263V27.3877C54.593 27.3877 53.941 27.5475 53.3492 27.8804L54.2996 29.57ZM55.2836 29.3263C55.768 29.3263 56.1449 29.44 56.4513 29.6365L57.4981 28.0048C56.8407 27.5831 56.0903 27.3877 55.2836 27.3877V29.3263ZM56.4582 29.6409C56.7485 29.8237 56.975 30.0963 57.1275 30.5157L58.9494 29.8531C58.6654 29.0724 58.1827 28.4358 57.4911 28.0004L56.4582 29.6409ZM58.9566 30.4952C59.0928 30.0925 59.3048 29.8296 59.5846 29.6501L58.5379 28.0184C57.854 28.4572 57.384 29.0944 57.1203 29.8736L58.9566 30.4952ZM59.5884 29.6477C59.9133 29.4371 60.2827 29.3263 60.725 29.3263V27.3877C59.9308 27.3877 59.1911 27.595 58.534 28.0209L59.5884 29.6477ZM65.7908 26.8841L65.1054 27.5695L65.7908 26.8841ZM65.7908 25.8886L66.4522 26.5972L66.4644 26.5858L66.4762 26.574L65.7908 25.8886ZM66.7727 25.8886L66.0873 26.574L66.0992 26.5858L66.1114 26.5972L66.7727 25.8886ZM66.7591 28.4933H67.7284V27.524H66.7591V28.4933ZM66.7591 35.9395V36.9088H67.7284V35.9395H66.7591ZM65.8045 35.9395H64.8352V36.9088H65.8045V35.9395ZM65.8045 28.4933V27.524H64.8352V28.4933H65.8045ZM66.2818 26.1194C66.3044 26.1194 66.3435 26.124 66.3887 26.1428C66.4336 26.1615 66.4628 26.1853 66.4762 26.1987L65.1054 27.5695C65.4215 27.8856 65.8309 28.058 66.2818 28.058V26.1194ZM66.4762 26.1987C66.494 26.2164 66.518 26.2479 66.5357 26.2915C66.5531 26.3344 66.5556 26.3675 66.5556 26.3795H64.617C64.617 26.826 64.7799 27.244 65.1054 27.5695L66.4762 26.1987ZM66.5556 26.3795C66.5556 26.3911 66.5532 26.4291 66.5322 26.4796C66.5105 26.5316 66.4794 26.5718 66.4522 26.5972L65.1295 25.18C64.7813 25.5049 64.617 25.9325 64.617 26.3795H66.5556ZM66.4762 26.574C66.4628 26.5874 66.4336 26.6112 66.3887 26.6299C66.3435 26.6487 66.3044 26.6533 66.2818 26.6533V24.7147C65.8309 24.7147 65.4215 24.8871 65.1054 25.2032L66.4762 26.574ZM66.2818 26.6533C66.2592 26.6533 66.2201 26.6487 66.1749 26.6299C66.13 26.6112 66.1008 26.5874 66.0873 26.574L67.4581 25.2032C67.1421 24.8871 66.7327 24.7147 66.2818 24.7147V26.6533ZM66.1114 26.5972C66.0841 26.5718 66.0531 26.5316 66.0314 26.4796C66.0104 26.4291 66.008 26.3911 66.008 26.3795H67.9466C67.9466 25.9325 67.7822 25.5049 67.4341 25.18L66.1114 26.5972ZM66.008 26.3795C66.008 26.3675 66.0105 26.3344 66.0279 26.2915C66.0455 26.2479 66.0696 26.2164 66.0873 26.1987L67.4581 27.5695C67.7837 27.244 67.9466 26.826 67.9466 26.3795H66.008ZM66.0873 26.1987C66.1008 26.1853 66.13 26.1615 66.1749 26.1428C66.2201 26.124 66.2592 26.1194 66.2818 26.1194V28.058C66.7327 28.058 67.1421 27.8856 67.4581 27.5695L66.0873 26.1987ZM65.7898 28.4933V35.9395H67.7284V28.4933H65.7898ZM66.7591 34.9702H65.8045V36.9088H66.7591V34.9702ZM66.7738 35.9395V28.4933H64.8352V35.9395H66.7738ZM65.8045 29.4626H66.7591V27.524H65.8045V29.4626ZM69.7937 34.3575L70.6946 34.7151L71.2213 33.3882H69.7937V34.3575ZM68.3754 37.9305V38.8998H69.0335L69.2763 38.2882L68.3754 37.9305ZM67.7208 37.9305L66.788 37.6671L66.4398 38.8998H67.7208V37.9305ZM68.7299 34.3575V33.3882H67.9965L67.7971 34.094L68.7299 34.3575ZM68.8928 33.9999L67.4744 37.5729L69.2763 38.2882L70.6946 34.7151L68.8928 33.9999ZM68.3754 36.9612H67.7208V38.8998H68.3754V36.9612ZM68.6536 38.194L69.6628 34.621L67.7971 34.094L66.788 37.6671L68.6536 38.194ZM68.7299 35.3268H69.7937V33.3882H68.7299V35.3268ZM80.1755 26.4068H81.1448V25.4375H80.1755V26.4068ZM80.1755 27.1978V28.1671H81.1448V27.1978H80.1755ZM75.9751 27.1978V26.2285H75.0058V27.1978H75.9751ZM75.9751 30.7572H75.0058V31.7265H75.9751V30.7572ZM79.5209 30.7572H80.4902V29.7879H79.5209V30.7572ZM79.5209 31.5482V32.5175H80.4902V31.5482H79.5209ZM75.9751 31.5482V30.5789H75.0058V31.5482H75.9751ZM75.9751 35.9395V36.9088H76.9444V35.9395H75.9751ZM75.0205 35.9395H74.0512V36.9088H75.0205V35.9395ZM75.0205 26.4068V25.4375H74.0512V26.4068H75.0205ZM79.2062 26.4068V27.1978H81.1448V26.4068H79.2062ZM80.1755 26.2285H75.9751V28.1671H80.1755V26.2285ZM75.0058 27.1978V30.7572H76.9444V27.1978H75.0058ZM75.9751 31.7265H79.5209V29.7879H75.9751V31.7265ZM78.5516 30.7572V31.5482H80.4902V30.7572H78.5516ZM79.5209 30.5789H75.9751V32.5175H79.5209V30.5789ZM75.0058 31.5482V35.9395H76.9444V31.5482H75.0058ZM75.9751 34.9702H75.0205V36.9088H75.9751V34.9702ZM75.9898 35.9395V26.4068H74.0512V35.9395H75.9898ZM75.0205 27.3761H80.1755V25.4375H75.0205V27.3761ZM82.7007 35.1621H81.7314V36.1314H82.7007V35.1621ZM86.1237 35.1621H87.093V34.1928H86.1237V35.1621ZM86.1237 35.9395V36.9088H87.093V35.9395H86.1237ZM81.746 35.9395H80.7767V36.9088H81.746V35.9395ZM81.746 26.4068V25.4375H80.7767V26.4068H81.746ZM82.7007 26.4068H83.67V25.4375H82.7007V26.4068ZM82.7007 36.1314H86.1237V34.1928H82.7007V36.1314ZM85.1544 35.1621V35.9395H87.093V35.1621H85.1544ZM86.1237 34.9702H81.746V36.9088H86.1237V34.9702ZM82.7153 35.9395V26.4068H80.7767V35.9395H82.7153ZM81.746 27.3761H82.7007V25.4375H81.746V27.3761ZM81.7314 26.4068V35.1621H83.67V26.4068H81.7314Z" fill="#0D6EFD" fill-opacity="0.5"/>
</g>
<defs>
<filter id="filter0_b_6467_10548" x="-29.5311" y="-29.5177" width="312.606" height="222.35" filterUnits="userSpaceOnUse" color-interpolation-filters="sRGB">
<feFlood flood-opacity="0" result="BackgroundImageFix"/>
<feGaussianBlur in="BackgroundImageFix" stdDeviation="14.9161"/>
<feComposite in2="SourceAlpha" operator="in" result="effect1_backgroundBlur_6467_10548"/>
<feBlend mode="normal" in="SourceGraphic" in2="effect1_backgroundBlur_6467_10548" result="shape"/>
</filter>
</defs>
</svg>
