<svg viewBox="0 0 630 758" fill="none" xmlns="http://www.w3.org/2000/svg">
<g opacity="0.02" filter="url(#filter0_b_11519_3381)">
<path d="M149.064 216.497L279.046 142.649C289.119 136.926 301.458 136.924 311.533 142.643L442.645 217.071C452.939 222.914 459.299 233.838 459.299 245.675V380.021C459.299 391.779 453.023 402.642 442.838 408.515L312.29 483.794C302.121 489.658 289.598 489.658 279.428 483.794L148.881 408.515C138.696 402.642 132.42 391.779 132.42 380.021V245.096C132.42 233.264 138.776 222.343 149.064 216.497Z" stroke="#021E32" stroke-width="2.10437"/>
</g>
<g opacity="0.015" filter="url(#filter1_b_11519_3381)">
<path d="M111.183 195.874L278.912 100.564C288.985 94.8404 301.327 94.8382 311.402 100.559L480.525 196.58C490.818 202.424 497.178 213.348 497.178 225.184V399.547C497.178 411.303 490.903 422.166 480.718 428.04L312.292 525.177C302.122 531.043 289.597 531.043 279.426 525.177L111 428.04C100.816 422.166 94.5411 411.303 94.5411 399.547V224.472C94.5411 212.64 100.896 201.72 111.183 195.874Z" stroke="#021E32" stroke-width="2.10437"/>
</g>
<g opacity="0.05" filter="url(#filter2_b_11519_3381)">
<path d="M192.564 239.614L279.369 190.335C289.436 184.62 301.766 184.618 311.836 190.329L399.467 240.036C409.766 245.878 416.131 256.805 416.131 268.646V357.147C416.131 368.909 409.851 379.775 399.66 385.647L312.442 435.901C302.277 441.758 289.763 441.758 279.599 435.901L192.381 385.647C182.19 379.775 175.91 368.909 175.91 357.147V268.219C175.91 256.382 182.27 245.458 192.564 239.614Z" stroke="#021E32" stroke-width="2.10437"/>
</g>
<g opacity="0.01" filter="url(#filter3_b_11519_3381)">
<path d="M19.6286 88.3908L157.7 9.94642C168.399 3.8679 181.507 3.86553 192.208 9.9402L331.479 88.9997C342.414 95.2069 349.17 106.811 349.17 119.385V262.091C349.17 274.58 342.504 286.119 331.684 292.358L193.013 372.322C182.211 378.551 168.908 378.551 158.106 372.322L19.4345 292.358C8.61519 286.119 1.94879 274.58 1.94879 262.091V118.769C1.94879 106.2 8.70008 94.5997 19.6286 88.3908Z" stroke="#021E32" stroke-width="2.23533"/>
</g>
<g opacity="0.02" filter="url(#filter4_b_11519_3381)">
<path d="M65.8349 112.946L158.042 60.6001C168.736 54.5292 181.833 54.5269 192.529 60.5939L285.614 113.394C296.554 119.599 303.315 131.206 303.315 143.784V237.793C303.315 250.286 296.644 261.829 285.819 268.066L193.173 321.448C182.376 327.669 169.083 327.669 158.287 321.448L65.6408 268.066C54.8158 261.829 48.1449 250.286 48.1449 237.793V143.33C48.1449 130.757 54.9006 119.153 65.8349 112.946Z" stroke="#021E32" stroke-width="2.23533"/>
</g>
<g opacity="0.05" filter="url(#filter5_b_11519_3381)">
<path d="M274.998 434.974V433.922H272.894V434.974H274.998ZM530.612 413.701L531.131 412.786L530.612 413.701ZM290.42 576.74L289.895 577.652L290.42 576.74ZM289.895 577.652L393.668 637.432L394.719 635.609L290.945 575.828L289.895 577.652ZM427.556 637.432L531.33 577.652L530.279 575.828L426.506 635.609L427.556 637.432ZM548.33 548.239V442.313H546.226V548.239H548.33ZM531.131 412.786L410.653 344.463L409.615 346.294L530.093 414.616L531.131 412.786ZM272.894 434.974V548.239H274.998V434.974H272.894ZM548.33 442.313C548.33 430.092 541.761 418.814 531.131 412.786L530.093 414.616C540.064 420.271 546.226 430.85 546.226 442.313H548.33ZM531.33 577.652C541.848 571.592 548.33 560.377 548.33 548.239H546.226C546.226 559.625 540.146 570.144 530.279 575.828L531.33 577.652ZM393.668 637.432C404.156 643.474 417.068 643.474 427.556 637.432L426.506 635.609C416.668 641.276 404.557 641.276 394.719 635.609L393.668 637.432ZM290.945 575.828C281.079 570.144 274.998 559.625 274.998 548.239H272.894C272.894 560.377 279.376 571.592 289.895 577.652L290.945 575.828Z" fill="#021E32"/>
</g>
<g opacity="0.02" filter="url(#filter6_b_11519_3381)">
<path d="M244.302 426.475V425.422H242.198V426.475H244.302ZM561.405 598.33L560.878 597.419L561.405 598.33ZM394.096 675.965L393.569 676.876L394.096 675.965ZM426.999 675.965L427.526 676.877L426.999 675.965ZM259.69 598.33L260.217 597.419L259.69 598.33ZM259.164 599.242L393.569 676.876L394.622 675.054L260.217 597.419L259.164 599.242ZM427.526 676.877L561.931 599.242L560.878 597.419L426.473 675.054L427.526 676.877ZM578.897 569.848V431.099H576.793V569.848H578.897ZM561.732 401.592L410.483 315.587L409.442 317.417L560.691 403.421L561.732 401.592ZM242.198 426.475V569.848H244.302V426.475H242.198ZM578.897 431.099C578.897 418.892 572.343 407.626 561.732 401.592L560.691 403.421C570.645 409.081 576.793 419.649 576.793 431.099H578.897ZM561.931 599.242C572.43 593.177 578.897 581.973 578.897 569.848H576.793C576.793 581.221 570.727 591.731 560.878 597.419L561.931 599.242ZM393.569 676.876C404.075 682.945 417.02 682.945 427.526 676.877L426.473 675.054C416.619 680.746 404.476 680.746 394.622 675.054L393.569 676.876ZM260.217 597.419C250.368 591.731 244.302 581.221 244.302 569.848H242.198C242.198 581.973 248.665 593.177 259.164 599.242L260.217 597.419Z" fill="#021E32"/>
</g>
<g opacity="0.02" filter="url(#filter7_b_11519_3381)">
<path d="M148.339 536.233L232.19 488.695C245.604 481.09 262.027 481.087 275.445 488.687L360.174 536.683C373.922 544.471 382.419 559.05 382.419 574.851V658.888C382.419 674.583 374.034 689.081 360.431 696.909L276.141 745.411C262.597 753.204 245.929 753.204 232.385 745.411L148.095 696.909C134.492 689.081 126.107 674.583 126.107 658.888V574.394C126.107 558.599 134.598 544.023 148.339 536.233Z" stroke="#021E32" stroke-width="2.44127"/>
</g>
<g filter="url(#filter8_b_11519_3381)">
<path d="M170.183 557.823L241.23 517.438C249.231 512.89 259.035 512.888 267.037 517.433L338.755 558.165C346.927 562.806 351.976 571.48 351.976 580.878V653.545C351.976 662.88 346.994 671.505 338.909 676.17L267.526 717.352C259.448 722.012 249.498 722.012 241.421 717.352L170.038 676.17C161.952 671.505 156.971 662.88 156.971 653.545V580.53C156.971 571.136 162.016 562.465 170.183 557.823Z" fill="url(#paint0_linear_11519_3381)" fill-opacity="0.2"/>
</g>
<g filter="url(#filter9_b_11519_3381)">
<path d="M170.185 557.821L241.228 517.439C249.23 512.891 259.036 512.889 267.039 517.434L338.753 558.164C346.926 562.806 351.976 571.481 351.976 580.88V653.543C351.976 662.879 346.994 671.505 338.907 676.171L267.528 717.351C259.449 722.012 249.498 722.012 241.419 717.351L170.04 676.171C161.953 671.505 156.971 662.879 156.971 653.543V580.533C156.971 571.137 162.017 562.465 170.185 557.821Z" stroke="#4B88FF" stroke-opacity="0.25" stroke-width="1.88252"/>
</g>
<path d="M247.051 570.493C246.218 570.958 245.48 573.913 244.809 579.33C244.313 583.309 244.285 583.392 243.453 583.608C243.037 583.716 241.845 584.151 240.79 584.614C239.403 585.214 238.738 585.376 238.435 585.18C238.187 585.012 236.149 583.45 233.865 581.638C229.019 577.817 228.854 577.761 226.379 579.598C224.822 580.75 219.031 586.411 217.135 588.639C215.686 590.317 215.845 591.369 217.958 594.01C218.891 595.205 220.456 597.207 221.388 598.485L223.117 600.792L222.161 603.054C221.628 604.295 221.122 605.536 221.037 605.785C220.925 606.061 220.757 606.281 220.646 606.28C220.536 606.28 217.822 606.677 214.636 607.182C209.568 607.952 208.764 608.14 208.318 608.69C207.872 609.241 207.812 609.959 207.766 617.123C207.721 624.176 207.771 625.006 208.182 625.534C208.594 626.007 209.533 626.262 214.067 626.982C217.024 627.472 219.705 627.904 220.009 627.989C220.423 628.074 220.861 628.824 221.596 630.682C222.168 632.096 222.685 633.455 222.767 633.676C222.848 633.954 221.675 635.688 219.778 638.083C218.076 640.284 216.513 642.432 216.316 642.901C215.671 644.335 216.438 645.502 221.22 650.511C225.343 654.769 227.269 656.386 228.266 656.392C228.847 656.396 230.263 655.492 233.738 652.97C236.435 650.968 238.575 649.571 238.823 649.656C239.403 649.826 243.625 651.595 243.763 651.707C243.818 651.762 244.271 654.421 244.72 657.66C245.515 663.169 245.623 663.557 246.311 664.17C247.054 664.811 247.109 664.811 254.801 664.86C264.125 664.92 263.543 665.166 264.316 661.022C264.718 658.784 265.644 652.483 265.648 651.903C265.648 651.792 266.314 651.492 267.118 651.221C267.895 650.977 269.143 650.487 269.837 650.132L271.141 649.504L275.491 652.962C277.914 654.858 280.2 656.505 280.614 656.59C281.056 656.704 281.776 656.57 282.414 656.298C283.774 655.67 292.796 646.794 293.469 645.388C294.142 643.954 293.924 643.427 291.015 639.757C289.67 638.034 288.189 636.116 287.723 635.449L286.845 634.226L287.94 631.744C288.53 630.365 289.063 629.151 289.12 629.013C289.148 628.903 291.863 628.395 295.103 627.918C300.005 627.175 301.114 626.933 301.615 626.466C302.172 625.889 302.202 625.585 302.332 618.256C302.468 610.014 302.415 609.627 300.98 608.981C300.649 608.841 297.968 608.354 295.011 607.864C292.081 607.403 289.593 606.972 289.511 606.889C289.429 606.777 288.883 605.557 288.311 604.143C287.711 602.756 287.194 601.453 287.112 601.314C287.057 601.147 288.509 599.11 290.351 596.771C292.192 594.432 293.783 592.201 293.869 591.842C293.982 591.484 293.903 590.847 293.684 590.403C293.056 589.127 289.402 585.037 285.965 581.779C283.132 579.133 282.608 578.743 281.778 578.737C280.976 578.732 280.004 579.334 276.14 582.158C273.582 584.05 271.359 585.53 271.193 585.473C271.055 585.39 269.896 584.912 268.654 584.406C267.413 583.873 266.309 583.395 266.227 583.312C266.117 583.173 264.496 572.68 264.501 571.988C264.502 571.822 264.2 571.378 263.815 571.016L263.156 570.32L255.326 570.27C250.927 570.241 247.301 570.356 247.051 570.493ZM260.174 599.509C266.553 601.458 271.555 606.635 273.092 612.868C273.821 615.749 273.796 619.649 273.03 622.521C271.414 628.678 265.873 634.092 259.526 635.71C257.253 636.304 252.55 636.274 250.257 635.651C246.915 634.772 244.572 633.374 241.823 630.618C239.788 628.586 239.103 627.669 238.174 625.754C234.324 617.764 236.346 608.843 243.329 602.941C245.193 601.349 248.69 599.684 251.184 599.147C253.566 598.664 257.992 598.831 260.174 599.509Z" fill="url(#paint1_linear_11519_3381)" fill-opacity="0.18"/>
<g filter="url(#filter10_b_11519_3381)">
<path d="M486.494 231.167L542.207 199.498C548.482 195.932 556.169 195.931 562.445 199.495L618.684 231.435C625.092 235.075 629.051 241.876 629.051 249.246V306.23C629.051 313.55 625.145 320.313 618.804 323.971L562.828 356.265C556.494 359.92 548.691 359.92 542.357 356.265L486.381 323.971C480.04 320.313 476.134 313.55 476.134 306.23V248.974C476.134 241.607 480.09 234.807 486.494 231.167Z" fill="url(#paint2_linear_11519_3381)" fill-opacity="0.2"/>
</g>
<g filter="url(#filter11_b_11519_3381)">
<path d="M486.496 231.166L542.206 199.499C548.481 195.932 556.17 195.931 562.446 199.496L618.682 231.435C625.092 235.075 629.051 241.877 629.051 249.248V306.228C629.051 313.549 625.144 320.314 618.803 323.972L562.83 356.264C556.494 359.919 548.691 359.919 542.355 356.264L486.382 323.972C480.041 320.314 476.134 313.549 476.134 306.228V248.976C476.134 241.607 480.09 234.807 486.496 231.166Z" stroke="#4B88FF" stroke-opacity="0.25" stroke-width="1.47622"/>
</g>
<g filter="url(#filter12_b_11519_3381)">
<path d="M388.755 295.928L441.702 265.832C447.664 262.443 454.97 262.442 460.934 265.829L514.38 296.184C520.47 299.642 524.233 306.106 524.233 313.11V367.264C524.233 374.22 520.52 380.648 514.495 384.124L461.298 414.815C455.278 418.288 447.863 418.288 441.843 414.815L388.647 384.124C382.621 380.648 378.909 374.22 378.909 367.264V312.851C378.909 305.85 382.668 299.388 388.755 295.928Z" fill="url(#paint3_linear_11519_3381)" fill-opacity="0.5"/>
</g>
<g filter="url(#filter13_b_11519_3381)">
<path d="M388.756 295.927L441.7 265.833C447.663 262.444 454.971 262.442 460.935 265.83L514.379 296.183C520.47 299.642 524.233 306.107 524.233 313.111V367.262C524.233 374.22 520.52 380.648 514.493 384.125L461.3 414.814C455.279 418.287 447.863 418.287 441.842 414.814L388.648 384.125C382.622 380.648 378.909 374.22 378.909 367.262V312.853C378.909 305.851 382.669 299.388 388.756 295.927Z" fill="url(#paint4_linear_11519_3381)" fill-opacity="0.4"/>
<path d="M388.756 295.927L441.7 265.833C447.663 262.444 454.971 262.442 460.935 265.83L514.379 296.183C520.47 299.642 524.233 306.107 524.233 313.111V367.262C524.233 374.22 520.52 380.648 514.493 384.125L461.3 414.814C455.279 418.287 447.863 418.287 441.842 414.814L388.648 384.125C382.622 380.648 378.909 374.22 378.909 367.262V312.853C378.909 305.851 382.669 299.388 388.756 295.927Z" stroke="#4B88FF" stroke-opacity="0.6" stroke-width="1.40291"/>
</g>
<g filter="url(#filter14_b_11519_3381)">
<path d="M313.267 426.487L395.559 379.71C404.826 374.443 416.182 374.441 425.451 379.705L508.52 426.884C517.985 432.259 523.833 442.305 523.833 453.191V537.359C523.833 548.172 518.063 558.162 508.697 563.565L426.017 611.265C416.661 616.663 405.136 616.663 395.78 611.265L313.099 563.565C303.734 558.162 297.964 548.172 297.964 537.359V452.789C297.964 441.907 303.807 431.864 313.267 426.487Z" fill="url(#paint5_linear_11519_3381)" fill-opacity="0.23"/>
</g>
<g filter="url(#filter15_b_11519_3381)">
<path d="M313.27 426.485L395.557 379.712C404.825 374.443 416.183 374.441 425.453 379.706L508.518 426.882C517.984 432.259 523.833 442.306 523.833 453.193V537.357C523.833 548.171 518.062 558.162 508.695 563.566L426.019 611.264C416.661 616.663 405.135 616.663 395.777 611.264L313.101 563.566C303.735 558.162 297.964 548.171 297.964 537.357V452.791C297.964 441.908 303.808 431.863 313.27 426.485Z" stroke="#4B88FF" stroke-opacity="0.25" stroke-width="2.18047"/>
</g>
<g filter="url(#filter16_b_11519_3381)">
<path d="M83.4406 128.061L164.805 81.8111C171.251 78.1471 179.15 78.1456 185.597 81.8073L267.672 128.421C274.255 132.16 278.323 139.148 278.323 146.72V230.829C278.323 238.349 274.309 245.298 267.795 249.057L186.075 296.203C179.567 299.957 171.551 299.957 165.043 296.203L83.3237 249.057C76.8094 245.298 72.796 238.349 72.796 230.829V146.355C72.796 138.786 76.8605 131.801 83.4406 128.061Z" fill="url(#paint6_linear_11519_3381)" fill-opacity="0.5"/>
<path d="M83.4406 128.061L164.805 81.8111C171.251 78.1471 179.15 78.1456 185.597 81.8073L267.672 128.421C274.255 132.16 278.323 139.148 278.323 146.72V230.829C278.323 238.349 274.309 245.298 267.795 249.057L186.075 296.203C179.567 299.957 171.551 299.957 165.043 296.203L83.3237 249.057C76.8094 245.298 72.796 238.349 72.796 230.829V146.355C72.796 138.786 76.8605 131.801 83.4406 128.061Z" stroke="#4B88FF" stroke-opacity="0.6" stroke-width="1.45752"/>
</g>
<ellipse cx="114.533" cy="215.843" rx="5.96238" ry="5.96238" fill="url(#paint7_linear_11519_3381)"/>
<ellipse cx="155.217" cy="169.547" rx="5.96238" ry="5.96238" fill="url(#paint8_linear_11519_3381)"/>
<ellipse cx="196.603" cy="187.083" rx="5.96238" ry="5.96238" fill="url(#paint9_linear_11519_3381)"/>
<ellipse cx="237.989" cy="154.114" rx="5.96238" ry="5.96238" fill="url(#paint10_linear_11519_3381)"/>
<path d="M233.07 146.273C228.972 148.305 226.762 153.401 228.045 157.82C228.389 159.048 228.08 160.116 227.107 160.94C225.014 162.712 220.852 166.155 216.07 170.045C203.774 180.059 203.596 180.202 202.883 179.56C199.712 176.638 193.011 176.745 189.839 179.774C189.282 180.31 188.451 180.443 187.754 180.109L177.187 175.034L166.919 170.072C166.009 169.632 165.382 168.765 165.248 167.764C164.571 163.059 160.544 159.602 155.697 159.602C152.632 159.602 150.921 160.173 149.068 161.812C145.54 164.913 144.72 168.405 146.217 173.716C146.395 174.286 143.651 177.529 132.282 190.288L120.239 203.722C118.882 205.237 116.923 206.073 114.89 206.005C111.896 205.898 111.504 205.969 109.686 206.896C104.911 209.426 102.986 215.449 105.41 220.332C107.797 225.072 113.856 227.068 118.739 224.68C120.842 223.646 122.089 222.399 123.336 220.047C124.441 217.944 124.441 213.489 123.301 211.386C122.829 210.486 122.966 209.388 123.644 208.631L136.701 194.066L150.02 179.17C150.515 178.616 151.31 178.443 151.99 178.741C152.632 178.99 154.236 179.204 155.554 179.204C158.477 179.204 161.007 178.171 162.647 176.282C163.299 175.525 164.377 175.299 165.278 175.731L175.12 180.451L184.389 184.897C185.695 185.523 186.584 186.781 186.739 188.221C187.273 193.496 191.051 197.024 196.255 197.024C199.391 197.024 201.066 196.454 203.062 194.636C205.236 192.676 206.305 190.431 206.447 187.544C206.493 186.118 207.155 184.782 208.262 183.882L219.634 174.642L231.759 164.758C232.368 164.261 233.202 164.142 233.925 164.449C235.494 165.127 239.806 165.091 241.41 164.414C243.477 163.558 245.259 161.919 246.399 159.888C247.29 158.248 247.433 157.642 247.433 155.147C247.433 152.902 247.255 151.976 246.649 150.835C244.582 146.986 241.909 145.347 237.632 145.347C235.422 145.347 234.567 145.525 233.07 146.273ZM239.77 151.584C240.911 152.189 241.909 153.758 241.909 154.969C241.909 156.252 240.804 158.177 239.735 158.711C235.957 160.672 231.965 156.894 233.89 153.187C234.923 151.227 237.632 150.479 239.77 151.584ZM158.12 166.231C160.009 167.799 160.045 170.615 158.156 172.468C155.234 175.391 149.923 171.862 151.491 168.085C152.668 165.305 155.946 164.378 158.12 166.231ZM198.963 183.909C200.424 185.049 201.066 186.795 200.567 188.328C199.961 190.145 198.357 191.322 196.397 191.322C195.043 191.322 194.615 191.143 193.582 190.11C192.548 189.076 192.37 188.649 192.37 187.223C192.37 185.797 192.548 185.37 193.582 184.336C194.615 183.303 195.043 183.124 196.397 183.124C197.466 183.124 198.286 183.374 198.963 183.909ZM116.458 212.171C117.598 212.776 118.596 214.345 118.596 215.556C118.596 216.839 117.491 218.764 116.422 219.298C112.644 221.259 108.653 217.481 110.577 213.774C111.611 211.814 114.32 211.066 116.458 212.171Z" fill="#1269E8"/>
<path d="M233.07 146.273C228.972 148.305 226.762 153.401 228.045 157.82C228.389 159.048 228.08 160.116 227.107 160.94C225.014 162.712 220.852 166.155 216.07 170.045C203.774 180.059 203.596 180.202 202.883 179.56C199.712 176.638 193.011 176.745 189.839 179.774C189.282 180.31 188.451 180.443 187.754 180.109L177.187 175.034L166.919 170.072C166.009 169.632 165.382 168.765 165.248 167.764C164.571 163.059 160.544 159.602 155.697 159.602C152.632 159.602 150.921 160.173 149.068 161.812C145.54 164.913 144.72 168.405 146.217 173.716C146.395 174.286 143.651 177.529 132.282 190.288L120.239 203.722C118.882 205.237 116.923 206.073 114.89 206.005C111.896 205.898 111.504 205.969 109.686 206.896C104.911 209.426 102.986 215.449 105.41 220.332C107.797 225.072 113.856 227.068 118.739 224.68C120.842 223.646 122.089 222.399 123.336 220.047C124.441 217.944 124.441 213.489 123.301 211.386C122.829 210.486 122.966 209.388 123.644 208.631L136.701 194.066L150.02 179.17C150.515 178.616 151.31 178.443 151.99 178.741C152.632 178.99 154.236 179.204 155.554 179.204C158.477 179.204 161.007 178.171 162.647 176.282C163.299 175.525 164.377 175.299 165.278 175.731L175.12 180.451L184.389 184.897C185.695 185.523 186.584 186.781 186.739 188.221C187.273 193.496 191.051 197.024 196.255 197.024C199.391 197.024 201.066 196.454 203.062 194.636C205.236 192.676 206.305 190.431 206.447 187.544C206.493 186.118 207.155 184.782 208.262 183.882L219.634 174.642L231.759 164.758C232.368 164.261 233.202 164.142 233.925 164.449C235.494 165.127 239.806 165.091 241.41 164.414C243.477 163.558 245.259 161.919 246.399 159.888C247.29 158.248 247.433 157.642 247.433 155.147C247.433 152.902 247.255 151.976 246.649 150.835C244.582 146.986 241.909 145.347 237.632 145.347C235.422 145.347 234.567 145.525 233.07 146.273ZM239.77 151.584C240.911 152.189 241.909 153.758 241.909 154.969C241.909 156.252 240.804 158.177 239.735 158.711C235.957 160.672 231.965 156.894 233.89 153.187C234.923 151.227 237.632 150.479 239.77 151.584ZM158.12 166.231C160.009 167.799 160.045 170.615 158.156 172.468C155.234 175.391 149.923 171.862 151.491 168.085C152.668 165.305 155.946 164.378 158.12 166.231ZM198.963 183.909C200.424 185.049 201.066 186.795 200.567 188.328C199.961 190.145 198.357 191.322 196.397 191.322C195.043 191.322 194.615 191.143 193.582 190.11C192.548 189.076 192.37 188.649 192.37 187.223C192.37 185.797 192.548 185.37 193.582 184.336C194.615 183.303 195.043 183.124 196.397 183.124C197.466 183.124 198.286 183.374 198.963 183.909ZM116.458 212.171C117.598 212.776 118.596 214.345 118.596 215.556C118.596 216.839 117.491 218.764 116.422 219.298C112.644 221.259 108.653 217.481 110.577 213.774C111.611 211.814 114.32 211.066 116.458 212.171Z" fill="url(#paint11_radial_11519_3381)" fill-opacity="0.2"/>
<path d="M233.07 146.273C228.972 148.305 226.762 153.401 228.045 157.82C228.389 159.048 228.08 160.116 227.107 160.94C225.014 162.712 220.852 166.155 216.07 170.045C203.774 180.059 203.596 180.202 202.883 179.56C199.712 176.638 193.011 176.745 189.839 179.774C189.282 180.31 188.451 180.443 187.754 180.109L177.187 175.034L166.919 170.072C166.009 169.632 165.382 168.765 165.248 167.764C164.571 163.059 160.544 159.602 155.697 159.602C152.632 159.602 150.921 160.173 149.068 161.812C145.54 164.913 144.72 168.405 146.217 173.716C146.395 174.286 143.651 177.529 132.282 190.288L120.239 203.722C118.882 205.237 116.923 206.073 114.89 206.005C111.896 205.898 111.504 205.969 109.686 206.896C104.911 209.426 102.986 215.449 105.41 220.332C107.797 225.072 113.856 227.068 118.739 224.68C120.842 223.646 122.089 222.399 123.336 220.047C124.441 217.944 124.441 213.489 123.301 211.386C122.829 210.486 122.966 209.388 123.644 208.631L136.701 194.066L150.02 179.17C150.515 178.616 151.31 178.443 151.99 178.741C152.632 178.99 154.236 179.204 155.554 179.204C158.477 179.204 161.007 178.171 162.647 176.282C163.299 175.525 164.377 175.299 165.278 175.731L175.12 180.451L184.389 184.897C185.695 185.523 186.584 186.781 186.739 188.221C187.273 193.496 191.051 197.024 196.255 197.024C199.391 197.024 201.066 196.454 203.062 194.636C205.236 192.676 206.305 190.431 206.447 187.544C206.493 186.118 207.155 184.782 208.262 183.882L219.634 174.642L231.759 164.758C232.368 164.261 233.202 164.142 233.925 164.449C235.494 165.127 239.806 165.091 241.41 164.414C243.477 163.558 245.259 161.919 246.399 159.888C247.29 158.248 247.433 157.642 247.433 155.147C247.433 152.902 247.255 151.976 246.649 150.835C244.582 146.986 241.909 145.347 237.632 145.347C235.422 145.347 234.567 145.525 233.07 146.273ZM239.77 151.584C240.911 152.189 241.909 153.758 241.909 154.969C241.909 156.252 240.804 158.177 239.735 158.711C235.957 160.672 231.965 156.894 233.89 153.187C234.923 151.227 237.632 150.479 239.77 151.584ZM158.12 166.231C160.009 167.799 160.045 170.615 158.156 172.468C155.234 175.391 149.923 171.862 151.491 168.085C152.668 165.305 155.946 164.378 158.12 166.231ZM198.963 183.909C200.424 185.049 201.066 186.795 200.567 188.328C199.961 190.145 198.357 191.322 196.397 191.322C195.043 191.322 194.615 191.143 193.582 190.11C192.548 189.076 192.37 188.649 192.37 187.223C192.37 185.797 192.548 185.37 193.582 184.336C194.615 183.303 195.043 183.124 196.397 183.124C197.466 183.124 198.286 183.374 198.963 183.909ZM116.458 212.171C117.598 212.776 118.596 214.345 118.596 215.556C118.596 216.839 117.491 218.764 116.422 219.298C112.644 221.259 108.653 217.481 110.577 213.774C111.611 211.814 114.32 211.066 116.458 212.171Z" fill="url(#paint12_radial_11519_3381)" fill-opacity="0.2"/>
<g filter="url(#filter17_b_11519_3381)">
<path d="M213.714 250.3L279.396 212.965C289.472 207.238 301.817 207.235 311.895 212.959L378.255 250.648C388.545 256.492 394.903 267.414 394.903 279.249V345.553C394.903 357.308 388.63 368.169 378.448 374.043L312.427 412.133C302.254 418.001 289.725 418.001 279.553 412.133L213.531 374.043C203.349 368.169 197.076 357.308 197.076 345.553V278.895C197.076 267.065 203.429 256.146 213.714 250.3Z" fill="url(#paint13_linear_11519_3381)" fill-opacity="0.5"/>
<path d="M213.714 250.3L279.396 212.965C289.472 207.238 301.817 207.235 311.895 212.959L378.255 250.648C388.545 256.492 394.903 267.414 394.903 279.249V345.553C394.903 357.308 388.63 368.169 378.448 374.043L312.427 412.133C302.254 418.001 289.725 418.001 279.553 412.133L213.531 374.043C203.349 368.169 197.076 357.308 197.076 345.553V278.895C197.076 267.065 203.429 256.146 213.714 250.3Z" stroke="#4B88FF" stroke-opacity="0.6" stroke-width="1.40291"/>
</g>
<path d="M354.08 464.152C354.08 464.575 354.222 464.717 354.663 464.717H436.198C439.662 464.717 441.255 465.292 441.976 466.296C442.687 467.015 443.412 468.452 443.412 471.896V514.231C443.412 519.83 441.824 521.269 436.198 521.269H354.663C354.222 521.269 354.08 521.412 354.08 521.849V537.632C354.08 540.933 356.393 543.235 359.716 543.235H439.52C458.006 543.235 467.249 534.051 467.249 515.53V470.458C467.249 451.95 458.006 442.764 439.52 442.764H359.716C358.554 442.764 357.545 443.048 356.536 443.768L355.387 444.768C354.948 445.192 354.663 445.77 354.52 446.208C354.365 446.349 354.365 446.491 354.365 446.773C354.222 447.787 354.08 448.211 354.08 448.352V464.152Z" fill="url(#paint14_linear_11519_3381)" fill-opacity="0.3"/>
<path d="M354.08 464.152C354.08 464.575 354.222 464.717 354.663 464.717H436.198C439.662 464.717 441.255 465.292 441.976 466.296C442.687 467.015 443.412 468.452 443.412 471.896V514.231C443.412 519.83 441.824 521.269 436.198 521.269H354.663C354.222 521.269 354.08 521.412 354.08 521.849V537.632C354.08 540.933 356.393 543.235 359.716 543.235H439.52C458.006 543.235 467.249 534.051 467.249 515.53V470.458C467.249 451.95 458.006 442.764 439.52 442.764H359.716C358.554 442.764 357.545 443.048 356.536 443.768L355.387 444.768C354.948 445.192 354.663 445.77 354.52 446.208C354.365 446.349 354.365 446.491 354.365 446.773C354.222 447.787 354.08 448.211 354.08 448.352V464.152Z" fill="url(#paint15_linear_11519_3381)" fill-opacity="0.3"/>
<path d="M558.454 246.337L557.963 246.193L557.951 245.681L557.876 242.52L557.817 240.043H551.627H545.429V242.478V245.614V246.198L544.856 246.304L544.188 246.428C538.342 247.682 533.764 250.466 531.312 254.132C529.071 257.507 528.273 260.519 528.444 265.158L528.444 265.159C528.53 267.579 528.866 269.49 529.513 271.151C530.157 272.806 531.123 274.248 532.514 275.712C535.408 278.7 539.059 280.443 547.565 282.669L547.566 282.669C553.458 284.217 554.874 284.638 556.61 285.532C558.156 286.299 559.239 287.449 559.702 288.811C560.168 290.183 559.974 291.685 559.125 293.072C558.461 294.158 557.23 294.988 555.836 295.514C554.427 296.045 552.767 296.299 551.143 296.165L551.14 296.165C547.438 295.845 544.647 293.837 543.991 290.639L543.99 290.638L543.803 289.719H535.52H527.417L527.512 290.626L527.512 290.626L527.513 290.634C528.22 298.288 531.95 303.856 538.383 306.952L538.383 306.952L538.39 306.955C539.261 307.385 540.718 307.937 542.075 308.385C542.75 308.608 543.388 308.801 543.904 308.938C544.454 309.083 544.778 309.14 544.878 309.14C545.073 309.14 545.265 309.206 545.423 309.338C545.565 309.457 545.645 309.601 545.693 309.711C545.784 309.921 545.827 310.182 545.855 310.446C545.913 310.997 545.931 311.881 545.931 313.229V315.914H552.129H558.327V313.254V309.892V309.295L558.916 309.2L559.989 309.025C561.707 308.714 564.545 307.691 566.858 306.485L566.858 306.485L566.865 306.481C568.568 305.618 569.487 304.939 571.228 303.199L571.231 303.196C572.221 302.218 572.801 301.605 573.255 300.994C573.704 300.39 574.044 299.767 574.527 298.752L574.527 298.752C575.986 295.69 576.466 293.562 576.441 289.901V289.896C576.441 287.214 576.127 285.133 575.411 283.317C574.697 281.505 573.565 279.909 571.858 278.228L571.855 278.224C570.15 276.519 569.33 275.934 567.364 274.915C564.323 273.37 561.897 272.532 555.212 270.754C551.147 269.691 548.49 268.817 546.846 267.815C546.01 267.304 545.394 266.737 544.993 266.058C544.589 265.374 544.435 264.634 544.428 263.837C544.414 262.919 544.599 262.111 545.07 261.407C545.535 260.711 546.234 260.184 547.124 259.739C547.672 259.465 548.132 259.291 548.77 259.196C549.375 259.106 550.128 259.088 551.251 259.088C552.461 259.088 553.215 259.098 553.821 259.209C554.468 259.328 554.928 259.558 555.554 259.903L555.554 259.903L555.562 259.907C557.182 260.829 558.275 262.279 558.59 264.107C558.59 264.108 558.591 264.11 558.591 264.111L558.659 264.482H566.58H574.384V263.603C574.384 262.822 574.17 261.225 573.901 260.078C572.311 253.551 567.776 249.012 560.593 246.966L560.587 246.964L558.454 246.337ZM577.143 289.896C577.168 293.659 576.666 295.892 575.161 299.054C574.182 301.111 573.706 301.738 571.724 303.695C569.942 305.476 568.964 306.204 567.182 307.107L577.143 289.896Z" fill="url(#paint16_linear_11519_3381)" fill-opacity="0.3" stroke="#BAD7FE" stroke-width="1.40291"/>
<g opacity="0.9" filter="url(#filter18_d_11519_3381)">
<path fill-rule="evenodd" clip-rule="evenodd" d="M267.08 332.034C270.279 325.536 276.43 320.799 283.597 319.286C285.705 318.84 286.945 318.79 296.245 318.79C307.53 318.765 308.77 318.865 312.614 320.229C318.64 322.361 324.468 328.066 326.651 333.993C327.012 334.976 327.28 335.692 327.479 336.428C328.06 338.569 328.065 340.866 328.139 350.336L328.238 362.166L326.552 362.935C321.74 365.118 315.267 366.705 307.257 367.647C303.388 368.118 292.327 368.044 288.037 367.548C280.15 366.581 273.925 365.291 266.906 363.134L264.476 362.39V352.42C264.476 339.102 264.798 336.696 267.08 332.034ZM319.285 300.339C319.285 301.926 318.392 305.646 317.549 307.655C316.606 309.937 315.217 312.144 313.531 314.128C312.837 314.922 312.316 315.616 312.365 315.641C312.415 315.69 313.382 316.087 314.498 316.534C321.889 319.435 327.816 325.487 330.618 332.927C331.983 336.548 332.206 338.011 332.355 343.641L332.479 348.824L335.132 348.65C343.093 348.154 351.029 346.418 356.932 343.889L358.99 342.996L358.891 330.943C358.888 330.561 358.885 330.192 358.883 329.833C358.817 321.061 358.801 318.848 358.193 316.811C357.988 316.124 357.716 315.457 357.352 314.566C357.32 314.488 357.288 314.408 357.254 314.326C354.551 307.655 348.524 302.323 341.58 300.413C338.728 299.644 335.653 299.421 327.171 299.421H319.285V300.339ZM233.698 314.326C236.947 306.34 244.61 300.611 253.241 299.694C255.597 299.446 272.04 299.396 272.908 299.644C273.478 299.793 273.553 299.966 273.726 301.777C274.123 305.844 276.355 310.779 279.158 313.904C279.976 314.822 280.621 315.616 280.571 315.665C280.522 315.715 279.703 316.037 278.736 316.409C270.254 319.584 263.682 326.801 261.376 335.431C260.632 338.209 260.284 341.557 260.26 345.748C260.26 348.551 260.21 348.799 259.838 348.699C259.59 348.625 258.325 348.501 257.036 348.402C251.629 348.03 243.122 346.418 236.129 344.434C233.971 343.814 232.136 343.318 232.086 343.318C232.012 343.318 232.012 337.812 232.061 331.091L232.07 329.97C232.135 321.058 232.152 318.837 232.764 316.795C232.967 316.117 233.236 315.459 233.594 314.582L233.698 314.326ZM291.756 279.442C282.381 281.848 276.305 291.173 277.967 300.646C279.43 309.054 285.804 315.105 294.286 316.147C303.065 317.213 311.472 311.807 314.225 303.35C315.019 300.919 315.292 296.778 314.845 294.149C313.58 286.907 307.678 280.806 300.461 279.268C298.08 278.772 294.013 278.847 291.756 279.442ZM245.603 273.689C247.438 266.546 253.291 261.14 260.558 259.825C262.343 259.528 266.733 259.726 268.568 260.197C270.775 260.793 273.851 262.38 275.686 263.917C279.679 267.191 282.184 272.25 282.382 277.384L282.457 279.319L280.572 281.179C277.447 284.229 275.314 287.924 274.272 292.041L273.727 294.174L271.892 295.117C262.74 299.754 251.009 295.637 246.744 286.312C245.082 282.642 244.611 277.508 245.603 273.689ZM312.713 266.472C315.292 263.198 319.707 260.619 324.047 259.825C325.833 259.527 330.222 259.726 332.058 260.197C334.265 260.792 337.34 262.38 339.175 263.917C345.078 268.778 347.359 276.764 344.954 284.303C343.391 289.214 339.398 293.529 334.488 295.612C330.569 297.274 325.485 297.472 321.517 296.133L321.359 296.08L321.143 296.007C320.344 295.738 319.898 295.589 319.602 295.29C319.228 294.913 319.094 294.299 318.79 292.909L318.79 292.907C318.751 292.731 318.71 292.541 318.665 292.339C317.549 287.428 314.152 282.27 310.01 279.244L308.522 278.177L308.596 276.789C308.745 273.515 310.382 269.423 312.713 266.472Z" fill="#1269E8"/>
<path fill-rule="evenodd" clip-rule="evenodd" d="M267.08 332.034C270.279 325.536 276.43 320.799 283.597 319.286C285.705 318.84 286.945 318.79 296.245 318.79C307.53 318.765 308.77 318.865 312.614 320.229C318.64 322.361 324.468 328.066 326.651 333.993C327.012 334.976 327.28 335.692 327.479 336.428C328.06 338.569 328.065 340.866 328.139 350.336L328.238 362.166L326.552 362.935C321.74 365.118 315.267 366.705 307.257 367.647C303.388 368.118 292.327 368.044 288.037 367.548C280.15 366.581 273.925 365.291 266.906 363.134L264.476 362.39V352.42C264.476 339.102 264.798 336.696 267.08 332.034ZM319.285 300.339C319.285 301.926 318.392 305.646 317.549 307.655C316.606 309.937 315.217 312.144 313.531 314.128C312.837 314.922 312.316 315.616 312.365 315.641C312.415 315.69 313.382 316.087 314.498 316.534C321.889 319.435 327.816 325.487 330.618 332.927C331.983 336.548 332.206 338.011 332.355 343.641L332.479 348.824L335.132 348.65C343.093 348.154 351.029 346.418 356.932 343.889L358.99 342.996L358.891 330.943C358.888 330.561 358.885 330.192 358.883 329.833C358.817 321.061 358.801 318.848 358.193 316.811C357.988 316.124 357.716 315.457 357.352 314.566C357.32 314.488 357.288 314.408 357.254 314.326C354.551 307.655 348.524 302.323 341.58 300.413C338.728 299.644 335.653 299.421 327.171 299.421H319.285V300.339ZM233.698 314.326C236.947 306.34 244.61 300.611 253.241 299.694C255.597 299.446 272.04 299.396 272.908 299.644C273.478 299.793 273.553 299.966 273.726 301.777C274.123 305.844 276.355 310.779 279.158 313.904C279.976 314.822 280.621 315.616 280.571 315.665C280.522 315.715 279.703 316.037 278.736 316.409C270.254 319.584 263.682 326.801 261.376 335.431C260.632 338.209 260.284 341.557 260.26 345.748C260.26 348.551 260.21 348.799 259.838 348.699C259.59 348.625 258.325 348.501 257.036 348.402C251.629 348.03 243.122 346.418 236.129 344.434C233.971 343.814 232.136 343.318 232.086 343.318C232.012 343.318 232.012 337.812 232.061 331.091L232.07 329.97C232.135 321.058 232.152 318.837 232.764 316.795C232.967 316.117 233.236 315.459 233.594 314.582L233.698 314.326ZM291.756 279.442C282.381 281.848 276.305 291.173 277.967 300.646C279.43 309.054 285.804 315.105 294.286 316.147C303.065 317.213 311.472 311.807 314.225 303.35C315.019 300.919 315.292 296.778 314.845 294.149C313.58 286.907 307.678 280.806 300.461 279.268C298.08 278.772 294.013 278.847 291.756 279.442ZM245.603 273.689C247.438 266.546 253.291 261.14 260.558 259.825C262.343 259.528 266.733 259.726 268.568 260.197C270.775 260.793 273.851 262.38 275.686 263.917C279.679 267.191 282.184 272.25 282.382 277.384L282.457 279.319L280.572 281.179C277.447 284.229 275.314 287.924 274.272 292.041L273.727 294.174L271.892 295.117C262.74 299.754 251.009 295.637 246.744 286.312C245.082 282.642 244.611 277.508 245.603 273.689ZM312.713 266.472C315.292 263.198 319.707 260.619 324.047 259.825C325.833 259.527 330.222 259.726 332.058 260.197C334.265 260.792 337.34 262.38 339.175 263.917C345.078 268.778 347.359 276.764 344.954 284.303C343.391 289.214 339.398 293.529 334.488 295.612C330.569 297.274 325.485 297.472 321.517 296.133L321.359 296.08L321.143 296.007C320.344 295.738 319.898 295.589 319.602 295.29C319.228 294.913 319.094 294.299 318.79 292.909L318.79 292.907C318.751 292.731 318.71 292.541 318.665 292.339C317.549 287.428 314.152 282.27 310.01 279.244L308.522 278.177L308.596 276.789C308.745 273.515 310.382 269.423 312.713 266.472Z" fill="url(#paint17_radial_11519_3381)" fill-opacity="0.2"/>
<path fill-rule="evenodd" clip-rule="evenodd" d="M267.08 332.034C270.279 325.536 276.43 320.799 283.597 319.286C285.705 318.84 286.945 318.79 296.245 318.79C307.53 318.765 308.77 318.865 312.614 320.229C318.64 322.361 324.468 328.066 326.651 333.993C327.012 334.976 327.28 335.692 327.479 336.428C328.06 338.569 328.065 340.866 328.139 350.336L328.238 362.166L326.552 362.935C321.74 365.118 315.267 366.705 307.257 367.647C303.388 368.118 292.327 368.044 288.037 367.548C280.15 366.581 273.925 365.291 266.906 363.134L264.476 362.39V352.42C264.476 339.102 264.798 336.696 267.08 332.034ZM319.285 300.339C319.285 301.926 318.392 305.646 317.549 307.655C316.606 309.937 315.217 312.144 313.531 314.128C312.837 314.922 312.316 315.616 312.365 315.641C312.415 315.69 313.382 316.087 314.498 316.534C321.889 319.435 327.816 325.487 330.618 332.927C331.983 336.548 332.206 338.011 332.355 343.641L332.479 348.824L335.132 348.65C343.093 348.154 351.029 346.418 356.932 343.889L358.99 342.996L358.891 330.943C358.888 330.561 358.885 330.192 358.883 329.833C358.817 321.061 358.801 318.848 358.193 316.811C357.988 316.124 357.716 315.457 357.352 314.566C357.32 314.488 357.288 314.408 357.254 314.326C354.551 307.655 348.524 302.323 341.58 300.413C338.728 299.644 335.653 299.421 327.171 299.421H319.285V300.339ZM233.698 314.326C236.947 306.34 244.61 300.611 253.241 299.694C255.597 299.446 272.04 299.396 272.908 299.644C273.478 299.793 273.553 299.966 273.726 301.777C274.123 305.844 276.355 310.779 279.158 313.904C279.976 314.822 280.621 315.616 280.571 315.665C280.522 315.715 279.703 316.037 278.736 316.409C270.254 319.584 263.682 326.801 261.376 335.431C260.632 338.209 260.284 341.557 260.26 345.748C260.26 348.551 260.21 348.799 259.838 348.699C259.59 348.625 258.325 348.501 257.036 348.402C251.629 348.03 243.122 346.418 236.129 344.434C233.971 343.814 232.136 343.318 232.086 343.318C232.012 343.318 232.012 337.812 232.061 331.091L232.07 329.97C232.135 321.058 232.152 318.837 232.764 316.795C232.967 316.117 233.236 315.459 233.594 314.582L233.698 314.326ZM291.756 279.442C282.381 281.848 276.305 291.173 277.967 300.646C279.43 309.054 285.804 315.105 294.286 316.147C303.065 317.213 311.472 311.807 314.225 303.35C315.019 300.919 315.292 296.778 314.845 294.149C313.58 286.907 307.678 280.806 300.461 279.268C298.08 278.772 294.013 278.847 291.756 279.442ZM245.603 273.689C247.438 266.546 253.291 261.14 260.558 259.825C262.343 259.528 266.733 259.726 268.568 260.197C270.775 260.793 273.851 262.38 275.686 263.917C279.679 267.191 282.184 272.25 282.382 277.384L282.457 279.319L280.572 281.179C277.447 284.229 275.314 287.924 274.272 292.041L273.727 294.174L271.892 295.117C262.74 299.754 251.009 295.637 246.744 286.312C245.082 282.642 244.611 277.508 245.603 273.689ZM312.713 266.472C315.292 263.198 319.707 260.619 324.047 259.825C325.833 259.527 330.222 259.726 332.058 260.197C334.265 260.792 337.34 262.38 339.175 263.917C345.078 268.778 347.359 276.764 344.954 284.303C343.391 289.214 339.398 293.529 334.488 295.612C330.569 297.274 325.485 297.472 321.517 296.133L321.359 296.08L321.143 296.007C320.344 295.738 319.898 295.589 319.602 295.29C319.228 294.913 319.094 294.299 318.79 292.909L318.79 292.907C318.751 292.731 318.71 292.541 318.665 292.339C317.549 287.428 314.152 282.27 310.01 279.244L308.522 278.177L308.596 276.789C308.745 273.515 310.382 269.423 312.713 266.472Z" fill="url(#paint18_radial_11519_3381)" fill-opacity="0.2"/>
</g>
<g opacity="0.9">
<path d="M449.482 302.627C447.833 303.172 448.152 302.867 433.086 317.906C425.16 325.818 418.485 332.6 418.232 332.973C417.221 334.475 416.929 336.763 417.501 338.491C418.365 341.058 420.413 342.574 423.352 342.813L424.402 342.906L424.442 353.757C424.482 364.395 424.495 364.621 424.761 365.339C425.759 367.972 427.421 369.595 429.854 370.313C430.479 370.499 431.477 370.526 436.969 370.526C443.112 370.526 443.378 370.512 443.804 370.26C444.043 370.113 444.349 369.807 444.495 369.568C444.748 369.143 444.761 368.877 444.761 360.685C444.761 354.927 444.814 352.068 444.907 351.709C445.133 350.911 445.758 350.1 446.463 349.688L447.088 349.316H451.29H455.492L456.144 349.715C456.875 350.167 457.567 351.191 457.713 352.002C457.753 352.281 457.793 356.23 457.793 360.792C457.793 369.768 457.766 369.422 458.524 370.127L458.883 370.459L465.28 370.499C469.561 370.526 471.915 370.486 472.381 370.393C474.216 370.007 476.343 368.385 477.181 366.736C478.112 364.874 478.059 365.632 478.112 353.691L478.152 342.893L479.242 342.8C481.915 342.574 483.67 341.403 484.774 339.143C485.239 338.159 485.253 338.119 485.253 336.483C485.253 334.834 485.253 334.808 484.747 333.757C484.242 332.693 484.229 332.68 469.654 318.106C455.067 303.518 455.067 303.518 454.003 303.013C452.992 302.534 452.859 302.507 451.476 302.481C450.532 302.454 449.828 302.507 449.482 302.627Z" fill="#1269E8"/>
<path d="M449.482 302.627C447.833 303.172 448.152 302.867 433.086 317.906C425.16 325.818 418.485 332.6 418.232 332.973C417.221 334.475 416.929 336.763 417.501 338.491C418.365 341.058 420.413 342.574 423.352 342.813L424.402 342.906L424.442 353.757C424.482 364.395 424.495 364.621 424.761 365.339C425.759 367.972 427.421 369.595 429.854 370.313C430.479 370.499 431.477 370.526 436.969 370.526C443.112 370.526 443.378 370.512 443.804 370.26C444.043 370.113 444.349 369.807 444.495 369.568C444.748 369.143 444.761 368.877 444.761 360.685C444.761 354.927 444.814 352.068 444.907 351.709C445.133 350.911 445.758 350.1 446.463 349.688L447.088 349.316H451.29H455.492L456.144 349.715C456.875 350.167 457.567 351.191 457.713 352.002C457.753 352.281 457.793 356.23 457.793 360.792C457.793 369.768 457.766 369.422 458.524 370.127L458.883 370.459L465.28 370.499C469.561 370.526 471.915 370.486 472.381 370.393C474.216 370.007 476.343 368.385 477.181 366.736C478.112 364.874 478.059 365.632 478.112 353.691L478.152 342.893L479.242 342.8C481.915 342.574 483.67 341.403 484.774 339.143C485.239 338.159 485.253 338.119 485.253 336.483C485.253 334.834 485.253 334.808 484.747 333.757C484.242 332.693 484.229 332.68 469.654 318.106C455.067 303.518 455.067 303.518 454.003 303.013C452.992 302.534 452.859 302.507 451.476 302.481C450.532 302.454 449.828 302.507 449.482 302.627Z" fill="url(#paint19_radial_11519_3381)" fill-opacity="0.2"/>
<path d="M449.482 302.627C447.833 303.172 448.152 302.867 433.086 317.906C425.16 325.818 418.485 332.6 418.232 332.973C417.221 334.475 416.929 336.763 417.501 338.491C418.365 341.058 420.413 342.574 423.352 342.813L424.402 342.906L424.442 353.757C424.482 364.395 424.495 364.621 424.761 365.339C425.759 367.972 427.421 369.595 429.854 370.313C430.479 370.499 431.477 370.526 436.969 370.526C443.112 370.526 443.378 370.512 443.804 370.26C444.043 370.113 444.349 369.807 444.495 369.568C444.748 369.143 444.761 368.877 444.761 360.685C444.761 354.927 444.814 352.068 444.907 351.709C445.133 350.911 445.758 350.1 446.463 349.688L447.088 349.316H451.29H455.492L456.144 349.715C456.875 350.167 457.567 351.191 457.713 352.002C457.753 352.281 457.793 356.23 457.793 360.792C457.793 369.768 457.766 369.422 458.524 370.127L458.883 370.459L465.28 370.499C469.561 370.526 471.915 370.486 472.381 370.393C474.216 370.007 476.343 368.385 477.181 366.736C478.112 364.874 478.059 365.632 478.112 353.691L478.152 342.893L479.242 342.8C481.915 342.574 483.67 341.403 484.774 339.143C485.239 338.159 485.253 338.119 485.253 336.483C485.253 334.834 485.253 334.808 484.747 333.757C484.242 332.693 484.229 332.68 469.654 318.106C455.067 303.518 455.067 303.518 454.003 303.013C452.992 302.534 452.859 302.507 451.476 302.481C450.532 302.454 449.828 302.507 449.482 302.627Z" fill="url(#paint20_radial_11519_3381)" fill-opacity="0.2"/>
</g>
<defs>
<filter id="filter0_b_11519_3381" x="112.873" y="118.808" width="365.973" height="388.931" filterUnits="userSpaceOnUse" color-interpolation-filters="sRGB">
<feFlood flood-opacity="0" result="BackgroundImageFix"/>
<feGaussianBlur in="BackgroundImageFix" stdDeviation="9.24751"/>
<feComposite in2="SourceAlpha" operator="in" result="effect1_backgroundBlur_11519_3381"/>
<feBlend mode="normal" in="SourceGraphic" in2="effect1_backgroundBlur_11519_3381" result="shape"/>
</filter>
<filter id="filter1_b_11519_3381" x="74.9939" y="76.7226" width="441.731" height="472.401" filterUnits="userSpaceOnUse" color-interpolation-filters="sRGB">
<feFlood flood-opacity="0" result="BackgroundImageFix"/>
<feGaussianBlur in="BackgroundImageFix" stdDeviation="9.24751"/>
<feComposite in2="SourceAlpha" operator="in" result="effect1_backgroundBlur_11519_3381"/>
<feBlend mode="normal" in="SourceGraphic" in2="effect1_backgroundBlur_11519_3381" result="shape"/>
</filter>
<filter id="filter2_b_11519_3381" x="156.363" y="166.5" width="279.315" height="293.341" filterUnits="userSpaceOnUse" color-interpolation-filters="sRGB">
<feFlood flood-opacity="0" result="BackgroundImageFix"/>
<feGaussianBlur in="BackgroundImageFix" stdDeviation="9.24751"/>
<feComposite in2="SourceAlpha" operator="in" result="effect1_backgroundBlur_11519_3381"/>
<feBlend mode="normal" in="SourceGraphic" in2="effect1_backgroundBlur_11519_3381" result="shape"/>
</filter>
<filter id="filter3_b_11519_3381" x="-18.8149" y="-15.3778" width="388.749" height="413.135" filterUnits="userSpaceOnUse" color-interpolation-filters="sRGB">
<feFlood flood-opacity="0" result="BackgroundImageFix"/>
<feGaussianBlur in="BackgroundImageFix" stdDeviation="9.823"/>
<feComposite in2="SourceAlpha" operator="in" result="effect1_backgroundBlur_11519_3381"/>
<feBlend mode="normal" in="SourceGraphic" in2="effect1_backgroundBlur_11519_3381" result="shape"/>
</filter>
<filter id="filter4_b_11519_3381" x="27.3813" y="35.2816" width="296.697" height="311.596" filterUnits="userSpaceOnUse" color-interpolation-filters="sRGB">
<feFlood flood-opacity="0" result="BackgroundImageFix"/>
<feGaussianBlur in="BackgroundImageFix" stdDeviation="9.823"/>
<feComposite in2="SourceAlpha" operator="in" result="effect1_backgroundBlur_11519_3381"/>
<feBlend mode="normal" in="SourceGraphic" in2="effect1_backgroundBlur_11519_3381" result="shape"/>
</filter>
<filter id="filter5_b_11519_3381" x="254.399" y="325.968" width="312.426" height="334.49" filterUnits="userSpaceOnUse" color-interpolation-filters="sRGB">
<feFlood flood-opacity="0" result="BackgroundImageFix"/>
<feGaussianBlur in="BackgroundImageFix" stdDeviation="9.24751"/>
<feComposite in2="SourceAlpha" operator="in" result="effect1_backgroundBlur_11519_3381"/>
<feBlend mode="normal" in="SourceGraphic" in2="effect1_backgroundBlur_11519_3381" result="shape"/>
</filter>
<filter id="filter6_b_11519_3381" x="223.703" y="297.092" width="373.689" height="402.83" filterUnits="userSpaceOnUse" color-interpolation-filters="sRGB">
<feFlood flood-opacity="0" result="BackgroundImageFix"/>
<feGaussianBlur in="BackgroundImageFix" stdDeviation="9.24751"/>
<feComposite in2="SourceAlpha" operator="in" result="effect1_backgroundBlur_11519_3381"/>
<feBlend mode="normal" in="SourceGraphic" in2="effect1_backgroundBlur_11519_3381" result="shape"/>
</filter>
<filter id="filter7_b_11519_3381" x="100.221" y="457.103" width="308.085" height="320.039" filterUnits="userSpaceOnUse" color-interpolation-filters="sRGB">
<feFlood flood-opacity="0" result="BackgroundImageFix"/>
<feGaussianBlur in="BackgroundImageFix" stdDeviation="12.3328"/>
<feComposite in2="SourceAlpha" operator="in" result="effect1_backgroundBlur_11519_3381"/>
<feBlend mode="normal" in="SourceGraphic" in2="effect1_backgroundBlur_11519_3381" result="shape"/>
</filter>
<filter id="filter8_b_11519_3381" x="132.153" y="489.208" width="244.641" height="256.457" filterUnits="userSpaceOnUse" color-interpolation-filters="sRGB">
<feFlood flood-opacity="0" result="BackgroundImageFix"/>
<feGaussianBlur in="BackgroundImageFix" stdDeviation="12.4089"/>
<feComposite in2="SourceAlpha" operator="in" result="effect1_backgroundBlur_11519_3381"/>
<feBlend mode="normal" in="SourceGraphic" in2="effect1_backgroundBlur_11519_3381" result="shape"/>
</filter>
<filter id="filter9_b_11519_3381" x="131.212" y="488.267" width="246.523" height="258.338" filterUnits="userSpaceOnUse" color-interpolation-filters="sRGB">
<feFlood flood-opacity="0" result="BackgroundImageFix"/>
<feGaussianBlur in="BackgroundImageFix" stdDeviation="12.4089"/>
<feComposite in2="SourceAlpha" operator="in" result="effect1_backgroundBlur_11519_3381"/>
<feBlend mode="normal" in="SourceGraphic" in2="effect1_backgroundBlur_11519_3381" result="shape"/>
</filter>
<filter id="filter10_b_11519_3381" x="456.672" y="177.361" width="191.84" height="201.107" filterUnits="userSpaceOnUse" color-interpolation-filters="sRGB">
<feFlood flood-opacity="0" result="BackgroundImageFix"/>
<feGaussianBlur in="BackgroundImageFix" stdDeviation="9.73071"/>
<feComposite in2="SourceAlpha" operator="in" result="effect1_backgroundBlur_11519_3381"/>
<feBlend mode="normal" in="SourceGraphic" in2="effect1_backgroundBlur_11519_3381" result="shape"/>
</filter>
<filter id="filter11_b_11519_3381" x="455.934" y="176.624" width="193.317" height="202.582" filterUnits="userSpaceOnUse" color-interpolation-filters="sRGB">
<feFlood flood-opacity="0" result="BackgroundImageFix"/>
<feGaussianBlur in="BackgroundImageFix" stdDeviation="9.73071"/>
<feComposite in2="SourceAlpha" operator="in" result="effect1_backgroundBlur_11519_3381"/>
<feBlend mode="normal" in="SourceGraphic" in2="effect1_backgroundBlur_11519_3381" result="shape"/>
</filter>
<filter id="filter12_b_11519_3381" x="360.414" y="244.795" width="182.314" height="191.12" filterUnits="userSpaceOnUse" color-interpolation-filters="sRGB">
<feFlood flood-opacity="0" result="BackgroundImageFix"/>
<feGaussianBlur in="BackgroundImageFix" stdDeviation="9.24751"/>
<feComposite in2="SourceAlpha" operator="in" result="effect1_backgroundBlur_11519_3381"/>
<feBlend mode="normal" in="SourceGraphic" in2="effect1_backgroundBlur_11519_3381" result="shape"/>
</filter>
<filter id="filter13_b_11519_3381" x="359.712" y="244.094" width="183.717" height="192.522" filterUnits="userSpaceOnUse" color-interpolation-filters="sRGB">
<feFlood flood-opacity="0" result="BackgroundImageFix"/>
<feGaussianBlur in="BackgroundImageFix" stdDeviation="9.24751"/>
<feComposite in2="SourceAlpha" operator="in" result="effect1_backgroundBlur_11519_3381"/>
<feBlend mode="normal" in="SourceGraphic" in2="effect1_backgroundBlur_11519_3381" result="shape"/>
</filter>
<filter id="filter14_b_11519_3381" x="269.218" y="347.012" width="283.361" height="297.047" filterUnits="userSpaceOnUse" color-interpolation-filters="sRGB">
<feFlood flood-opacity="0" result="BackgroundImageFix"/>
<feGaussianBlur in="BackgroundImageFix" stdDeviation="14.3729"/>
<feComposite in2="SourceAlpha" operator="in" result="effect1_backgroundBlur_11519_3381"/>
<feBlend mode="normal" in="SourceGraphic" in2="effect1_backgroundBlur_11519_3381" result="shape"/>
</filter>
<filter id="filter15_b_11519_3381" x="268.128" y="345.923" width="285.541" height="299.226" filterUnits="userSpaceOnUse" color-interpolation-filters="sRGB">
<feFlood flood-opacity="0" result="BackgroundImageFix"/>
<feGaussianBlur in="BackgroundImageFix" stdDeviation="14.3729"/>
<feComposite in2="SourceAlpha" operator="in" result="effect1_backgroundBlur_11519_3381"/>
<feBlend mode="normal" in="SourceGraphic" in2="effect1_backgroundBlur_11519_3381" result="shape"/>
</filter>
<filter id="filter16_b_11519_3381" x="52.8523" y="59.1184" width="245.414" height="259.844" filterUnits="userSpaceOnUse" color-interpolation-filters="sRGB">
<feFlood flood-opacity="0" result="BackgroundImageFix"/>
<feGaussianBlur in="BackgroundImageFix" stdDeviation="9.60745"/>
<feComposite in2="SourceAlpha" operator="in" result="effect1_backgroundBlur_11519_3381"/>
<feBlend mode="normal" in="SourceGraphic" in2="effect1_backgroundBlur_11519_3381" result="shape"/>
</filter>
<filter id="filter17_b_11519_3381" x="177.88" y="189.471" width="236.22" height="246.259" filterUnits="userSpaceOnUse" color-interpolation-filters="sRGB">
<feFlood flood-opacity="0" result="BackgroundImageFix"/>
<feGaussianBlur in="BackgroundImageFix" stdDeviation="9.24751"/>
<feComposite in2="SourceAlpha" operator="in" result="effect1_backgroundBlur_11519_3381"/>
<feBlend mode="normal" in="SourceGraphic" in2="effect1_backgroundBlur_11519_3381" result="shape"/>
</filter>
<filter id="filter18_d_11519_3381" x="216.595" y="248.461" width="157.828" height="139.143" filterUnits="userSpaceOnUse" color-interpolation-filters="sRGB">
<feFlood flood-opacity="0" result="BackgroundImageFix"/>
<feColorMatrix in="SourceAlpha" type="matrix" values="0 0 0 0 0 0 0 0 0 0 0 0 0 0 0 0 0 0 127 0" result="hardAlpha"/>
<feOffset dy="4.20874"/>
<feGaussianBlur stdDeviation="7.71603"/>
<feComposite in2="hardAlpha" operator="out"/>
<feColorMatrix type="matrix" values="0 0 0 0 0.425 0 0 0 0 0.660655 0 0 0 0 1 0 0 0 0.25 0"/>
<feBlend mode="normal" in2="BackgroundImageFix" result="effect1_dropShadow_11519_3381"/>
<feBlend mode="normal" in="SourceGraphic" in2="effect1_dropShadow_11519_3381" result="shape"/>
</filter>
<linearGradient id="paint0_linear_11519_3381" x1="254.473" y1="510.104" x2="254.473" y2="724.882" gradientUnits="userSpaceOnUse">
<stop stop-color="#0D6EFD"/>
<stop offset="1" stop-color="#6BA7FF"/>
</linearGradient>
<linearGradient id="paint1_linear_11519_3381" x1="255.174" y1="583.057" x2="277.27" y2="699.497" gradientUnits="userSpaceOnUse">
<stop stop-color="#0D6EFD"/>
<stop offset="1" stop-color="#0D6EFD" stop-opacity="0"/>
</linearGradient>
<linearGradient id="paint2_linear_11519_3381" x1="552.592" y1="193.747" x2="552.592" y2="362.17" gradientUnits="userSpaceOnUse">
<stop stop-color="#0D6EFD"/>
<stop offset="1" stop-color="#6BA7FF"/>
</linearGradient>
<linearGradient id="paint3_linear_11519_3381" x1="451.571" y1="260.367" x2="451.571" y2="420.427" gradientUnits="userSpaceOnUse">
<stop stop-color="#0D6EFD"/>
<stop offset="1" stop-color="#6BA7FF"/>
</linearGradient>
<linearGradient id="paint4_linear_11519_3381" x1="513.661" y1="182.523" x2="451.582" y2="357.186" gradientUnits="userSpaceOnUse">
<stop stop-color="#0D6EFD"/>
<stop offset="1" stop-color="#6BA7FF"/>
</linearGradient>
<linearGradient id="paint5_linear_11519_3381" x1="410.898" y1="371.216" x2="410.898" y2="619.988" gradientUnits="userSpaceOnUse">
<stop stop-color="#0D6EFD"/>
<stop offset="1" stop-color="#6BA7FF"/>
</linearGradient>
<linearGradient id="paint6_linear_11519_3381" x1="145.91" y1="61.2177" x2="213.32" y2="340.697" gradientUnits="userSpaceOnUse">
<stop stop-color="#0D6EFD"/>
<stop offset="1" stop-color="#6CA7FF"/>
</linearGradient>
<linearGradient id="paint7_linear_11519_3381" x1="116.988" y1="215.141" x2="114.533" y2="221.805" gradientUnits="userSpaceOnUse">
<stop stop-color="#357FEB"/>
<stop offset="1" stop-color="#307CEB"/>
</linearGradient>
<linearGradient id="paint8_linear_11519_3381" x1="159.075" y1="170.248" x2="151.008" y2="172.703" gradientUnits="userSpaceOnUse">
<stop stop-color="#2575EA"/>
<stop offset="1" stop-color="#2B79EA"/>
</linearGradient>
<linearGradient id="paint9_linear_11519_3381" x1="202.215" y1="186.382" x2="190.991" y2="187.785" gradientUnits="userSpaceOnUse">
<stop stop-color="#1560CD"/>
<stop offset="1" stop-color="#1D6ADD"/>
</linearGradient>
<linearGradient id="paint10_linear_11519_3381" x1="233.43" y1="159.375" x2="242.899" y2="152.01" gradientUnits="userSpaceOnUse">
<stop stop-color="#1263DA"/>
<stop offset="1" stop-color="#1269E9"/>
</linearGradient>
<radialGradient id="paint11_radial_11519_3381" cx="0" cy="0" r="1" gradientUnits="userSpaceOnUse" gradientTransform="translate(212.035 176.211) rotate(-159.444) scale(26.9696 48.0252)">
<stop/>
<stop offset="1" stop-opacity="0"/>
</radialGradient>
<radialGradient id="paint12_radial_11519_3381" cx="0" cy="0" r="1" gradientUnits="userSpaceOnUse" gradientTransform="translate(128.211 197.605) rotate(-47.6194) scale(70.7454 125.977)">
<stop stop-color="white"/>
<stop offset="1" stop-color="white" stop-opacity="0"/>
</radialGradient>
<linearGradient id="paint13_linear_11519_3381" x1="267.451" y1="189.595" x2="332.335" y2="458.603" gradientUnits="userSpaceOnUse">
<stop stop-color="#0D6EFD"/>
<stop offset="1" stop-color="#6CA7FF"/>
</linearGradient>
<linearGradient id="paint14_linear_11519_3381" x1="406.473" y1="519.03" x2="420.564" y2="411.39" gradientUnits="userSpaceOnUse">
<stop stop-color="#0D6EFD"/>
<stop offset="1" stop-color="#0D6EFD" stop-opacity="0"/>
</linearGradient>
<linearGradient id="paint15_linear_11519_3381" x1="406.473" y1="519.03" x2="420.564" y2="411.39" gradientUnits="userSpaceOnUse">
<stop stop-color="#0D6EFD"/>
<stop offset="1" stop-color="#0D6EFD" stop-opacity="0"/>
</linearGradient>
<linearGradient id="paint16_linear_11519_3381" x1="551.891" y1="247.409" x2="563.816" y2="343.508" gradientUnits="userSpaceOnUse">
<stop stop-color="#0D6EFD"/>
<stop offset="1" stop-color="#0D6EFD" stop-opacity="0"/>
</linearGradient>
<radialGradient id="paint17_radial_11519_3381" cx="0" cy="0" r="1" gradientUnits="userSpaceOnUse" gradientTransform="translate(255.526 271.609) rotate(32.4949) scale(65.2855 79.214)">
<stop stop-color="white"/>
<stop offset="1" stop-color="white" stop-opacity="0"/>
</radialGradient>
<radialGradient id="paint18_radial_11519_3381" cx="0" cy="0" r="1" gradientUnits="userSpaceOnUse" gradientTransform="translate(338.999 349.12) rotate(-125.34) scale(47.2951 56.1846)">
<stop/>
<stop offset="1" stop-opacity="0"/>
</radialGradient>
<radialGradient id="paint19_radial_11519_3381" cx="0" cy="0" r="1" gradientUnits="userSpaceOnUse" gradientTransform="translate(437.904 325.271) rotate(-70.8664) scale(36.3812 36.3758)">
<stop stop-color="white"/>
<stop offset="1" stop-color="white" stop-opacity="0"/>
</radialGradient>
<radialGradient id="paint20_radial_11519_3381" cx="0" cy="0" r="1" gradientUnits="userSpaceOnUse" gradientTransform="translate(467.015 361.396) rotate(-103.191) scale(46.1098 46.103)">
<stop/>
<stop offset="1" stop-opacity="0"/>
</radialGradient>
</defs>
</svg>