<svg width="332" height="307" viewBox="0 0 332 307" fill="none" xmlns="http://www.w3.org/2000/svg">
<path d="M170.503 56.7603C170.366 45.5943 170.503 56.3881 170.366 34.6145C175.996 34.593 277.272 78.2014 281.658 81.7448C286.043 85.2882 286.215 89.8801 286.849 95.6827C286.849 98.0037 286.961 97.8103 286.849 98.7517C286.967 99.9972 286.961 101.193 286.961 102.407V176.948C286.977 177.45 286.939 177.953 286.849 178.448C286.661 179.283 286.205 180.032 285.552 180.582C284.898 181.132 284.084 181.452 283.232 181.494H282.283H254.492C254.096 181.488 253.7 181.511 253.307 181.562C252.549 181.635 251.83 181.933 251.243 182.419C250.656 182.905 250.227 183.557 250.012 184.29C249.795 185.032 249.795 185.821 250.012 186.563C250.382 188.113 250.567 189.702 250.564 191.296C250.581 194.604 249.725 197.857 248.082 200.725C245.648 205.117 241.604 208.383 236.808 209.83C235.241 210.317 233.615 210.589 231.974 210.639C228.52 210.817 217.639 210.03 214.603 208.366C212.126 207.053 209.966 205.209 208.277 202.965C206.589 200.721 205.412 198.132 204.83 195.382C204.429 193.593 204.288 191.755 204.414 189.926C204.491 188.788 204.666 187.659 204.935 186.551C205.213 185.567 205.099 184.513 204.619 183.611C204.34 183.051 203.924 182.57 203.412 182.214C202.899 181.857 202.305 181.635 201.684 181.568C201.272 181.523 200.858 181.498 200.443 181.494H172.526H171.49C170.516 181.452 169.593 181.046 168.903 180.354C168.214 179.662 167.808 178.735 167.767 177.757C167.767 177.464 167.767 177.172 167.767 176.879V148.273C167.741 147.642 167.564 147.027 167.251 146.479C166.938 145.931 166.498 145.467 165.969 145.126C165.44 144.784 164.836 144.576 164.21 144.518C163.583 144.46 162.952 144.554 162.369 144.792C161.169 145.293 159.922 145.668 158.646 145.913C156.881 146.26 155.078 146.364 153.285 146.225C151.732 146.103 143.906 143.302 143.212 142.396C141.53 140.199 140.339 137.663 139.72 134.963C139.243 132.998 139.094 133.2 139.28 131.186C138.508 127.069 140.15 123.169 142.851 120.051C145.552 116.933 149.171 114.758 153.185 113.842C157.029 112.961 161.048 113.278 164.708 114.751C164.974 114.857 165.254 114.951 165.533 115.032C166.099 115.174 166.689 115.186 167.26 115.068C167.832 114.95 168.369 114.705 168.834 114.351C169.298 113.996 169.676 113.541 169.942 113.02C170.207 112.498 170.352 111.924 170.366 111.339C170.366 111.021 170.366 110.716 170.366 110.386V77.4163C170.35 76.9123 170.503 76.8589 170.503 75.9154C170.503 74.6257 170.503 77.4163 170.503 73.8813C170.503 71.6481 170.503 74.4396 170.503 71.0898V62.1571V56.7603Z" fill="#0D6EFD" fill-opacity="0.15"/>
<mask id="path-2-inside-1_6603_13029" fill="white">
<path d="M217.189 305.567H169.245C168.772 305.582 168.299 305.552 167.832 305.475C166.922 305.285 166.101 304.794 165.503 304.083C164.904 303.371 164.56 302.479 164.527 301.55C164.527 301.327 164.527 301.105 164.527 300.895V265.91C164.51 265.408 164.552 264.905 164.652 264.412C164.779 263.868 165.014 263.355 165.345 262.905C165.675 262.454 166.092 262.075 166.573 261.789C167.053 261.504 167.586 261.318 168.14 261.244C168.693 261.17 169.256 261.208 169.795 261.357C170.116 261.448 170.449 261.579 170.737 261.697C174.305 263.089 178.193 263.447 181.954 262.73C185.716 262.012 189.199 260.248 192.003 257.64C194.77 255.08 196.774 251.803 197.793 248.174C198.812 244.544 198.805 240.703 197.775 237.077C196.744 233.451 194.729 230.181 191.954 227.63C189.179 225.078 185.751 223.345 182.051 222.623C178.224 221.861 174.257 222.234 170.639 223.696C170.016 223.957 169.351 224.106 168.676 224.134C167.602 224.143 166.567 223.734 165.79 222.992C165.013 222.251 164.555 221.236 164.514 220.162C164.514 219.94 164.514 219.717 164.514 219.508C164.514 207.822 164.514 196.137 164.514 184.451C164.502 184.088 164.52 183.725 164.567 183.365C164.704 182.389 165.183 181.493 165.919 180.836C166.654 180.18 167.599 179.806 168.584 179.78C168.833 179.78 169.088 179.78 169.337 179.78H202.977C203.45 179.77 203.923 179.803 204.39 179.878C205.442 180.08 206.375 180.683 206.991 181.559C207.607 182.436 207.86 183.517 207.695 184.575C207.629 184.962 207.538 185.341 207.466 185.72C206.118 192.564 207.76 198.61 212.406 203.792C215.433 207.212 219.564 209.462 224.079 210.152C227.41 210.707 230.827 210.427 234.023 209.337C237.219 208.248 240.095 206.382 242.392 203.908C244.69 201.433 246.337 198.427 247.187 195.16C248.038 191.892 248.063 188.464 247.263 185.184C247.054 184.399 247.054 183.574 247.263 182.789C247.501 181.946 248.001 181.2 248.69 180.658C249.379 180.116 250.221 179.806 251.097 179.773C251.352 179.773 251.601 179.773 251.85 179.773H288.918C289.356 179.763 289.794 179.793 290.227 179.865C291.168 180.032 292.023 180.518 292.648 181.241C293.274 181.964 293.632 182.881 293.662 183.836C293.662 184.006 293.662 184.176 293.662 184.34C293.662 216.134 293.662 247.926 293.662 279.716C293.721 285.606 291.705 291.329 287.969 295.884C284.147 300.716 278.698 303.994 272.638 305.109C271.021 305.421 269.377 305.576 267.73 305.574L217.189 305.567Z"/>
</mask>
<path d="M217.189 305.567H169.245C168.772 305.582 168.299 305.552 167.832 305.475C166.922 305.285 166.101 304.794 165.503 304.083C164.904 303.371 164.56 302.479 164.527 301.55C164.527 301.327 164.527 301.105 164.527 300.895V265.91C164.51 265.408 164.552 264.905 164.652 264.412C164.779 263.868 165.014 263.355 165.345 262.905C165.675 262.454 166.092 262.075 166.573 261.789C167.053 261.504 167.586 261.318 168.14 261.244C168.693 261.17 169.256 261.208 169.795 261.357C170.116 261.448 170.449 261.579 170.737 261.697C174.305 263.089 178.193 263.447 181.954 262.73C185.716 262.012 189.199 260.248 192.003 257.64C194.77 255.08 196.774 251.803 197.793 248.174C198.812 244.544 198.805 240.703 197.775 237.077C196.744 233.451 194.729 230.181 191.954 227.63C189.179 225.078 185.751 223.345 182.051 222.623C178.224 221.861 174.257 222.234 170.639 223.696C170.016 223.957 169.351 224.106 168.676 224.134C167.602 224.143 166.567 223.734 165.79 222.992C165.013 222.251 164.555 221.236 164.514 220.162C164.514 219.94 164.514 219.717 164.514 219.508C164.514 207.822 164.514 196.137 164.514 184.451C164.502 184.088 164.52 183.725 164.567 183.365C164.704 182.389 165.183 181.493 165.919 180.836C166.654 180.18 167.599 179.806 168.584 179.78C168.833 179.78 169.088 179.78 169.337 179.78H202.977C203.45 179.77 203.923 179.803 204.39 179.878C205.442 180.08 206.375 180.683 206.991 181.559C207.607 182.436 207.86 183.517 207.695 184.575C207.629 184.962 207.538 185.341 207.466 185.72C206.118 192.564 207.76 198.61 212.406 203.792C215.433 207.212 219.564 209.462 224.079 210.152C227.41 210.707 230.827 210.427 234.023 209.337C237.219 208.248 240.095 206.382 242.392 203.908C244.69 201.433 246.337 198.427 247.187 195.16C248.038 191.892 248.063 188.464 247.263 185.184C247.054 184.399 247.054 183.574 247.263 182.789C247.501 181.946 248.001 181.2 248.69 180.658C249.379 180.116 250.221 179.806 251.097 179.773C251.352 179.773 251.601 179.773 251.85 179.773H288.918C289.356 179.763 289.794 179.793 290.227 179.865C291.168 180.032 292.023 180.518 292.648 181.241C293.274 181.964 293.632 182.881 293.662 183.836C293.662 184.006 293.662 184.176 293.662 184.34C293.662 216.134 293.662 247.926 293.662 279.716C293.721 285.606 291.705 291.329 287.969 295.884C284.147 300.716 278.698 303.994 272.638 305.109C271.021 305.421 269.377 305.576 267.73 305.574L217.189 305.567Z" fill="#0D6EFD" fill-opacity="0.15"/>
<mask id="path-4-outside-2_6603_13029" maskUnits="userSpaceOnUse" x="44.8281" y="27.606" width="127" height="160" fill="black">
<rect fill="white" x="44.8281" y="27.606" width="127" height="160"/>
<path d="M50.8302 140.285C50.8302 126.084 50.8302 111.881 50.8302 97.6763C50.776 93.645 51.7801 89.6699 53.7423 86.1478C55.3933 83.0895 57.7044 80.4371 60.5079 78.3829C63.3113 76.3288 162.438 35.2586 165.852 34.606C166.037 39.8168 165.846 48.9358 166.032 55.449V68.662C166.032 72.5701 166.032 71.0813 166.032 74.4311C166.032 77.0364 166.003 76.5279 166.032 77.4954C166.032 77.6512 166.032 77.801 166.032 77.9568C166.032 88.7423 166.032 99.5279 166.032 110.313C166.046 110.67 166.024 111.028 165.966 111.38C165.859 111.92 165.636 112.431 165.312 112.877C164.988 113.323 164.571 113.693 164.09 113.961C163.609 114.23 163.075 114.39 162.526 114.432C161.976 114.473 161.425 114.395 160.908 114.202C160.08 113.867 159.234 113.579 158.374 113.339C154.365 112.27 150.115 112.565 146.293 114.178C142.471 115.792 138.948 118.891 137.264 122.249C135.58 125.608 134.534 129.422 134.939 133.239C135.318 137.146 136.92 140.835 139.517 143.78C142.114 146.724 145.574 148.774 149.404 149.639C153.035 150.484 156.837 150.21 160.309 148.854C160.709 148.687 161.122 148.552 161.544 148.452C162.085 148.353 162.642 148.373 163.175 148.511C163.708 148.649 164.204 148.901 164.629 149.251C165.054 149.601 165.398 150.039 165.636 150.536C166.186 151.683 166.008 153.036 166.008 154.267C166.008 165.053 166.008 166.636 166.008 177.421C166.028 177.906 165.975 178.39 165.852 178.859C165.642 179.574 165.226 180.211 164.656 180.689C164.086 181.168 163.386 181.468 162.646 181.55C162.287 181.55 161.933 181.604 161.574 181.604H134.599C134.263 181.604 133.934 181.574 133.604 181.556C133.067 181.51 132.547 181.349 132.077 181.084C131.608 180.819 131.201 180.456 130.884 180.02C130.567 179.585 130.347 179.086 130.24 178.558C130.132 178.03 130.139 177.485 130.261 176.96C130.422 176.181 130.602 175.414 130.698 174.629C131.301 169.863 126.329 165.047 123.483 161.177C120.638 157.306 116.414 154.676 111.685 153.831C106.965 152.982 102.099 153.983 98.099 156.628C94.0987 159.273 91.271 163.357 90.2034 168.032C89.544 170.827 85.8344 173.739 86.5173 176.529C86.7057 177.193 86.7365 177.893 86.6072 178.572C86.4438 179.354 86.0348 180.064 85.4398 180.597C84.8448 181.131 84.095 181.46 83.2997 181.538C82.9222 181.538 82.5387 181.586 82.1552 181.586H55.3182C54.9347 181.586 54.5512 181.586 54.1737 181.526C53.3686 181.431 52.6159 181.078 52.0282 180.52C51.4406 179.961 51.0497 179.227 50.9141 178.428C50.8523 177.999 50.8263 177.567 50.8362 177.134L50.8302 140.285Z"/>
</mask>
<path d="M50.8302 140.285C50.8302 126.084 50.8302 111.881 50.8302 97.6763C50.776 93.645 51.7801 89.6699 53.7423 86.1478C55.3933 83.0895 57.7044 80.4371 60.5079 78.3829C63.3113 76.3288 162.438 35.2586 165.852 34.606C166.037 39.8168 165.846 48.9358 166.032 55.449V68.662C166.032 72.5701 166.032 71.0813 166.032 74.4311C166.032 77.0364 166.003 76.5279 166.032 77.4954C166.032 77.6512 166.032 77.801 166.032 77.9568C166.032 88.7423 166.032 99.5279 166.032 110.313C166.046 110.67 166.024 111.028 165.966 111.38C165.859 111.92 165.636 112.431 165.312 112.877C164.988 113.323 164.571 113.693 164.09 113.961C163.609 114.23 163.075 114.39 162.526 114.432C161.976 114.473 161.425 114.395 160.908 114.202C160.08 113.867 159.234 113.579 158.374 113.339C154.365 112.27 150.115 112.565 146.293 114.178C142.471 115.792 138.948 118.891 137.264 122.249C135.58 125.608 134.534 129.422 134.939 133.239C135.318 137.146 136.92 140.835 139.517 143.78C142.114 146.724 145.574 148.774 149.404 149.639C153.035 150.484 156.837 150.21 160.309 148.854C160.709 148.687 161.122 148.552 161.544 148.452C162.085 148.353 162.642 148.373 163.175 148.511C163.708 148.649 164.204 148.901 164.629 149.251C165.054 149.601 165.398 150.039 165.636 150.536C166.186 151.683 166.008 153.036 166.008 154.267C166.008 165.053 166.008 166.636 166.008 177.421C166.028 177.906 165.975 178.39 165.852 178.859C165.642 179.574 165.226 180.211 164.656 180.689C164.086 181.168 163.386 181.468 162.646 181.55C162.287 181.55 161.933 181.604 161.574 181.604H134.599C134.263 181.604 133.934 181.574 133.604 181.556C133.067 181.51 132.547 181.349 132.077 181.084C131.608 180.819 131.201 180.456 130.884 180.02C130.567 179.585 130.347 179.086 130.24 178.558C130.132 178.03 130.139 177.485 130.261 176.96C130.422 176.181 130.602 175.414 130.698 174.629C131.301 169.863 126.329 165.047 123.483 161.177C120.638 157.306 116.414 154.676 111.685 153.831C106.965 152.982 102.099 153.983 98.099 156.628C94.0987 159.273 91.271 163.357 90.2034 168.032C89.544 170.827 85.8344 173.739 86.5173 176.529C86.7057 177.193 86.7365 177.893 86.6072 178.572C86.4438 179.354 86.0348 180.064 85.4398 180.597C84.8448 181.131 84.095 181.46 83.2997 181.538C82.9222 181.538 82.5387 181.586 82.1552 181.586H55.3182C54.9347 181.586 54.5512 181.586 54.1737 181.526C53.3686 181.431 52.6159 181.078 52.0282 180.52C51.4406 179.961 51.0497 179.227 50.9141 178.428C50.8523 177.999 50.8263 177.567 50.8362 177.134L50.8302 140.285Z" fill="#0D6EFD" fill-opacity="0.15"/>
<path fill-rule="evenodd" clip-rule="evenodd" d="M50.9912 275.352L51.0091 189.942C51.0009 189.483 51.0349 189.023 51.111 188.57C51.2538 187.853 51.6014 187.192 52.1118 186.667C52.6222 186.143 53.2736 185.778 53.9871 185.616C54.4393 185.53 54.8992 185.492 55.3593 185.502H86.9249C87.893 185.474 88.8141 185.079 89.5017 184.397C90.1893 183.715 90.5919 182.797 90.628 181.829C90.619 181.424 90.5586 181.021 90.4482 180.631C90.0716 179.092 89.8904 177.511 89.9089 175.927C89.9805 171.752 91.4396 167.718 94.0564 164.464C96.6732 161.209 100.299 158.918 104.362 157.951C106.027 157.543 107.742 157.377 109.455 157.46C113.53 157.646 117.434 159.159 120.57 161.768C123.707 164.377 125.906 167.939 126.831 171.912C127.5 174.836 127.473 177.875 126.754 180.787C126.592 181.461 126.61 182.165 126.807 182.83C127.04 183.591 127.508 184.26 128.145 184.739C128.781 185.218 129.552 185.483 130.349 185.496H161.842C162.302 185.479 162.762 185.513 163.215 185.598C164.046 185.772 164.794 186.222 165.338 186.874C165.882 187.527 166.189 188.344 166.211 189.193V221.831C166.196 222.316 166.238 222.801 166.336 223.276C166.464 223.765 166.688 224.224 166.996 224.625C167.303 225.027 167.688 225.363 168.128 225.613C168.567 225.863 169.053 226.023 169.555 226.082C170.057 226.142 170.566 226.1 171.052 225.96C171.298 225.89 171.541 225.806 171.777 225.708C174.32 224.679 177.064 224.245 179.8 224.438C183.443 224.662 186.941 225.943 189.867 228.125C192.792 230.307 195.018 233.294 196.272 236.721C196.917 238.473 197.283 240.315 197.357 242.18C197.461 244.3 197.21 246.423 196.614 248.46C195.359 252.676 192.658 256.314 188.985 258.735C185.312 261.156 180.904 262.204 176.535 261.696C174.809 261.498 173.119 261.063 171.513 260.402C170.792 260.096 169.993 260.02 169.227 260.184C168.46 260.348 167.763 260.744 167.229 261.318C166.629 261.959 166.275 262.791 166.229 263.667V296.461C166.25 296.921 166.213 297.382 166.121 297.833C165.92 298.641 165.459 299.361 164.81 299.882C164.16 300.403 163.358 300.695 162.525 300.716H74.8092C70.7522 300.752 66.7574 299.718 63.2267 297.72C60.5164 296.239 58.1265 294.236 56.195 291.826C54.2635 289.417 52.8288 286.648 51.9738 283.68C51.4313 281.869 51.1193 279.997 51.0451 278.108C51.0091 277.191 50.9912 276.274 50.9912 275.352ZM46.6173 285.255C45.9453 283.003 45.5586 280.675 45.4664 278.327C45.4276 277.337 45.4082 276.347 45.4082 275.352L45.4262 189.986C45.4155 189.202 45.4753 188.419 45.605 187.646L45.6189 187.563L45.6354 187.481C45.9887 185.705 46.8487 184.07 48.1117 182.773C49.3746 181.476 50.9862 180.572 52.7517 180.172L52.849 180.149L52.9469 180.131C53.759 179.977 54.5846 179.906 55.411 179.919H84.6174C84.408 178.578 84.3105 177.221 84.3264 175.862L84.3265 175.847L84.3268 175.831C84.4196 170.416 86.3118 165.186 89.7054 160.966C93.0948 156.75 97.7892 153.781 103.05 152.524C105.23 151.991 107.475 151.775 109.717 151.883C115.006 152.126 120.07 154.09 124.141 157.475C128.213 160.862 131.067 165.487 132.269 170.646L132.271 170.657L132.274 170.668C132.969 173.708 133.082 176.844 132.614 179.913H161.755C162.589 179.891 163.423 179.957 164.243 180.111L164.301 180.121L164.358 180.133C166.421 180.565 169.303 181.681 170.653 183.3C172.002 184.919 171.739 186.947 171.792 189.054L171.794 189.124V219.793C174.501 218.986 177.338 218.67 180.169 218.867C184.886 219.162 189.415 220.824 193.204 223.65C196.999 226.48 199.887 230.355 201.514 234.801C202.356 237.09 202.835 239.496 202.934 241.932C203.066 244.665 202.741 247.401 201.972 250.028L201.968 250.04L201.965 250.052C200.335 255.527 196.827 260.252 192.058 263.396C187.291 266.539 181.569 267.901 175.897 267.242C174.513 267.084 173.146 266.807 171.811 266.416V296.356C171.84 297.228 171.765 298.101 171.59 298.956L171.567 299.068L171.539 299.179C171.043 301.175 169.906 302.952 168.302 304.238C166.698 305.524 164.716 306.247 162.66 306.297L162.593 306.299H74.8334C69.8184 306.339 64.8807 305.063 60.513 302.599C57.1706 300.767 54.2227 298.293 51.8387 295.318C49.452 292.34 47.6775 288.92 46.6173 285.255Z" fill="#FCFDFD"/>
<path opacity="0.8" d="M51.0092 234.282V189.942C51.0009 189.482 51.035 189.023 51.111 188.57C51.2538 187.852 51.6015 187.191 52.1119 186.667C52.6223 186.143 53.2736 185.778 53.9872 185.616C54.4393 185.53 54.8992 185.492 55.3593 185.502H86.0861C86.3677 185.502 86.6494 185.502 86.925 185.502C87.893 185.474 88.8142 185.078 89.5017 184.396C90.1893 183.714 90.5919 182.797 90.628 181.829C90.619 181.423 90.5586 181.021 90.4483 180.63C90.0717 179.091 89.8905 177.511 89.909 175.927C89.9805 171.751 91.4397 167.718 94.0565 164.463C96.6732 161.209 100.299 158.917 104.362 157.951C106.027 157.542 107.742 157.377 109.455 157.459C113.53 157.646 117.434 159.158 120.571 161.767C123.707 164.376 125.906 167.938 126.831 171.912C127.5 174.835 127.473 177.875 126.754 180.786C126.592 181.46 126.61 182.165 126.807 182.829C127.04 183.591 127.508 184.259 128.145 184.738C128.781 185.217 129.552 185.483 130.349 185.496H161.842C162.302 185.479 162.762 185.513 163.215 185.598C164.046 185.772 164.794 186.221 165.338 186.874C165.882 187.526 166.189 188.344 166.211 189.193C166.211 189.498 166.211 189.792 166.211 190.11V221.831C166.196 222.316 166.238 222.8 166.336 223.275C166.464 223.765 166.688 224.224 166.996 224.625C167.303 225.026 167.688 225.362 168.128 225.612C168.567 225.863 169.053 226.022 169.555 226.082C170.057 226.141 170.566 226.1 171.052 225.959C171.299 225.89 171.541 225.806 171.777 225.708C174.32 224.679 177.064 224.245 179.8 224.438C183.443 224.662 186.941 225.943 189.867 228.125C192.792 230.306 195.018 233.294 196.272 236.721C196.917 238.473 197.283 240.315 197.357 242.18C197.461 244.3 197.21 246.422 196.614 248.459C195.359 252.675 192.658 256.314 188.985 258.735C185.313 261.156 180.904 262.204 176.535 261.696C174.809 261.498 173.12 261.062 171.513 260.401C170.792 260.096 169.993 260.02 169.227 260.184C168.46 260.348 167.763 260.744 167.229 261.318C166.629 261.958 166.275 262.79 166.229 263.667C166.229 263.972 166.229 264.266 166.229 264.584V296.461C166.25 296.921 166.213 297.382 166.121 297.833C165.92 298.641 165.46 299.361 164.81 299.881C164.16 300.402 163.358 300.695 162.526 300.715H74.8092C70.7523 300.751 66.7574 299.718 63.2268 297.719C60.5165 296.239 58.1265 294.236 56.195 291.826C54.2635 289.416 52.8288 286.648 51.9739 283.68C51.4314 281.869 51.1193 279.997 51.0451 278.108C51.0092 277.191 50.9912 276.274 50.9912 275.351L51.0092 234.282Z" fill="#0D6EFD"/>
<path d="M185.368 8.02076L310.915 67.1196C315.951 69.49 314.262 77.0448 308.696 77.0448H305.652C302.698 77.0448 299.776 76.4277 297.073 75.2329L178.144 22.6497C171.887 19.8829 164.758 19.8514 158.476 22.5629L36.2757 75.3079C33.6209 76.4538 30.7599 77.0448 27.8683 77.0448H23.905C18.3086 77.0448 16.6477 69.4252 21.7364 67.096L151.205 7.83769C162.065 2.86727 174.563 2.93424 185.368 8.02076Z" fill="#0D6EFD" fill-opacity="0.15"/>
</svg>
