<svg width="473" height="422" viewBox="0 0 473 422" fill="none" xmlns="http://www.w3.org/2000/svg">
    <g opacity="0.5">
    <mask id="mask0_13207_44534" style="mask-type:alpha" maskUnits="userSpaceOnUse" x="0" y="0" width="678" height="422">
    <rect width="678" height="422" fill="url(#paint0_linear_13207_44534)"/>
    <rect x="0.5" y="0.5" width="677" height="421" stroke="#0D6EFD" stroke-opacity="0.5"/>
    </mask>
    <g mask="url(#mask0_13207_44534)">
    <g opacity="0.5">
    <path opacity="0.5" d="M86.3779 109.388L405.536 123.007" stroke="#0D6EFD" stroke-opacity="0.6" stroke-width="0.748967"/>
    <path opacity="0.5" d="M86.3779 109.388L334.64 426.525" stroke="#0D6EFD" stroke-opacity="0.6" stroke-width="0.748967"/>
    <path opacity="0.5" d="M555.702 324.948L335.068 427.088" stroke="#0D6EFD" stroke-opacity="0.6" stroke-width="0.748967"/>
    <circle cx="50.9298" cy="50.9298" r="50.9298" transform="matrix(-0.990507 -0.137462 -0.137462 0.990507 145.651 60.5723)" fill="#0D6EFD" fill-opacity="0.3"/>
    <circle cx="50.9298" cy="50.9298" r="50.5553" transform="matrix(-0.990507 -0.137462 -0.137462 0.990507 145.651 60.5723)" stroke="#0D6EFD" stroke-opacity="0.6" stroke-width="0.748967"/>
    <circle cx="74.5222" cy="74.5222" r="74.5222" transform="matrix(-0.990507 -0.137462 -0.137462 0.990507 426.707 356.011)" fill="#0D6EFD" fill-opacity="0.3"/>
    <circle cx="74.5222" cy="74.5222" r="74.1477" transform="matrix(-0.990507 -0.137462 -0.137462 0.990507 426.707 356.011)" stroke="#0D6EFD" stroke-opacity="0.6" stroke-width="0.748967"/>
    <circle cx="74.5222" cy="74.5222" r="74.5222" transform="matrix(-0.990507 -0.137462 -0.137462 0.990507 489.624 55.4243)" fill="#0D6EFD" fill-opacity="0.3"/>
    <circle cx="74.5222" cy="74.5222" r="74.1477" transform="matrix(-0.990507 -0.137462 -0.137462 0.990507 489.624 55.4243)" stroke="#0D6EFD" stroke-opacity="0.6" stroke-width="0.748967"/>
    </g>
    </g>
    </g>
    <defs>
    <linearGradient id="paint0_linear_13207_44534" x1="339" y1="4.25253e-06" x2="384.42" y2="337.928" gradientUnits="userSpaceOnUse">
    <stop stop-color="#D9D9D9"/>
    <stop offset="1" stop-color="#D9D9D9" stop-opacity="0"/>
    </linearGradient>
    </defs>
    </svg>
    
